<svg viewBox="0 0 64 48" xmlns="http://www.w3.org/2000/svg">
<path d="m8 40.8c0 1 0.2 2 0.6 2.8 0.4 0.9 0.9 1.6 1.5 2.3 0.6 0.6 1.4 1.2 2.3 1.5 0.9 0.4 1.8 0.6 2.8 0.6s1.9-0.2 2.8-0.6 1.6-0.9 2.3-1.5c0.6-0.6 1.2-1.4 1.5-2.3 0.4-0.9 0.6-1.8 0.6-2.8s-0.2-1.9-0.6-2.8-0.9-1.6-1.6-2.3-1.4-1.2-2.3-1.6-1.8-0.6-2.8-0.6-2 0.2-2.8 0.6c-0.9 0.4-1.7 0.9-2.3 1.6-0.6 0.6-1.1 1.4-1.5 2.2-0.3 0.9-0.5 1.9-0.5 2.9zm0-17.9c0 0.6 0.2 1.1 0.6 1.5 0.4 0.5 1 0.7 1.6 0.8 2.7 0.3 5.2 1 7.6 2.1 2.4 1.2 4.5 2.6 6.3 4.5 1.8 1.8 3.3 3.9 4.4 6.3 1.2 2.4 1.9 4.9 2.1 7.7 0.1 0.6 0.4 1.2 0.8 1.6s1 0.6 1.6 0.6h4.8c0.7 0 1.3-0.3 1.8-0.8s0.7-1.1 0.6-1.8c-0.3-3.9-1.3-7.6-2.9-11.1s-3.8-6.6-6.5-9.2c-2.7-2.7-5.8-4.9-9.3-6.5-3.4-1.7-7.1-2.6-11.1-2.9h-0.1-0.1c-0.6 0-1.1 0.2-1.6 0.7-0.4 0.3-0.6 0.9-0.6 1.6v4.9zm0-15.7c0 0.6 0.2 1.2 0.6 1.7s1 0.7 1.6 0.8c4.9 0.3 9.4 1.4 13.7 3.4s8 4.6 11.3 7.8c3.2 3.2 5.8 7 7.8 11.3 2 4.2 3.1 8.8 3.4 13.7 0 0.6 0.3 1.1 0.7 1.6 0.4 0.4 1 0.7 1.6 0.7h4.9c0.6 0 1.2-0.3 1.7-0.8 0.6-0.5 0.8-1.1 0.7-1.7-0.3-6.2-1.7-12-4.2-17.3-2.5-5.6-5.8-10.4-9.8-14.5-4.1-4.1-8.8-7.3-14.2-9.8-5.4-2.4-11.2-3.8-17.3-4.1h-0.1c-0.6 0-1.2 0.2-1.6 0.6-0.6 0.5-0.8 1.1-0.8 1.8v4.8z"/>
<path d="m34.161 32.392c0 1.8178 0.35182 3.5769 1.0555 5.2774 0.70365 1.7005 1.7005 3.2837 3.1078 4.6324 1.3487 1.3487 2.9319 2.4041 4.6324 3.0491 1.7005 0.64501 3.4596 0.99684 5.2774 0.99684 1.8178 0 3.5769-0.35182 5.2774-0.99684 1.7005-0.70365 3.2837-1.7005 4.6324-3.0491s2.4041-2.9319 3.1078-4.6324c0.70365-1.7005 1.0555-3.4596 1.0555-5.2774 0-1.8178-0.35182-3.5769-1.0555-5.2774-0.64501-1.7591-1.7005-3.2837-3.0491-4.691-1.3487-1.3487-2.9319-2.4041-4.6324-3.1078-1.7591-0.64501-3.5182-0.99684-5.336-0.99684-1.8178 0-3.5769 0.35182-5.2774 1.0555-1.7005 0.70365-3.2837 1.7005-4.691 3.0491-1.3487 1.3487-2.4041 2.9319-3.1078 4.6324-0.70365 1.7005-0.99684 3.5182-0.99684 5.336zm6.9192-5.1015 2.0523-2.0523c0.11728-0.11728 0.23455-0.17591 0.41046-0.17591 0.17591 0 0.29319 0.05864 0.41046 0.17591l4.2805 4.2805 3.8701-3.9287c0.11728-0.11728 0.23455-0.17591 0.41046-0.17591s0.29319 0.05864 0.41046 0.17591l1.9937 1.9937c0.29319 0.29319 0.29319 0.52774 0 0.82092l-3.9287 3.8701 4.3392 4.3392c0.29319 0.29319 0.29319 0.52774 0 0.82092l-2.0523 2.0523c-0.29319 0.29319-0.52774 0.29319-0.82092 0l-4.2805-4.3392-3.9287 3.9287c-0.29319 0.29319-0.52774 0.29319-0.82092 0l-1.935-1.9937c-0.11728-0.11728-0.17591-0.23455-0.17591-0.41046 0-0.17591 0.05864-0.29319 0.17591-0.41046l3.8701-3.8701-4.2805-4.3392c-0.23455-0.17591-0.23455-0.4691 0-0.76229z" fill="#4c4c4c" stroke="#000"/>
<path d="m51.943 28.451-0.52551-1.2948 0.54334-0.57835 0.54334-0.57836 1.0061 0.98741 1.0061 0.98741-0.86488 0.88572c-0.47568 0.48714-0.93645 0.88572-1.0239 0.88572-0.08747 0-0.39552-0.58265-0.68455-1.2948z" stroke="#000" stroke-width=".23358"/>
<path d="m42.888 37.622-0.9856-1.0043 1.0231-1.0041 1.0231-1.0041 0.49755 1.4733 0.49755 1.4733-0.53506 0.53506-0.53506 0.53506-0.9856-1.0043z" stroke="#000" stroke-width=".23358"/>
</svg>
