<svg xmlns="http://www.w3.org/2000/svg" viewBox="0 0 64 48">
<path d="M16.4,37.6c0.9,2.1,2.1,3.9,3.6,5.4c1.5,1.5,3.3,2.8,5.4,3.6c2,0.9,4.2,1.3,6.6,1.3c2.3,0,4.5-0.4,6.6-1.3
	c2.1-0.9,3.9-2.1,5.4-3.6c1.5-1.5,2.7-3.3,3.6-5.4c0.9-2.1,1.3-4.5,1.3-7.3c0-2.8-0.8-5.4-2.4-7.9c-0.6-1-1.4-2.2-2.4-3.5
	c-4.7-6.4-7.8-12-9.3-16.9c-0.2-0.7-0.6-1.2-1.1-1.6C33.2,0.1,32.6-0.1,32,0c-0.6-0.1-1.2,0-1.7,0.4c-0.5,0.3-0.9,0.8-1.1,1.6
	C28,5.7,26,9.8,23.1,14.2c-1.2,1.8-2.3,3.3-3.3,4.7c-1,1.3-1.7,2.3-2.1,3c-1.8,2.8-2.7,6-2.7,9.6C15,33.5,15.5,35.5,16.4,37.6
	L16.4,37.6z M23.9,31.4c1-1.2,1.7-2.5,2.1-3.9c0.1-0.4,0.3-0.5,0.7-0.4c0.3-0.1,0.5,0.1,0.7,0.4c0.3,0.9,0.8,1.9,1.5,3.1
	c0.3,0.4,0.5,0.8,0.8,1.1c0.3,0.3,0.5,0.7,0.8,1.2c0.3,0.5,0.4,1.2,0.4,2.2s-0.4,1.9-1.2,2.7c-0.8,0.8-1.8,1.2-3,1.2s-2.2-0.4-3-1.2
	s-1.2-1.8-1.2-2.9S22.9,32.6,23.9,31.4z"/>
</svg>
