<svg xmlns="http://www.w3.org/2000/svg" viewBox="0 0 64 48">
<path d="M26.3,19.1c-3.5,0-7.5,0.5-11.9,1.3l-5.4-7c-0.5-0.6-1.2-0.9-2-0.9h-3c-0.4,0-0.6,0.1-0.8,0.4c-0.2,0.3-0.1,0.4-0.1,0.7
	l2.2,9.2c0.1,0.4,0.1,0.7,0.1,1.2c0,0.5,0,0.8-0.1,1.2l-2.2,9.2c-0.1,0.4,0,0.6,0.1,0.9c0.2,0.3,0.5,0.4,0.8,0.4H7
	c0.8,0,1.4-0.4,2-1l5.4-7c4,0.8,7.9,1.2,11.9,1.2h0.8l-3.9,18.1c-0.1,0.4,0,0.6,0.2,0.8s0.5,0.4,0.8,0.4h4.1c0.8,0,1.4-0.4,1.8-1
	l10.5-18.2h10.1c2.5,0,4.9-0.5,6.9-1.4c2.3-1.1,3.2-2.2,3.2-3.3c0.1-1.2-1-2.3-3.2-3.3c-2.2-1-4.5-1.4-6.9-1.4H40.5L30,1
	c-0.4-0.7-1-1-1.8-1h-4.1c-0.4,0-0.6,0.1-0.8,0.4c-0.2,0.2-0.3,0.5-0.2,0.8l3.9,18L26.3,19.1L26.3,19.1z"/>
</svg>
