<svg xmlns="http://www.w3.org/2000/svg" viewBox="0 0 64 48">
<path d="M40.4,18.3c2.5,2.5,3.8,5.4,3.8,9c0,3.5-1.3,6.5-3.8,9c-2.5,2.5-5.5,3.7-9,3.7c-3.5,0-6.5-1.2-9-3.7c-2.5-2.5-3.7-5.4-3.7-9
	c0-3.5,1.2-6.5,3.7-9c2.5-2.5,5.4-3.7,9-3.7C34.9,14.6,37.9,15.8,40.4,18.3z M31.4,8.2c-5.3,0-9.7,1.9-13.4,5.6
	c-3.7,3.7-5.6,8.2-5.6,13.4c0,5.2,1.9,9.7,5.6,13.4s8.2,5.6,13.4,5.6c5.3,0,9.7-1.9,13.4-5.6c3.7-3.7,5.6-8.2,5.6-13.4
	s-1.8-9.7-5.5-13.4C41.2,10,36.7,8.2,31.4,8.2z M32.3,28.4c0.3-0.3,0.5-0.7,0.5-1.1v-3.2c0-0.5-0.2-0.8-0.5-1.1
	c-0.3-0.3-0.7-0.5-1.1-0.5c-0.5,0-0.8,0.2-1.1,0.5c-0.3,0.3-0.5,0.7-0.5,1.1v3.2c0,0.5,0.2,0.8,0.5,1.1c0.3,0.3,0.7,0.5,1.1,0.5
	C31.6,28.9,32,28.7,32.3,28.4z M37.3,30.2L32.2,26c-0.4-0.2-0.8-0.4-1.1-0.3c-0.5,0.1-0.8,0.2-1.1,0.6c-0.3,0.4-0.4,0.8-0.4,1.1
	c0.1,0.5,0.2,0.8,0.6,1.1l5.1,4.2c0.3,0.2,0.7,0.3,1.1,0.3c0.5,0,0.8-0.2,1.1-0.5c0.3-0.4,0.5-0.8,0.4-1.2
	C37.9,30.9,37.7,30.5,37.3,30.2z M54.3,16.9c1.4-2,2-4.4,1.7-6.9c-0.2-2.6-1.3-4.8-3.2-6.6c-1.8-1.9-4.1-2.9-6.6-3.2
	c-2.6-0.2-4.9,0.3-7,1.7L54.3,16.9z M24.7,1.9c-2.1-1.4-4.5-2-7-1.7c-2.6,0.2-4.8,1.3-6.6,3.1C9.3,5.1,8.2,7.3,8,9.9
	c-0.2,2.6,0.3,4.9,1.7,6.9L24.7,1.9z M49.6,47.5c0.3-0.3,0.5-0.7,0.5-1.1c0-0.5-0.2-0.8-0.5-1.1l-4.5-4.5c-0.3-0.4-0.7-0.5-1.1-0.5
	c-0.5,0-0.8,0.2-1.1,0.5c-0.3,0.3-0.5,0.7-0.5,1.1c0,0.5,0.2,0.8,0.5,1.1l4.5,4.5c0.3,0.3,0.7,0.5,1.1,0.5
	C49,47.9,49.3,47.8,49.6,47.5L49.6,47.5z M13.9,46.3c0,0.5,0.2,0.8,0.5,1.1c0.3,0.3,0.7,0.5,1.1,0.5s0.8-0.2,1.1-0.5l4.5-4.5
	c0.3-0.3,0.5-0.7,0.5-1.1c0-0.5-0.2-0.8-0.5-1.1c-0.3-0.3-0.7-0.5-1.1-0.5s-0.8,0.2-1.1,0.5l-4.5,4.5C14,45.5,13.9,45.9,13.9,46.3z"
	/>
</svg>
