<svg xmlns="http://www.w3.org/2000/svg" viewBox="0 0 64 48">
<path d="M13.1,37.7c1.5,1.2,3,2.3,4.5,3.4c3.1,2,6.1,3.5,9,4.3c3.1,1.7,4.9,2.6,5.6,2.6c0.7,0,2.3-0.8,5-2.5
	c4.4-1.2,8.9-3.9,13.6-7.8l0.6,0.1c0.8,0,1.5-0.3,2-0.8c0.5-0.6,0.8-1.3,0.8-2.1c0-0.8-0.3-1.5-0.8-2c-0.5-0.5-1.2-0.8-2-0.8
	s-1.5,0.3-2,0.8c-0.5,0.5-0.8,1.2-0.8,2c0,0.2,0,0.3,0.1,0.3c-1.8,1.2-3.5,2.3-5.1,3.4c-1.7,1.1-3.6,1.5-6.1,1.5
	c-0.4,0-0.8,0-1.2-0.1l-1.9-8.9l-0.4-11h7.8l3.1-0.7c0.4,0.7,0.9,1.1,1.7,1.1s1.4-0.2,1.8-0.7c0.5-0.5,0.7-1,0.7-1.7
	c0-0.6-0.2-1.2-0.7-1.7c-0.5-0.5-1.1-0.7-1.8-0.7s-1.3,0.4-1.7,1.1H33.9l-0.2-3.2c-0.1-1.3-0.2-2-0.2-2.3c1.2-0.4,2.2-1.1,3-2.1
	c0.8-1,1.1-2.2,1.1-3.6c0-1.4-0.5-2.7-1.7-3.9c-1.1-1.1-2.5-1.7-4.1-1.7s-3,0.5-4,1.6c-1.1,1.1-1.7,2.4-1.7,3.9s0.4,2.7,1.1,3.7
	c0.8,1,1.7,1.7,3,2.1c-0.1,0.9-0.1,2.8-0.2,5.5h-11c-0.5-0.7-1-1.1-1.7-1.1s-1.4,0.2-1.8,0.7c-0.5,0.5-0.7,1-0.7,1.7
	c0,0.7,0.2,1.2,0.7,1.7c0.5,0.5,1.1,0.7,1.7,0.7c0.7,0,1.3-0.4,1.8-1.1l3,0.7h7.9c-0.2,3.6-0.3,7.3-0.5,11.1l-1.8,8.7
	c-3.7-0.1-6.5-0.7-8.3-1.9c-0.5-0.4-1.3-0.8-2.2-1.4c-0.9-0.5-1.7-0.9-2-1.2v-0.5c0-0.8-0.3-1.5-0.8-2c-0.5-0.5-1.2-0.8-2-0.8
	c-0.8,0-1.5,0.3-2,0.8c-0.6,0.5-0.8,1.2-0.8,2c0,0.8,0.3,1.5,0.8,2.1c0.6,0.6,1.3,0.8,2.1,0.8L13.1,37.7L13.1,37.7z M29.8,3.5
	c0.6-0.6,1.3-0.9,2.1-0.9s1.6,0.3,2.2,0.9c0.6,0.6,0.9,1.4,0.9,2.2s-0.3,1.6-0.8,2.1c-0.6,0.6-1.3,0.9-2.2,0.9
	c-0.9,0-1.6-0.3-2.2-0.9C29.2,7.2,29,6.5,29,5.7S29.2,4.1,29.8,3.5z"/>
</svg>
