<svg xmlns="http://www.w3.org/2000/svg" viewBox="0 0 64 48">
<path d="M52.4,7.6c-0.2-0.4-0.5-0.7-0.7-0.9c-0.3-0.2-0.5-0.4-0.8-0.5c-0.3-0.1-0.5-0.2-0.6-0.2c-0.2,0-0.3,0-0.3,0H14.2l-0.7,0.1
	c-0.5,0-1,0.3-1.5,0.8c-0.5,0.5-0.7,1.2-0.7,2v3.1h41.5v-3C52.8,8.5,52.7,8,52.4,7.6z M20.2,0.1l-0.7,0.1c-0.6,0-1,0.3-1.6,0.8
	c-0.5,0.5-0.7,1.2-0.7,2h29.8c0-0.6-0.1-1-0.4-1.5c-0.2-0.5-0.5-0.7-0.6-0.9c-0.3-0.2-0.6-0.3-0.9-0.5C44.7,0.1,44.5,0,44.3,0
	C44.1,0,44,0,44,0L20.2,0.1L20.2,0.1z M57,10.3v4.8h-50v-4.8l-1.8,1.8l-0.6,0.7c-0.4,0.4-0.6,0.6-0.8,0.7c-0.1,0.1-0.3,0.4-0.5,0.7
	c-0.3,0.4-0.4,0.6-0.4,1c0,0.3-0.1,0.7-0.1,1.2c0,0.5,0.1,1,0.2,1.6l1.3,7.5L6.4,38l1.2,6.9c0.2,0.9,0.6,1.7,1.2,2.1
	c0.6,0.5,1.2,0.7,1.6,0.8c0.4,0.1,0.6,0.1,0.9,0.1h41.5l0.8-0.1c0.5,0,1.2-0.3,1.7-0.8c0.5-0.5,1-1.2,1.1-2.1c0-0.1,0.4-2.4,1.2-6.9
	l2.1-12.5l1.3-7.5c0.1-0.6,0.2-1.1,0.2-1.6s0-0.8-0.1-1.2c0-0.3-0.2-0.6-0.4-1c-0.3-0.4-0.5-0.5-0.6-0.7c-0.1-0.2-0.4-0.4-0.7-0.7
	l-0.7-0.6L57,10.3z M43.8,28.9c0,0.6-0.3,1-0.8,1.6c-0.5,0.5-1.2,0.7-2,0.7H23.2c-0.5,0-1-0.1-1.5-0.4c-0.4-0.2-0.7-0.5-0.9-0.7
	c-0.2-0.3-0.3-0.5-0.4-0.9c-0.1-0.4-0.2-0.5-0.2-0.7c0-0.2,0-0.3,0-0.4v-6h4.1v4.8h15.4v-4.8h4.1v6L43.8,28.9z"/>
</svg>
