<svg xmlns="http://www.w3.org/2000/svg" viewBox="0 0 64 48">
<path d="M9.8,31.8c-0.2,0.8-0.1,1.5,0.3,2.2l2.2,3.9c0.4,0.7,1,1.2,1.8,1.3c0.8,0.2,1.6,0.1,2.2-0.3l10.3-6v11.9
	c0,0.8,0.3,1.6,0.9,2.2s1.3,0.9,2.2,0.9h4.4c0.8,0,1.6-0.3,2.2-0.9c0.6-0.6,0.8-1.3,0.8-2.1V33l10.3,6c0.8,0.4,1.5,0.4,2.2,0.3
	c0.8-0.2,1.4-0.7,1.8-1.3l2.2-3.9c0.5-0.7,0.5-1.5,0.4-2.2C54,31,53.5,30.4,52.8,30l-10.4-6l10.4-6c0.8-0.4,1.2-1,1.3-1.8
	c0.2-0.7,0.1-1.5-0.3-2.2L51.6,10c-0.5-0.7-1-1.2-1.8-1.3C49,8.5,48.3,8.6,47.6,9l-10.3,6V3c0-0.8-0.3-1.6-0.9-2.2
	C35.8,0.3,35.1,0,34.2,0h-4.4c-0.8,0-1.6,0.3-2.2,0.9S26.8,2.2,26.8,3v12L16.4,9c-0.7-0.4-1.5-0.5-2.2-0.3c-0.7,0.2-1.4,0.7-1.8,1.4
	L10.1,14c-0.4,0.7-0.4,1.5-0.3,2.2c0.2,0.7,0.7,1.3,1.3,1.8l10.4,6L11.2,30C10.5,30.4,10,31,9.8,31.8L9.8,31.8z"/>
</svg>
