<svg xmlns="http://www.w3.org/2000/svg" viewBox="0 0 64 48">
<path d="M32,0c-1.7,0-3.4,1.1-4.9,3.2c-1.5,2.1-2.7,5-3.5,8.7c-0.8,3.7-1.3,7.7-1.3,12c0,4.4,0.5,8.3,1.3,12c0.8,3.7,2,6.6,3.5,8.7
	c1.5,2.1,3.1,3.2,4.9,3.2c1.7,0,3.4-1,4.8-3.2c1.5-2.1,2.6-5,3.5-8.7c0.9-3.7,1.3-7.7,1.3-12c0-4.4-0.5-8.3-1.3-12s-2-6.6-3.5-8.7
	C35.4,1.1,33.7,0,32,0z M32,46.4c-1.9,0-3.5-2.2-4.8-6.6c-1.4-4.4-2-9.7-2-15.8c0-6.2,0.7-11.5,2-15.8c1.4-4.4,2.9-6.6,4.8-6.6
	s3.5,2.2,4.8,6.6c1.3,4.4,2,9.7,2,15.8c0,6.2-0.7,11.5-2,15.8C35.5,44.2,33.9,46.4,32,46.4L32,46.4z M52.3,11.3
	c-1.4-2.3-4.6-2.9-9.5-2.1c-5,0.8-10.2,3-15.8,6.5c-5.6,3.5-9.9,7.3-12.8,11.3c-3,4.1-3.8,7.2-2.3,9.5c1.4,2.3,4.6,3,9.5,2.1
	c5-0.8,10.2-3,15.8-6.5c5.6-3.5,9.9-7.3,12.8-11.3C52.9,16.7,53.7,13.6,52.3,11.3L52.3,11.3z M12.9,35.8c-1-1.6,0.1-4.1,3.1-7.5
	s7.2-6.8,12.5-10.1c5.3-3.2,10.1-5.5,14.6-6.7c4.4-1.2,7.1-1,8.1,0.6c1,1.6-0.1,4.1-3.1,7.5c-3,3.5-7.2,6.8-12.5,10.1
	C30.3,33,25.5,35.2,21,36.4C16.6,37.5,13.9,37.4,12.9,35.8L12.9,35.8z M26.9,32.1c5.6,3.5,10.9,5.7,15.8,6.5c5,0.8,8.1,0.2,9.5-2.1
	c1.4-2.3,0.6-5.4-2.3-9.5c-2.9-4.1-7.2-7.9-12.8-11.3c-5.6-3.5-10.9-5.7-15.8-6.5c-5-0.8-8.1-0.1-9.5,2.1c-1.4,2.3-0.6,5.4,2.3,9.5
	S21.3,28.6,26.9,32.1z M28.5,29.7c-5.3-3.2-9.4-6.6-12.5-10.1c-3-3.5-4.1-5.9-3.1-7.5c1-1.6,3.7-1.8,8.1-0.6
	c4.4,1.2,9.2,3.5,14.6,6.7c5.3,3.2,9.4,6.6,12.5,10.1c3,3.5,4.1,5.9,3.1,7.5c-1,1.6-3.7,1.8-8.1,0.6C38.5,35.1,33.7,33,28.5,29.7z
	 M32,26.4c-0.7,0-1.3-0.2-1.7-0.8c-0.5-0.5-0.8-1.1-0.8-1.7c0-0.7,0.2-1.3,0.8-1.7c0.5-0.5,1.1-0.8,1.7-0.8s1.3,0.2,1.7,0.8
	c0.5,0.5,0.8,1.1,0.8,1.7c0,0.7-0.2,1.3-0.8,1.7C33.3,26.2,32.7,26.4,32,26.4z"/>
</svg>
