<svg xmlns="http://www.w3.org/2000/svg" viewBox="0 0 64 48">
<path d="M36.8,13.2c1.3,1.3,2,2.9,2,4.8c0,1.9-0.7,3.4-2,4.8c-1.3,1.3-2.9,2-4.8,2c-1.9,0-3.4-0.7-4.8-2c-1.3-1.3-2-2.9-2-4.8
	c0-1.9,0.7-3.4,2-4.8c1.3-1.3,2.9-2,4.8-2C33.9,11.2,35.4,11.9,36.8,13.2z M47,18c0,1-0.1,1.9-0.3,2.9l2.4,2.6l-3.5,0.7
	c-0.9,1.8-2,3.4-3.4,4.7l-0.4,0.4L44,47.9L32,36L20,47.9l2.3-18.5l-0.4-0.4c-1.4-1.4-2.6-2.9-3.4-4.7l-3.5-0.7l2.4-2.6
	c-0.2-1-0.3-1.9-0.3-2.9c0-1,0.1-1.9,0.3-3l-2.4-2.6l3.5-0.7c0.9-1.8,2-3.3,3.4-4.7l-0.4-3.6L24.8,5c1.7-1,3.5-1.6,5.5-1.8L32,0
	l1.7,3.2c2,0.2,3.8,0.8,5.5,1.8l3.3-1.5L42.1,7c1.4,1.3,2.6,2.9,3.4,4.7l3.5,0.7L46.7,15C46.9,16,47,17,47,18L47,18z M39.4,25.4
	c2.1-2,3.1-4.5,3.1-7.4c0-2.9-1-5.3-3.1-7.4c-2.1-2.1-4.5-3.1-7.4-3.1c-2.9,0-5.3,1-7.4,3.1c-2.1,2.1-3.1,4.5-3.1,7.4
	c0,2.9,1,5.3,3.1,7.4c2.1,2,4.5,3.1,7.4,3.1C34.9,28.4,37.3,27.4,39.4,25.4z"/>
</svg>
