<svg xmlns="http://www.w3.org/2000/svg" viewBox="0 0 64 48">
<path d="M60.8,1.9c0-0.9-0.4-1.4-1.1-1.8C59.3,0.1,59,0,58.7,0s-0.6,0.2-1,0.6l-20.4,22C37,23,36.8,23.4,36.8,24
	c0,0.6,0.2,1,0.5,1.4l20.4,22c0.5,0.6,1.2,0.7,2,0.4c0.7-0.4,1.1-1,1.1-1.8V1.9L60.8,1.9z M36.8,1.9c0-0.9-0.4-1.4-1.1-1.8
	C35.4,0.1,35,0,34.7,0c-0.3,0-0.6,0.2-1,0.6l-20.4,22C13,23,12.8,23.4,12.8,24c0,0.6,0.2,1,0.5,1.4l20.4,22c0.5,0.6,1.2,0.7,2,0.4
	c0.7-0.4,1.1-1,1.1-1.8V1.9L36.8,1.9z M12.8,45.5c0,0.7-0.2,1.3-0.7,1.7c-0.5,0.5-1,0.7-1.7,0.7H5.7c-0.7,0-1.3-0.2-1.7-0.7
	c-0.5-0.5-0.7-1-0.7-1.7V2.4c0-0.6,0.2-1.2,0.7-1.7C4.4,0.3,5,0,5.7,0h4.8c0.6,0,1.2,0.2,1.7,0.7c0.5,0.5,0.7,1,0.7,1.7V45.5z"/>
</svg>
