<svg xmlns="http://www.w3.org/2000/svg" viewBox="0 0 64 48">
<path d="M10,33.3c1.3,2.9,3,5.4,5.1,7.6c2.2,2.2,4.7,3.9,7.6,5.1c2.9,1.3,6,1.9,9.3,1.9s6.5-0.6,9.3-1.9c2.9-1.3,5.4-3,7.6-5.1
	c2.2-2.2,3.9-4.7,5.1-7.6s1.9-6,1.9-9.3c0-3.3-0.6-6.5-1.9-9.3s-3-5.4-5.1-7.6c-2.2-2.2-4.7-3.9-7.6-5.1c-2.9-1.2-5.9-2-9.2-2
	c-3.3,0-6.5,0.6-9.3,1.9c-2.9,1.3-5.4,3-7.6,5.1c-2.2,2.2-3.9,4.7-5.1,7.6c-1.4,2.9-2,6.1-2,9.4C8.1,27.3,8.7,30.3,10,33.3z M18,33
	c-1.7-2.7-2.6-5.7-2.6-9c0-4.6,1.7-8.6,4.9-11.9c1.5-1.5,3.2-2.7,5.3-3.6c2-0.9,4.4-1.3,7.2-1.3c2.8,0,5.6,0.9,8.3,2.7L18,33z
	 M46.2,14.9c1.8,2.8,2.7,5.8,2.7,9c0,4.7-1.7,8.6-4.9,11.8c-3.3,3.3-7.3,4.9-11.9,4.9c-3.3,0-6.3-0.9-9-2.6L46.2,14.9z"/>
</svg>
