<svg xmlns="http://www.w3.org/2000/svg" viewBox="0 0 64 48">
<path d="M61.3,20.2c0,1.2-0.9,1.8-2.8,1.8h-53c-1.9,0-2.8-0.6-2.8-1.8c0-1.2,0.9-1.8,2.8-1.8h8.1L24.3,5.2c-0.1-0.4-0.2-1-0.2-1.8
	c0-0.8,0.4-1.6,1.1-2.3C26,0.4,26.9,0,27.9,0s2,0.4,2.7,1.1c0.8,0.8,1.1,1.7,1.1,2.7c0,1.1-0.4,2-1.1,2.7C29.9,7.4,29,7.7,28,7.7
	h-0.7l-8.7,10.7h28.9L38.9,7.7l-0.7-0.1c-1,0-1.9-0.4-2.7-1.1c-0.8-0.8-1.1-1.7-1.1-2.7c0-1.1,0.4-2,1.1-2.7S37.2,0,38.2,0
	c1,0,1.9,0.4,2.7,1.1c0.8,0.8,1.1,1.5,1.1,2.3c0,0.8-0.1,1.4-0.2,1.8l10.7,13.2h5.9C60.4,18.4,61.3,19,61.3,20.2L61.3,20.2z
	 M57.1,26.4c0.5,0.4,0.6,1,0.6,1.8l-2.5,17.5c-0.1,0.7-0.5,1.2-1.1,1.6c-0.6,0.4-1.3,0.6-2.1,0.6H12.1c-0.8,0-1.5-0.2-2.1-0.6
	s-1-0.9-1-1.7L6.3,28.5c-0.1-0.7,0-1.4,0.5-1.9C7.3,26,8,25.8,8.7,25.8h46.5C56,25.8,56.6,26,57.1,26.4z M17,31.3
	c0-0.5-0.2-1-0.6-1.3c-0.4-0.3-0.8-0.5-1.3-0.5c-0.5,0-0.9,0.2-1.3,0.5c-0.4,0.3-0.6,0.8-0.6,1.3v11.1c0,0.5,0.2,1,0.6,1.3
	c0.4,0.3,0.8,0.5,1.3,0.5c0.5,0,0.9-0.2,1.3-0.5c0.4-0.3,0.6-0.8,0.6-1.3V31.3z M28.1,31.3c0-0.5-0.2-1-0.6-1.3
	c-0.4-0.3-0.8-0.5-1.3-0.5c-0.5,0-0.9,0.2-1.3,0.5c-0.4,0.3-0.6,0.8-0.6,1.3v11.1c0,0.5,0.2,1,0.6,1.3c0.4,0.3,0.8,0.5,1.3,0.5
	c0.5,0,0.9-0.2,1.3-0.5c0.4-0.3,0.6-0.8,0.6-1.3V31.3z M39.2,31.3c0-0.5-0.2-1-0.6-1.3c-0.4-0.3-0.8-0.5-1.3-0.5
	c-0.5,0-0.9,0.2-1.3,0.5c-0.4,0.3-0.6,0.8-0.6,1.3v11.1c0,0.5,0.2,1,0.6,1.3c0.4,0.3,0.8,0.5,1.3,0.5c0.5,0,0.9-0.2,1.3-0.5
	c0.4-0.3,0.6-0.8,0.6-1.3V31.3z M50.2,31.3c0-0.5-0.2-1-0.6-1.3c-0.4-0.3-0.8-0.5-1.3-0.5c-0.5,0-0.9,0.2-1.3,0.5
	c-0.4,0.3-0.6,0.8-0.6,1.3v11.1c0,0.5,0.2,1,0.6,1.3c0.4,0.3,0.8,0.5,1.3,0.5c0.5,0,0.9-0.2,1.3-0.5c0.4-0.3,0.6-0.8,0.6-1.3V31.3z"
	/>
</svg>
