<svg xmlns="http://www.w3.org/2000/svg" viewBox="0 0 64 48">
<path d="M10.1,47.5c0.7,0.4,1.4,0.6,2.2,0.6h39.5c0.8,0,1.5-0.2,2.2-0.6c0.7-0.4,1.2-0.9,1.6-1.7c0.8-1.5,0.7-3-0.3-4.4l-16-25V4.8
	h2.4c0.7,0,1.3-0.2,1.7-0.7s0.7-1,0.7-1.7c0-0.6-0.2-1.2-0.7-1.7c-0.5-0.5-1-0.7-1.7-0.7H22.4c-0.7,0-1.3,0.2-1.7,0.7
	c-0.4,0.5-0.7,1-0.7,1.7c0,0.7,0.2,1.3,0.7,1.7c0.4,0.5,1,0.7,1.7,0.7h2.4v11.5L8.7,41.4c-0.9,1.5-1,2.9-0.2,4.4
	C8.9,46.5,9.4,47.1,10.1,47.5z M29.6,17.7V4.8h4.8v13L44.2,33H19.8L29.6,17.7z"/>
</svg>
