<svg xmlns="http://www.w3.org/2000/svg" viewBox="0 0 64 48">
<path d="M26.7,42.8c0,1.4,0.5,2.7,1.5,3.8S30.5,48,32,48c1.4,0,2.7-0.5,3.8-1.5c1-1.1,1.5-2.2,1.5-3.8c0-0.3,0-0.5-0.1-0.7h13.5
	c0.7,0,1.2-0.2,1.6-0.7c0.5-0.5,0.7-1,0.7-1.6l-5.8-5.7c0.1-0.3,0.1-0.8,0.1-1.4V21c0-3.2-1-6.2-2.8-8.8S40,7.7,37.1,6.7
	c0.1-0.4,0.2-0.8,0.2-1.4c0-1.4-0.5-2.7-1.5-3.8C34.7,0.5,33.5,0,32,0c-1.4,0-2.7,0.5-3.8,1.5c-1,1-1.5,2.2-1.5,3.8
	c0,0.5,0.1,1,0.2,1.5c-3,1-5.4,2.9-7.3,5.5c-1.9,2.6-2.9,5.6-2.9,8.8v11.6c0,0.7,0,1.1,0.1,1.4L11,39.8c0,0.6,0.2,1.1,0.7,1.6
	c0.5,0.5,1,0.7,1.6,0.7h13.5V42.8L26.7,42.8z M32,2.4c0.8,0,1.5,0.3,2.1,0.8C34.7,3.8,35,4.3,35,4.9s-0.1,1-0.2,1.2
	c-1-0.2-1.9-0.2-2.8-0.2c-0.8,0-1.7,0.1-2.8,0.2c-0.1-0.4-0.1-0.8-0.1-1.3c0-0.5,0.3-1,0.8-1.6C30.5,2.7,31.2,2.4,32,2.4z"/>
</svg>
