<svg xmlns="http://www.w3.org/2000/svg" viewBox="0 0 64 48">
<path d="M32,0c-0.2,0-0.3,0-0.5,0.1h-1.4L18.1,0.4L9.9,0.6l0.1,2.6c1.9,0.3,3.2,0.4,4,0.4c0.7,0,1.3,0.2,1.8,0.5
	c0.2,0,0.3,0.1,0.4,0.3c0.3,0.7,0.5,4.6,0.6,11.7c0,2.1,0,3.5,0.1,4.3L16.9,36c0,1.3,0,2.7-0.1,4.1s-0.4,2.6-0.9,3.5
	c-0.9,0.4-2.2,0.7-3.9,1c-0.9,0.1-1.6,0.3-2.1,0.4l-0.1,2.9c2.3-0.1,4.2-0.1,5.6-0.2s3.4-0.1,5.9-0.3c2.5-0.2,4.6-0.2,6.4-0.2
	l6.2,0.1c5.1,0.1,9.2-0.7,12.5-2.2c1.6-0.7,3-1.7,4.2-3c1.2-1.3,2.1-2.7,2.6-4.3c0.5-1.6,0.8-3.2,0.8-4.7c0-2.7-0.9-5.2-2.8-7.3
	c-1.9-2.2-4.7-3.7-8.4-4.5c2.8-1.4,4.3-2.2,4.7-2.4c2.6-2,4-4.4,4-7.3c0-4.3-2-7.5-5.9-9.4c-2.4-1.4-5.4-2-9-2h-2.4L32.4,0H32z
	 M26.9,20.2v-5.5c0.1-2.9,0-5.8-0.1-8.7c-0.1-1-0.1-1.8-0.1-2.4c1.6-0.3,3-0.4,4.1-0.4c3.6,0,6.3,0.8,8.1,2.3
	c1.8,1.6,2.6,3.5,2.6,5.8c0,3.3-0.9,5.7-2.8,7c-1.9,1.4-4.6,2-8.3,2C29,20.4,27.9,20.3,26.9,20.2L26.9,20.2z M30.1,23.4
	c3.5,0,6.1,0.3,7.8,1c1.7,0.7,3.1,1.8,4.1,3.5s1.6,3.7,1.6,6c0,7-4,10.5-11.9,10.5c-1.4,0-2.9-0.3-4.4-1c-0.2-0.6-0.3-1-0.3-1.3
	l-0.1-8.4v-9.9C27.7,23.5,28.8,23.4,30.1,23.4L30.1,23.4z"/>
</svg>
