<svg xmlns="http://www.w3.org/2000/svg" viewBox="0 0 64 48">
<path d="M5.6,38.3c-0.5,1.2-0.4,2.6,0.1,4.2s1.6,2.8,3.1,3.9c1.6,1.1,3.2,1.7,4.8,1.7h29.6c1.4,0,2.7-0.4,4-1.3c1.2-0.9,2-2,2.4-3.4
	L58.5,15c0.5-1.6,0.3-2.9-0.6-4c-0.4-0.6-1.1-1-1.9-1.3c0.1,0.6,0,1.2-0.1,1.8l-9.7,30.8c-0.2,0.6-0.6,1.1-1.2,1.5
	c-0.6,0.4-1.2,0.7-1.8,0.7H13.7c-0.9,0-1.8-0.3-2.7-1C10,42.7,9.4,42,9.1,41.1c-0.3-0.8-0.3-1.4-0.1-1.9c0.3-0.3,0.7-0.4,1.2-0.4
	h27.9c1.4,0,2.7-0.5,4-1.4s2-2,2.4-3.4l8.8-28.3c0.5-1.6,0.3-2.9-0.6-4.1S50.7,0,49.1,0H24.7c-0.5,0-1,0.1-1.7,0.3l0.1-0.1
	c-1.7-0.5-3-0.1-3.9,1.3c-0.3,0.6-0.6,1.2-0.9,2c-0.3,0.7-0.5,1.3-0.8,1.7c-0.3,0.4-0.7,0.9-1.1,1.4c-0.4,0.5-0.5,1-0.3,1.5
	c0.3,0.6,0,1.9-0.8,3.8c-0.2,0.6-0.4,1.1-0.7,1.5c-0.2,0.5-0.5,0.8-0.7,1.1c-0.2,0.3-0.5,0.5-0.8,0.7c-0.3,0.2-0.5,0.5-0.6,0.8
	c-0.1,0.3-0.1,0.6,0,1c0.1,0.3,0.1,0.7,0.1,1c0,0.3-0.1,0.8-0.3,1.3c-0.1,0.5-0.3,1-0.5,1.6c-0.2,0.5-0.4,1-0.7,1.5
	c-0.2,0.5-0.4,0.9-0.6,1.2c-0.2,0.3-0.4,0.6-0.7,0.8c-0.3,0.2-0.4,0.5-0.5,0.8c-0.1,0.3-0.1,0.6,0,0.9c0.1,0.3,0,1-0.3,2.2
	c-0.3,1.2-1,2.6-2,4.2c-0.3,0.6-0.7,1.1-0.9,1.4c-0.3,0.3-0.4,0.6-0.5,0.9c0,0.3,0,0.5,0.1,0.7c0.1,0.2,0.1,0.5,0.1,0.8
	c0,0.3-0.1,0.6-0.1,0.9L5.6,38.3L5.6,38.3z M21.6,15.6c0.1-0.3,0.3-0.6,0.6-0.9s0.7-0.4,1-0.4h19.2c0.3,0,0.6,0.1,0.7,0.4
	c0.1,0.2,0.2,0.5,0.1,0.9L42.5,18c-0.1,0.3-0.3,0.6-0.6,0.9c-0.3,0.2-0.6,0.4-1,0.4H21.7c-0.8,0-1-0.4-0.8-1.2L21.6,15.6z M23.8,8.4
	c0.3-0.8,0.8-1.2,1.6-1.2h19.2c0.3,0,0.6,0.1,0.7,0.4c0.2,0.2,0.2,0.5,0.1,0.9l-0.7,2.4c-0.3,0.8-0.8,1.2-1.6,1.2H23.9
	c-0.7,0-1-0.4-0.8-1.2L23.8,8.4z"/>
</svg>
