<svg xmlns="http://www.w3.org/2000/svg" viewBox="0 0 64 48">
<path d="M28.4,47.4h7.2c0-1.6,1-2.6,3.1-3.2c1-0.3,2-0.5,3.1-0.6c1.1-0.1,2.4-0.2,3.9-0.2s2.8,0.1,4.1,0.1c1.2,0,2.6,0.1,4,0.2
	c1.4,0.1,2.6,0.1,3.4,0.1v-3.6l1.8-0.1h1.9V0.6c-4.6,0-9.2,0.4-13.9,1.2c-2.7,0.5-5.2,1.1-7.3,1.9c-2.1,0.7-3.9,1.8-5.4,3.1
	C32.7,8.2,32,9.7,32,11.4c0-1.7-0.7-3.2-2.2-4.6c-1.4-1.3-3.2-2.4-5.4-3.1c-2.1-0.7-5-1.4-8.8-2.1C12,1,7.8,0.6,3.2,0.6v39.5h1.9
	l1.8,0.1v3.6c0.8,0,2.2-0.1,4.2-0.2c2-0.1,4.4-0.2,7.2-0.2C25.1,43.3,28.4,44.6,28.4,47.4L28.4,47.4z M6.9,34.8V4.3
	c2.5,0,4.4,0.1,5.6,0.3H13c9.6,0.7,14.7,2.7,15.3,6.2c0.1,0.3,0.1,0.5,0.1,0.7v26.7C24.7,35.9,17.5,34.8,6.9,34.8L6.9,34.8z
	 M57.1,4.3v30.5c-10.6,0-17.8,1.2-21.5,3.4V11.4c0-1.2,0.8-2.3,2.5-3.4C41.7,5.5,48,4.3,57.1,4.3L57.1,4.3z"/>
</svg>
