<svg xmlns="http://www.w3.org/2000/svg" viewBox="0 0 64 48">
<path d="M27.2,44.9c-1.5-0.4-2.7-1.1-3.9-2c-1.1-0.9-2.3-2-3.5-3.4l-1.5,1.7c-0.3,0.3-0.4,0.7-0.4,1.2v3.1c0,0.7-0.2,1.3-0.7,1.8
	c-0.5,0.5-1.1,0.7-1.8,0.7c-0.7,0-1.3-0.2-1.8-0.7c-0.5-0.5-0.7-1.1-0.7-1.8V41c0-0.4,0.1-0.9,0.3-1.5c0.2-0.6,0.4-1,0.7-1.3
	l3.1-3.3c-0.7-1.8-1-3.6-1-5.6c0-0.5,0-0.9,0.1-1.4h-0.9c-0.6,0-1.1,0.2-1.5,0.6c-0.4,0.4-0.6,0.9-0.6,1.5v2.3
	c0,0.7-0.2,1.3-0.7,1.8c-0.5,0.5-1.1,0.7-1.8,0.7c-0.7,0-1.3-0.2-1.8-0.7c-0.5-0.5-0.7-1.1-0.7-1.8v-4.5c0-1.4,0.5-2.6,1.5-3.6
	c1-1,2.2-1.5,3.6-1.5h4.7c0.4-0.8,0.9-1.6,1.5-2.5l-4.2-4.5c-0.7-0.8-1-1.8-1-3V8.3c0-0.7,0.2-1.3,0.7-1.8c0.5-0.5,1.1-0.7,1.8-0.7
	c0.7,0,1.3,0.2,1.8,0.7c0.5,0.5,0.7,1.1,0.7,1.8v3.3c0,0.5,0.1,0.9,0.4,1.2l2.7,2.9c1.3-2.6,1.9-5,1.9-7.3c0-2.3,0.6-4.1,1.7-5.6
	C26.8,1.4,28.3,0.5,30,0v4.8c0,0.6,0.2,1,0.6,1.4C31,6.6,31.4,6.8,32,6.8s1-0.2,1.4-0.6C33.8,5.8,34,5.4,34,4.8V0
	c1.8,0.5,3.2,1.4,4.4,2.8c1.2,1.4,1.7,3.3,1.7,5.6c0,2.3,0.6,4.7,1.9,7.3l2.7-2.9c0.3-0.3,0.4-0.7,0.4-1.2V8.3
	c0-0.7,0.2-1.3,0.7-1.8c0.5-0.5,1.1-0.7,1.8-0.7s1.3,0.2,1.8,0.7s0.7,1.1,0.7,1.8v4.5c0,1.2-0.3,2.2-1,3l-4.2,4.6
	c0.6,1,1.1,1.8,1.5,2.4h4.7c1.4,0,2.6,0.5,3.6,1.5c1,1,1.5,2.2,1.5,3.6v4.5c0,0.7-0.2,1.3-0.7,1.8c-0.5,0.5-1.1,0.7-1.8,0.7
	c-0.7,0-1.3-0.2-1.8-0.7c-0.5-0.5-0.7-1.1-0.7-1.8v-2.3c0-0.6-0.2-1.1-0.6-1.5c-0.4-0.4-0.9-0.6-1.5-0.6H48c0,0.5,0.1,0.9,0.1,1.4
	c0,1.9-0.3,3.8-1,5.6l3.1,3.3c0.3,0.3,0.5,0.7,0.7,1.3c0.2,0.6,0.3,1.1,0.3,1.5v4.5c0,0.7-0.2,1.3-0.7,1.8c-0.5,0.5-1.1,0.7-1.8,0.7
	c-0.7,0-1.3-0.2-1.8-0.7c-0.5-0.5-0.7-1.1-0.7-1.8v-3.1c0-0.5-0.1-0.9-0.4-1.2l-1.5-1.7c-2.5,2.9-5,4.6-7.3,5.2
	c-0.4,0.1-0.7,0.2-1.1,0.2c-0.4,0-0.8-0.2-1.2-0.6C34.2,44,34,43.5,34,42.9V25.9c0-0.6-0.2-1-0.6-1.4c-0.4-0.4-0.9-0.6-1.4-0.6
	s-1,0.2-1.4,0.6c-0.4,0.4-0.6,0.9-0.6,1.4v17.1c0,0.6-0.2,1-0.6,1.4C29,44.8,28.5,45,28,45L27.2,44.9L27.2,44.9z"/>
</svg>
