<svg xmlns="http://www.w3.org/2000/svg" viewBox="0 0 64 48">
<path d="M39.5,15V48h15V15H39.5z M45.5,42h-3v-3h3V42z M45.5,36h-3v-3h3V36z M45.5,30h-3v-3h3V30z M45.5,24h-3v-3h3V24z M51.5,42h-3
	v-3h3V42z M51.5,36h-3v-3h3V36z M51.5,30h-3v-3h3V30z M51.5,24h-3v-3h3V24z M33.5,21h-3v-9l-3-6h-3V0h-3v6h-3l-2.9,6v9h-3l-3,3v24
	h27V24L33.5,21z M24.5,12h3v3h-3V12z M18.5,12h2.9v3h-2.9V12z M15.5,42v-3h2.9v3H15.5z M15.5,36v-3h2.9v3H15.5z M15.5,30v-3h2.9v3
	H15.5z M18.5,18h2.9V21h-2.9V18z M24.5,42h-3v-3h3V42z M24.5,36h-3v-3h3V36z M24.5,30h-3v-3h3V30z M24.5,18h3V21h-3V18z M30.5,42h-3
	v-3h3V42z M30.5,36h-3v-3h3V36z M30.5,30h-3v-3h3V30z"/>
</svg>
