<svg xmlns="http://www.w3.org/2000/svg" viewBox="0 0 64 48">
<path d="M9.1,46.9c0.7,0.7,1.5,1.1,2.5,1.1h40.8c1,0,1.8-0.4,2.5-1.1c0.7-0.7,1.1-1.5,1.1-2.5V9.3c0-1-0.4-1.8-1.1-2.5
	c-0.7-0.7-1.5-1.1-2.5-1.1h-2.3v4.4c0,1.2-0.4,2.2-1.2,3c-0.8,0.8-1.8,1.2-3,1.2h-1c-1.2,0-2.2-0.4-3.1-1.2c-0.9-0.8-1.3-1.8-1.3-3
	V5.7h-3.7v4.4c0,1.2-0.4,2.2-1.2,3c-0.8,0.8-1.8,1.2-3,1.2h-1c-1.2,0-2.2-0.4-3-1.2c-0.8-0.8-1.2-1.8-1.2-3V5.7h-3.7v4.4
	c0,1.2-0.4,2.2-1.3,3s-1.9,1.2-3.1,1.2h-1c-1.2,0-2.2-0.4-3-1.2c-0.8-0.8-1.2-1.8-1.2-3V5.7h-2.3c-1,0-1.8,0.4-2.5,1.1S8,8.3,8,9.3
	v35.1C8,45.4,8.4,46.2,9.1,46.9z M12.8,17.7h38.4v25.5H12.8V17.7z M16.8,11.4c0.4,0.4,0.8,0.5,1.3,0.5h1c0.6,0,1-0.2,1.4-0.5
	c0.4-0.4,0.5-0.8,0.5-1.3V1.9c0-0.5-0.2-1-0.5-1.3S19.7,0,19.1,0h-1c-0.5,0-1,0.2-1.3,0.6c-0.4,0.4-0.6,0.8-0.6,1.3v8.2
	C16.3,10.6,16.4,11.1,16.8,11.4z M19.5,39.4h11.8v-4.7h-2.7v2.2h-5.9c0-0.6,0.3-1.2,0.8-1.8c0.5-0.6,1.6-1.4,3.3-2.5
	c2.6-1.7,4-3.5,4-5.6c0-1.6-0.6-2.9-1.7-3.7c-1.1-0.9-2.3-1.3-3.6-1.3s-2.2,0.2-2.9,0.5c-1.4,0.7-2.4,1.7-3.1,2.9l2.2,1.5
	c0.9-1.4,1.9-2.1,3.2-2.1c1.7,0,2.6,0.8,2.6,2.4c0,0.9-0.4,1.7-1.3,2.3c-0.9,0.7-1.8,1.3-2.8,2c-1,0.7-1.9,1.5-2.8,2.5
	c-0.9,1-1.3,2.2-1.3,3.7C19.3,38.4,19.4,38.8,19.5,39.4L19.5,39.4z M30.2,11.4c0.4,0.4,0.8,0.5,1.3,0.5h1c0.5,0,1-0.2,1.3-0.5
	c0.4-0.4,0.6-0.8,0.6-1.3V1.9c0-0.5-0.2-1-0.6-1.3C33.5,0.2,33,0,32.5,0h-1c-0.5,0-0.9,0.2-1.3,0.6s-0.5,0.8-0.5,1.3v8.2
	C29.6,10.6,29.8,11.1,30.2,11.4z M33.4,26.9h2.7v-2h5.6c0.1,0,0.2-0.1,0.3-0.1v0.1c-0.3,0.4-0.5,0.7-0.6,1l-6.8,13.6h3.3l7.5-14.8
	v-2.2h-12V26.9L33.4,26.9z M43.5,11.4c0.4,0.4,0.8,0.5,1.4,0.5h1c0.5,0,1-0.2,1.3-0.5c0.4-0.4,0.6-0.8,0.6-1.3V1.9
	c0-0.5-0.2-1-0.6-1.3S46.3,0,45.8,0h-1c-0.6,0-1,0.2-1.4,0.6c-0.4,0.4-0.5,0.8-0.5,1.3v8.2C42.9,10.6,43.1,11.1,43.5,11.4z"/>
</svg>
