<svg xmlns="http://www.w3.org/2000/svg" viewBox="0 0 64 48">
<path d="M9.1,46.9c0.7,0.7,1.6,1.1,2.5,1.1h40.8c0.9,0,1.8-0.4,2.5-1.1c0.7-0.7,1.1-1.5,1.1-2.5V9.3c0-0.9-0.4-1.8-1.1-2.5
	c-0.7-0.7-1.6-1.1-2.5-1.1h-1.2V5.4c0-0.6-0.1-1.3-0.3-1.9c-0.2-0.6-0.5-1.2-1-1.7c-0.5-0.5-1.1-0.9-1.9-1.2C47.3,0.2,46.4,0,45.3,0
	c-1.1,0-2,0.2-2.7,0.5c-0.7,0.3-1.4,0.7-1.8,1.2c-0.5,0.5-0.8,1.1-1,1.7c-0.2,0.6-0.3,1.3-0.3,1.9v0.4h-1.5V5.4
	c0-0.6-0.1-1.3-0.3-1.9c-0.2-0.6-0.6-1.2-1-1.7c-0.5-0.5-1.1-0.9-1.9-1.2C33.9,0.2,33,0,32,0c-1.1,0-2,0.2-2.7,0.5
	c-0.8,0.3-1.4,0.7-1.8,1.2c-0.4,0.5-0.8,1.1-1,1.7c-0.2,0.6-0.3,1.3-0.3,1.9v0.4h-1.5V5.4c0-0.6-0.1-1.3-0.3-1.9
	c-0.2-0.6-0.6-1.2-1-1.7c-0.5-0.5-1.1-0.9-1.8-1.2C20.7,0.2,19.8,0,18.7,0c-1.1,0-2,0.2-2.7,0.5c-0.7,0.3-1.4,0.7-1.8,1.2
	c-0.5,0.5-0.8,1.1-1,1.7c-0.2,0.6-0.3,1.3-0.3,1.9v0.4h-1.2c-0.9,0-1.8,0.4-2.5,1.1C8.4,7.5,8.1,8.3,8.1,9.3v35.1
	C8.1,45.3,8.4,46.1,9.1,46.9z M12.9,43.1v-7.6h8.6v7.6H12.9L12.9,43.1z M12.9,34.3v-7.7h8.6v7.7H12.9L12.9,34.3z M12.9,25.4v-7.7
	h8.6v7.7H12.9L12.9,25.4z M16.4,12.3v-7c0-1.2,0.8-1.8,2.3-1.8c1.6,0,2.3,0.6,2.3,1.8v7c0,1.2-0.8,1.7-2.3,1.7
	C17.1,14.1,16.4,13.5,16.4,12.3L16.4,12.3z M22.7,35.5h8.8v7.6h-8.8V35.5z M22.7,26.6h8.8v7.7h-8.8V26.6z M22.7,17.7h8.8v7.7h-8.8
	V17.7z M29.7,5.4c0-0.6,0.2-1,0.5-1.3c0.3-0.3,0.9-0.4,1.8-0.4c0.8,0,1.4,0.1,1.8,0.4c0.4,0.3,0.5,0.7,0.5,1.3v7
	c0,0.6-0.2,1-0.5,1.3c-0.4,0.3-1,0.4-1.8,0.4c-0.8,0-1.4-0.1-1.8-0.4c-0.3-0.3-0.5-0.7-0.5-1.3V5.4z M32.6,35.5h8.7v7.6h-8.7V35.5z
	 M32.6,26.6h8.7v7.7h-8.7V26.6z M32.6,17.7h8.7v7.7h-8.7V17.7z M42.5,35.5h8.6v7.6h-8.6V35.5z M42.5,26.6h8.6v7.7h-8.6V26.6z
	 M42.5,17.7h8.6v7.7h-8.6V17.7z M43,5.4c0-1.2,0.8-1.8,2.3-1.8s2.3,0.6,2.3,1.8v7c0,1.2-0.7,1.7-2.3,1.7c-1.6,0-2.3-0.6-2.3-1.7V5.4
	z"/>
</svg>
