<svg xmlns="http://www.w3.org/2000/svg" viewBox="0 0 64 48">
<path d="M4.3,46.9C5,47.6,5.8,48,6.8,48h50.4c1,0,1.8-0.4,2.5-1.1c0.7-0.7,1.1-1.5,1.1-2.5V10.8c0-1-0.4-1.8-1.1-2.6
	c-0.7-0.7-1.5-1.1-2.5-1.1H45.8L44,3.3c-0.4-0.9-1.1-1.7-2.1-2.3c-1-0.6-2-1-3-1H25.1c-1,0-2,0.3-3,1c-1,0.6-1.7,1.4-2.1,2.3
	l-1.8,3.9H6.8c-1,0-1.8,0.4-2.5,1.1s-1.1,1.6-1.1,2.6v33.6C3.2,45.4,3.6,46.2,4.3,46.9z M21.4,17c2.9-2.9,6.5-4.4,10.6-4.4
	s7.7,1.5,10.6,4.4c2.9,2.9,4.4,6.5,4.4,10.6c0,4.1-1.5,7.6-4.4,10.6c-1.4,1.4-3,2.4-4.8,3.2S34,42.6,32,42.6c-2,0-4-0.4-5.8-1.2
	c-1.8-0.8-3.4-1.9-4.8-3.2c-1.3-1.4-2.4-3-3.2-4.8c-0.8-1.8-1.2-3.7-1.2-5.8C17,23.5,18.5,19.9,21.4,17z M22.6,31.6
	c0.5,1.2,1.3,2.3,2.2,3.3s2,1.7,3.2,2.2s2.6,0.8,4,0.8c1.4,0,2.7-0.3,4-0.8c1.2-0.5,2.3-1.3,3.2-2.2c0.9-0.9,1.6-2,2.2-3.3
	s0.8-2.6,0.8-4c0-1.4-0.3-2.7-0.8-4s-1.3-2.3-2.2-3.2c-0.9-0.9-2-1.6-3.2-2.2c-1.2-0.5-2.6-0.8-4-0.8c-1.4,0-2.7,0.3-4,0.8
	c-1.2,0.5-2.3,1.3-3.2,2.2s-1.6,2-2.2,3.2s-0.8,2.6-0.8,4C21.8,29,22.1,30.3,22.6,31.6z"/>
</svg>
