<svg xmlns="http://www.w3.org/2000/svg" viewBox="0 0 64 48">
<path d="M4.5,4.8h5.3c0.8,0,1.3,0.4,1.5,1.1L18,37.7c0.2,0.8,0.6,1.5,1.1,2.2c0.4,0.6,1.3,0.8,2.7,0.8h28.7c0.3,0,0.6-0.1,0.9-0.3
	c0.2-0.2,0.4-0.5,0.4-0.8v-2.4c0-0.3-0.1-0.6-0.4-0.9c-0.2-0.2-0.5-0.4-0.9-0.4H23.7c-0.8,0-1.3-0.4-1.5-1.2l-1.1-5.2h33.8
	c0.6,0,1.1-0.2,1.5-0.5c0.4-0.4,0.7-0.8,0.8-1.3l3.4-18c0.1-0.7,0-1.3-0.5-1.9C59.7,7.3,59.1,7,58.4,7h-42l-0.8-3.9
	c-0.3-1.3-0.9-2.2-1.5-2.7C13.1,0.2,12.3,0,11.7,0H4.5C3.7,0,3.3,0.4,3.3,1.3v2.4C3.3,4.4,3.7,4.8,4.5,4.8z M22.5,46.9
	C23.2,47.6,24,48,25,48c1,0,1.9-0.4,2.6-1.1c0.7-0.7,1.1-1.5,1.1-2.5c0-1-0.4-1.8-1.1-2.6c-0.7-0.7-1.6-1.1-2.6-1.1
	c-1,0-1.9,0.4-2.6,1.1c-0.7,0.7-1.1,1.6-1.1,2.6C21.4,45.4,21.8,46.2,22.5,46.9z M42.8,46.9c0.7,0.7,1.5,1.1,2.5,1.1
	c1,0,1.8-0.4,2.5-1.1c0.7-0.7,1.1-1.5,1.1-2.5c0-1-0.4-1.8-1.1-2.6c-0.7-0.7-1.5-1.1-2.5-1.1c-1,0-1.8,0.4-2.5,1.1
	c-0.7,0.7-1.1,1.6-1.1,2.6C41.7,45.4,42.1,46.2,42.8,46.9z"/>
</svg>
