<svg xmlns="http://www.w3.org/2000/svg" viewBox="0 0 64 48">
<path d="M15.6,14.5L9.7,16c-0.5,0.1-0.9,0.4-1.2,0.8C8.2,17.2,8,17.7,8,18.2c0,0.6,0.2,1.2,0.6,1.7l4.3,4.2l-4.3,4.2
	c-0.4,0.5-0.6,1-0.6,1.7c0,0.5,0.2,1,0.5,1.3c0.3,0.4,0.7,0.6,1.2,0.8l5.9,1.5L14,38.5c-0.1,0.6-0.2,1.1-0.2,1.4
	c0,0.6,0.2,1.1,0.6,1.6s0.9,0.7,1.5,0.7c0.4,0,0.9-0.1,1.4-0.3l5.1-1.5l1.5,5.8c0.1,0.5,0.4,0.9,0.8,1.2c0.4,0.3,0.9,0.5,1.3,0.5
	c0.7,0,1.3-0.2,1.6-0.7L32,43l4.2,4.3c0.5,0.5,1,0.7,1.6,0.7c0.6,0,1-0.1,1.4-0.4c0.4-0.3,0.7-0.7,0.8-1.3l1.5-5.8l5.1,1.5
	c0.6,0.2,1,0.3,1.4,0.3c0.6,0,1.1-0.2,1.5-0.7c0.5-0.4,0.7-1,0.7-1.6c0-0.4-0.1-0.9-0.3-1.4l-1.5-5.1l5.8-1.5
	c0.5-0.1,0.9-0.4,1.2-0.8c0.3-0.4,0.5-0.8,0.5-1.3c0-0.7-0.2-1.3-0.7-1.7L50.9,24l4.3-4.2c0.5-0.5,0.7-1,0.7-1.7
	c0-0.5-0.2-1-0.5-1.4c-0.3-0.4-0.7-0.7-1.2-0.8l-5.8-1.5l1.5-5.1c0.2-0.6,0.3-1,0.3-1.4c0-0.6-0.2-1.1-0.7-1.5
	c-0.4-0.4-1-0.7-1.6-0.7c-0.4,0-0.9,0.1-1.4,0.2l-5.1,1.5L40,1.7c-0.1-0.5-0.4-0.9-0.8-1.2C38.8,0.2,38.3,0,37.8,0
	c-0.7,0-1.2,0.2-1.7,0.7L32,5l-4.3-4.3C27.4,0.2,26.8,0,26.1,0c-0.5,0-0.9,0.2-1.3,0.5c-0.4,0.3-0.7,0.7-0.9,1.2l-1.5,5.8l-5-1.5
	c-0.6-0.1-1.1-0.2-1.5-0.2c-0.6,0-1.1,0.2-1.5,0.7C14,7,13.8,7.5,13.8,8.1c0,0.4,0.1,0.9,0.2,1.4L15.6,14.5z"/>
</svg>
