<svg xmlns="http://www.w3.org/2000/svg" viewBox="0 0 64 48">
<path d="M32,0c-3.3,0-6.4,0.6-9.3,1.9c-2.9,1.2-5.4,2.9-7.6,5.1c-2.2,2.2-3.9,4.7-5.1,7.6c-1.3,2.9-1.9,6.1-1.9,9.4s0.6,6.4,1.9,9.3
	c1.3,2.9,3,5.4,5.1,7.6c2.2,2.2,4.7,3.9,7.6,5.1c2.9,1.2,6,1.9,9.3,1.9c3.3,0,6.4-0.6,9.3-1.9c2.9-1.2,5.4-2.9,7.6-5.1
	c2.2-2.2,3.9-4.7,5.1-7.6c1.3-2.9,1.9-6,1.9-9.3s-0.7-6.4-1.9-9.4c-1.2-2.9-2.9-5.4-5.1-7.6s-4.7-3.9-7.6-5.1S35.3,0,32,0z M32,7.2
	c0.6,0,1.1,0.2,1.5,0.6l14.7,14.6c0.4,0.4,0.6,0.9,0.6,1.5s-0.2,1-0.6,1.5l-2.2,2.2c-0.4,0.4-0.9,0.6-1.4,0.6
	c-0.6,0-1.1-0.2-1.5-0.6l-7.3-7.3v18.3c0,0.6-0.2,1-0.6,1.4c-0.4,0.4-0.9,0.6-1.4,0.6h-3.1c-0.6,0-1-0.2-1.5-0.6
	c-0.4-0.4-0.6-0.9-0.6-1.4V20.3L21,27.6c-0.4,0.4-0.9,0.6-1.4,0.6s-1.1-0.2-1.5-0.6l-2.2-2.2c-0.4-0.4-0.6-0.9-0.6-1.4
	c0-0.6,0.2-1.1,0.6-1.5L30.5,7.8C30.9,7.4,31.4,7.2,32,7.2L32,7.2z"/>
</svg>
