<svg xmlns="http://www.w3.org/2000/svg" viewBox="0 0 64 48">
<path d="M54,14.6c-1.2-2.9-2.9-5.4-5.1-7.6c-2.2-2.2-4.7-3.9-7.6-5.1C38.4,0.6,35.3,0,32,0s-6.4,0.6-9.3,1.9c-2.9,1.3-5.4,3-7.6,5.1
	c-2.2,2.2-3.9,4.7-5.1,7.6c-1.2,2.9-1.9,6-1.9,9.3c0,3.3,0.6,6.4,1.9,9.3c1.2,2.9,2.9,5.4,5.1,7.6c2.2,2.2,4.7,3.9,7.6,5.1
	c2.9,1.3,6,1.9,9.3,1.9s6.4-0.6,9.4-1.9c2.9-1.2,5.4-2.9,7.6-5.1c2.2-2.2,3.9-4.7,5.1-7.6c1.2-2.9,1.9-6,1.9-9.3
	C55.9,20.6,55.3,17.5,54,14.6z M48.7,23.9c0,0.6-0.2,1.1-0.6,1.5L33.5,40.1c-0.4,0.4-0.9,0.6-1.5,0.6c-0.6,0-1.1-0.2-1.4-0.6
	l-2.2-2.2c-0.4-0.4-0.6-0.9-0.6-1.5s0.2-1.1,0.6-1.4l7.3-7.3H17.3c-0.6,0-1-0.2-1.4-0.6c-0.4-0.4-0.6-0.9-0.6-1.5v-3.1
	c0-0.6,0.2-1,0.6-1.4c0.4-0.4,0.9-0.6,1.4-0.6h18.3l-7.3-7.3c-0.4-0.4-0.6-0.9-0.6-1.5c0-0.6,0.2-1.1,0.6-1.4l2.2-2.2
	C31,7.4,31.4,7.2,32,7.2s1,0.2,1.5,0.6l14.6,14.7C48.5,22.8,48.7,23.3,48.7,23.9L48.7,23.9z"/>
</svg>
