<svg xmlns="http://www.w3.org/2000/svg" viewBox="0 0 64 48">
<path d="M41.3,46c2.9-1.2,5.4-2.9,7.6-5.1s3.9-4.7,5.1-7.6c1.2-2.9,1.9-6.1,1.9-9.4s-0.6-6.4-1.9-9.3c-1.3-2.9-3-5.4-5.1-7.6
	c-2.2-2.2-4.7-3.9-7.6-5.1C38.4,0.7,35.3,0,32,0c-3.3,0-6.4,0.6-9.3,1.9c-2.9,1.2-5.4,2.9-7.6,5.1c-2.2,2.2-3.9,4.7-5.1,7.6
	c-1.3,2.9-1.9,6-1.9,9.3s0.6,6.4,1.9,9.4c1.2,2.9,2.9,5.4,5.1,7.6c2.2,2.2,4.7,3.9,7.6,5.1c2.9,1.2,6,1.9,9.3,1.9
	C35.3,47.8,38.4,47.2,41.3,46z M32,40.7c-0.6,0-1.1-0.2-1.5-0.6L15.9,25.4c-0.4-0.4-0.6-0.9-0.6-1.5c0-0.6,0.2-1.1,0.6-1.4l2.2-2.2
	c0.4-0.4,0.9-0.6,1.5-0.6s1.1,0.2,1.4,0.6l7.3,7.3V9.2c0-0.6,0.2-1,0.6-1.4c0.4-0.4,0.9-0.6,1.5-0.6h3.1c0.6,0,1,0.2,1.4,0.6
	c0.4,0.4,0.6,0.9,0.6,1.4v18.3l7.3-7.3c0.4-0.4,0.9-0.6,1.5-0.6c0.6,0,1.1,0.2,1.4,0.6l2.2,2.2c0.4,0.4,0.6,0.9,0.6,1.5
	s-0.2,1-0.6,1.5L33.5,40C33.1,40.5,32.6,40.7,32,40.7L32,40.7z"/>
</svg>
