<svg xmlns="http://www.w3.org/2000/svg" viewBox="0 0 64 48">
<path d="M9.9,33.3c1.3,2.9,3,5.4,5.2,7.6c2.2,2.2,4.7,3.9,7.6,5.2c2.9,1.3,6,1.9,9.3,1.9s6.4-0.6,9.3-1.9c2.9-1.3,5.4-3,7.6-5.2
	c2.2-2.2,3.9-4.7,5.2-7.6c1.3-2.9,1.9-6,1.9-9.3s-0.6-6.4-1.9-9.3S51.1,9.2,49,7s-4.7-3.9-7.6-5.2C38.4,0.6,35.3,0,32,0
	s-6.4,0.6-9.3,1.9c-2.9,1.3-5.4,3-7.6,5.2c-2.2,2.2-3.9,4.7-5.2,7.6C8.6,17.6,8,20.7,8,24S8.6,30.4,9.9,33.3z M15.2,24
	c0-2.3,0.4-4.5,1.3-6.5s2.1-3.8,3.6-5.4s3.3-2.7,5.3-3.6c2-0.9,4.2-1.3,6.5-1.3c2.3,0,4.5,0.4,6.5,1.3c2,0.9,3.8,2.1,5.4,3.6
	s2.7,3.3,3.6,5.4c0.9,2,1.3,4.2,1.3,6.5c0,2.3-0.4,4.5-1.3,6.5c-0.9,2-2.1,3.8-3.6,5.3s-3.3,2.7-5.4,3.6c-2,0.9-4.2,1.3-6.5,1.3
	c-2.3,0-4.5-0.4-6.5-1.3c-2-0.9-3.8-2.1-5.3-3.6s-2.7-3.3-3.6-5.3C15.7,28.5,15.2,26.3,15.2,24L15.2,24z M28.4,24
	c0,0.9,0.2,1.6,0.7,2.1c0.2,0.2,0.3,0.3,0.3,0.3s0,0.1,0.1,0.1l6.8,6.8c0.7,0.7,1.5,1,2.6,1c0.5,0,0.9-0.1,1.4-0.3s0.9-0.5,1.5-1.1
	s0.8-1.3,0.8-2.3s-0.4-1.8-1.1-2.6l-5.8-5.7v-8.1c0-1-0.4-1.8-1.1-2.5c-0.7-0.7-1.5-1.1-2.5-1.1s-1.8,0.4-2.5,1.1
	c-0.7,0.7-1.1,1.5-1.1,2.5V24L28.4,24z"/>
</svg>
