<svg xmlns="http://www.w3.org/2000/svg" viewBox="0 0 64 48">
<path d="M20.7,37.8c0.2-0.2,0.3-0.4,0.3-0.7s-0.1-0.5-0.3-0.7L8.3,24l12.4-12.4c0.2-0.2,0.3-0.5,0.3-0.7c0-0.3-0.1-0.5-0.3-0.7
	l-1.5-1.6c-0.2-0.2-0.5-0.3-0.7-0.3c-0.3,0-0.5,0.1-0.7,0.3L3,23.3c-0.2,0.2-0.3,0.4-0.3,0.7s0.1,0.5,0.3,0.7l14.7,14.7
	c0.2,0.2,0.5,0.3,0.7,0.3c0.3,0,0.5-0.1,0.7-0.3L20.7,37.8L20.7,37.8z M39.2,3.5c-0.1-0.2-0.3-0.4-0.6-0.5l-1.9-0.5
	c-0.3-0.1-0.5-0.1-0.7,0.1c-0.2,0.1-0.4,0.3-0.5,0.6L23.7,43.7c-0.1,0.3-0.1,0.5,0.1,0.8s0.3,0.4,0.6,0.5l1.9,0.5
	c0.3,0.1,0.5,0.1,0.7-0.1c0.2-0.1,0.4-0.3,0.5-0.6L39.3,4.3C39.4,4,39.4,3.7,39.2,3.5z M60,24.7c0.2-0.2,0.3-0.4,0.3-0.7
	s-0.1-0.5-0.3-0.7L45.3,8.6c-0.2-0.2-0.5-0.3-0.7-0.3c-0.3,0-0.5,0.1-0.7,0.3l-1.5,1.6c-0.2,0.2-0.3,0.4-0.3,0.7
	c0,0.3,0.1,0.5,0.3,0.7L54.7,24L42.3,36.4c-0.2,0.2-0.3,0.5-0.3,0.7s0.1,0.5,0.3,0.7l1.5,1.6c0.2,0.2,0.5,0.3,0.7,0.3
	c0.3,0,0.5-0.1,0.7-0.3L60,24.7L60,24.7z"/>
</svg>
