<svg xmlns="http://www.w3.org/2000/svg" viewBox="0 0 64 48">
<path d="M46.6,37.5c-1.2-1.2-2.7-1.8-4.4-1.8c-1.2,0-2.4,0.3-3.4,1s-1.7,1.6-2.2,2.7h-8.5c-0.8,0-1.5-0.2-2.1-0.5
	c-0.6-0.3-1-0.7-1.2-1.2c-0.2-0.5-0.4-0.9-0.5-1.2c-0.1-0.3-0.1-0.7-0.1-1v-9.9c1.2,0.6,2.5,0.8,3.9,0.8h8.5
	c0.5,1.1,1.2,1.9,2.2,2.6s2.1,1,3.4,1c1.7,0,3.2-0.6,4.4-1.8s1.8-2.6,1.8-4.3c0-1.7-0.6-3.1-1.8-4.3c-1.2-1.2-2.7-1.8-4.4-1.8
	c-1.2,0-2.4,0.3-3.4,1c-1,0.7-1.7,1.6-2.2,2.7h-8.5c-0.8,0-1.5-0.2-2.1-0.5c-0.6-0.3-1-0.7-1.2-1.2c-0.2-0.5-0.4-0.9-0.5-1.2
	c-0.1-0.4-0.1-0.7-0.1-1.1v-5.8c1.1-0.5,1.9-1.2,2.6-2.2c0.7-1,1-2.2,1-3.4c0-1.7-0.6-3.2-1.8-4.3C24.9,0.6,23.5,0,21.8,0
	c-1.7,0-3.1,0.6-4.3,1.8c-1.2,1.2-1.8,2.6-1.8,4.3c0,1.2,0.3,2.4,1,3.4c0.7,1,1.6,1.8,2.7,2.2v23.7c0,0.9,0.2,1.9,0.5,2.9
	c0.3,1,0.8,1.9,1.5,2.8s1.6,1.6,2.8,2.2c1.2,0.6,2.5,0.9,4.1,0.9h8.5c0.5,1.1,1.2,2,2.2,2.7c1,0.7,2.1,1,3.4,1
	c1.7,0,3.2-0.6,4.4-1.8s1.8-2.6,1.8-4.3C48.4,40.2,47.8,38.7,46.6,37.5z M39.7,21.5c0.7-0.7,1.5-1,2.5-1c1,0,1.8,0.3,2.5,1
	c0.7,0.7,1,1.5,1,2.5c0,1-0.3,1.8-1,2.5c-0.7,0.7-1.5,1-2.5,1c-1,0-1.8-0.3-2.5-1c-0.7-0.7-1-1.5-1-2.5C38.7,23,39,22.2,39.7,21.5z
	 M19.3,8.6c-0.7-0.7-1-1.5-1-2.5c0-1,0.3-1.8,1-2.5c0.7-0.7,1.5-1,2.5-1c1,0,1.8,0.3,2.5,1c0.7,0.7,1,1.5,1,2.5c0,1-0.3,1.8-1,2.5
	s-1.5,1-2.5,1C20.8,9.6,20,9.3,19.3,8.6z M44.7,44.4c-0.7,0.7-1.5,1.1-2.5,1.1c-1,0-1.8-0.4-2.5-1.1c-0.7-0.7-1-1.5-1-2.5
	c0-1,0.3-1.8,1-2.5s1.5-1.1,2.5-1.1c1,0,1.8,0.4,2.5,1.1c0.7,0.7,1,1.5,1,2.5C45.7,42.8,45.4,43.7,44.7,44.4z"/>
</svg>
