<svg xmlns="http://www.w3.org/2000/svg" viewBox="0 0 64 48">
<path d="M27.4,6.9c0-1.9-0.7-3.5-2-4.8c-1.3-1.3-3-2-4.9-2c-1.9,0-3.5,0.7-4.8,2c-1.3,1.3-2,3-2,4.8c0,1.4,0.4,2.7,1.1,3.8
	c0.7,1.1,1.7,2,3,2.5v21.7c-1.2,0.5-2.2,1.3-3,2.5s-1.1,2.4-1.1,3.8c0,1.9,0.7,3.5,2,4.9c1.3,1.3,2.9,2,4.8,2c1.9,0,3.5-0.7,4.9-2
	c1.3-1.3,2-2.9,2-4.9c0-1.4-0.4-2.6-1.2-3.8s-1.8-2-3-2.5V13.1c1.2-0.5,2.2-1.3,3-2.5C27,9.6,27.4,8.3,27.4,6.9z M24.5,41.2
	c0,1.1-0.4,2-1.2,2.8c-0.8,0.8-1.7,1.2-2.8,1.2s-2-0.4-2.8-1.2c-0.8-0.8-1.2-1.7-1.2-2.8c0-1.1,0.4-2,1.2-2.8
	c0.8-0.8,1.7-1.2,2.8-1.2s2,0.4,2.8,1.2C24.1,39.1,24.5,40.1,24.5,41.2z M20.5,10.8c-1.1,0-2-0.4-2.8-1.2C17,8.9,16.6,8,16.6,6.9
	c0-1.1,0.4-2,1.2-2.8c0.8-0.8,1.7-1.2,2.8-1.2s2,0.4,2.8,1.2s1.2,1.7,1.2,2.8c0,1.1-0.4,2-1.2,2.8C22.6,10.5,21.6,10.8,20.5,10.8z
	 M46.1,34.9V13.1c1.2-0.5,2.2-1.3,3-2.5c0.8-1.1,1.2-2.4,1.2-3.8c0-1.9-0.7-3.5-2-4.8s-3-2-4.9-2c-1.9,0-3.5,0.7-4.8,2s-2,3-2,4.8
	c0,1.4,0.4,2.7,1.1,3.8c0.7,1.1,1.7,2,3,2.5v21.7c-1.2,0.5-2.2,1.3-3,2.5c-0.7,1.2-1.1,2.4-1.1,3.8c0,1.9,0.7,3.5,2,4.9
	c1.3,1.3,2.9,2,4.8,2c1.9,0,3.5-0.7,4.9-2c1.3-1.3,2-2.9,2-4.9c0-1.4-0.4-2.6-1.2-3.8S47.4,35.4,46.1,34.9z M39.5,6.9
	c0-1.1,0.4-2,1.2-2.8c0.8-0.8,1.7-1.2,2.8-1.2c1.1,0,2,0.4,2.8,1.2c0.8,0.8,1.2,1.7,1.2,2.8c0,1.1-0.4,2-1.2,2.8
	c-0.8,0.8-1.7,1.2-2.8,1.2c-1.1,0-2-0.4-2.8-1.2C39.8,8.9,39.5,8,39.5,6.9z M43.4,45.1c-1.1,0-2-0.4-2.8-1.2
	c-0.8-0.8-1.2-1.7-1.2-2.8c0-1.1,0.4-2,1.2-2.8c0.8-0.8,1.7-1.2,2.8-1.2c1.1,0,2,0.4,2.8,1.2c0.8,0.8,1.2,1.7,1.2,2.8
	c0,1.1-0.4,2-1.2,2.8C45.4,44.7,44.5,45.1,43.4,45.1z"/>
</svg>
