<svg xmlns="http://www.w3.org/2000/svg" viewBox="0 0 64 48">
<path d="M49.1,10.6c0.8-1.1,1.1-2.4,1.1-3.8c0-1.9-0.7-3.5-2-4.8c-1.3-1.3-2.9-2-4.8-2c-1.9,0-3.5,0.7-4.8,2c-1.3,1.3-2,2.9-2,4.8
	c0,1.4,0.4,2.6,1.1,3.7s1.7,2,2.9,2.5c-0.1,1.1-0.4,2.1-0.8,2.9c-0.4,0.8-0.8,1.5-1.3,2c-0.4,0.5-1.1,1-2.1,1.5
	c-0.9,0.5-1.7,0.8-2.3,1c-0.6,0.2-1.6,0.5-3,1c-3.6,1.1-6.2,2.3-7.9,3.5V13.1c1.2-0.6,2.2-1.4,3-2.5c0.8-1.1,1.1-2.4,1.1-3.8
	c0-1.9-0.7-3.5-2-4.8c-1.3-1.3-3-2-4.8-2c-1.9,0-3.5,0.7-4.8,2c-1.3,1.3-2,2.9-2,4.8c0,1.4,0.4,2.7,1.1,3.8c0.7,1.1,1.7,2,3,2.5
	v21.7c-1.2,0.5-2.2,1.3-3,2.5c-0.7,1.1-1.1,2.4-1.1,3.8c0,1.9,0.7,3.5,2,4.8c1.3,1.3,2.9,2,4.8,2c1.9,0,3.5-0.7,4.8-2
	c1.3-1.3,2-2.9,2-4.8c0-1.4-0.4-2.7-1.1-3.8c-0.7-1.1-1.7-1.9-2.9-2.5c0.1-1.1,0.4-2.1,0.8-2.9c0.4-0.8,0.8-1.5,1.3-2
	c0.4-0.5,1.1-1,2-1.5c0.9-0.5,1.7-0.8,2.3-1.1c0.6-0.2,1.6-0.5,3-0.9l2.4-0.8c0.6-0.2,1.3-0.5,2.4-0.9c1-0.4,1.8-0.9,2.4-1.3
	c0.6-0.4,1.3-1,2.1-1.7c0.8-0.7,1.4-1.4,1.9-2.2c0.5-0.8,0.9-1.7,1.3-2.8c0.4-1.1,0.6-2.3,0.8-3.6C47.3,12.6,48.3,11.8,49.1,10.6z
	 M17.8,9.6c-0.8-0.8-1.1-1.7-1.1-2.8s0.4-2,1.1-2.8c0.8-0.8,1.7-1.2,2.8-1.2c1.1,0,2,0.4,2.8,1.2c0.8,0.8,1.1,1.7,1.1,2.8
	s-0.4,2-1.1,2.8c-0.8,0.8-1.7,1.1-2.8,1.1C19.5,10.8,18.6,10.4,17.8,9.6z M23.4,43.9c-0.8,0.8-1.7,1.2-2.8,1.2c-1.1,0-2-0.4-2.8-1.2
	c-0.8-0.8-1.1-1.7-1.1-2.8c0-1.1,0.4-2,1.1-2.8c0.8-0.8,1.7-1.1,2.8-1.1c1.1,0,2,0.4,2.8,1.1c0.8,0.8,1.1,1.7,1.1,2.8
	C24.5,42.2,24.2,43.1,23.4,43.9z M46.2,9.6c-0.8,0.8-1.7,1.1-2.8,1.1s-2-0.4-2.8-1.1c-0.8-0.8-1.1-1.7-1.1-2.8s0.4-2,1.1-2.8
	c0.8-0.8,1.7-1.2,2.8-1.2s2,0.4,2.8,1.2c0.8,0.8,1.1,1.7,1.1,2.8S47,8.9,46.2,9.6z"/>
</svg>
