<svg xmlns="http://www.w3.org/2000/svg" viewBox="0 0 64 48">
<path d="M34.7,34.8V13.1c1.2-0.6,2.2-1.4,3-2.5c0.8-1.1,1.1-2.4,1.1-3.8c0-1.9-0.7-3.5-2-4.8s-3-2-4.9-2s-3.5,0.7-4.9,2
	c-1.3,1.3-2,2.9-2,4.8c0,1.4,0.4,2.7,1.1,3.8c0.8,1.1,1.8,2,3,2.5v21.6c-1.2,0.6-2.2,1.4-3,2.5c-0.8,1.1-1.1,2.4-1.1,3.8
	c0,1.9,0.7,3.5,2,4.9s3,2,4.9,2s3.5-0.7,4.9-2s2-3,2-4.9c0-1.4-0.4-2.7-1.1-3.8C37,36.2,36,35.3,34.7,34.8z M28.1,6.8
	c0-1.1,0.4-2,1.1-2.8C30,3.3,30.9,2.9,32,2.9s2,0.4,2.8,1.1c0.8,0.8,1.1,1.7,1.1,2.8c0,1.1-0.4,2-1.1,2.8c-0.8,0.8-1.7,1.1-2.8,1.1
	s-2-0.4-2.8-1.1C28.4,8.9,28.1,7.9,28.1,6.8z M32,45c-1.1,0-2-0.4-2.8-1.1c-0.8-0.8-1.1-1.7-1.1-2.8c0-1.1,0.4-2,1.1-2.8
	c0.8-0.8,1.7-1.1,2.8-1.1s2,0.4,2.8,1.1s1.1,1.7,1.1,2.8c0,1.1-0.4,2-1.1,2.8S33.1,45,32,45z"/>
</svg>
