<svg xmlns="http://www.w3.org/2000/svg" viewBox="0 0 64 48">
<path d="M56,41.9c0-1.2-0.3-2.4-1-3.4c-0.7-1-1.6-1.8-2.7-2.2v-5.9c0-0.9-0.2-1.9-0.5-2.9c-0.3-1-0.8-1.9-1.5-2.8
	c-0.7-0.9-1.6-1.7-2.8-2.2c-1.2-0.6-2.6-0.9-4.1-0.9h-5.1c-2.6,0-3.9-0.9-4-2.7v-7.1c1.1-0.5,2-1.2,2.7-2.2c0.7-1,1-2.1,1-3.4
	c0-1.7-0.6-3.1-1.8-4.3C35.1,0.6,33.7,0,32,0c-1.7,0-3.1,0.6-4.3,1.8c-1.2,1.2-1.8,2.6-1.8,4.3c0,1.2,0.3,2.4,1,3.4
	c0.7,1,1.6,1.8,2.7,2.2v7.1c0,0.3,0,0.5-0.1,0.7c-0.1,0.2-0.2,0.5-0.4,0.9s-0.6,0.6-1.2,0.8c-0.6,0.2-1.3,0.3-2.2,0.3h-5.1
	c-1.6,0-2.9,0.3-4.1,0.9c-1.2,0.6-2.1,1.3-2.7,2.2c-0.7,0.9-1.2,1.9-1.5,2.8c-0.3,1-0.5,1.9-0.5,2.9v5.9c-1.1,0.5-2,1.2-2.7,2.2
	c-0.7,1-1,2.1-1,3.4c0,1.7,0.6,3.1,1.8,4.3c1.2,1.2,2.7,1.8,4.3,1.8c1.7,0,3.1-0.6,4.3-1.8c1.2-1.2,1.8-2.6,1.8-4.3
	c0-1.2-0.3-2.4-1-3.4c-0.7-1-1.6-1.8-2.7-2.2v-5.9c0-0.3,0-0.6,0.1-0.9c0.1-0.3,0.2-0.7,0.4-1.2c0.2-0.5,0.6-0.9,1.2-1.3
	c0.6-0.3,1.3-0.5,2.2-0.5h5.1c1.4,0,2.8-0.2,4-0.6v10.5c-1.1,0.5-2,1.2-2.7,2.2c-0.7,1-1,2.1-1,3.4c0,1.7,0.6,3.1,1.8,4.3
	S30.3,48,32,48s3.1-0.6,4.3-1.8c1.2-1.2,1.8-2.6,1.8-4.3c0-1.2-0.3-2.4-1-3.4c-0.7-1-1.6-1.8-2.7-2.2V25.8c1.1,0.4,2.5,0.6,4,0.6
	h5.1c0.8,0,1.6,0.2,2.1,0.5c0.6,0.3,1,0.7,1.2,1.2c0.2,0.5,0.4,0.9,0.5,1.2c0.1,0.3,0.1,0.7,0.1,1v5.9c-1.1,0.5-2,1.2-2.7,2.2
	c-0.7,1-1,2.1-1,3.4c0,1.7,0.6,3.2,1.8,4.4c1.2,1.2,2.6,1.8,4.3,1.8s3.1-0.6,4.3-1.8C55.4,45,56,43.6,56,41.9L56,41.9z M16.6,39.4
	c0.7,0.7,1,1.5,1,2.5c0,1-0.3,1.8-1,2.5s-1.5,1.1-2.5,1.1c-1,0-1.8-0.4-2.5-1.1c-0.7-0.7-1.1-1.5-1.1-2.5c0-1,0.4-1.8,1.1-2.5
	c0.7-0.7,1.5-1,2.5-1C15.1,38.3,15.9,38.7,16.6,39.4z M29.5,8.6c-0.7-0.7-1-1.5-1-2.5c0-1,0.3-1.8,1-2.5c0.7-0.7,1.5-1,2.5-1
	c1,0,1.8,0.3,2.5,1c0.7,0.7,1,1.5,1,2.5c0,1-0.3,1.8-1,2.5c-0.7,0.7-1.5,1-2.5,1C31,9.6,30.2,9.3,29.5,8.6z M34.5,39.4
	c0.7,0.7,1,1.5,1,2.5c0,1-0.3,1.8-1,2.5c-0.7,0.7-1.5,1.1-2.5,1.1c-1,0-1.8-0.4-2.5-1.1s-1-1.5-1-2.5c0-1,0.3-1.8,1-2.5
	c0.7-0.7,1.5-1,2.5-1C33,38.3,33.8,38.7,34.5,39.4z M52.4,44.4c-0.7,0.7-1.5,1.1-2.5,1.1s-1.8-0.4-2.5-1.1c-0.7-0.7-1-1.5-1-2.5
	c0-1,0.3-1.8,1-2.5c0.7-0.7,1.5-1,2.5-1s1.8,0.3,2.5,1c0.7,0.7,1.1,1.5,1.1,2.5C53.4,42.8,53.1,43.7,52.4,44.4z"/>
</svg>
