<svg xmlns="http://www.w3.org/2000/svg" viewBox="0 0 64 48">
<path d="M55.6,19.9L49.4,19c-0.4-1.3-0.9-2.5-1.6-3.7l3.8-5c0.2-0.3,0.2-0.5-0.1-0.8l-5-5c-0.2-0.2-0.5-0.3-0.8-0.1l-5,3.8
	c-1.2-0.7-2.4-1.2-3.7-1.5l-0.9-6.2C36.1,0.2,36,0,35.6,0h-7.1c-0.4,0-0.5,0.2-0.6,0.5L27,6.8c-1.3,0.4-2.5,0.8-3.7,1.5l-5-3.8
	c-0.3-0.2-0.5-0.2-0.8,0.1l-5,5c-0.2,0.2-0.3,0.4-0.1,0.8l3.8,5c-0.7,1.2-1.2,2.4-1.6,3.7l-6.2,0.9C8.2,19.9,8,20.1,8,20.4v7.1
	c0,0.4,0.2,0.5,0.5,0.6l6.2,0.9c0.4,1.3,0.9,2.5,1.6,3.7l-3.8,5c-0.2,0.3-0.2,0.5,0.1,0.8l5,5c0.2,0.2,0.4,0.3,0.8,0.1l5-3.8
	c1.2,0.7,2.4,1.2,3.7,1.6l0.9,6.2c0.1,0.4,0.2,0.5,0.6,0.5h7.1c0.4,0,0.5-0.2,0.6-0.5l0.9-6.2c1.3-0.4,2.5-0.9,3.7-1.6l5,3.8
	c0.3,0.2,0.5,0.2,0.8-0.1l5-5c0.2-0.2,0.3-0.5,0.1-0.8l-3.8-5c0.7-1.2,1.2-2.4,1.6-3.7l6.2-0.9c0.4-0.1,0.5-0.2,0.5-0.6v-7.1
	C56,20.1,55.9,19.9,55.6,19.9z M32.1,31.2c-2,0-3.7-0.7-5.1-2.1s-2.1-3.1-2.1-5.1c0-2,0.7-3.7,2.1-5.1c1.4-1.4,3.1-2.1,5.1-2.1
	c2,0,3.7,0.7,5.1,2.1c1.4,1.4,2.1,3.1,2.1,5.1c0,2-0.7,3.7-2.1,5.1S34,31.2,32.1,31.2z"/>
</svg>
