<svg xmlns="http://www.w3.org/2000/svg" viewBox="0 0 64 48">
<path d="M7.3,16.5c-2,0.3-3.2,0.4-3.6,0.5c-0.4,0.1-0.6,0.3-0.6,0.5v5.4c0,0.2,0.1,0.4,0.3,0.4c0.4,0.1,0.8,0.1,1.2,0.2l1.2,0.1
	c0.4,0.1,0.8,0.1,1.2,0.2s0.8,0.1,1.1,0.2c0.3,1,0.7,2,1.2,2.8c-1.1,1.5-2,2.7-2.7,3.6c-0.3,0.3,0.2,1,1.4,2.1l1.5,1.4l0.6,0.5
	c0.1,0.2,0.3,0.3,0.5,0.5c0.1,0.2,0.3,0.2,0.6-0.1l1.1-0.8l1.1-0.8c0.3-0.3,0.6-0.4,0.8-0.6c0.2-0.1,0.4-0.3,0.6-0.4
	c0.9,0.5,1.8,0.8,2.6,1.1l0.4,2.9c0.1,0.6,0.2,1.2,0.2,1.6c0.1,0.4,0.2,0.6,0.5,0.6h5.4c0.2,0,0.4-0.1,0.4-0.3
	c0.2-0.8,0.4-1.6,0.4-2.4c0.1-0.8,0.2-1.6,0.3-2.3c0.9-0.3,1.8-0.6,2.7-1.1c0.2,0.2,0.4,0.3,0.7,0.5c0.2,0.1,0.5,0.3,0.7,0.5
	c0.7,0.5,1.5,1.1,2.2,1.7c0.1,0.2,0.3,0.2,0.6,0.1c1.3-1,2.5-2.2,3.7-3.6c0.4-0.5,0.5-0.8,0.3-1c-1.2-1.4-2.1-2.6-2.8-3.6
	c0.5-0.9,0.8-1.8,1.1-2.6c0.4-0.1,0.8-0.1,1.2-0.2c0.4,0,0.9-0.1,1.6-0.2c0.7-0.1,1.3-0.2,1.9-0.3c0.2-0.1,0.3-0.2,0.3-0.4v-5.4
	c0-0.3-0.5-0.5-1.5-0.6l-1.2-0.1c-0.4-0.1-0.8-0.2-1.2-0.2c-0.4,0-0.8-0.1-1.1-0.2c-0.4-1.2-0.8-2.1-1.2-2.8l1.5-2
	c0.4-0.6,0.8-1,1.1-1.3c0.3-0.3,0.4-0.6,0.2-0.8c-0.5-0.6-1-1.1-1.5-1.6L32.5,6c-0.2-0.2-0.4-0.3-0.6-0.5c-0.1-0.2-0.3-0.2-0.6-0.1
	c-0.5,0.4-1.3,1-2.4,1.9c-0.5,0.3-0.9,0.7-1.2,1c-0.9-0.5-1.8-0.8-2.6-1.1l-0.1-1c-0.1-0.6-0.2-1.3-0.3-1.9
	c-0.1-0.6-0.2-1.1-0.2-1.6c0-0.4-0.2-0.6-0.5-0.6h-5.4c-0.3,0-0.4,0.1-0.4,0.3c-0.3,1.2-0.5,2.8-0.7,4.7c-0.9,0.3-1.8,0.6-2.7,1.1
	l-1.3-1l-1.2-0.9c-0.4-0.3-0.7-0.6-1.1-0.9c-0.1-0.2-0.3-0.2-0.6-0.1C9.5,6.4,8.3,7.6,6.9,9.1c-0.4,0.5-0.5,0.8-0.3,1
	c1.2,1.4,2.1,2.6,2.8,3.6c-0.5,0.9-0.8,1.8-1.1,2.7L7.3,16.5L7.3,16.5z M17.4,16.4c1.1-1.1,2.3-1.6,3.8-1.6s2.8,0.5,3.8,1.6
	c1.1,1.1,1.6,2.3,1.6,3.8s-0.5,2.8-1.6,3.8c-1.1,1.1-2.3,1.6-3.8,1.6s-2.8-0.5-3.8-1.6c-1.1-1.1-1.6-2.3-1.6-3.8
	S16.3,17.5,17.4,16.4z M41.2,41.3c0.4,0.6,0.9,1.2,1.5,1.7l-0.4,2.8c0,0.3,0.1,0.4,0.3,0.5l5.1,1.6c0.2,0.1,0.4,0,0.5-0.2
	c0.4-0.8,0.9-1.6,1.3-2.6c0.7,0,1.5-0.2,2.4-0.5c0.3,0.3,0.7,0.6,1.1,0.9l1,0.8c0.3,0.2,0.5,0.2,0.7,0.1l4-3.7
	c0.2-0.1,0.2-0.4,0-0.7S58,41,57.1,39.8c0.1-0.3,0.3-0.6,0.4-1c0.1-0.2,0.1-0.4,0.2-0.6c0-0.2,0.1-0.4,0.1-0.6l1.3-0.4l1.2-0.5
	c0.4-0.1,0.5-0.3,0.4-0.5l-1.2-5.3c-0.1-0.2-0.4-0.3-1-0.3c-0.6,0-1.3,0-2.4,0.1c-0.5-0.7-1-1.3-1.6-1.8l0.5-2.8
	c0-0.3-0.1-0.4-0.3-0.5L49.8,24c-0.2-0.1-0.4,0-0.5,0.2l-1.3,2.6c-0.7,0-1.5,0.2-2.2,0.5c-0.9-0.7-1.6-1.3-2.1-1.7
	c-0.3-0.2-0.5-0.2-0.7-0.1l-4,3.6c-0.2,0.1-0.3,0.3-0.1,0.5c0.6,1,1.1,1.8,1.6,2.5l-0.3,0.6l-0.2,0.5c-0.1,0.2-0.1,0.4-0.2,0.6
	c0,0.2-0.1,0.4-0.1,0.6l-1.3,0.5c-0.4,0.2-0.8,0.3-1.2,0.4c-0.4,0.1-0.5,0.3-0.4,0.6l1.1,5.2C38,41.6,39.1,41.6,41.2,41.3L41.2,41.3
	z M51.6,19c0.6,0.8,1.1,1.3,1.5,1.7c0.3,0.3,0.6,0.4,0.8,0.3l4-2.7c0.2-0.1,0.3-0.3,0.1-0.6l-0.4-1c-0.2-0.4-0.4-0.9-0.6-1.3
	c0.3-0.5,0.6-0.9,0.7-1.4c0-0.1,0.1-0.3,0.2-0.4c0.5-0.1,1.3-0.3,2.4-0.6c0.3-0.1,0.5-0.2,0.5-0.4l-0.3-4.9c0-0.3-0.5-0.5-1.6-0.6
	c-0.5,0-0.9,0-1.4-0.1c-0.3-0.7-0.7-1.3-1.2-1.9c0.1-0.4,0.3-1,0.6-1.7c0.3-0.7,0.3-1.1,0-1.3L52.5,0c-0.2,0-0.4,0-0.5,0.1
	c-0.5,0.6-1,1.3-1.5,2.1c-0.7,0-1.4,0.1-2.1,0.2l-0.9-1c-0.3-0.3-0.5-0.6-0.7-0.9c-0.2-0.2-0.5-0.3-0.7-0.2l-4.1,2.7
	c-0.2,0.2-0.2,0.4-0.1,0.7c0.1,0.3,0.3,0.6,0.4,1c0.2,0.4,0.4,0.8,0.6,1.2c-0.1,0.2-0.2,0.3-0.3,0.4S42.4,6.8,42.3,7
	c-0.1,0.2-0.2,0.3-0.2,0.5c0,0.2-0.1,0.3-0.2,0.5c-0.6,0.1-1.4,0.3-2.4,0.6C39.2,8.7,39,8.8,39,9l0.3,4.9c0,0.3,0.2,0.4,0.5,0.4
	c0.3,0,0.7,0.1,1.2,0.1c0.4,0,0.9,0.1,1.4,0.1c0.4,0.8,0.8,1.4,1.2,1.8c-0.2,0.4-0.3,0.9-0.4,1.3l-0.4,1.1c-0.1,0.3,0,0.5,0.2,0.6
	l4.4,2.2c0.2,0.1,0.4,0.1,0.5-0.1c0.5-0.7,1-1.4,1.5-2.2C50,19.3,50.8,19.2,51.6,19L51.6,19z M49.9,32.6c1,0.3,1.7,0.9,2.1,1.8
	c0.4,0.9,0.5,1.8,0.2,2.8s-0.9,1.7-1.8,2.1c-0.9,0.4-1.8,0.5-2.8,0.2c-1-0.3-1.7-0.9-2.1-1.8s-0.5-1.8-0.2-2.8
	c0.3-1,0.9-1.7,1.8-2.1C48,32.3,48.9,32.2,49.9,32.6z M47,9.3c0.4-0.8,1.1-1.4,1.9-1.7c0.9-0.3,1.7-0.2,2.5,0.2
	c0.8,0.4,1.4,1,1.7,1.9c0.3,0.9,0.2,1.7-0.2,2.5c-0.4,0.8-1,1.4-1.9,1.7s-1.7,0.2-2.6-0.2c-0.8-0.4-1.4-1.1-1.7-1.9
	S46.5,10.1,47,9.3z"/>
</svg>
