<svg xmlns="http://www.w3.org/2000/svg" viewBox="0 0 64 48">
<path d="M7,34.9v10.9h21.6V34.9H7z M17.7,42h-7.2v-3.6h7.2V42z M25,42h-2.1v-3.6H25V42z M35.8,34.9v10.9h21.6V34.9H35.8z M46.6,42
	h-7.2v-3.6h7.2V42z M53.8,42h-2.1v-3.6h2.1V42z M39.3,24v10.9h21.6V24H39.3z M50.2,31.1h-7.1v-3.6h7.1V31.1z M57.4,31.1h-2.1v-3.6
	h2.1V31.1z M35.8,13.1V24h21.6V13.1H35.8z M46.6,20.4h-7.2v-3.6h7.2V20.4z M53.8,20.4h-2.1v-3.6h2.1V20.4z M7,24v10.9h21.6V24H7z
	 M17.7,31.1h-7.2v-3.6h7.2V31.1z M25,31.1h-2.1v-3.6H25V31.1z M3.5,13.1V24h21.6V13.1H3.5z M14.2,20.4H7v-3.6h7.2V20.4z M21.3,20.4
	h-2.1v-3.6h2.1V20.4z M7,2.4v10.9h21.6V2.4H7z M17.7,9.5h-7.2V5.9h7.2V9.5z M25,9.5h-2.1V5.9H25V9.5z"/>
</svg>
