<svg xmlns="http://www.w3.org/2000/svg" viewBox="0 0 64 48">
<path d="M6.3,30.5c2,2.9,4.8,5.3,8.2,7.2c-0.4,2-0.9,3.6-1.7,5c-0.3,0.6-1.1,1.6-2.3,2.9L10,46.3c-0.2,0.2-0.3,0.4-0.2,0.7v0.1
	c0.2,0.7,0.6,1,1.2,0.9c0.6-0.1,1.2-0.2,1.7-0.3l1.5-0.3c4.5-1,8.6-2.9,12.4-5.8c1.7,0.3,3.5,0.4,5.4,0.4c4,0,7.7-0.6,11.2-1.7
	c3.5-1.1,6.5-2.6,9.1-4.5c2.6-1.9,4.7-4.1,6.2-6.7c1.5-2.6,2.3-5.3,2.3-8.2c0-2.9-0.8-5.6-2.3-8.2c-1.5-2.6-3.6-4.8-6.2-6.7
	c-2.6-1.9-5.6-3.4-9.1-4.5C39.7,0.6,36,0,32,0c-4,0-7.7,0.6-11.2,1.7c-3.5,1.1-6.5,2.6-9.1,4.5C9.1,8.1,7,10.3,5.5,12.9
	c-1.5,2.6-2.3,5.4-2.3,8.6C3.3,24.6,4.3,27.7,6.3,30.5L6.3,30.5z"/>
</svg>
