<svg xmlns="http://www.w3.org/2000/svg" viewBox="0 0 64 48">
<path d="M3.2,17.1c0,1.5,0.3,2.9,0.8,4.3c0.5,1.3,1.1,2.6,2,3.7c0.9,1.2,1.8,2.2,2.9,3.1c1.1,0.9,2.3,1.8,3.6,2.4
	c-0.3,1.5-0.7,2.6-1.1,3.5c-0.4,0.9-1.2,1.9-2.2,2.9l-0.4,0.4c-0.2,0.2-0.3,0.3-0.3,0.5c0,0.3,0.1,0.5,0.3,0.7S9.3,39,9.5,39
	c0.4,0,0.9-0.1,1.3-0.2c0.5-0.1,0.9-0.2,1.3-0.3c3.7-0.8,7.1-2.4,10.1-4.7c0.7,0.1,1.5,0.1,2.2,0.2c0.7,0.1,1.5,0.1,2.2,0.1
	c3.2,0,6.3-0.5,9.4-1.4c1.7-0.6,3.4-1.4,5.1-2.3c1.7-1,3.2-2.1,4.5-3.4c1.3-1.3,2.4-2.8,3.1-4.5c0.8-1.7,1.2-3.5,1.2-5.5
	c0-2-0.4-3.9-1.2-5.5C48,10,46.9,8.4,45.6,7.1c-1.3-1.3-2.8-2.5-4.5-3.4c-1.7-1-3.4-1.8-5.1-2.3c-1.5-0.5-3.1-0.8-4.7-1.1
	C29.8,0.1,28.2,0,26.6,0s-3.2,0.1-4.7,0.3c-1.6,0.2-3.1,0.6-4.7,1.1c-1.7,0.6-3.4,1.3-5.1,2.2c-1.7,1-3.2,2.1-4.5,3.4
	c-1.3,1.3-2.4,2.8-3.2,4.5C3.6,13.3,3.2,15.1,3.2,17.1L3.2,17.1z M8,17.1c0-1.4,0.3-2.8,1-4c0.6-1.2,1.5-2.2,2.5-3.1
	c1.1-0.9,2.2-1.8,3.5-2.4c1.3-0.7,2.5-1.2,3.7-1.5c1.3-0.5,2.7-0.8,4-1c1.3-0.2,2.7-0.3,4-0.3c1.4,0,2.7,0.1,4,0.3
	c1.3,0.2,2.6,0.5,3.9,1c1.2,0.3,2.5,0.9,3.7,1.5c1.2,0.7,2.4,1.5,3.4,2.4c1,0.9,1.9,1.9,2.5,3.1c0.7,1.2,1,2.5,1,3.9
	c0,1.5-0.3,2.8-1,3.9c-0.7,1.2-1.5,2.2-2.5,3.1c-1,0.9-2.1,1.8-3.4,2.4c-1.3,0.7-2.5,1.2-3.7,1.5c-2.6,0.9-5.2,1.3-7.9,1.3
	c-1,0-1.9-0.1-2.9-0.2l-2.8-0.4l-1.8,1.4c-0.6,0.5-1.3,0.9-1.9,1.2l0.6-3.3l-3.4-1.9c-1.1-0.7-2.2-1.5-3.1-2.4
	c-0.9-0.9-1.7-1.9-2.3-3C8.3,19.8,8,18.5,8,17.1L8,17.1z M22.7,39.3c2.3,1.3,4.6,2.2,7.1,2.9c2.5,0.6,5,1,7.6,1c0.7,0,1.5,0,2.2-0.1
	l2.2-0.3c3,2.3,6.4,3.9,10.1,4.7l1.3,0.3c0.5,0.1,0.9,0.2,1.3,0.2c0.3,0,0.5-0.1,0.7-0.2c0.2-0.2,0.3-0.4,0.3-0.7
	c0-0.2-0.1-0.3-0.2-0.5c-0.1-0.2-0.3-0.3-0.5-0.5c-1-1-1.8-2-2.2-2.9c-0.4-0.9-0.8-2.1-1-3.5c1.3-0.7,2.5-1.5,3.5-2.4
	c1.1-0.9,2.1-2,3-3.1c0.8-1.2,1.5-2.4,2-3.7c0.5-1.3,0.7-2.8,0.7-4.3c0-2.3-0.6-4.4-1.8-6.4c-1.2-1.9-2.6-3.6-4.4-5.1
	c0.1,0.9,0.1,1.7,0.1,2.5c0,2.5-0.4,4.8-1.3,6.9c-0.9,2.1-2.2,4-3.7,5.7c-1.5,1.7-3.3,3.2-5.3,4.4c-2,1.3-4.1,2.3-6.3,3
	c-3.7,1.2-7.5,1.9-11.4,1.9c-1.1,0-2.1-0.1-3.1-0.2L22.7,39.3L22.7,39.3z"/>
</svg>
