<svg xmlns="http://www.w3.org/2000/svg" viewBox="0 0 64 48">
<path d="M12.5,47.8c1.6-0.2,3.1-0.6,4.7-1.1s2.8-1,3.9-1.6c1.1-0.5,2-1.1,2.9-1.6s1.5-1,1.9-1.3l0.7-0.5c1.7,0.2,3.5,0.3,5.4,0.3
	c2,0,4-0.1,5.9-0.4c1.9-0.3,3.8-0.7,5.7-1.3c2.1-0.7,4.2-1.6,6.3-2.8c2.1-1.2,3.9-2.6,5.6-4.2c1.6-1.6,2.9-3.5,3.9-5.5
	s1.5-4.3,1.5-6.8c0-2.5-0.5-4.7-1.5-6.8c-1-2-2.3-3.9-3.9-5.5c-1.6-1.6-3.5-3-5.6-4.2c-2.1-1.2-4.2-2.1-6.3-2.8
	c-1.9-0.6-3.8-1.1-5.7-1.3C35.9,0.1,33.9,0,32,0c-2,0-3.9,0.1-5.8,0.4c-1.9,0.3-3.8,0.7-5.7,1.3c-2.1,0.7-4.2,1.6-6.3,2.8
	c-2.1,1.2-3.9,2.5-5.6,4.2c-1.6,1.6-2.9,3.5-3.9,5.5c-1,2.1-1.5,4.3-1.5,6.8c0,1.9,0.3,3.6,0.9,5.3c0.6,1.6,1.4,3.1,2.4,4.6
	c1.1,1.4,2.3,2.7,3.6,3.9c1.3,1.1,2.8,2.2,4.4,3l-0.1,1.2c-0.1,0.8-0.5,1.8-1.2,3.1c-0.7,1.3-1.5,2.5-2.7,3.6l-0.5,0.6
	c-0.2,0.2-0.3,0.4-0.3,0.6c0,0.3,0.1,0.6,0.4,0.8s0.5,0.4,0.8,0.4C11.1,48,11.7,47.9,12.5,47.8L12.5,47.8z M8,21
	c0-2,0.4-3.7,1.3-5.3c0.9-1.6,2.1-3.1,3.5-4.3c1.4-1.3,3-2.3,4.8-3.2c1.7-0.9,3.5-1.6,5.1-2c3-0.9,6-1.3,9.2-1.3s6.2,0.4,9.3,1.3
	c1.7,0.5,3.4,1.1,5.1,2c1.7,0.9,3.3,2,4.8,3.2c1.4,1.3,2.6,2.7,3.5,4.3c0.9,1.6,1.3,3.4,1.3,5.4s-0.5,3.8-1.4,5.4
	c-0.9,1.6-2.1,3-3.5,4.3c-1.4,1.3-3,2.3-4.8,3.2c-1.7,0.9-3.5,1.6-5.1,2c-3,0.9-6.1,1.3-9.3,1.3c-1.2,0-2.3-0.1-3.4-0.2
	c-1.1-0.1-2.2-0.2-3.3-0.4c-1.1,0.8-2.1,1.6-3.2,2.3s-2.2,1.4-3.3,1.9c0.2-1,0.4-1.9,0.6-2.8c0.1-0.9,0.3-1.8,0.5-2.8l-1.5-0.9
	l-1.5-0.8c-1.2-0.6-2.3-1.4-3.3-2.2c-1.1-0.9-2-1.8-2.8-2.9c-0.9-1-1.5-2.2-2-3.4C8.3,23.8,8,22.5,8,21L8,21z"/>
</svg>
