<svg xmlns="http://www.w3.org/2000/svg" viewBox="0 0 64 48">
<path d="M7.8,32c0.8,0.8,1.8,1.2,2.9,1.2h5.9v-6H13V5.9h26.3v2.8h6.4V4.2c0-1.1-0.4-2.1-1.2-2.9c-0.8-0.8-1.8-1.2-3-1.2H10.7
	C9.6,0,8.6,0.4,7.8,1.2C7,2,6.6,3,6.6,4.2v25C6.6,30.3,7,31.2,7.8,32z M23.4,46.8c0.8,0.8,1.8,1.2,2.9,1.2h30.9
	c1.2,0,2.1-0.4,2.9-1.2c0.8-0.8,1.2-1.8,1.2-2.9V18.4c0-1.1-0.4-2.1-1.2-2.9c-0.8-0.8-1.8-1.2-2.9-1.2H26.3c-1.1,0-2.1,0.4-2.9,1.2
	c-0.8,0.8-1.2,1.8-1.2,2.9v25.5C22.1,45,22.5,46,23.4,46.8z M28.4,20.2h26.5v21.9H28.4V20.2z"/>
</svg>
