<svg xmlns="http://www.w3.org/2000/svg" viewBox="0 0 64 48">
<path d="M3.2,28.8c0,1.6,0.1,3.2,0.4,4.9c0.3,1.6,0.7,3.2,1.3,4.9c0.6,1.6,1.2,3.1,2,4.6c0.9,1.4,1.8,2.8,2.9,4
	c0.4,0.6,1,0.9,1.8,0.9h40.7c0.7,0,1.3-0.3,1.8-0.9c1-1.2,2-2.5,2.8-4s1.6-3,2.1-4.6c0.6-1.6,1-3.2,1.3-4.9c0.3-1.7,0.4-3.3,0.4-4.9
	c0-4-0.7-7.7-2.2-11.2c-1.5-3.5-3.5-6.6-6.2-9.2c-2.6-2.6-5.7-4.7-9.2-6.2S36,0,32,0s-7.7,0.8-11.2,2.3c-3.5,1.5-6.6,3.5-9.2,6.2
	c-2.6,2.6-4.7,5.7-6.2,9.1C3.9,21.1,3.2,24.8,3.2,28.8L3.2,28.8z M8.1,28.8c0-1,0.3-1.9,1-2.6c0.7-0.7,1.5-1,2.5-1
	c1,0,1.8,0.3,2.5,1c0.7,0.7,1.1,1.5,1.1,2.5c0,1-0.3,1.9-1,2.6c-0.7,0.7-1.5,1.1-2.5,1.1c-1,0-1.8-0.4-2.5-1.1
	C8.4,30.6,8.1,29.8,8.1,28.8L8.1,28.8z M15.1,11.8c0.7-0.7,1.5-1,2.5-1c1,0,1.8,0.3,2.6,1c0.7,0.7,1.1,1.5,1.1,2.5
	c0,1-0.4,1.9-1.1,2.6c-0.7,0.7-1.6,1.1-2.6,1.1c-1,0-1.8-0.4-2.5-1.1c-0.7-0.7-1.1-1.6-1.1-2.6C14,13.3,14.4,12.5,15.1,11.8z
	 M26.4,36.2c0.3-0.7,0.7-1.4,1.2-1.9c0.5-0.5,1.1-1,1.9-1.3s1.5-0.5,2.2-0.5l4.2-15c0.1-0.4,0.4-0.7,0.7-0.9
	c0.3-0.2,0.7-0.4,1.1-0.4c0.5,0,0.9,0.2,1.2,0.5c0.4,0.3,0.5,0.7,0.5,1.2c0,0.1-0.1,0.5-0.3,1.3L38.4,22c-0.3,1-0.6,2.2-1,3.4
	l-1,3.5l-0.8,2.9l-0.5,1.7c0.9,0.6,1.5,1.3,2.1,2.2c0.5,0.9,0.8,1.8,0.8,2.8c0,1.7-0.6,3.1-1.8,4.3s-2.6,1.8-4.3,1.8
	s-3.1-0.6-4.3-1.8S26,40.1,26,38.4C26,37.6,26.1,36.9,26.4,36.2z M29.4,5.9c0.7-0.7,1.6-1,2.6-1c1,0,1.9,0.3,2.6,1
	c0.7,0.7,1.1,1.5,1.1,2.5c0,1-0.4,1.8-1.1,2.5c-0.7,0.7-1.6,1-2.6,1c-1,0-1.9-0.3-2.6-1c-0.7-0.7-1.1-1.5-1.1-2.5
	C28.4,7.4,28.7,6.6,29.4,5.9z M42.8,14.3c0-1,0.4-1.8,1.1-2.5c0.7-0.7,1.6-1,2.6-1s1.8,0.3,2.5,1c0.7,0.7,1.1,1.5,1.1,2.5
	c0,1-0.3,1.9-1,2.6c-0.7,0.7-1.5,1.1-2.5,1.1c-1,0-1.9-0.4-2.6-1.1C43.1,16.2,42.8,15.3,42.8,14.3L42.8,14.3z M49.9,26.3
	c0.7-0.7,1.5-1,2.5-1c1,0,1.8,0.3,2.5,1c0.7,0.7,1,1.5,1,2.5c0,1-0.3,1.9-1,2.6c-0.7,0.7-1.5,1.1-2.5,1.1c-1,0-1.8-0.4-2.5-1.1
	c-0.7-0.7-1-1.6-1-2.6C48.8,27.8,49.2,27,49.9,26.3z"/>
</svg>
