<svg xmlns="http://www.w3.org/2000/svg" viewBox="0 0 64 48">
<path d="M55.7,29.3c-0.2,0.2-0.4,0.3-0.6,0.3H9c-0.3,0-0.5-0.1-0.7-0.3S8,28.9,8,28.6v-24C8,4.4,8.1,4.1,8.3,4
	C8.5,3.8,8.7,3.7,9,3.7h46.1c0.3,0,0.5,0.1,0.7,0.3C55.9,4.1,56,4.4,56,4.6v24C56,28.8,55.9,29,55.7,29.3z M58.3,1.3
	c-0.9-0.9-2-1.3-3.3-1.3H9C7.7,0,6.6,0.4,5.7,1.3s-1.3,2-1.3,3.3V36c0,1.3,0.4,2.4,1.3,3.3s2,1.3,3.3,1.3h15.7
	c0,0.7-0.2,1.5-0.5,2.2s-0.6,1.4-0.9,2c-0.3,0.6-0.4,1-0.4,1.2c0,0.5,0.2,1,0.5,1.3c0.4,0.4,0.8,0.5,1.3,0.5h14.7
	c0.5,0,0.9-0.2,1.3-0.5c0.4-0.4,0.5-0.8,0.5-1.3c0-0.2-0.2-0.6-0.4-1.2s-0.6-1.3-0.9-2c-0.3-0.8-0.5-1.6-0.5-2.2h15.7
	c1.3,0,2.4-0.4,3.3-1.3c0.9-0.9,1.3-2,1.3-3.3V4.6C59.7,3.3,59.2,2.2,58.3,1.3z"/>
</svg>
