<svg xmlns="http://www.w3.org/2000/svg" viewBox="0 0 64 48">
<path d="M9.9,33.3c1.3,2.9,3,5.4,5.2,7.6c2.2,2.2,4.7,3.9,7.6,5.2c2.9,1.3,6,1.9,9.3,1.9s6.4-0.6,9.3-1.9c2.9-1.3,5.4-3,7.6-5.2
	c2.2-2.2,3.9-4.7,5.2-7.6c1.3-2.9,1.9-6,1.9-9.3s-0.6-6.4-1.9-9.3S51.1,9.2,49,7s-4.7-3.9-7.6-5.2C38.4,0.6,35.3,0,32,0
	s-6.4,0.6-9.3,1.9S17.2,4.9,15,7c-2.2,2.2-3.9,4.7-5.2,7.6S8,20.7,8,24S8.6,30.4,9.9,33.3z M15.2,24c0-2.3,0.4-4.5,1.3-6.5
	c0.9-2,2.1-3.8,3.6-5.3c1.5-1.5,3.3-2.7,5.3-3.6c2-0.9,4.2-1.3,6.5-1.3c2.3,0,4.5,0.4,6.5,1.3s3.8,2.1,5.4,3.6s2.7,3.3,3.6,5.3
	c0.9,2,1.3,4.2,1.3,6.5c0,2.3-0.4,4.5-1.3,6.5c-0.9,2-2.1,3.8-3.6,5.3s-3.3,2.7-5.4,3.6c-2,0.9-4.2,1.3-6.5,1.3
	c-2.3,0-4.5-0.4-6.5-1.3c-2-0.9-3.8-2.1-5.3-3.6c-1.5-1.5-2.7-3.3-3.6-5.3C15.7,28.5,15.2,26.3,15.2,24L15.2,24z M21.2,25.7
	c-0.2,0.4,0,0.9,0.6,1.5l8.7,8.7c0.4,0.4,0.9,0.6,1.5,0.6s1.1-0.2,1.4-0.6l8.7-8.7c0.6-0.6,0.8-1.1,0.6-1.5
	c-0.2-0.4-0.7-0.6-1.5-0.6h-5.1V13.2c0-0.3-0.1-0.6-0.4-0.9C35.6,12.1,35.3,12,35,12h-6c-0.3,0-0.6,0.1-0.9,0.4
	c-0.2,0.2-0.4,0.5-0.4,0.9V25h-5.1C21.9,25,21.4,25.2,21.2,25.7L21.2,25.7z"/>
</svg>
