<svg xmlns="http://www.w3.org/2000/svg" viewBox="0 0 64 48">
<path d="M4.5,47.9h55.1c0.8,0,1.2-0.4,1.2-1.2V27.5c0-0.3-0.1-0.6-0.4-0.9s-0.5-0.4-0.9-0.4h-7.2c-0.3,0-0.6,0.1-0.9,0.4
	c-0.2,0.2-0.4,0.5-0.4,0.9v10.8H12.9V27.5c0-0.3-0.1-0.6-0.4-0.9s-0.5-0.4-0.9-0.4H4.5c-0.3,0-0.6,0.1-0.9,0.4s-0.4,0.5-0.4,0.9
	v19.2C3.3,47.5,3.7,47.9,4.5,47.9z M14.6,19.7l15.7,15.8c0.5,0.5,1,0.7,1.7,0.7s1.3-0.2,1.7-0.7l15.7-15.8c0.5-0.5,0.6-0.9,0.5-1.2
	c-0.1-0.3-0.5-0.5-1.2-0.5h-9.6V2.4c0-0.6-0.2-1.2-0.7-1.7c-0.5-0.5-1-0.7-1.7-0.7h-9.6c-0.7,0-1.2,0.2-1.7,0.7
	c-0.4,0.5-0.7,1-0.7,1.7V18h-9.6c-0.7,0-1.1,0.2-1.2,0.5C13.9,18.8,14.1,19.2,14.6,19.7z"/>
</svg>
