<svg xmlns="http://www.w3.org/2000/svg" viewBox="0 0 64 48">
<path d="M31.1,19c-2.7-4.7-5.5-8.6-5.7-8.8c-4.3,2-7.5,6-8.5,10.7C17.4,20.8,23.8,20.9,31.1,19z M33,24.1c0.2-0.1,0.4-0.1,0.6-0.2
	c-0.4-0.9-0.8-1.7-1.2-2.6c-7.9,2.4-15.5,2.2-15.7,2.2c0,0.2,0,0.3,0,0.5c0,3.9,1.5,7.5,3.9,10.3c0,0,0,0,0,0S24.8,26.8,33,24.1z
	 M28.3,9.1C28.3,9.1,28.3,9.1,28.3,9.1C28.3,9.1,28.3,9.1,28.3,9.1C28.3,9.1,28.3,9.1,28.3,9.1z M42.1,12.5
	c-2.7-2.4-6.2-3.8-10.1-3.8c-1.2,0-2.5,0.2-3.6,0.4c0.2,0.3,3.1,4.1,5.7,9C39.9,15.9,42.1,12.5,42.1,12.5z M35.3,20.3
	c0.4,0.7,0.7,1.5,1,2.2c0.1,0.3,0.2,0.5,0.3,0.8c5.3-0.7,10.5,0.5,10.7,0.5c0-3.6-1.3-7-3.5-9.6C43.8,14.3,41.3,17.9,35.3,20.3z
	 M34.6,26.5c-9.1,3.2-12,9.6-12,9.6s-0.1-0.1-0.3-0.3c2.7,2.2,6.1,3.5,9.8,3.5c2.1,0,4.1-0.4,6-1.2c-0.2-1.3-1.1-6-3.3-11.7
	C34.7,26.5,34.6,26.5,34.6,26.5z M55.5,3.7c-0.3-0.7-0.8-1.4-1.3-1.9c-0.5-0.5-1.2-1-1.9-1.3C51.6,0.2,50.8,0,50,0h-36
	c-0.8,0-1.6,0.2-2.3,0.5c-0.7,0.3-1.3,0.8-1.9,1.3c-0.5,0.5-1,1.2-1.3,1.9C8.2,4.4,8,5.2,8,6V42c0,0.8,0.2,1.6,0.5,2.3
	c0.3,0.8,0.8,1.4,1.3,1.9c0.5,0.5,1.2,1,1.9,1.3c0.7,0.3,1.5,0.5,2.3,0.5h36c1.7,0,3.1-0.6,4.3-1.8c1.2-1.2,1.8-2.6,1.8-4.3V6
	C56,5.2,55.8,4.4,55.5,3.7z M49.6,27.6c-0.2,1.2-0.6,2.3-1,3.4c-0.5,1.1-1,2.1-1.7,3.1c-0.6,0.9-1.4,1.8-2.2,2.7
	c-0.8,0.8-1.7,1.6-2.7,2.2c-1,0.6-2,1.2-3.1,1.7c-1.1,0.5-2.2,0.8-3.4,1C34.4,41.8,33.2,42,32,42c-1.2,0-2.4-0.1-3.6-0.4
	c-1.2-0.2-2.3-0.6-3.4-1c-1.1-0.5-2.1-1-3.1-1.7c-1-0.6-1.8-1.4-2.7-2.2c-0.8-0.8-1.6-1.7-2.2-2.7c-0.6-1-1.2-2-1.7-3.1
	c-0.5-1.1-0.8-2.2-1-3.4C14.1,26.4,14,25.2,14,24c0-1.2,0.1-2.4,0.4-3.6c0.2-1.2,0.6-2.3,1-3.4c0.4-1.1,1-2.1,1.7-3.1
	c0.6-0.9,1.4-1.8,2.2-2.7c0.8-0.8,1.7-1.6,2.7-2.2c1-0.7,2-1.2,3.1-1.7c1.1-0.5,2.2-0.8,3.4-1C29.5,6.2,30.8,6,32,6
	c1.2,0,2.4,0.1,3.6,0.4c1.2,0.2,2.3,0.6,3.4,1c1.1,0.5,2.1,1,3.1,1.7c0.9,0.6,1.8,1.4,2.7,2.2c0.8,0.8,1.6,1.7,2.2,2.7
	c0.6,1,1.2,2,1.7,3.1c0.5,1.1,0.8,2.2,1,3.4c0.2,1.2,0.4,2.4,0.4,3.6C49.9,25.2,49.8,26.4,49.6,27.6z M37.6,25.8c2,5.5,2.8,10,3,11
	c3.4-2.3,5.9-6,6.6-10.3C46.8,26.3,42.5,25,37.6,25.8z"/>
</svg>
