<svg xmlns="http://www.w3.org/2000/svg" viewBox="0 0 64 48">
<path d="M55.5,19.2c-0.3-1.5-0.8-3.1-1.4-4.5c-0.6-1.4-1.3-2.8-2.2-4.1C51,9.3,50,8.1,49,7C47.9,6,46.7,5,45.4,4.1
	c-1.3-0.9-2.7-1.6-4.1-2.2c-1.4-0.6-3-1.1-4.5-1.4C35.2,0.2,33.6,0,32,0c-1.6,0-3.3,0.2-4.8,0.5c-1.5,0.3-3.1,0.8-4.5,1.4
	c-1.4,0.6-2.8,1.3-4.1,2.2C17.3,5,16.1,6,15,7C14,8.1,13,9.3,12.1,10.6c-0.9,1.3-1.6,2.7-2.2,4.1c-0.6,1.4-1.1,3-1.4,4.5
	C8.2,20.7,8,22.4,8,24c0,1.6,0.2,3.3,0.5,4.8c0.3,1.5,0.8,3.1,1.4,4.5c0.6,1.4,1.3,2.8,2.2,4.1C13,38.7,14,39.9,15,41
	c1.1,1.1,2.3,2.1,3.5,2.9c1.3,0.9,2.7,1.6,4.1,2.2c1.4,0.6,3,1.1,4.5,1.4c1.6,0.3,3.2,0.5,4.8,0.5c1.6,0,3.2-0.2,4.8-0.5
	c1.5-0.3,3.1-0.8,4.5-1.4c1.4-0.6,2.8-1.3,4.1-2.2C46.7,43,47.9,42,49,41c1.1-1.1,2.1-2.3,2.9-3.5c0.9-1.3,1.6-2.7,2.2-4.1
	c0.6-1.5,1.1-3,1.4-4.5c0.3-1.6,0.5-3.2,0.5-4.8C56,22.4,55.8,20.7,55.5,19.2z M52.5,23.8c-0.3-0.1-7.2-1.6-14.3-0.7
	c-0.1-0.4-0.3-0.7-0.4-1.1c-0.4-1-0.9-2-1.4-3c8.1-3.3,11.4-8.1,11.4-8.1C50.7,14.5,52.4,18.9,52.5,23.8z M45.5,8.6
	c-0.1,0.1-3,4.5-10.7,7.4c-3.5-6.4-7.3-11.5-7.7-11.9c1.5-0.4,3.2-0.6,4.8-0.6C37.2,3.5,41.9,5.4,45.5,8.6z M27.1,4.1
	C27.1,4.1,27.1,4.1,27.1,4.1C27.1,4.1,27.1,4.1,27.1,4.1C27.1,4.1,27.1,4.1,27.1,4.1z M23.3,5.5c0.3,0.4,4.1,5.5,7.6,11.8
	C21,19.9,12.5,19.8,12,19.8C13.3,13.4,17.5,8.2,23.3,5.5z M11.5,24c0-0.2,0-0.4,0-0.6c0.4,0,10.5,0.2,21-2.9
	c0.6,1.1,1.1,2.3,1.7,3.5c-0.3,0.1-0.5,0.2-0.8,0.2c-11.1,3.6-16.7,13.5-16.7,13.5s0,0,0,0C13.5,34.1,11.5,29.3,11.5,24z M32,44.5
	c-5,0-9.5-1.8-13-4.7c0.3,0.2,0.5,0.4,0.5,0.4s3.9-8.6,16.1-12.8c0,0,0.1,0,0.1,0c2.9,7.5,4.1,13.8,4.4,15.6
	C37.5,43.9,34.8,44.5,32,44.5z M43.4,41c-0.2-1.2-1.3-7.2-4-14.6c6.6-1.1,12.3,0.8,12.8,0.9C51.3,33,48,37.9,43.4,41z"/>
</svg>
