<svg xmlns="http://www.w3.org/2000/svg" viewBox="0 0 64 48">
<path d="M32,26.6l10.6-6.6L32,13.5l-10.6,6.6L32,26.6z M56,42V6c0-0.9-0.2-1.6-0.5-2.4c-0.3-0.7-0.8-1.4-1.3-1.9
	c-0.5-0.5-1.2-1-1.9-1.3C51.6,0.2,50.8,0,50,0h-36c-0.8,0-1.6,0.2-2.3,0.5c-0.7,0.3-1.3,0.7-1.9,1.3c-0.5,0.5-1,1.2-1.3,1.9
	C8.2,4.4,8,5.2,8,6V42c0,0.8,0.2,1.6,0.5,2.3c0.3,0.8,0.7,1.4,1.3,1.9c0.5,0.5,1.2,1,1.9,1.3c0.7,0.3,1.5,0.5,2.3,0.5h36
	c1.7,0,3.1-0.6,4.3-1.8C55.4,45.1,56,43.6,56,42z M21.4,34.3L21.4,34.3l0-2.3l3.2,2.1l7.4-6.1l7.4,6.1l3.2-2.1v2.3L32,40.6
	L21.4,34.3L21.4,34.3z M42.6,20.1l7.3,5.8l-10.5,6.9L32,26.6l-7.4,6.1l-10.5-6.9l7.3-5.8l-7.3-5.8l10.5-6.9l7.4,6.1l7.4-6.1
	l10.5,6.9L42.6,20.1z"/>
</svg>
