<svg xmlns="http://www.w3.org/2000/svg" viewBox="0 0 64 48">
<path d="M20,3.2c-3.7,2.2-6.6,5.1-8.8,8.8C9,15.7,8,19.7,8,24s1,8.3,3.2,12c2.2,3.7,5.1,6.6,8.7,8.7c3.7,2.2,7.7,3.3,12,3.3
	c4.4,0,8.4-1.1,12-3.3c3.7-2.1,6.6-5,8.7-8.7S56,28.3,56,24s-1.1-8.3-3.3-12c-2.1-3.7-5-6.6-8.7-8.8C40.3,1,36.3,0,32,0
	S23.6,1,20,3.2z M48.3,36.4c-0.5-0.4-0.8-0.8-1-1.5c-0.2-0.7-0.2-1.4,0.1-2.3c0.4-0.8,0.6-1.9,0.7-3.4c0.2-1.5,0.2-2.7,0.1-3.6
	c-0.1-0.7-0.2-1.4-0.4-2c-0.1-0.7-0.5-1.4-1-2c-0.4-0.7-1-1.1-1.7-1.1c-1.1-0.1-2.1-0.3-2.8-0.8s-1.3-1.3-1.9-2.5
	c-0.5-1.1-0.7-2-0.5-2.6c0.2-0.7,0.4-1.4,0.9-2c0.4-0.6,0.9-1.1,1.4-1.5c0.5-0.4,0.8-0.9,0.9-1.4c0.2-0.5-0.1-1-0.5-1.6
	c-0.1-0.2-0.4-0.1-1,0.1L40.1,9c-0.5,0.2-1,0.2-1.5-0.3c-0.5-0.4-0.8-1.3-0.9-2.5c-0.1-0.4,0.2-0.9,0.8-1.6c4.1,1.3,7.5,3.8,10,7.4
	c2.6,3.6,3.9,7.6,3.9,12C52.4,28.7,51.1,32.8,48.3,36.4z M29.2,3.8C29,4.1,28.5,4.5,27.8,5c-0.7,0.5-1.1,0.7-1.2,0.8
	c-0.4,0.5-0.9,0.8-1.3,1s-0.8,0.5-1.1,0.8s-0.6,0.6-0.9,1c-0.2,0.5-0.7,1-1.3,1.6s-1.3,1.3-1.8,1.9c-0.5,0.5-0.8,1-0.8,1.3
	c0,0.4,0.3,1,0.9,1.5c0.6,0.5,1.1,0.7,1.4,0.6c0.4-0.2,1-0.2,1.8-0.2c0.8,0.1,1.5,0.2,2,0.3c0.1,0.1,0.4,0.1,0.9,0.2s1,0.2,1.5,0.3
	s1,0.3,1.7,0.5c0.7,0.2,1.3,0.6,1.7,0.9c0.5,0.3,0.9,0.8,1.3,1.4c0.4,0.6,0.5,1.3,0.5,2c-0.1,0.8-0.2,1.7-0.5,2.7
	c-0.2,0.5-0.6,1-1.1,1.4c-0.5,0.4-1.1,0.7-1.7,1c-0.6,0.2-1.2,0.6-1.7,1.2c-0.5,0.7-1,1.4-1.1,2.2c-0.5,1.5-0.7,2.7-0.7,3.7
	c0,0.2,0.1,0.8,0.2,1.9c0.2,1.1,0.2,2,0.2,2.8c-0.1,0.8-0.2,1.1-0.6,1.1c-0.5,0-1.4-0.7-2.6-2.1s-1.7-2.3-1.7-2.8
	c0-0.2-0.2-0.9-0.5-2.2c-0.3-1.4-0.5-2.5-0.5-3.3c0-0.5-0.2-1-0.6-1.3s-0.8-0.8-1.3-1c-0.5-0.2-0.9-0.6-1.3-1.1
	c-0.5-0.5-0.6-1.1-0.6-1.7c0-0.9,0.3-1.9,0.9-3s0.8-1.9,0.7-2.2c-0.1-0.2-0.3-0.4-0.5-0.6c-0.3-0.1-0.7-0.3-1.2-0.4
	c-0.6-0.2-1-0.2-1.3-0.2c-0.4-0.1-0.8-0.1-1.5-0.2s-1-0.1-1-0.1c1.3-3.5,3.5-6.3,6.4-8.6C22.2,5.7,25.5,4.3,29.2,3.8L29.2,3.8z
	 M25.5,43.4c0.3-0.2,0.7-0.4,1.1-0.8c0.5-0.4,1-0.7,1.4-0.7c0.5,0,1.2-0.2,2.1-0.4c1-0.2,1.5-0.4,1.7-0.4c0.1-0.1,1-0.3,2.3-0.9
	c1.3-0.5,2.5-0.8,3.2-0.9c1.1-0.1,2.2,0,3.5,0.2c1.2,0.2,2,0.8,2.4,1.5c-3.4,2.2-7.2,3.4-11.2,3.4C29.8,44.4,27.7,44.1,25.5,43.4
	L25.5,43.4z"/>
</svg>
