<svg xmlns="http://www.w3.org/2000/svg" viewBox="0 0 64 48">
<path d="M11.1,31.3c0,0.7,0.2,1.2,0.7,1.6c0.4,0.4,1,0.7,1.7,0.7h16.5v3l-8.5,5.2l0.7,1.4l7.8-3v6c0,0.4,0.1,0.9,0.4,1.2
	c0.3,0.3,0.7,0.4,1.1,0.4c0.4,0,0.9-0.1,1.2-0.4c0.4-0.3,0.5-0.7,0.5-1.2v-6l7.9,3l0.8-1.4l-8.7-5.2v-3h17.1c0.7,0,1.3-0.2,1.7-0.7
	c0.4-0.5,0.7-1,0.7-1.7s-0.2-1.2-0.7-1.6s-1-0.7-1.7-0.7V7.3c0.7,0,1.3-0.2,1.7-0.7s0.7-1,0.7-1.6S52.4,3.8,52,3.3s-1-0.7-1.7-0.7
	H33l-1-2.5h-0.6l-1,2.5h-17c-0.7,0-1.3,0.2-1.7,0.7s-0.6,1-0.6,1.6s0.2,1.2,0.6,1.6c0.4,0.4,0.9,0.7,1.6,0.7v21.6
	c-0.7,0.1-1.1,0.4-1.6,0.7C11.3,30.1,11.1,30.6,11.1,31.3L11.1,31.3z M16.3,28.7V7.5h31.1v21.2H16.3L16.3,28.7z"/>
</svg>
