<svg xmlns="http://www.w3.org/2000/svg" viewBox="0 0 64 48">
<path fill="#010101" d="M30,31.7c-1.3,0-1.6-1.3-1.6-4.6c0-2.5,0-4.3,1.6-4.3c1.7,0,1.6,1.8,1.6,4.3C31.6,30.4,31.4,31.7,30,31.7z
	 M39.9,22.6c-1.9,0.1-3.4,0-3.4,2.2c0,0.9,0.2,2,1.5,2C40.3,26.8,39.9,24,39.9,22.6z M52.1,14.1l-3.9,7.6l-3.6-7.6h-5.6l0.9,1.7
	l3.9,7.2l1.6,2.9v6.3h5.1v-6.3l5.6-9.7V42c0,1.7-0.6,3.1-1.8,4.3C53.1,47.5,51.7,48,50,48H13.9c-0.8,0-1.6-0.2-2.3-0.5
	c-0.7-0.3-1.4-0.8-1.9-1.3c-0.5-0.5-1-1.2-1.3-1.9C8.1,43.6,8,42.8,8,42V30c1.3,1.3,3.9,2.1,9.1,2.1c2.1,0,3.9-0.2,5.4-0.5
	c0.8-0.2,1.5-0.4,2.1-0.7c0.1,0,0.1,0,0.1-0.1c1.7-0.7,2.6-1.6,2.7-2.9h-2.8h-2.1h-0.1h-2.3c0,1-0.5,2-3,2c-3.1,0-3.2-2-3.2-3.3
	h10.6h2.9c0.2-2.3-0.2-4.2-2.9-5.3c-0.6-0.3-1.3-0.4-2.1-0.6c-1.3-0.3-3.1-0.4-5.3-0.4c-5.2,0-7.8,0.8-9.1,2.1V6
	c0-0.9,0.2-1.6,0.5-2.4c0.3-0.7,0.8-1.4,1.3-1.9c0.5-0.5,1.2-1,1.9-1.3C12.3,0.2,13.1,0,13.9,0H50c0.8,0,1.6,0.2,2.3,0.5
	c0.8,0.3,1.4,0.8,1.9,1.3c0.5,0.5,1,1.2,1.3,1.9C55.9,4.4,56,5.2,56,6v8.1H52.1z M28.5,22.1L28.5,22.1l-0.1-6.7h-3.9V21
	c0.1,0,0.1,0,0.2,0.1c1.5,0.6,2.3,1.4,2.8,2.4c0.5,1,0.5,2.1,0.4,3.3h0c0,0.2-0.2,0.4-0.4,0.4h-2.9v0v0.4h2.8v0h0
	c0.2,0,0.4,0.2,0.4,0.5c0,0.7-0.3,1.4-0.8,1.9c-0.5,0.5-1.2,1-2,1.3c-0.1,0.1-0.1,0.1-0.3,0.1l-0.1,0v2.1h3.7v-1.4h0.1
	c0.7,1.2,1.8,1.7,3.3,1.7c3,0,3.7-2.3,3.9-4.5l-0.1,0v0h0c-1.4-0.3-2.2-1.1-2.7-2.1c-0.1-0.2-0.2-0.4-0.2-0.6
	c-0.1-0.5-0.2-1.1-0.2-1.7h0v0c0-0.9,0.1-1.6,0.4-2.2c0.3-0.6,0.6-1.1,1.1-1.4c-0.5-0.4-1.2-0.6-2.2-0.6
	C30.2,20.7,29.3,21.1,28.5,22.1z M34.5,16.5c-0.9,0.6-1.5,1.6-1.5,3.1h3.9c0-1,0.1-2,1.5-2c1.4,0,1.6,0.8,1.6,1.9v1
	c-2.2-0.1-4.4,0-5.7,1c-0.9,0.6-1.5,1.7-1.5,3.4c0,1.9,0.8,3.6,2.8,4C35.7,29,36,29,36.4,29c1.7,0,2.8-0.6,3.6-1.9h0.1l0.2,1.7h3.6
	c-0.1-0.8-0.2-1.6-0.2-2.4v-2.4l-0.4-0.7L39.5,16l-0.1-0.3c-0.4,0-0.8-0.1-1.2-0.1C36.6,15.7,35.3,15.9,34.5,16.5z M17.1,22.4
	c-3.2,0-3.2,1.7-3.2,2.6h6.5C20.4,24,20.5,22.4,17.1,22.4z"/>
</svg>
