<svg xmlns="http://www.w3.org/2000/svg" viewBox="0 0 64 48">
<path d="M34.1,19c-0.6-0.4-1.4-0.6-2.5-0.6c-1.6,0-2.7,0.4-3.6,1.6h-0.1v-7.6h-4.4v6.3c0.1,0,0.1,0.1,0.2,0.1
	c1.7,0.7,2.7,1.6,3.2,2.8c0.5,1.1,0.6,2.4,0.5,3.8h0c0,0.3-0.2,0.5-0.5,0.5h-3.3v0v0.4h3.2v0h0c0.3,0,0.5,0.3,0.5,0.5
	c0,0.8-0.4,1.6-1,2.2c-0.5,0.6-1.3,1.1-2.3,1.5c-0.1,0.1-0.2,0.1-0.3,0.1l-0.1,0v2.4h4.2v-1.6h0.1c0.8,1.4,2,1.9,3.7,1.9
	c3.4,0,4.2-2.6,4.4-5.2l-0.1,0v0h0c-1.5-0.3-2.5-1.2-3.1-2.4l0,0c-0.1-0.2-0.2-0.5-0.3-0.7c-0.2-0.6-0.2-1.3-0.2-1.9h0v0
	c0-1,0.2-1.9,0.5-2.6C33.1,20,33.5,19.4,34.1,19L34.1,19z M31.6,25.8c0,3.7-0.3,5.2-1.9,5.2c-1.5,0-1.8-1.5-1.8-5.2
	c0-2.9,0-4.9,1.8-4.9C31.7,20.9,31.6,22.9,31.6,25.8L31.6,25.8z M26.7,26.8h-3.2h-2.4h-0.1h-2.6c0,1.1-0.6,2.3-3.5,2.3
	c-3.6,0-3.6-2.3-3.6-3.8h12.1h3.3c0.2-2.6-0.2-4.8-3.3-6c-0.7-0.3-1.5-0.5-2.4-0.7c-1.5-0.3-3.5-0.5-6.1-0.5
	c-10.6,0-11.8,3-11.8,6.5c0,4,1.3,6.8,11.8,6.8c2.4,0,4.5-0.3,6.1-0.5c0.9-0.2,1.7-0.4,2.4-0.8c0.1,0,0.1,0,0.1-0.1
	C25.6,29.3,26.7,28.2,26.7,26.8L26.7,26.8z M15,20.3c3.9,0,3.7,1.8,3.7,3h-7.4C11.4,22.3,11.4,20.3,15,20.3L15,20.3z M34.5,19.4
	c-1.1,0.7-1.7,2-1.7,3.8c0,2.2,0.9,4.1,3.1,4.6c0.3,0.1,0.7,0.1,1.1,0.1c1.9,0,3.2-0.7,4.1-2.2h0.1l0.2,1.9h4.2
	c-0.1-0.9-0.2-1.8-0.2-2.8v-2.8L45,21.3l0,0l-4.4-8.2l-0.2-0.3c-0.4,0-0.9-0.1-1.4-0.1c-1.7,0-3.1,0.3-4.2,1
	c-1.1,0.6-1.7,1.8-1.7,3.5h4.4c0-1.1,0.1-2.3,1.7-2.3c1.6,0,1.8,0.9,1.8,2.1v1.2C38.5,18.2,36,18.2,34.5,19.4L34.5,19.4z M38.8,25.3
	c-1.5,0-1.7-1.3-1.7-2.3c0-2.6,1.7-2.4,3.9-2.5C41,22.1,41.4,25.3,38.8,25.3L38.8,25.3z M54.9,10.9h5.9L53,24.4v7.2h-5.8v-7.2
	L45.4,21L41,12.8l-1.1-1.9h6.3l4.2,8.7L54.9,10.9L54.9,10.9z"/>
</svg>
