<svg xmlns="http://www.w3.org/2000/svg" enable-background="new 0 0 64 48">
<path d="M3.2,38.4c0,2.5,0.9,4.8,2.8,6.8c1.8,1.9,4.1,2.8,6.8,2.8h33.6c2.6,0,4.9-1,6.8-2.9s2.9-4.1,2.9-6.8V18.5l-6,6v13.9
	c0,1-0.4,1.8-1.1,2.5S47.3,42,46.3,42H12.7c-1,0-1.8-0.4-2.5-1.1c-0.6-0.7-1-1.5-1-2.5V9.6c0-1,0.4-1.8,1.1-2.5
	C11,6.4,11.8,6,12.8,6H41L47,0.1c-0.1,0-0.2,0-0.4,0c-0.1,0-0.3,0-0.4,0H12.7C10.1,0.1,7.9,1,6,2.9C4.1,4.8,3.2,6.9,3.2,9.6V38.4
	L3.2,38.4z M33.2,34.5l20.3-20.3l-6.9-6.9L26.2,27.6l-3.4,10.3L33.2,34.5z M30.2,27.3l15.9-15.9c0.4-0.4,0.7-0.4,1.1,0
	s0.4,0.7,0,1.1L31.3,28.4c-0.1,0.2-0.3,0.3-0.5,0.3s-0.4-0.1-0.5-0.3C29.8,28,29.8,27.7,30.2,27.3z M56.9,10.7l3-2.9
	c0.6-0.6,0.9-1.3,0.9-2.1c0-0.8-0.3-1.4-0.9-2.1l-2.8-2.8C56.6,0.3,55.9,0,55.1,0c-0.8,0-1.5,0.3-2.1,0.9l-3,2.9L56.9,10.7z"/>
</svg>
