<svg xmlns="http://www.w3.org/2000/svg" viewBox="0 0 64 48">
<path d="M5.2,28.6c1.2,1.2,2.6,1.8,4.4,1.8s3.1-0.6,4.4-1.9c1.2-1.3,1.9-2.6,1.9-4.4c0-1.7-0.6-3.1-1.8-4.4
	c-1.2-1.2-2.6-1.9-4.6-1.9c-1.7,0-3.2,0.6-4.6,1.9c-1.2,1.3-1.9,2.6-1.9,4.6C3.3,25.8,3.9,27.2,5.2,28.6z M32,30.2
	c1.7,0,3.2-0.6,4.6-1.8c1.3-1.2,1.9-2.6,1.9-4.4c0-1.7-0.6-3.2-1.9-4.6c-1.3-1.2-2.6-1.9-4.6-1.9c-1.7,0-3.2,0.6-4.4,1.9
	s-1.8,2.6-1.8,4.4c0,1.7,0.6,3.1,1.8,4.4C28.8,29.6,30.2,30.2,32,30.2z M54.4,30.2c1.7,0,3.2-0.6,4.6-1.8c1.2-1.2,1.9-2.6,1.9-4.4
	c0-1.7-0.6-3.2-1.9-4.6c-1.3-1.2-2.6-1.9-4.6-1.9c-1.7,0-3.2,0.6-4.6,1.9c-1.3,1.3-1.9,2.6-1.9,4.4c0,1.7,0.6,3.1,1.9,4.4
	C51.2,29.6,52.6,30.2,54.4,30.2z"/>
</svg>
