<svg xmlns="http://www.w3.org/2000/svg" viewBox="0 0 64 48">
<path d="M4.3,46.9c0.7,0.7,1.5,1.1,2.5,1.1h50.4c1,0,1.8-0.4,2.5-1.1c0.7-0.7,1.1-1.5,1.1-2.5V6.7V4.8V3.6c0-1-0.4-1.8-1.1-2.5
	C59,0.4,58.2,0,57.2,0H56H8H6.8C5.8,0,5,0.4,4.3,1.1C3.6,1.8,3.2,2.6,3.2,3.6v1.2v2v37.5C3.2,45.3,3.6,46.2,4.3,46.9z M8,16.6
	c0.6,0.6,1.2,1.2,1.8,1.5l3.9,2.9l4.1,3.1l2.3,1.8l2.1,1.6c0.1,0.1,0.3,0.2,0.4,0.3c0.1,0.1,0.3,0.2,0.4,0.4
	c0.6,0.5,1.2,0.9,1.9,1.4s1.4,1,2.1,1.4c0.7,0.4,1.5,0.8,2.4,1.1c0.8,0.3,1.7,0.4,2.5,0.4c0.9,0,1.8-0.1,2.6-0.4
	c0.8-0.3,1.6-0.6,2.4-1.1s1.5-0.9,2.1-1.4l1.9-1.4c0.2-0.1,0.3-0.2,0.4-0.4c0.1-0.1,0.3-0.2,0.4-0.3l2.1-1.6l2.3-1.8l4.1-3.1
	l3.9-2.9c0.6-0.4,1.1-0.9,1.8-1.5v26.6H8V16.6z M8,6.8v-2H56v2c0,0.6-0.1,1.2-0.4,1.9c-0.3,0.7-0.6,1.4-1.1,2
	c-0.4,0.7-0.9,1.3-1.5,1.9c-0.6,0.6-1.1,1.1-1.7,1.5l-3.1,2.4l-3.3,2.4l-3.2,2.5l-2.8,2.2l-1.4,1.1c-0.6,0.5-1.2,0.9-1.8,1.3
	s-1.2,0.8-1.9,1.1c-0.6,0.3-1.2,0.5-1.8,0.5H32h-0.1c-0.6,0-1.1-0.2-1.8-0.5c-0.6-0.3-1.2-0.7-1.9-1.1c-0.6-0.4-1.2-0.9-1.8-1.3
	l-1.4-1.1l-2.8-2.2l-3.2-2.5l-3.3-2.4l-3.1-2.4c-0.6-0.4-1.2-0.9-1.7-1.5c-0.5-0.6-1-1.2-1.5-1.9c-0.4-0.7-0.8-1.4-1.1-2
	C8.2,8.1,8,7.4,8,6.8L8,6.8z"/>
</svg>
