<svg xmlns="http://www.w3.org/2000/svg" viewBox="0 0 64 48">
<path d="M57.6,18.8c-7.2,4.9-12.5,8.6-16,11.2c-1.2,0.8-2.3,1.6-3,2.1c-0.7,0.5-1.8,1-3,1.6c-1.2,0.5-2.4,0.8-3.6,0.8h-0.1
	c-1.1,0-2.3-0.2-3.5-0.8c-1.2-0.5-2.3-1.1-3-1.6l-2.9-2.1c-2.9-2.2-8.2-5.9-16-11.2C5.1,17.9,4,17.1,3,16v25.6
	c0,1.5,0.5,2.7,1.6,3.6c1,1,2.2,1.5,3.6,1.5h47.5c1.5,0,2.7-0.5,3.6-1.6c1-1,1.6-2.2,1.6-3.6V16C60,17.1,58.9,17.9,57.6,18.8z
	 M59.3,2.9c-1-1-2.3-1.6-3.6-1.6H8.2c-1.7,0-2.9,0.6-3.9,1.6C3.5,4,3,5.4,3,7.1c0,1.3,0.6,2.8,1.8,4.5c1.2,1.6,2.3,2.8,3.8,3.8
	l6.7,4.6l8.4,5.9c0.1,0.1,0.7,0.5,1.5,1c0.5,0.5,1.2,0.8,1.7,1.2l1.6,1c0.6,0.4,1.2,0.7,1.9,0.8c0.6,0.1,1.2,0.4,1.6,0.4l0,0
	c0.5,0,1.1-0.1,1.6-0.4c0.6-0.2,1.2-0.5,1.9-0.8c0.7-0.4,1.2-0.7,1.7-1l1.7-1.2l1.3-1l15.2-10.5c1.6-1.1,2.9-2.4,3.9-4
	c1.1-1.6,1.6-3.2,1.6-4.9C60.9,5.1,60.4,3.9,59.3,2.9z"/>
</svg>
