<svg xmlns="http://www.w3.org/2000/svg" viewBox="0 0 64 48">
<path d="M55.3,46.4c0,0.4-0.2,0.8-0.5,1.1c-0.3,0.3-0.7,0.5-1.1,0.5H12.2c-0.4,0-0.8-0.2-1.1-0.5c-0.3-0.3-0.5-0.7-0.5-1.1
	s0.1-0.8,0.4-1.1c0.3-0.3,0.7-0.5,1.2-0.5h41.5c0.4,0,0.8,0.2,1.1,0.5C55.1,45.6,55.3,45.9,55.3,46.4z M53.7,16.4
	c0,0.9-0.3,1.7-1,2.3L32.8,38.9c-0.6,0.7-1.5,1.3-2.6,1.9c-1.1,0.6-2,0.8-2.9,0.8h-4.9c-0.9,0-1.8-0.3-2.9-0.8
	c-1.1-0.6-1.9-1.2-2.6-1.9L9.7,31c-0.6-0.6-1-1.3-1-2.2s0.3-1.6,1-2.2L35.3,0.9C35.9,0.3,36.6,0,37.5,0c0.9,0,1.6,0.3,2.3,1l13,13.1
	C53.4,14.7,53.7,15.5,53.7,16.4z M36.4,30.2L23.6,17.3L11.9,29l7.4,7.6c0.3,0.3,0.9,0.7,1.5,1.1c0.7,0.4,1.2,0.6,1.6,0.6h4.9
	c0.7,0,1.7-0.6,2.9-1.7L36.4,30.2z"/>
</svg>
