<svg xmlns="http://www.w3.org/2000/svg" viewBox="0 0 64 48">
<path d="M8,14v19.9L22,48h19.9L56,33.9V14L41.9,0H22L8,14z M19.8,15.2l3.5-3.5c0.2-0.2,0.4-0.3,0.7-0.3c0.3,0,0.5,0.1,0.7,0.3
	l7.3,7.3l6.6-6.7c0.2-0.2,0.4-0.3,0.7-0.3c0.3,0,0.5,0.1,0.7,0.3l3.4,3.4c0.5,0.5,0.5,0.9,0,1.4l-6.7,6.6l7.4,7.4
	c0.5,0.5,0.5,0.9,0,1.4l-3.5,3.5c-0.5,0.5-0.9,0.5-1.4,0l-7.3-7.4l-6.7,6.7c-0.5,0.5-0.9,0.5-1.4,0L20.5,32
	c-0.2-0.2-0.3-0.4-0.3-0.7s0.1-0.5,0.3-0.7l6.6-6.6l-7.3-7.4C19.4,16.2,19.4,15.8,19.8,15.2L19.8,15.2z"/>
</svg>
