<svg xmlns="http://www.w3.org/2000/svg" viewBox="0 0 64 48">
<path d="M60.3,30.5c-0.1-0.1-0.5-0.2-0.7-0.2h-44V24c0-0.2-0.1-0.5-0.2-0.7C15.2,23,14.8,23,14.6,23s-0.5,0.1-0.7,0.2L3.6,33.5
	c-0.1,0.1-0.2,0.5-0.2,0.7s0.1,0.5,0.2,0.7l10.2,10.2c0.2,0.1,0.5,0.4,0.8,0.4c0.2,0,0.5-0.1,0.7-0.2c0.2-0.1,0.2-0.5,0.2-0.7v-6.2
	h44c0.2,0,0.5-0.1,0.7-0.4c0.2-0.1,0.2-0.5,0.2-0.8v-6C60.5,30.8,60.4,30.6,60.3,30.5z M60.3,13L50,2.9c-0.2-0.1-0.5-0.4-0.7-0.4
	c-0.2,0-0.5,0.1-0.7,0.2c-0.1,0.1-0.2,0.5-0.2,0.7v6.2h-44c-0.2,0-0.5,0.1-0.7,0.4c-0.1,0.2-0.2,0.5-0.2,0.7v6
	c0,0.2,0.1,0.5,0.4,0.7c0.1,0.1,0.5,0.2,0.7,0.2h44V24c0,0.2,0.1,0.5,0.4,0.7c0.2,0.1,0.5,0.2,0.7,0.2c0.2,0,0.5-0.1,0.8-0.2
	l10.2-10.3c0.1-0.1,0.2-0.4,0.2-0.7C60.5,13.6,60.4,13.2,60.3,13z"/>
</svg>
