<svg xmlns="http://www.w3.org/2000/svg" viewBox="0 0 64 48">
<path d="M10,33.3c1.3,2.9,3,5.4,5.2,7.6c2.2,2.2,4.7,3.9,7.6,5.2c2.9,1.3,6,1.9,9.3,1.9c3.3,0,6.5-0.6,9.3-1.9
	c2.9-1.3,5.4-3,7.6-5.2s3.9-4.7,5.2-7.6c1.3-2.9,1.9-6,1.9-9.3c0-3.3-0.6-6.5-1.9-9.3c-1.3-2.9-3-5.4-5.2-7.6
	C46.8,5,44.2,3.2,41.3,2c-2.9-1.4-6-2-9.3-2c-3.3,0-6.5,0.6-9.3,1.9c-2.9,1.3-5.4,3-7.6,5.2c-2.2,2.2-3.9,4.7-5.2,7.6
	c-1.3,2.9-2,6-2,9.4C8,27.3,8.7,30.4,10,33.3z M34.9,7.9c0.3,0,0.5,0.1,0.7,0.3s0.2,0.4,0.2,0.6L35.3,31c0,0.6-0.3,0.9-0.9,0.9h-4.9
	c-0.5,0-0.9-0.3-1-0.9L28.3,8.8c0-0.6,0.3-0.9,0.9-0.9H34.9z M28.4,34.8c0-0.6,0.3-0.9,0.9-0.9h5.4c0.2,0,0.5,0.1,0.6,0.2
	c0.2,0.1,0.3,0.4,0.3,0.7V40c0,0.2-0.1,0.5-0.3,0.7c-0.2,0.2-0.4,0.2-0.6,0.2h-5.4c-0.6,0-0.9-0.3-0.9-0.9V34.8z"/>
</svg>
