<svg xmlns="http://www.w3.org/2000/svg" viewBox="0 0 64 48">
<path d="M50,38.5c0,1-0.4,1.8-1.1,2.5c-0.7,0.7-1.6,1.1-2.5,1.1H12.8c-1,0-1.8-0.4-2.5-1.1c-0.7-0.7-1.1-1.6-1.1-2.5V9.6
	c0-1,0.4-1.8,1.1-2.5S11.8,6,12.8,6H31c-0.1-0.5-0.2-1-0.2-1.5V1.8c0-0.3,0.1-0.9,0.2-1.8H12.8c-2.7,0-4.9,0.9-6.8,2.8
	C4.1,4.7,3.1,7,3.1,9.6v28.9c0,2.6,0.9,4.8,2.8,6.8c1.8,1.9,4.1,2.8,6.8,2.8h33.7c2.6,0,4.9-1,6.8-2.9c1.9-1.9,2.9-4.2,2.9-6.8V30
	c-2.2-0.1-4.2-0.8-6-2.2V38.5z M24.8,31.8c0,0.5,0.2,0.9,0.5,1.3l2.5,2.5c0.3,0.3,0.8,0.5,1.3,0.5c0.5,0,0.9-0.2,1.3-0.5l24.2-24.1
	v8.4c0,0.5,0.2,0.9,0.5,1.3c0.3,0.3,0.8,0.5,1.3,0.5h2.7c0.5,0,0.9-0.1,1.3-0.5c0.4-0.4,0.5-0.8,0.5-1.3v-18c0-0.5-0.2-0.9-0.5-1.3
	C60,0.2,59.5,0,59.1,0H41c-0.5,0-1,0.2-1.3,0.5s-0.5,0.8-0.5,1.3v2.7c0,0.5,0.2,0.9,0.5,1.3c0.3,0.3,0.8,0.5,1.3,0.5h8.4L25.3,30.5
	C25,30.8,24.8,31.2,24.8,31.8L24.8,31.8z"/>
</svg>
