<svg xmlns="http://www.w3.org/2000/svg" viewBox="0 0 64 48">
<path d="M47.7,4.1c0.3-0.5,0.2-0.9-0.3-1.1l-5.1-2.8C42-0.1,41.6,0,41.3,0.5l-3.5,6.3c-2-0.6-4.1-0.8-6.1-0.8c-2,0-4.2,0.3-6.4,1
	c-2.2,0.7-4.2,1.5-6,2.5c-1.8,1-3.5,2.1-5.3,3.5c-1.8,1.4-3.3,2.6-4.4,3.7c-1.2,1.1-2.4,2.4-3.8,4c-1.3,1.5-2.2,2.6-2.5,3.1
	c1.4,1.9,3.3,4.1,5.6,6.4c3.7,3.6,7.4,6.4,11.1,8.3L17,44c-0.3,0.5-0.2,0.9,0.2,1.1l5.1,2.9c0.4,0.3,0.8,0.1,1.1-0.4L47.7,4.1z
	 M31.8,11.4c1.1,0,2.2,0.1,3.2,0.4l-3.8,6.8c-1.2,0.1-2.3,0.7-3.3,1.7c-1,1-1.4,2-1.4,3.2c0,1.1,0.1,2.1,0.4,2.7l-3.7,6.8
	c-2.6-2.6-3.9-5.6-3.9-9.1s1.2-6.4,3.7-8.8S28.4,11.4,31.8,11.4L31.8,11.4z M54.9,30.1c-2,2-4.1,3.8-6.2,5.4c-2.1,1.6-4.6,3-7.5,4.2
	c-2.9,1.2-5.7,1.9-8.3,2l3.4-6.2c1.6-0.6,3.1-1.5,4.4-2.9c2.4-2.5,3.6-5.4,3.6-8.8c0-0.8-0.1-1.6-0.2-2.3l5-9
	c4.5,3.7,7.8,6.9,9.9,9.5l1.3,1.8C59.4,25.4,57.6,27.5,54.9,30.1z"/>
</svg>
