<svg xmlns="http://www.w3.org/2000/svg" viewBox="0 0 64 48">
<path d="M4.3,24c0.3,0.6,1.2,1.6,2.5,3.1c1.3,1.5,2.6,2.9,3.8,4c1.2,1.1,2.7,2.4,4.5,3.8c1.8,1.4,3.6,2.6,5.3,3.5
	c1.8,1,3.8,1.8,6,2.5c2.3,0.7,4.7,1.1,7.2,1.1c2.6,0,5.4-0.6,8.4-1.9c3.1-1.2,5.7-2.7,8-4.5c4.6-3.7,8.1-7,10.3-9.8l1.3-1.9
	c-1-1.5-2.7-3.5-5.1-5.8c-2.4-2.3-4.6-4.3-6.7-5.9c-2.1-1.6-4.7-3-7.8-4.3C39,6.7,36,6,33,6C25.4,6,17.7,9.9,9.9,17.5
	C7.5,19.9,5.7,22,4.3,24L4.3,24z M24.1,32.9c-2.4-2.4-3.7-5.4-3.7-8.9c0-3.5,1.2-6.4,3.7-8.9c2.4-2.4,5.4-3.7,8.9-3.7
	c3.5,0,6.5,1.2,8.9,3.7c2.4,2.4,3.7,5.4,3.7,8.9c0,3.5-1.2,6.4-3.7,8.9c-2.4,2.4-5.4,3.7-8.9,3.7C29.5,36.5,26.5,35.3,24.1,32.9z
	 M29.2,20.2c-1,1.1-1.6,2.3-1.6,3.8s0.5,2.7,1.6,3.8c1,1.1,2.3,1.6,3.8,1.6c1.5,0,2.8-0.5,3.8-1.6c1.1-1.1,1.6-2.3,1.6-3.8
	s-0.5-2.7-1.6-3.8c-1.1-1.1-2.3-1.6-3.8-1.6C31.5,18.6,30.2,19.1,29.2,20.2L29.2,20.2z"/>
</svg>
