<svg xmlns="http://www.w3.org/2000/svg" viewBox="0 0 64 48">
<path d="M34.7,2.6c2-1.8,4.1-2.6,6.1-2.6H41c1.1,0,2,0.2,2.9,0.6c1.3,1,2.2,2.1,2.7,3.4s0.7,2.4,0.7,3.4c0,1.9-0.6,3.6-1.7,5.3
	c-0.9,1.2-2,2.1-3.4,2.6c-1.4,0.6-2.8,1.6-4.3,3.1l4.4,2.6c0.9,0.6,1.3,1.4,1.3,2.6c0,0.4-0.2,0.9-0.5,1.5c-0.4,0.6-0.9,1-1.6,1.1
	h-0.9c-0.3,0-0.6-0.1-1-0.4l-1.7-0.9L26.4,44.7h-0.8c-1.8,0-3.5,0.9-5.2,2.7L19.7,48l-4.8-2.8l0.2-0.8c0.3-1.1,0.4-2.2,0.4-3.2
	c0-1-0.2-2-0.7-2.8l-0.3-0.6l11.5-20l-1.7-1c-0.6-0.3-0.9-0.7-1.2-1.3c-0.2-0.4-0.3-0.8-0.3-1.2c0-0.4,0.2-0.8,0.4-1.2
	c0.5-0.9,1.4-1.4,2.6-1.4c0.3,0,0.7,0.1,1.2,0.4l4.4,2.5c0.5-1.4,0.7-2.7,0.7-3.9l-0.2-2.2C31.9,6.2,32.8,4.2,34.7,2.6z M19.7,44.6
	c0.5-0.5,0.9-0.8,1.2-1.1c0.1-0.1,0.3-0.2,0.5-0.5c0.3-0.2,0.6-0.5,1.1-0.7l0.6-0.3l0.6-0.2c0.2,0,0.5-0.1,0.8-0.1L35,23.7l-6.7-3.8
	L17.9,37.9c0.3,0.6,0.4,1.2,0.4,1.7c0,0.3,0,0.6,0,1c0,0.4-0.1,0.9-0.3,1.6s-0.2,1.1-0.2,1.3L19.7,44.6z"/>
</svg>
