<svg xmlns="http://www.w3.org/2000/svg" viewBox="0 0 64 48">
<path d="M8,41.9c0,0.9,0.2,1.6,0.5,2.4c0.3,0.7,0.7,1.4,1.3,1.9c0.5,0.5,1.2,1,1.9,1.3c0.7,0.3,1.5,0.5,2.3,0.5h12.3V27.9H23
	c-0.3,0-0.5-0.1-0.7-0.3c-0.2-0.2-0.3-0.4-0.3-0.7v-5.2c0-0.7,0.3-1,1-1h3.2V18c0-6.1,3.1-9.1,9.4-9.1c2,0,4,0.2,5.9,0.7
	c0.6,0.1,0.9,0.5,0.8,1.1l-0.7,5.1c-0.1,0.3-0.2,0.6-0.4,0.7c-0.1,0.1-0.2,0.1-0.4,0.2c-0.2,0-0.3,0-0.4,0c-0.6-0.1-1.2-0.3-1.8-0.3
	c-0.6-0.1-1.2-0.1-1.7-0.1c-0.9,0-1.5,0.1-1.7,0.4s-0.3,0.8-0.3,1.7v2.3h5.7c0.3,0,0.5,0.1,0.7,0.3c0.2,0.2,0.3,0.5,0.3,0.7
	l-0.4,5.2c0,0.3-0.1,0.5-0.3,0.7c-0.2,0.2-0.4,0.2-0.7,0.2h-5.4v20.1H50c0.8,0,1.6-0.2,2.3-0.5c0.7-0.3,1.4-0.7,1.9-1.3
	c0.5-0.5,1-1.2,1.3-1.9c0.3-0.7,0.5-1.5,0.5-2.4V6c0-1.7-0.6-3.1-1.7-4.3C53,0.6,51.6,0,50,0H14c-0.8,0-1.6,0.2-2.3,0.5
	C11,0.8,10.3,1.2,9.8,1.8c-0.5,0.5-1,1.2-1.3,1.9C8.2,4.4,8,5.2,8,6V41.9L8,41.9z"/>
</svg>
