<svg xmlns="http://www.w3.org/2000/svg" viewBox="0 0 64 48">
<path d="M56,18c0-0.6-0.2-1-0.6-1.4C55,16.2,54.5,16,54,16c-0.5,0-1,0.2-1.4,0.6L44,24v-6c0-0.6-0.2-1-0.6-1.4
	C43,16.2,42.5,16,42,16s-1,0.2-1.4,0.6L32,24v-6c0-0.6-0.2-1-0.6-1.4C31,16.2,30.6,16,30,16c-0.6,0-1,0.2-1.4,0.6L19.9,24L18,2.2
	c0-0.6-0.2-1.1-0.6-1.6C16.9,0.2,16.4,0,15.8,0h-3.6c-0.6,0-1.1,0.2-1.6,0.7c-0.4,0.4-0.7,1-0.7,1.6L8,44c0,1.1,0.4,2,1.2,2.8
	S10.9,48,12,48H52c1.1,0,2.1-0.4,2.8-1.2C55.6,46,56,45.1,56,44V18z M26.5,29.5c0.4,0.4,0.5,0.8,0.5,1.4v2.2c0,0.5-0.2,0.9-0.5,1.3
	c-0.4,0.4-0.8,0.5-1.3,0.5h-2.3c-0.5,0-0.9-0.2-1.3-0.5c-0.4-0.4-0.5-0.8-0.5-1.3v-2.2c0-0.6,0.2-1,0.5-1.4c0.4-0.4,0.8-0.5,1.3-0.5
	h2.3C25.7,29,26.1,29.1,26.5,29.5z M38.4,29.5c0.4,0.4,0.5,0.8,0.5,1.4v2.2c0,0.5-0.2,0.9-0.5,1.3c-0.4,0.4-0.8,0.5-1.3,0.5h-2.2
	c-0.5,0-0.9-0.2-1.3-0.5c-0.4-0.4-0.5-0.8-0.5-1.3v-2.2c0-0.6,0.2-1,0.5-1.4c0.4-0.4,0.8-0.5,1.3-0.5h2.2
	C37.6,29,38.1,29.1,38.4,29.5z M50.4,29.5c0.4,0.4,0.5,0.8,0.5,1.4v2.2c0,0.5-0.2,0.9-0.5,1.3c-0.4,0.4-0.8,0.5-1.4,0.5h-2.2
	c-0.5,0-0.9-0.2-1.3-0.5c-0.4-0.4-0.5-0.8-0.5-1.3v-2.2c0-0.6,0.2-1,0.5-1.4c0.4-0.4,0.8-0.5,1.3-0.5h2.2
	C49.6,29,50.1,29.1,50.4,29.5z"/>
</svg>
