<svg xmlns="http://www.w3.org/2000/svg" viewBox="0 0 64 48">
<path d="M8,40.8c0,1,0.2,2,0.6,2.8c0.4,0.9,0.9,1.6,1.5,2.3c0.6,0.6,1.4,1.2,2.3,1.5c0.9,0.4,1.8,0.6,2.8,0.6c1,0,1.9-0.2,2.8-0.6
	c0.9-0.4,1.6-0.9,2.3-1.5c0.6-0.6,1.2-1.4,1.5-2.3c0.4-0.9,0.6-1.8,0.6-2.8s-0.2-1.9-0.6-2.8c-0.4-0.9-0.9-1.6-1.6-2.3
	c-0.7-0.7-1.4-1.2-2.3-1.6c-0.9-0.4-1.8-0.6-2.8-0.6c-1,0-2,0.2-2.8,0.6c-0.9,0.4-1.7,0.9-2.3,1.6c-0.6,0.6-1.1,1.4-1.5,2.2
	C8.2,38.8,8,39.8,8,40.8L8,40.8z M8,22.9c0,0.6,0.2,1.1,0.6,1.5c0.4,0.5,1,0.7,1.6,0.8c2.7,0.3,5.2,1,7.6,2.1
	c2.4,1.2,4.5,2.6,6.3,4.5c1.8,1.8,3.3,3.9,4.4,6.3c1.2,2.4,1.9,4.9,2.1,7.7c0.1,0.6,0.4,1.2,0.8,1.6s1,0.6,1.6,0.6h4.8
	c0.7,0,1.3-0.3,1.8-0.8c0.5-0.5,0.7-1.1,0.6-1.8c-0.3-3.9-1.3-7.6-2.9-11.1c-1.6-3.5-3.8-6.6-6.5-9.2c-2.7-2.7-5.8-4.9-9.3-6.5
	c-3.4-1.7-7.1-2.6-11.1-2.9c0,0-0.1,0-0.1,0c0,0-0.1,0-0.1,0c-0.6,0-1.1,0.2-1.6,0.7C8.2,16.7,8,17.3,8,18V22.9L8,22.9z M8,7.2
	c0,0.6,0.2,1.2,0.6,1.7c0.4,0.5,1,0.7,1.6,0.8c4.9,0.3,9.4,1.4,13.7,3.4c4.3,2,8,4.6,11.3,7.8c3.2,3.2,5.8,7,7.8,11.3
	c2,4.2,3.1,8.8,3.4,13.7c0,0.6,0.3,1.1,0.7,1.6c0.4,0.4,1,0.7,1.6,0.7h4.9c0.6,0,1.2-0.3,1.7-0.8c0.6-0.5,0.8-1.1,0.7-1.7
	c-0.3-6.2-1.7-12-4.2-17.3C49.3,22.8,46,18,42,13.9c-4.1-4.1-8.8-7.3-14.2-9.8C22.4,1.7,16.6,0.3,10.5,0h-0.1C9.8,0,9.2,0.2,8.8,0.6
	C8.2,1.1,8,1.7,8,2.4V7.2L8,7.2z"/>
</svg>
