<svg xmlns="http://www.w3.org/2000/svg" viewBox="0 0 64 48">
<path d="M51.2,44.4V20.8H34c-1,0-1.8-0.4-2.5-1.1c-0.7-0.7-1.1-1.5-1.1-2.5V0h-14c-1,0-1.8,0.4-2.5,1.1s-1.1,1.5-1.1,2.5v40.8
	c0,1,0.4,1.8,1.1,2.5c0.7,0.7,1.5,1.1,2.5,1.1h31.2c1,0,1.8-0.4,2.5-1.1C50.8,46.2,51.2,45.4,51.2,44.4z M44,30.6
	c0,0.3-0.1,0.5-0.3,0.7c-0.2,0.2-0.4,0.3-0.7,0.3H21c-0.3,0-0.5-0.1-0.7-0.3c-0.2-0.2-0.3-0.4-0.3-0.7v-2c0-0.3,0.1-0.5,0.3-0.7
	c0.2-0.2,0.4-0.3,0.7-0.3h22c0.3,0,0.5,0.1,0.7,0.3c0.2,0.2,0.3,0.4,0.3,0.7V30.6z M44,38.6c0,0.3-0.1,0.5-0.3,0.7
	c-0.2,0.2-0.4,0.3-0.7,0.3H21c-0.3,0-0.5-0.1-0.7-0.3c-0.2-0.2-0.3-0.4-0.3-0.7v-2c0-0.3,0.1-0.5,0.3-0.7c0.2-0.2,0.4-0.3,0.7-0.3
	h22c0.3,0,0.5,0.1,0.7,0.3c0.2,0.2,0.3,0.4,0.3,0.7V38.6z M34,0.2h0.2L51,17v0.2H34V0.2z"/>
</svg>
