<svg xmlns="http://www.w3.org/2000/svg" viewBox="0 0 64 48">
<path d="M43.8,32.3c-0.2-0.2-0.4-0.3-0.7-0.3H21c-0.3,0-0.5,0.1-0.7,0.3c-0.2,0.2-0.3,0.4-0.3,0.7v2c0,0.3,0.1,0.5,0.3,0.7
	c0.2,0.2,0.4,0.3,0.7,0.3h22.1c0.3,0,0.5-0.1,0.7-0.3c0.2-0.2,0.3-0.4,0.3-0.7l0-2C44,32.7,43.9,32.5,43.8,32.3z M44,25
	c0-0.3-0.1-0.5-0.3-0.7c-0.2-0.2-0.4-0.3-0.7-0.3H21c-0.3,0-0.5,0.1-0.7,0.3c-0.2,0.2-0.3,0.4-0.3,0.7v2c0,0.3,0.1,0.5,0.3,0.7
	c0.2,0.2,0.4,0.3,0.7,0.3h22.1c0.3,0,0.5-0.1,0.7-0.3c0.2-0.2,0.3-0.4,0.3-0.7V25L44,25z M16,44V4h16v13c0,0.9,0.3,1.6,0.9,2.1
	c0.6,0.6,1.3,0.9,2.1,0.9h13v24H16L16,44z M36,16V6.7l9.4,9.3H36L36,16z M52,20c0-0.9-0.2-1.8-0.6-2.8c-0.4-1-0.9-1.8-1.5-2.3
	L37.2,2.1c-0.6-0.6-1.4-1.1-2.4-1.5C33.8,0.2,32.9,0,32,0h-17c-0.9,0-1.6,0.3-2.1,0.9C12.3,1.4,12,2.1,12,3v42
	c0,0.9,0.3,1.6,0.9,2.1c0.6,0.6,1.3,0.9,2.1,0.9h34c0.9,0,1.6-0.3,2.1-0.9c0.6-0.6,0.9-1.3,0.9-2.1V20L52,20z"/>
</svg>
