<svg xmlns="http://www.w3.org/2000/svg" viewBox="0 0 64 48">
<path d="M3.2,3.5v40.8c0,1,0.4,1.8,1.1,2.5S5.8,48,6.8,48h50.4c1,0,1.8-0.4,2.5-1.1s1.1-1.5,1.1-2.5V3.5c0-1-0.4-1.8-1.1-2.5
	c-0.7-0.7-1.5-1.1-2.5-1.1H6.8C5.8-0.1,5,0.3,4.3,1C3.6,1.7,3.2,2.5,3.2,3.5z M6.8,4.8c0-0.4,0.1-0.6,0.4-0.9
	c0.3-0.3,0.5-0.4,0.9-0.4h4.8c0.4,0,0.6,0.1,0.9,0.4c0.3,0.3,0.4,0.5,0.4,0.9v4.8c0,0.4-0.1,0.6-0.4,0.9c-0.3,0.3-0.5,0.4-0.9,0.4H8
	c-0.4,0-0.6-0.1-0.9-0.4c-0.2-0.3-0.3-0.5-0.3-0.9V4.8z M6.8,15.9c0-0.4,0.1-0.6,0.4-0.9c0.3-0.3,0.5-0.4,0.9-0.4h4.8
	c0.4,0,0.6,0.1,0.9,0.4c0.3,0.3,0.4,0.5,0.4,0.9v4.8c0,0.4-0.1,0.6-0.4,0.9c-0.3,0.3-0.5,0.4-0.9,0.4H8c-0.4,0-0.6-0.1-0.9-0.4
	c-0.3-0.3-0.4-0.5-0.4-0.9L6.8,15.9L6.8,15.9z M6.8,27.2c0-0.4,0.1-0.6,0.4-0.9c0.3-0.3,0.5-0.4,0.9-0.4h4.8c0.4,0,0.6,0.1,0.9,0.4
	c0.3,0.3,0.4,0.5,0.4,0.9v4.8c0,0.4-0.1,0.6-0.4,0.9c-0.3,0.3-0.5,0.4-0.9,0.4H8c-0.4,0-0.6-0.1-0.9-0.4c-0.3-0.3-0.4-0.5-0.4-0.9
	L6.8,27.2L6.8,27.2z M6.8,38.3c0-0.4,0.1-0.6,0.4-0.9c0.3-0.3,0.5-0.4,0.9-0.4h4.8c0.4,0,0.6,0.1,0.9,0.4c0.3,0.3,0.4,0.5,0.4,0.9
	v4.8c0,0.4-0.1,0.6-0.4,0.9c-0.3,0.3-0.5,0.4-0.9,0.4H8c-0.4,0-0.6-0.1-0.9-0.4c-0.2-0.3-0.3-0.5-0.3-0.9V38.3z M17.6,4.8
	c0-0.4,0.1-0.6,0.4-0.9c0.3-0.3,0.5-0.4,0.9-0.4h26.4c0.4,0,0.6,0.1,0.9,0.4c0.3,0.3,0.4,0.5,0.4,0.9v16c0,0.4-0.1,0.6-0.4,0.9
	C45.9,22,45.6,22,45.2,22H18.9c-0.4,0-0.6-0.1-0.9-0.4c-0.3-0.3-0.4-0.5-0.4-0.9V4.8z M17.6,27.2c0-0.4,0.1-0.6,0.4-0.9
	c0.3-0.3,0.5-0.4,0.9-0.4h26.4c0.4,0,0.6,0.1,0.9,0.4c0.3,0.3,0.4,0.5,0.4,0.9v16c0,0.4-0.1,0.6-0.4,0.9c-0.3,0.3-0.5,0.4-0.9,0.4
	H18.9c-0.4,0-0.6-0.1-0.9-0.4c-0.3-0.3-0.4-0.5-0.4-0.9V27.2z M50,4.8c0-0.4,0.1-0.6,0.4-0.9c0.3-0.3,0.5-0.4,0.9-0.4H56
	c0.4,0,0.6,0.1,0.9,0.4c0.3,0.3,0.4,0.5,0.4,0.9v4.8c0,0.4-0.1,0.6-0.4,0.9c-0.3,0.3-0.5,0.4-0.9,0.4h-4.8c-0.4,0-0.6-0.1-0.9-0.4
	C50.1,10.2,50,9.9,50,9.5V4.8z M50,15.9c0-0.4,0.1-0.6,0.4-0.9c0.3-0.3,0.5-0.4,0.9-0.4H56c0.4,0,0.6,0.1,0.9,0.4
	c0.3,0.3,0.4,0.5,0.4,0.9v4.8c0,0.4-0.1,0.6-0.4,0.9C56.6,21.9,56.4,22,56,22h-4.8c-0.4,0-0.6-0.1-0.9-0.4c-0.3-0.3-0.4-0.5-0.4-0.9
	V15.9z M50,27.2c0-0.4,0.1-0.6,0.4-0.9c0.3-0.3,0.5-0.4,0.9-0.4H56c0.4,0,0.6,0.1,0.9,0.4c0.3,0.3,0.4,0.5,0.4,0.9v4.8
	c0,0.4-0.1,0.6-0.4,0.9c-0.3,0.3-0.5,0.4-0.9,0.4h-4.8c-0.4,0-0.6-0.1-0.9-0.4S50,32.3,50,31.9V27.2z M50,38.3
	c0-0.4,0.1-0.6,0.4-0.9c0.3-0.3,0.5-0.4,0.9-0.4H56c0.4,0,0.6,0.1,0.9,0.4c0.3,0.3,0.4,0.5,0.4,0.9v4.8c0,0.4-0.1,0.6-0.4,0.9
	c-0.3,0.3-0.5,0.4-0.9,0.4h-4.8c-0.4,0-0.6-0.1-0.9-0.4c-0.3-0.3-0.4-0.5-0.4-0.9V38.3z"/>
</svg>
