<svg xmlns="http://www.w3.org/2000/svg" viewBox="0 0 64 48">
<path d="M12.1,40.3c1.1,1.7,2.7,3.1,4.6,4.3c2,1.1,4.3,2,6.9,2.6S29,48,32,48s5.8-0.3,8.4-0.9c2.6-0.6,4.9-1.4,6.8-2.6
	c2-1.1,3.5-2.5,4.6-4.3s1.7-3.8,1.7-6.1s-0.7-4.9-2-7.5c-1.3-2.6-3.1-5-5.3-7.1h0.1c0.6,3.6,0.4,6.8-0.5,9.5
	c-0.4,1.4-1.3,2.8-2.8,4.1c-1.4,1.2-3,1.8-4.9,2c-2.1,0-3.7-0.5-4.8-1.5c-0.5-0.5-0.8-1-1.1-1.6c-0.2-0.6-0.4-1.4-0.4-2.4
	s0.5-2,1.4-2.9c0.9-0.9,2-1.4,3.1-1.4c1.2,0,2.1,0.3,2.9,0.8c0.8,0.5,1.3,1.2,1.7,2c0-3.6-0.5-6.5-1.5-8.6c-0.4-1-0.9-1.9-1.5-2.8
	L36,14.1c-0.9-1-1.5-2.3-2-3.8C32.9,6.9,33.1,3.5,34.7,0c-6,3.8-9.9,9.1-11.6,16c-1.5,6-1.5,12.2-0.1,18.6c-1.3-0.6-2.5-1.5-3.4-2.8
	c-2.1-2.9-2.8-7-2-12.3c-2.2,2.1-4,4.5-5.3,7.1c-1.3,2.6-2,5.1-2,7.5S11,38.6,12.1,40.3L12.1,40.3z"/>
</svg>
