<svg xmlns="http://www.w3.org/2000/svg" viewBox="0 0 64 48">
<path d="M5.7,8.9v37.8c0,0.4,0.1,0.6,0.4,0.9C6.3,47.9,6.5,48,6.9,48h2.4c0.4,0,0.6-0.1,0.9-0.4c0.3-0.3,0.4-0.5,0.4-0.9V8.9
	c1.5-1,2.3-2.3,2.3-3.8c0-1.5-0.5-2.8-1.4-3.7C10.5,0.6,9.4,0,8.1,0C6.7,0,5.6,0.6,4.7,1.5c-1,0.9-1.4,2.2-1.4,3.6
	C3.3,6.6,4.1,7.9,5.7,8.9L5.7,8.9z M12.8,35c0,0.7,0.2,1.2,0.6,1.4c0.4,0.3,0.9,0.2,1.5-0.1c3.6-2,7.1-3.3,10.5-4.1
	c1.4-0.4,2.9-0.5,4.7-0.5c1.8,0,3.9,0.4,6.2,1.3c1.1,0.4,2.1,0.8,3.1,1.4l3.3,1.6c1.2,0.6,2.6,0.9,4.3,1c3.8,0.2,7.7-0.8,11.5-3.2
	c0.6-0.4,1.1-0.9,1.4-1.5c0.4-0.7,0.5-1.4,0.5-2V6.7c0-0.7-0.2-1.2-0.5-1.4c-0.4-0.2-0.9-0.2-1.4,0.2C54.8,7.9,50.9,8.9,47,8.7
	c-1.5-0.1-3-0.5-4.1-1l-3.2-1.6c-3.4-1.7-6.9-2.6-10.4-2.6C25.4,3.5,20.6,5.2,15,8.1c-0.6,0.4-1.1,0.8-1.5,1.5
	c-0.4,0.7-0.6,1.4-0.6,2.1V35L12.8,35z"/>
</svg>
