<svg xmlns="http://www.w3.org/2000/svg" viewBox="0 0 64 48">
<path d="M46.6,2.2h2.2L55,8.3v37.2c0,0.7-0.2,1.3-0.7,1.8c-0.5,0.5-1.1,0.8-1.8,0.8H11.6c-0.7,0-1.3-0.3-1.8-0.8
	C9.3,46.7,9,46.1,9,45.5V4.7c0-0.7,0.2-1.3,0.7-1.8c0.5-0.5,1.1-0.8,1.8-0.8h5.6V1c0-0.3,0.1-0.5,0.3-0.7C17.6,0.1,17.9,0,18.1,0
	h27.6c0.6,0,1,0.3,1,1V2.2z M15.1,44.5c0.4,0.4,0.8,0.5,1.3,0.5h31.2c0.5,0,1-0.2,1.3-0.5c0.4-0.4,0.6-0.8,0.6-1.4V26.8
	c0-0.5-0.2-1-0.6-1.3c-0.4-0.4-0.8-0.6-1.3-0.6H16.5c-0.5,0-1,0.2-1.3,0.6c-0.4,0.4-0.6,0.8-0.6,1.3v16.3
	C14.5,43.7,14.7,44.2,15.1,44.5z M19.6,18.4c0.2,0.2,0.4,0.3,0.7,0.3h23.1c0.3,0,0.5-0.1,0.7-0.3c0.2-0.2,0.3-0.4,0.3-0.7V3.1
	c0-0.3-0.1-0.5-0.3-0.7c-0.2-0.2-0.4-0.3-0.7-0.3H20.3c-0.3,0-0.5,0.1-0.7,0.3c-0.2,0.2-0.3,0.4-0.3,0.7v14.6
	C19.3,18,19.4,18.2,19.6,18.4z M34.7,15.6V5.1c0-0.3,0.1-0.5,0.3-0.7c0.2-0.2,0.4-0.3,0.7-0.3h4.2c0.3,0,0.5,0.1,0.7,0.3
	c0.2,0.2,0.3,0.4,0.3,0.7v10.5c0,0.3-0.1,0.5-0.3,0.7c-0.2,0.2-0.4,0.3-0.7,0.3h-4.2c-0.3,0-0.5-0.1-0.7-0.3
	C34.8,16.1,34.7,15.9,34.7,15.6z"/>
</svg>
