<svg xmlns="http://www.w3.org/2000/svg" viewBox="0 0 64 48">
<path d="M55,42.6c-0.6,0.6-1.4,0.9-2.3,0.9H11.3c-0.9,0-1.7-0.3-2.3-0.9C8.3,42,8,41.2,8,40.3V7.6C8,6.7,8.3,5.9,9,5.3
	c0.6-0.7,1.4-1,2.3-1h10.9c0.9,0,1.7,0.3,2.3,1c0.6,0.7,0.9,1.4,0.9,2.3v2.2c0,0.9,0.3,1.7,0.9,2.3c0.6,0.6,1.4,0.9,2.3,0.9h24
	c0.9,0,1.7,0.3,2.3,0.9c0.6,0.6,0.9,1.4,0.9,2.3v24C56,41.2,55.7,42,55,42.6z M58.1,10.9c-1.5-1.5-3.3-2.3-5.4-2.3H29.8V7.6
	c0-2.1-0.7-3.9-2.2-5.4C26.1,0.7,24.3,0,22.2,0H11.3C9.2,0,7.4,0.7,5.9,2.2S3.7,5.5,3.7,7.6v32.7c0,2.1,0.8,3.9,2.3,5.4
	c1.5,1.5,3.3,2.3,5.4,2.3h41.4c2.1,0,3.9-0.8,5.4-2.3c1.5-1.5,2.3-3.3,2.3-5.4v-24C60.3,14.2,59.6,12.4,58.1,10.9z"/>
</svg>
