<svg xmlns="http://www.w3.org/2000/svg" viewBox="0 0 64 48">
<path d="M60.1,25.6c-0.5-0.3-1.2-0.4-1.8-0.4H24.9c-1.4,0-2.9,0.4-4.4,1.1c-1.6,0.7-2.8,1.6-3.7,2.7L6.4,41.1
	c-0.6,0.7-0.9,1.4-0.9,2c0,0.6,0.2,1,0.8,1.3c0.6,0.3,1.2,0.4,1.9,0.4h33.4c1.3,0,2.8-0.4,4.4-1.1c1.6-0.7,2.8-1.6,3.7-2.7L60,28.9
	c0.6-0.7,0.9-1.4,0.9-2C60.9,26.3,60.7,25.9,60.1,25.6z M50.4,16.4c0-1.9-0.7-3.5-2-4.9c-1.4-1.3-3-2-4.9-2H26.8v-1
	c0-1.9-0.7-3.5-2-4.8c-1.4-1.4-3-2-4.8-2h-9.9c-1.9,0-3.5,0.7-4.8,2c-1.4,1.4-2,3-2,4.8v29.5v0.4v0.4l0.2-0.2l10.4-12.1
	c1.2-1.5,2.9-2.7,5-3.7c2.1-1,4.1-1.5,6.1-1.5h25.5V16.4L50.4,16.4z"/>
</svg>
