<svg xmlns="http://www.w3.org/2000/svg" viewBox="0 0 64 48">
<path d="M56.3,28.1l-8.9,11c-0.5,0.6-1.2,1.1-2.1,1.6c-0.9,0.4-1.8,0.6-2.6,0.6H10c-1.1,0-1.6-0.3-1.6-1c0-0.3,0.2-0.7,0.5-1.2
	l8.9-11c0.5-0.6,1.2-1.1,2.2-1.6c0.9-0.4,1.7-0.6,2.5-0.6h32.8c1.1,0,1.6,0.4,1.6,1.1C56.9,27.3,56.7,27.7,56.3,28.1z M22.5,22.1
	c-1.4,0-2.8,0.3-4.2,1c-1.4,0.7-2.5,1.6-3.4,2.6l-7.7,9.5V9.5c0-0.8,0.3-1.4,0.8-2C8.5,7,9.2,6.7,10,6.7h9.6c0.8,0,1.5,0.3,2,0.9
	s0.8,1.2,0.8,2v2c0,0.8,0.3,1.5,0.9,2c0.6,0.6,1.3,0.8,2.1,0.8h17.3c0.8,0,1.5,0.3,2,0.8c0.6,0.6,0.8,1.2,0.8,2v4.8H22.5L22.5,22.1z
	 M60.7,27c0-0.7-0.1-1.4-0.4-2c-0.4-0.9-1.1-1.7-2-2.2c-0.9-0.5-1.9-0.7-2.9-0.7h-5.8v-4.8c0-1.8-0.7-3.4-2-4.7
	c-1.3-1.3-2.9-2-4.8-2H26.4v-1c0-1.8-0.7-3.4-2-4.7c-1.3-1.3-2.9-2-4.8-2H10c-1.9,0-3.5,0.7-4.8,2c-1.3,1.3-2,2.9-2,4.7v28.9
	c0,1.8,0.7,3.4,2,4.7c1.3,1.3,2.9,2,4.8,2h32.8c1.4,0,2.8-0.4,4.2-1.1c1.5-0.7,2.6-1.6,3.5-2.6l8.9-11C60.3,29.4,60.7,28.2,60.7,27
	L60.7,27z"/>
</svg>
