<svg xmlns="http://www.w3.org/2000/svg" viewBox="0 0 64 48">
<path d="M3.2,1.9V46c0,0.8,0.4,1.4,1.1,1.8c0.8,0.3,1.5,0.1,2-0.4l20.4-22c0.3-0.4,0.5-0.9,0.5-1.4c0-0.6-0.2-1-0.5-1.4L6.3,0.6
	C6,0.2,5.6,0,5.3,0s-0.6,0-1,0.1C3.6,0.5,3.2,1.1,3.2,1.9L3.2,1.9z M27.2,1.9V46c0,0.8,0.4,1.4,1.1,1.8c0.8,0.3,1.5,0.1,2-0.4
	l20.4-22c0.3-0.4,0.5-0.9,0.5-1.4c0-0.6-0.2-1-0.5-1.4l-20.4-22c-0.3-0.4-0.7-0.6-1-0.6c-0.3,0-0.6,0-1,0.1
	C27.6,0.5,27.2,1.1,27.2,1.9L27.2,1.9z M51.2,2.4c0-0.6,0.2-1.2,0.7-1.7c0.5-0.5,1-0.7,1.7-0.7h4.8C59,0,59.6,0.3,60,0.7
	c0.5,0.5,0.7,1,0.7,1.7v43.1c0,0.7-0.2,1.3-0.7,1.7c-0.5,0.5-1,0.7-1.7,0.7h-4.8c-0.6,0-1.2-0.2-1.7-0.7c-0.5-0.5-0.7-1-0.7-1.7V2.4
	z"/>
</svg>
