<svg xmlns="http://www.w3.org/2000/svg" viewBox="0 0 64 48">
<path d="M8,2.5v14.9c0,1.1,0.3,1.7,0.8,1.9c0.5,0.2,1.1,0,1.9-0.7l5.1-5.1l10.6,10.5L15.7,34.7l-5.1-5.1c-0.7-0.7-1.3-1-1.9-0.8
	C8.2,28.9,8,29.5,8,30.6v15c0,0.6,0.2,1.2,0.7,1.7c0.6,0.5,1.2,0.7,1.8,0.7h14.9c1.1,0,1.7-0.2,1.9-0.7c0.2-0.5,0-1.1-0.8-1.8
	l-5-4.9l10.6-10.6l10.4,10.5l-5.1,5.1c-0.7,0.7-1,1.3-0.8,1.8c0.2,0.5,0.9,0.7,1.9,0.7h14.9c0.7,0,1.3-0.2,1.7-0.7
	c0.5-0.5,0.8-1.1,0.8-1.7v-15c0-1.1-0.2-1.7-0.7-1.9c-0.5-0.2-1.1,0-1.9,0.8l-5.1,5.1L37.9,24.1l10.5-10.5l4.9,5
	c0.7,0.7,1.3,0.9,1.9,0.7c0.5-0.2,0.8-0.9,0.8-1.9V2.5c0-0.7-0.3-1.3-0.8-1.7c-0.5-0.5-1-0.8-1.7-0.8H38.6c-1.1,0-1.7,0.3-1.9,0.8
	c-0.2,0.5,0,1.1,0.8,1.9l5.2,5.2L32.1,18.3L21.5,7.7l5.1-5.1c0.7-0.7,1-1.4,0.8-1.9C27.1,0.2,26.5,0,25.4,0H10.5
	C9.8,0,9.2,0.2,8.7,0.7C8.2,1.2,8,1.7,8,2.5L8,2.5z"/>
</svg>
