<svg xmlns="http://www.w3.org/2000/svg" viewBox="0 0 64 48">
<path d="M31.1,7.7c-0.6-0.1-1.3-0.3-2.1-0.6c-0.8-0.3-1.4-0.6-1.8-1c-1.2-1.2-2.7-2-4.6-2.6c-1.9-0.6-3.9-0.6-6-0.2
	c-2.1,0.4-3.9,1.4-5.3,2.9C9,8.6,7.1,12.3,5.5,17.4C4,22.5,3.2,27.7,3.2,33c0,2.5,0.4,4.6,1.2,6.4c0.8,1.8,1.8,3.1,3,4
	c1.3,0.8,2.6,1.3,4.1,1.5s3-0.1,4.5-0.7c1.5-0.6,2.7-1.4,3.6-2.3l1.9-2.1l1.5-1.7c0.6-0.6,1.6-1.9,2.9-3.8h12l2.1,2.8l0.9,1.1
	c0.4,0.5,0.8,1,1.3,1.5l2,2.2c0.9,1,2.2,1.8,3.7,2.4c1.5,0.6,3,0.9,4.5,0.7s2.8-0.7,4.1-1.5c1.3-0.8,2.3-2.2,3-4
	c0.8-1.8,1.2-4,1.2-6.4c0-5.3-0.8-10.5-2.3-15.6c-1.5-5.1-3.4-8.9-5.7-11.2c-1.4-1.5-3.2-2.5-5.3-2.9c-2.1-0.4-4.1-0.3-6,0.2
	C39.5,4,38.1,4.8,37,5.8s-2.7,1.7-5,2L31.1,7.7z M21.7,12.2c0.5,0.5,0.7,1.1,0.7,1.8v3.5h3.5c0.7,0,1.3,0.2,1.8,0.7
	c0.5,0.5,0.7,1,0.7,1.7c0,0.6-0.2,1.2-0.7,1.7c-0.5,0.5-1.1,0.7-1.8,0.7h-3.5v3.5c0,0.7-0.2,1.3-0.7,1.8c-0.5,0.5-1,0.7-1.7,0.7
	c-0.7,0-1.2-0.2-1.7-0.7c-0.5-0.5-0.7-1.1-0.7-1.8v-3.5h-3.5c-0.7,0-1.3-0.2-1.8-0.7c-0.5-0.5-0.7-1-0.7-1.7c0-0.6,0.2-1.2,0.7-1.7
	c0.5-0.5,1.1-0.7,1.8-0.7h3.5v-3.5c0-0.7,0.2-1.3,0.7-1.8c0.5-0.5,1-0.7,1.7-0.7C20.7,11.4,21.2,11.7,21.7,12.2z M47,18.6
	c-0.8,0-1.5-0.3-2.1-0.9c-0.6-0.6-0.9-1.3-0.9-2.1c0-0.8,0.3-1.5,0.9-2.1c0.6-0.6,1.3-0.9,2.1-0.9c0.8,0,1.5,0.3,2.1,0.9
	c0.6,0.6,0.9,1.3,0.9,2.1c0,0.8-0.3,1.5-0.9,2.1C48.5,18.3,47.8,18.6,47,18.6L47,18.6z M38.9,25c-0.6-0.6-0.9-1.3-0.9-2.1
	c0-0.8,0.3-1.5,0.9-2.1c0.6-0.6,1.3-0.9,2.1-0.9s1.5,0.3,2.1,0.9c0.6,0.6,0.9,1.3,0.9,2.1c0,0.8-0.3,1.5-0.9,2.1
	c-0.6,0.6-1.3,0.9-2.1,0.9S39.5,25.5,38.9,25z"/>
</svg>
