<svg xmlns="http://www.w3.org/2000/svg" viewBox="0 0 64 48">
<path d="M3.3,27.5c0,1.2,0.5,2.1,1.5,2.7l15.4,10.3c0.6,0.3,1.2,0.5,1.9,0.5c0.5,0,0.9-0.1,1.4-0.3c0.5-0.2,0.9-0.5,1.2-0.9
	c0.3-0.4,0.6-0.8,0.8-1.2c0.2-0.4,0.3-0.9,0.3-1.4c0-1.2-0.6-2.2-1.7-2.9c0.2,0.1,0.4,0.2,0.7,0.2c0.5,0,0.9-0.2,1.1-0.6l3.1-4.7
	l6.8,4.5c0.1,1.7,0.9,3,2.3,4L52.4,47c0.9,0.6,1.8,0.9,2.9,0.9c1.4,0,2.7-0.5,3.8-1.6c1.1-1,1.6-2.3,1.6-3.8c0-0.9-0.2-1.7-0.7-2.5
	c-0.4-0.8-1-1.4-1.8-2l-14.2-9.5c-0.8-0.6-1.7-0.8-2.8-0.8c-0.3,0-0.6,0-0.8,0.1c-0.3,0-0.6,0.1-0.8,0.1l-6.8-4.5l3.2-4.7
	c0.1-0.2,0.2-0.4,0.2-0.7c0-0.5-0.2-0.9-0.6-1.2c0.7,0.5,1.4,0.7,2,0.7c0.5,0,1-0.1,1.5-0.4c0.5-0.2,0.9-0.5,1.2-0.9
	c0.3-0.4,0.6-0.8,0.8-1.3c0.2-0.5,0.3-0.9,0.3-1.4c0-0.6-0.1-1.1-0.4-1.6c-0.3-0.5-0.6-0.9-1.1-1.2L24.5,0.6C23.9,0.2,23.3,0,22.6,0
	c-1,0-1.9,0.4-2.6,1.2c-0.8,0.8-1.1,1.7-1.1,2.7c0,0.6,0.1,1.2,0.4,1.7c0.3,0.5,0.7,0.9,1.2,1.3c-0.2-0.2-0.4-0.3-0.7-0.3
	c-0.5,0-0.9,0.2-1.1,0.6l-10,15c-0.1,0.3-0.2,0.6-0.2,0.7c0,0.5,0.2,0.9,0.6,1.1c-0.7-0.4-1.4-0.6-2-0.6c-1,0-1.9,0.4-2.7,1.2
	C3.6,25.6,3.3,26.5,3.3,27.5L3.3,27.5z"/>
</svg>
