<svg xmlns="http://www.w3.org/2000/svg" viewBox="0 0 64 48">
<path d="M3.6,30.8c0.2,0.2,0.5,0.3,0.9,0.3H8v13.2c0,1,0.4,1.8,1.1,2.5c0.7,0.7,1.5,1.1,2.5,1.1h40.8c1,0,1.8-0.4,2.5-1.1
	s1.1-1.5,1.1-2.5V31.1h3.6c0.3,0,0.6-0.1,0.9-0.3s0.4-0.5,0.4-0.8V18c0-0.3-0.1-0.6-0.4-0.9c-0.2-0.2-0.5-0.4-0.9-0.4H43.1
	c2.3,0,4.3-0.8,5.9-2.4c1.7-1.7,2.5-3.6,2.5-5.9C51.5,6,50.7,4,49,2.4C47.3,0.8,45.3,0,43.1,0c-2.7,0-4.8,1-6.3,2.9L32,9.1l-4.8-6.2
	C25.7,1,23.6,0,20.9,0c-2.3,0-4.2,0.8-5.9,2.4C13.3,4,12.5,6,12.5,8.4c0,2.3,0.8,4.3,2.5,5.9c1.6,1.6,3.6,2.4,5.9,2.4H4.5
	c-0.3,0-0.6,0.1-0.9,0.4c-0.2,0.2-0.4,0.5-0.4,0.9v12C3.2,30.3,3.4,30.6,3.6,30.8z M18.4,5.8c0.7-0.7,1.6-1.1,2.5-1.1
	c1,0,1.8,0.4,2.6,1.2l4.7,6h-7.2c-1,0-1.8-0.4-2.6-1.1s-1.1-1.5-1.1-2.5S17.7,6.6,18.4,5.8z M26,41.2V16.7h12v24.5
	c0,0.6-0.2,1.2-0.7,1.7s-1,0.7-1.7,0.7h-7.2c-0.7,0-1.3-0.2-1.7-0.7S26,41.9,26,41.2L26,41.2z M40.5,5.9c0.8-0.8,1.7-1.2,2.8-1.2
	c0.8,0,1.6,0.4,2.3,1.1c0.7,0.7,1.1,1.5,1.1,2.5s-0.4,1.8-1.1,2.5C44.9,11.6,44,12,43.1,12h-7.3L40.5,5.9z"/>
</svg>
