<svg xmlns="http://www.w3.org/2000/svg" viewBox="0 0 64 48">
<path d="M4.3,24.7c0,4.7,0.7,8.5,2,11.5c1.3,3,3.2,5.4,5.6,7.1c2.4,1.7,5.3,2.9,8.8,3.6c3.4,0.7,7.2,1,11.4,1c4.1,0,7.9-0.3,11.3-1
	c3.4-0.7,6.3-1.9,8.8-3.6c2.4-1.7,4.3-4.1,5.7-7.1c1.3-3,2-6.9,2-11.5c0-2.3-0.4-4.5-1.1-6.7c-0.7-2.2-1.9-4.1-3.4-5.8l0.1-0.1v-0.1
	c0.3-0.8,0.5-1.6,0.6-2.4c0.1-0.8,0.2-1.7,0.2-2.6c0-0.5,0-1.1-0.1-1.7c-0.1-0.6-0.1-1.3-0.3-2c-0.1-0.7-0.3-1.3-0.5-1.9
	c-0.2-0.6-0.4-1.1-0.6-1.5h-0.3C53.1,0,52,0.1,51,0.4c-1,0.3-1.9,0.6-2.8,1.1c-0.9,0.5-1.8,1-2.6,1.5l-2.7,1.8
	c-1.8-0.5-3.6-0.8-5.4-1c-1.8-0.2-3.7-0.2-5.5-0.2c-1.8,0-3.6,0.1-5.5,0.2c-1.9,0.2-3.6,0.5-5.4,1c-1-0.6-1.9-1.2-2.7-1.8
	c-0.8-0.6-1.7-1.1-2.6-1.6C14.9,1,14,0.6,13,0.4C12,0.1,10.9,0,9.7,0H9.4C9.2,0.4,8.9,0.9,8.7,1.5C8.5,2.1,8.4,2.7,8.3,3.4
	C8.1,4.1,8.1,4.8,8,5.4C8,6,8,6.6,8,7.1C8,7.9,8,8.8,8.1,9.6c0.1,0.8,0.3,1.7,0.6,2.4l-0.1,0.1l0.1,0.1c-1.5,1.7-2.7,3.7-3.4,5.8
	C4.6,20.2,4.3,22.4,4.3,24.7L4.3,24.7z M11.8,32.6c0-3.4,1-6,3-7.7c2-1.7,4.6-2.6,7.9-2.6c1.6,0,3.1,0.1,4.7,0.2
	c1.6,0.1,3.2,0.2,4.7,0.2s3.1-0.1,4.7-0.2c1.6-0.1,3.1-0.2,4.7-0.2c1.6,0,3.1,0.2,4.4,0.6c1.3,0.4,2.5,1.1,3.4,1.9
	c1,0.9,1.7,1.9,2.3,3.2c0.5,1.3,0.8,2.7,0.8,4.4c0,2-0.3,3.6-0.9,5s-1.4,2.5-2.4,3.3s-2.2,1.6-3.5,2c-1.4,0.5-2.8,0.8-4.3,1
	c-1.5,0.2-3,0.3-4.6,0.4c-1.6,0-3.1,0.1-4.6,0.1c-2.2,0-4.5-0.1-6.8-0.2c-2.4-0.1-4.6-0.5-6.6-1.3c-2-0.7-3.7-1.9-5-3.5
	C12.4,37.7,11.8,35.5,11.8,32.6L11.8,32.6z M19.9,34.7c0.5,0.9,1.2,1.4,2,1.4c0.8,0,1.4-0.5,2-1.4c0.6-0.9,0.8-2.1,0.8-3.4
	s-0.3-2.5-0.8-3.4c-0.5-0.9-1.2-1.4-2-1.4c-0.8,0-1.4,0.5-2,1.4c-0.5,0.9-0.8,2.1-0.8,3.4S19.4,33.8,19.9,34.7z M28.1,39.3
	c0.3,0.9,0.8,1.7,1.5,2.3c0.7,0.6,1.5,0.9,2.3,0.9c0.9,0,1.7-0.3,2.4-0.9c0.7-0.6,1.2-1.3,1.5-2.3c0.1-0.4-0.1-0.6-0.4-0.8
	c-0.4-0.1-0.6,0-0.8,0.4c-0.2,0.7-0.6,1.2-1.1,1.6c-0.5,0.4-1.1,0.6-1.7,0.6c-1.3,0-2.3-0.7-2.8-2.3c-0.2-0.4-0.4-0.5-0.7-0.4
	C28.1,38.7,28,39,28.1,39.3L28.1,39.3z M30.7,35.3c0.4-0.2,0.8-0.3,1.3-0.3c0.5,0,0.9,0.1,1.2,0.3c0.4,0.2,0.5,0.4,0.5,0.6
	c0,0.2-0.2,0.5-0.5,0.6c-0.3,0.2-0.8,0.3-1.3,0.3c-0.5,0-0.9-0.1-1.3-0.3c-0.4-0.2-0.5-0.4-0.5-0.6C30.2,35.7,30.4,35.5,30.7,35.3z
	 M40.2,27.9c0.6-0.9,1.2-1.4,2-1.4c0.8,0,1.4,0.5,2,1.4c0.5,0.9,0.8,2.1,0.8,3.4s-0.3,2.4-0.8,3.4c-0.5,0.9-1.2,1.4-2,1.4
	s-1.5-0.5-2-1.4c-0.6-0.9-0.8-2.1-0.8-3.4S39.6,28.9,40.2,27.9z"/>
</svg>
