<svg xmlns="http://www.w3.org/2000/svg" viewBox="0 0 64 48">
<path d="M8,42c0,1.7,0.6,3.1,1.8,4.3c1.2,1.2,2.6,1.8,4.3,1.8h9.9c0.1-0.6,0.1-1.2,0.1-1.9c0-0.6-0.1-1.3-0.1-1.9c0-0.2,0-0.3,0-0.5
	s0-0.4,0-0.6c-0.9,0.2-1.8,0.3-2.5,0.3c-1.8,0-3.1-0.3-4-0.8c-0.9-0.5-1.5-1.2-2-2c-0.4-0.8-0.9-1.6-1.2-2.4c-0.4-0.8-1-1.6-1.8-2.2
	c-0.2-0.2-0.6-0.4-1-0.6c-0.4-0.2-0.6-0.5-0.6-1c0-0.2,0.2-0.3,0.5-0.4c0.3,0,0.6-0.1,0.6-0.1c1,0,1.8,0.3,2.5,0.9
	c0.6,0.6,1.2,1.2,1.8,2c0.6,0.7,1.2,1.4,1.9,2c0.7,0.6,1.6,0.9,2.8,0.9c0.6,0,1.1-0.1,1.6-0.2c0.5-0.2,1-0.3,1.5-0.5
	c0.3-0.9,0.6-1.6,1-2.3c0.4-0.7,1-1.2,1.9-1.6c-3.9-0.5-6.8-1.6-8.8-3.5c-2-1.9-3-4.8-3-8.9c0-1.4,0.2-2.7,0.7-4
	c0.4-1.3,1.1-2.5,2.1-3.6c-0.1-0.5-0.2-0.9-0.3-1.4c0-0.5-0.1-0.9-0.1-1.4c0-0.9,0.1-1.8,0.3-2.8c0.2-1,0.5-1.9,1-2.7h0.4
	c0.9,0,1.7,0,2.5,0.3c0.7,0.2,1.4,0.5,2.1,0.9c0.7,0.4,1.3,0.8,2,1.2c0.6,0.4,1.3,0.8,2.1,1.2c0.7-0.1,1.4-0.1,2.1-0.2
	c0.7,0,1.4-0.1,2.1-0.1c0.7,0,1.4,0,2.1,0.1c0.7,0,1.4,0.1,2.1,0.2c0.7-0.4,1.4-0.8,2-1.2c0.6-0.4,1.3-0.8,2-1.2
	c0.7-0.4,1.4-0.6,2.1-0.9C43,7,43.8,6.9,44.7,7h0.4c0.5,0.7,0.8,1.6,1,2.7c0.2,1,0.3,2,0.3,2.8c0,0.5,0,1-0.1,1.4s-0.1,0.9-0.2,1.4
	c0.9,1.1,1.6,2.3,2.1,3.6c0.5,1.3,0.7,2.6,0.7,4c0,4.1-1.1,7.1-3.2,9c-2.1,1.9-5.2,3-9.1,3.4c1,0.4,1.6,1.1,2,2.1
	c0.4,1,0.7,2.1,0.8,3.3c0.1,1.2,0.2,2.4,0.1,3.6c0,1.2-0.1,2.2-0.1,3v0.8H50c0.8,0,1.6-0.2,2.3-0.5c0.8-0.3,1.4-0.8,1.9-1.3
	c0.5-0.5,1-1.2,1.3-1.9c0.3-0.7,0.5-1.5,0.5-2.4V6c0-1.7-0.6-3.1-1.8-4.3C53.1,0.6,51.7,0,50,0H14c-0.9,0-1.6,0.2-2.4,0.5
	c-0.7,0.3-1.4,0.8-1.9,1.3c-0.5,0.5-1,1.2-1.3,1.9C8.1,4.4,8,5.2,8,6V42L8,42z"/>
</svg>
