<svg xmlns="http://www.w3.org/2000/svg" viewBox="0 0 64 48">
<path d="M15,40.9c4.7,4.7,10.4,7,17,7c6.7,0,12.3-2.3,17-7s7-10.3,7-17c0-6.7-2.3-12.3-7-17c-4.7-4.6-10.3-7-17-7
	c-6.6,0-12.3,2.3-17,7c-4.7,4.7-7,10.3-7,17S10.3,36.3,15,40.9L15,40.9z M12.5,23.6c0-1.7,0.2-3.6,0.8-5.4c1.4,0.6,3.7,1.2,7,1.9
	c-0.1,1.4-0.2,3-0.2,4.7s0.1,3.4,0.4,5.3c-3.9-0.7-6.5-1.8-7.8-3.4L12.5,23.6z M13.5,30.6c1.7,0.9,4.1,1.7,7.4,2.4
	c0.8,3.8,2,6.7,3.6,8.9c-2.6-1.1-4.7-2.5-6.3-4.2C16.4,36,14.8,33.6,13.5,30.6L13.5,30.6z M14.3,15.6c1-2.2,2.3-4,3.9-5.4
	c1.3-1.4,3.6-2.9,6.7-4.3c-2.1,2.8-3.6,6.6-4.4,11.6C16.6,16.4,14.5,15.8,14.3,15.6L14.3,15.6z M30.6,20.8v10.5
	c-2.6-0.1-5.1-0.4-7.5-0.8c-0.3-2.3-0.5-4.4-0.5-6.1s0.1-3.1,0.2-4.2C24.9,20.6,27.5,20.8,30.6,20.8z M25.9,9.1
	c1.3-2.4,2.8-3.9,4.4-4.6h0.2v13.7c-2.6-0.1-5-0.3-7.5-0.4C23.7,14.4,24.6,11.5,25.9,9.1z M23.7,33.4c2.3,0.2,4.5,0.4,6.8,0.4v9.5
	c-0.9,0-1.8-0.4-2.6-1.2c-0.8-0.8-1.6-2-2.4-3.6C24.8,36.9,24.1,35.2,23.7,33.4L23.7,33.4z M33.4,43.4v-9.5c2.3,0,4.6-0.2,6.9-0.4
	C38.3,40.1,36,43.4,33.4,43.4z M40.9,30.6c-2.5,0.4-5,0.6-7.5,0.7V20.8c2.7,0,5.3-0.2,7.8-0.4c0,0.9,0.1,2.4,0.1,4.6
	S41.1,29,40.9,30.6L40.9,30.6z M40.9,17.8c-2.6,0.3-5.1,0.4-7.5,0.4V4.5c0.3,0,0.9,0.3,1.9,1C38,8,39.9,12.1,40.9,17.8L40.9,17.8z
	 M49.7,15.7c-0.9,0.7-2.9,1.3-6.3,1.9c-0.8-5-2.2-8.9-4.3-11.7C43.9,7.5,47.5,10.8,49.7,15.7z M43.1,33c2.9-0.6,5.3-1.3,7.2-2.2
	c-1.1,2.8-2.6,5-4.5,6.8c-1.6,1.7-3.7,3.1-6.3,4.2C41,39.8,42.2,36.9,43.1,33z M43.9,24.3c0-1.9,0-3.2-0.1-4.2
	c2.3-0.3,4.6-0.9,6.9-1.8c0.7,2,1,3.8,0.9,5.3s-0.2,2.5-0.4,2.9c-0.2,0.5-0.5,0.9-1,1.4c-0.9,0.9-3.1,1.6-6.6,2.2
	C43.8,28.1,43.9,26.1,43.9,24.3z"/>
</svg>
