<svg xmlns="http://www.w3.org/2000/svg" viewBox="0 0 64 48">
<path fill="#010101" d="M56,42V6c0-0.9-0.2-1.6-0.5-2.4c-0.3-0.7-0.7-1.4-1.3-1.9c-0.5-0.5-1.2-1-1.9-1.3C51.5,0.2,50.8,0,50,0H14
	c-0.8,0-1.6,0.2-2.3,0.5c-0.7,0.3-1.3,0.7-1.9,1.3c-0.5,0.5-1,1.2-1.3,1.9C8.2,4.4,8,5.2,8,6V42c0,0.8,0.2,1.6,0.5,2.3
	c0.3,0.7,0.7,1.4,1.3,1.9c0.5,0.5,1.2,1,1.9,1.3c0.7,0.3,1.5,0.5,2.3,0.5h36c1.7,0,3.1-0.6,4.3-1.8C55.4,45,56,43.6,56,42z
	 M42.8,37.3v-6.4l-7.4,0.2l3.8-2.1h10.2l-1.6,1.9v7.3h0l0,0.7c-7,3.5-18.7,4.6-25.5,0c-4.1-2.8-8.1-8.2-7.9-15.1
	c0.2-6.6,4.5-12.5,10.3-15.4c6.7-3.4,16.9-2.8,22.8,2.1L44.2,14l-2.3,0.6l1.2-2.2c-1.7-1.7-3.7-3-5.9-3.7c-3.5-1.1-6.7-0.5-9.4,0.8
	c-5.5,2.7-8.7,9.2-7.5,16.1c1.3,7.3,6.9,13.1,14.3,13.7c2.2,0.2,4.5,0.1,6.6-0.5C42.8,38.3,42.8,38.2,42.8,37.3z"/>
</svg>
