<svg xmlns="http://www.w3.org/2000/svg" viewBox="0 0 64 48">
<path d="M8.5,39c0,1.7,0.4,3.1,1.3,4.2s1.9,2,3.3,2.8s2.7,1.2,4.3,1.5s3,0.5,4.3,0.5c1.8,0,3.7-0.2,5.6-0.7c1.9-0.5,3.6-1.2,5.2-2.1
	s2.9-2.2,3.9-3.7s1.5-3.3,1.5-5.4c0-2-0.4-3.7-1.3-4.9c-0.9-1.3-1.9-2.4-3-3.3l-3-2.5c-0.9-0.8-1.3-1.6-1.3-2.5c0-1,0.3-1.8,1-2.4
	l2.2-2.1c0.8-0.8,1.6-1.8,2.2-2.9c0.7-1.1,1-2.7,1-4.6c0-1.6-0.4-3.2-1.1-4.8c-0.7-1.6-1.8-2.8-3.3-3.7h3.9L39.1,0H26.5
	c-1.8,0-3.6,0.2-5.4,0.6c-1.3,0.3-2.5,0.8-3.7,1.5c-1.1,0.7-2.1,1.6-3,2.6c-0.9,1-1.5,2.1-2.1,3.4c-0.5,1.2-0.8,2.5-0.8,3.9
	c0,1.5,0.3,2.8,0.9,4c0.6,1.2,1.3,2.2,2.3,3.1s2,1.6,3.3,2c1.3,0.5,2.6,0.7,4,0.7h1c0.4,0,0.7,0,1-0.1l-0.4,1.2
	c-0.1,0.4-0.2,0.8-0.2,1.3c0,0.8,0.2,1.6,0.6,2.3c0.4,0.7,0.8,1.4,1.3,2c-1.6,0-3.4,0.2-5.3,0.6c-2,0.3-3.8,0.9-5.5,1.7
	c-1.7,0.8-3.1,1.9-4.3,3.2C9,35.3,8.5,37,8.5,39L8.5,39z M13.8,37.7c0-1.4,0.4-2.6,1.1-3.6c0.7-1,1.7-1.7,2.8-2.3
	c1.1-0.6,2.4-1,3.7-1.3c1.3-0.3,2.6-0.4,3.8-0.4c0.3,0,0.6,0,0.9,0c0.3,0,0.6,0.1,0.9,0.1l2.3,1.6c0.8,0.6,1.5,1.1,2.2,1.8
	c0.6,0.6,1.2,1.4,1.6,2.2c0.4,0.8,0.7,1.7,0.7,2.7c0,1.2-0.3,2.3-0.8,3.2c-0.5,0.9-1.2,1.6-2.1,2.1c-0.9,0.5-1.9,0.9-3,1.2
	c-1.1,0.2-2.2,0.4-3.2,0.4c-1.1,0-2.3-0.1-3.6-0.4s-2.4-0.7-3.5-1.3c-1.1-0.6-2-1.4-2.7-2.4C14.2,40.2,13.8,39,13.8,37.7L13.8,37.7z
	 M17.3,6.3c0.2-0.8,0.6-1.5,1-2.2c0.5-0.6,1-1.1,1.8-1.5c0.7-0.4,1.6-0.6,2.5-0.6c1.3,0,2.5,0.4,3.4,1.2s1.8,1.8,2.4,3
	c0.6,1.2,1.1,2.5,1.4,3.8c0.3,1.3,0.4,2.5,0.4,3.6c0,1.8-0.4,3.3-1.2,4.5c-0.8,1.3-2.1,1.9-4.1,1.9c-1.3,0-2.4-0.4-3.4-1.1
	s-1.8-1.7-2.5-2.8c-0.7-1.1-1.2-2.4-1.6-3.7s-0.5-2.5-0.5-3.6C16.9,8,17,7.1,17.3,6.3z M39.1,10.1V6.9h6.6V0.2h3.3v6.6h6.6v3.2h-6.6
	v6.6h-3.3v-6.6H39.1L39.1,10.1z"/>
</svg>
