<svg xmlns="http://www.w3.org/2000/svg" viewBox="0 0 64 48">
<path d="M5.7,37.2c1.9-1,3.9-1.7,5.8-2c2-0.4,4-0.6,6.2-0.7c-0.5-0.6-1-1.3-1.3-2.1c-0.4-0.8-0.6-1.6-0.6-2.4c0-0.5,0.1-0.9,0.2-1.3
	c0.1-0.4,0.3-0.8,0.4-1.3l-1.1,0.1h-1.1c-1.8,0-3.4-0.3-4.8-0.9c-1.4-0.6-2.6-1.6-3.8-3V37.2L5.7,37.2z M5.7,10
	c1.7-2.2,3.6-3.7,5.9-4.5c2.3-0.7,4.7-1.1,7.4-1.1h13.4l-4.1,2.4h-4.1c1.4,0.9,2.5,2.2,3.3,3.8s1.2,3.3,1.2,4.9c0,2.2-0.3,3.9-1,5.1
	c-0.7,1.2-1.5,2.3-2.4,3.1L22.8,26c-0.7,0.7-1.1,1.5-1.1,2.5c0,0.7,0.2,1.3,0.7,1.9c0.4,0.6,1,1.1,1.7,1.7l2.2,1.8
	c0.8,0.6,1.5,1.3,2.2,2.2c0.7,0.8,1.3,1.7,1.7,2.8c0.4,1.1,0.7,2.3,0.7,3.8c0,1-0.1,1.9-0.4,2.8c-0.3,0.9-0.6,1.7-1.1,2.5h18.2
	c0.8,0,1.6-0.2,2.3-0.5s1.4-0.7,1.9-1.3s1-1.2,1.3-1.9c0.3-0.7,0.5-1.5,0.5-2.4V6c0-1.7-0.6-3.1-1.8-4.3S49.2,0,47.6,0H11.7
	C10.8,0,10,0.2,9.3,0.5S8,1.2,7.4,1.8c-0.5,0.5-1,1.2-1.3,1.9C5.8,4.4,5.7,5.2,5.7,6V10L5.7,10z M7.7,46.4c1.1,1,2.4,1.5,3.9,1.5H26
	c0.4-0.8,0.6-1.7,0.6-2.7c0-1.1-0.2-2-0.7-2.9c-0.4-0.9-1-1.6-1.7-2.3c-0.7-0.7-1.5-1.3-2.3-1.9l-2.4-1.7l-1-0.1h-1
	c-1.1,0-2.2,0.1-3.4,0.3s-2.4,0.6-3.6,1c-1.2,0.5-2.2,1.1-3,1.9c-0.9,0.8-1.4,1.8-1.7,3C5.9,44.1,6.6,45.4,7.7,46.4z M8.8,13.8
	c0,1.2,0.2,2.4,0.6,3.8c0.4,1.4,0.9,2.7,1.7,3.9c0.7,1.2,1.6,2.2,2.7,3c1,0.8,2.2,1.2,3.6,1.2c1,0,1.9-0.2,2.6-0.5
	c0.7-0.4,1.3-0.9,1.8-1.5c0.4-0.6,0.8-1.3,1-2.1c0.2-0.8,0.3-1.7,0.3-2.6c0-1.1-0.2-2.4-0.5-3.9c-0.3-1.4-0.8-2.8-1.5-4
	c-0.7-1.2-1.5-2.3-2.5-3.1c-1-0.9-2.3-1.3-3.7-1.3c-1,0-1.9,0.2-2.7,0.6c-0.7,0.4-1.4,0.9-1.9,1.6c-0.5,0.7-0.9,1.4-1.1,2.3
	C9,12,8.8,12.9,8.8,13.8L8.8,13.8z M32.3,11.8h7v-7h3.4v7h7v3.4h-7v7h-3.4v-7h-7V11.8z"/>
</svg>
