<svg xmlns="http://www.w3.org/2000/svg" viewBox="0 0 64 48">
<path d="M18.6,29c-0.1,0.1-0.2,0.1-0.3,0.1l-0.7,0.1l-1,0.2l-2.1,0.3c-2.4,0.4-3.7,0.6-4,0.6c-1.4,0.2-2.5,0.6-3.3,1.3
	c-0.7,0.7-1.3,1.5-1.7,2.3c-0.4,0.8-0.7,1.7-1.1,2.5c-0.3,0.9-0.6,1.5-0.8,1.9c-0.4,0.4-0.6,0.8-0.4,1.1c0,0,0.4,0.3,1.2,0.8
	c0.7,0.5,1.4,0.8,1.9,0.8h36.5c0.1,0,0.3,0,0.6-0.1c0.3,0,0.5-0.1,0.7-0.2c0.2-0.1,0.4-0.3,0.7-0.5c0.3-0.3,0.7-0.5,1.1-0.8
	c0-0.1,0-0.4-0.3-0.8c-0.2-0.4-0.7-1.5-1.4-3.3c-0.7-1.8-1.5-3-2.3-3.7c-0.8-0.7-1.6-1.1-2.5-1.3l-1.5-0.2c-0.6-0.1-1.1-0.2-1.3-0.2
	l-6.1-1c-0.1-0.3-0.2-0.8-0.3-1.4s-0.2-1.3-0.4-1.8l0.6-0.8c0.9-1.2,1.4-2.4,1.8-3.5s0.6-2.7,0.8-4.6c0.1-1.2,0.2-1.9,0.3-2.2
	c0.3-2.5-0.5-4.6-2.3-6.4c-1.8-1.8-4-2.7-6.5-2.7c-2.5,0-4.6,0.9-6.5,2.7c-1.8,1.8-2.6,4-2.3,6.4c0,0.3,0.1,1,0.3,2.2
	c0.1,1.2,0.2,2.1,0.4,2.8c0.1,0.7,0.3,1.5,0.5,2.3c0.2,0.8,0.8,1.8,1.8,3l0.5,0.8c-0.1,0.4-0.3,1-0.4,1.8S18.6,28.9,18.6,29L18.6,29
	z M49.5,32c0-0.1-0.1-0.4-0.2-0.8c-0.1-0.4-0.2-0.8-0.2-1c-0.1-0.2,0-0.5,0.2-0.7c0.1,0,0.2-0.1,0.3-0.3l0.6-0.9
	c0.3-0.5,0.6-1,0.6-1.7c0.1-0.6,0.2-1.4,0.4-2.4c0.1-1,0.2-1.7,0.3-2.2c0.2-1.2,0-2.3-0.5-3.4c-0.5-1.1-1.3-1.9-2.2-2.5
	c-2.4-1.4-4.6-1.5-6.6-0.4c-1.1,0.5-1.9,1.3-2.6,2.4c-0.7,1.1-1,2.1-0.9,3.3c0,0.2,0.1,1.3,0.4,3.5l0.2,1.3c0.1,0.6,0.2,1,0.3,1.1
	c0.2,0.2,0.6,0.3,1.3,0.4c2.3,0.4,4,1.7,5.2,3.7c0.5,0.8,1.1,2,1.8,3.7c0.7,1.7,1.1,2.5,1.1,2.6c0,0.1,0.2,0.4,0.4,0.8
	c0.3,0.4,0.4,0.8,0.3,1c-0.3,0.1-0.7,0.3-1.2,0.8c-0.6,0.4-1,0.7-1.5,0.8h11.6c0.3,0,0.8-0.2,1.3-0.6c0.6-0.4,0.8-0.6,0.8-0.7
	s-0.1-0.4-0.4-1C60,38,59.6,36.9,59,35.7c-0.2-0.4-0.5-0.9-0.9-1.3c-0.4-0.5-0.9-0.8-1.5-1c-0.6-0.2-1.4-0.4-2.5-0.4
	c-0.5,0-0.9-0.1-1.1-0.1l-2-0.3C50,32.5,49.5,32.3,49.5,32L49.5,32z"/>
</svg>
