<svg xmlns="http://www.w3.org/2000/svg" viewBox="0 0 64 48">
<path d="M51.3,6.6V2.2c0-0.6-0.2-1.1-0.7-1.5C50.2,0.2,49.8,0,49.2,0h-0.1c-5.6,0.3-10.9,1.6-15.9,3.8c-5,2.4-9.4,5.4-13,9
	c-3.7,3.7-6.7,8.1-9,13.1c-2.3,5-3.5,10.2-3.8,15.8c-0.1,0.6,0.1,1.1,0.6,1.6c0.3,0.5,0.8,0.7,1.5,0.7h4.4c0.6,0,1.1-0.2,1.5-0.6
	c0.5-0.4,0.7-0.9,0.7-1.5c0.3-4.5,1.3-8.7,3.1-12.5c1.9-3.8,4.3-7.3,7.3-10.3c3.1-3.1,6.5-5.5,10.3-7.1c3.8-1.7,8-2.8,12.6-3.1
	c0.5,0,1-0.2,1.5-0.7C51.1,7.7,51.3,7.2,51.3,6.6z M49.4,32.3c1.4,0.3,2.7,1,3.7,2c1.5,1.6,2.3,3.5,2.3,5.7c0,2.2-0.8,4.1-2.3,5.6
	c-1.6,1.6-3.4,2.3-5.6,2.3c-2.2,0-4.1-0.8-5.7-2.3c-1-1.1-1.7-2.3-2.1-3.7c-0.4-1.4-0.4-2.7,0-4l-6.4-6.4c-0.4-0.4-0.6-0.8-0.6-1.4
	s0.2-1,0.6-1.4l2.8-2.8c0.4-0.4,0.8-0.6,1.4-0.6c0.5,0,1,0.2,1.4,0.6l6.4,6.4C46.6,32,48,31.9,49.4,32.3z"/>
</svg>
