<svg xmlns="http://www.w3.org/2000/svg" viewBox="0 0 64 48">
<path d="M51.9,6.6V2.2c0-0.6-0.2-1.1-0.7-1.5C50.8,0.3,50.4,0,49.8,0h-0.1c-5.6,0.3-10.9,1.6-15.9,3.8c-5.1,2.4-9.4,5.4-13,9
	c-3.7,3.7-6.7,8.1-9,13c-2.2,5-3.5,10.3-3.8,15.8c-0.1,0.6,0.1,1.1,0.6,1.6c0.4,0.5,0.9,0.7,1.5,0.7h4.4c0.6,0,1.1-0.2,1.5-0.6
	c0.5-0.5,0.7-1,0.7-1.5c0.3-4.5,1.3-8.7,3.1-12.5C21.7,25.5,24.1,22,27,19c3.1-3.1,6.5-5.5,10.3-7.1c3.8-1.7,8-2.8,12.5-3.1
	c0.5,0,1-0.2,1.5-0.7C51.7,7.7,51.9,7.2,51.9,6.6z M54.9,36c0.7,1.2,1.1,2.5,1.1,4c0,2.2-0.8,4.1-2.4,5.7S50.2,48,48,48
	c-2.2,0-4.1-0.8-5.6-2.4C40.8,44.1,40,42.2,40,40c0-1.4,0.3-2.8,1-4c0.7-1.2,1.7-2.2,2.9-2.9V24c0-0.6,0.2-1,0.6-1.4
	C45,22.2,45.4,22,46,22h4c0.6,0,1,0.2,1.4,0.6C51.8,23,52,23.4,52,24v9.1C53.2,33.8,54.2,34.8,54.9,36z"/>
</svg>
