<svg xmlns="http://www.w3.org/2000/svg" viewBox="0 0 64 48">
<path d="M51.9,6.6V2.2c0-0.6-0.2-1.1-0.7-1.5C50.9,0.2,50.4,0,49.8,0h-0.1c-5.6,0.3-10.9,1.6-15.9,3.8c-5,2.3-9.4,5.3-13,9
	c-3.7,3.8-6.8,8.1-9,13C9.6,30.8,8.3,36,8,41.6c-0.1,0.6,0.1,1.1,0.6,1.6c0.4,0.5,0.9,0.7,1.5,0.7h4.4c0.6,0,1.1-0.2,1.5-0.6
	c0.5-0.5,0.7-1,0.7-1.5c0.3-4.5,1.3-8.7,3.1-12.5c1.9-3.8,4.3-7.2,7.2-10.3c3.1-3.1,6.5-5.4,10.3-7.1c3.8-1.7,8-2.8,12.5-3.1
	c0.5,0,1-0.2,1.5-0.6C51.7,7.7,51.9,7.2,51.9,6.6z M44,33.1c1.2-0.7,2.6-1.1,4.1-1.1c2.2,0,4,0.8,5.6,2.3c1.6,1.6,2.4,3.4,2.4,5.6
	c0,2.2-0.8,4.1-2.4,5.7S50.2,48,48.1,48c-1.5,0-2.8-0.4-4.1-1.1c-1.2-0.7-2.2-1.7-2.8-2.9H32c-0.6,0-1-0.2-1.4-0.6
	C30.2,43,30,42.5,30,42v-4c0-0.6,0.2-1,0.6-1.4C31,36.2,31.5,36,32,36h9.1C41.8,34.7,42.8,33.8,44,33.1z"/>
</svg>
