<svg xmlns="http://www.w3.org/2000/svg" viewBox="0 0 64 48">
<path d="M19.6,20.8c0.7-2.3,1-6.8,1-13.6c0-1.1,0.3-1.9,0.9-2.6c0.6-0.8,1.4-1.1,2.2-1.1s1.4,0.4,1.9,1.1c0.5,0.7,0.7,1.6,0.7,2.6
	c0,6,0.1,9.9,0.3,11.7c0.2,1.8,0.4,2.7,0.5,2.7h0.1c0.7-0.9,1-7.2,1-18.6c0-0.9,0.3-1.7,0.9-2.3s1.3-0.9,2.2-0.9
	c1.7,0,2.5,1.1,2.5,3.1c0,7.3,0.2,12.7,0.7,15.9l0.7,2.4c0.8,0,1.1-4.4,1.1-13.3V6.5c0-2,0.8-3.1,2.5-3.1c0.8,0,1.6,0.3,2.2,1
	c0.6,0.7,0.9,1.5,0.9,2.5v22.6c0,0.7,0.2,1,0.4,1c0.2,0,0.7-0.5,1.4-1.4l2.6-3.8c0.7-1.1,1.5-1.5,2.7-1.5c1.4,0,2.1,0.6,2.1,1.7
	c0,0.6-0.2,1.7-0.7,3.2c-0.5,1.5-1,2.8-1.7,3.8l-6.7,10.2c-0.9,1.4-2.3,2.6-4.4,3.6c-2,1.1-3.9,1.5-5.7,1.5h-8.6c-2.7,0-5-1-7-2.9
	c-2-2-2.9-4.3-2.9-7V14.2c0-0.9,0.3-1.7,0.9-2.4c0.6-0.7,1.4-1,2.2-1c1.7,0,2.5,1.1,2.5,3.1c0,5,0.2,7.5,0.5,7.5
	C19.5,21.4,19.5,21.2,19.6,20.8z"/>
</svg>
