<svg xmlns="http://www.w3.org/2000/svg" viewBox="0 0 64 48">
<path d="M28.8,0.8c-1,0.5-1.8,1.2-2.5,2c-0.7,0.8-1.2,1.8-1.7,3c-0.4,1.1-0.5,2.2-0.5,3.4c0,1.1,0.2,2.1,0.5,3.1
	c0.3,1,0.7,2,1.2,2.9h-4.1l-11.3,0.1c-1,0-1.9,0.2-2.8,0.5c-0.9,0.4-1.6,0.8-2.2,1.5c-0.6,0.6-1.1,1.4-1.5,2.2
	c-0.4,0.9-0.5,1.8-0.5,2.8c0,1,0.2,2,0.6,2.8c0.4,0.8,0.9,1.6,1.5,2.2c0.6,0.6,1.4,1.1,2.3,1.5c0.9,0.3,1.8,0.5,2.8,0.5h6
	c0.2,1.2,0.6,2.3,1.2,3.2c-0.2,1.2-0.1,2.4,0.2,3.6s0.9,2.2,1.7,3.1c0,1.5,0.3,2.8,0.8,3.9c0.6,1.1,1.3,2,2.3,2.7
	c0.9,0.7,2,1.2,3.3,1.6c1.3,0.3,2.6,0.5,4,0.5c1.5,0,3-0.2,4.4-0.5c1.4-0.3,2.8-0.7,4.1-1.1l3.8-1.1c1.3-0.3,2.5-0.5,3.8-0.5h11.2
	c1,0,1.8-0.4,2.5-1.1c0.7-0.7,1.1-1.6,1.1-2.5V22c0-1-0.3-1.8-1-2.5c-0.7-0.7-1.5-1.1-2.6-1.1H46.7c-0.6-0.3-1-0.6-1.2-0.9
	c-0.4-0.3-0.7-0.7-1.1-1.2c-0.3-0.4-0.6-0.8-1-1.2l-1-1.2c-0.7-0.7-1.4-1.4-2.3-2.1c-0.8-0.6-1.5-1.4-1.9-2.2
	c-0.5-0.8-0.8-1.8-0.8-3c-0.1-1.1-0.3-2.1-0.5-3.1c-0.3-1-0.7-1.9-1.3-2.6c-0.6-0.7-1.7-1-3.3-1C31,0.1,29.8,0.3,28.8,0.8L28.8,0.8z
	 M32.8,3.7l0.3,0.2l0.1,0.4c0.3,1.2,0.5,2.4,0.7,3.7c0.2,1.3,0.6,2.5,1.2,3.5c0.6,1.1,1.4,2,2.2,2.7c0.9,0.7,1.7,1.5,2.5,2.3
	c0.5,0.6,1,1.1,1.5,1.7c0.4,0.5,0.8,1,1.3,1.5c0.4,0.5,0.9,0.9,1.4,1.3c0.5,0.4,1.2,0.7,2,1h0.2v19.3c-1.4,0-2.8,0.2-4.1,0.5l-4,1
	c-1.4,0.4-2.7,0.8-4,1.1c-1.4,0.4-2.8,0.5-4.1,0.5c-0.9,0-1.7-0.1-2.5-0.3c-0.8-0.2-1.5-0.5-2.1-0.9c-0.6-0.4-1.1-0.9-1.5-1.5
	s-0.6-1.5-0.6-2.5c0-0.3,0-0.6,0.1-0.8c0-0.3,0-0.5,0.1-0.7c-0.7-0.4-1.3-0.9-1.6-1.6c-0.4-0.7-0.5-1.5-0.5-2.2c0-0.8,0.2-1.4,0.6-2
	c-1.2-1-1.8-2.2-1.8-3.7c0-0.5,0.1-0.9,0.4-1.3c0.3-0.5,0.5-0.8,0.8-1.1c-2,0-3.8,0-5.4,0c-1.6,0-3.3,0-5.3,0
	c-1.1,0-1.9-0.3-2.6-0.9c-0.6-0.6-1-1.4-1-2.5c0-1,0.3-1.9,1-2.5c0.7-0.6,1.5-1,2.5-1c3.8,0,7.2,0,10.2,0c3,0,6.4,0,10.2,0
	c0-0.8-0.2-1.6-0.5-2.3l-1-2.3c-0.4-0.8-0.8-1.6-1.1-2.4c-0.3-0.8-0.5-1.7-0.5-2.7c0-0.7,0.1-1.3,0.3-2c0.2-0.6,0.5-1.2,0.9-1.8
	c0.4-0.5,0.8-1,1.4-1.3c0.5-0.3,1.2-0.5,2-0.5c0.1,0,0.2,0,0.3,0C32.6,3.6,32.7,3.6,32.8,3.7L32.8,3.7z M53.1,37.1
	c0.5,0.5,0.7,1,0.7,1.7c0,0.7-0.2,1.3-0.7,1.8c-0.5,0.5-1,0.7-1.8,0.7c-0.7,0-1.2-0.2-1.7-0.7c-0.5-0.5-0.7-1-0.7-1.8
	c0-0.7,0.2-1.2,0.7-1.7c0.5-0.5,1-0.7,1.6-0.7C52,36.4,52.6,36.6,53.1,37.1z"/>
</svg>
