<svg xmlns="http://www.w3.org/2000/svg" viewBox="0 0 64 48">
<path d="M12.7,21.3c-0.4,0.8-0.6,1.8-0.6,2.8c0,1.3,0.3,2.2,0.8,2.7c0.6,0.5,1.3,0.9,2.1,1.1c0.9,0.2,1.7,0.3,2.6,0.4
	c1,0.1,1.8,0.3,2.5,0.8c0.7,0.4,1.3,0.9,1.9,1.6c0.6,0.7,1.1,1.4,1.7,1.9l0.9,0.8c0.3,0.3,0.7,0.6,1,0.8c0.4,0.3,0.7,0.6,1,0.9
	c0.3,0.2,0.5,0.6,0.8,1V45c0,0.9,0.3,1.6,0.9,2.1c0.6,0.6,1.3,0.9,2.1,0.9h16c0.8,0,1.5-0.3,2.1-0.9c0.6-0.6,0.9-1.3,0.9-2.1v-9.3
	c0-1,0.1-2.1,0.4-3.1l0.9-3.2c0.3-1.1,0.6-2.2,0.9-3.4s0.4-2.4,0.4-3.7c0-1.2-0.1-2.3-0.4-3.3c-0.3-1-0.7-1.9-1.3-2.7
	s-1.3-1.4-2.3-1.9s-2-0.7-3.3-0.7c-0.7-0.6-1.6-1.1-2.6-1.4s-2-0.4-3-0.2c-0.8-0.5-1.7-0.9-2.7-1V6c0-0.8-0.1-1.6-0.4-2.3
	c-0.3-0.8-0.7-1.4-1.2-1.9S33.7,0.8,33,0.5C32.3,0.2,31.5,0,30.7,0c-0.9,0-1.6,0.2-2.4,0.4c-0.7,0.3-1.3,0.8-1.9,1.3
	s-0.9,1.1-1.2,1.9c-0.3,0.8-0.4,1.6-0.4,2.4l-0.1,9.4v3.4c-0.8-0.4-1.6-0.7-2.4-1c-0.9-0.3-1.7-0.4-2.6-0.4c-1,0-1.9,0.2-2.8,0.4
	c-0.9,0.3-1.8,0.8-2.5,1.4C13.7,19.8,13.1,20.5,12.7,21.3L12.7,21.3z M15.1,24.7c0,0-0.1-0.1,0-0.2c0-0.1,0-0.2,0-0.3
	c0-0.6,0.1-1.2,0.4-1.6c0.3-0.4,0.6-0.8,1.1-1.2c0.4-0.3,0.9-0.6,1.5-0.7c0.5-0.2,1.1-0.3,1.6-0.3c0.8,0,1.6,0.1,2.2,0.4
	c0.6,0.3,1.3,0.6,2,0.9l1.9,0.8c0.6,0.3,1.3,0.4,2,0.4c0-3.2,0-6,0-8.5c0-2.5,0-5.3,0-8.5c0-0.9,0.3-1.6,0.8-2.1s1.2-0.8,2.1-0.8
	c0.9,0,1.5,0.3,2,0.8c0.5,0.5,0.8,1.2,0.8,2.1c0,1.6,0,3.1,0,4.4c0,1.3,0,2.8,0,4.5c0.2-0.3,0.5-0.5,0.9-0.7
	c0.3-0.2,0.7-0.3,1.1-0.3c1.2,0,2.3,0.5,3.1,1.5c0.5-0.3,1-0.4,1.7-0.4c0.6,0,1.2,0.1,1.8,0.4c0.6,0.3,1.1,0.7,1.4,1.3
	c0.2,0,0.4-0.1,0.6-0.1c0.2,0,0.4-0.1,0.7-0.1c0.8,0,1.5,0.2,2,0.5c0.6,0.3,1,0.7,1.3,1.2c0.3,0.5,0.6,1.1,0.7,1.8
	c0.2,0.7,0.2,1.4,0.2,2.1c0,1.2-0.2,2.3-0.4,3.5c-0.3,1.1-0.6,2.2-0.9,3.4c-0.3,1.1-0.6,2.2-0.8,3.3c-0.3,1.1-0.4,2.2-0.4,3.4H30.3
	v-0.1C30,35,29.7,34.4,29.4,34c-0.3-0.4-0.7-0.8-1.1-1.2c-0.4-0.4-0.8-0.7-1.2-1l-1.4-1.2c-0.7-0.7-1.3-1.4-1.9-2.1
	c-0.6-0.7-1.3-1.3-2.2-1.9c-0.9-0.5-1.8-0.8-2.9-1c-1.1-0.2-2.1-0.4-3.1-0.6L15.2,25L15.1,24.7L15.1,24.7z M42.3,40.1
	c0-0.5,0.2-1,0.6-1.4s0.9-0.6,1.4-0.6c0.6,0,1.1,0.2,1.5,0.6c0.4,0.4,0.6,0.9,0.6,1.5c0,0.6-0.2,1-0.6,1.4c-0.4,0.4-0.9,0.6-1.5,0.6
	c-0.6,0-1-0.2-1.4-0.6C42.5,41.2,42.3,40.7,42.3,40.1z"/>
</svg>
