<svg xmlns="http://www.w3.org/2000/svg" viewBox="0 0 64 48">
<path d="M12.7,26.7c0.4,0.8,1,1.5,1.7,2.1c0.7,0.6,1.5,1,2.5,1.4c0.9,0.3,1.8,0.4,2.8,0.4c0.9,0,1.8-0.1,2.6-0.4
	c0.9-0.3,1.7-0.6,2.4-1v3.4l0.1,9.4c0,0.8,0.1,1.6,0.4,2.4c0.3,0.7,0.7,1.3,1.2,1.9s1.1,0.9,1.9,1.3c0.7,0.3,1.5,0.4,2.4,0.4
	c0.9,0,1.6-0.2,2.3-0.5c0.7-0.3,1.3-0.7,1.9-1.2s0.9-1.2,1.2-1.9c0.3-0.7,0.4-1.5,0.4-2.3v-5c1-0.2,1.9-0.5,2.7-1c1,0.2,2,0.1,3-0.2
	s1.9-0.8,2.6-1.4c1.2,0,2.3-0.2,3.3-0.7s1.7-1.1,2.3-1.9s1-1.7,1.3-2.7c0.3-1.1,0.4-2.2,0.4-3.3c0-1.3-0.1-2.5-0.4-3.7
	s-0.6-2.3-0.9-3.4l-0.9-3.2c-0.3-1.1-0.4-2.1-0.4-3.1V3c0-0.8-0.3-1.5-0.9-2.1C47.9,0.3,47.2,0,46.4,0h-16c-0.8,0-1.5,0.3-2.1,0.9
	c-0.6,0.6-0.9,1.3-0.9,2.1v8.7c-0.3,0.5-0.5,0.8-0.8,1c-0.3,0.3-0.6,0.6-1,0.9c-0.3,0.3-0.7,0.5-1,0.8l-0.9,0.8
	c-0.6,0.6-1.2,1.2-1.7,1.9c-0.5,0.7-1.1,1.2-1.9,1.6c-0.7,0.4-1.5,0.7-2.5,0.8c-0.9,0-1.8,0.2-2.6,0.4c-0.9,0.2-1.6,0.6-2.1,1.1
	c-0.6,0.5-0.8,1.4-0.8,2.7C12.1,24.9,12.3,25.8,12.7,26.7L12.7,26.7z M15.1,23.3l0.2-0.3l0.3-0.1c1-0.2,2-0.4,3.1-0.6
	c1.1-0.2,2.1-0.5,2.9-1c0.9-0.5,1.6-1.1,2.2-1.9c0.6-0.7,1.2-1.4,1.9-2.1l1.4-1.2c0.4-0.3,0.8-0.6,1.2-1c0.4-0.4,0.7-0.8,1.1-1.2
	c0.3-0.4,0.6-1,0.9-1.7v-0.1h16.1c0,1.2,0.1,2.3,0.4,3.4c0.3,1.1,0.5,2.2,0.8,3.3c0.3,1.2,0.6,2.3,0.9,3.4c0.3,1.2,0.4,2.3,0.4,3.5
	c0,0.7-0.1,1.4-0.2,2.1c-0.1,0.7-0.4,1.3-0.7,1.8c-0.3,0.5-0.7,0.9-1.3,1.2c-0.6,0.3-1.2,0.5-2,0.5c-0.3,0-0.5,0-0.7-0.1
	c-0.2,0-0.4,0-0.6-0.1c-0.3,0.6-0.8,1-1.4,1.3c-0.6,0.3-1.2,0.4-1.8,0.4c-0.6,0-1.2-0.1-1.7-0.4c-0.8,1-1.8,1.5-3.1,1.5
	c-0.4,0-0.8-0.1-1.1-0.3c-0.4-0.2-0.7-0.4-0.9-0.7c0,1.7,0,3.2,0,4.5c0,1.3,0,2.8,0,4.4c0,0.9-0.3,1.6-0.8,2.1
	c-0.5,0.5-1.2,0.8-2,0.8c-0.9,0-1.6-0.3-2.1-0.8s-0.8-1.3-0.8-2.1c0-3.2,0-6,0-8.5c0-2.5,0-5.3,0-8.5c-0.7,0-1.3,0.1-2,0.4l-1.9,0.8
	c-0.7,0.3-1.3,0.6-2,0.9c-0.7,0.3-1.4,0.4-2.2,0.4c-0.6,0-1.1-0.1-1.6-0.3c-0.5-0.2-1-0.4-1.5-0.7c-0.4-0.3-0.8-0.7-1.1-1.2
	c-0.3-0.4-0.4-1-0.4-1.6c0-0.1,0-0.2,0-0.3C15,23.4,15,23.3,15.1,23.3L15.1,23.3z M42.9,6.4c0.4-0.4,0.9-0.6,1.4-0.6
	c0.6,0,1.1,0.2,1.5,0.6c0.4,0.4,0.6,0.9,0.6,1.4c0,0.6-0.2,1.1-0.6,1.5c-0.4,0.4-0.9,0.6-1.5,0.6c-0.6,0-1-0.2-1.4-0.6
	s-0.6-0.9-0.6-1.4C42.3,7.3,42.5,6.8,42.9,6.4z"/>
</svg>
