<svg xmlns="http://www.w3.org/2000/svg" viewBox="0 0 64 48">
<path d="M5,46.2c1.2,1.2,2.6,1.8,4.3,1.8h45.6c0.8,0,1.5-0.2,2.3-0.5c0.7-0.3,1.4-0.7,1.9-1.3c0.5-0.5,0.9-1.1,1.3-1.9
	c0.3-0.7,0.4-1.5,0.4-2.4V30c0-0.5,0-1-0.1-1.4l-0.4-1.4L52.8,4.5c-0.4-1.3-1.2-2.4-2.3-3.2S48.1,0,46.7,0H17.4
	c-1.4,0-2.6,0.4-3.8,1.2s-1.9,1.9-2.4,3.2L3.8,27.2l-0.4,1.4C3.3,29,3.2,29.5,3.2,30v12C3.2,43.6,3.8,45,5,46.2z M8,30
	c0-0.3,0.1-0.6,0.4-0.9c0.2-0.2,0.5-0.4,0.9-0.4h45.6c0.3,0,0.6,0.1,0.8,0.4c0.3,0.2,0.4,0.5,0.4,0.9v12c0,0.3-0.1,0.6-0.4,0.9
	c-0.2,0.2-0.5,0.4-0.9,0.4H9.2c-0.3,0-0.6-0.1-0.9-0.4C8.1,42.6,8,42.3,8,41.9V30z M15.8,5.9c0.1-0.3,0.3-0.6,0.6-0.8
	c0.3-0.2,0.6-0.3,1-0.3h29.3c0.3,0,0.7,0.1,1,0.3c0.3,0.2,0.5,0.5,0.6,0.8L54.1,24H9.9L15.8,5.9z M37.1,38.1
	c0.6,0.6,1.3,0.9,2.1,0.9s1.6-0.3,2.1-0.9c0.6-0.6,0.8-1.3,0.8-2.1c0-0.8-0.3-1.5-0.9-2.1S40,33,39.2,33c-0.9,0-1.6,0.3-2.1,0.9
	s-0.9,1.3-0.9,2.1C36.2,36.8,36.5,37.5,37.1,38.1z M46.7,38.1c0.6,0.6,1.3,0.9,2.1,0.9s1.6-0.3,2.1-0.9c0.6-0.6,0.8-1.3,0.8-2.1
	c0-0.8-0.3-1.5-0.9-2.1c-0.6-0.6-1.3-0.9-2.1-0.9c-0.9,0-1.6,0.3-2.1,0.9c-0.6,0.6-0.9,1.3-0.9,2.1C45.8,36.8,46.1,37.5,46.7,38.1z"
	/>
</svg>
