<svg xmlns="http://www.w3.org/2000/svg" viewBox="0 0 64 48">
<path d="M18.3,3.5c-4.5,2.3-8.1,5.4-10.9,9.3s-4.2,7.8-4.2,11.9c0,4.1,0.8,7.8,2.3,11.1l0.8,1.8l5.2,0.8c0.6,2.1,1.7,3.8,3.4,5.2
	c1.7,1.4,3.7,2,5.9,2v1.2c0,0.3,0.1,0.6,0.4,0.9c0.2,0.2,0.5,0.4,0.9,0.4h2.4c0.3,0,0.6-0.1,0.8-0.4c0.2-0.2,0.3-0.5,0.3-0.9V25.2
	c0-0.3-0.1-0.6-0.3-0.9c-0.2-0.2-0.5-0.4-0.8-0.4H22c-0.3,0-0.6,0.1-0.9,0.4s-0.4,0.5-0.4,0.9v1.2c-1.8,0-3.4,0.4-4.8,1.3
	c-1.4,0.9-2.6,2-3.4,3.5L11.3,31c-0.6-1.9-0.9-4-0.9-6.2c0-2.2,0.7-4.4,2-6.6c1.3-2.2,3-4.1,5.1-5.7c2.1-1.6,4.4-2.9,6.9-3.9
	c2.6-1,5.1-1.4,7.6-1.4c2.5,0,5,0.5,7.6,1.4c2.6,1,4.9,2.3,7,3.9c2.1,1.6,3.8,3.5,5.1,5.7c1.3,2.2,2,4.4,2,6.7c0,2.3-0.3,4.3-1,6.1
	l-1.2,0.1c-0.9-1.4-2-2.6-3.4-3.5c-1.4-0.9-3-1.3-4.8-1.3v-1.2c0-0.3-0.1-0.6-0.4-0.9C42.6,24.1,42.3,24,42,24h-2.4
	c-0.3,0-0.6,0.1-0.8,0.4s-0.3,0.5-0.3,0.9v21.6c0,0.3,0.1,0.6,0.3,0.9c0.2,0.2,0.5,0.4,0.8,0.4H42c0.3,0,0.6-0.1,0.9-0.4
	c0.2-0.2,0.4-0.5,0.4-0.9v-1.2c2.3,0,4.2-0.7,5.9-2s2.8-3.1,3.4-5.2l5.2-0.8l0.8-1.8c1.5-3.3,2.3-6.8,2.3-10.6
	c0-2.3-0.4-4.5-1.2-6.7c-2.4-6.4-7.1-11.5-14-15.1C41.2,1.2,36.7,0,32,0C27.3,0,22.8,1.2,18.3,3.5z"/>
</svg>
