<svg xmlns="http://www.w3.org/2000/svg" viewBox="0 0 64 48">
<path d="M32,6.4C27.7,2.1,23.5,0,19.5,0c-4,0-7.3,1.1-9.9,3.3C8.2,4.4,7.1,6,6.3,7.8C5.4,9.7,5,11.8,5,14.1s0.3,4.3,1,6
	c1.4,3.4,3.4,6.3,5.8,8.8l18.5,18.4c0.5,0.5,1,0.7,1.6,0.7c0.6,0,1.2-0.3,1.8-0.7l18.4-18.4c1.4-1.4,2.6-2.9,3.6-4.3
	c2.2-3.5,3.3-6.7,3.3-9.8c0-5-1.5-8.8-4.6-11.4c-2.6-2.2-6-3.3-10-3.3C40.4,0,36.2,2.1,32,6.4L32,6.4z M10.7,9.7
	c1.5-3.3,4.5-4.9,8.9-4.9c1.9,0,4,0.9,6.3,2.6c0.9,0.8,1.8,1.4,2.6,2.2c0.8,0.8,1.4,1.4,1.8,2c0.4,0.6,1,0.8,1.8,0.8
	s1.4-0.3,1.8-0.8c0.4-0.5,1-1.2,1.7-2c3.2-3.2,6.2-4.8,8.8-4.8c2.8,0,5,0.6,6.5,1.9c1,0.8,1.8,1.8,2.4,3.1c0.6,1.3,0.9,2.8,0.9,4.5
	c0,1.7-0.3,3.1-0.9,4.4c-1.1,2.6-2.6,4.8-4.6,6.8L32,42.2L14.3,24.5c-1.4-1.6-2.7-3.5-3.7-5.8c-0.6-1.3-0.9-2.7-0.9-4.4
	C9.8,12.6,10.1,11.1,10.7,9.7L10.7,9.7z"/>
</svg>
