<svg xmlns="http://www.w3.org/2000/svg" viewBox="0 0 64 48">
<path d="M3.9,47.3C4.4,47.7,5,48,5.7,48h12c0.7,0,1.3-0.2,1.7-0.7c0.5-0.5,0.7-1,0.7-1.7v-12c0-0.7-0.2-1.3-0.7-1.7
	c-0.5-0.5-1-0.7-1.7-0.7h-4.2v-4.8c0-0.4,0.2-0.6,0.6-0.6h16.2v5.4H26c-0.6,0-1.2,0.2-1.7,0.7s-0.7,1-0.7,1.7v12
	c0,0.7,0.2,1.3,0.7,1.7c0.5,0.5,1,0.7,1.7,0.7h12c0.6,0,1.2-0.2,1.7-0.7c0.5-0.5,0.7-1,0.7-1.7v-12c0-0.7-0.2-1.3-0.7-1.7
	c-0.5-0.5-1-0.7-1.7-0.7h-4.2v-5.4H50c0.4,0,0.6,0.2,0.6,0.6v4.8h-4.2c-0.7,0-1.2,0.2-1.7,0.7c-0.4,0.5-0.7,1-0.7,1.7v12
	c0,0.7,0.2,1.3,0.7,1.7c0.4,0.5,1,0.7,1.7,0.7h12c0.6,0,1.2-0.2,1.7-0.7c0.5-0.5,0.7-1,0.7-1.7v-12c0-0.7-0.2-1.3-0.7-1.7
	c-0.5-0.5-1-0.7-1.7-0.7h-4.2v-4.8c0-1.2-0.4-2.1-1.2-2.9c-0.8-0.8-1.8-1.2-3-1.2H33.8v-5.4H38c0.6,0,1.2-0.2,1.7-0.7
	c0.5-0.4,0.7-1,0.7-1.7v-12c0-0.6-0.2-1.2-0.7-1.7C39.2,0.2,38.7,0,38,0H26c-0.6,0-1.2,0.2-1.7,0.7s-0.7,1-0.7,1.7v12
	c0,0.7,0.2,1.2,0.7,1.7c0.5,0.4,1,0.7,1.7,0.7h4.2v5.4H14c-1.2,0-2.1,0.4-3,1.2c-0.8,0.8-1.2,1.8-1.2,2.9v4.8H5.7
	c-0.7,0-1.3,0.2-1.7,0.7c-0.5,0.5-0.7,1-0.7,1.7v12C3.2,46.2,3.5,46.8,3.9,47.3z"/>
</svg>
