<svg xmlns="http://www.w3.org/2000/svg" viewBox="0 0 64 48">
<path d="M45.4,5.3c0-1.1-1.4-2.3-4.1-3.5C38.5,0.6,35.5,0,32,0c-3.5,0-6.5,0.6-9.3,1.9c-2.8,1.3-4.1,2.4-4.1,3.5V11
	c0,1.1,0.5,2.3,1.5,3.6c1,1.3,2,2.4,3.2,3.4c1.1,1,2.2,2,3.2,3.1c1,1.1,1.5,2,1.5,2.9c0,0.8-0.5,1.7-1.5,2.9c-1,1.1-2,2.1-3.2,3.1
	c-1.1,1-2.2,2.1-3.2,3.4c-1,1.3-1.5,2.6-1.5,3.7v5.6c0,1.1,1.4,2.2,4.1,3.5c2.8,1.2,5.9,1.9,9.3,1.9c3.5,0,6.5-0.6,9.3-1.9
	c2.8-1.2,4.1-2.4,4.1-3.5v-5.6c0-1.1-0.5-2.4-1.5-3.7c-1-1.3-2-2.4-3.2-3.4c-1.1-1-2.2-2-3.2-3.1c-1-1.1-1.5-2-1.5-2.9
	c0-0.8,0.5-1.7,1.5-2.9c1-1.1,2-2.1,3.2-3.1c1.1-1,2.2-2.1,3.2-3.4c1-1.3,1.5-2.5,1.5-3.6V5.3z M32.1,3c1.5,0,3.2,0.2,4.8,0.7
	s2.8,0.8,3.4,1.1c0.7,0.3,1.1,0.5,1.4,0.7c1.1,0.6,1.4,1.1,0.8,1.5c-2.7,1.7-6.2,2.5-10.4,2.5c-4,0-7.4-0.9-10.4-2.6
	c-0.4-0.1-0.4-0.5-0.1-0.8l0.7-0.5C25,3.8,28.3,3,32.1,3z M33.2,24c0,0.5,0.1,0.9,0.2,1.4c0.2,0.5,0.3,0.8,0.5,1.1
	c0.2,0.3,0.5,0.8,0.8,1.2c0.5,0.5,0.8,0.8,1,1.1l1.2,1.1l1.2,1.1c2.9,2.8,4.4,4.7,4.4,5.9V40c-0.2-0.1-1.3-0.5-3.2-1.1
	c-1.9-0.7-3.4-1.4-4.4-2.1c-1.1-0.8-1.7-1.7-1.7-2.8c0-0.6-0.2-1.1-0.6-1.3c-0.4-0.2-0.8-0.2-1.2,0c-0.4,0.2-0.6,0.7-0.6,1.3
	c0,1.1-0.5,2-1.7,2.8c-1.1,0.8-2.6,1.5-4.4,2.1c-1.9,0.6-3,1-3.2,1.1v-3.2c0-1.1,1.4-3.1,4.4-5.9l1.2-1.1l1.2-1.1
	c0.2-0.2,0.5-0.6,1-1.1c0.5-0.5,0.7-0.9,0.8-1.2c0.1-0.4,0.3-0.8,0.5-1.1c0.1-0.5,0.2-1,0.2-1.4c0-0.5-0.1-1-0.2-1.4
	c-0.2-0.5-0.3-0.9-0.5-1.1c-0.2-0.4-0.4-0.8-0.8-1.3c-0.5-0.5-0.8-0.8-1-1L27.1,18l-1.2-1.1c-2.9-2.7-4.4-4.7-4.4-5.8l-0.2-2.4
	c3.2,1.7,6.7,2.6,10.6,2.6c4,0,7.5-0.9,10.6-2.6l-0.2,2.4c0,1.1-1.4,3.1-4.4,5.8L36.9,18l-1.2,1.2c-0.2,0.2-0.5,0.5-1,1
	c-0.5,0.5-0.7,0.9-0.8,1.3c-0.2,0.3-0.4,0.7-0.5,1.1C33.3,23,33.2,23.4,33.2,24L33.2,24z"/>
</svg>
