<svg xmlns="http://www.w3.org/2000/svg" viewBox="0 0 64 48">
<path d="M56,41.9V6c0-0.9-0.2-1.6-0.5-2.4c-0.3-0.7-0.8-1.4-1.3-1.9c-0.5-0.5-1.2-1-1.9-1.3C51.5,0.2,50.8,0,49.9,0H14
	c-0.8,0-1.6,0.2-2.3,0.5C11,0.8,10.3,1.2,9.8,1.8c-0.5,0.5-1,1.2-1.3,1.9C8.2,4.4,8,5.2,8,6v35.9c0,0.8,0.2,1.6,0.5,2.3
	c0.3,0.7,0.7,1.4,1.3,1.9c0.5,0.5,1.2,1,1.9,1.3c0.7,0.3,1.5,0.5,2.3,0.5h36c1.7,0,3.1-0.6,4.3-1.8C55.4,45,56,43.6,56,41.9z
	 M49.8,36.4l-17.9,6.1l-17.9-6.1V12l17.9-5.9L49.8,12V36.4z M30.1,23.7c-0.5,0.5-0.7,1.2-0.7,2.2v9.6L24.4,36V13.1l5.1-0.5v7.5
	c0.5-0.5,1.1-0.9,1.8-1.2c0.7-0.3,1.5-0.4,2.2-0.4c4.1,0,6.1,2.4,6.1,7.1v9.9L34.5,36V25.9c0-1-0.2-1.7-0.7-2.2
	C33.4,23.3,32.7,23,32,23C31.2,23,30.6,23.3,30.1,23.7z"/>
</svg>
