<svg xmlns="http://www.w3.org/2000/svg" viewBox="0 0 64 48">
<path d="M16.2,45.4c0-0.1,0-0.2,0-0.3c-0.3,0-0.5,0-0.7,0.1c0,0,0-0.1-0.1-0.1c1.2-1.4,2.7-2.3,4.6-2.7c-0.2-0.6-0.3-1.2-0.5-1.8
	c-0.4-1.3-0.8-2.6-1.2-3.9c-0.2-0.6,0-1.1,0.2-1.6c0.5-1.2,1.4-2.3,2.3-3.3c1.5-1.6,3.2-3.1,5-4.4c0.5-0.4,1.1-0.4,1.7-0.4
	c1.5,0.1,2.8,0.7,3.8,1.9c0.4,0.5,0.5,1,0.3,1.6c-0.5,1.7-1.4,3.1-2.6,4.3c-1.2,1.1-2.2,2.4-3.3,3.6c-0.5,0.6-0.6,1.3-0.6,2.1
	c0,1.5,0,3,0,4.5c0,0.3-0.1,0.4-0.4,0.4c-2.7,0-5.4,0-8.1,0C16.3,45.4,16.2,45.4,16.2,45.4z M33.9,16.6c-0.5,0.3-1,0.8-0.5,1.8
	c0.4,0.6,1.1,1.8,1.5,2.4c0.5,0.9,0.9,0.8,1.9,0.5l0.1-0.1c0.6-0.8,2.2-4.4,1.9-4.5c0,0-2-0.4-4.6-0.1L33.9,16.6z M28,38.7
	c0.1,0.6,0.3,1.1,0.5,1.6c0.1,0.2,0,0.3-0.2,0.4c-0.3,0.1-0.7,0.3-1,0.5c-0.7,0.5-1.4,1-1.8,1.8c0.2,0,0.4,0.1,0.5,0.1
	c0,0.1-0.1,0.2-0.1,0.3c2.2,0,4.4,0,6.7,0c0-0.9,0-1.7,0-2.6C31,40.4,29.3,40,28,38.7z M55.9,30.3c-0.4,3.4-3,7.7-4.2,8.7
	c-3.1,2.7-8.7,2.7-8.7,2.7c-1.6,0.1-3.2-0.1-4.9-0.3c-1.9-0.2-3.7-0.7-5.4-1.3c-1.8-0.6-3.5-1.5-5-2.8c-0.1-0.1-0.1-0.1-0.2-0.2
	c0.4-0.3,0.8-0.6,1.2-0.9c1.4-1.2,2.5-2.6,3.2-4.4c0.3-0.8,0.4-1.7,0.4-2.5c0-0.4-0.3-0.8-0.5-1.2c-0.8-1.3-3.9-2.7-5.6-2
	c-0.8,0.2-1.3,0.6-1.8,1C23.2,28,22.1,29,21,29.9c-0.1,0.1-0.3,0.2-0.4,0.4c-0.7-1.1-1.2-2.4-1.3-3.7c-0.1-1.1-0.2-2.1,0.2-3.2
	c0-0.1-0.1-0.3-0.1-0.5c-0.2-0.5-0.5-1.2-0.4-1.9c0-0.1,0.4-0.2,0.7-0.3c0.3-0.1,0.6-0.3,1-0.4c0.6-0.3,0.9-0.4,1.3-0.7
	c0.9-0.5,1.3-0.7,2-1.3c1.3-0.9,2.2-3.4,0.9-5.4c-0.5-0.7-1.4-1.4-2.1-1.5c-0.9-0.1-1.3-0.1-2,0.5c-0.1,0.1-0.8,0.9-0.9,0.9
	c-0.1-0.5-0.1-1.9-0.2-2.4c0-0.2-0.2-0.4-0.5-0.4c-0.6-0.1-1.3-0.2-1.9-0.3c-0.6,0-0.9-0.4-1.1-0.9c1.2-0.1,1.7-1.1,2.5-1.9
	c-1.1,0-2.8,0.7-3.3,1.2c-1.3-0.6-1.8-1.1-1.5-2.6c0.1-0.4,0.3-0.6,0.6-0.7C15,4.8,15.5,4.5,16,4.1c0.5-0.4,1-0.8,1.5-1.2
	c0.1-0.1,0.3-0.1,0.4-0.2c1.4-0.3,2.7-0.3,4.1,0.1C22.7,3,23.2,3.3,23.5,4c2.9,5,5.9,9.9,8.9,14.9c1.9,3.1,4,6.2,6,9.3
	c0.9,1.4,1.9,2.7,2.9,4c0.8,1.1,1.8,1.7,3.1,1.9c1.8,0.3,3.4-0.1,4.8-1.3c1.3-1.1,1.5-2.6,1.4-4.2c-0.1-0.7-0.4-1.3-0.8-1.8
	c-1.9-2.2-3.9-4.3-5.8-6.5c-1.1-1.3-2.2-2.5-3.1-3.9c-0.8-1-1.1-2.3-1.3-3.6c-0.4-2.5,0.3-4.6,1.9-6.5C41.7,6,42,5.8,42.2,5.6
	c0.2-0.1,0.6-0.1,0.8-0.1c0.3,0,0.4,0.2,0.3,0.5c-0.3,1-0.6,2-0.9,3c-0.1,0.3-0.1,0.6-0.2,0.8c-0.4,1.7,0.3,3.2,1.2,4.5
	c1.2,1.7,2.8,2.9,4.3,4.2c1.2,1,2.5,2,3.7,3c0.6,0.5,1.3,1,1.9,1.6C55.4,25.2,56.3,27.6,55.9,30.3z M18.4,4.5
	c-0.1-0.2-0.1-0.4-0.2-0.6c0,0-0.3,0-0.4,0.1c-0.1,0.1-0.2,0.4-0.1,0.5c0.2,0.1,0.4,0.1,0.6,0.2C18.3,4.6,18.4,4.6,18.4,4.5z
	 M30.2,10.5c-0.5,0.3-1,0.8-0.5,1.8c0.4,0.6,1.1,1.8,1.5,2.4c0.5,0.9,0.9,0.8,1.9,0.5l0.1-0.1c0.6-0.8,2.2-4.4,1.9-4.5
	c0,0-2-0.4-4.6-0.1L30.2,10.5z M37.3,22.2c-0.4,0.3-0.9,0.7-0.4,1.5c0.4,0.5,0.9,1.5,1.3,2c0.4,0.7,0.7,0.7,1.5,0.4l0-0.1
	c0.5-0.6,1.8-3.7,1.6-3.7c0,0-1.7-0.3-3.9-0.1L37.3,22.2z M40.5,27.6c-0.3,0.2-0.7,0.5-0.3,1.1c0.3,0.4,0.7,1.1,1,1.5
	c0.3,0.5,0.6,0.5,1.2,0.3l0,0c0.4-0.5,1.4-2.8,1.2-2.9c0,0-1.3-0.3-3-0.1L40.5,27.6z M27.3,7.2c-0.3,0.2-0.5,0.4-0.2,0.9
	c0.2,0.3,0.5,0.9,0.7,1.2c0.3,0.4,0.4,0.4,0.9,0.2l0,0c0.3-0.4,1.1-2.2,0.9-2.2C29.7,7.3,28.7,7.1,27.3,7.2L27.3,7.2z M19.3,14.2
	L16,16.6c0,0-5,0.7-6,1.4c-1.3,0.8-1.8,5-1.8,5l1.4-1.3l1.1,1.5l0.1-1.8l1.9,0.5l-1.1-1.4l5.7,0.2l0.9-0.2l2-0.9l0.3-0.1
	c0.9-0.5,1.4-0.8,2.8-1.6c0.7-0.4,1.3-1,1.5-1.8c0.1-0.5,0.2-0.9,0.1-1.4c-0.1-0.5-0.1-1.1-0.4-1.5c-0.5-0.7-1.3-1.1-2.2-1.2
	c-0.1,0-0.3,0.1-0.4,0.2c-0.6,0.5-1.2,0.9-1.7,1.4L19.3,14.2z"/>
</svg>
