<svg xmlns="http://www.w3.org/2000/svg" viewBox="0 0 64 48">
<path d="M36.6,48c0.2,0,0.5,0,0.9-0.1l0.8-0.1c0.2-0.5,0.3-1.5,0.5-3.1c-0.6-0.1-1.4-0.2-2.4-0.3c-1-0.1-2.2-0.3-3.5-0.6
	c0-0.2-0.1-0.4-0.1-0.5V43l0.4-1.4l1.3-7.4l1.2-4.9l2-9.7c0.2-1.1,0.5-2.5,0.9-4l1.2-5.5c0.3-2.1,0.7-3.9,1.2-5.3
	c0.8-0.3,1.9-0.6,3.2-0.9c1.3-0.3,2.5-0.7,3.5-1L48,1.9c0.2-0.6,0.3-1.1,0.4-1.3c0-0.2,0-0.4,0.1-0.6c-0.2,0-1.5,0.1-3.8,0.3
	c-2.3,0.2-4.5,0.3-6.5,0.3h-0.8c-0.4,0-0.9,0-1.5-0.1L25.7,0l-0.6,3.3c0.2,0,0.4,0,0.5,0c0.2,0,0.9,0.1,2.1,0.1
	c1.2,0.1,2.3,0.3,3.2,0.8v1.2l-1,5.8l-0.5,2l-1,4.9c0,0.1-0.2,0.7-0.6,2c-0.4,1.2-0.8,3.1-1.3,5.6l-0.4,2l-2.7,12.7
	c-0.3,1.3-0.7,2.4-1.3,3.2c-0.8,0.4-2.1,0.8-4,1.3c-1,0.2-1.7,0.4-2.2,0.6l-0.6,2.6c0.5,0,1.9-0.1,4.3-0.4c1.7-0.2,3.1-0.3,4.4-0.3
	l6.3,0.1c1.4,0.2,2.5,0.3,3.3,0.4c0.8,0.1,1.2,0.1,1.4,0.2c0.2,0,0.4,0.1,0.5,0.1H36.6L36.6,48z"/>
</svg>
