<svg xmlns="http://www.w3.org/2000/svg" viewBox="0 0 64 48">
<path d="M38.5,15.3C38.5,11,37,7.4,34,4.5C31,1.5,27.4,0,23.2,0C19,0,15.4,1.5,12.4,4.5c-3,3-4.5,6.6-4.5,10.8
	c0,4.2,1.5,7.8,4.5,10.8c3,3,6.6,4.5,10.8,4.5c1.7,0,3.3-0.3,4.8-0.8l3.5,3.5h7.4v7.4h7.4V48h9.8v-9.6L37.7,20.1
	C38.2,18.5,38.5,16.9,38.5,15.3z M16.4,15.6c-1-1-1.5-2.2-1.5-3.6s0.5-2.6,1.5-3.6c1-1,2.2-1.5,3.7-1.5c1.4,0,2.7,0.5,3.7,1.5
	c1,1,1.5,2.2,1.5,3.6s-0.5,2.6-1.5,3.6c-1,1-2.2,1.5-3.7,1.5C18.6,17.1,17.4,16.6,16.4,15.6z"/>
</svg>
