<svg xmlns="http://www.w3.org/2000/svg" viewBox="0 0 64 48">
<path d="M7.3,6.9c-1.1,0-2.1,0.4-2.9,1.2c-0.8,0.8-1.2,1.7-1.2,2.7v26.3c0,1,0.4,2,1.2,2.9c0.8,0.8,1.8,1.2,2.9,1.2h49.3
	c1.1,0,2.1-0.4,2.9-1.2c0.8-0.8,1.2-1.8,1.2-2.9V10.9c0-1-0.4-2-1.2-2.9c-0.8-0.8-1.8-1.2-2.9-1.2L7.3,6.9L7.3,6.9z M40.7,12.6v5.8
	h-5.8v-5.8H40.7z M43.5,26.9h-5.7v-5.8h5.7V26.9z M32,12.6v5.8h-5.8v-5.8H32z M34.8,26.9h-5.7v-5.8h5.7V26.9z M23.4,12.6v5.8h-5.7
	v-5.8H23.4z M26.3,26.9h-5.7v-5.8h5.7V26.9z M14.8,12.6v5.8H9v-5.8H14.8z M17.7,26.9h-5.8v-5.8h5.8V26.9z M9,35.6v-5.8h5.8v5.8H9z
	 M17.7,35.6v-5.8h28.7v5.8H17.7z M49.3,35.6v-5.8H55v5.8H49.3z M46.4,21.2h5.7v5.8h-5.7V21.2z M43.5,18.4v-5.8H55v5.8H43.5z"/>
</svg>
