<svg xmlns="http://www.w3.org/2000/svg" viewBox="0 0 64 48">
<path d="M15.7,35.5h32.6c1.3,0,2.4-0.5,3.4-1.4c0.9-0.9,1.4-2.1,1.4-3.4V9.6c0-1.3-0.5-2.4-1.4-3.4c-0.9-0.9-2.1-1.4-3.4-1.4H15.7
	c-1.3,0-2.4,0.5-3.4,1.4c-0.9,0.9-1.4,2.1-1.4,3.4v21.1c0,1.3,0.5,2.4,1.4,3.4C13.3,35,14.4,35.5,15.7,35.5L15.7,35.5z M15.1,9
	c0.2-0.2,0.4-0.3,0.7-0.3h32.6c0.3,0,0.5,0.1,0.7,0.3c0.2,0.2,0.3,0.4,0.3,0.7v21.1c0,0.3-0.1,0.5-0.3,0.7c-0.2,0.2-0.4,0.3-0.7,0.3
	H15.7c-0.3,0-0.5-0.1-0.7-0.3c-0.2-0.2-0.3-0.4-0.3-0.7V9.6C14.8,9.4,14.9,9.2,15.1,9z M55.9,37.4H8.1H3.3v2.9c0,0.8,0.5,1.5,1.4,2
	c0.9,0.6,2.1,0.8,3.4,0.8h47.9c1.3,0,2.4-0.3,3.4-0.8c0.9-0.6,1.4-1.2,1.4-2v-2.9H55.9L55.9,37.4z M29.6,40.3
	c-0.3,0-0.4-0.2-0.4-0.5c0-0.3,0.1-0.5,0.4-0.5h4.9c0.3,0,0.4,0.2,0.4,0.5c0,0.3-0.1,0.5-0.4,0.5H29.6z"/>
</svg>
