<svg xmlns="http://www.w3.org/2000/svg" viewBox="0 0 64 48">
<path d="M22.1,20.5v25.1c0,0.6,0.2,1.2,0.7,1.7c0.5,0.5,1,0.7,1.7,0.7h33.9c0.6,0,1.2-0.2,1.7-0.7c0.5-0.5,0.7-1,0.7-1.7V20.5
	c0-0.7-0.2-1.3-0.7-1.8c-0.5-0.4-1-0.7-1.7-0.7H24.6c-0.7,0-1.3,0.2-1.7,0.7C22.4,19.2,22.1,19.7,22.1,20.5z M4,47.2
	C4.4,47.7,5,48,5.7,48H15c0.6,0,1.2-0.2,1.7-0.7c0.5-0.5,0.7-1.1,0.7-1.7V2.4c0-0.7-0.2-1.2-0.7-1.7C16.2,0.2,15.6,0,15,0H5.7
	C5,0,4.4,0.2,4,0.7c-0.5,0.4-0.7,1-0.7,1.7v43.2C3.3,46.2,3.5,46.8,4,47.2z M22.1,2.4v8.4c0,0.7,0.2,1.2,0.7,1.7s1,0.7,1.7,0.7h33.9
	c0.6,0,1.2-0.2,1.7-0.7s0.7-1,0.7-1.7V2.4c0-0.7-0.2-1.3-0.7-1.7c-0.5-0.5-1-0.7-1.7-0.7H24.6c-0.7,0-1.3,0.2-1.7,0.7
	C22.4,1.2,22.1,1.7,22.1,2.4z"/>
</svg>
