<svg xmlns="http://www.w3.org/2000/svg" viewBox="0 0 64 48">
<path d="M3.8,45.3c0.1,0.3,0.4,0.8,0.9,1.5s1.3,1,2.5,1.1h0.1c0.8,0,1.4-0.3,1.9-1c0.5-0.7,1-1.4,1.3-2l0.7-1.2l1.1-1.6
	c0.5-0.7,0.9-1.1,1.3-1.1c0.6,0,1.6,0.5,3.1,1.3l1.4,0.7c0.5,0.3,0.9,0.5,1.4,0.6c2.9,1.1,5.9,1.6,9.2,1.6c4.7,0,9.4-1.2,14.1-3.6
	c9.8-5.1,15.6-12.5,17.4-22.2c1.3-6.9,0.6-12.9-2-18.1C57.6,0.4,56.9,0,55.9,0c-1,0-2,0.3-2.9,1c-0.4,0.3-0.8,0.6-1.2,1.1
	c-0.4,0.4-0.8,0.8-1.2,1.2c-1.1,1.2-3.1,2-5.9,2.4c-1.2,0.2-2.5,0.3-3.9,0.4c-1.3,0-2.8,0.1-4.5,0.1c-1.7,0-3.5,0.1-5.4,0.2
	c-1.9,0.1-3.7,0.5-5.3,1.1c-5.5,1.9-9.8,4.9-12.9,9.1c-3.6,4.8-5,10.2-4,16.2C8.7,33.3,9,34,9.4,34.9c0.2,0.4,0.2,0.8,0.1,1.1
	c-0.1,0.3-0.3,0.6-0.8,1c-0.4,0.4-1,0.9-1.6,1.4c-0.7,0.5-1.3,1.2-2,1.9c-0.7,0.7-1.2,1.5-1.6,2.5C3.1,43.7,3.2,44.5,3.8,45.3
	L3.8,45.3z M15.3,31.7c-0.1-0.7,0.1-1.2,0.6-1.7c2-2.3,4.1-4.3,6.3-6c6.1-4.8,13.5-7,22.4-6.6c0.7,0,1.2,0.2,1.7,0.7
	c0.4,0.5,0.7,1.1,0.6,1.7c0,0.7-0.3,1.2-0.8,1.7c-0.5,0.5-1.1,0.7-1.7,0.6c-5.2-0.2-9.8,0.6-13.7,2.2c-3.9,1.7-7.6,4.6-11.2,8.8
	c-0.4,0.6-1,0.8-1.7,0.8c-0.7,0-1.3-0.2-1.7-0.6C15.6,32.9,15.4,32.4,15.3,31.7L15.3,31.7z"/>
</svg>
