<svg xmlns="http://www.w3.org/2000/svg" viewBox="0 0 64 48">
<path d="M37.9,11.2c-0.8-0.8-1.7-1.3-2.7-1.7c-1-0.3-2.1-0.5-3.1-0.5c-0.3,0-0.5,0.1-0.7,0.3c-0.2,0.2-0.3,0.4-0.3,0.7
	c0,0.3,0.1,0.5,0.3,0.7c0.2,0.2,0.4,0.3,0.7,0.3c1.1,0,2.2,0.3,3.3,0.8c1.1,0.5,1.7,1.3,1.7,2.2c0,0.3,0.1,0.5,0.3,0.7
	c0.2,0.2,0.4,0.3,0.7,0.3s0.5-0.1,0.7-0.3C39,14.5,39,14.3,39,14C39,12.9,38.7,12,37.9,11.2z M41.9,19.7c-0.2,0.3-0.5,0.6-1,1
	c-0.2,0.2-0.5,0.6-1,1c-2.6,3.2-4.1,6.3-4.3,9.3h-7.2c-0.3-3-1.7-6.1-4.3-9.3c-0.3-0.3-0.6-0.6-1-1c-0.2-0.2-0.5-0.6-1-1
	c-1.4-1.7-2.2-3.5-2.2-5.6c0-1.5,0.4-2.9,1.1-4.2c0.7-1.3,1.7-2.4,2.8-3.2c1.2-0.8,2.4-1.5,3.8-1.9C29.2,4.2,30.6,4,32.1,4
	c1.4,0,2.9,0.3,4.3,0.8c1.4,0.4,2.7,1.1,3.8,1.9c1.1,0.8,2.1,1.9,2.8,3.2c0.7,1.3,1.1,2.7,1.1,4.2C44.1,16.1,43.4,18,41.9,19.7z
	 M46.7,8.2C45.7,6.5,44.5,5,43,3.8S39.8,1.7,37.9,1C36,0.4,34,0,32,0c-2,0-3.9,0.3-5.8,1c-1.9,0.7-3.6,1.6-5.1,2.8
	c-1.5,1.2-2.7,2.6-3.6,4.4c-0.9,1.8-1.4,3.7-1.4,5.8c0,3.2,1.1,6,3.2,8.3c0.9,1.1,1.7,2,2.3,2.7c0.6,0.8,1.2,1.8,1.9,3
	c0.6,1.2,0.9,2.3,1,3.3c-1,0.6-1.5,1.4-1.5,2.6c0,0.8,0.3,1.4,0.8,2c-0.6,0.6-0.8,1.3-0.8,2c0,1.1,0.5,1.9,1.4,2.5
	c-0.3,0.5-0.4,1-0.4,1.5c0,1,0.3,1.7,1,2.2c0.7,0.5,1.5,0.8,2.4,0.8c0.4,0.9,1.1,1.7,1.9,2.2s1.7,0.8,2.7,0.8c1,0,1.9-0.3,2.7-0.8
	c0.9-0.6,1.5-1.3,1.9-2.2c0.9,0,1.7-0.3,2.4-0.8c0.7-0.5,1-1.3,1-2.2c0-0.5-0.1-0.9-0.4-1.4c0.9-0.6,1.4-1.5,1.4-2.6
	c0-0.8-0.3-1.4-0.8-2c0.6-0.6,0.8-1.3,0.8-2c0-1.1-0.5-2-1.5-2.6c0.1-1,0.4-2.1,1.1-3.3c0.6-1.2,1.2-2.2,1.8-3
	c0.6-0.7,1.4-1.6,2.4-2.7c2.1-2.4,3.2-5.2,3.2-8.4C48.1,11.9,47.6,10,46.7,8.2z"/>
</svg>
