<svg xmlns="http://www.w3.org/2000/svg" viewBox="0 0 64 48">
<path d="M32,31.6c2.1,0,3.9-0.7,5.4-2.2c1.5-1.5,2.2-3.3,2.2-5.4c0-2.1-0.7-3.9-2.2-5.4s-3.3-2.2-5.4-2.2c-2.1,0-3.9,0.7-5.4,2.2
	C25,20,24.3,21.8,24.3,24c0,2.1,0.7,3.9,2.2,5.4C28,30.9,29.8,31.6,32,31.6L32,31.6z M32,19c1.4,0,2.5,0.5,3.5,1.4
	c1,1,1.4,2.1,1.4,3.5c0,1.4-0.5,2.5-1.4,3.5c-1,0.9-2.1,1.4-3.5,1.4c-1.4,0-2.5-0.5-3.5-1.4S27,25.3,27,24c0-1.4,0.5-2.5,1.4-3.5
	C29.4,19.5,30.6,19,32,19z M17.6,25.9c0.7,0,1.2-0.2,1.7-0.5c0.4-0.4,0.7-0.8,0.7-1.4s-0.2-1-0.7-1.4c-0.4-0.4-1-0.5-1.7-0.5
	c-0.7,0-1.2,0.2-1.7,0.5c-0.4,0.4-0.7,0.8-0.7,1.4s0.2,1,0.7,1.4C16.3,25.7,16.9,25.9,17.6,25.9z M43.7,35.7
	c0.4-0.4,0.5-0.9,0.5-1.4c-0.1-0.6-0.3-1.1-0.8-1.6c-0.5-0.5-1-0.8-1.6-0.8c-0.6-0.1-1.1,0.1-1.4,0.5s-0.5,0.9-0.5,1.4
	c0.1,0.6,0.3,1.1,0.8,1.6c0.5,0.5,1,0.8,1.6,0.8C42.9,36.3,43.3,36.1,43.7,35.7z M46.3,25.9c0.7,0,1.2-0.2,1.7-0.5
	c0.4-0.4,0.7-0.8,0.7-1.4s-0.2-1-0.7-1.4c-0.4-0.4-1-0.5-1.7-0.5c-0.7,0-1.2,0.2-1.7,0.5C44.2,22.9,44,23.4,44,24s0.2,1,0.7,1.4
	C45.1,25.7,45.7,25.9,46.3,25.9z M32,12c0.6,0,1-0.2,1.4-0.7c0.4-0.5,0.5-1,0.5-1.7s-0.2-1.2-0.5-1.7C33,7.4,32.5,7.2,32,7.2
	s-1,0.2-1.4,0.7c-0.4,0.4-0.5,1-0.5,1.7s0.2,1.3,0.5,1.7C30.9,11.8,31.4,12,32,12z M20.5,15c0.5,0.5,1,0.7,1.6,0.8
	c0.6,0.1,1.1-0.1,1.4-0.5s0.5-0.9,0.5-1.4c-0.1-0.6-0.3-1.1-0.8-1.6c-0.5-0.5-1-0.7-1.6-0.8c-0.6-0.1-1.1,0.1-1.4,0.5
	c-0.4,0.4-0.5,0.9-0.5,1.4C19.8,14,20.1,14.5,20.5,15z M20.1,35.6c0.4,0.4,0.9,0.5,1.5,0.5c0.6-0.1,1.1-0.3,1.6-0.8
	c0.5-0.5,0.7-1,0.8-1.6c0.1-0.6-0.1-1.1-0.5-1.5c-0.4-0.4-0.9-0.5-1.4-0.5c-0.6,0.1-1.1,0.3-1.6,0.8c-0.5,0.5-0.8,1-0.8,1.6
	S19.7,35.2,20.1,35.6z M40.8,12.4c-0.5,0.5-0.7,1-0.8,1.6c-0.1,0.6,0.1,1.1,0.5,1.4s0.9,0.5,1.5,0.5s1.1-0.3,1.6-0.8
	c0.5-0.5,0.7-1,0.8-1.6c0.1-0.6-0.1-1.1-0.5-1.5s-0.9-0.5-1.5-0.5C41.8,11.6,41.3,11.9,40.8,12.4z M32,35.9c-0.6,0-1,0.2-1.4,0.7
	c-0.4,0.5-0.5,1-0.5,1.7s0.2,1.2,0.5,1.7c0.4,0.4,0.8,0.7,1.4,0.7s1-0.2,1.4-0.7c0.4-0.4,0.5-1,0.5-1.7s-0.2-1.3-0.5-1.7
	C33,36.2,32.5,35.9,32,35.9z"/>
</svg>
