<svg xmlns="http://www.w3.org/2000/svg" viewBox="0 0 64 48">
<path d="M53.2,25.9c0.7,0,1.3-0.2,1.7-0.6c0.5-0.4,0.7-0.8,0.7-1.4s-0.2-1-0.7-1.3c-0.5-0.4-1-0.5-1.7-0.5h-2.3
	c-0.7,0-1.3,0.2-1.7,0.5c-0.5,0.4-0.7,0.8-0.7,1.3s0.2,1,0.7,1.4c0.5,0.4,1,0.6,1.7,0.6H53.2z M31.7,37.1c3.7,0,6.8-1.3,9.3-3.8
	c2.6-2.6,3.8-5.7,3.8-9.4s-1.3-6.8-3.8-9.3c-2.6-2.5-5.7-3.8-9.3-3.8s-6.8,1.3-9.3,3.8s-3.8,5.6-3.8,9.3s1.3,6.8,3.8,9.4
	C24.9,35.8,28,37.1,31.7,37.1z M31.7,14.4c2.6,0,4.9,0.9,6.8,2.8c1.9,1.9,2.8,4.1,2.8,6.7c0,2.6-0.9,4.9-2.8,6.8
	c-1.9,1.9-4.1,2.8-6.8,2.8c-2.6,0-4.9-0.9-6.8-2.8c-1.9-1.9-2.8-4.1-2.8-6.8c0-2.6,0.9-4.9,2.8-6.8C26.8,15.3,29,14.4,31.7,14.4
	L31.7,14.4z M14.9,23.9c0-0.6-0.2-1-0.7-1.4c-0.4-0.4-1-0.5-1.7-0.5h-2.4c-0.7,0-1.3,0.2-1.7,0.5c-0.5,0.4-0.7,0.8-0.7,1.4
	s0.2,1,0.7,1.4c0.5,0.4,1,0.5,1.7,0.5h2.4c0.7,0,1.2-0.2,1.7-0.5C14.7,24.9,14.9,24.5,14.9,23.9z M31.7,40.7c-0.6,0-1,0.2-1.4,0.7
	c-0.4,0.5-0.5,1-0.5,1.7v2.4c0,0.7,0.2,1.3,0.5,1.7c0.4,0.5,0.8,0.7,1.4,0.7s1-0.2,1.4-0.7c0.4-0.5,0.5-1,0.5-1.7V43
	c0-0.6-0.2-1.2-0.5-1.7C32.7,40.9,32.2,40.7,31.7,40.7z M31.7,7.1c0.6,0,1-0.2,1.4-0.7c0.4-0.4,0.5-1,0.5-1.7V2.4
	c0-0.7-0.2-1.3-0.5-1.7C32.7,0.2,32.2,0,31.7,0s-1,0.2-1.4,0.7c-0.4,0.5-0.5,1-0.5,1.7v2.4c0,0.7,0.2,1.2,0.5,1.7
	C30.7,6.9,31.1,7.1,31.7,7.1z M49.3,38.9l-1.7-1.7c-0.5-0.5-1.1-0.7-1.6-0.8c-0.6-0.1-1.1,0.1-1.4,0.5s-0.5,0.9-0.5,1.4
	c0.1,0.6,0.4,1.1,0.9,1.6l1.7,1.7c0.5,0.5,1,0.7,1.6,0.8c0.6,0.1,1.1-0.1,1.4-0.5c0.4-0.4,0.5-0.9,0.5-1.4S49.8,39.3,49.3,38.9z
	 M15.7,10.7c0.5,0.5,1.1,0.7,1.6,0.8s1.1-0.1,1.4-0.5c0.4-0.4,0.5-0.9,0.5-1.4C19.2,9,18.9,8.4,18.4,8l-1.7-1.7
	c-0.5-0.5-1-0.7-1.6-0.8c-0.6-0.1-1.1,0.1-1.4,0.5c-0.4,0.4-0.5,0.9-0.5,1.4C13.3,8,13.6,8.5,14.1,9L15.7,10.7z M16.8,41.6l1.7-1.7
	c0.5-0.5,0.8-1,0.9-1.6c0.1-0.6-0.1-1.1-0.5-1.4c-0.4-0.4-0.9-0.5-1.4-0.5c-0.6,0.1-1.1,0.3-1.6,0.8l-1.7,1.7
	c-0.5,0.5-0.7,1-0.8,1.6c-0.1,0.6,0.1,1.1,0.5,1.4c0.4,0.4,0.9,0.5,1.4,0.5C15.8,42.3,16.3,42,16.8,41.6z M45,8
	c-0.5,0.5-0.8,1-0.9,1.6c-0.1,0.6,0.1,1.1,0.5,1.4c0.4,0.4,0.9,0.5,1.4,0.5c0.6-0.1,1.1-0.3,1.6-0.8L49.3,9c0.5-0.5,0.7-1,0.8-1.6
	C50.2,6.9,50,6.4,49.6,6c-0.4-0.4-0.9-0.5-1.4-0.5c-0.6,0.1-1.1,0.3-1.6,0.8L45,8z"/>
</svg>
