<svg xmlns="http://www.w3.org/2000/svg" viewBox="0 0 64 48">
<path d="M10.7,8.1c0.3,0.7,0.7,1.3,1.3,1.8c0.5,0.5,1.1,0.9,1.8,1.3c0.7,0.3,1.5,0.5,2.2,0.5c0.8,0,1.5-0.2,2.3-0.5
	c0.7-0.3,1.3-0.7,1.9-1.3c0.5-0.5,1-1.1,1.3-1.8s0.4-1.5,0.4-2.2c0-0.8-0.1-1.5-0.4-2.3c-0.3-0.7-0.7-1.3-1.3-1.9S19,0.8,18.3,0.5
	C17.6,0.2,16.8,0,16,0c-0.8,0-1.5,0.2-2.2,0.5c-0.7,0.3-1.3,0.7-1.8,1.3S11,2.9,10.7,3.6c-0.3,0.7-0.5,1.5-0.5,2.3
	C10.2,6.6,10.4,7.4,10.7,8.1z M10.9,47.5c0.3,0.3,0.5,0.4,0.9,0.4h8.6c0.3,0,0.6-0.1,0.9-0.4c0.3-0.3,0.4-0.5,0.4-0.9V16.4
	c0-0.3-0.1-0.6-0.4-0.9c-0.3-0.2-0.5-0.4-0.9-0.4h-8.6c-0.3,0-0.6,0.1-0.9,0.4s-0.4,0.5-0.4,0.9v30.3C10.5,47,10.6,47.3,10.9,47.5z
	 M26.6,47.5c0.3,0.3,0.5,0.4,0.9,0.4h8.6c0.3,0,0.6-0.1,0.9-0.4c0.3-0.3,0.4-0.5,0.4-0.9V30.2c0-1,0.1-1.9,0.2-2.7
	c0.2-0.8,0.5-1.6,0.9-2.2c0.4-0.6,1-1.1,1.7-1.4c0.7-0.4,1.6-0.5,2.7-0.5c1.7,0,2.8,0.4,3.4,1.2c0.6,0.8,0.8,2,0.8,3.5v18.5
	c0,0.3,0.1,0.6,0.4,0.9c0.2,0.3,0.5,0.4,0.8,0.4h8.8c0.3,0,0.6-0.1,0.9-0.4c0.3-0.3,0.4-0.5,0.4-0.9V26.2c0-4-1.2-7-3.5-9
	c-2.3-1.9-5.4-2.9-9.3-2.9c-1.6,0-3.1,0.2-4.6,0.7c-1.5,0.5-2.8,1.2-4,2.3c0-0.5,0-1-0.1-1.5s-0.5-0.8-1.1-0.8h-8.3
	c-0.3,0-0.6,0.1-0.9,0.4c-0.3,0.3-0.4,0.5-0.4,0.9v30.3C26.2,47,26.4,47.3,26.6,47.5z"/>
</svg>
