<svg xmlns="http://www.w3.org/2000/svg" viewBox="0 0 64 48">
<path d="M56,35.1c0-1.7-0.3-3.4-1-5c-0.7-1.6-1.6-3-2.9-4.2l-9.1-9.2c-1.2-1.2-2.6-2.1-4.2-2.8c-1.6-0.7-3.2-1-5-1
	c-0.5,0-1.2,0.1-2.2,0.2c-1,0.2-2,0.5-2.9,0.8c-1,0.3-1.8,0.7-2.6,1.1c-0.7,0.5-1.1,1-1.1,1.6c0,0.3,0.2,0.8,0.7,1.3
	c0.5,0.5,0.9,1.1,1.5,1.6c0.7,0.6,1.2,1.1,1.7,1.5c0.5,0.4,0.9,0.7,1.1,0.7c0.3,0,0.8-0.1,1.4-0.4c0.6-0.3,1.4-0.5,2.2-0.5
	c0.7,0,1.4,0.1,2,0.4c0.7,0.2,1.2,0.6,1.6,1.1l5.5,5.4c0.5,0.5,1.1,1.1,1.7,1.6c0.6,0.5,1.1,1,1.7,1.7c0.5,0.6,1,1.2,1.3,2
	c0.4,0.7,0.6,1.4,0.6,2.3c0,0.8-0.2,1.4-0.5,2c-0.2,0.6-0.6,1.1-1.1,1.7c-0.4,0.5-1,0.8-1.6,1c-0.6,0.2-1.3,0.4-2,0.4
	s-1.3-0.1-1.7-0.3s-0.9-0.5-1.3-0.7c-0.4-0.2-0.7-0.5-0.9-0.7c-0.3-0.2-0.5-0.3-0.8-0.3s-0.4,0.1-0.5,0.2c-0.9,0.4-1.7,0.7-2.6,1
	c-0.8,0.2-1.7,0.5-2.7,0.7c-0.4,0.1-0.6,0.2-0.7,0.3c-0.2,0.2-0.4,0.6-0.4,1c0,0.2,0.1,0.5,0.2,0.7c0.2,0.2,0.4,0.5,0.7,0.8l0.8,0.8
	l0.7,0.7c1.1,1.1,2.6,2,4.1,2.7c1.7,0.7,3.3,1,5,1c1.8,0,3.5-0.4,5-1.1c1.5-0.7,2.9-1.6,4-2.7c1.2-1.2,2.1-2.6,2.8-4.1
	C55.6,38.6,56,36.9,56,35.1L56,35.1z M38.7,31.3c0-0.2-0.2-0.7-0.7-1.3c-0.4-0.5-1-1.1-1.5-1.7c-0.6-0.5-1.1-1-1.7-1.5
	s-0.9-0.6-1.2-0.6c-0.4,0-0.8,0.2-1.4,0.5c-0.6,0.4-1.3,0.5-2.2,0.5c-1.4,0-2.6-0.5-3.7-1.5L21,20.3l-1.7-1.5l-1.7-1.7
	c-0.5-0.5-1-1.2-1.4-1.9c-0.4-0.8-0.5-1.5-0.5-2.3c0-1.4,0.5-2.6,1.5-3.6c1-1,2.2-1.5,3.7-1.5c0.7,0,1.3,0.1,1.7,0.3
	s0.9,0.5,1.3,0.7c0.2,0.2,0.5,0.4,0.9,0.7c0.2,0.2,0.5,0.3,0.8,0.3c0.1,0,0.2-0.1,0.5-0.1c0.9-0.5,1.7-0.8,2.6-1.1
	c0.8-0.2,1.7-0.5,2.7-0.7c0.4-0.1,0.6-0.2,0.7-0.4c0.2-0.2,0.4-0.5,0.4-0.8c0-0.2-0.1-0.5-0.3-0.8c-0.2-0.3-0.5-0.5-0.7-0.8
	c-0.2-0.3-0.4-0.5-0.8-0.8S30.2,4.1,30,3.8c-1.2-1.2-2.6-2.1-4.2-2.9c-1.6-0.6-3.2-1-5-1s-3.5,0.4-5,1.1c-1.5,0.7-2.9,1.6-4.1,2.7
	C10.6,5,9.6,6.3,9,7.9c-0.6,1.6-1,3.2-1,5c0,1.7,0.3,3.4,1,5s1.7,3,2.9,4.2l9.1,9.2c1.2,1.2,2.6,2.1,4.2,2.8c1.6,0.7,3.2,1,5,1
	c0.5,0,1.3-0.1,2.2-0.3c1-0.2,2-0.5,2.9-0.8c1-0.4,1.8-0.8,2.5-1.1C38.3,32.3,38.7,31.9,38.7,31.3L38.7,31.3z"/>
</svg>
