<svg xmlns="http://www.w3.org/2000/svg" viewBox="0 0 64 48">
<path d="M8,41.9c0,1.7,0.6,3.1,1.8,4.3c1.2,1.2,2.6,1.8,4.3,1.8h35.9c0.8,0,1.6-0.2,2.3-0.5c0.7-0.3,1.4-0.7,1.9-1.3
	c0.5-0.5,1-1.2,1.3-1.9s0.5-1.5,0.5-2.4V6c0-1.7-0.6-3.1-1.8-4.3S51.6,0,49.9,0H14.1c-0.9,0-1.6,0.2-2.4,0.5
	C11,0.8,10.3,1.2,9.8,1.8c-0.5,0.5-1,1.2-1.3,1.9C8.2,4.4,8,5.2,8,6V41.9L8,41.9z M15.7,7.8c0.8-0.8,1.8-1.2,3-1.2
	c1.2,0,2.2,0.4,3,1.2c0.8,0.8,1.2,1.8,1.2,3c0,1.2-0.4,2.2-1.2,3c-0.8,0.8-1.8,1.2-3,1.2c-1.1,0-2.1-0.4-3-1.2
	c-0.8-0.8-1.2-1.8-1.2-3C14.5,9.6,14.9,8.6,15.7,7.8z M14.7,40.4v-22c0-0.2,0.1-0.5,0.3-0.6c0.2-0.2,0.4-0.3,0.6-0.3h6.2
	c0.6,0,0.9,0.3,0.9,0.9v22c0,0.2-0.1,0.4-0.3,0.6c-0.2,0.2-0.4,0.3-0.6,0.3h-6.2c-0.2,0-0.4-0.1-0.6-0.3
	C14.8,40.8,14.7,40.6,14.7,40.4L14.7,40.4z M26.1,40.4v-22c0-0.2,0.1-0.5,0.3-0.6c0.2-0.2,0.4-0.3,0.6-0.3h6.1
	c0.5,0,0.7,0.2,0.8,0.6c0.1,0.4,0.1,0.7,0.1,1.1c0.9-0.9,1.8-1.4,2.9-1.7c1.1-0.3,2.2-0.5,3.4-0.5c2.8,0,5.1,0.7,6.7,2.1
	c1.7,1.4,2.5,3.6,2.5,6.5v14.9c0,0.2-0.1,0.4-0.3,0.6c-0.2,0.2-0.4,0.3-0.6,0.3h-6.4c-0.3,0-0.5-0.1-0.7-0.3s-0.3-0.4-0.3-0.6V27
	c0-1.1-0.2-2-0.6-2.5c-0.4-0.6-1.3-0.9-2.5-0.9c-1.6,0-2.6,0.5-3.2,1.4c-0.6,0.9-0.8,2.1-0.8,3.5v11.9c0,0.2-0.1,0.4-0.3,0.6
	c-0.2,0.2-0.4,0.3-0.6,0.3H27c-0.2,0-0.4-0.1-0.6-0.3C26.2,40.8,26.1,40.6,26.1,40.4L26.1,40.4z"/>
</svg>
