<svg xmlns="http://www.w3.org/2000/svg" viewBox="0 0 64 48">
<path d="M3.2,29.4V30c0,0.2,0.1,0.4,0.1,0.6h9V27h-2v1.7H5.9c0-0.7,0.3-1.3,1-1.7c0.6-0.4,1.3-0.9,2.1-1.5c0.8-0.5,1.5-1.1,2.1-1.8
	c0.6-0.7,0.9-1.5,0.9-2.5c0-1.2-0.4-2.2-1.3-2.8c-0.9-0.7-1.9-1-3-1c-0.9,0-1.7,0.2-2.5,0.7c-0.7,0.4-1.4,1.1-1.8,1.9L5,21.2
	c0.3-0.4,0.6-0.8,1-1.2c0.4-0.3,0.9-0.4,1.4-0.4c0.6,0,1.1,0.1,1.4,0.4c0.4,0.3,0.5,0.8,0.5,1.4c0,0.7-0.3,1.3-1,1.7l-2.2,1.6
	c-0.8,0.5-1.5,1.1-2.1,1.9C3.6,27.4,3.2,28.3,3.2,29.4L3.2,29.4z M8.9,37.2l-2.8,3.4l0.5,1.2h0.7c0.7,0,1.3,0.2,1.8,0.5
	c0.5,0.4,0.7,0.9,0.7,1.5c0,0.6-0.2,1.1-0.6,1.5c-0.4,0.4-1,0.6-1.7,0.6c-0.4,0-0.8-0.1-1.2-0.2c-0.3-0.1-0.6-0.3-0.9-0.4
	C5.1,45.1,5,45,4.9,44.9c-0.1-0.1-0.2-0.2-0.4-0.3l-1.2,1.7c0.2,0.3,0.6,0.5,1.1,0.8c0.3,0.2,0.8,0.4,1.3,0.6
	C6.3,47.9,6.9,48,7.7,48c1.5,0,2.6-0.4,3.4-1.3c0.8-0.9,1.2-1.9,1.2-3c0-1.1-0.3-2-1-2.6c-0.7-0.6-1.5-1-2.3-1.1l3-3.6v-1.7H3.8v3.5
	h2v-1.5h3.5L8.9,37.2z M5.1,4.8L6,3.9C6.3,3.6,6.5,3.3,6.7,3h0.1v0.3v8.1H3.9v1.9H12v-1.9H9.1V0H7L3.7,3.2L5.1,4.8z M20.2,44.9
	c0.5,0.4,1,0.7,1.7,0.7h36.4c0.6,0,1.2-0.2,1.7-0.7c0.5-0.4,0.7-1,0.7-1.7v-3.6c0-0.7-0.2-1.3-0.7-1.7c-0.5-0.5-1-0.7-1.7-0.7H21.9
	c-0.7,0-1.3,0.2-1.7,0.7c-0.5,0.5-0.7,1-0.7,1.7v3.6C19.5,43.9,19.7,44.4,20.2,44.9z M20.2,27.6c0.5,0.5,1,0.7,1.7,0.7h36.4
	c0.6,0,1.2-0.2,1.7-0.7c0.5-0.5,0.7-1,0.7-1.7v-3.6c0-0.7-0.2-1.3-0.7-1.7c-0.5-0.5-1-0.7-1.7-0.7H21.9c-0.7,0-1.3,0.2-1.7,0.7
	c-0.5,0.5-0.7,1-0.7,1.7v3.6C19.5,26.5,19.7,27.1,20.2,27.6z M20.2,10.1c0.5,0.5,1,0.7,1.7,0.7h36.4c0.6,0,1.2-0.2,1.7-0.7
	c0.5-0.5,0.7-1,0.7-1.7V4.8c0-0.7-0.2-1.3-0.7-1.7c-0.5-0.5-1-0.7-1.7-0.7H21.9c-0.7,0-1.3,0.2-1.7,0.7c-0.5,0.5-0.7,1-0.7,1.7v3.6
	C19.5,9.1,19.7,9.7,20.2,10.1z"/>
</svg>
