<svg xmlns="http://www.w3.org/2000/svg" viewBox="0 0 64 48">
<path d="M4.2,47c0.7,0.7,1.5,1.1,2.5,1.1h50.5c1,0,1.8-0.4,2.5-1.1c0.7-0.7,1.1-1.5,1.1-2.5V3.6c0-1-0.4-1.8-1.1-2.5
	C59.1,0.4,58.2,0,57.3,0H6.7c-1,0-1.8,0.4-2.5,1.1C3.5,1.8,3.1,2.6,3.1,3.6v40.9C3.1,45.5,3.5,46.3,4.2,47z M8,9.6H56v33.7H8V9.6z
	 M14,38.5h4.8c0.3,0,0.6-0.1,0.9-0.4c0.2-0.2,0.4-0.5,0.4-0.9v-2.4c0-0.3-0.1-0.6-0.4-0.9c-0.2-0.2-0.5-0.4-0.9-0.4H14
	c-0.8,0-1.2,0.4-1.2,1.2v2.4C12.8,38.1,13.2,38.5,14,38.5z M14,28.9h4.8c0.3,0,0.6-0.1,0.9-0.4c0.2-0.2,0.4-0.5,0.4-0.9v-2.4
	c0-0.3-0.1-0.6-0.4-0.9c-0.2-0.2-0.5-0.4-0.9-0.4H14c-0.8,0-1.2,0.4-1.2,1.2v2.4C12.8,28.5,13.2,28.9,14,28.9z M14,19.2h4.8
	c0.3,0,0.6-0.1,0.9-0.4c0.2-0.2,0.4-0.5,0.4-0.9v-2.4c0-0.3-0.1-0.6-0.4-0.9c-0.2-0.2-0.5-0.4-0.9-0.4H14c-0.8,0-1.2,0.4-1.2,1.2V18
	C12.8,18.8,13.2,19.2,14,19.2z M24.8,37.3c0,0.3,0.1,0.6,0.3,0.9c0.2,0.2,0.5,0.4,0.8,0.4h24c0.8,0,1.2-0.4,1.2-1.2v-2.4
	c0-0.8-0.4-1.2-1.2-1.2H26c-0.3,0-0.6,0.1-0.8,0.4c-0.2,0.2-0.3,0.5-0.3,0.9V37.3L24.8,37.3z M24.8,27.6c0,0.3,0.1,0.6,0.3,0.9
	c0.2,0.2,0.5,0.4,0.8,0.4h24c0.8,0,1.2-0.4,1.2-1.2v-2.4c0-0.8-0.4-1.2-1.2-1.2H26c-0.3,0-0.6,0.1-0.8,0.4c-0.2,0.2-0.3,0.5-0.3,0.9
	V27.6L24.8,27.6z M24.8,18c0,0.3,0.1,0.6,0.3,0.9c0.2,0.2,0.5,0.4,0.8,0.4h24c0.8,0,1.2-0.4,1.2-1.2v-2.4c0-0.8-0.4-1.2-1.2-1.2H26
	c-0.3,0-0.6,0.1-0.8,0.4c-0.2,0.2-0.3,0.5-0.3,0.9V18L24.8,18z"/>
</svg>
