<svg xmlns="http://www.w3.org/2000/svg" viewBox="0 0 64 48">
<path d="M3.2,2.4V6c0,0.6,0.2,1.2,0.7,1.7s1,0.7,1.7,0.7h4.8c0.6,0,1.2-0.2,1.7-0.7s0.7-1,0.7-1.7V2.4c0-0.7-0.2-1.3-0.7-1.7
	S11,0,10.4,0H5.6C4.9,0,4.3,0.2,3.9,0.7S3.2,1.8,3.2,2.4z M3.2,15.6v3.6c0,0.7,0.2,1.3,0.7,1.7c0.5,0.5,1,0.7,1.7,0.7h4.8
	c0.6,0,1.2-0.2,1.7-0.7c0.5-0.5,0.7-1,0.7-1.7v-3.6c0-0.7-0.2-1.3-0.7-1.7s-1-0.7-1.7-0.7H5.6c-0.7,0-1.3,0.2-1.7,0.7
	S3.2,15,3.2,15.6z M3.2,28.8v3.6c0,0.7,0.2,1.3,0.7,1.7c0.5,0.5,1,0.7,1.7,0.7h4.8c0.6,0,1.2-0.2,1.7-0.7c0.5-0.5,0.7-1,0.7-1.7
	v-3.6c0-0.7-0.2-1.2-0.7-1.7c-0.5-0.4-1-0.7-1.7-0.7H5.6c-0.7,0-1.3,0.2-1.7,0.7C3.4,27.6,3.2,28.2,3.2,28.8z M3.2,42v3.7
	c0,0.6,0.2,1.2,0.7,1.7c0.5,0.5,1,0.7,1.7,0.7h4.8c0.6,0,1.2-0.2,1.7-0.7c0.5-0.5,0.7-1,0.7-1.7V42c0-0.6-0.2-1.2-0.7-1.7
	c-0.5-0.5-1-0.7-1.7-0.7H5.6c-0.7,0-1.3,0.2-1.7,0.7C3.4,40.8,3.2,41.4,3.2,42z M17.6,2.4V6c0,0.6,0.2,1.2,0.7,1.7s1,0.7,1.7,0.7
	h38.5c0.6,0,1.2-0.2,1.7-0.7c0.5-0.5,0.7-1,0.7-1.7V2.4c0-0.7-0.2-1.3-0.7-1.7c-0.5-0.5-1-0.7-1.7-0.7H20c-0.7,0-1.3,0.2-1.7,0.7
	S17.6,1.8,17.6,2.4z M17.6,15.6v3.6c0,0.7,0.2,1.3,0.7,1.7c0.5,0.5,1,0.7,1.7,0.7h38.5c0.6,0,1.2-0.2,1.7-0.7c0.5-0.5,0.7-1,0.7-1.7
	v-3.6c0-0.7-0.2-1.3-0.7-1.7c-0.5-0.5-1-0.7-1.7-0.7H20c-0.7,0-1.3,0.2-1.7,0.7S17.6,15,17.6,15.6z M17.6,28.8v3.6
	c0,0.7,0.2,1.3,0.7,1.7c0.5,0.5,1,0.7,1.7,0.7h38.5c0.6,0,1.2-0.2,1.7-0.7c0.5-0.5,0.7-1,0.7-1.7v-3.6c0-0.7-0.2-1.2-0.7-1.7
	c-0.5-0.4-1-0.7-1.7-0.7H20c-0.7,0-1.3,0.2-1.7,0.7C17.8,27.6,17.6,28.2,17.6,28.8z M17.6,42v3.7c0,0.6,0.2,1.2,0.7,1.7
	c0.5,0.5,1,0.7,1.7,0.7h38.5c0.6,0,1.2-0.2,1.7-0.7c0.5-0.5,0.7-1,0.7-1.7V42c0-0.6-0.2-1.2-0.7-1.7c-0.5-0.5-1-0.7-1.7-0.7H20
	c-0.7,0-1.3,0.2-1.7,0.7C17.8,40.8,17.6,41.4,17.6,42z"/>
</svg>
