<svg xmlns="http://www.w3.org/2000/svg" viewBox="0 0 64 48">
<path d="M3.2,6.6c0,0.8,0.2,1.6,0.5,2.3C4,9.7,4.5,10.3,5,10.9s1.2,1,1.9,1.3c0.7,0.3,1.5,0.5,2.4,0.5c0.8,0,1.6-0.2,2.3-0.5
	c0.7-0.3,1.4-0.7,1.9-1.2c0.6-0.5,1-1.2,1.3-1.9c0.3-0.8,0.5-1.6,0.5-2.4c0-0.9-0.2-1.6-0.5-2.4c-0.3-0.7-0.7-1.4-1.3-1.9
	c-0.6-0.5-1.2-0.9-1.9-1.2c-0.7-0.3-1.5-0.5-2.3-0.5C7.6,0.6,6.2,1.2,5,2.4C3.8,3.6,3.2,5,3.2,6.6L3.2,6.6z M3.2,24
	c0,0.8,0.2,1.6,0.5,2.3C4,27.1,4.5,27.7,5,28.2c0.5,0.5,1.2,1,1.9,1.3C7.6,29.9,8.4,30,9.3,30c0.8,0,1.6-0.1,2.3-0.4
	c0.7-0.3,1.4-0.8,1.9-1.3c0.6-0.5,1-1.2,1.3-1.9c0.3-0.8,0.5-1.6,0.5-2.4c0-0.9-0.2-1.6-0.5-2.4c-0.3-0.7-0.7-1.4-1.3-1.9
	c-0.6-0.5-1.2-1-1.9-1.3c-0.7-0.3-1.5-0.4-2.3-0.4c-0.9,0-1.6,0.2-2.4,0.5c-0.7,0.3-1.4,0.7-1.9,1.3s-0.9,1.2-1.2,1.9
	C3.4,22.4,3.2,23.1,3.2,24L3.2,24z M3.2,41.4c0,0.8,0.2,1.6,0.5,2.3C4,44.4,4.5,45.1,5,45.6c0.5,0.5,1.2,0.9,1.9,1.2
	c0.7,0.3,1.5,0.5,2.4,0.5c0.8,0,1.6-0.2,2.3-0.5c0.7-0.3,1.4-0.7,1.9-1.2c0.6-0.5,1-1.2,1.3-1.9c0.3-0.7,0.5-1.5,0.5-2.3
	c0-0.9-0.2-1.6-0.5-2.4c-0.3-0.7-0.7-1.4-1.3-1.9c-0.6-0.5-1.2-0.9-1.9-1.2c-0.7-0.3-1.5-0.5-2.3-0.5c-0.9,0-1.6,0.2-2.4,0.5
	c-0.7,0.3-1.4,0.7-1.9,1.3S4.1,38.3,3.8,39C3.4,39.7,3.2,40.5,3.2,41.4L3.2,41.4z M19.5,4.8v3.6c0,0.7,0.2,1.3,0.7,1.7
	s1,0.7,1.7,0.7h36.4c0.6,0,1.2-0.2,1.7-0.7s0.7-1,0.7-1.7V4.8c0-0.7-0.2-1.2-0.7-1.7s-1-0.7-1.7-0.7H22c-0.7,0-1.3,0.2-1.7,0.7
	S19.5,4.2,19.5,4.8L19.5,4.8z M19.5,22.2v3.6c0,0.7,0.2,1.3,0.7,1.7c0.5,0.5,1,0.7,1.7,0.7h36.4c0.6,0,1.2-0.2,1.7-0.7
	c0.5-0.5,0.7-1,0.7-1.7v-3.6c0-0.7-0.2-1.3-0.7-1.7c-0.5-0.5-1-0.7-1.7-0.7H22c-0.7,0-1.3,0.2-1.7,0.7C19.8,21,19.5,21.5,19.5,22.2
	L19.5,22.2z M19.5,39.6v3.6c0,0.7,0.2,1.3,0.7,1.7c0.5,0.5,1,0.7,1.7,0.7h36.4c0.6,0,1.2-0.2,1.7-0.7c0.5-0.5,0.7-1,0.7-1.7v-3.6
	c0-0.7-0.2-1.3-0.7-1.7c-0.5-0.5-1-0.7-1.7-0.7H22c-0.7,0-1.3,0.2-1.7,0.7C19.8,38.3,19.5,38.9,19.5,39.6L19.5,39.6z"/>
</svg>
