<svg xmlns="http://www.w3.org/2000/svg" viewBox="0 0 64 48">
<path d="M9.9,35.8c1.3,2.4,3,4.5,5.1,6.3c2.2,1.8,4.7,3.2,7.6,4.3c2.9,1,6,1.6,9.3,1.6c3.3,0,6.4-0.5,9.3-1.6c2.9-1,5.4-2.5,7.6-4.3
	c2.2-1.8,3.9-3.9,5.1-6.3c1.3-2.4,1.9-5,1.9-7.8v-8.9c0-0.3-0.1-0.6-0.4-0.9c-0.2-0.2-0.5-0.4-0.9-0.4h-12c-0.3,0-0.6,0.1-0.9,0.4
	c-0.2,0.2-0.4,0.5-0.4,0.9v8.9c0,1.2-0.9,2.4-2.6,3.6c-2,1.3-4.3,1.9-7,1.9c-2.7,0-5-0.6-6.9-1.9c-1.7-1.2-2.6-2.4-2.6-3.6v-8.9
	c0-0.3-0.1-0.6-0.4-0.9c-0.2-0.2-0.5-0.4-0.9-0.4h-12c-0.3,0-0.6,0.1-0.9,0.4C8.1,18.6,8,18.8,8,19.2v8.9C8,30.8,8.7,33.4,9.9,35.8z
	 M9.2,14.4h12c0.8,0,1.2-0.4,1.2-1.2v-12C22.4,0.4,22,0,21.2,0h-12C8.4,0,8,0.4,8,1.2v12C8,14,8.4,14.4,9.2,14.4z M42.8,14.4h12
	c0.8,0,1.2-0.4,1.2-1.2v-12C56,0.4,55.6,0,54.8,0h-12c-0.8,0-1.2,0.4-1.2,1.2v12C41.6,14,42,14.4,42.8,14.4z"/>
</svg>
