<svg xmlns="http://www.w3.org/2000/svg" viewBox="0 0 64 48">
<path d="M45.9,18.3c0-1.5-0.5-2.7-1.5-3.7c-1-1-2.2-1.5-3.7-1.5H23.3c-1.5,0-2.7,0.5-3.7,1.5c-1,1-1.5,2.2-1.5,3.7v11.3
	c0,0.7,0.3,1.3,0.8,1.9c0.5,0.5,1.1,0.8,1.9,0.8c0.7,0,1.3-0.3,1.9-0.8c0.5-0.5,0.8-1.1,0.8-1.9V20H25v24.9c0,0.9,0.3,1.6,0.9,2.2
	c0.6,0.6,1.3,0.9,2.1,0.9c0.8,0,1.5-0.3,2.1-0.9c0.6-0.6,0.9-1.3,0.9-2.2V32.3h1.7v12.6c0,0.9,0.3,1.6,0.9,2.2
	c0.6,0.6,1.3,0.9,2.1,0.9c0.9,0,1.6-0.3,2.2-0.9c0.6-0.6,0.9-1.3,0.9-2.2V20h1.7v9.6c0,0.7,0.3,1.3,0.8,1.9c0.5,0.5,1.1,0.8,1.9,0.8
	c0.7,0,1.3-0.3,1.8-0.8c0.5-0.5,0.7-1.1,0.7-1.9V18.3L45.9,18.3z M36.3,1.8C35.1,0.6,33.7,0,32,0c-1.7,0-3.1,0.6-4.3,1.8
	c-1.2,1.2-1.8,2.6-1.8,4.3c0,1.7,0.6,3.1,1.8,4.3c1.2,1.2,2.6,1.8,4.3,1.8c1.7,0,3.1-0.6,4.3-1.8c1.2-1.2,1.8-2.6,1.8-4.3
	C38.1,4.4,37.5,3,36.3,1.8z"/>
</svg>
