<svg xmlns="http://www.w3.org/2000/svg" viewBox="0 0 64 48">
<path d="M29.2,45.9c0.8,1.4,1.7,2,2.8,2c1.1,0,2-0.7,2.8-2L46.3,26c1.8-3.2,2.7-6.2,2.7-9.1c0-4.6-1.7-8.6-5-12
	c-1.5-1.5-3.3-2.8-5.4-3.6S34.3,0,32,0c-2.3,0-4.5,0.4-6.6,1.3c-2,0.9-3.8,2.1-5.4,3.6c-1.5,1.5-2.8,3.3-3.6,5.4
	c-0.9,2-1.3,4.1-1.3,6.1c0,3.2,0.9,6.4,2.7,9.6L29.2,45.9z M24.3,13.7c0.4-1,1-1.9,1.8-2.7c0.8-0.7,1.7-1.3,2.7-1.8
	c1-0.4,2.1-0.7,3.3-0.7c1.2,0,2.2,0.2,3.3,0.7c1,0.4,1.9,1,2.7,1.8c0.7,0.7,1.3,1.6,1.8,2.7c0.4,1,0.7,2.1,0.7,3.3s-0.2,2.2-0.7,3.3
	s-1,1.9-1.8,2.7c-0.7,0.8-1.6,1.4-2.7,1.8c-1,0.4-2.1,0.6-3.3,0.6c-1.2,0-2.2-0.2-3.3-0.6c-1-0.4-1.9-1-2.7-1.8
	c-0.8-0.8-1.4-1.7-1.8-2.7s-0.6-2.1-0.6-3.3S23.8,14.7,24.3,13.7z"/>
</svg>
