<svg xmlns="http://www.w3.org/2000/svg" viewBox="0 0 64 48">
<path d="M4.6,27.8c0.9,0.9,2.1,1.4,3.4,1.4h6.3c-0.5,1.7-0.8,3.2-0.8,4.7c0,1.5,0.1,3,0.4,4.3c0.3,1.4,0.7,2.8,1.1,4.1
	c0.4,1.2,0.8,2.5,1.2,3.9c0.6,0.6,1.5,1,2.7,1.3s2.3,0.4,3.5,0.4c1.2-0.1,2.3-0.3,3.3-0.8c1-0.5,1.7-1.1,2.2-2
	c-0.7-0.6-1.4-1.2-2.1-1.9c-0.6-0.6-1.1-1.2-1.5-1.9c-0.4-0.7-0.6-1.4-0.6-2.1c0-0.7,0.2-1.5,0.8-2.3c-0.6-0.6-1-1.3-1.2-2.1
	c-0.1-0.7-0.1-1.5,0-2.2c0.2-0.7,0.6-1.4,1.2-1.9s1.3-1,2.2-1.2c2.3,0.3,4.7,0.8,7.1,1.5c2.4,0.8,4.8,1.8,7.1,2.9
	c2.3,1.1,4.5,2.4,6.5,3.7c2,1.3,3.7,2.7,5.1,4.1c1.3,0,2.5-0.5,3.4-1.4c1-0.9,1.4-2,1.4-3.4V25.4c1-0.3,1.9-0.8,2.6-1.6
	c0.7-0.8,1-1.8,1-2.9c0-1.1-0.3-2.1-1-2.9c-0.7-0.8-1.5-1.4-2.6-1.6V4.8c0-1.3-0.5-2.4-1.4-3.4c-1-0.9-2.1-1.4-3.4-1.4
	c-1.6,1.6-3.5,3.1-5.8,4.6s-4.7,2.8-7.3,4c-2.6,1.2-5.3,2.1-8,2.8c-2.7,0.7-5.3,1.1-7.7,1.1H8c-1.3,0-2.4,0.5-3.4,1.4
	c-0.9,0.9-1.4,2.1-1.4,3.4v7.2C3.2,25.7,3.7,26.8,4.6,27.8z M28.4,24.8v-7.9c2.1-0.3,4.2-0.8,6.5-1.5c2.1-0.7,4.3-1.5,6.4-2.4
	c2.1-0.9,4.1-2,5.9-3.1c1.9-1.1,3.6-2.3,5.2-3.5v29.1c-1.5-1.2-3.2-2.4-5.1-3.5c-1.9-1.1-3.9-2.1-6-3.1c-2.1-0.9-4.2-1.8-6.4-2.5
	C32.6,25.6,30.5,25.1,28.4,24.8L28.4,24.8z"/>
</svg>
