<svg xmlns="http://www.w3.org/2000/svg" viewBox="0 0 64 48">
<path d="M3.9,47.3c0.5,0.5,1,0.7,1.7,0.7h52.8c0.6,0,1.2-0.2,1.7-0.7c0.5-0.5,0.7-1,0.7-1.7V2.4c0-0.6-0.2-1.2-0.7-1.7
	c-0.5-0.5-1-0.7-1.7-0.7H5.6C4.9,0,4.4,0.2,3.9,0.7c-0.5,0.5-0.7,1-0.7,1.7v43.2C3.2,46.3,3.4,46.8,3.9,47.3z M8,33.6V14.4
	c1.3,0,2.6-0.3,3.7-0.8s2.2-1.2,3-2c0.9-0.9,1.5-1.9,2-3.1c0.5-1.2,0.8-2.4,0.8-3.7h28.8c0,1.3,0.3,2.5,0.8,3.7
	c0.5,1.2,1.2,2.2,2,3.1c0.8,0.9,1.8,1.5,3,2c1.2,0.5,2.5,0.8,3.8,0.8v19.2c-1.4,0-2.6,0.3-3.8,0.8c-1.2,0.5-2.2,1.2-3,2
	c-0.8,0.9-1.5,1.9-2,3c-0.5,1.2-0.8,2.4-0.8,3.7H17.6c0-1.3-0.3-2.6-0.8-3.7c-0.5-1.2-1.2-2.2-2-3s-1.9-1.5-3-2
	C10.6,33.9,9.3,33.6,8,33.6L8,33.6z M20,24c0,2.2,0.3,4.2,0.9,6.1c0.6,1.9,1.5,3.6,2.6,5c1.1,1.4,2.3,2.5,3.8,3.3
	c1.5,0.8,3,1.2,4.7,1.2c1.6,0,3.2-0.4,4.6-1.2s2.7-1.9,3.8-3.3s2-3.1,2.7-5c0.6-1.9,1-3.9,1-6.1s-0.3-4.2-1-6.1
	c-0.7-1.9-1.6-3.6-2.7-5c-1.1-1.4-2.3-2.5-3.8-3.3s-3-1.2-4.7-1.2s-3.3,0.4-4.7,1.2c-1.5,0.8-2.7,2-3.8,3.4c-1.1,1.4-2,3.1-2.6,5
	C20.3,19.8,20,21.8,20,24L20,24z M30.4,12.5h4.4v16.6h4.4v4H25.5v-4h4.4v-8.8c0-0.2,0-0.4,0-0.6c0-0.2,0-0.4,0-0.5v-0.4h-0.1
	c-0.1,0.2-0.2,0.3-0.3,0.3c-0.1,0.1-0.2,0.2-0.2,0.4c-0.1,0.2-0.2,0.3-0.4,0.4l-1.2,1.1l-2.9-3.1L30.4,12.5z"/>
</svg>
