<svg xmlns="http://www.w3.org/2000/svg" viewBox="0 0 64 48">
<path d="M56,5.5c0.5,0,0.9,0.2,1.3,0.6c0.4,0.4,0.6,0.8,0.6,1.3v25.8c0,0.5-0.2,1-0.6,1.3c-0.4,0.4-0.8,0.6-1.3,0.6H8
	c-0.5,0-1-0.2-1.3-0.6c-0.3-0.4-0.5-0.8-0.5-1.3V7.3c0-0.5,0.2-0.9,0.5-1.3C7,5.7,7.5,5.5,8,5.5H56z M6.2,0c-1,0-1.9,0.4-2.6,1.1
	c-0.7,0.7-1,1.6-1,2.6v33.2c0,1,0.3,1.9,1,2.6c0.7,0.7,1.6,1.1,2.6,1.1h51.7c1,0,1.9-0.4,2.6-1.1c0.7-0.7,1.1-1.6,1.1-2.6V3.7
	c0-1-0.4-1.9-1.1-2.6C59.7,0.4,58.8,0,57.8,0H6.2z M22.8,48h18.4l-1.8-3.7c-0.1-0.3-0.3-0.7-0.8-1.1s-0.9-0.7-1.3-0.7H26.7
	c-0.7,0-1.4,0.6-2.1,1.8L22.8,48z"/>
</svg>
