<svg xmlns="http://www.w3.org/2000/svg" viewBox="0 0 64 48">
<path d="M53.5,36V24c0-2.9-0.9-5.5-2.8-7.8c-1.9-2.2-4.3-3.6-7.1-4.1c-0.1-3.4-1.3-6.3-3.8-8.7C37.3,1.2,34.4,0,31,0
	c-3.4,0-6.4,1.2-8.8,3.7c-2.4,2.4-3.6,5.4-3.6,8.8V28c0,1.4-0.5,2.6-1.5,3.5c-1,1-2.2,1.4-3.6,1.4H13c-0.7,0-1.3,0.2-1.8,0.7
	c-0.5,0.5-0.7,1.1-0.7,1.8c0,0.7,0.2,1.3,0.7,1.8S12.3,38,13,38h0.4c2.8,0,5.1-1,7.1-2.9c2-2,2.9-4.3,2.9-7.1V12.5
	c0-2.1,0.7-3.9,2.2-5.3S28.9,5,31,5c2,0,3.8,0.7,5.3,2.2c1.5,1.4,2.2,3.2,2.3,5.2c-2.6,0.7-4.8,2.1-6.5,4.2
	c-1.7,2.2-2.5,4.6-2.5,7.4V36c0,3.3,1.2,6.2,3.5,8.5s5.2,3.5,8.5,3.5c3.3,0,6.1-1.2,8.5-3.5C52.3,42.1,53.5,39.3,53.5,36L53.5,36z
	 M42.9,17.6c0.4,0.4,0.6,0.9,0.6,1.4v6c0,0.6-0.2,1-0.6,1.4c-0.4,0.4-0.9,0.6-1.4,0.6c-0.6,0-1-0.2-1.4-0.6
	c-0.4-0.4-0.6-0.9-0.6-1.4v-6c0-0.6,0.2-1,0.6-1.4c0.4-0.4,0.9-0.6,1.4-0.6C42.1,17,42.5,17.2,42.9,17.6z"/>
</svg>
