<svg xmlns="http://www.w3.org/2000/svg" viewBox="0 0 64 48">
<path d="M8.1,24c0,0.5,0.2,0.9,0.5,1.3l7.7,7.7c0.5,0.6,1,0.7,1.3,0.6c0.4-0.2,0.6-0.6,0.6-1.3V27h10.8v10.7h-5.2
	c-0.7,0-1.2,0.2-1.3,0.6c-0.2,0.4,0,0.8,0.6,1.3l7.7,7.7c0.3,0.3,0.8,0.5,1.3,0.5c0.5,0,0.9-0.2,1.3-0.5l7.7-7.7
	c0.5-0.5,0.7-1,0.5-1.3c-0.1-0.4-0.6-0.6-1.4-0.6h-5.2V27h10.8v5.1c0,0.7,0.2,1.2,0.6,1.3c0.4,0.2,0.8,0,1.3-0.6l7.7-7.7
	c0.3-0.3,0.5-0.8,0.5-1.3s-0.2-0.9-0.5-1.3L47.8,15c-0.5-0.6-1-0.8-1.3-0.6c-0.4,0.1-0.6,0.6-0.6,1.4v5.3H35.1V10.2h5.2
	c0.8,0,1.2-0.2,1.4-0.6s0-0.8-0.5-1.3l-7.7-7.7C33,0.2,32.6,0,32.1,0c-0.5,0-0.9,0.2-1.3,0.5l-7.7,7.7c-0.6,0.5-0.7,1-0.6,1.3
	c0.2,0.4,0.6,0.6,1.3,0.6h5.2v10.9H18.2v-5.3c0-0.7-0.2-1.2-0.6-1.3c-0.4-0.2-0.8,0-1.3,0.6l-7.7,7.7C8.3,23,8.1,23.5,8.1,24z"/>
</svg>
