<svg xmlns="http://www.w3.org/2000/svg" viewBox="0 0 64 48">
<path d="M20.7,16.2c1.7-1.9,3.6-3.8,5.9-5.5c-0.1-0.4-0.1-0.8-0.1-1.2c0-0.5,0.1-1,0.3-1.6c-2.3-1.7-4.9-3.1-7.8-4.3
	c-2.7,1.7-4.9,3.8-6.8,6.2c1.3,2.4,2.9,4.6,4.8,6.7c0.8-0.3,1.5-0.5,2.2-0.5C19.8,16,20.2,16,20.7,16.2z M14.1,21.1
	c0-0.7,0.1-1.4,0.4-2c-1.7-1.9-3.2-3.9-4.4-5.8c-1.7,3.4-2.6,7-2.6,10.7c0,4.4,1.1,8.5,3.4,12.3c0.8-4.1,2.2-8.2,4.2-12.1
	C14.4,23.2,14.1,22.2,14.1,21.1L14.1,21.1z M35.1,5.8c2.8-1.2,5.6-2.1,8.4-2.6C39.7,1.1,35.7,0,31.5,0c-3,0-5.8,0.5-8.4,1.5
	c2.1,1.1,4.1,2.3,5.9,3.6c0.8-0.5,1.7-0.7,2.6-0.7C32.9,4.4,34.1,4.9,35.1,5.8z M39.2,28.4c0.3-0.6,0.7-1.2,1.3-1.7
	c-1.5-4.6-3.9-8.8-7-12.5c-0.7,0.3-1.3,0.4-2,0.4c-1.1,0-2.1-0.3-3-0.9c-1.9,1.4-3.6,3-5.1,4.7c0.6,0.9,0.8,1.8,0.8,2.8
	c0,0.5-0.1,1-0.3,1.5C28.6,25.6,33.7,27.6,39.2,28.4L39.2,28.4z M45.9,38.2c0,1.8-0.1,3.5-0.3,5.1c4.2-3.1,7.1-7.1,8.7-12.1
	c-1.4,0.4-3.3,0.7-5.7,1c-0.5,1.5-1.4,2.5-2.8,3.1C45.9,36.6,45.9,37.6,45.9,38.2z M21.8,25.4c-0.8,0.5-1.6,0.8-2.6,0.8
	c-0.3,0-0.7,0-1.1-0.1c-2.3,4.4-3.7,9.2-4.2,14.3c2.4,2.6,5.1,4.5,8.2,5.8c4.1-6.3,9.4-11,15.9-14.3C32.2,30.9,26.8,28.7,21.8,25.4z
	 M36.7,9c0,0,0,0.1,0,0.2c0,0.1,0,0.2,0,0.3c0,0.7-0.2,1.5-0.6,2.2c3.5,4.1,6.1,8.7,7.7,13.8c2.2,0,3.7,1.1,4.6,3.1
	c1.9-0.2,4.2-0.7,6.7-1.4c0.2-1.2,0.3-2.3,0.3-3.3c0-3.5-0.7-6.7-2.1-9.8c-1.4-3.1-3.3-5.7-5.8-8C43.9,6.5,40.2,7.5,36.7,9z
	 M25.7,47.3c1.9,0.5,3.9,0.7,5.8,0.7c3.6,0,6.9-0.7,10.1-2.2c0.5-2.7,0.8-5.2,0.8-7.5c0,0,0-1-0.1-2.8c-0.7-0.2-1.3-0.5-1.7-0.9
	C34.4,37.5,29.5,41.7,25.7,47.3z"/>
</svg>
