<svg xmlns="http://www.w3.org/2000/svg" viewBox="0 0 64 48">
<path d="M14-0.1c-0.8,0-1.3,0.1-1.6,0.4C12.2,0.6,12,1.2,12,1.9v6.4H5.8c-0.7,0-1.2,0.1-1.5,0.4C4,9,3.9,9.5,3.9,10.3v32.5
	c0,1.2,0.6,2.3,1.7,3.5c1.2,1.2,2.4,1.8,3.6,1.8h49c0.7,0,1.2-0.1,1.5-0.4c0.3-0.3,0.4-0.8,0.4-1.5V1.9c0-0.8-0.1-1.3-0.4-1.6
	c-0.3-0.3-0.8-0.4-1.5-0.4H14z M9.2,44.7c-0.3,0-0.7-0.2-1.2-0.7c-0.5-0.5-0.7-0.9-0.7-1.2V11.7H12v30h3.3V3.3h41.4v41.3H9.2z
	 M19.7,7.6v15.1h15.1V7.6H19.7z M39.4,9.8v2.5H52V9.8H39.4z M39.4,17.5v2.4H52v-2.4H39.4z M19.7,27.7v2.5H52v-2.5H19.7z M19.7,35.4
	v2.5H52v-2.5H19.7z"/>
</svg>
