<svg xmlns="http://www.w3.org/2000/svg" viewBox="0 0 64 48">
<path d="M15.7,0c-2.2,0-4.1,0.8-5.7,2.3S7.8,5.8,7.8,8v32c0,2.2,0.8,4.1,2.3,5.7s3.4,2.3,5.7,2.3h32c2.2,0,4.1-0.8,5.7-2.3
	s2.3-3.4,2.3-5.7V8c0-2.2-0.8-4.1-2.3-5.7S50,0,47.8,0H15.7z M49.7,18.7H20.5V12h29.2V18.7z M19.2,34h-5.4v-6.5h5.4V34z M13.8,19.8
	h5.4v6.5h-5.4V19.8z M49.7,27.6V34H20.5v-6.5H49.7z M20.5,19.8h29.2v6.5H20.5V19.8z M19.2,18.7h-5.4V12h5.4V18.7z M13.8,35.3h5.4V42
	h-3.5c-0.6,0-1-0.2-1.4-0.6C14,41,13.8,40.6,13.8,40V35.3z M20.5,42v-6.7h29.2V40c0,0.6-0.2,1-0.6,1.4c-0.4,0.4-0.9,0.6-1.4,0.6
	H20.5z"/>
</svg>
