<svg xmlns="http://www.w3.org/2000/svg" viewBox="0 0 64 48">
<path d="M54.2,14.8C53,11.8,51.3,9.3,49,7c-2.3-2.3-4.8-4-7.8-5.2c-3-1.2-6-1.8-9.2-1.8c-4.8,0-9.1,1.3-13.1,3.9
	c-4.1,2.7-7.1,6.3-9,10.8C7.4,20.8,7.3,26.9,9.8,33c1.2,3,2.9,5.6,5.1,7.8c2.2,2.3,4.8,4,7.7,5.3c3,1.3,6.2,1.9,9.4,1.9
	c4.8,0,9.1-1.3,13.1-3.9c4-2.6,6.9-6.1,8.8-10.6l0.2-0.5C56.7,27,56.7,20.9,54.2,14.8z M51.8,15.7c2.3,5.4,2.3,10.9,0.1,16.4
	l-0.2,0.5c-1.7,3.9-4.4,7.1-7.9,9.4c-3.5,2.3-7.5,3.5-11.8,3.5c-2.9,0-5.7-0.6-8.4-1.7c-2.6-1.1-4.9-2.6-6.9-4.7c-2-2-3.5-4.4-4.5-7
	c-2.1-5.5-2.1-11,0.2-16.5c1.7-4,4.4-7.2,8.1-9.7c3.5-2.3,7.5-3.5,11.7-3.5c2.8,0,5.6,0.5,8.2,1.7c2.6,1.1,5,2.6,6.9,4.7
	C49.1,10.8,50.6,13.1,51.8,15.7L51.8,15.7z M32.1,27.7c-1.1,0-2-0.4-2.8-1.1c-0.8-0.8-1.1-1.7-1.1-2.7c0-1.1,0.4-2,1.1-2.7
	c0.8-0.8,1.7-1.1,2.8-1.1c1.1,0,2,0.4,2.8,1.1s1.1,1.7,1.1,2.7c0,1.1-0.4,2-1.1,2.7S33.2,27.7,32.1,27.7L32.1,27.7z M26.1,23.9
	c0,1.1,0.3,2,0.8,2.9s1.3,1.6,2.2,2.2l-6.9,11.9c-3.1-1.7-5.5-4.1-7.2-7.2c-1.7-3-2.6-6.3-2.6-9.8L26.1,23.9L26.1,23.9z M22.1,6.8
	c3.1-1.7,6.4-2.6,9.9-2.6c3.5,0,6.9,0.9,9.9,2.6L35,18.8c-2-1.1-4-1.1-6,0L22.1,6.8L22.1,6.8z M51.9,23.9c0,3.5-0.9,6.8-2.6,9.8
	c-1.7,3-4.2,5.4-7.2,7.2l-6.9-11.9c0.9-0.5,1.6-1.3,2.1-2.2c0.5-0.9,0.8-1.9,0.8-2.9L51.9,23.9L51.9,23.9z"/>
</svg>
