<svg xmlns="http://www.w3.org/2000/svg" viewBox="0 0 64 48">
<path d="M15.8,41.4c2.1,2.1,4.5,3.7,7.2,4.9c2.8,1.2,5.7,1.8,8.9,1.8c3.2,0,6.1-0.6,8.9-1.8c2.8-1.2,5.2-2.8,7.3-4.9
	c2.1-2.1,3.7-4.5,4.9-7.2c1.2-2.8,1.8-5.9,1.8-9.4s-0.9-6.9-2.7-10.2c-1.8-3.3-4.2-6.1-7.3-8.2c-0.6-0.3-1.2-0.2-1.7,0.3l-2.8,4
	c-0.2,0.3-0.2,0.7-0.2,1c0.1,0.3,0.2,0.5,0.5,0.7c2.2,1.5,3.9,3.4,5.1,5.6c1.2,2.3,1.8,4.7,1.8,7.3c0,4.3-1.5,8-4.6,11
	c-3,3-6.7,4.6-11.1,4.6c-4.3,0-8-1.5-11-4.6c-1.4-1.4-2.5-3.1-3.3-5c-0.8-1.9-1.2-4-1.2-6.4s0.6-4.7,1.8-7c1.2-2.3,2.9-4.1,5-5.6
	c0.6-0.4,0.7-1,0.3-1.7l-2.7-4c-0.2-0.3-0.5-0.5-0.8-0.5c-0.3,0-0.6,0-0.9,0.2c-3.2,2.2-5.6,4.9-7.4,8.2c-1.8,3.3-2.6,6.7-2.6,10.2
	s0.6,6.6,1.8,9.4C12.1,36.9,13.8,39.3,15.8,41.4z M28.4,22.8c0,0.8,0.4,1.2,1.2,1.2h4.8c0.3,0,0.6-0.1,0.9-0.4
	c0.2-0.2,0.4-0.5,0.4-0.9V1.2c0-0.3-0.1-0.6-0.4-0.9C35,0.1,34.7,0,34.4,0h-4.8c-0.8,0-1.2,0.4-1.2,1.2V22.8L28.4,22.8z"/>
</svg>
