<svg xmlns="http://www.w3.org/2000/svg" viewBox="0 0 64 48">
<path d="M9.9,33.3c1.3,2.9,3,5.4,5.2,7.6c2.2,2.2,4.7,3.9,7.6,5.2c2.9,1.3,6,1.9,9.3,1.9s6.4-0.6,9.3-1.9c2.9-1.3,5.4-3,7.6-5.2
	c2.2-2.2,3.9-4.7,5.2-7.6c1.3-2.9,1.9-6,1.9-9.3s-0.6-6.4-1.9-9.3c-1.3-2.9-3-5.4-5.2-7.6s-4.7-3.9-7.6-5.2C38.4,0.6,35.3,0,32,0
	s-6.4,0.6-9.3,1.9c-2.9,1.3-5.4,3-7.6,5.2c-2.2,2.2-3.9,4.7-5.2,7.6C8.6,17.6,8,20.7,8,24S8.6,30.4,9.9,33.3z M15.2,24
	c0-2.3,0.4-4.5,1.3-6.5c0.9-2,2.1-3.8,3.6-5.4c1.5-1.5,3.3-2.7,5.3-3.6c2-0.9,4.2-1.3,6.5-1.3s4.5,0.4,6.5,1.3
	c2,0.9,3.8,2.1,5.4,3.6c1.5,1.5,2.7,3.3,3.6,5.4c0.9,2,1.3,4.2,1.3,6.5s-0.4,4.5-1.3,6.5c-0.9,2-2.1,3.8-3.6,5.3
	c-1.5,1.5-3.3,2.7-5.4,3.6s-4.2,1.3-6.5,1.3s-4.5-0.4-6.5-1.3c-2-0.9-3.8-2.1-5.3-3.6c-1.5-1.5-2.7-3.3-3.6-5.3S15.2,26.3,15.2,24
	L15.2,24z M18,25.5c0,0.3,0.1,0.6,0.3,0.9l7.5,7.5c0.7,0.6,1.4,0.8,2,0.8h3.5c0.7,0,1.4-0.3,2-0.8l12.3-12.3
	c0.2-0.3,0.3-0.6,0.3-0.9s-0.1-0.6-0.3-0.8l-3.4-3.4c-0.2-0.2-0.5-0.3-0.8-0.3c-0.3,0-0.6,0.1-0.9,0.3L30.5,26.6
	c-0.6,0.5-1.2,0.5-1.7,0l-5.3-5.4c-0.3-0.2-0.6-0.3-0.9-0.3c-0.3,0-0.6,0.1-0.8,0.3l-3.4,3.4C18.1,24.9,18,25.1,18,25.5L18,25.5z"/>
</svg>
