<svg xmlns="http://www.w3.org/2000/svg" viewBox="0 0 64 48">
<path d="M9.9,33.3c1.3,2.9,3,5.4,5.1,7.6c2.2,2.2,4.7,3.9,7.6,5.1c2.9,1.3,6,1.9,9.3,1.9s6.4-0.6,9.3-1.9c2.9-1.3,5.4-3,7.6-5.1
	s3.9-4.7,5.1-7.6c1.3-2.9,1.9-6,1.9-9.3c0-3.3-0.6-6.4-1.9-9.3c-1.3-2.9-3-5.4-5.1-7.6c-2.2-2.2-4.7-3.9-7.6-5.1
	C38.4,0.6,35.3,0,32,0s-6.4,0.6-9.3,1.9c-2.9,1.3-5.4,3-7.6,5.1c-2.2,2.2-3.9,4.7-5.1,7.6C8.6,17.5,8,20.7,8,24
	C8,27.3,8.6,30.4,9.9,33.3z M15.6,24.4l3.2-3.1c0.3-0.3,0.6-0.4,1-0.4c0.4,0,0.8,0.1,1.1,0.4l6.6,6.7c0.3,0.3,0.6,0.4,1,0.4
	c0.4,0,0.8-0.1,1.1-0.4l13.6-13.6c0.3-0.3,0.7-0.4,1.1-0.4s0.7,0.1,1,0.4l3.2,3.2c0.3,0.3,0.4,0.6,0.4,1c0,0.4-0.2,0.8-0.4,1.1
	L31.8,36.1c-0.8,0.7-1.6,1-2.5,1h-1.6c-0.9,0-1.7-0.3-2.5-1l-9.6-9.6c-0.3-0.3-0.4-0.7-0.4-1.1S15.3,24.7,15.6,24.4z"/>
</svg>
