<svg xmlns="http://www.w3.org/2000/svg" viewBox="0 0 64 48">
<path d="M43,21.6c0.4,0.9,0.6,2,0.6,3.3c0,1.3-0.2,2.4-0.6,3.3c-0.4,0.9-1,1.6-1.6,2.2c-0.7,0.6-1.5,1-2.5,1.3c-1,0.3-2,0.4-3.1,0.4
	h-4.4V17.7h4.4c1.1,0,2.2,0.1,3.1,0.4c1,0.3,1.8,0.7,2.5,1.3C42,20,42.6,20.7,43,21.6z M55.9,24c0,13.2-10.7,24-24,24S8,37.2,8,24
	S18.7,0,32,0S55.9,10.7,55.9,24z M24.3,14.7h-3.2v20.5h3.2V14.7z M24.7,10.8c0-1.1-0.9-2-2-2c-1.1,0-2,0.9-2,2c0,1.1,0.9,2,2,2
	C23.8,12.7,24.7,11.8,24.7,10.8z M47,24.9c0-1.3-0.2-2.4-0.5-3.4c-0.3-1-0.8-1.9-1.3-2.6c-0.5-0.8-1.2-1.4-1.9-2
	c-0.7-0.5-1.5-1-2.3-1.3c-0.8-0.3-1.6-0.6-2.4-0.7c-0.8-0.2-1.5-0.2-2.3-0.2h-8.3v20.5h8.3c0.7,0,1.5-0.1,2.3-0.2
	c0.8-0.2,1.6-0.4,2.4-0.7s1.5-0.8,2.3-1.3c0.7-0.5,1.4-1.2,1.9-2c0.5-0.8,1-1.6,1.3-2.6C46.8,27.3,47,26.2,47,24.9z"/>
</svg>
