<svg xmlns="http://www.w3.org/2000/svg" viewBox="0 0 64 48">
<path d="M43.8,22.3c-0.3-0.8-0.6-1.5-1.1-2.2c-0.4-0.6-1-1.2-1.6-1.6c-0.6-0.4-1.2-0.8-1.8-1.1c-0.6-0.3-1.3-0.5-1.9-0.6
	c-0.6-0.1-1.3-0.2-1.8-0.2h-6.8v16.8h6.8c0.6,0,1.2-0.1,1.8-0.2c0.6-0.1,1.3-0.3,1.9-0.6c0.6-0.3,1.3-0.6,1.8-1.1
	c0.6-0.4,1.1-1,1.6-1.6c0.4-0.6,0.8-1.3,1.1-2.2c0.3-0.8,0.4-1.7,0.4-2.8C44.2,24,44.1,23.1,43.8,22.3z M40.9,27.7
	c-0.3,0.7-0.8,1.3-1.3,1.8c-0.6,0.5-1.2,0.8-2,1.1C36.8,30.8,35.9,31,35,31h-3.6V19.2H35c0.9,0,1.8,0.1,2.5,0.3
	c0.8,0.2,1.5,0.6,2,1.1c0.6,0.5,1,1.1,1.3,1.8c0.3,0.7,0.5,1.6,0.5,2.7S41.2,27,40.9,27.7z M55.5,3.6c-0.3-0.7-0.8-1.4-1.3-1.9
	s-1.2-1-1.9-1.3C51.5,0.2,50.8,0,49.9,0H14c-0.8,0-1.6,0.2-2.3,0.5C11,0.8,10.3,1.2,9.8,1.8C9.3,2.3,8.8,3,8.5,3.7
	C8.2,4.4,8,5.2,8,6v35.9c0,0.8,0.2,1.6,0.5,2.3s0.7,1.4,1.3,1.9c0.5,0.5,1.2,1,1.9,1.3c0.7,0.3,1.5,0.5,2.3,0.5h36
	c1.7,0,3.1-0.6,4.3-1.8c1.1-1.1,1.7-2.5,1.7-4.2V6C56,5.1,55.8,4.4,55.5,3.6z M31.9,43.9c-10.8,0-19.6-8.8-19.6-19.6
	S21.1,4.7,31.9,4.7c10.8,0,19.6,8.8,19.6,19.6S42.7,43.9,31.9,43.9z M25.7,33.4H23V16.7h2.6V33.4z M24.4,15.1
	c-0.9,0-1.6-0.7-1.6-1.6c0-0.9,0.7-1.6,1.6-1.6c0.9,0,1.6,0.7,1.6,1.6C25.9,14.4,25.2,15.1,24.4,15.1z"/>
</svg>
