<svg xmlns="http://www.w3.org/2000/svg" viewBox="0 0 64 48">
<path d="M3.3,26.1c0,0.5-0.1,0.9-0.1,1.4c0,5,1.9,9.3,5.6,12.8c4.1,3.9,9.8,5.8,17,5.9c3.7,0,7.1-0.4,10.2-1.2
	c3.1-0.8,5.4-1.9,7.1-3c1.6-1.1,2.9-2.2,3.7-3.3c0.9-1,1.3-1.9,1.3-2.6c0-0.5-0.5-1.5-1.5-2.9s-1.7-2.7-2-3.8
	c-0.1-0.3-0.1-0.5-0.1-0.8c0-0.9,0.5-2.1,1.4-3.5c1.5-1.6,3.1-2.5,4.8-2.7c0.3,0,0.7-0.1,1-0.1c1.3,0,2.5,0.3,3.6,0.7
	c1.5,0.5,2.6,0.7,3.2,0.6c1-0.2,1.7-1.2,2-2.8c0.1-0.4,0.1-0.8,0.1-1.2c0-1.4-0.4-3-1.3-4.9c-1.1-2.5-3.1-4.7-6-6.5
	c-6.3-4.2-13-6.3-20.1-6.3c-3.7,0-7.4,0.6-11.2,1.7c-4.7,1.4-8.9,4.3-12.6,8.9C5.7,16.9,3.7,21.5,3.3,26.1L3.3,26.1z M30.4,31
	c0-1.3,0.4-2.3,1.3-3.2c0.9-0.9,1.9-1.3,3.1-1.3c1.2,0,2.3,0.4,3.1,1.3c0.9,0.9,1.3,1.9,1.3,3.2c0,1.2-0.4,2.2-1.3,3.1
	s-1.9,1.3-3.1,1.3c-1.2,0-2.3-0.4-3.1-1.3C30.8,33.2,30.4,32.2,30.4,31L30.4,31z"/>
</svg>
