<svg xmlns="http://www.w3.org/2000/svg" viewBox="0 0 64 48">
<path d="M35.7,2.9c1.1-1.1,2.2-1.9,3.5-2.3S41.6,0,42.4,0c2.2,0,4.3,1,6.3,2.9c1.2,1.2,2,2.4,2.3,3.5c0.4,1.2,0.5,2,0.5,2.7
	c0,0.6,0,1.1-0.1,1.6c-0.5,2.3-1.4,4.1-2.8,5.4L27.9,37.3c-1.1,1.1-2.4,1.7-3.8,1.7c-1.6,0-2.9-0.6-4-1.7c-0.9-0.9-1.3-1.6-1.5-2.4
	c-0.1-0.7-0.2-1.3-0.2-1.6c-0.1-1.4,0.5-2.7,1.7-3.9l14.3-14.6c0.3-0.3,0.8-0.5,1.3-0.5c0.5,0,0.9,0.2,1.3,0.5
	c0.3,0.4,0.5,0.8,0.5,1.3c0,0.5-0.2,1-0.5,1.3L22.6,32c-0.4,0.5-0.6,1-0.6,1.4s0.2,0.9,0.7,1.3c0.4,0.4,0.9,0.6,1.3,0.6
	c0.4,0,0.9-0.2,1.3-0.7L46,13.5c0.3-0.3,0.7-0.8,1.2-1.6c0.5-0.8,0.7-1.6,0.7-2.4c0-1.4-0.6-2.7-1.9-3.9c-1.1-1.2-2.3-1.8-3.5-1.8
	c-1.2,0-2.2,0.3-3.2,1c-0.2,0.1-0.4,0.2-0.5,0.3c-0.1,0.1-0.3,0.2-0.6,0.4L16.1,28l-0.9,1c-0.3,0.4-0.7,1.1-1.1,2.1
	s-0.7,1.8-0.8,2.4c-0.1,0.6-0.1,0.9-0.2,1.1c0,2.5,1,4.7,3,6.7c1.2,1.2,2.4,2,3.7,2.4s2.5,0.6,3.4,0.4c2.3-0.3,4.2-1.3,5.9-2.9
	l22.1-22.4c0.3-0.4,0.8-0.6,1.3-0.6c0.5,0,1,0.2,1.3,0.5c0.4,0.4,0.5,0.8,0.5,1.3c0,0.5-0.2,1-0.6,1.3L31.8,43.8
	c-1.5,1.5-3.4,2.7-5.6,3.4c-1.3,0.5-2.6,0.7-3.8,0.7c-3.2,0-6.1-1.4-8.8-4.1c-2.7-2.7-4-5.7-4-8.9c0-1.2,0.3-2.8,0.9-4.6
	s1.6-3.5,3.1-5L35.7,2.9z"/>
</svg>
