<svg xmlns="http://www.w3.org/2000/svg" viewBox="0 0 64 48">
<path d="M6.3,36c0,0.7,0.2,1.3,0.7,1.7c0.5,0.5,1,0.7,1.7,0.7h16.8v7.7c0,0.6,0.2,1,0.5,1.4c0.4,0.4,0.8,0.5,1.4,0.5h26.9
	c0.6,0,1-0.2,1.4-0.5c0.4-0.4,0.5-0.8,0.5-1.4V24.9V23c0-0.5-0.1-1.1-0.4-1.7c-0.3-0.6-0.6-1.2-1-1.5l-8.8-8.8
	c-0.4-0.3-0.9-0.7-1.5-0.9c-0.6-0.3-1.2-0.4-1.7-0.4h-1.9h-1V2.4c0-0.6-0.2-1.2-0.7-1.7c-0.5-0.5-1-0.7-1.7-0.7H8.7
	C8,0,7.4,0.2,7,0.7c-0.5,0.5-0.7,1-0.7,1.7V36L6.3,36z M14.9,6.7V4.8c0-0.3,0.1-0.5,0.3-0.7c0.2-0.2,0.4-0.3,0.7-0.3h14.4
	c0.3,0,0.5,0.1,0.7,0.3c0.2,0.2,0.3,0.4,0.3,0.7v1.9c0,0.3-0.1,0.5-0.3,0.7c-0.2,0.2-0.4,0.3-0.7,0.3H15.9c-0.3,0-0.5-0.1-0.7-0.3
	C15,7.2,14.9,7,14.9,6.7L14.9,6.7z M29.3,44.2V13.4H39v11.5c0,0.6,0.2,1,0.5,1.4c0.4,0.4,0.8,0.5,1.4,0.5h11.5v17.3H29.3L29.3,44.2z
	 M42.8,13.4C42.8,13.4,42.9,13.4,42.8,13.4c0.1,0.1,0.1,0.1,0.2,0.1c0,0,0.1,0,0.1,0s0,0,0.1,0c0.1,0,0.2,0,0.2,0.1l8.8,8.7l0.2,0.3
	c0,0.1,0.1,0.2,0.1,0.3h-9.5V13.4z"/>
</svg>
