<svg xmlns="http://www.w3.org/2000/svg" viewBox="0 0 64 48">
<path d="M8,2.2v43.6c0,0.6,0.2,1.1,0.6,1.5c0.4,0.4,0.9,0.6,1.5,0.6h15.3c0.6,0,1.1-0.2,1.5-0.6c0.4-0.4,0.6-0.9,0.6-1.5V2.2
	c0-0.6-0.2-1.1-0.6-1.5C26.6,0.2,26.1,0,25.5,0H10.2C9.6,0,9.1,0.2,8.7,0.7C8.2,1.1,8,1.6,8,2.2z M36.3,2.2v43.6
	c0,0.6,0.2,1.1,0.6,1.5c0.4,0.4,0.9,0.6,1.5,0.6h15.3c0.6,0,1.1-0.2,1.5-0.6c0.4-0.4,0.6-0.9,0.6-1.5V2.2c0-0.6-0.2-1.1-0.6-1.5
	C54.9,0.2,54.4,0,53.8,0H38.5c-0.6,0-1.1,0.2-1.5,0.6C36.6,1.1,36.3,1.6,36.3,2.2z"/>
</svg>
