<svg xmlns="http://www.w3.org/2000/svg" viewBox="0 0 64 48">
<path d="M47.4,19.6c-1.6,7.3-7.6,12-15.2,12h-3.9l-1.7,7.5L26,41.4h-2.3h-2.9l-0.8,3.7h8.8l2.2-9.8h6.3c6,0,11-3.6,12.4-9.7
	c0.8-3.5-0.2-6.1-1.9-7.7C47.6,18.4,47.5,19,47.4,19.6z M33.5,18.2c0-0.2,0-0.3,0-0.3c0,0-0.1,0-0.2,0h-2l-0.5,2.3h0.5
	c0.9,0,2-0.9,2.2-1.8L33.5,18.2L33.5,18.2z M56,41.9V6c0-0.9-0.2-1.6-0.5-2.4c-0.3-0.7-0.7-1.4-1.3-1.9c-0.5-0.5-1.2-1-1.9-1.3
	C51.5,0.2,50.8,0,50,0H14c-0.8,0-1.6,0.2-2.3,0.5c-0.7,0.3-1.3,0.7-1.9,1.3c-0.5,0.5-1,1.2-1.3,1.9C8.2,4.4,8,5.2,8,6v35.9
	c0,0.8,0.2,1.6,0.5,2.3c0.3,0.8,0.7,1.4,1.3,1.9c0.5,0.5,1.2,1,1.9,1.3c0.7,0.3,1.5,0.5,2.3,0.5h2.3l0.8-3.5l0.7-3.1h-2.9h-3.6
	l0.8-3.5l6.6-29.5L19.2,6h2.3h15c3.6,0,6.9,1.5,9,4.1c0.8,0.9,1.5,2.3,1.9,4c1.2,0.7,2.3,1.5,3.1,2.6c1.4,1.8,2.9,4.8,1.9,9.5
	c-1.6,7.3-7.6,12-15.2,12h-3.9l-1.7,7.5L31.1,48H50c1.7,0,3.1-0.6,4.3-1.8C55.4,45,56,43.6,56,41.9z M41.4,24.9
	c1.5-1.6,2.6-3.5,3.1-5.9c0.2-1,0.3-2,0.3-2.9c-0.1-1.3-0.4-2.3-0.9-3.3c-1.5-2.7-4.6-3.9-7.3-3.9h-15l-6.6,29.5h3.5h3h2.3l2.2-9.8
	h6.3c0.1,0,0.1,0,0.2,0C35.9,28.6,39.1,27.3,41.4,24.9z M36.3,19c-0.2,1-0.8,1.9-1.5,2.6c-0.3,0.3-0.6,0.5-0.9,0.7
	c-0.8,0.5-1.7,0.8-2.6,0.8h-4.1l1.7-7.5l0.1-0.6h4.3c0.7,0,1.4,0.2,1.9,0.6C36.2,16.2,36.7,17.5,36.3,19z"/>
</svg>
