<svg xmlns="http://www.w3.org/2000/svg" viewBox="0 0 64 48">
<path d="M34.1,18.5c0.4-0.2,0.7-0.5,1-0.8c0.8-0.8,1.5-1.8,1.8-2.9c0.5-1.7-0.1-3.1-1.2-3.9c-0.6-0.4-1.3-0.7-2.2-0.7h-4.9l-0.2,0.7
	l-2,8.6h4.7C32.2,19.4,33.2,19.1,34.1,18.5z M31.2,13.5h2.3c0.1,0,0.2,0,0.2,0c0,0,0,0.2,0,0.4l0,0.1l0,0.1
	c-0.3,1.1-1.5,2.1-2.5,2.1h-0.5L31.2,13.5z M53.2,12.2c-1-1.2-2.2-2.2-3.5-2.9c-0.5-2-1.3-3.5-2.2-4.6C45.1,1.7,41.3,0,37.2,0H20
	h-2.7l-0.6,2.6L9.2,36.3l-0.9,4.1h4.2h3.3L15,43.9L14,47.9h4.2h10.1h2.7l0.6-2.6l1.9-8.6h4.5c8.7,0,15.6-5.4,17.4-13.7
	C56.5,17.7,54.8,14.2,53.2,12.2z M16.5,37.1h-4L20,3.3h17.1c3.2,0,6.7,1.4,8.4,4.5c0.6,1,1,2.3,1,3.7c0.1,1,0,2.1-0.3,3.3
	c-0.6,2.7-1.9,5-3.6,6.8c-2.6,2.7-6.3,4.2-10.4,4.3c-0.1,0-0.2,0-0.3,0H25l-2.5,11.2h-2.6H16.5z M52.1,22.4
	c-1.5,7-7.3,11.1-14.2,11.1h-7.2l-2.5,11.2H18.2l0.9-4.2h3.4h2.7l0.6-2.6l1.9-8.6h4.5c8.7,0,15.6-5.4,17.4-13.7
	c0.2-0.7,0.3-1.4,0.3-2C51.8,15.4,53,18.3,52.1,22.4z"/>
</svg>
