<svg xmlns="http://www.w3.org/2000/svg" viewBox="0 0 64 48">
<path d="M31.1,27.7c0.6,0.3,1.3,0.4,1.9,0.4c1.4,0,2.5-0.5,3.5-1.5c1-1,1.5-2.2,1.5-3.6s-0.5-2.6-1.5-3.6c-1-1-2.2-1.5-3.6-1.5
	c-1.4,0-2.6,0.5-3.5,1.5c-1,1-1.4,2.2-1.4,3.5c0,0.6,0.1,1.3,0.3,1.9L11.4,41.8c-0.4,0.4-0.9,0.6-1.4,0.6c-0.6,0-1.1-0.2-1.4-0.6
	C8.2,41.5,8,41.1,8,40.7c0-0.4,0.1-0.8,0.2-1l12.4-28.6c0.3-0.7,0.8-1.2,1.6-1.4l16.5-4.5l-1-1c-0.5-0.5-0.7-1-0.7-1.7
	c0-0.7,0.2-1.3,0.7-1.7C38.2,0.2,38.8,0,39.5,0c0.7,0,1.2,0.2,1.8,0.7l14.1,14.1c0.5,0.5,0.7,1.1,0.7,1.8c0,0.7-0.2,1.2-0.7,1.7
	c-0.5,0.5-1.1,0.7-1.7,0.7c-0.7,0-1.2-0.2-1.7-0.7l-1-1l-4.5,16.5c-0.2,0.7-0.6,1.2-1,1.4l-29,12.6c-0.3,0.1-0.6,0.2-1,0.2
	c-0.4,0-0.8-0.2-1.2-0.6c-0.4-0.4-0.6-0.9-0.6-1.4s0.2-1,0.6-1.4L31.1,27.7L31.1,27.7z"/>
</svg>
