<svg xmlns="http://www.w3.org/2000/svg" viewBox="0 0 64 48">
<path d="M21.3,1.4c-1.7-1.1-3.2-1.6-4.4-1.3c-0.4,0.1-0.8,0.2-1.2,0.5C13.1,2.3,11.3,4,10.4,6c-0.5,1.2-0.5,3.7,0,7.4
	c0.3,2,0.7,4.2,1.4,6.5c0.7,2.3,1.7,4.8,3.2,7.6c1.5,2.8,3.3,5.3,5.3,7.7c3.1,3.4,6.4,6.1,9.8,8c1.5,0.8,3.1,1.6,4.7,2.2
	c1.6,0.7,3,1.1,4.3,1.4c1.3,0.3,2.5,0.5,3.7,0.7c1.1,0.2,2,0.3,2.7,0.2c0.7-0.1,1.2-0.1,1.6-0.1h0.1c2.1-0.7,4.2-2.3,6.2-4.8
	c1.1-1.3,1-3.4-0.4-6.2C52.6,36,50.9,35,47.9,34c-3-1-4.9-1.6-5.6-1.7c-0.7-0.1-1.5,0.2-2.5,1c-0.7,0.5-1.9,1.6-3.6,3
	c-1.5-0.7-3.1-1.8-5.1-3.4c-1.9-1.6-3.4-3.1-4.7-4.5c-1.2-1.3-2.4-3-3.6-4.9c-1.2-1.9-2-3.6-2.5-5.1c1.9-1.6,3.1-2.8,3.7-3.5
	c0.7-0.7,1-1.4,1-2.1s-0.3-2.5-1-5.7c-0.7-3.1-1.4-4.9-2.2-5.3C21.8,1.7,21.6,1.7,21.3,1.4L21.3,1.4z"/>
</svg>
