<svg xmlns="http://www.w3.org/2000/svg" viewBox="0 0 64 48">
<path d="M4.3,46.9C5,47.6,5.9,48,6.8,48h50.4c1,0,1.8-0.4,2.5-1.1c0.7-0.7,1.1-1.5,1.1-2.5V3.6c0-1-0.4-1.8-1.1-2.5
	C59.1,0.4,58.2,0,57.3,0H6.8C5.9,0,5,0.4,4.3,1.1C3.6,1.8,3.2,2.6,3.2,3.6v40.8C3.2,45.4,3.6,46.2,4.3,46.9z M8,4.8h48v38.4H8V4.8z
	 M51.2,38.4V25.2L38.4,12L27.4,28.7l-5.9-4.9l-8.6,11.3v3.3H51.2z M17.7,19.3c1.3,0,2.5-0.5,3.4-1.4s1.4-2.1,1.4-3.4
	S22,11.9,21.1,11c-0.9-0.9-2.1-1.4-3.4-1.4c-1.3,0-2.5,0.5-3.4,1.4c-0.9,0.9-1.4,2.1-1.4,3.4s0.5,2.5,1.4,3.4
	C15.2,18.8,16.3,19.3,17.7,19.3z"/>
</svg>
