<svg xmlns="http://www.w3.org/2000/svg" viewBox="0 0 64 48">
<path d="M40.3,1.3c2.2,0.9,4,2.1,5.5,3.5s2.7,3.1,3.5,5c0.9,1.9,1.3,3.9,1.3,5.9c0,3.6-0.6,6.8-1.9,9.6c-1.2,2.9-3,5.1-5.3,6.7
	c-2.3,1.6-4.9,2.5-7.7,2.5c-1.5,0-2.8-0.3-4.1-1c-1.3-0.7-2.1-1.5-2.6-2.4l-0.4,1.6l-0.9,3.5c-0.3,1.3-0.5,2.1-0.6,2.4
	c-0.7,2.6-2.4,5.6-5,9c-0.1,0.1-0.2,0.2-0.4,0.1c-0.2,0-0.3-0.1-0.3-0.3c-0.6-4.3-0.6-7.8,0.1-10.4l3.5-15l-0.2-0.5
	c-0.1-0.3-0.3-0.9-0.4-1.6c-0.1-0.7-0.2-1.5-0.2-2.2c0-2,0.5-3.7,1.5-5.1c1-1.4,2.3-2.1,3.8-2.1c1.2,0,2.1,0.4,2.7,1.2
	c0.6,0.8,1,1.8,1,3c0,0.7-0.1,1.7-0.4,2.7c-0.3,1.1-0.6,2.3-1.1,3.7c-0.4,1.4-0.8,2.5-1,3.4c-0.4,1.4-0.1,2.7,0.8,3.7
	c0.9,1,2.1,1.6,3.5,1.6c1.7,0,3.2-0.7,4.6-2c1.3-1.3,2.4-3.1,3.1-5.3s1.1-4.7,1.1-7.3c0-3.1-1-5.7-3-7.6c-2-2-4.8-2.9-8.4-2.9
	c-2,0-3.9,0.4-5.6,1.1c-1.7,0.7-3.2,1.7-4.3,2.9c-1.1,1.2-2,2.6-2.7,4.2c-0.6,1.6-1,3.3-1,5c0,2.2,0.6,4,1.8,5.4
	c0.2,0.3,0.4,0.5,0.5,0.7c0.1,0.2,0,0.5,0,0.8L20.5,27c-0.1,0.4-0.3,0.6-0.5,0.7c-0.2,0.1-0.5,0.1-0.9,0c-1.8-0.7-3.3-2.1-4.2-4
	c-1-1.9-1.4-4.1-1.4-6.5c0-1.6,0.3-3.2,0.8-4.8c0.5-1.6,1.3-3.1,2.4-4.6c1.1-1.5,2.4-2.8,3.9-4C22,2.7,23.9,1.7,26.1,1
	c2.2-0.7,4.5-1,7-1C35.7,0,38.1,0.4,40.3,1.3z"/>
</svg>
