<svg xmlns="http://www.w3.org/2000/svg" viewBox="0 0 64 48">
<path d="M8,42c0,1.7,0.6,3.1,1.8,4.3S12.4,48,14,48h8.1c-0.1-0.9-0.1-2.2-0.2-3.7s0.1-3,0.4-4.5c0.1-0.5,0.3-1.4,0.6-2.5
	c0.2-1,0.5-2.4,0.9-4.1c0.4-1.8,1-4.1,1.7-7.1c-0.4-0.9-0.6-1.7-0.7-2.6c-0.1-0.5-0.1-0.9-0.1-1.4c0-1.9,0.5-3.5,1.4-4.7
	c0.9-1.2,2.1-1.8,3.5-1.8c1.2,0,2,0.4,2.6,1.1c0.6,0.8,0.8,1.6,0.8,2.7c0,1.1-0.3,2.5-0.8,4.1c-0.6,1.6-1,3.2-1.4,4.8
	c-0.2,0.7-0.2,1.3,0,1.9c0.1,0.6,0.4,1.1,0.8,1.5c0.4,0.4,0.9,0.8,1.4,1.1c0.6,0.3,1.2,0.4,1.8,0.4c1.2,0,2.3-0.4,3.3-1.1
	c1-0.7,1.8-1.7,2.5-2.9s1.2-2.6,1.6-4.3s0.6-3.3,0.6-5.1c0-1.4-0.2-2.7-0.7-3.9c-0.4-1.2-1.1-2.2-2-3c-0.9-0.9-2-1.5-3.3-2
	c-1.3-0.5-2.8-0.7-4.5-0.7c-1.9,0-3.6,0.3-5.1,1c-1.5,0.7-2.8,1.5-3.9,2.7c-1.1,1.1-1.9,2.4-2.5,3.8c-0.6,1.4-0.9,3-0.9,4.5
	c0,1.1,0.1,2.1,0.4,2.9c0.3,0.8,0.7,1.5,1.2,2.1c0.4,0.4,0.5,0.9,0.4,1.3c-0.1,0.3-0.2,0.6-0.2,1.1c-0.1,0.4-0.2,0.8-0.3,1
	c-0.1,0.3-0.2,0.6-0.5,0.7s-0.5,0.1-0.8,0c-1.8-0.7-3-1.9-3.9-3.7c-0.8-1.8-1.2-3.7-1.2-5.9c0-1.8,0.4-3.6,1.1-5.5s1.9-3.5,3.4-5.1
	c1.5-1.5,3.4-2.8,5.6-3.8c2.3-1,4.9-1.5,7.8-1.5c2.4,0,4.5,0.4,6.5,1.2c2,0.8,3.6,1.9,5,3.2c1.4,1.3,2.5,2.9,3.2,4.6
	c0.8,1.7,1.2,3.5,1.2,5.4c0,2.5-0.3,4.8-1,6.9c-0.7,2.1-1.6,3.9-2.8,5.5c-1.2,1.5-2.6,2.7-4.3,3.6c-1.7,0.9-3.5,1.3-5.5,1.3
	c-1.4,0-2.6-0.3-3.8-0.9c-1.2-0.6-1.9-1.3-2.4-2.2L28.3,38l-0.5,2.1l-0.3,1.3c-0.4,1.3-0.9,2.5-1.5,3.7c-0.7,1.2-1.3,2.2-1.9,3H50
	c0.8,0,1.6-0.2,2.3-0.5c0.8-0.3,1.4-0.8,1.9-1.3s1-1.2,1.3-1.9S56,42.8,56,42V6c0-1.7-0.6-3.1-1.8-4.3S51.6,0,50,0H14
	c-0.9,0-1.6,0.2-2.4,0.5c-0.7,0.3-1.4,0.8-1.9,1.3c-0.5,0.5-1,1.2-1.3,1.9C8.1,4.4,8,5.2,8,6V42L8,42z"/>
</svg>
