<svg xmlns="http://www.w3.org/2000/svg" viewBox="0 0 64 48">
<path d="M8.1,23.9c0,3.3,0.6,6.4,1.9,9.3c1.3,2.9,3,5.4,5.1,7.6c2.2,2.2,4.7,3.9,7.6,5.1c2.9,1.3,6,1.9,9.3,1.9s6.4-0.6,9.3-1.9
	c2.9-1.3,5.4-3,7.6-5.1c2.2-2.2,3.9-4.7,5.1-7.6c1.3-2.9,1.9-6,1.9-9.3s-0.6-6.4-1.9-9.3c-1.3-2.9-3-5.4-5.1-7.6
	c-2.2-2.2-4.7-3.9-7.6-5.1C38.4,0.6,35.3,0,32,0s-6.4,0.6-9.3,1.9c-2.9,1.3-5.4,3-7.6,5.1c-2.2,2.2-3.9,4.7-5.1,7.6
	C8.7,17.5,8.1,20.6,8.1,23.9z M15.3,23.9c0-2.3,0.4-4.5,1.3-6.5c0.9-2,2.1-3.8,3.6-5.3c1.5-1.5,3.3-2.7,5.3-3.6
	c2-0.9,4.2-1.3,6.5-1.3s4.5,0.4,6.5,1.3c2,0.9,3.8,2.1,5.4,3.6c1.5,1.5,2.7,3.3,3.6,5.3c0.9,2,1.3,4.2,1.3,6.5s-0.4,4.5-1.3,6.5
	c-0.9,2-2.1,3.8-3.6,5.4c-1.5,1.5-3.3,2.7-5.4,3.6s-4.2,1.3-6.5,1.3s-4.5-0.4-6.5-1.3s-3.8-2.1-5.3-3.6c-1.5-1.5-2.7-3.3-3.6-5.4
	C15.7,28.4,15.3,26.2,15.3,23.9L15.3,23.9z M24.5,14v19.8c0,0.4,0.2,0.7,0.5,0.9c0.3,0.2,0.7,0.2,1,0l17.2-10
	c0.3-0.1,0.5-0.4,0.5-0.8c0-0.4-0.2-0.7-0.5-0.8L26,13.1c-0.2-0.1-0.3-0.1-0.5-0.1c-0.1,0-0.4,0.1-0.6,0.2
	C24.7,13.4,24.5,13.7,24.5,14z"/>
</svg>
