<svg xmlns="http://www.w3.org/2000/svg" viewBox="0 0 64 48">
<path d="M40.5,0c0.7,0,1.3,0.2,1.8,0.7C42.8,1.2,43,1.8,43,2.5c0,0.7-0.3,1.3-0.8,1.7L33.5,13l9,9l9.3-9.3c0.5-0.5,1-0.7,1.7-0.7
	s1.3,0.2,1.7,0.7c0.5,0.5,0.7,1,0.7,1.7s-0.2,1.3-0.7,1.7L46,25.5l4.3,4.3c0.5,0.5,0.7,1.1,0.7,1.8c0,0.7-0.2,1.2-0.7,1.7
	c-0.5,0.5-1,0.7-1.7,0.7s-1.3-0.3-1.7-0.8l-0.6-0.5L42,36.9c-2.8,2.8-6,4.4-9.7,4.9c-3.7,0.5-7.1-0.2-10.4-2.2l-7.2,7.2
	C14,47.6,13.1,48,12,48c-1.1,0-2-0.4-2.8-1.2S8.1,45.1,8.1,44s0.4-2,1.2-2.8l7.2-7.2c-2-3.2-2.7-6.6-2.2-10.3
	c0.5-3.7,2.1-6.9,4.8-9.6l4.3-4.3l-0.6-0.5c-0.5-0.5-0.7-1-0.7-1.7c0-0.7,0.2-1.3,0.7-1.8C23.2,5.2,23.8,5,24.5,5
	c0.7,0,1.2,0.3,1.7,0.8L30,9.5l8.8-8.8C39.3,0.3,39.8,0,40.5,0z"/>
</svg>
