<svg xmlns="http://www.w3.org/2000/svg" viewBox="0 0 64 48">
<path d="M8,24c0,3.3,0.6,6.5,1.9,9.3c1.3,2.9,3,5.4,5.2,7.6s4.7,3.9,7.6,5.2c2.9,1.3,6,1.9,9.3,1.9c3.3,0,6.5-0.6,9.3-1.9
	c2.9-1.3,5.4-3,7.6-5.2c2.2-2.2,3.9-4.7,5.2-7.6c1.3-2.9,1.9-6,1.9-9.3c0-3.3-0.6-6.5-1.9-9.3c-1.3-2.9-3-5.4-5.2-7.6
	c-2.2-2.2-4.7-3.9-7.6-5.2C38.4,0.6,35.3,0,32,0c-3.3,0-6.5,0.6-9.3,1.9c-2.9,1.3-5.4,3-7.6,5.2s-3.9,4.7-5.2,7.6
	C8.6,17.5,8,20.7,8,24z M18.2,21.7c0-0.3,0.1-0.5,0.3-0.8c0.2-0.2,0.5-0.3,0.7-0.3h9.4V10.3c0-0.3,0.1-0.5,0.3-0.8s0.5-0.3,0.7-0.3
	h5c0.2,0,0.5,0.1,0.7,0.3s0.3,0.5,0.3,0.8v10.3h9.4c0.2,0,0.5,0.1,0.7,0.3c0.2,0.2,0.3,0.5,0.3,0.8v4.7c0,0.2-0.1,0.5-0.3,0.7
	c-0.2,0.2-0.5,0.3-0.7,0.3h-9.4v10.4c0,0.3-0.1,0.5-0.3,0.8s-0.5,0.3-0.7,0.3h-5c-0.2,0-0.5-0.1-0.7-0.3s-0.3-0.5-0.3-0.8V27.3h-9.4
	c-0.2,0-0.5-0.1-0.7-0.3c-0.2-0.2-0.3-0.5-0.3-0.7V21.7z"/>
</svg>
