<svg xmlns="http://www.w3.org/2000/svg" viewBox="0 0 64 48">
<path d="M8,21.8v4.5c0,0.8,0.3,1.5,0.8,2.1c0.6,0.5,1.3,0.8,2.1,0.8h15.9V45c0,0.8,0.3,1.6,0.8,2.2c0.5,0.6,1.3,0.8,2.1,0.8h4.5
	c0.8,0,1.5-0.3,2.1-0.8c0.6-0.6,0.9-1.3,0.9-2.1V29.2h15.8c0.8,0,1.5-0.3,2.1-0.9S56,27,56,26.2v-4.5c0-0.8-0.3-1.5-0.8-2.1
	c-0.6-0.5-1.3-0.8-2.1-0.8H37.2V3c0-0.8-0.3-1.6-0.9-2.2c-0.5-0.5-1.2-0.8-2-0.8h-4.5c-0.8,0-1.5,0.3-2.1,0.8
	c-0.6,0.6-0.9,1.3-0.9,2.1v15.9H10.9c-0.8,0-1.6,0.3-2.2,0.8C8.2,20.2,8,20.9,8,21.8z"/>
</svg>
