<svg xmlns="http://www.w3.org/2000/svg" viewBox="0 0 64 48">
<path d="M4.5,48h55c0.8,0,1.2-0.4,1.2-1.2V35.9c0-1-0.2-1.9-0.5-2.8s-0.9-1.6-1.5-2.3c-0.6-0.6-1.4-1.2-2.3-1.5
	c-0.9-0.4-1.8-0.5-2.8-0.5h-43c-1,0-1.9,0.2-2.8,0.5c-0.9,0.4-1.6,0.9-2.3,1.5c-0.6,0.6-1.2,1.4-1.5,2.3c-0.4,0.9-0.5,1.8-0.5,2.8
	v10.8C3.3,47.5,3.7,48,4.5,48z M11.7,40.7c0-0.4,0.1-0.6,0.4-0.9c0.3-0.3,0.5-0.4,0.9-0.4h38.2c0.4,0,0.6,0.1,0.9,0.4
	c0.3,0.3,0.4,0.5,0.4,0.9v1.2c0,0.4-0.1,0.6-0.4,0.8c-0.3,0.2-0.5,0.4-0.9,0.4H12.8c-0.4,0-0.6-0.1-0.9-0.4
	c-0.3-0.2-0.4-0.5-0.4-0.8L11.7,40.7L11.7,40.7z M51.2,25.2v-9.5h-12c-1,0-1.8-0.4-2.5-1.1c-0.7-0.7-1.1-1.5-1.1-2.6V0H15.3
	c-0.7,0-1.3,0.3-1.7,0.7c-0.5,0.5-0.7,1-0.7,1.6v22.8H51.2z M51.2,12L39.1,0V12H51.2z"/>
</svg>
