<svg xmlns="http://www.w3.org/2000/svg" viewBox="0 0 64 48">
<path d="M42.1,26c0.8-0.2,1.5-0.4,2-0.7c0.5-0.3,1-0.6,1.4-1.1c0.4-0.5,0.7-0.9,1-1.3c0.2-0.4,0.5-0.9,0.7-1.5
	c0.2-0.5,0.4-1,0.5-1.4c0.1-0.4,0.2-0.8,0.2-1.2c0-0.5-0.1-0.9-0.3-1.2c-0.6-0.9-2-1.3-4.3-1.3H23.7L22.1,20h3.7L22.5,28h-3.7
	l-1.6,3.8h15l1.6-3.8H30l0.7-1.7h8.7C40.4,26.2,41.3,26.2,42.1,26z M45.7,16.9c0.6,0.2,1.1,0.4,1.3,0.6c0.3,0.2,0.4,0.6,0.4,1
	c0,0.4,0,0.8-0.1,1.2c-0.1,0.4-0.3,0.9-0.5,1.4c-0.2,0.6-0.5,1-0.7,1.4c-0.2,0.4-0.5,0.8-0.9,1.2c-0.4,0.4-0.8,0.8-1.3,1
	c-0.5,0.2-1.1,0.5-1.9,0.6c-0.8,0.2-1.7,0.3-2.7,0.3h-8.9l-1.1,2.5h3.8l-1.3,3H17.7l1.3-3h3.7l3.7-8.7h-3.7l1.2-3l19.3,0
	C44.3,16.7,45.1,16.8,45.7,16.9z M40,22.4c0.5-0.3,0.8-0.7,1-1.2c0.2-0.5,0.2-0.9,0-1.2s-0.6-0.4-1.2-0.4h-6.7l-1.4,3.2h6.7
	C39,22.9,39.5,22.7,40,22.4z M40.6,21.1c-0.2,0.4-0.5,0.8-0.9,1c-0.4,0.2-0.9,0.4-1.4,0.4h-6.1l1.1-2.4h6.4c0.5,0,0.8,0.1,0.9,0.3
	C40.8,20.5,40.8,20.7,40.6,21.1z M54.2,46.2c1.2-1.2,1.8-2.6,1.8-4.3V6.1c0-0.9-0.2-1.6-0.5-2.4c-0.3-0.7-0.7-1.4-1.3-1.9
	c-0.5-0.5-1.2-1-1.9-1.3C51.5,0.2,50.7,0,49.9,0H14c-0.8,0-1.6,0.2-2.3,0.5C11,0.9,10.3,1.3,9.8,1.8C9.3,2.3,8.8,3,8.5,3.7
	C8.2,4.4,8,5.2,8,6.1v35.9c0,0.8,0.2,1.6,0.5,2.3c0.3,0.7,0.7,1.4,1.3,1.9c0.5,0.5,1.2,1,1.9,1.3c0.7,0.3,1.5,0.5,2.3,0.5h36
	C51.6,48,53,47.4,54.2,46.2L54.2,46.2z M49.9,18c0.1,0.5,0.1,1.1,0,1.7c-0.1,0.6-0.2,1-0.3,1.3c-0.1,0.3-0.3,0.7-0.5,1.2
	c-0.3,0.7-0.6,1.3-0.9,1.9c-0.3,0.5-0.7,1.1-1.3,1.6c-0.5,0.6-1.1,1-1.8,1.4c-0.6,0.4-1.5,0.6-2.4,0.9c-1,0.2-2.1,0.3-3.3,0.3h-3.5
	l-2.3,5.5H14.1l3.3-7.8h3.7l1.6-3.8h0H19l3.4-7.9h20.9c3,0,5,0.7,6,2.2C49.6,17,49.8,17.5,49.9,18z"/>
</svg>
