<svg xmlns="http://www.w3.org/2000/svg" viewBox="0 0 64 48">
<path d="M60.1,19.2c0.2-0.5,0.4-1.2,0.5-2.2c0.2-0.9,0.2-1.8,0-2.7c-0.2-0.9-0.5-1.7-1-2.5c-1.6-2.4-4.8-3.6-9.6-3.6H16.6l-5.4,12.6
	h5.9h0l-2.6,6.1h-6L3.2,39.6h31.2l3.7-8.8h5.7c1.9,0,3.7-0.2,5.2-0.6c1.6-0.4,2.9-0.8,3.9-1.4s2-1.3,2.8-2.2c0.8-0.9,1.5-1.8,2-2.6
	s1-1.8,1.5-3C59.7,20.4,59.9,19.7,60.1,19.2z M57.4,15.6c0,0.7-0.1,1.4-0.3,2s-0.5,1.3-0.8,2.2c-0.4,0.9-0.8,1.7-1.1,2.4
	c-0.4,0.6-0.9,1.3-1.6,2.1c-0.7,0.7-1.4,1.3-2.2,1.8s-1.9,0.8-3.1,1.1c-1.3,0.3-2.8,0.4-4.4,0.4H29.9l-1.2,2.8h6.1l-2.5,6H8.2l2.5-6
	h6l5.4-12.7h-6l2.5-6h31.4c3.6,0,5.9,0.7,6.8,2.1C57.3,14.3,57.4,14.9,57.4,15.6z M34.2,17.6h10.3c0.8,0,1.3,0.1,1.5,0.4
	c0.2,0.3,0.2,0.7-0.1,1.3c-0.3,0.7-0.8,1.2-1.4,1.6c-0.6,0.4-1.4,0.6-2.2,0.6h-9.8L34.2,17.6z M56.4,18c0.1-0.5,0.3-1,0.4-1.5
	c0.1-0.5,0.1-1,0-1.4c-0.1-0.4-0.2-0.8-0.5-1.1c-0.3-0.4-0.7-0.7-1.2-0.9c-0.5-0.2-1.2-0.4-2-0.6c-0.8-0.1-1.8-0.2-3-0.2h-31l-2,4.8
	h6l-5.9,14h-6l-2,4.8h22.7l2-4.8h-6.1l1.7-4h14.3c1.6,0,3-0.1,4.2-0.4c1.2-0.3,2.2-0.6,3-1c0.8-0.4,1.5-1,2.1-1.7
	c0.6-0.7,1.1-1.3,1.4-1.9c0.3-0.6,0.7-1.4,1.1-2.3C56,19,56.2,18.4,56.4,18z M46.4,17.7c0.4,0.5,0.4,1.1,0,1.9s-0.9,1.4-1.6,1.9
	c-0.7,0.5-1.6,0.7-2.5,0.7H31.5l2.2-5.2h10.7C45.4,17,46,17.2,46.4,17.7z"/>
</svg>
