<svg xmlns="http://www.w3.org/2000/svg" viewBox="0 0 64 48">
<path d="M3.3,18.5c-0.4,3.5,0.5,6,2.6,7.6c1.1,0.8,2.3,1.2,3.7,1.2c1.4,0,2.9-0.3,4.4-1l9,6.8c-0.6,2.5-0.7,4.7-0.3,6.8
	c0.4,2.1,1.4,3.7,2.9,4.8c2.2,1.7,5,1.9,8.4,0.8c3.3-1.1,6.5-3.2,9.5-6.5L59,47.9c0.3,0.1,0.5,0.1,0.8,0.1c0.3,0,0.5-0.2,0.7-0.5
	c0.5-0.5,0.4-1-0.1-1.5L47.5,33.6c2.2-3.8,3.4-7.4,3.5-11c0-1.7-0.2-3.2-0.7-4.5c-0.5-1.3-1.4-2.5-2.7-3.5c-1.3-1-3-1.3-5.1-1.2
	c-2.1,0.2-4.3,0.9-6.5,2.1l-9-6.7c0.4-3.6-0.5-6.2-2.6-7.7c-2-1.5-4.7-1.6-8-0.3c-1.5,0.6-3.1,1.6-4.6,2.8c-1.5,1.2-2.9,2.7-4.2,4.4
	c-1.3,1.7-2.3,3.5-3,5.3C3.9,15.2,3.4,16.9,3.3,18.5L3.3,18.5z M8.3,21.3c0-0.3,0-0.6,0.3-0.9c0.2-0.3,0.5-0.4,0.8-0.5
	c0.3,0,0.6,0,0.9,0.3c0.3,0.1,1-0.3,2.2-1.1c1.2-0.8,2.6-2.2,4.2-4.3c0.5-0.7,1-0.8,1.7-0.3c0.3,0.2,0.5,0.5,0.5,0.8
	c0,0.3,0,0.6-0.3,0.9c-1.3,1.7-2.7,3.2-4.2,4.4c-0.7,0.6-1.4,1.1-2.1,1.4c-0.7,0.3-1.4,0.5-2,0.5c-0.6,0-1.1-0.1-1.4-0.4
	C8.5,21.9,8.4,21.6,8.3,21.3L8.3,21.3z M19.1,22.9l10.4,7.7c0.6,0.5,0.7,1.1,0.2,1.7c-0.2,0.3-0.5,0.4-0.8,0.4s-0.6-0.1-0.9-0.3
	l-10.9-8.1C17.8,24,18.5,23.5,19.1,22.9z M28.3,39c0.2-0.3,0.5-0.4,0.8-0.5c0.3-0.1,0.6,0,0.9,0.2c0.6,0.5,1.9,0.2,3.8-1
	c2-1.2,4-3.2,5.9-5.8c0.2-0.3,0.5-0.4,0.8-0.5c0.3-0.1,0.6,0,0.9,0.2c0.6,0.5,0.7,1,0.3,1.7c-1.6,2.1-3.4,4-5.4,5.5
	c-1,0.7-1.9,1.3-2.9,1.7c-0.9,0.4-1.8,0.6-2.7,0.6c-0.8,0-1.5-0.2-2.1-0.7C28,40.2,27.9,39.7,28.3,39L28.3,39z"/>
</svg>
