<svg xmlns="http://www.w3.org/2000/svg" viewBox="0 0 64 48">
<path d="M46.5,18.9c0,0.5,0.2,0.9,0.5,1.3s0.8,0.5,1.3,0.5s0.9-0.2,1.3-0.6c1.2-1.7,2.8-2.5,4.7-2.5c1.9,0,3.5,0.6,4.7,1.9
	c1.2,1.2,1.9,2.7,1.9,4.5s-0.6,3.2-1.9,4.4c-1.2,1.2-2.8,1.8-4.7,1.8S51,29.5,49.7,28h-0.1c-0.3-0.5-0.8-0.7-1.3-0.7
	c-0.5,0-1,0.2-1.3,0.5c-0.3,0.4-0.5,0.8-0.5,1.3v10.2c0,1-0.4,1.8-1.1,2.5c-0.7,0.7-1.6,1.1-2.6,1.1l-5.1,0.1
	c-0.5,0-0.9-0.2-1.3-0.5C36.1,42,36,41.6,36,41.1c0-0.5,0.2-1,0.6-1.3c1.2-1.2,1.8-2.6,1.8-4.1c0-1.5-0.5-2.7-1.6-3.8
	s-2.3-1.6-3.8-1.6s-2.7,0.5-3.8,1.6s-1.6,2.4-1.6,4c0,1.6,0.7,2.9,2,4.1c0.3,0.2,0.4,0.6,0.4,1.1c0,0.5-0.2,1-0.5,1.3
	c-0.3,0.3-0.8,0.5-1.3,0.5h-6.9c-1,0-1.9-0.4-2.6-1.1c-0.7-0.7-1.1-1.5-1.1-2.5V29.1c0-0.5-0.2-0.9-0.5-1.2
	c-0.3-0.4-0.8-0.5-1.3-0.5c-0.5,0-1,0.2-1.4,0.7c-1.3,1.5-2.8,2.3-4.7,2.3c-1.9,0-3.4-0.6-4.6-1.8c-1.2-1.2-1.9-2.7-1.9-4.4
	s0.6-3.2,1.9-4.5c1.2-1.2,2.8-1.9,4.7-1.9c1.9,0,3.5,0.8,4.8,2.5c0.3,0.3,0.8,0.5,1.3,0.5c0.5,0,0.9-0.2,1.3-0.5
	c0.3-0.3,0.5-0.8,0.5-1.3V8.6c0-1,0.4-1.8,1.1-2.5c0.7-0.7,1.6-1.1,2.6-1.1h4.2c0.5,0,0.9,0.2,1.3,0.5c0.3,0.4,0.5,0.8,0.5,1.3
	c0,0.5-0.2,1-0.6,1.3c-1.2,1.2-1.8,2.6-1.8,4.1c0,1.5,0.5,2.7,1.6,3.7c1,1,2.3,1.6,3.8,1.6c1.5,0,2.8-0.5,3.8-1.6s1.6-2.3,1.6-3.8
	s-0.5-2.7-1.5-3.8c-0.6-0.5-1-1.1-1-1.7c0-0.5,0.2-0.9,0.5-1.2c0.4-0.4,0.8-0.5,1.3-0.5h7.8c1,0,1.9,0.4,2.6,1.1
	c0.7,0.7,1.1,1.5,1.1,2.5V18.9z"/>
</svg>
