<svg xmlns="http://www.w3.org/2000/svg" viewBox="0 0 64 48">
<path d="M9.9,33.3c1.3,2.9,3,5.4,5.1,7.6c2.2,2.2,4.7,3.9,7.6,5.1s6,1.9,9.3,1.9s6.4-0.6,9.3-1.9s5.4-3,7.6-5.1s3.9-4.7,5.1-7.6
	c1.3-2.9,1.9-6,1.9-9.3c0-3.3-0.6-6.4-1.9-9.3c-1.3-2.9-3-5.4-5.1-7.6c-2.2-2.2-4.7-3.9-7.6-5.1C38.4,0.6,35.3,0,32,0
	s-6.4,0.6-9.3,1.9c-2.9,1.3-5.4,3-7.6,5.1c-2.2,2.2-3.9,4.7-5.1,7.6C8.6,17.5,8,20.7,8,24C8,27.3,8.6,30.4,9.9,33.3z M24,14
	c-0.3-0.4-0.2-0.8,0.3-1.4c0.5-0.5,1.2-1,2-1.4c1.9-1,3.9-1.5,5.9-1.5c2.5,0,4.7,0.7,6.6,2.1c0.9,0.7,1.6,1.6,2.2,2.7
	c0.6,1.1,0.8,2.4,0.8,3.9c0,1.5-0.5,3-1.5,4.6c-0.4,0.6-0.8,1.2-1.3,1.7c-0.5,0.5-1.1,1-1.7,1.5s-1.2,1.1-1.7,1.6s-0.8,1.2-0.8,2
	v1.6c0,0.2-0.1,0.4-0.3,0.6c-0.2,0.2-0.4,0.3-0.6,0.3h-4.9c-0.2,0-0.4-0.1-0.6-0.3c-0.2-0.2-0.3-0.4-0.3-0.6v-1.9
	c0-1.5,0.4-3,1.3-4.3c0.4-0.6,0.8-1.1,1.3-1.5c0.5-0.4,1-0.9,1.6-1.4c0.6-0.5,1.1-1.1,1.6-1.6c0.5-0.6,0.7-1.2,0.7-1.9
	c0-0.7-0.3-1.3-0.8-1.7c-0.6-0.4-1.2-0.7-2-0.7c-0.8,0-1.7,0.2-2.7,0.7c-0.4,0.2-0.7,0.5-1.1,0.7c-0.3,0.3-0.8,0.2-1.3-0.1L24,14
	L24,14z M28.2,34.8c0-0.3,0.1-0.5,0.3-0.6c0.2-0.2,0.4-0.3,0.6-0.3H34c0.6,0,0.9,0.3,0.9,0.9v4.7c0,0.2-0.1,0.4-0.3,0.6
	c-0.2,0.2-0.4,0.3-0.6,0.3h-4.9c-0.2,0-0.4-0.1-0.6-0.3c-0.2-0.2-0.3-0.4-0.3-0.6V34.8z"/>
</svg>
