<svg xmlns="http://www.w3.org/2000/svg" viewBox="0 0 64 48">
<path d="M50.6,0.1c-4.2-0.3-7.9,0-11.1,0.9c-3.2,0.9-6,2.7-8.5,5.2c-4.4,4.4-7.8,8.4-10.2,12.1c-2.4,3.8-4.9,8.4-7.5,14L7.1,46
	c-0.3,0.6-0.2,1,0.1,1.4C7.6,47.8,8,48,8.5,48c0.5,0,0.9-0.2,1.1-0.5L17.2,35c1.2,0.4,2.4,0.7,3.6,1s2.3,0.3,3.3,0.3
	c0.9,0,1.9-0.1,2.8-0.2c0.9-0.1,1.8-0.3,2.6-0.6l2.2-0.8c0.6-0.3,1.3-0.6,2-1.1l1.6-1c0.3-0.3,0.8-0.6,1.3-1c0.6-0.5,0.9-0.7,1-0.8
	c-1.3,0.1-2.7,0-4-0.3c-1.4-0.3-2.5-0.7-3.3-1.1c-0.9-0.5-1.7-1-2.6-1.5c-0.8-0.6-1.3-0.9-1.6-1.2L25.5,26h1.9
	c1.3,0,2.9-0.1,4.7-0.3c2-0.3,3.9-0.6,5.9-1c2-0.4,4-1.1,5.8-2.1c1.9-1,3.2-2.1,4.1-3.4c-2.4-0.2-4.8-0.7-7.2-1.3
	c-2.4-0.7-4-1.3-4.9-1.7c-0.9-0.4-1.5-0.7-1.9-1l4.1-0.6c2.7-0.4,5.5-0.9,8.4-1.4c2.9-0.6,4.5-1,4.9-1.5c0.6-0.6,1.1-1.5,1.5-2.6
	c0.4-1.1,0.6-1.9,0.5-2.4c0-0.4,0.3-0.9,0.9-1.5L56,3.7c0.5-0.5,0.9-0.9,1-1.4c0.2-0.5-0.2-0.9-1.2-1.3C54.7,0.6,53,0.3,50.6,0.1
	L50.6,0.1z"/>
</svg>
