<svg xmlns="http://www.w3.org/2000/svg" viewBox="0 0 64 48">
<path d="M6.1,26.7v18.2c0,0.8,0.3,1.5,0.9,2.1s1.3,0.9,2.1,0.9h15.5c0.9,0,1.5-0.3,2.1-0.9c0.6-0.6,0.9-1.3,0.9-2.1V27.2
	c0-0.9-0.3-1.5-0.9-2.2c-0.6-0.6-1.3-0.9-2.1-0.9h-5.8l0.2-0.1c0-4.6,0.6-8,2-10.1s3.5-3.2,6.5-3.2V-0.1c-3.6,0.2-6.6,0.9-9.2,1.9
	c-2.6,1.1-4.7,2.4-6.2,4.1c-1.5,1.6-2.8,3.6-3.6,5.9s-1.5,4.7-1.8,7C6.4,21.1,6.2,23.7,6.1,26.7L6.1,26.7z M36.5,26.7
	c-0.1,0.1-0.1,0.2-0.1,0.5v17.8c0,0.8,0.3,1.5,0.9,2.1c0.6,0.6,1.3,0.9,2.2,0.9h15.4c0.8,0,1.5-0.3,2.1-0.9s0.9-1.3,0.9-2.1V27.2
	c0-0.9-0.3-1.5-0.9-2.2c-0.6-0.6-1.3-0.9-2.1-0.9h-5.8l0.2-0.1c0-4.6,0.6-8,1.9-10.1c1.3-2.1,3.5-3.2,6.6-3.2V-0.1
	c-3.6,0.2-6.7,0.9-9.2,1.9c-2.6,1.1-4.7,2.4-6.2,4.1c-1.5,1.6-2.8,3.6-3.6,5.9s-1.5,4.7-1.9,7C36.6,21.1,36.5,23.7,36.5,26.7
	L36.5,26.7z"/>
</svg>
