<svg xmlns="http://www.w3.org/2000/svg" viewBox="0 0 64 48">
<path d="M57.9,26.7c-0.1-3-0.2-5.6-0.6-7.8c-0.3-2.3-0.9-4.6-1.8-7c-0.9-2.3-2.1-4.4-3.6-5.9c-1.5-1.6-3.6-2.9-6.2-4
	C43.1,0.9,40,0.2,36.4,0v10.8c3,0,5.2,1.1,6.5,3.2c1.3,2.1,1.9,5.5,1.9,10.1l0.3,0.1h-5.8c-0.8,0-1.5,0.3-2.1,0.9
	c-0.6,0.6-0.9,1.4-0.9,2.3V45c0,0.8,0.3,1.5,0.9,2.1c0.6,0.6,1.3,0.9,2.1,0.9h15.4c0.9,0,1.5-0.3,2.1-0.9c0.6-0.6,0.9-1.3,0.9-2.1
	L57.9,26.7L57.9,26.7z M27.6,26.7c0-3-0.2-5.6-0.5-7.8c-0.3-2.3-1-4.6-1.9-7c-0.9-2.3-2.1-4.4-3.6-5.9c-1.5-1.6-3.6-2.9-6.2-4
	C12.8,0.8,9.7,0.2,6.1,0v10.8c3.1,0,5.3,1.1,6.5,3.2s1.9,5.5,1.9,10.1l0.3,0.1H9.2c-0.8,0-1.5,0.3-2.1,0.9c-0.6,0.6-0.9,1.4-0.9,2.3
	V45c0,0.8,0.3,1.5,0.9,2.1C7.7,47.6,8.4,48,9.2,48h15.4c0.9,0,1.6-0.3,2.3-0.9c0.6-0.6,0.9-1.3,0.9-2.1V27.3
	C27.7,26.9,27.6,26.8,27.6,26.7L27.6,26.7z"/>
</svg>
