<svg xmlns="http://www.w3.org/2000/svg" viewBox="0 0 64 48">
<path d="M3.5,37.7c-0.3,0.9-0.3,1.5,0.1,1.9s1,0.3,1.9-0.2l6.2-3c3,5,7.3,8.4,13,10.3c2.9,1,5.9,1.3,9.1,1.1s6.1-1.1,8.9-2.4
	c2.7-1.3,5.2-3.2,7.3-5.5c2.1-2.3,3.7-5.1,4.8-8.2c0.2-0.7,0-1.2-0.8-1.5l-4.5-1.5c-0.8-0.2-1.3,0-1.5,0.8c-0.8,2.2-1.9,4.1-3.4,5.7
	s-3.2,3-5.1,3.9c-4.3,2-8.6,2.3-12.8,0.8c-3.5-1.1-6.3-3.4-8.5-6.6l6.1-3c0.9-0.4,1.3-0.9,1.2-1.4s-0.5-0.9-1.4-1.2l-13.2-4.5
	C10.3,23,9.7,23,9.1,23.3c-0.6,0.3-1,0.7-1.1,1.3L3.5,37.7L3.5,37.7z M9.3,16.3c-0.1,0.3-0.1,0.6,0.1,0.9c0.1,0.3,0.4,0.5,0.7,0.6
	l4.5,1.6c0.3,0.1,0.6,0.1,0.9-0.1c0.3-0.1,0.5-0.4,0.6-0.7c0.8-2.2,1.9-4.1,3.4-5.7c1.5-1.7,3.2-3,5.1-3.9c4.2-2.1,8.5-2.4,12.8-0.8
	c3.5,1.2,6.4,3.4,8.6,6.6l-6.1,3c-0.9,0.4-1.3,0.9-1.2,1.4c0,0.5,0.5,0.9,1.4,1.2l13.2,4.5c0.6,0.2,1.1,0.1,1.8-0.1
	c0.6-0.3,1-0.7,1.1-1.3l4.5-13.1c0.3-0.9,0.3-1.5-0.1-1.9c-0.4-0.4-1-0.3-1.9,0.1l-6.2,3.1c-3.1-5-7.4-8.4-13-10.4
	c-2.9-1-6-1.3-9.1-1.1c-3.1,0.3-6.1,1.1-8.8,2.4c-2.7,1.4-5.2,3.2-7.3,5.6S10.4,13.2,9.3,16.3L9.3,16.3z"/>
</svg>
