<svg xmlns="http://www.w3.org/2000/svg" viewBox="0 0 64 48">
<path d="M22.4,7.8c0,0.2,0.1,0.4,0.3,0.5l4.8,5.7c0.2,0.2,0.4,0.4,0.8,0.4h17.2V26h-5.7c-0.5,0-1,0.2-1.3,0.5
	c-0.4,0.4-0.5,0.8-0.5,1.3c0,0.4,0.2,0.9,0.4,1.2l9.5,11.5c0.4,0.4,0.8,0.6,1.4,0.6s1.1-0.2,1.4-0.6L60.2,29
	c0.3-0.4,0.4-0.7,0.4-1.2c0-0.5-0.2-1-0.5-1.3S59.3,26,58.8,26H53V13.5V8.7V8.4V8V7.7c0-0.2-0.1-0.3-0.1-0.4c0,0,0-0.1-0.1-0.3
	c-0.2,0-0.3-0.1-0.4-0.1c-0.1,0-0.3-0.1-0.4-0.1H23.4c-0.3,0-0.4,0.1-0.6,0.3C22.6,7.3,22.4,7.5,22.4,7.8L22.4,7.8z M4,21.5
	C4.3,21.8,4.8,22,5.3,22h5.7v12.4v4.8v0.4V40v0.4c0,0.2,0.1,0.3,0.1,0.4c0,0,0,0.1,0.1,0.3c0.1,0.2,0.2,0.2,0.3,0.2
	c0.1,0,0.3,0,0.4,0h28.6c0.3,0,0.4-0.1,0.6-0.3c0.2-0.2,0.3-0.4,0.3-0.6c0-0.3-0.1-0.4-0.3-0.6l-4.7-5.7c-0.2-0.2-0.4-0.4-0.8-0.4
	H18.7V22.1h5.7c0.5,0,1-0.2,1.3-0.5c0.4-0.4,0.5-0.8,0.5-1.3c0-0.4-0.2-0.9-0.4-1.2L16.3,7.5c-0.4-0.4-0.9-0.6-1.5-0.6
	c-0.5,0-1.1,0.2-1.4,0.6L3.8,19c-0.3,0.4-0.4,0.7-0.4,1.2C3.3,20.7,3.5,21.1,4,21.5z"/>
</svg>
