<svg xmlns="http://www.w3.org/2000/svg" viewBox="0 0 64 48">
<path d="M8.2,6.2c0,0.8,0.3,1.5,0.9,2.1l15.8,15.8L9.1,39.6c-0.6,0.6-0.9,1.3-0.9,2.1c0,0.8,0.3,1.5,0.9,2.1l3.1,3.1
	c0.6,0.6,1.3,0.9,2.1,0.9c0.8,0,1.5-0.3,2.1-0.9L32,31.3L47.6,47c0.6,0.6,1.3,0.9,2.1,0.9c0.8,0,1.5-0.3,2.1-0.9l3.1-3.1
	c0.6-0.6,0.9-1.3,0.9-2.1c0-0.8-0.3-1.5-0.9-2.1L39.2,23.8L55,8.3c0.6-0.6,0.9-1.3,0.9-2.1S55.6,4.7,55,4.1L51.8,1
	c-0.6-0.6-1.3-0.9-2.1-0.9c-0.8,0-1.5,0.3-2.1,0.9L32,16.7L16.3,1c-0.6-0.6-1.3-0.9-2.1-0.9c-0.7,0-1.5,0.3-2.1,0.9l-3,3.1
	C8.5,4.7,8.2,5.4,8.2,6.2L8.2,6.2z"/>
</svg>
