<svg xmlns="http://www.w3.org/2000/svg" viewBox="0 0 64 48">
<path d="M8,24c0,3.1,0.6,6.1,1.8,9c1.2,2.9,2.9,5.6,5.3,7.9c2.3,2.3,5,4.1,7.9,5.2s5.9,1.7,9,1.7c3.1,0,6.1-0.6,9-1.7
	c2.9-1.2,5.6-2.9,7.9-5.2c2.3-2.3,4.1-5,5.3-7.9c1.2-2.9,1.8-5.9,1.8-9s-0.6-6.1-1.8-9C53.1,12,51.3,9.4,49,7
	c-2.3-2.3-5-4.1-7.9-5.3C38.1,0.6,35.1,0,32,0c-3.1,0-6.1,0.6-9,1.8S17.4,4.7,15,7c-2.3,2.3-4.1,5-5.3,7.9S8,20.9,8,24z M19.8,15.3
	l3.5-3.5c0.2-0.2,0.4-0.3,0.7-0.3s0.5,0.1,0.7,0.3l7.3,7.3l6.6-6.7c0.2-0.2,0.4-0.3,0.7-0.3s0.5,0.1,0.7,0.3l3.4,3.4
	c0.5,0.5,0.5,0.9,0,1.4l-6.7,6.6l7.4,7.4c0.5,0.5,0.5,0.9,0,1.4l-3.5,3.5c-0.5,0.5-0.9,0.5-1.4,0l-7.3-7.4l-6.7,6.7
	c-0.5,0.5-0.9,0.5-1.4,0l-3.3-3.4c-0.2-0.2-0.3-0.4-0.3-0.7c0-0.3,0.1-0.5,0.3-0.7l6.6-6.6l-7.3-7.4C19.4,16.3,19.4,15.8,19.8,15.3z
	"/>
</svg>
