<svg xmlns="http://www.w3.org/2000/svg" viewBox="0 0 64 48">
<path d="M8,24c0,3.3,0.6,6.4,1.9,9.4c1.3,2.9,2.9,5.4,5.1,7.6c2.2,2.2,4.8,3.9,7.6,5.1c2.9,1.3,6,1.9,9.4,1.9c3.3,0,6.4-0.6,9.4-1.9
	c2.9-1.3,5.4-2.9,7.6-5.1c2.2-2.2,3.9-4.8,5.1-7.6c1.3-2.9,1.9-6,1.9-9.4s-0.6-6.4-1.9-9.4C52.8,11.8,51.2,9.2,49,7
	s-4.8-3.9-7.6-5.1C38.5,0.7,35.3,0,32,0c-3.3,0-6.4,0.6-9.4,1.9C19.8,3.2,17.2,4.8,15,7c-2.2,2.2-3.9,4.8-5.1,7.6
	C8.6,17.6,8,20.7,8,24z M15.3,24c0-2.3,0.5-4.5,1.3-6.6c0.9-2,2-3.8,3.6-5.4c1.6-1.5,3.3-2.7,5.4-3.6c2-0.9,4.2-1.3,6.6-1.3
	c2.3,0,4.4,0.5,6.6,1.3c2,0.9,3.8,2,5.4,3.6c1.5,1.5,2.7,3.3,3.6,5.4s1.3,4.2,1.3,6.6s-0.5,4.5-1.3,6.6c-0.9,2-2.1,3.8-3.6,5.4
	s-3.3,2.7-5.4,3.6c-2,0.9-4.2,1.3-6.6,1.3c-2.3,0-4.5-0.5-6.6-1.3c-2-0.9-3.8-2.1-5.4-3.6c-1.5-1.5-2.7-3.3-3.6-5.4
	C15.7,28.4,15.3,26.3,15.3,24L15.3,24z M21.6,29.8c0,0.4,0.1,0.6,0.3,0.9l3.4,3.4c0.2,0.2,0.5,0.3,0.9,0.3c0.4,0,0.6-0.1,0.8-0.3
	l5-5l5,5c0.2,0.2,0.5,0.3,0.9,0.3c0.4,0,0.6-0.1,0.8-0.3l3.4-3.4c0.2-0.2,0.3-0.5,0.3-0.9s-0.1-0.6-0.3-0.8l-5-5l5-5
	c0.5-0.6,0.5-1.2,0-1.7l-3.4-3.4c-0.6-0.5-1.2-0.5-1.7,0l-5,5l-5-5c-0.2-0.2-0.5-0.3-0.8-0.3c-0.4,0-0.6,0.1-0.9,0.3l-3.4,3.4
	c-0.5,0.5-0.5,1.1,0,1.7l5.1,5l-5.1,5C21.7,29.2,21.6,29.5,21.6,29.8L21.6,29.8z"/>
</svg>
