<svg xmlns="http://www.w3.org/2000/svg" viewBox="0 0 64 48">
<path d="M37.5,15.4c-0.7,0.7-1,1.2-0.8,1.7c0.2,0.5,0.8,0.8,1.7,0.8l13.9-0.1c0.6,0,1.1-0.2,1.6-0.6c0.5-0.5,0.7-1,0.7-1.7V1.8
	c0-1-0.2-1.5-0.7-1.7c-0.5-0.2-1.1,0.1-1.7,0.8l-4.9,4.9C42.8,2,37.7,0.1,32,0.1c-3.3,0-6.4,0.6-9.3,1.9c-2.9,1.2-5.5,2.9-7.6,5.1
	c-2.1,2.2-3.8,4.7-5.1,7.6c-1.3,2.9-1.9,6-1.9,9.3c0,3.3,0.6,6.4,1.9,9.3c1.2,2.9,2.9,5.5,5.1,7.6s4.7,3.8,7.6,5.1
	c2.9,1.3,6,1.9,9.3,1.9c5.9,0,11.2-2,15.8-6c2.2-1.8,3.9-4.1,5.3-6.5c1.4-2.5,2.3-5.3,2.7-8.2c0.1-0.4,0-0.7-0.2-0.9
	c-0.2-0.2-0.5-0.4-0.8-0.5L50,25.2c-0.3-0.1-0.6,0-0.9,0.2c-0.2,0.2-0.4,0.5-0.5,0.8c-0.5,4.1-2.3,7.6-5.6,10.4
	c-3.2,2.8-6.8,4.1-11.1,4.1c-4.7,0-8.7-1.7-11.9-4.9c-3.2-3.3-4.9-7.2-4.9-11.9c0-4.6,1.7-8.6,5-12C23.4,8.7,27.4,7,32,7
	c3.6,0,7,1.2,10.2,3.6L37.5,15.4z"/>
</svg>
