<svg xmlns="http://www.w3.org/2000/svg" viewBox="0 0 64 48">
<path d="M8,45.3c0,0.7,0.3,1.4,0.8,1.9c0.5,0.5,1.2,0.8,2,0.8H27c1.1,0,1.8-0.3,2-0.8c0.3-0.6,0-1.2-0.8-2L23,39.9l8.6-8.6
	c0.3-0.3,0.4-0.6,0.4-1s-0.1-0.7-0.4-1l-5-5c-0.3-0.3-0.6-0.4-1-0.4c-0.4,0-0.7,0.1-1,0.4L16.1,33l-5.2-5.2c-0.8-0.8-1.5-1-2-0.8
	C8.3,27.2,8,27.9,8,29V45.3L8,45.3z M32,17.6c0,0.4,0.1,0.7,0.4,1l5,4.9c0.3,0.3,0.6,0.4,1,0.4c0.4,0,0.7-0.1,1-0.4l8.6-8.5l5.2,5.2
	c0.8,0.8,1.5,1,2,0.8c0.6-0.2,0.8-0.9,0.8-2V2.7c0-0.7-0.3-1.4-0.8-1.9S54,0,53.2,0H37c-1.1,0-1.8,0.3-2,0.8c-0.3,0.6,0,1.2,0.8,2
	L41,8.1l-8.6,8.6C32.1,16.9,32,17.2,32,17.6L32,17.6z"/>
</svg>
