<svg xmlns="http://www.w3.org/2000/svg" viewBox="0 0 64 48">
<path d="M8.1,41.6c0,0.4,0.1,0.7,0.4,1l5,5c0.3,0.3,0.6,0.4,1,0.4c0.4,0,0.7-0.1,1-0.4l8.6-8.6l5.2,5.2c0.8,0.8,1.5,1.1,2,0.9
	c0.6-0.2,0.8-0.9,0.8-2V26.7c0-0.7-0.3-1.4-0.8-1.9c-0.5-0.5-1.2-0.8-2-0.8H13c-1.1,0-1.8,0.3-2,0.8c-0.3,0.6,0,1.2,0.8,2l5.2,5.2
	l-8.6,8.5C8.2,40.8,8.1,41.2,8.1,41.6L8.1,41.6z M32,21.3c0,0.7,0.3,1.4,0.8,1.9c0.4,0.5,1.1,0.8,1.9,0.8H51c1.1,0,1.8-0.3,2-0.8
	c0.3-0.6,0-1.2-0.8-2L47,15.9l8.6-8.5c0.3-0.3,0.4-0.6,0.4-1c0-0.4-0.1-0.7-0.4-1l-5-5c-0.3-0.3-0.6-0.4-1-0.4c-0.4,0-0.7,0.1-1,0.4
	L40,9l-5.2-5.2c-0.8-0.8-1.5-1.1-2-0.9C32.3,3.2,32,3.9,32,5L32,21.3L32,21.3z"/>
</svg>
