<svg xmlns="http://www.w3.org/2000/svg" viewBox="0 0 64 48">
<path d="M32,48c4.3,0,8.3-1.1,12-3.2s6.6-5.1,8.7-8.7c2.1-3.7,3.2-7.7,3.2-12c0-4.3-1.1-8.3-3.2-12c-2.1-3.7-5.1-6.6-8.7-8.7
	S36.3,0,32,0c-4.3,0-8.3,1.1-12,3.2s-6.6,5.1-8.7,8.7C9.1,15.6,8,19.7,8,24c0,4.3,1.1,8.3,3.2,12c2.1,3.7,5.1,6.6,8.7,8.7
	S27.7,48,32,48L32,48z M46,10c3.8,3.8,5.8,8.5,5.8,14c0,5.5-1.9,10.2-5.8,14s-8.5,5.8-14,5.8c-5.5,0-10.2-1.9-14-5.8
	s-5.8-8.5-5.8-14c0-5.5,1.9-10.2,5.8-14s8.5-5.8,14-5.8C37.5,4.2,42.2,6.1,46,10z M18.9,21.1c0.6,0.6,0.8,1.2,0.8,2
	c0,0.8-0.3,1.5-0.8,2c-0.6,0.6-1.2,0.9-2,0.9c-0.8,0-1.5-0.3-2-0.9c-0.6-0.6-0.9-1.3-0.9-2c0-0.8,0.3-1.5,0.9-2
	c0.6-0.6,1.3-0.8,2-0.8C17.7,20.2,18.4,20.5,18.9,21.1z M32.3,32.2c0.6,0.6,0.8,1.3,0.8,2s-0.3,1.5-0.8,2c-0.6,0.6-1.2,0.8-2,0.8
	c-0.8,0-1.5-0.3-2-0.8c-0.6-0.6-0.8-1.2-0.8-2s0.3-1.5,0.8-2c0.6-0.6,1.2-0.9,2-0.9C31,31.3,31.7,31.6,32.3,32.2z M49.2,20.2
	c0.6,0.6,0.8,1.3,0.8,2c0,0.8-0.3,1.5-0.8,2c-0.6,0.6-1.2,0.8-2,0.8c-0.8,0-1.5-0.3-2-0.8c-0.6-0.6-0.9-1.2-0.9-2
	c0-0.8,0.3-1.5,0.9-2c0.6-0.6,1.3-0.9,2-0.9C47.9,19.3,48.6,19.6,49.2,20.2z M21.1,31.3c0.4,0.4,0.6,0.9,0.6,1.5
	c0,0.6-0.2,1.1-0.6,1.5c-0.4,0.4-0.9,0.6-1.5,0.6c-0.6,0-1.1-0.2-1.5-0.6c-0.4-0.4-0.6-0.9-0.6-1.5c0-0.6,0.2-1.1,0.6-1.5
	c0.4-0.4,0.9-0.6,1.5-0.6C20.2,30.6,20.7,30.8,21.1,31.3z M34,21.9c0.6,0.6,0.8,1.2,0.8,2s-0.3,1.5-0.8,2s-1.2,0.8-2,0.8
	c-0.8,0-1.5-0.3-2-0.8s-0.8-1.2-0.8-2s0.3-1.5,0.8-2s1.2-0.8,2-0.8C32.8,21.1,33.5,21.4,34,21.9z M33.4,25.4
	C33,25.8,32.5,26,31.9,26s-1.1-0.2-1.5-0.6L18.9,13.9c-0.4-0.4-0.6-0.9-0.6-1.5c0-0.6,0.2-1.1,0.6-1.5c0.4-0.4,0.9-0.6,1.5-0.6
	c0.6,0,1.1,0.2,1.5,0.6l11.5,11.5c0.4,0.4,0.6,0.9,0.6,1.5C34,24.5,33.8,25,33.4,25.4L33.4,25.4z M40,16.3c2,2.1,3.1,4.7,3.1,7.7
	s-1.1,5.6-3.3,7.8c-2.2,2.2-4.8,3.3-7.8,3.3c-3.1,0-5.7-1.1-7.8-3.3c-2.2-2.2-3.3-4.8-3.3-7.8s1-5.6,3.1-7.7l1.1,1
	c-1.8,1.8-2.7,4.1-2.7,6.7s0.9,4.9,2.8,6.8c1.9,1.9,4.1,2.8,6.8,2.8c2.7,0,5-0.9,6.8-2.8c1.9-1.9,2.8-4.1,2.8-6.7
	c0-2.6-0.9-4.8-2.6-6.7c-0.2-0.2-0.3-0.4-0.3-0.6c0-0.5,0.3-0.7,0.8-0.7C39.7,16.1,39.9,16.2,40,16.3z M43.6,12.9
	c3,3.1,4.5,6.8,4.5,11.2s-1.6,8.1-4.7,11.2C40.2,38.4,36.4,40,32,40c-4.4,0-8.2-1.6-11.3-4.7c-3.1-3.1-4.7-6.9-4.7-11.2
	s1.5-8.1,4.4-11.2l1.1,1.1c-2.7,2.8-4,6.2-4,10.1c0,3.9,1.4,7.3,4.3,10.1c2.8,2.8,6.3,4.2,10.3,4.2c4,0,7.4-1.4,10.3-4.2
	c2.8-2.8,4.3-6.2,4.3-10.1c0-3.9-1.3-7.3-4-10.1c-0.2-0.1-0.3-0.3-0.3-0.5s0.1-0.4,0.2-0.6c0.1-0.1,0.3-0.2,0.5-0.2
	S43.4,12.8,43.6,12.9L43.6,12.9z"/>
</svg>
