<svg xmlns="http://www.w3.org/2000/svg" viewBox="0 0 64 48">
<path d="M22.5,21.4c0.5,0.1,1.7,0.4,3.6,1l0.8-0.2c4.1-3.5,9.4-6.2,15.7-7.9c4-1.2,7.4-1.8,10.2-1.9h0.5c1.3,0,2.6,0.3,3.9,0.8
	c1.3,0.5,2.3,1.6,3.3,3.3l-28.1,7.6l28.3,7.6l-1,1.3c-1,1.2-1.8,1.9-2.5,2.1c-0.4,0.2-1.1,0.4-1.7,0.5c-0.6,0.2-1.3,0.3-2.2,0.3
	h-0.5c-1,0-2.1-0.2-3.2-0.4C39.8,33.7,32.3,30.6,27,26l-1-0.3c-1.5,0.4-2.8,0.8-3.7,1c2.1,1.2,3.3,2.9,3.9,4.9
	c0.2,0.7,0.4,1.3,0.4,2.1c0,2-0.7,3.8-2.2,5.6c-1.7,2.1-4,3.5-7,4.3c-1.3,0.4-2.8,0.5-4.1,0.5c-1.3,0-2.7-0.2-4-0.6
	c-1.3-0.5-2.5-1.3-3.4-2.2c-1.6-1.6-2.4-3.4-2.4-5.6c0-2,0.8-4,2.4-5.8c1.6-2,3.9-3.3,6.8-4c1-0.3,2.4-0.5,4.4-0.9
	c2-0.4,3.4-0.6,4.5-0.9c-0.9-0.3-2.4-0.5-4.3-0.8c-2-0.3-3.4-0.5-4.4-0.8c-3-0.8-5.3-2.2-7-4.3c-1.5-1.7-2.2-3.6-2.2-5.6
	c0-0.7,0.2-1.5,0.4-2.6c0.3-1.1,0.9-2.1,1.9-3.1c1-1,2.2-1.7,3.4-2.2c1.3-0.4,2.7-0.7,4.1-0.7s2.8,0.2,4.1,0.5c3,0.8,5.3,2.2,6.8,4
	c1.6,2,2.4,3.9,2.4,5.8C26.7,17.4,25.3,19.8,22.5,21.4L22.5,21.4z M12.9,39.5c1,0,2.1-0.2,3.1-0.5c2.2-0.6,4-1.6,5.2-3.1
	c0.8-0.9,1.2-1.8,1.2-2.5c0-1.3-0.7-2.2-2.2-2.7C19,30.2,17.9,30,16.6,30c-3.5,0.2-6.2,1.3-8.1,3.5c-0.8,0.9-1.2,1.7-1.2,2.5
	c0,1.3,0.9,2.2,2.6,2.9C11,39.3,11.9,39.5,12.9,39.5z M7.5,12.1c0,0.8,0.5,1.8,1.5,3c1,1.2,2.6,2.1,4.9,2.7c1.1,0.3,2.1,0.5,3.1,0.5
	c1,0,2-0.2,2.9-0.5c1.7-0.7,2.6-1.6,2.6-2.8c0-0.8-0.4-1.7-1.3-2.6c-1.2-1.5-2.9-2.5-5.1-3.1c-0.9-0.4-2-0.4-3.1-0.4S11,9,10.1,9.3
	C8.4,9.9,7.5,10.9,7.5,12.1L7.5,12.1z"/>
</svg>
