<svg xmlns="http://www.w3.org/2000/svg" viewBox="0 0 64 48">
<path d="M8,21.6v4.8c0,0.3,0.1,0.6,0.4,0.8c0.2,0.2,0.5,0.3,0.9,0.3h5.1c0.8,3.5,2.4,6.6,5,9.1c2.5,2.5,5.6,4.2,9.1,5v5.1
	c0,0.8,0.4,1.2,1.2,1.2h4.8c0.3,0,0.6-0.1,0.8-0.4s0.3-0.5,0.3-0.9v-5.1c3.5-0.8,6.6-2.4,9.1-5c2.5-2.5,4.2-5.6,5-9.1h5.1
	c0.3,0,0.6-0.1,0.9-0.3c0.2-0.2,0.4-0.5,0.4-0.8v-4.8c0-0.8-0.4-1.2-1.2-1.2h-5.1c-0.8-3.5-2.4-6.6-5-9.1c-2.5-2.5-5.6-4.2-9.1-5
	V1.3c0-0.3-0.1-0.6-0.3-0.9C35,0.2,34.8,0,34.4,0h-4.8c-0.8,0-1.2,0.4-1.2,1.2v5.1c-3.5,0.8-6.6,2.4-9.1,5c-2.5,2.5-4.2,5.6-5,9.1
	H9.3C8.4,20.4,8,20.8,8,21.6L8,21.6z M19.4,20.4c0.6-2.2,1.7-4.1,3.3-5.7c1.6-1.6,3.5-2.7,5.7-3.3v5.4c0,0.3,0.1,0.6,0.4,0.8
	c0.2,0.2,0.5,0.3,0.9,0.3h4.8c0.3,0,0.6-0.1,0.8-0.3c0.2-0.2,0.3-0.5,0.3-0.8v-5.4c2.2,0.6,4.1,1.7,5.7,3.3c1.6,1.6,2.7,3.5,3.3,5.7
	h-5.4c-0.8,0-1.2,0.4-1.2,1.2v4.8c0,0.3,0.1,0.6,0.4,0.8c0.2,0.2,0.5,0.3,0.9,0.3h5.4c-0.6,2.2-1.7,4.1-3.3,5.7
	c-1.6,1.6-3.5,2.7-5.7,3.3v-5.4c0-0.3-0.1-0.6-0.3-0.9C35,30.1,34.8,30,34.4,30h-4.8c-0.8,0-1.2,0.4-1.2,1.2v5.4
	c-2.2-0.6-4.1-1.7-5.7-3.3c-1.6-1.6-2.7-3.5-3.3-5.7h5.4c0.3,0,0.6-0.1,0.8-0.3c0.2-0.2,0.3-0.5,0.3-0.8v-4.8c0-0.3-0.1-0.6-0.3-0.9
	c-0.2-0.2-0.5-0.4-0.8-0.4H19.4L19.4,20.4z"/>
</svg>
