<svg xmlns="http://www.w3.org/2000/svg" viewBox="0 0 64 48">
<path d="M27.9,37.3l-3.2,3.1c-0.9,0.9-1.3,2-1.3,3.2s0.4,2.3,1.3,3.1c0.9,0.9,1.9,1.3,3.1,1.3c1.2,0,2.3-0.4,3.2-1.3
	s1.3-1.9,1.3-3.1s-0.5-2.3-1.4-3.2L27.9,37.3z M39.2,7.5c0.9-0.9,1.4-2,1.4-3.2c0-1.2-0.4-2.3-1.3-3.1s-1.9-1.3-3.2-1.3
	S33.8,0.3,33,1.2l-12.9,13c1.7,0,3.1,0.6,4.4,1.8c1.2,1.2,1.8,2.7,1.8,4.5L39.2,7.5z M48.5,27.4c0-1.2-0.5-2.3-1.4-3.2l-1.6-1.7
	l-9.4-9.3L24.5,24.9l-1.4-1.3c0.9-0.9,1.3-1.9,1.3-3.2s-0.4-2.3-1.3-3.2S21.2,16,20,16c-1.2,0-2.3,0.4-3.2,1.3s-1.3,1.9-1.3,3.2
	s0.5,2.3,1.4,3.2l15.5,15.5c1.2,1.2,1.9,2.7,1.9,4.4l13-12.9C48.1,29.8,48.5,28.7,48.5,27.4L48.5,27.4z M29.7,30.3l-2.2-2.2l9.2-9.2
	l2.2,2.2L29.7,30.3z M34.8,35.4l-2.2-2.2l9.2-9.2l2.2,2.2L34.8,35.4z"/>
</svg>
