<svg xmlns="http://www.w3.org/2000/svg" viewBox="0 0 64 48">
<path d="M49.7,47.3c0.4,0.4,0.8,0.6,1.4,0.6c0.5,0,1-0.2,1.4-0.6l2.8-2.8c0.4-0.4,0.6-0.8,0.6-1.4c0-0.5-0.2-1-0.6-1.5L44.6,31
	c2.2-3.4,3.3-7,3.3-10.9c0-2.8-0.5-5.4-1.6-7.8c-1-2.4-2.5-4.6-4.3-6.4c-1.8-1.8-3.9-3.2-6.3-4.3c-2.5-1-5-1.6-7.8-1.6
	c-2.8,0-5.3,0.5-7.7,1.6c-2.5,1-4.6,2.5-6.4,4.3c-1.8,1.8-3.2,3.9-4.3,6.4c-1,2.4-1.6,5-1.6,7.8c0,2.8,0.5,5.3,1.6,7.7
	c1,2.4,2.5,4.5,4.3,6.3c1.8,1.8,3.9,3.2,6.4,4.3c2.4,1,5,1.6,7.8,1.6c4,0,7.6-1.1,10.9-3.3L49.7,47.3z M17,15.4
	c0.6-1.4,1.5-2.7,2.5-3.8c1-1,2.4-1.9,3.8-2.5c1.5-0.7,3-1,4.7-1c1.6,0,3.2,0.3,4.6,1c1.4,0.7,2.7,1.5,3.8,2.5c1,1,1.9,2.3,2.5,3.8
	c0.6,1.4,0.9,3,0.9,4.6s-0.3,3.2-0.9,4.6c-0.6,1.4-1.5,2.7-2.5,3.8c-1,1.1-2.3,1.9-3.8,2.5c-1.4,0.6-3,0.9-4.6,0.9
	c-1.6,0-3.2-0.3-4.7-0.9c-1.5-0.6-2.8-1.5-3.8-2.5c-1-1-1.9-2.3-2.5-3.8c-0.6-1.4-0.9-3-0.9-4.6S16.4,16.9,17,15.4z M20.9,21.1
	c0.3,0.3,0.7,0.4,1,0.4c0.4,0,0.7-0.1,1-0.4c0.3-0.3,0.4-0.6,0.4-1c0-1.3,0.4-2.4,1.3-3.2c0.9-0.8,1.9-1.3,3.2-1.3
	c0.4,0,0.7-0.1,1-0.4c0.3-0.3,0.4-0.6,0.4-1s-0.2-0.8-0.4-1c-0.3-0.3-0.6-0.4-1-0.4c-2.1,0-3.9,0.7-5.4,2.2
	c-0.7,0.7-1.2,1.5-1.6,2.4c-0.4,0.9-0.6,1.7-0.6,2.5C20.4,20.3,20.6,20.8,20.9,21.1L20.9,21.1z"/>
</svg>
