<svg xmlns="http://www.w3.org/2000/svg" viewBox="0 0 64 48">
<path d="M8.9,21.9C9.5,21.3,10.2,21,11,21h7.5c0.8,0,1.5,0.3,2.1,0.9c0.6,0.6,0.9,1.3,0.9,2.1s-0.3,1.5-0.9,2.1
	C20,26.7,19.3,27,18.5,27H11c-0.8,0-1.5-0.3-2.1-0.9C8.3,25.5,8,24.8,8,24S8.3,22.5,8.9,21.9z M12.1,46.9c0.7,0.7,1.6,1.1,2.7,1.1
	c1,0,1.9-0.4,2.6-1.1c0.7-0.7,1.1-1.6,1.1-2.6V30H11v14.3C11,45.3,11.4,46.2,12.1,46.9z M18.5,18V3.7c0-1-0.4-1.9-1.1-2.6
	C16.7,0.4,15.8,0,14.8,0c-1,0-1.9,0.4-2.7,1.1C11.4,1.8,11,2.7,11,3.7V18H18.5z M26.9,9.9C27.5,9.3,28.2,9,29,9h7.6
	c0.8,0,1.5,0.3,2.1,0.9c0.6,0.6,0.9,1.3,0.9,2.1c0,0.8-0.3,1.5-0.9,2.1c-0.6,0.6-1.3,0.9-2,0.9H29c-0.8,0-1.5-0.3-2.1-0.9
	C26.3,13.5,26,12.8,26,12C26,11.2,26.3,10.5,26.9,9.9z M30.1,46.9c0.7,0.7,1.6,1.1,2.7,1.1c1,0,1.9-0.4,2.7-1.1
	c0.7-0.7,1.1-1.6,1.1-2.6V18H29v26.3C29,45.3,29.4,46.2,30.1,46.9z M36.5,6V3.7c0-1-0.4-1.9-1.2-2.6C34.7,0.4,33.8,0,32.8,0
	c-1,0-1.9,0.4-2.7,1.1C29.4,1.8,29,2.7,29,3.7V6H36.5z M43.4,32.4c0.6-0.6,1.3-0.9,2.1-0.9h7.6c0.8,0,1.5,0.3,2.1,0.9
	c0.6,0.6,0.9,1.3,0.9,2.1s-0.3,1.5-0.9,2.1c-0.6,0.6-1.3,0.9-2.1,0.9h-7.6c-0.8,0-1.5-0.3-2.1-0.9c-0.6-0.6-0.9-1.3-0.9-2.1
	S42.8,33,43.4,32.4z M46.6,46.9c0.7,0.7,1.6,1.1,2.6,1.1s1.9-0.4,2.7-1.1c0.8-0.7,1.2-1.6,1.2-2.6v-3.8h-7.6v3.8
	C45.5,45.3,45.9,46.2,46.6,46.9z M45.5,28.5h7.6V3.7c0-1-0.4-1.9-1.2-2.6C51.1,0.4,50.2,0,49.2,0s-1.9,0.4-2.6,1.1
	c-0.7,0.7-1.1,1.6-1.1,2.6V28.5"/>
</svg>
