<svg xmlns="http://www.w3.org/2000/svg" viewBox="0 0 64 48">
<path d="M3.3,38.3c0,2.6,0.9,4.8,2.8,6.8c1.8,1.9,4.1,2.8,6.8,2.8h33.5c2.6,0,4.8-0.9,6.7-2.8c1.9-1.9,2.8-4.1,2.8-6.7v-8.9l-4,4
	c-0.5,0.5-1.2,1-2,1.5v3.4c0,1-0.3,1.8-1.1,2.5s-1.5,1.1-2.5,1.1H12.8c-1,0-1.8-0.4-2.5-1.1c-0.7-0.7-1.1-1.5-1.1-2.5V9.6
	c0-1,0.4-1.8,1.1-2.5C11,6.4,11.9,6,12.8,6h16.2c3-1.2,6.2-2,9.6-2.4V2c0-0.7,0.1-1.3,0.2-2H12.8C10.2,0,7.9,1,6.1,2.8
	C4.2,4.7,3.3,7,3.3,9.6V38.3L3.3,38.3z M15.3,35.8c0,0.4,0,0.9,0.1,1.4c0.1,0.5,0.4,0.8,0.9,0.8s0.8-0.3,0.9-0.8
	C18,32.1,20.5,28,25,25c4.9-3.3,11.5-5,19.7-5v8.1c0,1.2,0.3,1.9,0.9,2.2c0.6,0.3,1.3,0,2.2-0.9l12.2-12.2c0.6-0.5,0.8-1.2,0.8-2
	s-0.3-1.5-0.8-2L47.7,1c-0.8-0.9-1.6-1.2-2.2-0.9c-0.6,0.3-0.9,1-0.9,2.2v7.2c-9.6,0.1-17,2.6-22.2,7.4c-4.8,4.5-7.2,10.4-7.2,17.8
	V35.8L15.3,35.8z"/>
</svg>
