<svg xmlns="http://www.w3.org/2000/svg" viewBox="0 0 64 48">
<path d="M30.9,47.9c2.9-1,5.5-2.3,7.8-3.7c2.3-1.5,4.2-2.9,5.6-4.4s2.6-3,3.7-4.6c2.6-4.2,3.8-8.1,3.8-11.8v-14
	c-2.2-0.2-4.4-0.6-6.7-1.3C39.8,6.3,35,3.6,30.9,0c-0.7,0.7-2.1,1.7-4.2,3.1C21.2,6.9,15.6,9,9.9,9.4v14c0,0.6,0.2,1.8,0.5,3.6
	c0.3,1.3,0.6,2.5,1.1,3.8c0.5,1.2,1.2,2.7,2.3,4.4c1.1,1.7,2.3,3.2,3.7,4.7c1.4,1.4,3.3,2.9,5.6,4.4C25.4,45.6,28,46.9,30.9,47.9
	L30.9,47.9z M30.9,41.6c-5.8-2.1-10-5.3-12.5-9.4c-1.9-3.1-2.9-6-2.9-8.6V13.2c3-0.3,6-1.1,9-2.6c1.2-0.6,2.4-1.3,3.7-2.2
	c1.3-0.9,2.2-1.6,2.7-2V41.6z"/>
</svg>
