<svg xmlns="http://www.w3.org/2000/svg" viewBox="0 0 64 48">
<path d="M3.2,40.1c0,0.3,0.1,0.6,0.4,0.8c0.2,0.2,0.5,0.3,0.9,0.3h6.9c3.7,0,7.1-1.6,10.2-4.7c1.4-1.4,2.7-3,3.9-4.8l3.4-5.3l3-4.6
	c3.3-4.9,6.3-7.4,8.9-7.4H47V20c0,0.9,0.3,1.4,0.8,1.5c0.5,0.2,1.1,0,1.9-0.6l10.4-8.7c0.5-0.4,0.7-0.9,0.7-1.4
	c0-0.6-0.2-1.1-0.7-1.4L49.7,0.7c-0.7-0.6-1.3-0.8-1.9-0.6C47.3,0.2,47,0.7,47,1.6v5.8h-6.3c-3.7,0-7.1,1.6-10.2,4.7
	c-1.4,1.4-2.7,3-4,4.9L23,22.1l-2.9,4.6c-3.3,4.9-6.2,7.4-8.8,7.4H4.4c-0.8,0-1.2,0.4-1.2,1.2V40.1L3.2,40.1z M22.1,12.7
	c-3.3-3.6-7-5.4-10.9-5.4H4.4c-0.3,0-0.6,0.1-0.9,0.4C3.3,7.9,3.2,8.2,3.2,8.5v4.8c0,0.3,0.1,0.6,0.4,0.9c0.2,0.2,0.5,0.4,0.9,0.4
	h6.9c2.1,0,4.3,1.5,6.7,4.4L22.1,12.7z M34,29.6c-1.5,2.4-2.9,4.5-4.1,6.2c1.5,1.6,3.1,2.9,4.8,3.9c1.7,1,3.7,1.5,6,1.5H47v5.3
	c0,0.9,0.3,1.4,0.8,1.5c0.5,0.2,1.1,0,1.9-0.6l10.4-8.6c0.5-0.4,0.7-0.9,0.7-1.4c0-0.6-0.2-1.1-0.7-1.4l-10.4-8.7
	c-0.7-0.6-1.3-0.8-1.9-0.6C47.3,26.6,47,27.1,47,28v6h-6.3C38.6,34,36.4,32.5,34,29.6L34,29.6z"/>
</svg>
