<svg xmlns="http://www.w3.org/2000/svg" viewBox="0 0 64 48">
<path d="M5.6,9.6v28.8c0,2.6,0.9,4.9,2.8,6.8c1.9,1.9,4.1,2.8,6.8,2.8h14.4v-6H15.2c-1,0-1.8-0.4-2.5-1.1c-0.7-0.7-1.1-1.5-1.1-2.5
	V9.6c0-1,0.4-1.8,1.1-2.5S14.2,6,15.2,6h14.4V0H15.2c-2.6,0-4.9,0.9-6.8,2.8C6.5,4.7,5.6,7,5.6,9.6L5.6,9.6z M21.5,18.2v11.5
	c0,0.7,0.2,1.2,0.7,1.7c0.5,0.4,1,0.7,1.7,0.7h13.4v9.2c0,0.9,0.4,1.4,1.2,1.8c0.8,0.3,1.5,0.2,2-0.4l17.3-17.3
	c0.4-0.4,0.6-0.8,0.6-1.4c0-0.5-0.2-1-0.6-1.3L40.5,5.4c-0.4-0.4-0.8-0.6-1.1-0.6c-0.4,0-0.7,0-0.9,0.1c-0.8,0.3-1.2,0.9-1.2,1.8
	v9.1H23.9c-0.7,0-1.3,0.2-1.7,0.7C21.7,17,21.5,17.6,21.5,18.2z"/>
</svg>
