<svg xmlns="http://www.w3.org/2000/svg" viewBox="0 0 64 48">
<path d="M4.4,48h6c0.3,0,0.6-0.1,0.8-0.4c0.2-0.2,0.3-0.5,0.3-0.9v-8.1c0-0.3-0.1-0.6-0.3-0.9c-0.2-0.2-0.5-0.4-0.8-0.4h-6
	c-0.3,0-0.6,0.1-0.9,0.4c-0.2,0.2-0.4,0.5-0.4,0.9v8.1C3.2,47.6,3.6,48,4.4,48z M15.8,47.6c0.2,0.2,0.5,0.4,0.9,0.4h6
	c0.3,0,0.6-0.1,0.8-0.4c0.2-0.2,0.3-0.5,0.3-0.9V33.2c0-0.3-0.1-0.6-0.3-0.9C23.3,32.1,23,32,22.7,32h-6c-0.3,0-0.6,0.1-0.9,0.4
	c-0.2,0.2-0.4,0.5-0.4,0.9v13.6C15.4,47.1,15.6,47.4,15.8,47.6z M28.1,47.6c0.2,0.2,0.5,0.4,0.9,0.4h6c0.3,0,0.6-0.1,0.9-0.4
	c0.2-0.2,0.4-0.5,0.4-0.9V25.7c0-0.3-0.1-0.6-0.4-0.9c-0.2-0.2-0.5-0.4-0.9-0.4h-6c-0.3,0-0.6,0.1-0.9,0.4s-0.4,0.5-0.4,0.9v21.1
	C27.7,47.1,27.9,47.4,28.1,47.6z M40.4,47.6c0.2,0.2,0.5,0.4,0.8,0.4h6c0.3,0,0.6-0.1,0.9-0.4c0.2-0.2,0.4-0.5,0.4-0.9V15.7
	c0-0.3-0.1-0.6-0.4-0.9c-0.2-0.2-0.5-0.4-0.9-0.4h-6c-0.3,0-0.6,0.1-0.8,0.4c-0.2,0.2-0.3,0.5-0.3,0.9v31.1
	C40.1,47.1,40.2,47.4,40.4,47.6z M53.6,48h6c0.8,0,1.2-0.4,1.2-1.2V1.2c0-0.8-0.4-1.2-1.2-1.2h-6c-0.8,0-1.2,0.4-1.2,1.2v45.6
	C52.4,47.6,52.8,48,53.6,48z"/>
</svg>
