<svg xmlns="http://www.w3.org/2000/svg" viewBox="0 0 64 48">
<path d="M5.6,18.2v11.5c0,0.7,0.2,1.2,0.7,1.7c0.5,0.4,1,0.7,1.7,0.7h13.4v9.1c0,0.9,0.4,1.4,1.2,1.8c0.8,0.3,1.5,0.1,2.1-0.4
	l17.3-17.3c0.3-0.4,0.5-0.8,0.5-1.4c0-0.5-0.2-1-0.5-1.3L24.7,5.4c-0.4-0.4-0.7-0.6-1.1-0.6c-0.3,0-0.7,0-1,0.1
	c-0.8,0.3-1.2,0.9-1.2,1.8v9.1H8.1c-0.7,0-1.3,0.2-1.7,0.7C5.9,17,5.6,17.5,5.6,18.2L5.6,18.2z M34.4,0v6h14.4c1,0,1.8,0.4,2.5,1.1
	c0.7,0.7,1.1,1.5,1.1,2.5v28.8c0,1-0.4,1.8-1.1,2.5c-0.7,0.7-1.5,1.1-2.5,1.1H34.4v6h14.4c2.6,0,4.8-0.9,6.7-2.8
	c1.9-1.8,2.9-4.1,2.9-6.8V9.6c0-2.6-0.9-4.8-2.8-6.7C53.6,0.9,51.4,0,48.8,0H34.4L34.4,0z"/>
</svg>
