<svg xmlns="http://www.w3.org/2000/svg" viewBox="0 0 64 48">
<path d="M41,32.4c0.8-1.1,1.2-2.4,1.2-3.8c0-1.2-0.2-2.2-0.7-3c-0.5-0.8-1.1-1.5-1.9-2c-0.8-0.5-1.8-1-2.9-1.3
	c-1.1-0.4-2.4-0.7-3.8-1c-1.1-0.2-1.9-0.4-2.4-0.6c-0.5-0.1-0.9-0.3-1.4-0.5c-0.4-0.2-0.8-0.5-1-0.8c-0.2-0.3-0.3-0.6-0.3-1
	c0-0.6,0.3-1.2,1.1-1.6c0.7-0.5,1.7-0.7,3-0.7c1.3,0,2.3,0.2,2.9,0.7c0.6,0.5,1.1,1.1,1.5,1.9c0.4,0.6,0.7,1.1,1,1.4
	c0.3,0.3,0.8,0.5,1.5,0.5c0.7,0,1.3-0.2,1.8-0.7c0.5-0.5,0.7-1,0.7-1.7c0-0.6-0.2-1.3-0.5-1.9c-0.4-0.6-0.9-1.3-1.7-1.9
	c-0.7-0.6-1.7-1.1-2.8-1.4c-1.1-0.3-2.5-0.5-4-0.5c-1.9,0-3.6,0.3-5,0.8c-1.4,0.5-2.6,1.3-3.3,2.3c-0.8,1-1.2,2.2-1.2,3.5
	c0,1.4,0.4,2.5,1.1,3.4c0.7,0.9,1.7,1.6,2.9,2.1c1.2,0.5,2.7,1,4.5,1.3c1.3,0.3,2.4,0.5,3.1,0.8c0.7,0.2,1.4,0.6,1.8,1
	c0.4,0.4,0.7,0.9,0.7,1.6c0,0.9-0.4,1.6-1.3,2.1c-0.9,0.6-2,0.9-3.4,0.9c-1,0-1.9-0.1-2.5-0.4c-0.6-0.3-1.1-0.7-1.4-1.1
	c-0.4-0.5-0.7-1-1-1.7c-0.3-0.6-0.6-1.1-1-1.5c-0.4-0.3-0.9-0.5-1.5-0.5c-0.7,0-1.3,0.2-1.8,0.7c-0.5,0.4-0.7,1-0.7,1.6
	c0,1,0.4,2,1.1,3.1c0.7,1,1.7,1.9,2.8,2.5c1.6,0.9,3.7,1.3,6.1,1.3c2,0,3.8-0.3,5.3-0.9C39,34.4,40.2,33.5,41,32.4z M56,42V6
	c0-0.9-0.2-1.6-0.5-2.4c-0.3-0.7-0.8-1.4-1.3-1.9s-1.2-1-1.9-1.3C51.6,0.2,50.8,0,50,0h-36c-0.8,0-1.6,0.2-2.3,0.5
	c-0.7,0.3-1.3,0.8-1.9,1.3c-0.5,0.5-1,1.2-1.3,1.9C8.2,4.4,8,5.2,8,6V42c0,0.8,0.2,1.6,0.5,2.3c0.3,0.8,0.8,1.4,1.3,1.9
	c0.5,0.5,1.2,1,1.9,1.3c0.7,0.3,1.5,0.5,2.3,0.5h36c1.7,0,3.1-0.6,4.3-1.8C55.4,45.1,56,43.6,56,42z M48.9,27.9c0.7,1.3,1,2.8,1,4.4
	c0,5.5-4.4,9.9-9.9,9.9c-1.7,0-3.3-0.4-4.7-1.2c-1,0.2-2.1,0.3-3.1,0.3c-9.4,0-17.1-7.6-17.1-17.1c0-1.2,0.1-2.3,0.3-3.4
	c-0.9-1.5-1.4-3.2-1.4-5c0-5.5,4.4-9.9,9.9-9.9c1.9,0,3.7,0.6,5.3,1.5c1-0.2,1.9-0.3,2.9-0.3c9.4,0,17.1,7.7,17.1,17.1
	C49.3,25.5,49.1,26.7,48.9,27.9z"/>
</svg>
