<svg xmlns="http://www.w3.org/2000/svg" viewBox="0 0 64 48">
<path d="M54.3,29.1c0.3-1.6,0.5-3.2,0.5-4.8c0-12.4-10.1-22.5-22.5-22.5c-1.3,0-2.6,0.1-3.9,0.3c-2-1.3-4.4-2-7-2
	C14.2,0,8.4,5.9,8.4,13.1c0,2.4,0.7,4.7,1.8,6.6c-0.3,1.5-0.5,3-0.5,4.5c0,12.5,10.1,22.5,22.5,22.5c1.4,0,2.8-0.1,4.1-0.4
	c1.8,1,3.9,1.6,6.2,1.6c7.2,0,13.1-5.9,13.1-13.1C55.6,32.8,55.1,30.8,54.3,29.1z M43.8,35c-1,1.5-2.6,2.6-4.6,3.5
	c-2,0.8-4.3,1.2-7,1.2c-3.2,0-6-0.6-8.1-1.7c-1.5-0.8-2.8-1.9-3.7-3.3c-1-1.4-1.4-2.8-1.4-4.1c0-0.8,0.3-1.5,0.9-2.1
	c0.6-0.6,1.4-0.9,2.4-0.9c0.8,0,1.4,0.2,2,0.7c0.5,0.4,1,1.1,1.3,1.9c0.4,0.9,0.8,1.7,1.3,2.3c0.4,0.6,1.1,1.1,1.9,1.5
	c0.8,0.4,1.9,0.6,3.3,0.6c1.9,0,3.4-0.4,4.5-1.2c1.1-0.8,1.7-1.7,1.7-2.8c0-0.9-0.3-1.6-0.9-2.1c-0.6-0.6-1.4-1-2.4-1.3
	c-1-0.3-2.4-0.7-4.1-1c-2.3-0.5-4.3-1.1-5.9-1.8c-1.6-0.7-2.9-1.6-3.9-2.8c-1-1.2-1.5-2.7-1.5-4.5c0-1.7,0.5-3.2,1.5-4.6
	c1-1.3,2.5-2.3,4.4-3c1.9-0.7,4.1-1,6.6-1c2,0,3.8,0.2,5.3,0.7c1.5,0.5,2.7,1.1,3.7,1.9c1,0.8,1.7,1.6,2.2,2.5
	c0.5,0.9,0.7,1.7,0.7,2.6c0,0.8-0.3,1.5-0.9,2.2c-0.6,0.6-1.4,1-2.3,1c-0.8,0-1.5-0.2-1.9-0.6c-0.4-0.4-0.9-1-1.3-1.8
	c-0.6-1.1-1.2-1.9-2-2.5c-0.8-0.6-2-0.9-3.8-0.9c-1.6,0-2.9,0.3-3.9,1c-0.9,0.6-1.4,1.3-1.4,2.2c0,0.5,0.1,0.9,0.5,1.3
	c0.3,0.4,0.8,0.7,1.3,1c0.6,0.3,1.2,0.5,1.8,0.7c0.6,0.2,1.7,0.4,3.1,0.8c1.8,0.4,3.5,0.8,5,1.3c1.5,0.5,2.8,1.1,3.9,1.8
	c1.1,0.7,1.9,1.6,2.5,2.7c0.6,1.1,0.9,2.4,0.9,4C45.4,31.8,44.9,33.5,43.8,35z"/>
</svg>
