<svg xmlns="http://www.w3.org/2000/svg" viewBox="0 0 64 48">
<path d="M34.1,45.3c-0.6,0.6-1.3,0.9-2.1,0.9c-0.8,0-1.5-0.3-2.1-0.9S29,44.1,29,43.2c0-0.8,0.3-1.5,0.9-2.1s1.3-0.9,2.1-0.9
	c0.8,0,1.5,0.3,2.1,0.9c0.6,0.6,0.9,1.3,0.9,2.1C35,44.1,34.7,44.8,34.1,45.3z M42.5,38c-0.2,0.2-0.5,0.4-0.9,0.4H22.4
	c-0.3,0-0.6-0.1-0.9-0.4c-0.2-0.2-0.4-0.5-0.4-0.8V10.8c0-0.3,0.1-0.6,0.4-0.9s0.5-0.4,0.9-0.4h19.2c0.3,0,0.6,0.1,0.9,0.4
	c0.2,0.2,0.4,0.5,0.4,0.9v26.4C42.8,37.5,42.7,37.8,42.5,38z M35,6h-6c-0.4,0-0.6-0.2-0.6-0.6s0.2-0.6,0.6-0.6h6
	c0.4,0,0.6,0.2,0.6,0.6S35.4,6,35,6z M46.4,4.8c0-1.3-0.5-2.4-1.4-3.4c-0.9-1-2.1-1.4-3.4-1.4H22.4c-1.3,0-2.5,0.5-3.4,1.4
	s-1.4,2.1-1.4,3.4v38.4c0,1.3,0.5,2.5,1.4,3.4c0.9,0.9,2.1,1.4,3.4,1.4h19.2c1.3,0,2.5-0.5,3.4-1.4c0.9-0.9,1.4-2,1.4-3.3V4.8
	L46.4,4.8z"/>
</svg>
