<svg xmlns="http://www.w3.org/2000/svg" viewBox="0 0 64 48">
<path d="M53.7,18.8l-1.5,3.3l-10.9-2.3L33.8,24l7.5,4.1l10.9-2.3l1.5,3.2L47,31.5l6.3,3.5L52.1,37l-6.2-3.8l1.4,6.8l-3.6,0.3
	l-3.4-10.6l-7.5-4.3l0.2,8.7l7.4,8.2l-2,2.9l-5.2-4.6l0.2,7.2h-2.4l0.2-7.2l-5.3,4.6l-2-2.9l7.4-8.2v-8.7L23.7,30l-3.4,10.6
	l-3.6-0.3l1.4-6.8l-6.2,3.8l-1.2-2.1l6.3-3.5l-6.6-2.3l1.5-3.3l10.8,2.3l7.5-4.1l-7.5-4.2L11.8,22l-1.5-3.3l6.6-2.3L10.6,13l1.2-2.1
	l6.2,3.8l-1.4-6.9l3.6-0.2L23.7,18l7.5,4.5L31,13.9l-7.4-8.3l2-2.9l5.3,4.6L30.7,0h2.4l-0.2,7.2l5.3-4.6l2,3l-7.3,8.1l-0.1,8.7
	l7.5-4.5l3.4-10.5l3.6,0.3l-1.4,6.9l6.2-3.8l1.2,2.1L47,16.5L53.7,18.8z"/>
</svg>
