<svg xmlns="http://www.w3.org/2000/svg" viewBox="0 0 64 48">
<path d="M13.5,18.4c0,0.6,0.2,1.2,0.7,1.7c0.4,0.5,1,0.7,1.6,0.7H48c0.6,0,1.2-0.2,1.6-0.7c0.4-0.5,0.7-1,0.7-1.6
	c0-0.7-0.2-1.3-0.6-1.7l-16.1-16c-0.5-0.5-1-0.7-1.7-0.7c-0.7,0-1.2,0.2-1.6,0.7l-16.1,16C13.7,17.2,13.5,17.8,13.5,18.4L13.5,18.4z
	 M13.5,29.5c0,0.7,0.2,1.3,0.6,1.7l16.1,16c0.5,0.5,1,0.7,1.7,0.7s1.2-0.2,1.7-0.7l16.1-16.1c0.4-0.4,0.6-1,0.6-1.7
	c0-0.6-0.2-1.1-0.7-1.6c-0.4-0.5-1-0.7-1.6-0.7H15.7c-0.6,0-1.1,0.2-1.6,0.7C13.7,28.3,13.5,28.8,13.5,29.5L13.5,29.5z"/>
</svg>
