<svg xmlns="http://www.w3.org/2000/svg" viewBox="0 0 64 48">
<path d="M45.1,36.9c-0.6,0.5-1.4,0.7-2.3,0.7c-1.2,0-2.1-0.3-2.8-1c-0.7-0.7-1-1.5-1-2.5c0-1,0.3-1.9,0.8-2.5c0.6-0.7,1.3-1,2.2-1
	c1,0,1.9,0.5,2.7,1.4c0.8,1,1.1,2,1.1,3.1C46,35.8,45.7,36.5,45.1,36.9z M29.7,38.5c0-0.3-0.1-0.5-0.2-0.6c-0.1-0.2-0.4-0.2-0.6-0.2
	h-5.1V0.9c0-0.3-0.1-0.5-0.3-0.6C23.3,0.1,23.1,0,22.9,0h-5.1c-0.3,0-0.5,0.1-0.6,0.3c-0.2,0.2-0.3,0.4-0.3,0.6v36.8h-5.1
	c-0.4,0-0.7,0.2-0.8,0.5c-0.1,0.3-0.1,0.7,0.2,1l8.5,8.5c0.2,0.2,0.4,0.3,0.6,0.3c0.2,0,0.4-0.1,0.6-0.3l8.5-8.5
	C29.6,38.9,29.7,38.7,29.7,38.5L29.7,38.5z M47.6,29.9c-1.5-1.7-3.3-2.5-5.5-2.5c-2,0-3.6,0.6-4.8,1.9c-1.3,1.3-1.9,2.9-1.9,4.8
	c0,1.8,0.6,3.4,1.8,4.7c1.2,1.3,2.7,1.9,4.6,1.9c0.8,0,1.6-0.1,2.3-0.4c0.7-0.3,1.3-0.6,1.7-1c-0.3,1.6-0.8,2.9-1.8,3.9
	c-0.9,1-2.1,1.6-3.6,1.6c-0.7,0-1.3-0.1-2-0.4c-0.3,0-0.6-0.1-0.8-0.3l-1.1,3c0.3,0.1,0.7,0.3,1.1,0.4c0.8,0.3,1.8,0.4,2.9,0.4
	c1.2,0,2.4-0.2,3.4-0.6c1-0.5,1.9-1.1,2.6-1.8c0.7-0.7,1.3-1.6,1.8-2.6c0.5-1,0.9-2,1.1-3s0.4-2.1,0.4-3.3
	C49.8,33.8,49,31.6,47.6,29.9z M48.9,17.5h-4.4V0h-3.3l-5.2,5l2.2,2.3L40,5.7c0.3-0.3,0.5-0.6,0.7-0.8l0.2-0.3V5v0.5v0.5v11.6h-4.5
	v3h12.5V17.5L48.9,17.5z"/>
</svg>
