<svg xmlns="http://www.w3.org/2000/svg" viewBox="0 0 64 48">
<path d="M45.2,9.5c-0.6,0.5-1.4,0.7-2.3,0.7c-1.2,0-2.2-0.3-2.8-1c-0.6-0.7-1-1.5-1-2.6c0-1,0.3-1.9,0.8-2.5c0.6-0.7,1.3-1,2.2-1
	c1.1,0,2,0.5,2.8,1.4s1.2,2,1.2,3.1C46.1,8.5,45.8,9.1,45.2,9.5z M29.5,37.9c-0.2-0.2-0.4-0.3-0.6-0.3h-5.1V0.8
	c0-0.3-0.1-0.5-0.3-0.6C23.3,0.1,23.1,0,22.9,0h-5.2c-0.3,0-0.5,0.1-0.6,0.2c-0.1,0.1-0.2,0.4-0.2,0.6v36.9h-5.2
	c-0.4,0-0.6,0.2-0.8,0.6c-0.2,0.3-0.1,0.6,0.2,0.9l8.6,8.6c0.2,0.2,0.4,0.3,0.6,0.3c0.3,0,0.5-0.1,0.6-0.3l8.5-8.5
	c0.2-0.2,0.3-0.4,0.3-0.6C29.7,38.3,29.6,38.1,29.5,37.9z M49,44.9h-4.4V27.4h-3.3l-5.1,4.9l2.2,2.3l1.7-1.5
	c0.3-0.3,0.6-0.6,0.7-0.8l0.2-0.3H41v0.4v0.5v0.5v11.5h-4.5V48H49V44.9L49,44.9z M49.8,9.3c0-2.8-0.7-5.1-2.2-6.7
	C46.2,0.8,44.3,0,42.1,0c-1.9,0-3.5,0.7-4.8,2c-1.3,1.3-2,2.9-2,4.8c0,1.8,0.6,3.3,1.8,4.6c1.2,1.3,2.8,1.9,4.6,1.9
	c0.8,0,1.5-0.1,2.2-0.4c0.7-0.3,1.3-0.6,1.7-1h0.1c-0.3,1.5-0.9,2.8-1.8,3.9c-0.9,1-2.1,1.6-3.6,1.6c-0.7,0-1.4-0.1-2-0.3
	c-0.3-0.1-0.6-0.2-0.8-0.3l-1,3c0.3,0.1,0.7,0.3,1.2,0.4c0.8,0.3,1.8,0.4,2.9,0.4c1.2,0,2.4-0.2,3.4-0.6c1-0.4,1.9-1,2.6-1.8
	c0.7-0.7,1.3-1.6,1.9-2.6c0.5-1,0.9-2,1.1-3C49.7,11.5,49.8,10.4,49.8,9.3L49.8,9.3z"/>
</svg>
