<svg xmlns="http://www.w3.org/2000/svg" viewBox="0 0 64 48">
<path d="M39.9,41.3c-0.1-0.2-0.4-0.3-0.6-0.3h-6.8c-0.3,0-0.5,0.1-0.6,0.3c-0.1,0.2-0.2,0.4-0.2,0.6v5.1c0,0.3,0.1,0.5,0.2,0.6
	c0.1,0.2,0.4,0.3,0.6,0.3h6.8c0.3,0,0.5-0.1,0.6-0.3s0.2-0.4,0.2-0.6v-5.1C40.1,41.7,40,41.5,39.9,41.3z M27.1,37.9
	c-0.2-0.1-0.4-0.2-0.6-0.2h-5.1V0.9c0-0.2-0.1-0.4-0.3-0.6C20.9,0.1,20.7,0,20.5,0h-5.2c-0.3,0-0.5,0.1-0.6,0.3
	c-0.1,0.2-0.2,0.4-0.2,0.6v36.8H9.4c-0.4,0-0.7,0.2-0.8,0.5c-0.1,0.3-0.1,0.7,0.2,1l8.6,8.6c0.2,0.1,0.4,0.2,0.6,0.2
	c0.3,0,0.5-0.1,0.6-0.2l8.5-8.6c0.2-0.2,0.3-0.4,0.3-0.6C27.3,38.2,27.3,38,27.1,37.9z M45,27.6c-0.2-0.2-0.4-0.3-0.6-0.3H32.4
	c-0.3,0-0.5,0.1-0.6,0.3c-0.1,0.2-0.2,0.4-0.2,0.6v5.1c0,0.3,0.1,0.5,0.2,0.6c0.1,0.1,0.4,0.2,0.6,0.2h11.9c0.3,0,0.5-0.1,0.6-0.2
	c0.2-0.1,0.3-0.4,0.3-0.6v-5.1C45.3,28,45.2,27.8,45,27.6z M50.1,14c-0.2-0.2-0.4-0.3-0.6-0.3H32.4c-0.3,0-0.5,0.1-0.6,0.3
	c-0.1,0.2-0.2,0.4-0.2,0.6v5.1c0,0.3,0.1,0.5,0.2,0.6c0.1,0.2,0.4,0.2,0.6,0.2h17.1c0.3,0,0.5-0.1,0.6-0.2c0.2-0.1,0.3-0.4,0.3-0.6
	v-5.1C50.4,14.4,50.3,14.1,50.1,14z M55.3,0.3C55.1,0.1,54.9,0,54.7,0H32.4c-0.3,0-0.5,0.1-0.6,0.3s-0.3,0.4-0.3,0.6v5.2
	c0,0.3,0.1,0.5,0.3,0.6c0.2,0.1,0.4,0.2,0.6,0.2h22.2c0.3,0,0.5-0.1,0.6-0.2c0.2-0.1,0.2-0.4,0.2-0.6V0.9
	C55.5,0.7,55.4,0.5,55.3,0.3z"/>
</svg>
