<svg xmlns="http://www.w3.org/2000/svg" viewBox="0 0 64 48">
<path d="M43.2,5.1l0.2-0.8c0-0.3,0.1-0.5,0.1-0.5l0.1-0.5h0.1c0,0.1,0,0.3,0.1,0.5L44,5.1l1.9,5.8l-4.7,0L43.2,5.1z M29.1,38.6
	c0-0.3-0.1-0.5-0.3-0.6c-0.2-0.2-0.4-0.3-0.6-0.3H23V0.9c0-0.3-0.1-0.5-0.2-0.6C22.7,0.1,22.5,0,22.2,0H17c-0.2,0-0.4,0.1-0.6,0.2
	c-0.2,0.1-0.3,0.4-0.3,0.6v36.8h-5.1c-0.4,0-0.7,0.2-0.8,0.6c-0.1,0.3-0.1,0.6,0.2,0.9l8.6,8.6c0.2,0.2,0.4,0.3,0.6,0.3
	c0.2,0,0.4-0.1,0.6-0.3l8.6-8.5C29,39,29.1,38.8,29.1,38.6L29.1,38.6z M48.2,41.8v3.1h-6.7c-0.4,0-0.6,0-0.8,0.1L40.4,45V45l0.3-0.3
	l0.6-0.7l9.9-14.2v-2.4H35.9v6.1h3.3v-3.1h6.2c0.3,0,0.6,0,0.8-0.1h0.2h0.2v0.1l-0.3,0.3c-0.2,0.2-0.3,0.4-0.5,0.7l-9.9,14.2V48
	h15.6v-6.2H48.2z M53.8,17.8h-1.9L45.8,0h-4.3l-6.2,17.7h-1.9v2.8h7.7v-2.8h-2l1.3-3.9h6.5l1.3,3.9h-2v2.8h7.8V17.8L53.8,17.8z"/>
</svg>
