<svg xmlns="http://www.w3.org/2000/svg" viewBox="0 0 64 48">
<path d="M26.7,37.9c-0.2-0.2-0.4-0.3-0.6-0.3h-5.1V0.8c0-0.2-0.1-0.4-0.3-0.6C20.5,0.1,20.3,0,20.1,0h-5.2c-0.3,0-0.5,0.1-0.6,0.3
	c-0.1,0.2-0.2,0.4-0.2,0.6v36.9H8.9c-0.4,0-0.6,0.2-0.8,0.6C8,38.6,8,38.9,8.3,39.2l8.6,8.6c0.2,0.2,0.4,0.3,0.6,0.3
	c0.3,0,0.5-0.1,0.6-0.3l8.5-8.5c0.2-0.2,0.3-0.4,0.3-0.6C26.9,38.3,26.8,38.1,26.7,37.9z M55,41.4c-0.1-0.1-0.4-0.2-0.6-0.2H32.1
	c-0.3,0-0.5,0.1-0.6,0.2c-0.1,0.1-0.2,0.4-0.2,0.6v5.2c0,0.2,0.1,0.4,0.2,0.6s0.4,0.3,0.6,0.3h22.3c0.3,0,0.5-0.1,0.6-0.2
	c0.1-0.1,0.2-0.4,0.2-0.6V42C55.2,41.7,55.1,41.5,55,41.4z M49.8,27.7c-0.1-0.1-0.4-0.2-0.6-0.2H32.1c-0.3,0-0.5,0.1-0.6,0.2
	c-0.1,0.1-0.2,0.4-0.2,0.6v5.1c0,0.3,0.1,0.5,0.2,0.6s0.4,0.3,0.6,0.3h17.2c0.2,0,0.4-0.1,0.6-0.3s0.3-0.4,0.3-0.6v-5.1
	C50.1,28,50,27.8,49.8,27.7z M44.7,14c-0.2-0.2-0.4-0.3-0.6-0.3h-12c-0.3,0-0.5,0.1-0.6,0.3s-0.2,0.4-0.2,0.6v5.1
	c0,0.3,0.1,0.5,0.2,0.6s0.4,0.3,0.6,0.3h12c0.3,0,0.5-0.1,0.6-0.3s0.3-0.4,0.3-0.6v-5.1C44.9,14.3,44.9,14.1,44.7,14z M39.5,0.3
	C39.4,0.1,39.2,0,38.9,0h-6.8c-0.3,0-0.5,0.1-0.6,0.3c-0.1,0.2-0.2,0.4-0.2,0.6V6c0,0.3,0.1,0.5,0.2,0.6c0.1,0.1,0.4,0.2,0.6,0.2
	h6.8c0.3,0,0.5-0.1,0.6-0.2c0.1-0.1,0.2-0.4,0.2-0.6V0.8C39.8,0.6,39.7,0.4,39.5,0.3z"/>
</svg>
