<svg xmlns="http://www.w3.org/2000/svg" viewBox="0 0 64 48">
<path d="M22.6,35.3c-0.9-0.9-1.9-1.3-3.1-1.3c-1.2,0-2.2,0.4-3,1.2c-0.8,0.8-1.2,1.8-1.2,3c0,1.2,0.4,2.2,1.2,3.1
	c0.8,0.9,1.8,1.3,3,1.3c1.2,0,2.2-0.4,3.1-1.3c0.9-0.9,1.3-1.9,1.3-3.1C23.9,37.1,23.4,36.1,22.6,35.3z M35.7,41.4
	c-0.7-0.7-1.7-1.1-2.7-1.1c-1.1,0-2,0.4-2.7,1.1c-0.7,0.7-1.1,1.7-1.1,2.7s0.4,2,1.1,2.7c0.7,0.7,1.7,1.1,2.7,1.1
	c1.1,0,2-0.4,2.7-1.1c0.7-0.7,1.1-1.7,1.1-2.7S36.4,42.1,35.7,41.4z M17.2,21.6c-0.9-0.9-2.1-1.4-3.4-1.4c-1.3,0-2.4,0.5-3.4,1.4
	C9.5,22.5,9,23.6,9,25s0.5,2.5,1.4,3.4c0.9,0.9,2.1,1.4,3.4,1.4c1.3,0,2.4-0.5,3.4-1.4c0.9-0.9,1.4-2.1,1.4-3.4S18.1,22.5,17.2,21.6
	z M48.7,36c-0.7-0.7-1.4-1-2.4-1c-0.9,0-1.7,0.3-2.4,1c-0.7,0.7-1,1.5-1,2.4c0,0.9,0.3,1.7,1,2.4c0.7,0.7,1.5,1,2.4,1
	c0.9,0,1.7-0.3,2.4-1c0.7-0.7,1-1.5,1-2.4C49.7,37.5,49.4,36.7,48.7,36z M23.3,7.8c-1-1-2.3-1.5-3.7-1.5c-1.5,0-2.7,0.5-3.7,1.5
	c-1,1-1.5,2.3-1.5,3.7c0,1.5,0.5,2.7,1.5,3.7c1,1,2.3,1.5,3.7,1.5c1.5,0,2.7-0.5,3.7-1.5c1-1,1.5-2.3,1.5-3.7
	C24.8,10.1,24.3,8.8,23.3,7.8z M38.7,5.8c0-1.6-0.6-3-1.7-4.1C35.9,0.6,34.6,0,33,0c-1.6,0-3,0.6-4.1,1.7c-1.1,1.1-1.7,2.5-1.7,4.1
	c0,1.6,0.6,2.9,1.7,4.1c1.1,1.1,2.5,1.7,4.1,1.7c1.6,0,3-0.6,4.1-1.7S38.7,7.4,38.7,5.8L38.7,5.8z M54.1,22.9
	c-0.6-0.6-1.2-0.8-2-0.8c-0.8,0-1.5,0.3-2,0.8c-0.6,0.6-0.8,1.2-0.8,2c0,0.8,0.3,1.5,0.8,2c0.6,0.6,1.2,0.9,2,0.9
	c0.8,0,1.5-0.3,2-0.9c0.6-0.6,0.8-1.3,0.8-2C55,24.1,54.7,23.5,54.1,22.9z M48.1,9.8c-0.5-0.4-1-0.7-1.7-0.7c-0.7,0-1.2,0.2-1.7,0.7
	c-0.5,0.5-0.7,1-0.7,1.7c0,0.6,0.2,1.2,0.7,1.7c0.5,0.5,1,0.7,1.7,0.7c0.7,0,1.2-0.2,1.7-0.7c0.5-0.5,0.7-1,0.7-1.7
	C48.8,10.8,48.5,10.3,48.1,9.8z"/>
</svg>
