<svg xmlns="http://www.w3.org/2000/svg" viewBox="0 0 64 48">
<path d="M41.3,29.4l0.3,2l1.9,10.7L33.8,37L32,36.1V7l4.8,9.8l1,1.8l2,0.3l10.8,1.6L42.7,28L41.3,29.4z M57.1,18.3
	c-0.2-0.6-0.7-0.9-1.6-1L40.3,15L33.5,1.2C33,0.4,32.6,0,32,0c-0.6,0-1.1,0.4-1.5,1.2L23.7,15L8.5,17.2c-0.9,0.1-1.4,0.5-1.6,1
	c-0.2,0.6,0.1,1.1,0.7,1.8l11,10.7L16,45.9c-0.1,0.6,0,1.1,0.2,1.5c0.2,0.4,0.6,0.6,1,0.6c0.3,0,0.7-0.1,1.2-0.4L32,40.5l13.6,7.1
	c0.5,0.3,0.9,0.4,1.2,0.4c0.5,0,0.8-0.2,1-0.6c0.2-0.4,0.3-0.9,0.2-1.5l-2.6-15.1l11-10.7C57.1,19.4,57.3,18.8,57.1,18.3z"/>
</svg>
