<svg xmlns="http://www.w3.org/2000/svg" viewBox="0 0 64 48">
<path d="M7,18.3c-0.2,0.5,0,1.2,0.7,1.8l11,10.7l-2.6,15.1c-0.1,0.7,0,1.2,0.2,1.6c0.2,0.4,0.5,0.5,0.9,0.5c0.4,0,0.9-0.1,1.3-0.3
	l13.5-7.1l13.6,7.1c0.5,0.2,0.9,0.3,1.2,0.3c1,0,1.4-0.7,1.2-2.1l-2.5-15.1l11-10.7c0.6-0.6,0.9-1.3,0.7-1.8c-0.2-0.5-0.7-0.9-1.6-1
	L40.3,15L33.4,1.3c-0.4-0.8-0.9-1.2-1.5-1.2c-0.6,0-1.1,0.4-1.5,1.2L23.7,15L8.6,17.2C7.7,17.4,7.2,17.7,7,18.3L7,18.3z M26.9,19.4
	l5-10.3L37,19.4l2.5,0.4l8.9,1.3L40.2,29l0.5,2.5l1.5,8.9L32,35l-10.2,5.3l2-11.3l-1.9-1.7l-6.4-6.3L26.9,19.4z"/>
</svg>
