<svg xmlns="http://www.w3.org/2000/svg" viewBox="0 0 64 48">
<path d="M55.3,26.3v-4.5H9.2v4.5H55.3z M17.2,13.6c0,1.3,0.2,2.5,0.6,3.6c0.4,1.1,0.9,2.2,1.5,3.3h20.9c-0.8-0.4-1.7-0.8-2.8-1.2
	c-1.1-0.4-2.2-0.8-3.4-1.1c-1.2-0.4-2.4-0.8-3.6-1.3c-1.1-0.4-2.2-1-3.1-1.7c-0.9-0.6-1.7-1.4-2.3-2.2c-0.6-0.9-0.9-1.9-0.9-3.1
	c0-1.1,0.2-2,0.6-2.8c0.4-0.8,1-1.4,1.7-2s1.5-0.9,2.4-1.2c0.9-0.3,1.8-0.4,2.8-0.4c1.4,0,2.7,0.3,3.7,0.8c1,0.5,1.9,1.2,2.6,2
	c0.8,0.9,1.4,1.9,1.9,3c0.5,1.1,0.9,2.3,1.3,3.5c0.5,0.1,1,0.1,1.5,0.1s1,0,1.5,0.1l0.4-0.1c0-0.3,0.1-0.5,0.1-0.7v-0.7
	c0-1.4-0.1-3-0.2-4.7c-0.2-1.7-0.4-3.3-0.8-4.7C42,1.5,40.3,1,38.6,0.6C36.8,0.2,35,0,33.3,0c-2.1,0-4.2,0.3-6.1,0.8
	c-1.9,0.6-3.6,1.4-5.1,2.5c-1.4,1.1-2.6,2.5-3.5,4.2C17.7,9.2,17.2,11.3,17.2,13.6L17.2,13.6z M17.7,37.8c0,1,0,2,0.1,3
	c0,1.1,0.1,2,0.2,2.9c0.1,0.9,0.2,1.4,0.4,1.5c0.2,0.2,0.5,0.3,1,0.4l1.2,0.4l2.8,0.9c0.8,0.2,1.6,0.4,2.4,0.6
	c0.7,0.2,1.5,0.3,2.3,0.4c0.8,0.1,1.7,0.1,2.8,0.1c2.3,0,4.6-0.3,6.8-0.9c2.1-0.6,4-1.5,5.6-2.7c1.6-1.2,2.9-2.8,3.8-4.7
	c0.9-1.9,1.4-4.1,1.4-6.7c0-0.4,0-0.8-0.1-1.3c0-0.4,0-0.9-0.1-1.5s-0.2-1-0.3-1.5c-0.1-0.4-0.3-0.8-0.4-1.2H28.9
	c1.1,0.4,2.4,0.9,4,1.3c1.5,0.5,3,1.1,4.4,1.8c1.4,0.7,2.6,1.6,3.6,2.7c1,1,1.5,2.3,1.5,3.9c0,1.2-0.3,2.3-0.8,3.3
	c-0.6,0.9-1.3,1.7-2.2,2.4c-0.9,0.6-1.9,1.1-3,1.4c-1.1,0.3-2.2,0.5-3.3,0.5c-1.8,0-3.4-0.3-4.6-0.8c-1.2-0.5-2.3-1.2-3.1-2.1
	c-0.9-0.9-1.6-2-2.3-3.3c-0.6-1.2-1.3-2.5-1.9-4l-3.3,0.1v1.3V37.8L17.7,37.8z"/>
</svg>
