<svg xmlns="http://www.w3.org/2000/svg" viewBox="0 0 64 48">
<path d="M60,11.8c-0.5-0.5-1-0.7-1.7-0.7h-2.4v35.2h2.4c0.6,0,1.2-0.2,1.7-0.7s0.7-1.1,0.7-1.8V13.6C60.7,12.8,60.5,12.2,60,11.8z
	 M43.6,4.6C42,2.7,40.5,1.8,39,1.8H24.7c-2.5,0-5.3,3.1-8.4,9.2h-3.6v35.2h38.3V11h-3.3C46.6,8.6,45.2,6.5,43.6,4.6z M28.2,10.2
	c-0.6,0-1.1-0.2-1.5-0.6c-0.4-0.4-0.6-0.9-0.6-1.5c0-0.6,0.2-1.1,0.6-1.5C27.1,6.2,27.6,6,28.2,6h7.2c0.6,0,1.1,0.2,1.5,0.6
	c0.4,0.4,0.6,0.9,0.6,1.5c0,0.6-0.2,1.1-0.6,1.5c-0.4,0.4-0.9,0.6-1.5,0.6H28.2z M4,11.8c-0.5,0.5-0.7,1.1-0.7,1.8v30.1
	c0,0.7,0.2,1.3,0.7,1.8c0.5,0.5,1,0.7,1.7,0.7H8V11H5.6C5,11,4.4,11.3,4,11.8z"/>
</svg>
