<svg xmlns="http://www.w3.org/2000/svg" viewBox="0 0 64 48">
<path d="M50.6,33.7l1,0.2c1.1,0,1.9-0.5,2.2-1.6c0.9-2.6,1.4-5.4,1.4-8.3s-0.5-5.7-1.4-8.3c-0.4-1.1-1.2-1.6-2.3-1.6
	c-0.3,0-0.6,0.1-1,0.2c-2.1-4.2-5.3-7.4-9.7-9.7c0.3-0.8,0.2-1.4-0.1-2c-0.3-0.6-0.7-1-1.3-1.2C36.8,0.5,34,0,31.3,0
	S25.8,0.5,23,1.4c-0.6,0.3-1,0.6-1.2,1.2c-0.3,0.6-0.4,1.3-0.1,2.1c-4.3,2.1-7.5,5.3-9.7,9.7c-0.4-0.1-0.7-0.2-1-0.2
	c-1.1,0-1.9,0.5-2.2,1.6c-1,2.7-1.5,5.4-1.5,8.3c0,2.8,0.5,5.6,1.5,8.3c0.4,1.1,1.1,1.6,2.2,1.6l1-0.2c2.2,4.4,5.5,7.6,9.7,9.7
	c-0.3,0.8-0.2,1.4,0.1,2c0.3,0.6,0.7,1,1.3,1.2c2.8,0.9,5.6,1.4,8.4,1.4c2.8,0,5.5-0.5,8.2-1.5c0.6-0.2,1-0.6,1.3-1.1
	c0.3-0.6,0.3-1.3,0.1-2.1C45.2,41.2,48.5,38,50.6,33.7z M51.5,16.6c0.9,2.5,1.3,4.9,1.3,7.4c0,2.5-0.4,4.9-1.3,7.4l-9.5-2.4
	c0.7-1.6,1.1-3.3,1.1-5.1s-0.4-3.5-1.1-5.1L51.5,16.6z M38.7,3.7l-2.3,9.4c-1.6-0.8-3.3-1.1-5.1-1.1c-1.8,0-3.5,0.4-5.1,1.1
	l-2.3-9.4c2.3-0.9,4.8-1.3,7.4-1.3C33.9,2.4,36.4,2.9,38.7,3.7z M36.4,15.6c0.9,0,1.6-0.4,2-1.2c0.9,0.6,1.7,1.5,2.5,2.4
	c-0.8,0.5-1.2,1.2-1.2,2c0,0.3,0.1,0.7,0.3,1.1c0.6,1.2,0.9,2.5,0.9,4c0,1.5-0.2,2.6-0.6,3.4c-0.4,0.8-0.6,1.4-0.6,1.7
	c0,0.9,0.4,1.6,1.2,2.1c-0.7,0.9-1.6,1.8-2.5,2.4c-0.5-0.8-1.2-1.2-2-1.2c-0.4,0-1,0.2-1.7,0.6c-0.8,0.4-1.9,0.6-3.4,0.6
	c-1.5,0-2.6-0.2-3.4-0.6c-0.8-0.4-1.3-0.6-1.7-0.6c-0.9,0-1.6,0.4-2,1.2c-0.9-0.7-1.8-1.5-2.5-2.4c0.8-0.5,1.2-1.2,1.2-2.1
	c0-0.3-0.2-0.9-0.6-1.8c-0.4-0.9-0.6-2-0.6-3.3s0.2-2.4,0.6-3.3c0.4-0.8,0.6-1.4,0.6-1.8c0-0.4-0.1-0.7-0.3-1.1
	c-0.1-0.4-0.4-0.7-0.9-1c0.6-0.8,1.4-1.6,2.5-2.5c0.5,0.8,1.2,1.2,2,1.2c0.4,0,1-0.2,1.7-0.6c0.8-0.4,1.9-0.6,3.4-0.6
	c1.5,0,2.6,0.2,3.4,0.6C35.4,15.4,36,15.6,36.4,15.6L36.4,15.6z M11,31.4c-0.9-2.6-1.3-5-1.3-7.5c0-2.4,0.4-4.9,1.3-7.4l9.4,2.4
	c-0.8,1.7-1.2,3.4-1.2,5.1c0,1.7,0.4,3.4,1.2,5L11,31.4z M38.7,44.3c-2.3,0.9-4.8,1.3-7.4,1.3c-2.6,0-5.1-0.5-7.4-1.3l2.3-9.4
	c1.6,0.7,3.3,1.1,5.1,1.1c1.8,0,3.5-0.4,5.1-1.1L38.7,44.3z"/>
</svg>
