<svg xmlns="http://www.w3.org/2000/svg" viewBox="0 0 64 48">
<path d="M4.3,46.9C5,47.6,5.8,48,6.8,48h50.5c1,0,1.8-0.4,2.5-1.1c0.7-0.7,1-1.5,1-2.5V3.6c0-1-0.3-1.8-1-2.5
	C59.1,0.4,58.3,0,57.3,0H6.8C5.8,0,5,0.4,4.3,1.1C3.6,1.8,3.2,2.6,3.2,3.6v40.8C3.2,45.4,3.6,46.2,4.3,46.9z M8,32.7h14.4v10.5H8
	V32.7z M8,19.9h14.4v10.4H8V19.9z M8,7.2h14.4v10.4H8V7.2z M24.8,32.7h14.4v10.5H24.8V32.7z M24.8,19.9h14.4v10.4H24.8V19.9z
	 M24.8,7.2h14.4v10.4H24.8V7.2z M41.6,32.7h14.4v10.5H41.6V32.7z M41.6,19.9h14.4v10.4H41.6V19.9z M41.6,7.2h14.4v10.4H41.6V7.2z"/>
</svg>
