<svg xmlns="http://www.w3.org/2000/svg" viewBox="0 0 64 48">
<path d="M33.6,45.1c-0.4,0.4-0.9,0.6-1.5,0.6c-0.6,0-1.1-0.2-1.5-0.6c-0.4-0.4-0.6-0.9-0.6-1.5s0.2-1.1,0.6-1.5
	c0.4-0.4,0.9-0.6,1.5-0.6c0.6,0,1.1,0.2,1.5,0.6c0.4,0.4,0.6,0.9,0.6,1.5S34,44.7,33.6,45.1z M47,38.9c-0.2,0.2-0.5,0.3-0.8,0.3
	H17.8c-0.3,0-0.5-0.1-0.7-0.3c-0.2-0.2-0.4-0.5-0.4-0.8V5.4c0-0.3,0.1-0.6,0.4-0.8c0.2-0.2,0.5-0.3,0.7-0.3h28.4
	c0.3,0,0.6,0.1,0.8,0.3c0.2,0.2,0.3,0.5,0.3,0.8v32.7C47.3,38.5,47.2,38.7,47,38.9z M50,1.6C49,0.5,47.7,0,46.2,0H17.8
	C16.3,0,15,0.5,14,1.6c-1.1,1.1-1.6,2.3-1.6,3.8v37.1c0,1.5,0.5,2.8,1.6,3.8c1.1,1.1,2.3,1.6,3.8,1.6h28.4c1.5,0,2.8-0.5,3.8-1.6
	c1.1-1.1,1.6-2.3,1.6-3.8V5.4C51.6,3.9,51.1,2.7,50,1.6z"/>
</svg>
