<svg xmlns="http://www.w3.org/2000/svg" viewBox="0 0 64 48">
<path d="M8,17.6c0,1,0.3,2.2,0.8,3.4c0.5,1.2,1.1,2.2,1.9,2.9l22.9,22.9c0.7,0.7,1.6,1.1,2.6,1.1c1,0,1.9-0.4,2.6-1.1l16.1-16.1
	c0.7-0.7,1.1-1.6,1.1-2.6c0-1-0.4-1.9-1.1-2.6L32,2.6c-0.7-0.7-1.7-1.3-2.9-1.9C27.8,0.3,26.7,0,25.7,0H11.7c-1,0-1.9,0.4-2.6,1.1
	C8.4,1.8,8,2.7,8,3.7V17.6L8,17.6z M15.1,7.1C15.8,6.4,16.6,6,17.6,6c1,0,1.8,0.4,2.5,1.1c0.7,0.7,1.1,1.5,1.1,2.5
	c0,1-0.4,1.8-1.1,2.5c-0.7,0.7-1.5,1.1-2.5,1.1c-1,0-1.8-0.4-2.5-1.1c-0.7-0.7-1.1-1.5-1.1-2.5C14,8.6,14.4,7.8,15.1,7.1z"/>
</svg>
