<svg xmlns="http://www.w3.org/2000/svg" viewBox="0 0 64 48">
<path d="M3.2,17.6c0,1,0.3,2.1,0.8,3.4c0.5,1.2,1.1,2.2,1.8,3l20.5,22.9c0.7,0.8,1.6,1.1,2.6,1.1s1.9-0.4,2.6-1.1l16.1-16.1
	c0.7-0.7,1.1-1.6,1.1-2.6c0-1-0.4-1.9-1.1-2.6L27.2,2.6c-0.7-0.8-1.7-1.4-2.9-1.9C23,0.2,21.9,0,20.8,0H6.9C5.9,0,5,0.3,4.3,1.1
	S3.2,2.7,3.2,3.7V17.6L3.2,17.6z M10.3,7C11,6.3,11.9,6,12.8,6s1.8,0.4,2.5,1.1c0.7,0.7,1.1,1.5,1.1,2.5c0,1-0.4,1.8-1.1,2.5
	c-0.7,0.7-1.5,1.1-2.5,1.1s-1.8-0.4-2.5-1.1c-0.7-0.7-1.1-1.5-1.1-2.5C9.2,8.6,9.6,7.7,10.3,7z M27.5,0c1,0.1,2,0.4,3.1,0.8
	c1.1,0.5,2,1,2.6,1.7l20.5,22.9c0.7,0.7,1,1.6,1.1,2.6s-0.3,1.9-1.1,2.6L37.9,46.5c0.9,1.1,1.9,1.6,3,1.5c1,0,1.9-0.4,2.6-1.1
	l16.1-16.1c0.7-0.7,1.1-1.6,1.1-2.6s-0.4-1.9-1.1-2.7L39.2,2.7c-0.7-0.7-1.7-1.3-2.9-1.9C35,0.3,33.8,0,32.8,0H27.5L27.5,0z"/>
</svg>
