<svg xmlns="http://www.w3.org/2000/svg" viewBox="0 0 64 48">
<path d="M3.9,47.3c0.5,0.5,1,0.7,1.7,0.7h52.7c0.7,0,1.3-0.2,1.8-0.7c0.5-0.5,0.7-1,0.7-1.7v-6.8c0-0.6-0.2-1.2-0.7-1.7
	c-0.5-0.5-1.1-0.7-1.8-0.7H5.6c-0.6,0-1.2,0.2-1.7,0.7c-0.5,0.5-0.7,1-0.7,1.7v6.8C3.2,46.3,3.4,46.8,3.9,47.3z M3.9,29
	c0.5,0.5,1,0.7,1.7,0.7h52.7c0.7,0,1.3-0.2,1.8-0.7c0.5-0.5,0.7-1,0.7-1.7v-6.7c0-0.6-0.2-1.2-0.7-1.7c-0.5-0.5-1.1-0.7-1.8-0.7H5.6
	c-0.6,0-1.2,0.2-1.7,0.7c-0.5,0.4-0.7,1-0.7,1.6l0,6.7C3.2,28,3.4,28.6,3.9,29z M3.9,10.8c0.5,0.5,1,0.7,1.7,0.7h52.7
	c0.7,0,1.3-0.2,1.8-0.7c0.5-0.5,0.7-1,0.7-1.7V2.4c0-0.6-0.2-1.2-0.7-1.7C59.6,0.2,59,0,58.3,0H5.6C4.9,0,4.4,0.2,3.9,0.7
	c-0.5,0.5-0.7,1-0.7,1.7v6.8C3.2,9.8,3.4,10.4,3.9,10.8z M26.7,26.4v-4.8h31.2v4.8H26.7L26.7,26.4z M36.3,39.8h21.7v4.8H36.3V39.8z
	 M45.9,3.4h12v4.8h-12V3.4z"/>
</svg>
