<svg xmlns="http://www.w3.org/2000/svg" viewBox="0 0 64 48">
<path d="M4.5,25.6h6.6v4.7c0,0.7,0.2,1.1,0.5,1.2c0.3,0.1,0.7,0,1.2-0.5l6.7-6.7c0.3-0.3,0.5-0.7,0.5-1.1c0-0.4-0.2-0.8-0.5-1.1
	l-6.7-6.7c-0.5-0.5-0.9-0.6-1.2-0.5c-0.3,0.1-0.5,0.5-0.5,1.2v4.8H4.5c-0.8,0-1.2,0.4-1.2,1.2v2.4C3.3,25.2,3.7,25.6,4.5,25.6z
	 M23.6,47.9H26c0.8,0,1.2-0.4,1.2-1.2V1.2C27.2,0.4,26.8,0,26,0h-2.4c-0.8,0-1.2,0.4-1.2,1.2v45.5C22.4,47.5,22.8,47.9,23.6,47.9z
	 M32.7,47.2c0.5,0.5,1,0.7,1.7,0.7h24c0.6,0,1.2-0.2,1.7-0.7c0.5-0.5,0.7-1,0.7-1.7v-3.6c0-0.6-0.2-1.2-0.7-1.7
	c-0.5-0.5-1-0.7-1.7-0.7h-24c-0.7,0-1.3,0.2-1.7,0.7c-0.5,0.5-0.7,1-0.7,1.7v3.6C32,46.2,32.3,46.8,32.7,47.2z M32,32.3
	c0,0.7,0.2,1.3,0.7,1.7c0.5,0.5,1,0.7,1.7,0.7h19.2c0.6,0,1.2-0.2,1.7-0.7c0.5-0.5,0.7-1,0.7-1.7v-3.6c0-0.7-0.2-1.3-0.7-1.7
	c-0.5-0.5-1-0.7-1.7-0.7H34.5c-0.7,0-1.3,0.2-1.7,0.7c-0.5,0.5-0.7,1-0.7,1.7V32.3L32,32.3z M32.7,20.9c0.5,0.4,1,0.7,1.7,0.7H56
	c0.7,0,1.3-0.2,1.7-0.7c0.5-0.4,0.7-1,0.7-1.7v-3.6c0-0.7-0.2-1.3-0.7-1.7c-0.5-0.5-1-0.7-1.7-0.7H34.5c-0.7,0-1.3,0.2-1.7,0.7
	c-0.5,0.5-0.7,1-0.7,1.7v3.6C32,19.9,32.3,20.4,32.7,20.9z M32.7,7.7c0.5,0.5,1,0.7,1.7,0.7h16.8c0.7,0,1.3-0.2,1.7-0.7
	c0.5-0.5,0.7-1,0.7-1.7V2.4c0-0.6-0.2-1.2-0.7-1.7c-0.5-0.5-1-0.7-1.7-0.7H34.5c-0.7,0-1.3,0.2-1.7,0.7c-0.5,0.5-0.7,1-0.7,1.7V6
	C32,6.6,32.3,7.2,32.7,7.7z"/>
</svg>
