<svg xmlns="http://www.w3.org/2000/svg" viewBox="0 0 64 48">
<path d="M4,47.3C4.4,47.7,5,48,5.7,48h52.7c0.6,0,1.2-0.2,1.7-0.7c0.5-0.5,0.7-1,0.7-1.7V42c0-0.6-0.2-1.2-0.7-1.7
	c-0.5-0.5-1-0.7-1.7-0.7H5.7c-0.7,0-1.3,0.2-1.7,0.7c-0.5,0.5-0.7,1-0.7,1.7v3.6C3.2,46.2,3.5,46.8,4,47.3z M4,34.1
	c0.5,0.5,1,0.7,1.7,0.7h33.5c0.6,0,1.2-0.2,1.7-0.7c0.5-0.5,0.7-1,0.7-1.7v-3.6c0-0.7-0.2-1.3-0.7-1.7c-0.5-0.5-1-0.7-1.7-0.7H5.7
	c-0.7,0-1.3,0.2-1.7,0.7c-0.5,0.5-0.7,1-0.7,1.7v3.6C3.2,33.1,3.5,33.6,4,34.1z M4,20.9c0.5,0.4,1,0.7,1.7,0.7h47.9
	c0.6,0,1.2-0.2,1.7-0.7c0.5-0.4,0.7-1,0.7-1.7v-3.6c0-0.7-0.2-1.3-0.7-1.7c-0.5-0.5-1-0.7-1.7-0.7H5.7c-0.7,0-1.3,0.2-1.7,0.7
	c-0.5,0.5-0.7,1-0.7,1.7v3.6C3.2,19.9,3.5,20.5,4,20.9z M4,7.7c0.5,0.5,1,0.7,1.7,0.7h28.8c0.6,0,1.2-0.2,1.7-0.7s0.7-1,0.7-1.7V2.4
	c0-0.6-0.2-1.2-0.7-1.7S35.1,0,34.4,0H5.7C5,0,4.4,0.3,4,0.7c-0.5,0.5-0.7,1-0.7,1.7V6C3.2,6.7,3.5,7.2,4,7.7z"/>
</svg>
