<svg xmlns="http://www.w3.org/2000/svg" viewBox="0 0 64 48">
<path d="M8.5,41.6l5.8,5.8c0.4,0.4,0.7,0.5,1,0.4c0.3-0.1,0.4-0.5,0.4-1.1v-3.7h32.7v3.7c0,0.6,0.1,0.9,0.4,1.1
	c0.3,0.1,0.6,0,1.1-0.4l5.7-5.8c0.3-0.3,0.4-0.6,0.4-1s-0.1-0.7-0.4-1l-5.7-5.7c-0.4-0.4-0.8-0.6-1.1-0.4c-0.3,0.1-0.4,0.5-0.4,1
	v3.8H15.7v-3.8c0-0.6-0.1-0.9-0.4-1c-0.3-0.1-0.6,0-1,0.4l-5.8,5.7c-0.3,0.3-0.4,0.6-0.4,1S8.2,41.3,8.5,41.6z M9.7,10.6
	c0.3,0,0.9-0.7,1.9-2c1-1.3,1.9-2.2,2.8-2.7c0.3-0.2,1.5-0.3,3.7-0.3c0.9,0,1.8-0.1,2.6-0.1c0.9,0,1.5,0,1.9,0h3.8
	c0.9,0,1.6,0,1.9,0.1c0.4,0.2,0.6,0.4,0.6,0.6l0.2,13.6l-0.1,5.9c-0.1,0.7-0.2,1.2-0.3,1.4c-0.9,0.4-2,0.8-3.5,1.1
	c-1.5,0.3-2.4,0.8-2.9,1.3v0.9c0,0.1,0.1,0.3,0.1,0.6l7-0.4c3.5,0,6,0.1,7.3,0.2c1.3,0.1,3,0.2,4.9,0.2h1l0.1-0.8
	c0-0.1,0-0.5-0.1-1.2c-0.3-0.1-0.9-0.2-1.8-0.4c-0.4-0.1-0.8-0.2-1.1-0.3C39.4,28.1,39,28,38.5,28c-0.5-0.1-0.8-0.2-1.1-0.3
	c-0.3-0.6-0.4-1.6-0.4-2.9l0.1-3.7L37,7.3c0-0.4,0-1,0.1-1.8c0.4,0,0.7-0.1,1.1-0.1h7.1c2.4,0,3.7,0,4.1,0.1
	c0.2,0.1,0.4,0.2,0.7,0.4c0.2,0.3,0.5,1.1,1.1,2.4c0.6,1.3,1.1,2.3,1.6,3.1c0.6-0.1,1.3-0.2,2-0.4c0.1-0.4,0.1-0.9,0.1-1.3V0h-2.1
	c-0.1,0.2-0.3,0.6-0.4,1.2c-0.2,0.4-0.4,0.7-0.6,0.9l-1.7,0.2H27.4l-0.6,0.1h-8.9l-3.6-0.1l-1.5-2.2h-1.7C11,0.5,10.5,2,9.8,4.5
	c-0.6,2.1-1.1,3.8-1.7,5C8.5,9.9,9,10.3,9.7,10.6L9.7,10.6z"/>
</svg>
