<svg xmlns="http://www.w3.org/2000/svg" viewBox="0 0 64 48">
<path d="M3.6,47.8c0.5,0.5,1.1,0.7,1.7,0.7h53.3c0.6,0,1.2-0.2,1.7-0.7c0.5-0.5,0.7-1.1,0.7-1.7v-3.6c0-0.6-0.2-1.2-0.7-1.7
	s-1-0.7-1.7-0.7H5.4c-0.7,0-1.3,0.2-1.7,0.7s-0.7,1-0.7,1.7V46C2.9,46.7,3.1,47.3,3.6,47.8z M8.5,21.1c0.5,0.5,1.1,0.7,1.7,0.7h48.5
	c0.6,0,1.2-0.2,1.7-0.7c0.5-0.5,0.7-1,0.7-1.7v-3.6c0-0.7-0.2-1.3-0.7-1.7c-0.5-0.5-1-0.7-1.7-0.7H10.2c-0.7,0-1.3,0.2-1.7,0.7
	c-0.5,0.5-0.7,1.1-0.7,1.7v3.6C7.8,20.1,8,20.7,8.5,21.1z M23,34.5c0.5,0.5,1.1,0.7,1.7,0.7h33.9c0.6,0,1.2-0.2,1.7-0.7
	c0.5-0.5,0.7-1.1,0.7-1.7v-3.6c0-0.7-0.2-1.3-0.7-1.7c-0.5-0.5-1-0.7-1.7-0.7H24.8c-0.7,0-1.3,0.2-1.7,0.7c-0.5,0.5-0.7,1.1-0.7,1.7
	v3.6C22.3,33.4,22.5,34,23,34.5z M27.9,7.8c0.5,0.5,1.1,0.7,1.7,0.7h29.1c0.6,0,1.2-0.2,1.7-0.7c0.5-0.5,0.7-1,0.7-1.7V2.4
	c0-0.6-0.2-1.2-0.7-1.7c-0.5-0.5-1-0.7-1.7-0.7H29.6c-0.7,0-1.3,0.2-1.7,0.7c-0.5,0.5-0.7,1-0.7,1.7v3.7C27.1,6.7,27.4,7.3,27.9,7.8
	z"/>
</svg>
