<svg xmlns="http://www.w3.org/2000/svg" viewBox="0 0 64 48">
<path d="M5,13.3c0.3,0,0.6-0.4,1.1-1.1c1.7-2.6,2.9-4.2,3.6-4.7c0.7-0.5,2-0.8,3.9-0.8h4c1,0,1.6,0,1.9,0.1c0.3,0,0.5,0.1,0.6,0.3
	s0.2,1,0.2,2.6c0,1.1,0,2.6,0.1,4.5l0.1,13.3c0.1,6.1,0,10.5-0.2,13.2c-0.1,1.2-0.2,1.9-0.3,2.1c-0.9,0.5-2.1,0.9-3.7,1.4
	s-2.6,1-3,1.7v0.3l0.1,1.6l7.3-0.6c3.6,0,6.3,0.1,8.2,0.3c1.1,0.1,2.6,0.2,4.5,0.2h1.1c0-0.2,0.1-0.4,0.1-0.6v-0.9
	c0-0.3,0-0.6-0.1-1l-1.5-0.6c-1.2-0.3-2.1-0.5-2.7-0.6c-0.4-0.1-0.8-0.2-1.2-0.4c-0.2-0.9-0.3-2.2-0.3-3.6v-4.6l-0.1-11.2V13.9
	l-0.1-4.7c0-0.6,0.1-1.3,0.2-2.2c0.4-0.1,0.7-0.1,1.1-0.1h5.2c1.1,0,1.7,0.1,2,0.2c0.3,0.1,0.5,0.3,0.7,0.5s0.6,1.2,1.2,2.9
	c0.6,1.7,1.1,3,1.7,4.1c0.3-0.1,0.6-0.2,1-0.2c0.3-0.1,0.7-0.2,1.2-0.4c0.1-0.4,0.1-1,0.1-1.6V7.4c0-1.7-0.1-3.1,0-4.3s0-2.2,0-3
	C42.4,0,42.3,0,42.2,0h-0.3l-1.3,0.1c-0.1,0.2-0.2,0.6-0.4,1.3s-0.4,1.1-0.7,1.3l-1.7,0.3h-9L22,2.9l-3.5,0.1L17.8,3l-4,0.1
	c-2.3,0-3.7,0-4-0.1C9.6,2.6,9.3,2.1,8.9,1.4S8.3,0.3,8.2,0.1H6.5C6.3,0.4,5.9,2.2,5.2,5.6C4.6,8.1,3.9,10.2,3.3,12
	C3.6,12.5,4.2,12.9,5,13.3L5,13.3z M46.8,41.7l5.7,5.8c0.3,0.3,0.6,0.4,1,0.4c0.3,0,0.7-0.1,1-0.4l5.7-5.8c0.4-0.4,0.5-0.7,0.4-1
	c-0.1-0.3-0.5-0.4-1.1-0.4h-3.7V7.6h3.7c0.6,0,0.9-0.1,1.1-0.4c0.1-0.3,0-0.6-0.4-1.1l-5.7-5.7c-0.3-0.3-0.7-0.4-1-0.4
	c-0.3,0-0.7,0.1-1,0.4l-5.7,5.7c-0.4,0.4-0.5,0.8-0.4,1.1c0.1,0.3,0.4,0.4,1,0.4h3.8v32.7h-3.8c-0.6,0-0.9,0.1-1,0.4
	C46.3,41,46.4,41.3,46.8,41.7z"/>
</svg>
