<svg xmlns="http://www.w3.org/2000/svg" viewBox="0 0 64 48">
<path d="M24.4,47.8c0-0.2,0.1-0.5,0.1-0.8v-1.9c-3.2-0.4-5.1-0.8-5.8-1.3c-0.3-0.3-0.5-0.8-0.5-1.2s0.3-1.6,1-3.4l1.7-4.9
	c0.5-1.4,0.9-2.4,1.1-3l13.9,0.1L40.2,42c0.1,0.3,0.2,0.7,0.2,1c0,0.3-0.1,0.6-0.4,0.8s-0.9,0.4-2.1,0.7l-4,0.8
	c-0.1,0.8-0.1,1.6-0.1,2.4l1.8-0.1l6.2-0.3c0.4,0,1-0.1,1.7-0.1h2.5l11.7,0.5c0-0.2,0.1-0.4,0.1-0.5v-0.3c0-0.4-0.1-1-0.2-1.7
	c-1.4-0.5-2.6-0.8-3.6-0.9c-0.7-0.1-1.2-0.3-1.6-0.5c-0.3-0.3-0.8-1.1-1.5-2.5s-1.3-2.9-1.9-4.5s-1.3-3.5-2.2-5.7l-2.7-6.8l-3.6-8.8
	L33.6,0h-4L13.8,41.8c-0.7,1.2-1.2,1.9-1.5,2.1c-0.3,0.3-1.3,0.6-2.8,0.9c-1.6,0.3-2.5,0.5-3,0.7l-0.1,2.5H7c1.8,0,3.5-0.1,5.1-0.4
	l1.5-0.3C19.3,47.6,22.9,47.8,24.4,47.8L24.4,47.8z M28.7,13.5c1.8,3.8,3.7,8.5,5.7,14.1l-0.9,0.1c-0.5,0-1.6,0-3.3,0
	c-1.7,0-3.9-0.1-6.7-0.1L28.7,13.5z"/>
</svg>
