<svg xmlns="http://www.w3.org/2000/svg" viewBox="0 0 64 48">
<path d="M3.9,47.3c0.5,0.5,1,0.7,1.7,0.7h52.8c0.6,0,1.2-0.2,1.7-0.7c0.5-0.5,0.7-1,0.7-1.7V42c0-0.6-0.2-1.2-0.7-1.7
	s-1-0.7-1.7-0.7H5.6c-0.7,0-1.3,0.2-1.7,0.7s-0.7,1-0.7,1.7v3.6C3.2,46.3,3.4,46.9,3.9,47.3z M6.3,20.9c0.4,0.4,1,0.7,1.7,0.7h48
	c0.7,0,1.3-0.2,1.7-0.7c0.5-0.4,0.7-1,0.7-1.7v-3.6c0-0.7-0.2-1.3-0.7-1.7c-0.5-0.5-1-0.7-1.7-0.7H8c-0.7,0-1.2,0.2-1.7,0.7
	c-0.4,0.5-0.7,1-0.7,1.7v3.6C5.6,19.9,5.8,20.5,6.3,20.9z M13.5,34.1c0.5,0.5,1,0.7,1.7,0.7h33.6c0.6,0,1.2-0.2,1.7-0.7
	c0.5-0.5,0.7-1,0.7-1.7v-3.6c0-0.7-0.2-1.3-0.7-1.7c-0.5-0.5-1-0.7-1.7-0.7H15.2c-0.7,0-1.3,0.2-1.7,0.7c-0.5,0.5-0.7,1-0.7,1.7v3.6
	C12.8,33.1,13,33.7,13.5,34.1z M15.9,7.7c0.4,0.5,1,0.7,1.7,0.7h28.8c0.7,0,1.3-0.2,1.7-0.7c0.5-0.5,0.7-1,0.7-1.7V2.4
	c0-0.6-0.2-1.2-0.7-1.7c-0.5-0.5-1-0.7-1.7-0.7H17.6c-0.7,0-1.2,0.2-1.7,0.7c-0.4,0.5-0.7,1-0.7,1.7V6C15.2,6.7,15.4,7.2,15.9,7.7z"
	/>
</svg>
