<svg xmlns="http://www.w3.org/2000/svg" viewBox="0 0 64 48">
<path d="M3.2,2.4V6c0,0.6,0.2,1.2,0.7,1.7s1,0.7,1.7,0.7h52.8c0.6,0,1.2-0.2,1.7-0.7c0.5-0.5,0.7-1,0.7-1.7V2.4
	c0-0.7-0.2-1.3-0.7-1.7C59.6,0.2,59,0,58.4,0H5.7C5,0,4.4,0.2,3.9,0.7S3.2,1.7,3.2,2.4z M3.2,15.6v3.6c0,0.7,0.2,1.3,0.7,1.7
	s1,0.7,1.7,0.7h52.8c0.6,0,1.2-0.2,1.7-0.7c0.5-0.5,0.7-1,0.7-1.7v-3.6c0-0.7-0.2-1.3-0.7-1.7c-0.5-0.5-1-0.7-1.7-0.7H5.7
	c-0.7,0-1.3,0.2-1.7,0.7S3.2,14.9,3.2,15.6z M3.2,28.8v3.6c0,0.7,0.2,1.3,0.7,1.7c0.5,0.5,1,0.7,1.7,0.7h52.8c0.6,0,1.2-0.2,1.7-0.7
	c0.5-0.5,0.7-1,0.7-1.7v-3.6c0-0.7-0.2-1.2-0.7-1.7c-0.5-0.4-1-0.7-1.7-0.7H5.7c-0.7,0-1.3,0.2-1.7,0.7C3.5,27.5,3.2,28.1,3.2,28.8z
	 M3.2,41.9v3.6c0,0.6,0.2,1.2,0.7,1.7S5,48,5.7,48h52.8c0.6,0,1.2-0.2,1.7-0.7c0.5-0.5,0.7-1,0.7-1.7v-3.6c0-0.6-0.2-1.2-0.7-1.7
	c-0.5-0.5-1-0.7-1.7-0.7H5.7c-0.7,0-1.3,0.2-1.7,0.7C3.5,40.8,3.2,41.3,3.2,41.9z"/>
</svg>
