<svg xmlns="http://www.w3.org/2000/svg" viewBox="0 0 64 48">
<path d="M4,47.2c0.5,0.5,1,0.7,1.7,0.7h24c0.7,0,1.3-0.2,1.7-0.7c0.5-0.5,0.7-1,0.7-1.7v-3.6c0-0.6-0.2-1.2-0.7-1.7
	c-0.5-0.5-1-0.7-1.7-0.7h-24c-0.6,0-1.2,0.2-1.7,0.7c-0.5,0.5-0.7,1-0.7,1.7v3.6C3.2,46.2,3.5,46.7,4,47.2z M4,34.1
	c0.5,0.5,1,0.7,1.7,0.7h19.2c0.7,0,1.3-0.2,1.7-0.7c0.5-0.5,0.7-1,0.7-1.7v-3.6c0-0.7-0.2-1.3-0.7-1.7c-0.5-0.5-1-0.7-1.7-0.7H5.6
	C5,26.3,4.4,26.6,4,27c-0.5,0.5-0.7,1-0.7,1.7v3.6C3.2,33,3.5,33.6,4,34.1z M4,20.9c0.5,0.4,1,0.7,1.7,0.7h21.6
	c0.6,0,1.2-0.2,1.7-0.7c0.5-0.4,0.7-1,0.7-1.7v-3.6c0-0.7-0.2-1.3-0.7-1.7s-1-0.7-1.7-0.7H5.6c-0.6,0-1.2,0.2-1.7,0.7
	c-0.5,0.5-0.7,1-0.7,1.7v3.6C3.2,19.8,3.5,20.4,4,20.9z M4,7.7c0.5,0.5,1,0.7,1.7,0.7h16.8c0.6,0,1.2-0.2,1.7-0.7
	c0.5-0.5,0.7-1,0.7-1.7V2.4c0-0.6-0.2-1.2-0.7-1.7c-0.5-0.5-1-0.7-1.7-0.7H5.6C5,0,4.4,0.2,4,0.7c-0.5,0.5-0.7,1-0.7,1.7V6
	C3.2,6.6,3.5,7.2,4,7.7z M38,47.9h2.4c0.3,0,0.6-0.1,0.9-0.4c0.2-0.2,0.4-0.5,0.4-0.9V1.2c0-0.3-0.1-0.6-0.4-0.9
	C41,0.1,40.7,0,40.4,0H38c-0.8,0-1.2,0.4-1.2,1.2v45.5C36.8,47.5,37.2,47.9,38,47.9z M51.2,32.6c0.5,0.5,0.9,0.6,1.2,0.5
	c0.3-0.1,0.5-0.5,0.5-1.2v-4.8h6.7c0.3,0,0.6-0.1,0.9-0.4c0.2-0.2,0.4-0.5,0.4-0.9v-2.4c0-0.3-0.1-0.6-0.4-0.9
	c-0.2-0.2-0.5-0.4-0.9-0.4h-6.7v-4.7c0-0.7-0.2-1.1-0.5-1.2c-0.3-0.1-0.7,0-1.2,0.5l-6.8,6.7c-0.3,0.4-0.4,0.8-0.4,1.1
	c0,0.4,0.1,0.7,0.4,1.1L51.2,32.6z"/>
</svg>
