<svg xmlns="http://www.w3.org/2000/svg" viewBox="0 0 64 48">
<path d="M3.3,2.4v16.7c0,0.7,0.2,1.3,0.7,1.7c0.5,0.5,1,0.7,1.7,0.7h21.5c0.7,0,1.3-0.2,1.7-0.7c0.5-0.5,0.7-1,0.7-1.7V2.4
	c0-0.7-0.2-1.3-0.7-1.7c-0.5-0.5-1-0.7-1.7-0.7H5.7C5,0,4.4,0.2,4,0.7C3.5,1.2,3.3,1.7,3.3,2.4z M3.3,28.7v16.8
	c0,0.6,0.2,1.2,0.7,1.7c0.5,0.5,1,0.7,1.7,0.7h21.5c0.7,0,1.3-0.2,1.7-0.7c0.5-0.5,0.7-1,0.7-1.7V28.7c0-0.7-0.2-1.2-0.7-1.7
	c-0.5-0.4-1-0.7-1.7-0.7H5.7c-0.7,0-1.3,0.2-1.7,0.7C3.5,27.5,3.3,28.1,3.3,28.7z M34.4,2.4v16.7c0,0.7,0.2,1.3,0.7,1.7
	c0.4,0.5,1,0.7,1.7,0.7h21.6c0.6,0,1.2-0.2,1.7-0.7c0.5-0.5,0.7-1,0.7-1.7V2.4c0-0.7-0.2-1.3-0.7-1.7C59.6,0.2,59,0,58.4,0H36.8
	c-0.7,0-1.2,0.2-1.7,0.7C34.7,1.2,34.4,1.7,34.4,2.4z M34.4,28.7v16.8c0,0.6,0.2,1.2,0.7,1.7s1,0.7,1.7,0.7h21.6
	c0.6,0,1.2-0.2,1.7-0.7s0.7-1,0.7-1.7V28.7c0-0.7-0.2-1.2-0.7-1.7c-0.5-0.4-1-0.7-1.7-0.7H36.8c-0.7,0-1.2,0.2-1.7,0.7
	C34.7,27.5,34.4,28.1,34.4,28.7z"/>
</svg>
