<svg xmlns="http://www.w3.org/2000/svg" viewBox="0 0 64 48">
<path d="M3.2,2.4v8.4c0,0.7,0.2,1.2,0.7,1.7s1,0.7,1.7,0.7h9.3c0.6,0,1.2-0.2,1.7-0.7c0.5-0.4,0.7-1,0.7-1.7V2.4
	c0-0.7-0.2-1.3-0.7-1.7c-0.5-0.5-1-0.7-1.7-0.7H5.6C5,0,4.4,0.2,3.9,0.7S3.2,1.7,3.2,2.4z M3.2,20.5v7c0,0.7,0.2,1.2,0.7,1.7
	c0.5,0.4,1,0.7,1.7,0.7h9.3c0.6,0,1.2-0.2,1.7-0.7c0.5-0.4,0.7-1,0.7-1.7v-7c0-0.7-0.2-1.3-0.7-1.7c-0.5-0.5-1-0.7-1.7-0.7H5.6
	c-0.7,0-1.3,0.2-1.7,0.7C3.5,19.2,3.2,19.8,3.2,20.5z M3.2,37.1v8.5c0,0.6,0.2,1.2,0.7,1.7C4.4,47.7,5,48,5.6,48h9.3
	c0.6,0,1.2-0.2,1.7-0.7c0.5-0.5,0.7-1,0.7-1.7v-8.5c0-0.7-0.2-1.3-0.7-1.7c-0.5-0.5-1-0.7-1.7-0.7H5.6c-0.7,0-1.3,0.2-1.7,0.7
	S3.2,36.4,3.2,37.1z M22.1,2.4v8.4c0,0.7,0.2,1.2,0.7,1.7c0.5,0.4,1,0.7,1.7,0.7h33.9c0.6,0,1.2-0.2,1.7-0.7c0.5-0.4,0.7-1,0.7-1.7
	V2.4c0-0.7-0.2-1.3-0.7-1.7c-0.5-0.5-1-0.7-1.7-0.7H24.5c-0.7,0-1.3,0.2-1.7,0.7C22.3,1.2,22.1,1.7,22.1,2.4z M22.1,20.5v7
	c0,0.7,0.2,1.2,0.7,1.7c0.5,0.4,1,0.7,1.7,0.7h33.9c0.6,0,1.2-0.2,1.7-0.7c0.5-0.4,0.7-1,0.7-1.7v-7c0-0.7-0.2-1.3-0.7-1.7
	c-0.5-0.5-1-0.7-1.7-0.7H24.5c-0.7,0-1.3,0.2-1.7,0.7C22.3,19.2,22.1,19.8,22.1,20.5z M22.1,37.1v8.5c0,0.6,0.2,1.2,0.7,1.7
	c0.5,0.5,1,0.7,1.7,0.7h33.9c0.6,0,1.2-0.2,1.7-0.7c0.5-0.5,0.7-1,0.7-1.7v-8.5c0-0.7-0.2-1.3-0.7-1.7c-0.5-0.5-1-0.7-1.7-0.7H24.5
	c-0.7,0-1.3,0.2-1.7,0.7C22.3,35.8,22.1,36.4,22.1,37.1z"/>
</svg>
