<svg xmlns="http://www.w3.org/2000/svg" viewBox="0 0 64 48">
<path d="M3.2,2.4v8.4c0,0.7,0.2,1.2,0.7,1.7c0.5,0.4,1,0.7,1.7,0.7h11.2c0.6,0,1.2-0.2,1.7-0.7c0.5-0.4,0.7-1,0.7-1.7V2.4
	c0-0.7-0.2-1.3-0.7-1.7C18,0.2,17.5,0,16.8,0H5.6C5,0,4.4,0.2,3.9,0.7C3.4,1.2,3.2,1.7,3.2,2.4z M3.2,20.5v7c0,0.7,0.2,1.2,0.7,1.7
	c0.5,0.4,1,0.7,1.7,0.7h11.2c0.6,0,1.2-0.2,1.7-0.7c0.5-0.4,0.7-1,0.7-1.7v-7c0-0.7-0.2-1.3-0.7-1.7c-0.5-0.5-1-0.7-1.7-0.7H5.6
	c-0.7,0-1.3,0.2-1.7,0.7C3.4,19.2,3.2,19.8,3.2,20.5z M3.2,37.1v8.5c0,0.6,0.2,1.2,0.7,1.7C4.4,47.7,5,48,5.6,48h11.2
	c0.6,0,1.2-0.2,1.7-0.7c0.5-0.5,0.7-1,0.7-1.7v-8.5c0-0.7-0.2-1.3-0.7-1.7c-0.5-0.5-1-0.7-1.7-0.7H5.6c-0.7,0-1.3,0.2-1.7,0.7
	C3.4,35.8,3.2,36.4,3.2,37.1z M24,2.4v8.4c0,0.7,0.2,1.2,0.7,1.7c0.5,0.4,1,0.7,1.7,0.7h11.2c0.6,0,1.2-0.2,1.7-0.7
	c0.5-0.4,0.7-1,0.7-1.7V2.4c0-0.7-0.2-1.3-0.7-1.7c-0.5-0.5-1-0.7-1.7-0.7H26.4c-0.7,0-1.3,0.2-1.7,0.7C24.2,1.2,24,1.7,24,2.4z
	 M24,20.5v7c0,0.7,0.2,1.2,0.7,1.7c0.5,0.4,1,0.7,1.7,0.7h11.2c0.6,0,1.2-0.2,1.7-0.7c0.5-0.4,0.7-1,0.7-1.7v-7
	c0-0.7-0.2-1.3-0.7-1.7c-0.5-0.5-1-0.7-1.7-0.7H26.4c-0.7,0-1.3,0.2-1.7,0.7C24.2,19.2,24,19.8,24,20.5z M24,37.1v8.5
	c0,0.6,0.2,1.2,0.7,1.7c0.5,0.5,1,0.7,1.7,0.7h11.2c0.6,0,1.2-0.2,1.7-0.7c0.5-0.5,0.7-1,0.7-1.7v-8.5c0-0.7-0.2-1.3-0.7-1.7
	c-0.5-0.5-1-0.7-1.7-0.7H26.4c-0.7,0-1.3,0.2-1.7,0.7C24.2,35.8,24,36.4,24,37.1z M44.8,2.4v8.4c0,0.7,0.2,1.2,0.7,1.7
	c0.5,0.4,1,0.7,1.7,0.7h11.2c0.6,0,1.2-0.2,1.7-0.7c0.5-0.4,0.7-1,0.7-1.7V2.4c0-0.7-0.2-1.3-0.7-1.7c-0.5-0.5-1-0.7-1.7-0.7H47.2
	c-0.7,0-1.3,0.2-1.7,0.7C45,1.2,44.8,1.7,44.8,2.4z M44.8,20.5v7c0,0.7,0.2,1.2,0.7,1.7c0.5,0.4,1,0.7,1.7,0.7h11.2
	c0.6,0,1.2-0.2,1.7-0.7c0.5-0.4,0.7-1,0.7-1.7v-7c0-0.7-0.2-1.3-0.7-1.7s-1-0.7-1.7-0.7H47.2c-0.7,0-1.3,0.2-1.7,0.7
	C45,19.2,44.8,19.8,44.8,20.5z M44.8,37.1v8.5c0,0.6,0.2,1.2,0.7,1.7c0.5,0.5,1,0.7,1.7,0.7h11.2c0.6,0,1.2-0.2,1.7-0.7
	c0.5-0.5,0.7-1,0.7-1.7v-8.5c0-0.7-0.2-1.3-0.7-1.7s-1-0.7-1.7-0.7H47.2c-0.7,0-1.3,0.2-1.7,0.7C45,35.8,44.8,36.4,44.8,37.1z"/>
</svg>
