<svg xmlns="http://www.w3.org/2000/svg" viewBox="0 0 64 48">
<path d="M43.1,28.4c-1.2-2-2.8-3.6-4.9-4.7V2.4c0-0.6-0.2-1.2-0.7-1.7c-0.5-0.5-1-0.7-1.7-0.7h-8.2c-0.6,0-1.1,0.2-1.4,0.7
	c-0.3,0.4-0.5,1-0.5,1.7v21.3c-2,1.1-3.7,2.7-4.9,4.7S19,32.6,19,35c0,3.6,1.3,6.6,3.8,9.1c2.5,2.5,5.6,3.8,9.2,3.8
	c3.6,0,6.6-1.2,9.2-3.8c2.5-2.5,3.8-5.6,3.8-9.2C45,32.6,44.3,30.4,43.1,28.4z M40.2,35c0,2.3-0.8,4.2-2.4,5.7
	c-1.6,1.6-3.5,2.4-5.8,2.4c-2.3,0-4.2-0.8-5.8-2.4s-2.4-3.5-2.4-5.8c0-1.9,0.6-3.5,1.7-4.9c1.1-1.4,2.5-2.4,4.3-2.9V9.6h4.8v17.7
	c1.7,0.6,3,1.5,4.1,3C39.6,31.6,40.2,33.2,40.2,35L40.2,35z"/>
</svg>
