<svg xmlns="http://www.w3.org/2000/svg" viewBox="0 0 64 48">
<path d="M8.6,46.3c1.8,0,4.2,0.1,7,0.2c1.7,0,3.3,0,4.9-0.2c0.2-1.7,0.3-3.7,0.3-6c0.1-8.1-0.2-14.7-1-20c-1.7-0.4-3.7-0.6-5.8-0.6
	s-4.1,0.1-6,0.2c-0.4,2.1-0.7,4.3-0.8,6.7C6.7,34.3,7.1,40.9,8.6,46.3L8.6,46.3z M15.2,39.2c0.7,0,1.2,0.2,1.7,0.7
	c0.4,0.5,0.7,1,0.7,1.7c0,0.7-0.2,1.2-0.7,1.7c-0.4,0.5-1,0.7-1.7,0.7c-0.7,0-1.3-0.2-1.7-0.7c-0.5-0.5-0.7-1-0.7-1.7
	c0-0.7,0.2-1.2,0.7-1.7C14,39.4,14.6,39.2,15.2,39.2z M23,44.2c1-0.2,2.1-0.1,3.2,0.1c1.1,0.2,2.7,0.7,4.8,1.6
	c3.3,1.4,7.1,2.1,11.4,2.1c3.5,0,6.2-0.6,8.1-1.7c2.2-1.4,3.1-3.5,2.6-6.2c1.1-0.6,1.9-1.5,2.3-2.8c0.5-1.5,0.4-2.8-0.4-4
	c1.4-1.2,2.1-2.7,2-4.3c0-0.9-0.4-1.9-1.3-2.8c0.6-0.9,0.9-1.4,0.9-1.6c1-3,0.5-4.9-1.5-5.6c-0.9-0.4-2-0.6-3.3-0.6
	c-1.3,0-3.3,0.1-5.8,0.2c-2.5,0.1-4.4-0.1-5.7-0.6c0-1.1,0.3-2.1,0.8-3.1l1.4-2.9c0.5-1,0.9-2.1,1.2-3.2c0.3-1.1,0.3-2.4,0-3.8
	s-0.9-2.6-1.9-3.4c-1.2-1.1-2.6-1.6-4-1.3c-0.3,0.2-0.4,0.4-0.4,0.7c-0.3,1.4-0.6,2.8-0.8,4.3S35.9,8,35.2,9.2
	c-0.7,1.2-1.5,2.2-2.4,2.9c-0.4,0.4-0.9,0.9-1.4,1.3c-0.5,0.4-1.2,1.1-1.9,1.8s-1.4,1.5-1.9,2.1s-1.1,1.3-1.8,2
	c-0.7,0.7-1.9,1.5-3.5,2.2C23.2,29.1,23.4,36.7,23,44.2L23,44.2z"/>
</svg>
