<svg xmlns="http://www.w3.org/2000/svg" viewBox="0 0 64 48">
<path d="M8.3,22c0,0.2-0.1,0.3-0.2,0.5S7.8,22.9,7.7,23c-0.1,0.2-0.2,0.3-0.2,0.4c-0.6,1.7-0.7,2.9-0.4,3.8c0.6,1.6,2.3,2.4,5.2,2.4
	l8.1-0.2c1.3,0,2.4,0.2,3.3,0.6c0,1.1-0.3,2.1-0.8,3.1l-1.4,3c-0.5,1-0.9,2.1-1.2,3.2c-0.3,1.1-0.3,2.4-0.1,3.8
	c0.3,1.4,0.9,2.6,1.9,3.5c1.2,1.1,2.6,1.6,4,1.3c0.3-0.1,0.4-0.4,0.4-0.7c0.4-1.4,0.7-2.8,0.9-4.3c0.3-2.8,1.6-5.1,3.7-7
	c0.4-0.4,0.9-0.9,1.4-1.3s1.1-1,1.8-1.8c0.8-0.8,1.5-1.5,2-2.1c0.5-0.6,1.1-1.3,1.8-2c0.7-0.7,1.8-1.5,3.5-2.2
	c-0.2-1.6-0.4-4.5-0.7-8.7c-0.2-4.2-0.2-8.9,0-13.9c-1,0.2-2.1,0.2-3.2,0c-1.1-0.2-2.7-0.7-4.8-1.6C29.7,0.7,25.9,0,21.6,0
	c-3.5,0-6.2,0.6-8,1.7c-2.3,1.4-3.2,3.5-2.7,6.2c-1.1,0.6-1.9,1.5-2.3,2.8c-0.4,1.5-0.3,2.8,0.4,4C7.6,16,7,17.4,7,19
	c0,0.9,0.4,1.9,1.3,2.7L8.3,22z M44.3,27.6c1.8,0.4,3.7,0.6,5.8,0.6c2.1,0,4.1-0.1,6-0.2c0.4-2.1,0.6-4.3,0.8-6.7
	c0.5-7.8,0.1-14.4-1.3-19.7c-0.9,0-2.6-0.1-5.1-0.2c-2.6-0.1-4.8-0.1-6.7,0.2c-0.6,5.5-0.5,12.3,0.1,20.1
	C43.8,24.1,44.1,26,44.3,27.6z M48.8,4c0.7,0,1.2,0.2,1.7,0.7s0.7,1,0.7,1.7S51,7.6,50.5,8.1s-1,0.7-1.7,0.7s-1.2-0.2-1.7-0.7
	c-0.5-0.5-0.7-1-0.7-1.7s0.2-1.2,0.7-1.7C47.6,4.3,48.2,4,48.8,4z"/>
</svg>
