<svg xmlns="http://www.w3.org/2000/svg" viewBox="0 0 64 48">
<path d="M19,27.9l9,9.1l16.6-16.6l-9-9.1L19,27.9z M56,17.3c0-0.7-0.3-1.3-0.8-1.8l-3.8-3.8c-0.8,0.4-1.6,0.6-2.5,0.6
	c-1.4,0-2.6-0.5-3.6-1.5c-1-1-1.5-2.2-1.5-3.6c0-0.9,0.2-1.7,0.6-2.5l-3.8-3.8C40,0.3,39.4,0,38.7,0c-0.7,0-1.3,0.3-1.8,0.8l-28,28
	C8.3,29.4,8,30,8,30.7c0,0.7,0.3,1.3,0.8,1.8l3.8,3.8c0.8-0.4,1.6-0.6,2.5-0.6c1.4,0,2.6,0.5,3.6,1.5c1,1,1.5,2.2,1.5,3.6
	c0,0.9-0.2,1.7-0.6,2.5l3.8,3.8c0.5,0.5,1.1,0.8,1.8,0.8c0.7,0,1.3-0.3,1.8-0.8l28-28C55.7,18.6,56,18,56,17.3z M28,41.1L14.9,27.9
	L35.6,7.2l13.2,13.2L28,41.1z"/>
</svg>
