<svg xmlns="http://www.w3.org/2000/svg" viewBox="0 0 64 48">
<path d="M7.9,24c0,3.3,0.6,6.4,1.9,9.4c1.3,2.9,2.9,5.4,5.1,7.6c2.2,2.2,4.8,3.9,7.6,5.1c2.9,1.3,6,1.9,9.4,1.9
	c3.3,0,6.4-0.6,9.4-1.9c2.9-1.3,5.4-2.9,7.6-5.1c2.2-2.2,3.9-4.8,5.1-7.6c1.3-2.9,1.9-6,1.9-9.4c0-3.3-0.6-6.4-1.9-9.4
	c-1.3-2.9-2.9-5.4-5.1-7.6c-2.2-2.2-4.8-3.9-7.6-5.1S35.2,0,31.9,0c-3.3,0-6.4,0.6-9.4,1.9c-2.9,1.3-5.4,2.9-7.6,5.1
	c-2.2,2.2-3.9,4.8-5.1,7.6C8.5,17.6,7.9,20.7,7.9,24z M15.1,24c0-2.3,0.5-4.5,1.3-6.6c0.9-2,2.1-3.9,3.6-5.3
	c3.2-3.3,7.2-4.9,11.9-4.9v33.7c-4.7,0-8.7-1.7-11.9-4.9C16.7,32.6,15.1,28.6,15.1,24z"/>
</svg>
