<svg xmlns="http://www.w3.org/2000/svg" viewBox="0 0 64 48">
<path d="M4.2,46.9C4.9,47.6,5.8,48,6.8,48h50.5c1,0,1.8-0.4,2.5-1.1c0.7-0.7,1.1-1.5,1.1-2.5v-16H38.5c0.1,0.1,0.1,0.3,0.1,0.6v4.8
	c0,1.2-0.4,2.1-1.2,3s-1.8,1.2-3,1.2h-4.8c-1.2,0-2.2-0.4-3-1.2c-0.8-0.8-1.2-1.8-1.2-3V29c0-0.3,0-0.5,0.1-0.6H3.2v16
	C3.2,45.4,3.5,46.2,4.2,46.9z M60.8,24.8V13.2c0-1-0.3-1.8-1-2.5c-0.7-0.7-1.5-1.1-2.5-1.1H44.1V2.4c0-0.6-0.2-1.2-0.7-1.7
	C42.9,0.2,42.3,0,41.6,0H22.4c-0.7,0-1.2,0.2-1.7,0.7c-0.4,0.4-0.7,1-0.7,1.7v7.2H6.8c-1,0-1.8,0.4-2.5,1.1
	c-0.7,0.7-1.1,1.5-1.1,2.5v11.6H60.8z M24.8,4.8h14.4v4.8H24.8V4.8z M29.6,34.4h4.8c0.4,0,0.6-0.2,0.6-0.6V29c0-0.4-0.2-0.6-0.6-0.6
	h-4.8c-0.4,0-0.6,0.2-0.6,0.6v4.8C29,34.2,29.2,34.4,29.6,34.4z"/>
</svg>
