<svg xmlns="http://www.w3.org/2000/svg" viewBox="0 0 64 48">
<path d="M43.8,42.1l4.1,5.4L50,48l6-6l-0.6-2.2l-5.4-4L42,28l-5.7,5.6c0,0.2-0.1,0.6-0.2,1L43.8,42.1z M51.9,41.4
	c0,0.7-0.2,1.3-0.8,1.7c-0.5,0.5-1.1,0.7-1.8,0.7c-0.7,0-1.3-0.2-1.7-0.7c-0.5-0.5-0.7-1-0.7-1.7c0-0.7,0.2-1.3,0.7-1.7
	c0.5-0.5,1.1-0.7,1.7-0.7c0.7,0,1.3,0.2,1.8,0.7C51.7,40.2,51.9,40.8,51.9,41.4z M28.5,14.5c0.7-1.1,1-2.3,1-3.3
	c0-2.8-1.1-5.4-3.5-7.7C23.7,1.2,21.2,0,18.4,0h-0.2c-0.2,0-0.5,0.4-1.1,1.1c2.3,2.3,3.6,3.6,3.8,4c0.2,0.4,0.3,1.2,0.3,2.4
	c0,1.3-0.7,2.6-2.1,3.9c-1.4,1.4-2.7,2-4,2s-2-0.1-2.3-0.3c-0.3-0.2-1.7-1.5-4.1-3.8C8.3,10,8,10.3,8,10.4c0.1,2.8,1.2,5.4,3.5,7.7
	s4.8,3.5,7.7,3.5c0.9,0,2-0.3,3.2-0.9l4.1,4.1c0.4-0.1,0.7-0.2,1-0.2l5.6-5.7L28.5,14.5z M54.2,31.6l0.9-2.9C55.7,26.2,56,24,56,22
	c0-3.4-0.9-6-2.6-7.7l-6.9-6.9c-0.2-0.2-0.5-0.2-1.1-0.2c-0.6,0-0.9-0.1-1.1-0.2c-0.8-1-1.2-1.9-1.4-2.6c-0.2-0.6-0.9-1.5-2.1-2.8
	l-0.4-0.3c-0.8-0.8-1.3-1.1-1.6-1.1c-0.3,0-0.8,0.3-1.4,1l-4.1,4.2c-0.7,0.8-1.1,1.2-1.1,1.5c0,0.3,0.5,0.9,1.5,1.7
	c1.4,1.4,2.5,2.2,3.2,2.2h0.1c2.6,0.5,3.9,2,3.7,4.1c-0.1,0.5-0.2,0.9-0.7,1.3L39.7,17L28.5,28.1c-0.4-0.2-0.8-0.2-1.3-0.2
	c-0.5,0-0.8,0.2-1.1,0.4c-0.2,0.2-0.5,0.5-0.6,0.6L13.9,40.5l-0.6,0.7c-0.2,0.3-0.4,0.8-0.4,1.5s0.4,1.5,1.1,2.6
	c1.4,1.8,2.9,2.8,4.4,2.8c0.7,0,1.1-0.2,1.4-0.4l0.7-0.7L32,35.4c0.7-0.5,1.1-1.1,1.1-1.7c0-0.5-0.1-0.9-0.2-1.3L45.4,20
	c0.9-0.8,1.5-1.3,2-1.3h0.2c0.6,0.4,1.1,0.8,1.6,1.4c1.4,1.7,2.1,4.1,2.1,7.1l-0.1,1.5L54.2,31.6z"/>
</svg>
