<svg xmlns="http://www.w3.org/2000/svg" viewBox="0 0 64 48">
<path d="M20,24.6c0.2,1.4,1.4,2.6,3.8,3.5c2.3,1,5.1,1.4,8.3,1.4c3.2,0,5.9-0.5,8.3-1.4c2.3-1,3.6-2.1,3.8-3.5l-3-8.4
	c-0.3,1-1.4,1.8-3.1,2.4c-1.7,0.7-3.7,1-5.9,1c-2.2,0-4.2-0.3-5.9-1c-1.7-0.7-2.7-1.5-3.1-2.4L20,24.6L20,24.6z M27.9,11
	c1.2,0.4,2.6,0.6,4.1,0.6c1.5,0,2.9-0.2,4.1-0.6c1.2-0.4,2.1-1,2.5-1.7c-0.3-0.8-0.8-2.2-1.4-3.9c-0.6-1.8-1-3-1.3-3.6
	c-0.2-0.6-0.6-1-1.4-1.3C33.7,0.1,32.9,0,32,0c-0.9,0-1.7,0.1-2.5,0.4c-0.8,0.3-1.2,0.7-1.4,1.3c-0.1,0.2-0.4,1.2-1.1,3l-1.7,4.6
	C25.8,10,26.6,10.6,27.9,11z M57.6,34.4c0-0.9-0.8-1.7-2.2-2.3l-10-4l1.2,3.2c0,1.7-1.5,3.1-4.4,4.3c-2.9,1.2-6.3,1.8-10.2,1.8
	c-3.9,0-7.3-0.6-10.2-1.8s-4.3-2.6-4.4-4.3l1.2-3.2l-10,4c-1.4,0.6-2.1,1.3-2.2,2.3c0,0.9,0.6,1.7,1.9,2.4l18.8,10
	c1.3,0.7,2.9,1.1,4.8,1.1c1.9,0,3.5-0.4,4.8-1.1l18.8-10C57,36.1,57.6,35.3,57.6,34.4z"/>
</svg>
