<svg xmlns="http://www.w3.org/2000/svg" viewBox="0 0 64 48">
<path d="M11.4,12.8c0.4,0.3,1.1,0.5,2,0.6c3.9,0.8,9.3,1.1,16,1.1H32l6.1-0.1h1c7.6-0.3,12.1-0.8,13.5-1.7c0-0.4,0.1-0.7,0.1-1.1v-2
	c0-0.3,0-0.7-0.1-1.1C51.2,7.9,47.3,7.3,41.1,7c0.3-1.9,0-3.5-0.8-4.9C39.5,0.7,36.7,0,32,0c-4.6,0-7.4,0.7-8.3,2.2
	c-0.8,1.1-1,2.8-0.8,4.9c-6.3,0.3-10.1,0.8-11.6,1.6l-0.1,2.1L11.4,12.8L11.4,12.8z M16.1,26.9c0.1,3.3,0.3,6,0.4,8
	c0.1,2,0.2,3.5,0.2,4.6c0.1,4,0.6,6.4,1.4,7.3c0.9,0.8,3,1.1,6.4,1.1h15.1c3.4,0,5.6-0.4,6.5-1.3c0.6-0.6,1-2,1.2-4.2
	c0.1-0.9,0.1-1.9,0.2-2.9c0-1,0.1-2.5,0.2-4.5c0.1-2,0.2-4.7,0.4-8c0.1-3.3,0.3-6.6,0.5-9.9c-4.2,0.5-8.1,0.8-11.8,0.8h-9.4
	c-3.6,0-7.5-0.3-11.7-0.8C15.8,20.2,15.9,23.5,16.1,26.9z M20.8,26.6c0-0.4-0.1-0.9-0.1-1.4s0-1.1,0-1.6c0-0.5,0.1-0.8,0.3-1.1
	c0.2-0.2,0.5-0.3,0.8-0.3l2.1,0.1c0.3,0,0.6,0.1,0.9,0.4c0.2,0.2,0.4,0.5,0.4,0.9v18.3c0,0.8-0.1,1.2-0.3,1.2h-0.7
	c-0.1,0-0.3-0.1-0.5-0.1s-0.4,0-0.6,0s-0.5-0.2-1-0.5c-0.4-0.3-0.6-1.3-0.6-2.9v-2L20.8,26.6L20.8,26.6z M32.8,4.9
	c1.4,0,2.6,0.1,3.5,0.4c0,0.3,0,0.8-0.1,1.7L32,6.8h-3c-0.5,0-0.9,0-1.3,0.1c-0.1-0.9-0.1-1.4-0.1-1.7C28.6,5,30.3,4.9,32.8,4.9z
	 M30,41.9V23.7c0-0.3,0.2-0.6,0.7-0.8c0.5-0.2,0.8-0.3,0.9-0.3h1c0.1,0,0.4,0.1,0.9,0.3s0.7,0.5,0.7,0.8v18.2c0,0.3-0.1,0.6-0.4,0.9
	c-0.2,0.2-0.5,0.4-0.9,0.4h-1.8c-0.3,0-0.6-0.1-0.8-0.4C30.1,42.5,30,42.2,30,41.9L30,41.9z M42.6,37.5v1.3c0,0.2-0.1,0.5-0.1,0.8
	l-0.1,2.1c-0.1,0.8-0.4,1.2-0.8,1.3c-0.9,0-1.5,0-1.8,0.1h-0.7c-0.2,0-0.3-0.4-0.3-1.2V23.6c0-0.3,0.1-0.6,0.3-0.9s0.5-0.4,0.8-0.4
	l2.1-0.1c0.3,0,0.6,0.1,0.8,0.3s0.3,0.5,0.3,0.8c-0.2,3.4-0.4,6-0.4,8c-0.1,2-0.1,3.4-0.2,4.2S42.6,37.2,42.6,37.5L42.6,37.5z"/>
</svg>
