<svg xmlns="http://www.w3.org/2000/svg" viewBox="0 0 64 48">
<path d="M54.9,12.4c0,0.5,0,1,0,1.5c0,2.6-0.3,5.2-1,7.9c-0.7,2.6-1.7,5.2-2.9,7.7c-1.3,2.5-2.9,4.8-4.8,7c-1.9,2.2-4.1,4.1-6.5,5.7
	c-2.5,1.6-5.2,2.9-8.4,3.8c-3.1,0.9-6.5,1.4-10,1.4c-6.6,0-12.6-1.8-18.1-5.3c1,0.2,1.9,0.2,3,0.3c5.4,0,10.3-1.7,14.6-5.1
	c-2.5-0.1-4.8-0.9-6.8-2.4s-3.4-3.4-4.2-5.8c0.7,0.1,1.5,0.2,2.2,0.2c1.1,0,2.1-0.1,3.1-0.4c-2.8-0.6-5-1.9-6.8-4.1
	s-2.7-4.7-2.7-7.5v-0.1c1.6,0.9,3.4,1.4,5.2,1.4c-1.6-1.1-2.9-2.5-3.8-4.2s-1.4-3.6-1.4-5.6c0-2.1,0.5-4.1,1.6-5.9
	c3,3.6,6.6,6.5,10.8,8.7c4.2,2.1,8.7,3.4,13.5,3.6c-0.2-0.9-0.3-1.8-0.3-2.7c0-3.3,1.2-6.1,3.5-8.4C37,1.8,39.8,0.7,43,0.7
	c1.6,0,3.2,0.3,4.7,1s2.8,1.6,3.9,2.8C54.3,4,56.8,3,59.1,1.6c-0.9,2.8-2.6,5-5.2,6.5c2.4-0.2,4.7-0.9,6.8-1.8
	C59.1,8.7,57.2,10.7,54.9,12.4z"/>
</svg>
