<svg xmlns="http://www.w3.org/2000/svg" viewBox="0 0 64 48">
<path d="M55.5,44.3c0.3-0.7,0.5-1.5,0.5-2.4V6c0-1.7-0.6-3.1-1.8-4.3C53,0.6,51.6,0,50,0H14c-0.8,0-1.6,0.2-2.3,0.5
	c-0.7,0.3-1.4,0.7-1.9,1.3c-0.5,0.5-1,1.2-1.3,1.9C8.2,4.4,8,5.2,8,6v35.9c0,0.9,0.2,1.6,0.5,2.4c0.3,0.7,0.7,1.4,1.3,1.9
	c0.5,0.5,1.2,1,1.9,1.3c0.7,0.3,1.5,0.5,2.3,0.5h36c0.8,0,1.6-0.2,2.3-0.5c0.7-0.3,1.4-0.7,1.9-1.3C54.7,45.7,55.2,45,55.5,44.3
	L55.5,44.3z M45.7,14c1.5-0.2,2.9-0.6,4.2-1.2c-1,1.5-2.2,2.8-3.7,3.8v0.9c0,2-0.3,3.9-0.9,5.9c-0.6,2-1.4,3.9-2.6,5.7
	c-1.2,1.8-2.6,3.4-4.2,4.8s-3.6,2.5-5.9,3.3c-2.3,0.8-4.7,1.2-7.4,1.2c-4.1,0-7.8-1.1-11.3-3.3c0.6,0.1,1.2,0.1,1.7,0.1
	c3.4,0,6.5-1.1,9.1-3.2c-1.6,0-3-0.5-4.3-1.5c-1.3-0.9-2.1-2.2-2.6-3.6c0.5,0.1,0.9,0.1,1.4,0.1c0.7,0,1.3-0.1,1.9-0.2
	c-1.7-0.4-3.1-1.2-4.2-2.6c-1.1-1.4-1.7-2.9-1.7-4.7v-0.1c1,0.6,2.2,0.9,3.3,0.9c-1-0.7-1.8-1.5-2.4-2.6c-0.6-1.1-0.9-2.2-0.9-3.5
	c0-1.3,0.3-2.6,1-3.7c1.9,2.3,4.1,4.1,6.7,5.4s5.4,2.1,8.5,2.2c-0.1-0.5-0.2-1.1-0.2-1.7c0-2,0.7-3.8,2.2-5.2
	c1.4-1.4,3.2-2.2,5.2-2.2c2.1,0,3.9,0.8,5.4,2.3c1.6-0.3,3.2-0.9,4.7-1.8C48.4,11.7,47.3,13.1,45.7,14z"/>
</svg>
