<svg xmlns="http://www.w3.org/2000/svg" viewBox="0 0 64 48">
<path d="M60.7,41.8c-2.1-0.9-4.4-1.6-6.8-1.8c2.6,1.5,4.3,3.7,5.2,6.5c-2.3-1.4-4.8-2.4-7.5-2.9c-1.1,1.2-2.4,2.1-3.9,2.8
	c-1.5,0.7-3.1,1-4.7,1c-3.2,0-6-1.1-8.3-3.4c-2.3-2.3-3.5-5.1-3.5-8.4c0-0.9,0.1-1.8,0.3-2.7c-4.8,0.2-9.3,1.5-13.5,3.6
	c-4.2,2.2-7.8,5.1-10.8,8.7c-1.1-1.8-1.6-3.8-1.6-5.9c0-2,0.5-3.9,1.4-5.6s2.2-3.1,3.8-4.2C9,29.5,7.2,30,5.6,30.9v-0.1
	c0-2.8,0.9-5.3,2.7-7.5c1.8-2.2,4-3.5,6.8-4.1c-1-0.3-2-0.4-3.1-0.4c-0.7,0-1.5,0.1-2.2,0.2c0.8-2.4,2.2-4.3,4.2-5.8
	c2-1.5,4.3-2.3,6.8-2.4c-4.3-3.4-9.2-5.1-14.6-5.1C5.1,5.8,4.2,5.8,3.2,6c5.5-3.5,11.5-5.3,18.1-5.3c3.5,0,6.9,0.5,10,1.4
	c3.2,0.9,5.9,2.2,8.4,3.8c2.4,1.6,4.6,3.5,6.5,5.7c1.9,2.2,3.5,4.5,4.8,7c1.2,2.5,2.2,5.1,2.9,7.7c0.7,2.7,1,5.3,1,7.9
	c0,0.5,0,1,0,1.5C57.2,37.4,59.1,39.4,60.7,41.8z"/>
</svg>
