<svg xmlns="http://www.w3.org/2000/svg" viewBox="0 0 64 48">
<path d="M3.7,23.9c-0.1,0.6,0.1,1,0.6,1.3c0.2,0.1,0.4,0.2,0.6,0.2c0.4,0,0.7-0.1,0.9-0.4c1.9-2,4.1-3.1,6.5-3.1
	c1.7,0,3.3,0.6,4.9,1.7c1.5,1.1,2.8,2.6,3.9,4.5c0.2,0.5,0.5,0.7,1,0.7s0.8-0.2,1.1-0.7c1.6-3,3.8-4.9,6.4-5.8v15.8
	c0,1.4-0.4,2.6-1.2,3.6c-0.8,1-1.8,1.5-2.9,1.5s-2.1-0.5-2.9-1.5c-0.8-1-1.2-2.2-1.2-3.6c0-0.7-0.2-1.3-0.7-1.7
	c-0.4-0.5-1-0.7-1.8-0.7c-0.6,0-1.2,0.2-1.7,0.7s-0.7,1-0.7,1.7c0,1.4,0.2,2.6,0.7,3.8c0.5,1.2,1.1,2.2,1.9,3.2
	c0.8,0.9,1.8,1.6,2.8,2.1c1.1,0.5,2.2,0.8,3.5,0.8s2.4-0.3,3.4-0.8c1.1-0.5,2-1.2,2.8-2.2c0.8-0.9,1.4-1.9,1.9-3.1
	c0.5-1.2,0.7-2.4,0.7-3.8V22.3c2.6,0.9,4.7,2.8,6.4,5.8c0.2,0.5,0.5,0.7,1,0.7s0.9-0.2,1-0.7c1.1-2,2.4-3.5,3.9-4.6
	c1.6-1.1,3.2-1.6,4.9-1.6c2.4,0,4.6,1.1,6.6,3.1c0.1,0.2,0.4,0.3,0.8,0.3c0.2,0,0.4-0.1,0.6-0.2c0.5-0.3,0.7-0.7,0.6-1.3
	c-0.6-2.7-1.7-5.3-3.2-7.6c-1.6-2.3-3.5-4.4-5.8-6.1c-2.3-1.8-4.9-3.2-7.7-4.2S37.6,4.2,34.4,4V2.4c0-0.7-0.2-1.3-0.7-1.8
	C33.2,0.2,32.7,0,32,0c-0.6,0-1.2,0.2-1.7,0.7c-0.5,0.4-0.7,1-0.7,1.8V4c-3.2,0.3-6.3,0.9-9.1,2c-2.8,1-5.4,2.4-7.7,4.2
	C10.5,12,8.6,14,7,16.3C5.5,18.7,4.4,21.2,3.7,23.9L3.7,23.9z"/>
</svg>
