<svg xmlns="http://www.w3.org/2000/svg" viewBox="0 0 64 48">
<path d="M55.9,48v-4.8H8.1V48H55.9z M8.2,2.9C8.6,3,9,3,9.6,3c0.6,0,1.2,0,1.8,0.1c0.6,0,1.1,0.1,1.7,0.3c0.6,0.2,0.9,0.4,1.1,0.8
	c0,0.1,0.1,0.2,0.1,0.3c0.1,0.6,0.2,0.9,0.3,0.9c0.1,0,0.1,0.6,0.2,1.9v1.9v1.3v10c0,1.9,0.1,3.7,0.3,5.4c0.1,1.7,0.5,3.3,1.1,4.7
	c0.6,1.4,1.5,2.7,2.6,3.8c1.1,1.1,2.7,2,4.7,2.7c1.4,0.6,2.9,0.9,4.4,1.1c1.5,0.2,3,0.3,4.5,0.3c1.5,0,3.1-0.1,4.8-0.4
	c1.7-0.2,3.3-0.6,4.8-1.1c1.5-0.6,2.9-1.3,4.2-2.3s2.4-2.1,3.3-3.5c0.4-0.7,0.7-1.5,0.9-2.4c0.2-0.9,0.4-1.7,0.5-2.7
	s0.2-1.9,0.3-2.8c0-0.8,0.1-1.7,0.1-2.5v-1.5c0-1.4-0.1-2.3-0.1-2.7c0-0.3,0-1.3-0.1-3.2c0-1.8-0.1-2.8-0.1-3.2l-0.1-2.4
	c-0.1-0.7-0.1-1.1-0.2-1.2c0-0.3-0.1-0.6-0.1-0.9c0-0.3-0.1-0.6-0.1-0.8c0-0.6,0.2-1,0.6-1.2c0.4-0.3,0.9-0.4,1.5-0.5
	c0.6-0.1,1.2-0.1,1.8-0.2c0.6,0,1.1-0.1,1.6-0.3c0.1-0.4,0.1-0.7,0.1-1c0-0.3,0-0.5-0.1-0.8c0,0,0-0.1,0-0.3c0-0.2-0.1-0.3-0.1-0.4
	c0,0-0.1,0-0.3,0c-0.1,0-0.2,0-0.3,0c-0.9,0-1.7,0.1-2.5,0.2c-0.8,0.1-1.6,0.2-2.4,0.2c-1.7,0-3.4-0.1-5.1-0.2C43.4,0,41.7,0,40,0.1
	L40,2.6c0.1,0,0.4,0.1,0.7,0.1h1c0.3,0,0.7,0,1.1,0c0.4,0,0.6,0,0.7,0c0.9,0,1.7,0.4,2.4,1.1c0.2,0.1,0.3,0.6,0.5,1.4
	c0.1,0.7,0.3,1.6,0.4,2.7l0.4,3.6l0.3,3.7l0.1,3.2c0,0.9,0.1,1.6,0.1,2c0,2.4-0.2,4.5-0.6,6.3c-0.4,1.8-1.1,3.3-2.2,4.6
	c-1,1.2-2.4,2.1-4.1,2.7C39.1,34.7,37,35,34.4,35c-3.3,0-5.7-0.9-7.4-2.8c-1.7-1.9-2.6-4.3-2.7-7.4c-0.1-2.7-0.2-5.5-0.3-8.5
	c-0.1-2.9-0.1-5.7-0.1-8.5c0-1.6,0.1-2.8,0.3-3.4c0.2-0.7,0.5-1.1,1-1.2c0.5-0.2,1.2-0.2,2-0.1c0.9,0,2,0,3.4-0.3V2.6
	c0-0.4,0-0.8-0.1-1.2c-0.1-0.4-0.1-0.8,0-1.1c-1.8,0.1-3.9,0.1-6.2,0.2c-2,0-4.1,0.1-6.2,0.1c-1.4,0-2.9-0.1-4.3-0.2
	c-1.4-0.1-2.9-0.2-4.4-0.2H8.7c-0.2,0-0.4,0-0.6,0.1L8.2,2.9z"/>
</svg>
