<svg xmlns="http://www.w3.org/2000/svg" viewBox="0 0 64 48">
<path d="M27.7,42.6c0,0.3-0.1,0.5-0.4,0.7c-0.2,0.3-0.5,0.4-0.8,0.4H20c-0.3,0-0.6-0.1-0.8-0.4c-0.2-0.2-0.3-0.5-0.3-0.8
	c0-0.1,0.2-0.7,0.5-1.9c0.3-1,0.7-2.3,1.2-3.9l0.6-2.2c-0.7-0.4-1.3-1-1.7-1.7c-0.4-0.7-0.6-1.4-0.6-2.2c0-1.2,0.4-2.3,1.3-3.1
	c0.9-0.9,1.9-1.3,3.1-1.3c1.2,0,2.2,0.4,3.1,1.3c0.9,0.9,1.3,1.9,1.3,3.1c0,0.8-0.2,1.6-0.7,2.3c-0.4,0.7-1,1.2-1.8,1.6l0.7,2.2
	l1.2,4C27.5,41.8,27.7,42.4,27.7,42.6L27.7,42.6z M55.9,4.5c-3-3-6.6-4.5-10.8-4.5s-7.8,1.5-10.8,4.5c-3,3-4.5,6.6-4.5,10.8v6.6H6.9
	c-0.9,0-1.7,0.3-2.3,1c-0.6,0.6-1,1.4-1,2.3v19.7c0,0.9,0.3,1.7,1,2.3s1.4,1,2.3,1h32.7c0.9,0,1.7-0.3,2.3-1s1-1.4,1-2.3V25.1
	c0-0.9-0.3-1.7-1-2.3c-0.6-0.6-1.4-1-2.3-1h-3.3v-6.6c0-2.4,0.9-4.4,2.6-6.1c1.7-1.7,3.8-2.6,6.2-2.6s4.5,0.9,6.2,2.6
	s2.6,3.7,2.6,6.1V24c0,0.6,0.2,1.1,0.6,1.5c0.4,0.4,0.9,0.6,1.5,0.6h2.2c0.6,0,1.1-0.2,1.5-0.6c0.4-0.4,0.6-0.9,0.6-1.5v-8.7
	C60.3,11.1,58.8,7.5,55.9,4.5z"/>
</svg>
