<svg xmlns="http://www.w3.org/2000/svg" viewBox="0 0 64 48">
<path d="M38.3,39.8L38.3,39.8l2.2,4.1c0.3,0.5,0.2,0.9-0.2,1.1l-5.1,2.9c-0.5,0.2-0.8,0.1-1.1-0.4l-3.1-5.6
	c-3.3,0.2-6.4-0.6-9.2-2.3l-7.2,7.2c-0.8,0.8-1.7,1.2-2.8,1.2c-1.1,0-2-0.4-2.8-1.2C8.4,46,8.1,45.1,8.1,44s0.4-2,1.2-2.8l7.2-7.2
	c-1.7-2.7-2.4-5.7-2.3-8.8c0.1-3.1,1.1-6,2.8-8.6L9.9,4c-0.3-0.5-0.2-0.8,0.2-1.1l5.1-2.8C15.6-0.1,16,0,16.3,0.5l5.8,10.4l0.1-0.1
	L38.3,39.8z M55.2,16.2c0.5-0.5,0.7-1,0.7-1.7c0-0.7-0.2-1.3-0.7-1.7c-0.5-0.5-1-0.7-1.7-0.7c-0.7,0-1.3,0.2-1.7,0.7L42.5,22l-9-9
	l8.8-8.8c0.5-0.5,0.8-1,0.8-1.7c0-0.7-0.2-1.3-0.7-1.8C41.8,0.2,41.2,0,40.5,0c-0.7,0-1.3,0.3-1.7,0.8L30,9.5l-3.8-3.8
	c-0.3-0.3-0.7-0.6-1.1-0.6l17.5,31.2l3.6-3.6l0.6,0.5c0.5,0.5,1,0.8,1.7,0.8c0.7,0,1.3-0.2,1.7-0.7c0.5-0.5,0.7-1.1,0.7-1.7
	s-0.2-1.2-0.7-1.8L46,25.5L55.2,16.2L55.2,16.2z"/>
</svg>
