<svg xmlns="http://www.w3.org/2000/svg" viewBox="0 0 64 48">
<path d="M4.2,48h55.2c0.8,0,1.2-0.4,1.2-1.2V27.6c0-0.3-0.1-0.6-0.4-0.9c-0.2-0.2-0.5-0.4-0.9-0.4h-7.2c-0.3,0-0.6,0.1-0.9,0.4
	C51.1,27,51,27.2,51,27.6v10.8H12.6V27.6c0-0.3-0.1-0.6-0.4-0.9c-0.2-0.2-0.5-0.4-0.9-0.4H4.2c-0.3,0-0.6,0.1-0.9,0.4
	C3.1,27,3,27.2,3,27.6v19.2C3,47.6,3.4,48,4.2,48z M15,18.2h9.6v15.6c0,0.7,0.2,1.3,0.7,1.7c0.4,0.5,1,0.7,1.7,0.7h9.6
	c0.7,0,1.3-0.2,1.7-0.7c0.5-0.5,0.7-1,0.7-1.7V18.2h9.6c0.6,0,1-0.2,1.2-0.5c0.2-0.3,0-0.7-0.5-1.2L33.5,0.7c-0.5-0.5-1-0.7-1.7-0.7
	c-0.7,0-1.3,0.2-1.7,0.7L14.3,16.5c-0.5,0.5-0.6,0.9-0.5,1.2C13.9,18,14.3,18.2,15,18.2z"/>
</svg>
