<svg xmlns="http://www.w3.org/2000/svg" viewBox="0 0 64 48">
<path d="M53.8,22.2c0-0.3,0.1-0.6,0.1-1.1c0-4.7-1.7-8.8-5-12.1c-3.3-3.3-7.4-5-12.1-5c-3.4,0-6.4,0.9-9.2,2.7
	c-2.8,1.8-4.9,4.2-6.3,7.1c-1.4-1.1-3-1.7-5-1.7c-2,0-3.8,0.8-5.3,2.3C9.3,16,8.6,17.9,8.6,20c0,0.7,0.1,1.5,0.4,2.4
	c-1.7,1.1-3.1,2.5-4.2,4.2c-1,1.7-1.5,3.7-1.5,5.8c0,3.2,1.1,5.9,3.4,8.1c2.2,2.3,4.9,3.4,8,3.5V44h14V32.8h-7.3
	c-0.6,0-1-0.1-1.1-0.4c-0.1-0.3,0-0.7,0.4-1.1l10-11.9c0.3-0.5,0.8-0.7,1.3-0.7c0.5,0,1,0.2,1.4,0.7l10,11.9
	c0.3,0.5,0.4,0.9,0.3,1.1s-0.5,0.4-1,0.4h-7.3V44h14.3c3.1,0,5.8-1.1,8-3.3c2.2-2.2,3.3-4.9,3.3-8c0-2.3-0.6-4.5-1.9-6.4
	C57.6,24.4,55.9,23.1,53.8,22.2L53.8,22.2z"/>
</svg>
