<svg xmlns="http://www.w3.org/2000/svg" viewBox="0 0 64 64">
<path d="M3.2,45.9c0.6,0.4,1.2,0.7,1.7,1.2c0.5,0.5,1.2,0.8,2,1h50.4c0.8-0.2,1.4-0.5,2-1c0.5-0.5,1.1-0.8,1.7-1.2v-0.5
	c-0.5-0.8-0.9-1.6-1.3-2.5l-1.1-2.7c-0.4-0.9-0.8-1.7-1.3-2.5c-0.5-0.8-1-1.5-1.7-2.3c-0.7-0.7-1.4-1.2-2.2-1.4
	c-0.5-0.2-1-0.3-1.5-0.4c-0.5,0-1.9-0.3-4-0.5l-7.6-1.2c-0.2-0.7-0.4-1.4-0.5-2.2c-0.1-0.7-0.3-1.4-0.5-2.2c0.3-0.5,0.6-0.9,1-1.4
	c0.4-0.5,0.7-0.9,1-1.4c0.4-0.5,0.6-1.2,0.9-2c0.3-0.7,0.7-3.2,1.2-7.1l0.4-2.7c0.1-0.8,0.1-1.3,0.1-1.4c0-2.6-0.9-5.1-2.8-7.3
	c-0.9-1.2-2.2-2.2-3.7-2.9C35.8,0.5,34,0,32,0s-3.9,0.4-5.4,1.2C25,2,23.8,3,22.8,4.1c-1,1.2-1.6,2.4-2.1,3.7s-0.6,2.3-0.6,2.9
	c0,0.6,0,1.4,0.1,2.1l0.4,2.6l0.4,2.8l0.4,3c0.2,1,0.6,2.2,1.4,3.4c0.3,0.5,0.6,1,1,1.4l1,1.4c-0.2,0.7-0.4,1.4-0.5,2.2
	c-0.1,0.7-0.3,1.4-0.5,2.2l-5.1,0.7l-4.2,0.7c-1.1,0.2-1.9,0.3-2.4,0.4c-0.5,0.1-1,0.2-1.5,0.4c-1.9,0.7-3.6,2.8-5.2,6.2L4.2,43
	c-0.4,0.9-0.7,1.7-1.2,2.5v0.4H3.2z"/>
</svg>
