<svg xmlns="http://www.w3.org/2000/svg" viewBox="0 0 64 48">
<path d="M56,42V6c0-1.7-0.6-3.1-1.8-4.3C53.1,0.6,51.6,0,50,0h-36c-0.8,0-1.6,0.2-2.3,0.5c-0.7,0.3-1.4,0.8-1.9,1.3
	s-1,1.2-1.3,1.9C8.2,4.4,8,5.2,8,6v6.9c2.6-2.7,7.3-7,11.1-7.8c6-1.2,6,9.3,7.5,15.1c1.4,5.6,2.4,8.8,3.6,8.8s3.6-3.1,6.1-7.9
	c2.6-4.8-0.1-9.1-5.1-6c2-12.1,21-15,18.6-1.1c-2.5,13.9-16.2,25.6-20.3,28.3c-4.1,2.7-7.9-1.1-9.3-3.9c-1.6-3.2-6.3-20.8-7.5-22.2
	c-1-1.2-3.7,0.6-4.6,1.2V42c0,0.9,0.2,1.6,0.5,2.4c0.3,0.7,0.8,1.4,1.3,1.9s1.2,1,1.9,1.3c0.7,0.3,1.5,0.5,2.3,0.5h36
	c0.8,0,1.6-0.2,2.3-0.5c0.7-0.3,1.4-0.8,1.9-1.3s1-1.2,1.3-1.9C55.8,43.6,56,42.8,56,42z"/>
</svg>
