<svg xmlns="http://www.w3.org/2000/svg" viewBox="0 0 64 48">
<path d="M12.8,18.3v11.4c0,0.3,0.1,0.6,0.4,0.9c0.2,0.2,0.5,0.4,0.9,0.4h12.5l9.8,9.8c1,1,1.8,1.3,2.5,1c0.7-0.3,1.1-1.1,1.1-2.5
	V8.8c0-1.4-0.4-2.2-1.1-2.5s-1.5,0-2.5,1l-9.8,9.8H14c-0.3,0-0.6,0.1-0.9,0.4C12.9,17.6,12.8,17.9,12.8,18.3L12.8,18.3z M43.6,13.1
	c-0.2,0.6-0.1,1.3,0.3,1.9c1.7,2.9,2.5,5.8,2.5,9s-0.8,6.1-2.5,9c-0.3,0.6-0.4,1.2-0.3,1.9c0.2,0.6,0.6,1.1,1.2,1.5
	c0.6,0.3,1.2,0.4,1.8,0.3s1.1-0.6,1.4-1.2c2.1-3.7,3.1-7.5,3.1-11.4c0-3.9-1-7.7-3.1-11.4c-0.5-0.8-1.2-1.2-2.1-1.2
	c-0.3,0-0.7,0.1-1.2,0.3C44.2,12,43.8,12.5,43.6,13.1z"/>
</svg>
