<svg xmlns="http://www.w3.org/2000/svg" viewBox="0 0 64 48">
<path d="M3.2,18.3v11.4c0,0.3,0.1,0.6,0.4,0.9c0.2,0.2,0.5,0.4,0.9,0.4H17l9.8,9.8c1,1,1.8,1.3,2.5,1c0.7-0.3,1.1-1.1,1.1-2.5V8.8
	c0-1.4-0.4-2.2-1.1-2.5c-0.7-0.3-1.5,0-2.5,1L17,17.1H4.5c-0.3,0-0.6,0.1-0.9,0.4C3.4,17.6,3.2,17.9,3.2,18.3L3.2,18.3z M34,13.1
	c-0.2,0.6-0.1,1.3,0.3,1.9c1.7,2.9,2.5,5.8,2.5,9s-0.8,6.1-2.5,9c-0.3,0.6-0.4,1.2-0.3,1.9c0.2,0.6,0.6,1.1,1.2,1.5
	c0.6,0.3,1.2,0.4,1.8,0.3s1.1-0.6,1.4-1.2c2.1-3.7,3.1-7.5,3.1-11.4c0-3.9-1-7.7-3.1-11.4c-0.5-0.8-1.2-1.2-2.1-1.2
	c-0.3,0-0.7,0.1-1.1,0.3C34.6,12,34.2,12.5,34,13.1z M41.8,7.5c-0.1,0.6,0,1.3,0.3,1.9c2.9,4.5,4.3,9.4,4.3,14.6S45,34.1,42.1,38.6
	c-0.3,0.6-0.4,1.2-0.3,1.9c0.1,0.6,0.5,1.1,1.1,1.5c0.6,0.3,1.2,0.4,1.9,0.3c0.6-0.1,1.1-0.5,1.5-1.1c3.3-5.3,5-11.1,5-17.2
	c0-6.1-1.7-11.9-5-17.2c-0.4-0.8-1-1.1-1.7-1.1c-0.7,0-1.3,0.1-1.8,0.4C42.2,6.4,41.9,6.8,41.8,7.5z M49.5,1.9
	c-0.1,0.6,0,1.2,0.4,1.8C53.9,9.8,56,16.6,56,24c0,7.4-2,14.1-6.1,20.3c-0.3,0.6-0.5,1.2-0.4,1.8c0.1,0.6,0.4,1.1,1,1.5
	c0.6,0.4,1.2,0.5,1.8,0.4c0.6-0.1,1.2-0.5,1.5-1c4.6-6.9,6.9-14.5,6.9-22.9c0-8.3-2.3-16-6.9-22.9C53.3,0.4,52.8,0,52.1,0
	c-0.7,0-1.2,0.2-1.7,0.5C49.9,0.8,49.6,1.3,49.5,1.9L49.5,1.9z"/>
</svg>
