<svg xmlns="http://www.w3.org/2000/svg" viewBox="0 0 64 48">
<path d="M37.7,4c-1.5-2.7-3.4-4-5.6-4c-2.2,0-4.1,1.3-5.6,4L6.6,38.2c-0.9,1.7-1.4,3-1.4,4.1c0,1.1,0.3,2,0.7,2.9
	C7,47,9,47.9,12.1,47.9h39.8c3,0,5.1-0.9,6.2-2.8c0.5-0.8,0.7-1.8,0.7-2.9c0-1.1-0.5-2.4-1.4-4L37.7,4z M35.1,13
	c0.3,0,0.5,0.1,0.7,0.3c0.2,0.2,0.3,0.3,0.2,0.5L35.5,32c0,0.5-0.3,0.8-0.9,0.8h-4.9c-0.6,0-0.8-0.3-0.9-0.8l-0.4-18.2
	c0-0.5,0.3-0.8,0.9-0.8H35.1z M28.6,35.7c0-0.6,0.3-0.9,0.9-0.9H35c0.3,0,0.4,0.1,0.6,0.3c0.2,0.2,0.3,0.4,0.3,0.7v5.2
	c0,0.3-0.1,0.5-0.3,0.7s-0.4,0.3-0.6,0.3h-5.5c-0.6,0-0.9-0.3-0.9-0.9V35.7z"/>
</svg>
