<svg xmlns="http://www.w3.org/2000/svg" viewBox="0 0 64 48">
<path d="M9,1c-1.6,0-3,0.6-4.1,1.7C3.8,3.8,3.3,5.2,3.3,6.8v34.5c0,1.6,0.6,2.9,1.7,4.1C6.1,46.4,7.4,47,9,47h46
	c1.6,0,3-0.6,4.1-1.7c1.1-1.1,1.7-2.5,1.7-4.1V6.8c0-1.6-0.6-3-1.7-4.1C57.9,1.6,56.6,1,55,1H9z M18,7c0.4,0.4,0.6,0.9,0.6,1.5
	c0,0.6-0.2,1.1-0.6,1.5c-0.4,0.4-0.9,0.6-1.5,0.6s-1.1-0.2-1.5-0.6c-0.4-0.4-0.6-0.9-0.6-1.5c0-0.6,0.2-1.1,0.6-1.5
	c0.4-0.4,0.9-0.6,1.5-0.6S17.6,6.6,18,7z M9.2,7c0.4-0.4,0.9-0.6,1.5-0.6c0.6,0,1.1,0.2,1.5,0.6c0.4,0.4,0.6,0.9,0.6,1.5
	c0,0.6-0.2,1.1-0.6,1.5c-0.4,0.4-0.9,0.6-1.5,0.6c-0.6,0-1.1-0.2-1.5-0.6C8.8,9.6,8.6,9.1,8.6,8.5C8.6,7.9,8.8,7.4,9.2,7z M9,41.2
	V14.8H55v26.4H9z M20.5,10.2V6.8H55v3.4H20.5z"/>
</svg>
