<svg xmlns="http://www.w3.org/2000/svg" viewBox="0 0 64 48">
<path d="M10.7,0C9.2,0,8,0.5,6.9,1.5c-1.1,1-1.6,2.3-1.6,3.8v32c0,1.4,0.5,2.7,1.6,3.7c1,1,2.3,1.6,3.8,1.6h10.6v-5.2H10.6V12.8
	h42.8v24.6H42.7v5.2h10.6c1.5,0,2.7-0.5,3.8-1.5c1.1-1,1.6-2.3,1.6-3.8v-32c0-1.5-0.5-2.8-1.6-3.8c-1-1-2.3-1.6-3.8-1.6H10.7z
	 M10.8,8.3c-0.4-0.4-0.5-0.9-0.5-1.4c0-0.5,0.2-1,0.5-1.3C11.2,5.2,11.7,5,12.3,5c0.6,0,1.1,0.2,1.4,0.5c0.4,0.4,0.6,0.8,0.6,1.3
	c0,0.5-0.2,1-0.6,1.4c-0.4,0.4-0.9,0.6-1.4,0.6C11.7,8.9,11.2,8.7,10.8,8.3z M16.2,8.3c-0.4-0.4-0.6-0.9-0.6-1.4
	c0-0.5,0.2-1,0.6-1.3C16.6,5.2,17,5,17.6,5c0.6,0,1,0.2,1.4,0.5c0.4,0.4,0.5,0.8,0.5,1.3c0,0.5-0.2,1-0.5,1.4
	c-0.4,0.4-0.8,0.6-1.4,0.6C17,8.9,16.6,8.7,16.2,8.3z M21.3,8.6V5.3h32.1v3.3H21.3z M18.9,32h8v16h9.8V32h8l-13-12.9L18.9,32z"/>
</svg>
