<svg xmlns="http://www.w3.org/2000/svg" viewBox="0 0 64 48">
<path d="M49.4,27.9c0-0.5-0.1-1-0.4-1.5l-7-10.4c-1.3-2-2.9-2.9-4.8-2.9H26.8c-1.9,0-3.5,1-4.8,2.9l-7,10.5
	c-0.3,0.4-0.4,0.9-0.4,1.4c0,0.7,0.3,1.3,0.8,1.9c0.5,0.5,1.1,0.8,1.9,0.8c0.9,0,1.7-0.4,2.2-1.1l6.2-9.3h1.2v3.6l-6.7,11.2
	c-0.2,0.3-0.3,0.6-0.3,0.9c0,0.5,0.2,0.9,0.5,1.2c0.3,0.3,0.7,0.5,1.2,0.5h5.2v7.4c0,0.9,0.3,1.6,0.9,2.2c0.6,0.6,1.3,0.9,2.2,0.9
	h4.3c0.9,0,1.6-0.3,2.2-0.9c0.6-0.6,0.9-1.3,0.9-2.2v-7.4h5.2c0.5,0,0.9-0.2,1.2-0.5c0.3-0.3,0.5-0.7,0.5-1.2c0-0.3-0.1-0.6-0.3-0.9
	l-6.7-11.2v-3.6h1.2l6.2,9.3c0.5,0.8,1.2,1.1,2.2,1.1c0.7,0,1.3-0.3,1.9-0.8C49.2,29.3,49.4,28.6,49.4,27.9L49.4,27.9z M36.3,1.8
	C35.1,0.6,33.7,0,32,0c-1.7,0-3.1,0.6-4.3,1.8c-1.2,1.2-1.8,2.6-1.8,4.3c0,1.7,0.6,3.1,1.8,4.3c1.2,1.2,2.6,1.8,4.3,1.8
	c1.7,0,3.1-0.6,4.3-1.8c1.2-1.2,1.8-2.6,1.8-4.3C38.1,4.5,37.5,3,36.3,1.8z"/>
</svg>
