<svg xmlns="http://www.w3.org/2000/svg" viewBox="0 0 64 48">
<path d="M8.1,39.8c0,0.7,0.2,1.4,0.5,2c0.3,0.6,0.7,1.2,1.2,1.8l1.5,1.6c0.5,0.4,1,0.9,1.5,1.4c0.9,0.9,2.1,1.4,3.4,1.4
	c1.3,0,2.4-0.5,3.4-1.4l18.2-18.2c1.4,0.3,2.6,0.5,3.8,0.5c1.9,0,3.6-0.3,5.3-1c1.6-0.7,3.1-1.6,4.3-2.7s2.3-2.5,3.1-4.1
	c0.8-1.6,1.3-3.3,1.5-5.1l-13.3,4.8l-5.5-4.6L38.4,9l13.3-4.8c-1.3-1.3-2.8-2.3-4.6-3.1C45.3,0.4,43.4,0,41.6,0
	c-2,0-3.8,0.4-5.5,1.1c-1.7,0.8-3.2,1.8-4.5,3.1c-1.3,1.3-2.3,2.8-3.1,4.6c-0.8,1.8-1.1,3.7-1.1,5.6c0,1.1,0.2,2.3,0.5,3.7L9.5,36.3
	c-0.4,0.4-0.8,0.9-1,1.5C8.2,38.5,8.1,39.1,8.1,39.8L8.1,39.8z M14.6,38.1c0.4-0.5,1-0.7,1.7-0.7c0.6,0,1.2,0.2,1.7,0.7
	c0.5,0.4,0.7,1,0.7,1.8c0,0.6-0.2,1.2-0.7,1.7c-0.5,0.5-1,0.7-1.7,0.7s-1.2-0.2-1.7-0.7c-0.4-0.5-0.7-1-0.7-1.7
	C14,39.1,14.2,38.5,14.6,38.1z"/>
</svg>
