<svg xmlns="http://www.w3.org/2000/svg" viewBox="0 0 64 48">
<path d="M29.6,37.8h1.8v-9.1h-1.8v6.9c-0.2,0.2-0.4,0.4-0.6,0.5c-0.2,0.1-0.4,0.2-0.5,0.2c-0.2,0-0.3,0-0.4-0.1
	C28,36,28,35.9,28,35.6v-7h-1.8v7.6c0,0.5,0.1,0.9,0.3,1.2c0.2,0.3,0.5,0.4,0.9,0.4c0.3,0,0.7-0.1,1.1-0.3c0.4-0.2,0.7-0.5,1-0.8
	V37.8z M23.3,27.2h2.1v-1.8h-6.3v1.8h2.1v10.5h2V27.2z M30.8,12.2v5.5c0,0.3,0.1,0.5,0.2,0.6c0.1,0.2,0.4,0.2,0.6,0.2
	c0.3,0,0.5-0.1,0.7-0.2c0.2-0.2,0.2-0.4,0.2-0.6v-5.4c0-0.2-0.1-0.4-0.2-0.5c-0.2-0.1-0.4-0.2-0.7-0.2c-0.2,0-0.4,0.1-0.6,0.2
	C30.9,11.8,30.8,12,30.8,12.2z M37.5,37.4c0.3-0.3,0.4-0.8,0.4-1.5v-5c0-0.7-0.2-1.3-0.5-1.7c-0.3-0.4-0.7-0.6-1.3-0.6
	c-0.3,0-0.6,0.1-0.8,0.2c-0.3,0.1-0.5,0.4-0.8,0.6v-4h-1.8v12.3h1.8v-0.7c0.2,0.3,0.5,0.5,0.8,0.6c0.3,0.1,0.6,0.2,0.9,0.2
	C36.8,37.9,37.3,37.7,37.5,37.4z M36.1,31L36.1,31l0,4.7c0,0.3-0.1,0.5-0.2,0.6s-0.3,0.2-0.5,0.2c-0.2,0-0.3,0-0.4-0.1
	c-0.1-0.1-0.3-0.2-0.4-0.3v-5.7c0.1-0.1,0.2-0.2,0.4-0.3c0.1-0.1,0.3-0.1,0.4-0.1c0.2,0,0.4,0.1,0.6,0.2C36,30.4,36.1,30.6,36.1,31
	L36.1,31z M54.2,1.8C53,0.6,51.6,0,50,0H14c-0.8,0-1.6,0.2-2.3,0.5s-1.4,0.7-1.9,1.3c-0.5,0.5-1,1.2-1.3,1.9C8.2,4.4,8,5.2,8,6v35.9
	c0,0.9,0.2,1.6,0.5,2.4c0.3,0.7,0.7,1.4,1.3,1.9c0.5,0.5,1.2,1,1.9,1.3c0.7,0.3,1.5,0.5,2.3,0.5h36c0.8,0,1.6-0.2,2.3-0.5
	c0.7-0.3,1.4-0.8,1.9-1.3c0.5-0.5,1-1.2,1.3-1.9c0.3-0.7,0.5-1.5,0.5-2.4V6C56,4.4,55.4,2.9,54.2,1.8z M25.9,14.4V20h-2.3v-5.4
	l-2.7-8.2h2.3l1.5,5.4h0.1l1.4-5.4h2.3L25.9,14.4z M29.6,10.4c0.5-0.5,1.3-0.7,2.2-0.7c0.8,0,1.5,0.2,2.1,0.7
	c0.5,0.5,0.8,1.1,0.8,1.9v5.2c0,0.9-0.3,1.5-0.8,2c-0.5,0.5-1.3,0.7-2.2,0.7c-0.9,0-1.6-0.3-2.1-0.8c-0.5-0.5-0.8-1.2-0.8-2v-5.2
	C28.7,11.5,29,10.9,29.6,10.4z M40.1,17.6V10h2v10h-2v-1.1c-0.4,0.4-0.8,0.7-1.2,0.9c-0.4,0.2-0.8,0.3-1.2,0.3
	c-0.5,0-0.8-0.1-1.1-0.4c-0.2-0.3-0.4-0.7-0.4-1.3V10h2v7.7c0,0.2,0,0.4,0.1,0.5c0.1,0.1,0.2,0.2,0.4,0.2c0.1,0,0.3-0.1,0.6-0.2
	C39.7,18,39.9,17.8,40.1,17.6z M49.9,29.7V35c0,3.6-2.9,6.6-6.6,6.6H20.6c-3.6,0-6.6-2.9-6.6-6.6v-5.3c0-3.6,2.9-6.6,6.6-6.6h22.8
	C47,23.1,49.9,26.1,49.9,29.7z M43.6,37.3c0.5-0.5,0.7-1.2,0.7-2.1v-0.5h-1.9v0.4c0,0.5-0.1,0.9-0.2,1c-0.1,0.2-0.3,0.2-0.6,0.2
	c-0.3,0-0.5-0.1-0.6-0.3c-0.1-0.2-0.2-0.5-0.2-1v-1.7h3.5v-2.3c0-0.9-0.2-1.5-0.7-2c-0.4-0.5-1.1-0.7-1.9-0.7c-0.8,0-1.5,0.2-2,0.7
	c-0.5,0.5-0.8,1.1-0.8,1.9v4.1c0,0.9,0.2,1.6,0.7,2.1c0.5,0.5,1.1,0.7,1.9,0.7C42.4,38,43.1,37.8,43.6,37.3z M40.8,32v-0.9
	c0-0.4,0.1-0.7,0.2-0.8c0.1-0.2,0.3-0.2,0.6-0.2c0.3,0,0.5,0.1,0.6,0.2c0.1,0.2,0.2,0.4,0.2,0.8V32H40.8z"/>
</svg>
