<svg xmlns="http://www.w3.org/2000/svg" viewBox="0 0 64 48">
<path d="M47.5,22.8H16.5c-4.9,0-8.9,4-8.9,9V39c0,4.9,4,9,8.9,8.9h31.1c4.9,0,8.9-4,8.9-8.9v-7.2C56.5,26.8,52.5,22.8,47.5,22.8z
	 M23,26l0,2.4h-2.9v14.4h-2.8V28.4h-2.9V26H23L23,26z M31.2,30.4v12.4h-2.5v-1.4c-0.5,0.5-0.9,0.9-1.4,1.1c-0.5,0.3-1,0.4-1.4,0.4
	c-0.6,0-1-0.2-1.3-0.6c-0.3-0.4-0.4-0.9-0.4-1.7V30.4h2.5v9.5c0,0.3,0.1,0.5,0.2,0.6c0.1,0.1,0.3,0.2,0.5,0.2c0.2,0,0.4-0.1,0.7-0.3
	c0.3-0.2,0.5-0.4,0.8-0.7v-9.4H31.2L31.2,30.4z M40.1,33.3l0,6.9c0,0.9-0.2,1.5-0.6,2c-0.4,0.5-0.9,0.7-1.7,0.7
	c-0.5,0-0.9-0.1-1.3-0.3c-0.4-0.2-0.7-0.5-1.1-0.8v0.9H33V26h2.5v5.4c0.3-0.4,0.7-0.7,1.1-0.9c0.4-0.2,0.8-0.3,1.1-0.3
	c0.8,0,1.4,0.3,1.8,0.8C39.9,31.6,40.1,32.3,40.1,33.3L40.1,33.3z M48.7,33.7L48.7,33.7l0,3.2H44v2.3c0,0.7,0.1,1.1,0.2,1.4
	c0.2,0.3,0.4,0.4,0.8,0.4c0.4,0,0.7-0.1,0.9-0.3c0.2-0.2,0.2-0.7,0.2-1.4v-0.6h2.5v0.6c0,1.3-0.3,2.2-0.9,2.9c-0.6,0.6-1.5,1-2.8,1
	c-1.1,0-2-0.3-2.6-1c-0.6-0.7-1-1.6-1-2.8v-5.6c0-1.1,0.4-2,1.1-2.6c0.7-0.7,1.6-1,2.7-1c1.1,0,2,0.3,2.6,0.9
	C48.4,31.7,48.7,32.5,48.7,33.7L48.7,33.7z M45.9,32.6c0.2,0.2,0.3,0.6,0.3,1.1V35H44v-1.3c0-0.5,0.1-0.9,0.3-1.1
	c0.2-0.2,0.5-0.3,0.8-0.3C45.5,32.2,45.8,32.4,45.9,32.6z M37.3,32.5c0.2,0.2,0.3,0.5,0.3,1v6.4c0,0.4-0.1,0.7-0.2,0.9
	C37.2,40.9,37,41,36.7,41c-0.2,0-0.4,0-0.6-0.1c-0.2-0.1-0.4-0.2-0.6-0.4v-7.7c0.2-0.2,0.3-0.3,0.5-0.4s0.3-0.1,0.5-0.1
	C36.9,32.2,37.1,32.3,37.3,32.5z M20.5,18.5v-7.3L16.8,0h3.2l2,7.4h0.2L24.1,0h3.2l-3.7,10.8v7.7H20.5L20.5,18.5z M31.6,18.9
	c1.3,0,2.3-0.3,3-1c0.7-0.7,1.1-1.6,1.1-2.7V8.1c0-1-0.4-1.9-1.1-2.6c-0.7-0.7-1.7-1-2.8-1c-1.3,0-2.3,0.3-3,0.9
	c-0.7,0.6-1.1,1.5-1.1,2.5v7.1c0,1.2,0.4,2.1,1.1,2.8C29.4,18.5,30.4,18.9,31.6,18.9z M30.4,7.9c0-0.3,0.1-0.5,0.3-0.7
	C31,7,31.2,6.9,31.6,6.9c0.4,0,0.7,0.1,0.9,0.3c0.2,0.2,0.3,0.4,0.3,0.7v7.4c0,0.4-0.1,0.7-0.3,0.9c-0.2,0.2-0.5,0.3-0.9,0.3
	c-0.4,0-0.7-0.1-0.9-0.3c-0.2-0.2-0.3-0.5-0.3-0.9V7.9z M38.4,18.1c-0.3-0.4-0.5-1-0.5-1.8V4.9h2.8v10.5c0,0.3,0.1,0.6,0.2,0.7
	c0.1,0.1,0.3,0.2,0.6,0.2c0.2,0,0.5-0.1,0.8-0.3c0.3-0.2,0.6-0.4,0.9-0.7V4.9h2.8v13.7h-2.8V17c-0.5,0.6-1,1-1.6,1.3
	c-0.6,0.3-1.1,0.4-1.6,0.4C39.2,18.7,38.7,18.5,38.4,18.1z"/>
</svg>
