<svg xmlns="http://www.w3.org/2000/svg" viewBox="0 0 64 48">
<path d="M49.8,47.5c0.4,0.4,0.9,0.6,1.4,0.6c0.6,0,1-0.2,1.4-0.6l2.8-2.8c0.4-0.4,0.6-0.9,0.6-1.4c0-0.6-0.2-1-0.6-1.5L44.7,31.1
	c2.2-3.4,3.3-7,3.3-11c0-2.8-0.5-5.4-1.6-7.8S44,7.7,42.2,5.9c-1.8-1.8-3.9-3.2-6.4-4.3c-2.4-1-5-1.6-7.8-1.6s-5.3,0.5-7.8,1.6
	c-2.4,1-4.6,2.5-6.4,4.3c-1.8,1.8-3.2,3.9-4.3,6.4c-1,2.4-1.6,5-1.6,7.8s0.5,5.4,1.6,7.8c1,2.4,2.5,4.5,4.3,6.3
	c1.8,1.8,3.9,3.2,6.4,4.3s5,1.6,7.8,1.6c4,0,7.6-1.1,11-3.3L49.8,47.5z M16.9,15.4c0.6-1.5,1.5-2.7,2.6-3.8c1.1-1.1,2.4-2,3.8-2.6
	c1.5-0.6,3-1,4.7-1c1.7,0,3.2,0.3,4.7,1c1.5,0.6,2.7,1.5,3.8,2.6c1.1,1.1,1.9,2.4,2.6,3.8s0.9,3,0.9,4.7s-0.3,3.2-0.9,4.7
	s-1.5,2.7-2.6,3.8c-1.1,1.1-2.4,1.9-3.8,2.6c-1.5,0.6-3,0.9-4.7,0.9c-1.7,0-3.2-0.3-4.7-0.9c-1.5-0.6-2.8-1.5-3.8-2.6
	c-1.1-1.1-1.9-2.4-2.6-3.8S16,21.7,16,20S16.3,16.8,16.9,15.4z M20.3,21.7c0.2,0.2,0.4,0.3,0.7,0.3h5v5c0,0.7,0.3,1,1,1h2
	c0.7,0,1-0.3,1-1v-5h5c0.7,0,1-0.3,1-1v-2c0-0.7-0.3-1-1-1h-5v-5c0-0.3-0.1-0.5-0.3-0.7C29.5,12.1,29.3,12,29,12h-2
	c-0.3,0-0.5,0.1-0.7,0.3C26.1,12.5,26,12.7,26,13v5h-5c-0.3,0-0.5,0.1-0.7,0.3C20.1,18.5,20,18.7,20,19v2
	C20,21.3,20.1,21.6,20.3,21.7z"/>
</svg>
