<svg xmlns="http://www.w3.org/2000/svg" viewBox="0 0 64 48">
<path d="M49.8,47.4c0.4,0.4,0.9,0.6,1.4,0.6c0.6,0,1-0.2,1.4-0.6l2.8-2.8c0.4-0.4,0.6-0.9,0.6-1.4s-0.2-1-0.6-1.5L44.7,31
	c2.2-3.4,3.3-7,3.3-11c0-2.8-0.5-5.4-1.6-7.8s-2.5-4.5-4.3-6.4c-1.8-1.8-3.9-3.2-6.4-4.3c-2.4-1-5-1.6-7.8-1.6
	c-2.7,0-5.3,0.5-7.8,1.6c-2.4,1-4.6,2.5-6.4,4.3c-1.8,1.8-3.2,3.9-4.3,6.4c-1,2.4-1.6,5-1.6,7.8s0.5,5.4,1.6,7.8
	c1,2.4,2.5,4.5,4.3,6.3c1.8,1.8,3.9,3.2,6.4,4.3c2.4,1,5,1.6,7.8,1.6c4,0,7.6-1.1,11-3.3L49.8,47.4z M16.9,15.3
	c0.6-1.4,1.5-2.7,2.6-3.8c1.1-1.1,2.4-2,3.8-2.6c1.5-0.6,3-1,4.7-1c1.7,0,3.2,0.3,4.7,1c1.4,0.6,2.7,1.5,3.8,2.6
	c1.1,1.1,1.9,2.4,2.6,3.8c0.6,1.4,0.9,3,0.9,4.7c0,1.7-0.3,3.2-0.9,4.7c-0.6,1.4-1.5,2.7-2.6,3.8c-1.1,1.1-2.4,1.9-3.8,2.6
	c-1.4,0.6-3,0.9-4.7,0.9c-1.7,0-3.2-0.3-4.7-0.9c-1.5-0.6-2.8-1.5-3.8-2.6c-1.1-1.1-1.9-2.4-2.6-3.8c-0.6-1.5-0.9-3-0.9-4.7
	C16,18.4,16.3,16.8,16.9,15.3z M20.3,21.7c0.2,0.2,0.4,0.3,0.7,0.3h14c0.7,0,1-0.3,1-1v-2c0-0.7-0.3-1-1-1H21
	c-0.3,0-0.5,0.1-0.7,0.3C20.1,18.4,20,18.7,20,19v2C20,21.3,20.1,21.5,20.3,21.7z"/>
</svg>
