<?xml version="1.0" encoding="utf-8"?>
<!-- Generator: Adobe Illustrator 16.0.3, SVG Export Plug-In . SVG Version: 6.00 Build 0)  -->
<!DOCTYPE svg PUBLIC "-//W3C//DTD SVG 1.1//EN" "http://www.w3.org/Graphics/SVG/1.1/DTD/svg11.dtd">
<svg version="1.1" id="Layer_1" xmlns="http://www.w3.org/2000/svg" xmlns:xlink="http://www.w3.org/1999/xlink" x="0px" y="0px"
	 width="156.15px" height="156.15px" viewBox="0 0 156.15 156.15" enable-background="new 0 0 156.15 156.15" xml:space="preserve">
<circle fill="#D93C2F" cx="78.075" cy="78.075" r="78.075"/>
<path opacity="0.1" d="M88.698,155.412c37.819-5.148,67.016-37.361,67.431-76.495l-37.813-32.852l-18.141-3.891L83.293,27.542
	l14.076,46.703l-4.443,26.484L26.727,84.288l19.059,16.246v17.625L88.698,155.412z"/>
<path opacity="0.2" d="M116.635,67.445l-2.615-6.214c0,0,6.087-13.725,5.544-14.254l-8.051-7.863
	c-0.563-0.543-14.292,5.722-14.292,5.722l-6.335-2.558c0,0-5.595-13.912-6.363-13.912H73.155c-0.787,0-5.97,13.944-5.97,13.944
	l-6.321,2.563c0,0-14.021-5.956-14.559-5.427l-8.041,7.877c-0.558,0.539,5.843,13.992,5.843,13.992l-2.614,6.204
	c0,0-14.212,5.473-14.212,6.213v11.139c0,0.777,14.244,5.852,14.244,5.852l2.615,6.195c0,0-6.082,13.715-5.548,14.244l8.05,7.882
	c0.544,0.534,14.282-5.73,14.282-5.73l6.34,2.567c0,0,5.595,13.903,6.368,13.903h11.368c0.787,0,5.97-13.945,5.97-13.945
	l6.344-2.567c0,0,13.992,5.96,14.531,5.439l8.05-7.876c0.563-0.549-5.853-13.992-5.853-13.992l2.61-6.204
	c0,0,14.217-5.482,14.217-6.232V73.274C130.875,72.506,116.635,67.445,116.635,67.445z M95.685,79.07
	c0,8.96-7.451,16.255-16.606,16.255c-9.147,0-16.606-7.295-16.606-16.255c0-8.954,7.459-16.241,16.606-16.241
	C88.238,62.834,95.685,70.116,95.685,79.07z"/>
<path fill="#FFFFFF" d="M115.635,66.445l-2.615-6.214c0,0,6.087-13.725,5.544-14.254l-8.051-7.863
	c-0.563-0.543-14.292,5.722-14.292,5.722l-6.335-2.558c0,0-5.595-13.912-6.363-13.912H72.155c-0.787,0-5.97,13.944-5.97,13.944
	l-6.321,2.563c0,0-14.021-5.956-14.559-5.427l-8.041,7.877c-0.558,0.539,5.843,13.992,5.843,13.992l-2.614,6.204
	c0,0-14.212,5.473-14.212,6.213v11.139c0,0.777,14.244,5.852,14.244,5.852l2.615,6.195c0,0-6.082,13.715-5.548,14.244l8.05,7.882
	c0.544,0.534,14.282-5.73,14.282-5.73l6.34,2.567c0,0,5.595,13.903,6.368,13.903h11.368c0.787,0,5.97-13.945,5.97-13.945
	l6.344-2.567c0,0,13.992,5.96,14.531,5.439l8.05-7.876c0.563-0.549-5.853-13.992-5.853-13.992l2.61-6.204
	c0,0,14.217-5.482,14.217-6.232V72.274C129.875,71.506,115.635,66.445,115.635,66.445z M94.685,78.07
	c0,8.96-7.451,16.255-16.606,16.255c-9.147,0-16.606-7.295-16.606-16.255c0-8.954,7.459-16.241,16.606-16.241
	C87.238,61.834,94.685,69.116,94.685,78.07z"/>
</svg>
