<?xml version="1.0" encoding="utf-8"?>
<!-- Generator: Adobe Illustrator 16.0.3, SVG Export Plug-In . SVG Version: 6.00 Build 0)  -->
<!DOCTYPE svg PUBLIC "-//W3C//DTD SVG 1.1//EN" "http://www.w3.org/Graphics/SVG/1.1/DTD/svg11.dtd">
<svg version="1.1" id="Layer_1" xmlns="http://www.w3.org/2000/svg" xmlns:xlink="http://www.w3.org/1999/xlink" x="0px" y="0px"
	 width="156.15px" height="156.15px" viewBox="0 0 156.15 156.15" enable-background="new 0 0 156.15 156.15" xml:space="preserve">
<circle fill="#D93C2F" cx="78.075" cy="78.075" r="78.075"/>
<path opacity="0.1" d="M37.886,121.366l40.689,34.771c42.164-0.266,76.376-33.949,77.521-75.9L98.444,31.353l-19.774-3.09
	L61.162,34.03l-3.708,35.429l37.9,9.681l-7.621,33.576L37.886,121.366z"/>
<path opacity="0.2" d="M51.943,51.257v14.874h-6.375c-4.695,0-8.5,3.804-8.5,8.5v42.5c0,4.695,3.805,8.498,8.5,8.498h67.997
	c4.696,0,8.501-3.803,8.501-8.498v-42.5c0-4.696-3.805-8.5-8.501-8.5h-6.374V51.257c0-15.257-12.367-27.624-27.624-27.624
	C64.312,23.633,51.943,36,51.943,51.257z M62.568,66.131V51.257c0-9.393,7.606-17,16.999-17s16.999,7.607,16.999,17v14.874H62.568z
	 M71.067,89.505c0-4.695,3.804-8.498,8.5-8.498c4.695,0,8.499,3.803,8.499,8.498c0,2.997-1.552,5.633-3.888,7.141
	c0,0,0.83,5.016,1.765,10.922c0,1.763-1.425,3.187-3.188,3.187H76.38c-1.765,0-3.188-1.424-3.188-3.187l1.764-10.922
	C72.619,95.138,71.067,92.501,71.067,89.505z"/>
<path fill="#FFFFFF" d="M50.451,49.765v14.874h-6.374c-4.696,0-8.5,3.803-8.5,8.5v42.499c0,4.695,3.804,8.499,8.5,8.499h67.997
	c4.695,0,8.5-3.804,8.5-8.499V73.139c0-4.697-3.805-8.5-8.5-8.5H105.7V49.765c0-15.256-12.368-27.624-27.625-27.624
	C62.82,22.141,50.451,34.509,50.451,49.765z M61.076,64.639V49.765c0-9.392,7.606-17,16.999-17s17,7.608,17,17v14.874H61.076z
	 M69.576,88.015c0-4.697,3.804-8.501,8.499-8.501c4.696,0,8.5,3.804,8.5,8.501c0,2.996-1.552,5.631-3.889,7.139
	c0,0,0.831,5.016,1.764,10.922c0,1.764-1.424,3.188-3.188,3.188h-6.375c-1.764,0-3.187-1.424-3.187-3.188l1.763-10.922
	C71.128,93.646,69.576,91.01,69.576,88.015z"/>
</svg>
