<?xml version="1.0" encoding="utf-8"?>
<!-- Generator: Adobe Illustrator 16.0.3, SVG Export Plug-In . SVG Version: 6.00 Build 0)  -->
<!DOCTYPE svg PUBLIC "-//W3C//DTD SVG 1.1//EN" "http://www.w3.org/Graphics/SVG/1.1/DTD/svg11.dtd">
<svg version="1.1" id="Layer_1" xmlns="http://www.w3.org/2000/svg" xmlns:xlink="http://www.w3.org/1999/xlink" x="0px" y="0px"
	 width="156.15px" height="156.15px" viewBox="0 0 156.15 156.15" enable-background="new 0 0 156.15 156.15" xml:space="preserve">
<circle fill="#D93C2F" cx="78.075" cy="78.075" r="78.075"/>
<path opacity="0.1" d="M155.026,64.928l-25.251-21.171l-12.879,45.049l-5,3l-13.5,10l-13,2.5l-20,0.5l-22.119,8.33l49.226,41.662
	c36.223-6.771,63.646-38.535,63.646-76.723C156.15,73.592,155.752,69.205,155.026,64.928z"/>
<path opacity="0.2" d="M126.531,40.871c-12.839-4.44-31.693-5.617-46.965-5.617c-15.271,0-34.125,1.177-46.964,5.617
	c-2.46,0.882-4.252,3.262-4.252,6.043l0.026,0.456c1.096,29.819,6.26,56.884,8.854,59.505c5.937,7.864,24.872,20.485,35.115,27.171
	c2.434,1.58,4.761,2.784,7.221,2.837c2.46-0.053,4.787-1.257,7.223-2.837c10.24-6.686,29.176-19.307,35.114-27.171
	c2.593-2.621,7.757-29.686,8.851-59.505l0.031-0.456C130.785,44.134,128.992,41.753,126.531,40.871z M56.374,75.673l-13.755,7.19
	v-3.057c0-0.231,0.058-0.442,0.174-0.634s0.307-0.356,0.573-0.495l6.304-3.248c0.509-0.254,1.105-0.463,1.789-0.625
	c-0.336-0.081-0.651-0.17-0.947-0.269c-0.295-0.098-0.576-0.217-0.842-0.356l-6.304-3.23c-0.267-0.139-0.458-0.304-0.573-0.495
	s-0.174-0.402-0.174-0.634v-3.056l13.755,7.172V75.673z M70.388,91.616H56.703v-2.779h13.686V91.616z M83.952,83.237
	c-0.313,0.723-0.771,1.348-1.372,1.875s-1.346,0.938-2.232,1.232c-0.885,0.296-1.901,0.443-3.047,0.443
	c-0.614,0-1.213-0.055-1.798-0.165c-0.585-0.11-1.146-0.263-1.685-0.46s-1.036-0.428-1.494-0.695
	c-0.458-0.266-0.859-0.555-1.208-0.867l0.99-1.633c0.127-0.197,0.278-0.348,0.452-0.451c0.173-0.105,0.393-0.156,0.66-0.156
	c0.266,0,0.518,0.074,0.755,0.225c0.238,0.151,0.513,0.313,0.826,0.486c0.313,0.174,0.68,0.336,1.103,0.486
	c0.422,0.151,0.958,0.226,1.606,0.226c0.509,0,0.947-0.061,1.312-0.183c0.364-0.121,0.666-0.279,0.902-0.477
	c0.238-0.197,0.412-0.426,0.521-0.686c0.109-0.262,0.165-0.531,0.165-0.809c0-0.416-0.124-0.758-0.374-1.023
	c-0.248-0.268-0.578-0.498-0.989-0.695s-0.88-0.373-1.407-0.529s-1.065-0.328-1.615-0.514c-0.55-0.185-1.088-0.401-1.615-0.65
	s-0.996-0.565-1.406-0.947c-0.412-0.382-0.741-0.851-0.99-1.407c-0.25-0.556-0.374-1.227-0.374-2.015
	c0-0.729,0.145-1.423,0.435-2.083c0.289-0.66,0.715-1.236,1.276-1.728s1.263-0.886,2.102-1.181c0.84-0.295,1.809-0.443,2.909-0.443
	c1.227,0,2.345,0.203,3.351,0.608c1.008,0.405,1.848,0.938,2.52,1.598l-0.973,1.545c-0.116,0.186-0.238,0.316-0.364,0.391
	c-0.128,0.075-0.29,0.113-0.487,0.113c-0.208,0-0.432-0.058-0.668-0.173c-0.238-0.116-0.513-0.246-0.826-0.391
	c-0.312-0.145-0.668-0.275-1.067-0.391c-0.399-0.115-0.871-0.174-1.415-0.174c-0.846,0-1.511,0.18-1.998,0.539
	s-0.729,0.828-0.729,1.407c0,0.382,0.125,0.704,0.374,0.964c0.249,0.261,0.579,0.489,0.99,0.686
	c0.411,0.197,0.877,0.374,1.398,0.529c0.521,0.157,1.053,0.328,1.598,0.513c0.543,0.185,1.076,0.396,1.598,0.633
	c0.521,0.238,0.986,0.538,1.398,0.904c0.41,0.364,0.74,0.802,0.988,1.31c0.25,0.51,0.374,1.123,0.374,1.842
	C84.421,81.724,84.265,82.513,83.952,83.237z M99.131,83.237c-0.313,0.723-0.77,1.348-1.371,1.875
	c-0.603,0.527-1.346,0.938-2.231,1.232c-0.886,0.296-1.902,0.443-3.048,0.443c-0.614,0-1.213-0.055-1.799-0.165
	c-0.584-0.11-1.146-0.263-1.684-0.46c-0.539-0.197-1.037-0.428-1.494-0.695c-0.457-0.266-0.859-0.555-1.207-0.867l0.99-1.633
	c0.127-0.197,0.278-0.348,0.451-0.451c0.174-0.105,0.395-0.156,0.66-0.156c0.267,0,0.518,0.074,0.756,0.225
	c0.236,0.151,0.512,0.313,0.824,0.486c0.313,0.174,0.681,0.336,1.104,0.486c0.422,0.151,0.957,0.226,1.606,0.226
	c0.509,0,0.946-0.061,1.312-0.183c0.365-0.121,0.666-0.279,0.902-0.477c0.238-0.197,0.411-0.426,0.521-0.686
	c0.109-0.262,0.165-0.531,0.165-0.809c0-0.416-0.124-0.758-0.374-1.023c-0.248-0.268-0.578-0.498-0.99-0.695
	c-0.41-0.197-0.879-0.373-1.406-0.529s-1.064-0.328-1.615-0.514c-0.549-0.185-1.088-0.401-1.615-0.65s-0.996-0.565-1.406-0.947
	c-0.412-0.382-0.741-0.851-0.99-1.407c-0.249-0.556-0.373-1.227-0.373-2.015c0-0.729,0.145-1.423,0.434-2.083
	c0.29-0.66,0.715-1.236,1.277-1.728c0.561-0.492,1.262-0.886,2.102-1.181c0.839-0.295,1.809-0.443,2.908-0.443
	c1.228,0,2.345,0.203,3.353,0.608c1.007,0.405,1.847,0.938,2.519,1.598l-0.973,1.545c-0.117,0.186-0.238,0.316-0.365,0.391
	s-0.289,0.113-0.486,0.113c-0.209,0-0.432-0.058-0.668-0.173c-0.238-0.116-0.514-0.246-0.826-0.391
	c-0.313-0.145-0.668-0.275-1.067-0.391c-0.399-0.115-0.872-0.174-1.415-0.174c-0.846,0-1.512,0.18-1.998,0.539
	s-0.729,0.828-0.729,1.407c0,0.382,0.124,0.704,0.374,0.964c0.248,0.261,0.578,0.489,0.99,0.686c0.41,0.197,0.877,0.374,1.396,0.529
	c0.521,0.157,1.055,0.328,1.599,0.513c0.544,0.185,1.077,0.396,1.599,0.633c0.52,0.238,0.986,0.538,1.397,0.904
	c0.411,0.364,0.741,0.802,0.99,1.31c0.249,0.51,0.373,1.123,0.373,1.842C99.601,81.724,99.444,82.513,99.131,83.237z
	 M118.565,86.511h-4.289V75.169c0-1.088-0.253-1.931-0.756-2.527s-1.259-0.895-2.267-0.895c-0.741,0-1.436,0.168-2.084,0.503
	c-0.648,0.336-1.262,0.794-1.841,1.373v12.887h-4.29V60.702h4.29v9.917c0.694-0.66,1.459-1.193,2.293-1.598
	c0.833-0.405,1.812-0.608,2.935-0.608c0.973,0,1.836,0.165,2.588,0.495c0.753,0.33,1.381,0.793,1.885,1.389
	c0.503,0.596,0.885,1.308,1.146,2.136s0.391,1.74,0.391,2.735V86.511z"/>
<path fill="#FFFFFF" d="M125.039,39.379c-12.839-4.44-31.693-5.617-46.964-5.617s-34.125,1.177-46.964,5.617
	c-2.461,0.882-4.252,3.263-4.252,6.043l0.026,0.456c1.097,29.819,6.261,56.884,8.854,59.505
	c5.937,7.864,24.872,20.486,35.115,27.171c2.434,1.581,4.761,2.784,7.222,2.837c2.459-0.053,4.787-1.256,7.222-2.837
	c10.24-6.685,29.176-19.307,35.114-27.171c2.594-2.621,7.757-29.686,8.851-59.505l0.031-0.456
	C129.293,42.642,127.501,40.262,125.039,39.379z M54.881,74.181l-13.755,7.191v-3.057c0-0.231,0.058-0.443,0.174-0.634
	c0.116-0.191,0.306-0.356,0.573-0.495l6.304-3.247c0.509-0.255,1.106-0.463,1.789-0.626c-0.336-0.081-0.651-0.17-0.946-0.269
	c-0.295-0.098-0.576-0.217-0.843-0.356l-6.304-3.23c-0.267-0.139-0.458-0.304-0.573-0.495c-0.116-0.19-0.174-0.402-0.174-0.634
	v-3.057l13.755,7.173V74.181z M68.897,90.124H55.21v-2.778h13.687V90.124z M82.461,81.745c-0.313,0.723-0.771,1.348-1.372,1.875
	c-0.603,0.527-1.347,0.938-2.232,1.233c-0.886,0.296-1.902,0.442-3.048,0.442c-0.614,0-1.213-0.055-1.797-0.164
	c-0.585-0.11-1.146-0.264-1.685-0.461c-0.538-0.196-1.036-0.428-1.493-0.694c-0.458-0.267-0.86-0.556-1.208-0.868l0.99-1.633
	c0.127-0.197,0.278-0.348,0.452-0.451c0.173-0.104,0.394-0.156,0.66-0.156c0.266,0,0.518,0.075,0.755,0.226
	c0.237,0.15,0.512,0.313,0.825,0.486c0.313,0.173,0.68,0.336,1.103,0.486s0.958,0.226,1.607,0.226c0.51,0,0.946-0.061,1.311-0.182
	c0.365-0.122,0.666-0.281,0.904-0.479c0.237-0.197,0.411-0.426,0.521-0.686c0.11-0.262,0.165-0.529,0.165-0.809
	c0-0.416-0.125-0.758-0.375-1.023c-0.249-0.268-0.579-0.498-0.989-0.696c-0.411-0.196-0.88-0.373-1.407-0.529
	c-0.527-0.156-1.065-0.327-1.615-0.512c-0.549-0.186-1.088-0.402-1.615-0.651c-0.527-0.249-0.995-0.565-1.406-0.947
	c-0.411-0.382-0.741-0.851-0.99-1.406c-0.249-0.556-0.373-1.228-0.373-2.015c0-0.729,0.145-1.424,0.434-2.084
	c0.29-0.66,0.715-1.236,1.277-1.728c0.561-0.493,1.262-0.886,2.101-1.181c0.84-0.295,1.809-0.443,2.909-0.443
	c1.228,0,2.345,0.203,3.352,0.607c1.008,0.405,1.847,0.938,2.519,1.598l-0.973,1.545c-0.115,0.186-0.238,0.315-0.364,0.391
	c-0.128,0.075-0.29,0.113-0.487,0.113c-0.208,0-0.431-0.058-0.668-0.174c-0.237-0.116-0.513-0.246-0.825-0.391
	c-0.313-0.144-0.668-0.275-1.068-0.391c-0.399-0.116-0.871-0.174-1.415-0.174c-0.846,0-1.511,0.18-1.998,0.539
	c-0.487,0.359-0.729,0.827-0.729,1.406c0,0.382,0.124,0.704,0.374,0.964c0.249,0.26,0.579,0.489,0.99,0.686
	c0.411,0.197,0.877,0.374,1.398,0.529c0.521,0.156,1.053,0.327,1.598,0.513c0.543,0.185,1.077,0.396,1.598,0.634
	s0.986,0.538,1.398,0.903c0.41,0.364,0.74,0.802,0.989,1.311c0.249,0.51,0.374,1.123,0.374,1.841
	C82.93,80.231,82.773,81.021,82.461,81.745z M97.64,81.745c-0.313,0.723-0.77,1.348-1.372,1.875
	c-0.602,0.527-1.346,0.938-2.231,1.233s-1.901,0.442-3.048,0.442c-0.614,0-1.213-0.055-1.798-0.164
	c-0.585-0.11-1.146-0.264-1.685-0.461c-0.539-0.196-1.037-0.428-1.494-0.694s-0.859-0.556-1.207-0.868l0.99-1.633
	c0.127-0.197,0.278-0.348,0.451-0.451c0.174-0.104,0.395-0.156,0.66-0.156c0.267,0,0.519,0.075,0.756,0.226
	c0.236,0.15,0.512,0.313,0.825,0.486c0.313,0.173,0.68,0.336,1.103,0.486s0.958,0.226,1.607,0.226c0.508,0,0.945-0.061,1.311-0.182
	c0.365-0.122,0.666-0.281,0.902-0.479c0.238-0.197,0.412-0.426,0.521-0.686c0.109-0.262,0.165-0.529,0.165-0.809
	c0-0.416-0.124-0.758-0.373-1.023c-0.249-0.268-0.579-0.498-0.99-0.696c-0.411-0.196-0.88-0.373-1.407-0.529
	c-0.527-0.156-1.064-0.327-1.614-0.512c-0.55-0.186-1.089-0.402-1.615-0.651c-0.527-0.249-0.996-0.565-1.407-0.947
	c-0.411-0.382-0.741-0.851-0.99-1.406c-0.248-0.556-0.373-1.228-0.373-2.015c0-0.729,0.145-1.424,0.435-2.084
	c0.289-0.66,0.714-1.236,1.276-1.728c0.562-0.493,1.262-0.886,2.102-1.181c0.839-0.295,1.809-0.443,2.909-0.443
	c1.228,0,2.345,0.203,3.352,0.607c1.007,0.405,1.847,0.938,2.519,1.598l-0.973,1.545c-0.116,0.186-0.237,0.315-0.365,0.391
	c-0.127,0.075-0.289,0.113-0.486,0.113c-0.209,0-0.432-0.058-0.668-0.174c-0.238-0.116-0.512-0.246-0.825-0.391
	c-0.313-0.144-0.669-0.275-1.067-0.391c-0.4-0.116-0.873-0.174-1.416-0.174c-0.846,0-1.512,0.18-1.998,0.539
	s-0.729,0.827-0.729,1.406c0,0.382,0.123,0.704,0.373,0.964c0.249,0.26,0.578,0.489,0.99,0.686c0.41,0.197,0.877,0.374,1.397,0.529
	c0.521,0.156,1.054,0.327,1.599,0.513c0.543,0.185,1.076,0.396,1.598,0.634c0.521,0.237,0.986,0.538,1.397,0.903
	c0.411,0.364,0.741,0.802,0.99,1.311c0.249,0.51,0.373,1.123,0.373,1.841C98.108,80.231,97.953,81.021,97.64,81.745z
	 M117.074,85.019h-4.29V73.677c0-1.087-0.252-1.93-0.755-2.526c-0.504-0.596-1.26-0.895-2.268-0.895
	c-0.74,0-1.436,0.168-2.084,0.504c-0.648,0.336-1.262,0.793-1.841,1.373v12.886h-4.29V59.21h4.29v9.917
	c0.694-0.66,1.46-1.193,2.293-1.598c0.833-0.405,1.812-0.607,2.935-0.607c0.973,0,1.836,0.165,2.588,0.495
	c0.753,0.33,1.381,0.793,1.885,1.39s0.886,1.309,1.146,2.136c0.26,0.828,0.391,1.739,0.391,2.735V85.019z"/>
</svg>
