<svg enable-background="new 0 0 58 58" viewBox="0 0 58 58" xmlns="http://www.w3.org/2000/svg"><path fill="#9777a8" d="m6.5 41v15c0 1.009 1.22 2 2.463 2h40.074c1.243 0 2.463-.991 2.463-2v-15zm16.217 4.168h-4.635v3.172h4.211v1.121h-4.211v3.295h4.635v1.244h-6.303v-10.076h6.303zm9.42 8.832h-1.9l-1.6-3.801h-.137l-1.723 3.801h-1.9l2.557-4.895-2.721-5.182h1.873l1.777 4.102h.137l1.928-4.102h1.873l-2.721 5.182zm8.763-8.832h-4.635v3.172h4.211v1.121h-4.211v3.295h4.635v1.244h-6.303v-10.076h6.303z"/><path fill="#c8bdb8" d="m51.5 39v-25.022c0-.766-.092-1.333-.55-1.792l-11.637-11.636c-.349-.349-.833-.55-1.328-.55h-29.022c-1.186 0-2.463.916-2.463 2.926v36.074zm-14-35.609c0-.458.553-.687.877-.363l10.095 10.095c.324.324.095.877-.363.877h-10.609zm-3.955 29.311 5-16c.165-.527.726-.82 1.253-.656.527.165.821.726.656 1.253l-5 16c-.133.427-.528.701-.954.701-.099 0-.2-.015-.299-.046-.526-.164-.82-.725-.656-1.252zm-3.545-12.702c.828 0 1.5.672 1.5 1.5s-.672 1.5-1.5 1.5-1.5-.672-1.5-1.5.672-1.5 1.5-1.5zm0 7c.828 0 1.5.672 1.5 1.5s-.672 1.5-1.5 1.5-1.5-.672-1.5-1.5.672-1.5 1.5-1.5zm-7.5-9h2c.552 0 1 .448 1 1s-.448 1-1 1h-2c-2.757 0-5 2.243-5 5s2.243 5 5 5h2c.552 0 1 .448 1 1s-.448 1-1 1h-2c-3.86 0-7-3.14-7-7s3.14-7 7-7z"/></svg>