<svg enable-background="new 0 0 58 58" viewBox="0 0 58 58" xmlns="http://www.w3.org/2000/svg"><path fill="#c8bdb8" d="m51.5 39v-25.022c0-.766-.092-1.333-.55-1.792l-11.637-11.636c-.349-.349-.833-.55-1.328-.55h-29.022c-1.186 0-2.463.916-2.463 2.926v36.074zm-22-6c0 .552-.447 1-1 1s-1-.448-1-1v-3c0-.552.447-1 1-1s1 .448 1 1zm8-29.609c0-.458.553-.687.877-.363l10.095 10.095c.324.324.095.877-.363.877h-10.609zm-1 20.609v-4c0-.551-.448-1-1-1-.553 0-1-.448-1-1s.447-1 1-1c1.654 0 3 1.346 3 3v4c0 1.103.897 2 2 2 .553 0 1 .448 1 1s-.447 1-1 1c-1.103 0-2 .897-2 2v4c0 1.654-1.346 3-3 3-.553 0-1-.448-1-1s.447-1 1-1c.552 0 1-.449 1-1v-4c0-1.2.542-2.266 1.382-3-.84-.734-1.382-1.8-1.382-3zm-8-2c.828 0 1.5.672 1.5 1.5s-.672 1.5-1.5 1.5-1.5-.672-1.5-1.5.672-1.5 1.5-1.5zm-12 4c1.103 0 2-.897 2-2v-4c0-1.654 1.346-3 3-3 .553 0 1 .448 1 1s-.447 1-1 1c-.552 0-1 .449-1 1v4c0 1.2-.542 2.266-1.382 3 .84.734 1.382 1.8 1.382 3v4c0 .551.448 1 1 1 .553 0 1 .448 1 1s-.447 1-1 1c-1.654 0-3-1.346-3-3v-4c0-1.103-.897-2-2-2-.553 0-1-.448-1-1s.447-1 1-1z"/><g fill="#9777a8"><path d="m33.655 45.988c-.232-.31-.497-.533-.793-.67s-.608-.205-.937-.205c-.337 0-.658.063-.964.191s-.579.344-.82.649-.431.699-.567 1.183c-.137.483-.21 1.075-.219 1.777.009.684.08 1.267.212 1.75s.314.877.547 1.183.497.528.793.67.608.212.937.212c.337 0 .658-.066.964-.198s.579-.349.82-.649.431-.695.567-1.183.21-1.082.219-1.784c-.009-.684-.08-1.265-.212-1.743s-.314-.873-.547-1.183z"/><path d="m6.5 41v15c0 1.009 1.22 2 2.463 2h40.074c1.243 0 2.463-.991 2.463-2v-15zm11.521 10.566c0 .474-.087.873-.26 1.196s-.405.583-.697.779-.627.333-1.005.41-.768.116-1.169.116c-.2 0-.436-.021-.704-.062s-.547-.104-.834-.191-.563-.185-.827-.294-.487-.232-.67-.369l.697-1.107c.091.063.221.13.39.198s.354.132.554.191.41.111.629.157.424.068.615.068c.483 0 .868-.094 1.155-.28s.439-.504.458-.95v-7.711h1.668zm7.937.732c-.15.342-.362.643-.636.902s-.61.467-1.012.622-.856.232-1.367.232c-.219 0-.444-.012-.677-.034s-.467-.062-.704-.116c-.237-.055-.463-.13-.677-.226s-.398-.212-.554-.349l.287-1.176c.128.073.289.144.485.212s.398.132.608.191.419.107.629.144.405.055.588.055c.556 0 .982-.13 1.278-.39s.444-.645.444-1.155c0-.31-.104-.574-.314-.793s-.472-.417-.786-.595-.654-.355-1.019-.533-.706-.388-1.025-.629-.583-.526-.793-.854-.314-.738-.314-1.23c0-.446.082-.843.246-1.189s.385-.641.663-.882.602-.426.971-.554.759-.191 1.169-.191c.419 0 .843.039 1.271.116s.774.203 1.039.376c-.055.118-.118.248-.191.39s-.142.273-.205.396-.118.226-.164.308-.073.128-.082.137c-.055-.027-.116-.063-.185-.109s-.166-.091-.294-.137-.296-.077-.506-.096-.479-.014-.807.014c-.183.019-.355.07-.52.157s-.31.193-.438.321-.228.271-.301.431-.109.313-.109.458c0 .364.104.658.314.882s.47.419.779.588.647.333 1.012.492.704.354 1.019.581.576.513.786.854.314.781.314 1.319c.004.365-.072.718-.222 1.06zm9.803-1.142c-.214.647-.511 1.185-.889 1.613s-.82.752-1.326.971-1.06.328-1.661.328-1.155-.109-1.661-.328-.948-.542-1.326-.971-.675-.966-.889-1.613-.321-1.395-.321-2.242.107-1.593.321-2.235.511-1.178.889-1.606.82-.754 1.326-.978 1.06-.335 1.661-.335 1.155.111 1.661.335.948.549 1.326.978.675.964.889 1.606.321 1.388.321 2.235-.107 1.595-.321 2.242zm9.919 2.844h-1.668l-3.951-6.945v6.945h-1.668v-10.076h1.668l3.951 6.945v-6.945h1.668z"/></g></svg>