<svg enable-background="new 0 0 58 58" viewBox="0 0 58 58" xmlns="http://www.w3.org/2000/svg"><g fill="#c8bdb8"><path d="m14.5 19h8v2h-8z"/><path d="m14.5 27h8v2h-8z"/><path d="m14.5 23h8v2h-8z"/><path d="m14.5 15h8v2h-8z"/><path d="m24.5 19h19v2h-19z"/><path d="m24.5 27h19v2h-19z"/><path d="m24.5 23h19v2h-19z"/><path d="m14.5 31h8v2h-8z"/><path d="m51.5 39v-25.022c0-.766-.092-1.333-.55-1.792l-11.637-11.636c-.349-.349-.833-.55-1.328-.55h-29.022c-1.186 0-2.463.916-2.463 2.926v36.074zm-14-35.609c0-.458.553-.687.877-.363l10.095 10.095c.324.324.095.877-.363.877h-10.609zm-25 27.609v-2-2-2-2-2-2-2-4h12v4h21v4 2 2 2 2 2 4h-21-2-10z"/><path d="m24.5 31h19v2h-19z"/></g><path fill="#f36fa0" d="m6.5 41v15c0 1.009 1.22 2 2.463 2h40.074c1.243 0 2.463-.991 2.463-2v-15zm10.96 9.664c.132.483.314.877.547 1.183s.497.528.793.67.608.212.937.212.636-.06.923-.178.549-.31.786-.574l1.135.998c-.374.364-.798.638-1.271.82-.474.183-.984.273-1.531.273-.602 0-1.155-.109-1.661-.328s-.948-.542-1.326-.971-.675-.966-.889-1.613-.321-1.395-.321-2.242.107-1.593.321-2.235c.214-.643.51-1.178.889-1.606.378-.429.822-.754 1.333-.978.51-.224 1.062-.335 1.654-.335.547 0 1.057.091 1.531.273.474.183.897.456 1.271.82l-1.135 1.012c-.228-.265-.481-.456-.759-.574s-.567-.178-.868-.178c-.337 0-.659.063-.964.191-.306.128-.579.344-.82.649-.242.306-.431.699-.567 1.183s-.21 1.075-.219 1.777c.008.685.079 1.268.211 1.751zm12.947 1.634c-.15.342-.362.643-.636.902s-.611.467-1.012.622-.857.232-1.367.232c-.219 0-.444-.012-.677-.034s-.467-.062-.704-.116c-.237-.055-.463-.13-.677-.226s-.399-.212-.554-.349l.287-1.176c.127.073.289.144.485.212s.398.132.608.191c.209.06.419.107.629.144.209.036.405.055.588.055.556 0 .982-.13 1.278-.39s.444-.645.444-1.155c0-.31-.105-.574-.314-.793-.21-.219-.472-.417-.786-.595s-.654-.355-1.019-.533-.707-.388-1.025-.629c-.319-.241-.583-.526-.793-.854s-.314-.738-.314-1.23c0-.446.082-.843.246-1.189s.385-.641.663-.882.602-.426.971-.554.759-.191 1.169-.191c.419 0 .843.039 1.271.116s.774.203 1.039.376c-.055.118-.119.248-.191.39-.073.142-.142.273-.205.396-.064.123-.119.226-.164.308-.046.082-.073.128-.082.137-.055-.027-.116-.063-.185-.109s-.167-.091-.294-.137c-.128-.046-.296-.077-.506-.096s-.479-.014-.807.014c-.183.019-.355.07-.52.157s-.31.193-.438.321-.228.271-.301.431c-.073.159-.109.313-.109.458 0 .364.104.658.314.882.209.224.469.419.779.588s.647.333 1.012.492c.364.159.704.354 1.019.581s.576.513.786.854c.209.342.314.781.314 1.319.004.365-.071.718-.222 1.06zm6.761 1.757h-2.133l-3.131-10.131h1.873l2.338 8.695 2.475-8.695h1.859z"/></svg>