<svg enable-background="new 0 0 58 58" viewBox="0 0 58 58" xmlns="http://www.w3.org/2000/svg"><g fill="#8697cb"><path d="m22.046 46.282c-.287-.333-.677-.602-1.169-.807s-1.13-.308-1.914-.308h-.957v7.629h1.627c1.112 0 1.914-.355 2.406-1.066s.738-1.741.738-3.09c0-.419-.05-.834-.15-1.244-.101-.41-.294-.781-.581-1.114z"/><path d="m6.5 41v15c0 1.009 1.22 2 2.463 2h40.074c1.243 0 2.463-.991 2.463-2v-15zm17.733 9.808c-.178.588-.403 1.08-.677 1.477s-.581.709-.923.937-.672.398-.991.513c-.319.114-.611.187-.875.219-.264.03-.46.046-.587.046h-3.814v-10.076h3.034c.848 0 1.593.135 2.235.403s1.176.627 1.6 1.073.74.955.95 1.524c.209.569.314 1.155.314 1.757.001.83-.088 1.539-.266 2.127zm9.92.348c-.214.647-.511 1.185-.889 1.613-.378.429-.82.752-1.326.971s-1.06.328-1.661.328-1.155-.109-1.661-.328-.948-.542-1.326-.971-.675-.966-.889-1.613-.321-1.395-.321-2.242.107-1.593.321-2.235c.214-.643.51-1.178.889-1.606.378-.429.82-.754 1.326-.978s1.06-.335 1.661-.335 1.155.111 1.661.335.948.549 1.326.978.674.964.889 1.606c.214.643.321 1.388.321 2.235s-.107 1.595-.321 2.242zm4.334-.492c.132.483.314.877.547 1.183s.497.528.793.67.608.212.937.212.636-.06.923-.178.549-.31.786-.574l1.135.998c-.374.364-.798.638-1.271.82-.474.183-.984.273-1.531.273-.602 0-1.155-.109-1.661-.328s-.948-.542-1.326-.971-.675-.966-.889-1.613-.321-1.395-.321-2.242.107-1.593.321-2.235c.214-.643.51-1.178.889-1.606.378-.429.822-.754 1.333-.978.51-.224 1.062-.335 1.654-.335.547 0 1.057.091 1.531.273.474.183.897.456 1.271.82l-1.135 1.012c-.228-.265-.481-.456-.759-.574s-.567-.178-.868-.178c-.337 0-.659.063-.964.191-.306.128-.579.344-.82.649-.242.306-.431.699-.567 1.183s-.21 1.075-.219 1.777c.008.685.079 1.268.211 1.751z"/><path d="m32.048 45.988c-.232-.31-.497-.533-.793-.67s-.608-.205-.937-.205c-.337 0-.659.063-.964.191-.306.128-.579.344-.82.649-.242.306-.431.699-.567 1.183s-.21 1.075-.219 1.777c.009.684.08 1.267.212 1.75s.314.877.547 1.183.497.528.793.67.608.212.937.212c.337 0 .658-.066.964-.198.305-.132.579-.349.82-.649.241-.301.431-.695.567-1.183s.209-1.082.219-1.784c-.009-.684-.08-1.265-.212-1.743-.133-.479-.315-.873-.547-1.183z"/></g><path fill="#c8bdb8" d="m51.5 39v-25.022c0-.766-.092-1.333-.55-1.792l-11.637-11.636c-.349-.349-.833-.55-1.328-.55h-29.022c-1.186 0-2.463.916-2.463 2.926v36.074zm-26-5h-8c-.552 0-1-.448-1-1s.448-1 1-1h8c.552 0 1 .448 1 1s-.448 1-1 1zm6-5h-10c-.552 0-1-.448-1-1s.448-1 1-1h10c.552 0 1 .448 1 1s-.448 1-1 1zm13 0h-9c-.552 0-1-.448-1-1s.448-1 1-1h9c.552 0 1 .448 1 1s-.448 1-1 1zm0-5h-6c-.552 0-1-.448-1-1s.448-1 1-1h6c.552 0 1 .448 1 1s-.448 1-1 1zm0-5h-2c-.552 0-1-.448-1-1s.448-1 1-1h2c.552 0 1 .448 1 1s-.448 1-1 1zm-7-15.609c0-.458.553-.687.877-.363l10.095 10.095c.324.324.095.877-.363.877h-10.609zm-7 13.609h8c.552 0 1 .448 1 1s-.448 1-1 1h-8c-.552 0-1-.448-1-1s.448-1 1-1zm-4.71.29c.37-.37 1.05-.37 1.42 0 .18.19.29.45.29.71s-.11.52-.29.71c-.19.18-.45.29-.71.29s-.52-.11-.71-.29c-.18-.19-.29-.45-.29-.71s.11-.52.29-.71zm-12.29-5.29h6c.552 0 1 .448 1 1s-.448 1-1 1h-6c-.552 0-1-.448-1-1s.448-1 1-1zm0 5h9c.552 0 1 .448 1 1s-.448 1-1 1h-9c-.552 0-1-.448-1-1s.448-1 1-1zm0 5h22c.552 0 1 .448 1 1s-.448 1-1 1h-22c-.552 0-1-.448-1-1s.448-1 1-1zm0 5h4c.552 0 1 .448 1 1s-.448 1-1 1h-4c-.552 0-1-.448-1-1s.448-1 1-1zm-.71 5.29c.37-.37 1.05-.37 1.42 0 .18.19.29.44.29.71 0 .26-.11.52-.29.71-.19.18-.45.29-.71.29s-.52-.11-.71-.29c-.18-.19-.29-.45-.29-.71s.11-.52.29-.71z"/></svg>