<svg enable-background="new 0 0 58 58" viewBox="0 0 58 58" xmlns="http://www.w3.org/2000/svg"><path fill="#c8bdb8" d="m51.5 39v-25.022c0-.766-.092-1.333-.55-1.792l-11.637-11.636c-.349-.349-.833-.55-1.328-.55h-29.022c-1.186 0-2.463.916-2.463 2.926v36.074zm-14-35.609c0-.458.553-.687.877-.363l10.095 10.095c.324.324.095.877-.363.877h-10.609zm-26 9.609h17v12h2v-4h4v-6h2v6h4v4h6v2h-6v4h-4v6h-2v-6h-4v-4h-2v3.065h-17z"/><g fill="#8697cb"><path d="m6.5 41v15c0 1.009 1.22 2 2.463 2h40.074c1.243 0 2.463-.991 2.463-2v-15zm14.181 9.808c-.178.588-.403 1.08-.677 1.477s-.581.709-.923.937-.672.398-.991.513c-.319.114-.611.187-.875.219-.265.03-.461.046-.588.046h-3.814v-10.076h3.035c.848 0 1.593.135 2.235.403s1.176.627 1.6 1.073.74.955.95 1.524c.209.569.314 1.155.314 1.757 0 .83-.089 1.539-.266 2.127zm12.598 3.247h-2.133l-1.654-7.602-1.764 7.602h-2.146l-2.557-10.131h1.859l1.777 8.695 1.914-8.695h1.859l1.777 8.695 1.928-8.695h1.861zm12.291-1.354c-.21.265-.444.48-.704.649s-.533.308-.82.417-.583.187-.889.233-.608.068-.909.068c-.602 0-1.155-.109-1.661-.328s-.948-.542-1.326-.971-.675-.966-.889-1.613-.321-1.395-.321-2.242.107-1.593.321-2.235c.214-.643.51-1.178.889-1.606.378-.429.822-.754 1.333-.978s1.062-.335 1.654-.335c.547 0 1.058.091 1.531.273s.897.456 1.271.82l-1.135 1.012c-.219-.265-.47-.456-.752-.574s-.574-.178-.875-.178c-.337 0-.658.063-.964.191s-.579.344-.82.649-.431.699-.567 1.183c-.137.483-.21 1.075-.219 1.777.009.684.08 1.276.212 1.777s.314.911.547 1.23.497.556.793.711.608.232.937.232c.101 0 .234-.007.403-.021s.337-.036.506-.068.33-.075.485-.13.269-.132.342-.232v-2.488h-1.709v-1.121h3.336z"/><path d="m18.493 46.282c-.287-.333-.677-.602-1.169-.807s-1.13-.308-1.914-.308h-.957v7.629h1.627c1.112 0 1.914-.355 2.406-1.066s.738-1.741.738-3.09c0-.419-.05-.834-.15-1.244s-.294-.781-.581-1.114z"/></g></svg>