<svg enable-background="new 0 0 58 58" viewBox="0 0 58 58" xmlns="http://www.w3.org/2000/svg"><path fill="#c8bdb8" d="m27.5 31c2.067 0 4.028-.692 5.618-1.968l-7.032-7.032 7.032-7.032c-1.59-1.276-3.551-1.968-5.618-1.968-2.404 0-4.664.936-6.364 2.636s-2.636 3.96-2.636 6.364.936 4.664 2.636 6.364 3.96 2.636 6.364 2.636zm-1-16c1.105 0 2 .895 2 2s-.895 2-2 2-2-.895-2-2 .895-2 2-2z"/><path fill="#c8bdb8" d="m51.5 39v-25.022c0-.766-.092-1.333-.55-1.792l-11.637-11.636c-.349-.349-.833-.55-1.328-.55h-29.022c-1.186 0-2.463.916-2.463 2.926v36.074zm-9-16h-2c-.553 0-1-.447-1-1s.447-1 1-1h2c.553 0 1 .447 1 1s-.447 1-1 1zm-5-19.609c0-.458.553-.687.877-.363l10.095 10.095c.324.324.095.877-.363.877h-10.609zm0 18.609c0 .553-.447 1-1 1h-3c-.553 0-1-.447-1-1s.447-1 1-1h3c.553 0 1 .447 1 1zm-17.778-7.778c2.077-2.078 4.84-3.222 7.778-3.222s5.701 1.144 7.778 3.222l.707.707-7.071 7.071 7.071 7.071-.707.707c-2.077 2.078-4.84 3.222-7.778 3.222s-5.701-1.144-7.778-3.222c-2.078-2.077-3.222-4.84-3.222-7.778s1.144-5.701 3.222-7.778z"/><path fill="#ce3c3b" d="m35.035 50.801h3.008l-1.49-4.348z"/><path fill="#ce3c3b" d="m6.5 41v15c0 1.009 1.22 2 2.463 2h40.074c1.243 0 2.463-.991 2.463-2v-15zm16.381 4.168h-4.635v3.172h4.211v1.121h-4.211v4.539h-1.668v-10.076h6.303zm8.053 8.832h-6.303v-10.076h1.668v8.832h4.635zm8.23 0-.725-2.092h-3.787l-.738 2.092h-1.709l3.527-10.063h1.627l3.5 10.063z"/></svg>