<svg enable-background="new 0 0 64 64" viewBox="0 0 64 64" xmlns="http://www.w3.org/2000/svg"><path d="m61 25c1.4 0 2.4 1.9 1.9 3.1l-10.5 25.7c-.3.8-1 1.2-1.9 1.2h-49.5l11.1-28.3c.3-.8 1-1.7 1.9-1.7h42z" fill="#f9ebbc"/><path d="m56 24.8v.2h-42c-.9 0-1.6.9-1.9 1.7l-11.1 28.3v-44c0-1.1.9-2 2-2h23.1c.5 0 1 .2 1.4.6l3.4 5c.4.4.9.6 1.4.6h21.7c1.1 0 2 .9 2 2z" fill="#f2df98"/><path d="m63.3 25.3c-.6-.8-1.4-1.3-2.3-1.3h-4v-6.8c0-1.7-1.3-3-3-3h-21.7c-.2 0-.5-.1-.6-.2l-3.4-5-.1-.1c-.6-.6-1.3-.9-2.1-.9h-23.1c-1.7 0-3 1.3-3 3v45h50.5c1.2 0 2.3-.7 2.8-1.9l10.5-25.7c.4-.9.2-2.1-.5-3.1zm-61.3-14.3c0-.6.4-1 1-1h23.1c.2 0 .5.1.6.2l3.3 4.9.1.1c.6.6 1.3.9 2.1.9h21.8c.6 0 1 .4 1 1v6.9h-41c-1.4 0-2.4 1.2-2.8 2.3l-9.2 23.4zm60 16.8-10.5 25.6c-.2.4-.5.6-.9.6h-48.1l10.6-27c.2-.6.7-1 .9-1h47c.2 0 .5.2.7.5.3.4.4.9.3 1.3z" fill="#e7c248"/></svg>