<svg enable-background="new 0 0 58 58" viewBox="0 0 58 58" xmlns="http://www.w3.org/2000/svg"><g fill="#6a76ff"><path d="m22.7 46.4c-.4-.6-1-.9-1.8-.8h-1.8v7.1h1.8c.8 0 1.5-.3 1.8-.9.2-.2.3-.5.3-.8s.1-.9.1-1.8 0-1.5-.1-1.9c0-.4-.1-.7-.3-.9z"/><path d="m31.1 46.3c-.2-.2-.4-.4-.6-.5-.3-.1-.6-.2-.9-.2-.4 0-.7.1-.9.2-.3.1-.5.3-.6.5-.2.2-.3.5-.4.8-.1.4-.1 1-.1 2s0 1.6.1 2c.1.3.2.6.4.8s.4.4.6.5c.3.2.6.2.9.2.4 0 .7-.1.9-.2s.5-.3.6-.5c.2-.2.3-.5.4-.8s.1-1 .1-2 0-1.6-.1-2c0-.4-.2-.6-.4-.8z"/><path d="m6.5 41v15c0 1 1.2 2 2.5 2h40c1.2 0 2.5-1 2.5-2v-15zm18 10.3c0 .2-.1.4-.2.6s-.2.3-.3.5c-.3.5-.7.9-1.2 1.2s-1.1.5-1.9.5h-3.4v-10h3.5c1.3 0 2.4.6 3 1.7.2.4.4.8.5 1.2 0 .4.1 1.1.1 2.1s0 1.8-.1 2.2zm8.6.1c-.1.4-.2.7-.3 1-.2.5-.6.9-1.1 1.2-.5.4-1.2.6-2 .6s-1.4-.2-2-.6c-.5-.4-.9-.8-1.2-1.2-.1-.2-.1-.3-.2-.4s-.1-.3-.1-.5c-.1-.5-.2-1.3-.2-2.4 0-1.2 0-1.9.1-2.3s.2-.7.3-.9c.2-.5.6-.9 1.2-1.2.5-.4 1.2-.6 2-.6s1.5.2 2 .6.9.8 1.1 1.2c.2.2.3.6.3.9.1.4.1 1.2.1 2.3zm3.1-.3c.1.3.2.6.4.8s.4.4.6.5c.3.2.6.2.9.2.8 0 1.5-.5 1.9-1.4h1.6c-.2.9-.6 1.6-1.2 2.1s-1.4.7-2.2.7-1.4-.2-2-.6c-.5-.4-.9-.8-1.2-1.2-.1-.2-.1-.3-.2-.4s-.1-.3-.1-.5c-.1-.4-.1-1.2-.1-2.3 0-1.2 0-1.9.1-2.3s.2-.7.3-.9c.2-.5.6-.9 1.2-1.2.5-.4 1.2-.6 2-.6 1 0 1.7.3 2.3.9s1 1.3 1.1 2.1h-1.6c-.1-.4-.3-.7-.7-1-.3-.3-.7-.4-1.2-.4-.4 0-.7.1-.9.2-.3.1-.5.3-.6.5-.2.2-.3.5-.4.8-.1.4-.1 1-.1 2s0 1.6.1 2z"/></g><path d="m51 12.2-11.7-11.7c-.3-.3-.8-.5-1.3-.5h-29c-1.2 0-2.5.9-2.5 2.9v36.1h45v-25c0-.8-.1-1.4-.5-1.8zm-18.2-.3 9.2 15.6h-7.5c-.1-.2-1.5-2.5-9.4-15.5h7.7zm-17.8 17.2 9.2-15.6c-.2-.4 3.7 6 3.8 6.2 0 0 0 .1-.1.1-.1.1-.1.2-.1.1-.5.8-2.4 4-8.9 14.9.3.4-3.8-5.5-3.9-5.7zm23.9 5.7h-18.1c-.2.4 3.4-5.6 3.5-5.7h18.7c.2-.4-3.9 5.6-4.1 5.7zm9.2-20.8h-10.6v-10.6c0-.5.6-.7.9-.4l10.1 10.1c.3.3.1.9-.4.9z" fill="#c8bdb8"/></svg>