<svg enable-background="new 0 0 58 58" viewBox="0 0 58 58" xmlns="http://www.w3.org/2000/svg"><path d="m56.9 26.4-25.3-25.3c-1.5-1.5-3.8-1.5-5.3 0l-5.3 5.3 6.7 6.7c1.6-.5 3.3-.2 4.6 1.1 1.2 1.2 1.6 3 1.1 4.6l6.4 6.4c1.6-.5 3.3-.2 4.6 1.1 1.7 1.7 1.7 4.5 0 6.3-1.7 1.7-4.5 1.7-6.3 0-1.3-1.3-1.6-3.2-1-4.8l-6-6v15.8c.4.2.8.5 1.2.8 1.7 1.7 1.7 4.5 0 6.3-1.7 1.7-4.6 1.7-6.3 0s-1.7-4.6 0-6.3c.4-.4.9-.8 1.5-1v-16.1c-.5-.2-1-.5-1.5-1-1.3-1.3-1.6-3.2-1-4.9l-6.6-6.6-17.3 17.5c-1.5 1.5-1.5 3.8 0 5.3l25.3 25.3c1.5 1.5 3.8 1.5 5.3 0l25.2-25.2c1.5-1.5 1.5-3.8 0-5.3z" fill="#f05133"/></svg>