<svg enable-background="new 0 0 58 58" viewBox="0 0 58 58" xmlns="http://www.w3.org/2000/svg"><path d="m6.5 41v15c0 1 1.2 2 2.5 2h40c1.2 0 2.5-1 2.5-2v-15zm20.8 9.6c0 1-.4 1.8-1 2.5-.7.7-1.5 1-2.5 1-.8 0-1.4-.2-2-.6-.5-.4-.9-.8-1.2-1.2-.1-.2-.1-.3-.2-.4s-.1-.3-.1-.5c-.1-.4-.1-1.2-.1-2.3 0-1.2 0-1.9.1-2.3s.2-.7.3-.9c.2-.5.6-.9 1.2-1.2.5-.4 1.2-.6 2-.6 1 0 1.7.3 2.3.9s1 1.3 1.1 2.1h-1.6c-.1-.4-.3-.7-.7-1-.3-.3-.7-.4-1.2-.4-.4 0-.7.1-.9.2-.3.1-.5.3-.6.5-.2.2-.3.5-.4.8-.1.4-.1 1-.1 2s0 1.6.1 2c.1.3.2.6.4.8s.4.4.6.5c.3.2.6.2.9.2.6 0 1.1-.2 1.5-.6s.6-.9.6-1.5v-.6h-2v-1.4h3.5zm3.3 3.5h-1.5v-10h1.5zm8-8.7h-2.7v8.6h-1.5v-8.6h-2.7v-1.3h7v1.3z" fill="#f05133"/><path d="m51 12.2-11.6-11.7c-.4-.3-.8-.5-1.3-.5h-22.1l3.8 3.8c.3-.1.7-.1 1-.1 2.2 0 3.9 1.8 3.9 3.9 0 .4-.1.7-.2 1l6.1 6.2c.3-.1.7-.2 1.1-.2 2.2 0 3.9 1.8 3.9 3.9s-1.8 3.9-3.9 3.9c-2.2 0-3.9-1.8-3.9-3.9 0-.6.1-1.2.4-1.7l-5.7-5.8v14.4c1.3.6 2.2 2 2.2 3.5 0 2.2-1.8 3.9-3.9 3.9-2.2 0-3.9-1.8-3.9-3.9 0-1.7 1-3.1 2.5-3.6v-14.1c-1.4-.6-2.5-2-2.5-3.6 0-.6.2-1.2.4-1.7l-5.8-5.9h-2.5c-1.1 0-2.4.9-2.4 2.9v36.1h45v-25c0-.8-.1-1.4-.6-1.8zm-2.8 1.8h-10.6v-10.6c0-.5.6-.7.9-.4l10.1 10.1c.3.3 0 .9-.4.9z" fill="#c8bdb8"/></svg>