<svg enable-background="new 0 0 58 58" viewBox="0 0 58 58" xmlns="http://www.w3.org/2000/svg"><path d="m36.6 46.4c-.4-.6-1-.9-1.8-.8h-1.8v7.1h1.8c.8 0 1.5-.3 1.8-.9.2-.2.3-.5.3-.8s.1-.9.1-1.8 0-1.5-.1-1.9c.1-.4-.1-.7-.3-.9z" fill="#ffc015"/><path d="m6.5 41v15c0 1 1.2 2 2.5 2h40c1.2 0 2.5-1 2.5-2v-15zm8.6 13.1c-1.5 0-2.7-.5-3.8-1.4l1-1.1c.8.7 1.7 1 2.8 1 1.3 0 1.9-.5 2-1.4 0-.7-.4-1.2-1.3-1.3-.4-.1-.8-.1-1.3-.2-.9-.1-1.5-.5-2-.9-.5-.5-.7-1.1-.7-1.8 0-.9.3-1.6.9-2.1.5-.6 1.3-.9 2.3-.9 1.2 0 2.3.4 3.2 1l-.8 1.2c-.7-.5-1.6-.7-2.5-.8-.5 0-.9.1-1.2.3s-.5.6-.5 1.1c0 .3.1.5.3.8.2.2.6.4 1.1.5.3 0 .6.1 1.1.2.9.1 1.6.5 2.1 1 .4.5.7 1.2.7 1.9 0 1.9-1.1 2.9-3.4 2.9zm11.4 0h-6.4v-10h1.5v8.5h4.8v1.5zm2.9 0h-1.5v-10h1.5zm9.1-2.8c0 .2-.1.4-.2.6s-.2.3-.3.5c-.3.5-.7.9-1.2 1.2s-1.1.5-1.9.5h-3.4v-10h3.5c1.3 0 2.4.6 3 1.7.2.4.4.8.5 1.2 0 .4.1 1.1.1 2.1s-.1 1.8-.1 2.2zm8.2-5.8h-4.8v2.8h4.1v1.3h-4.1v2.9h4.8v1.4h-6.4v-10h6.4z" fill="#ffc015"/><path d="m51 12.2-11.7-11.7c-.3-.3-.8-.5-1.3-.5h-29c-1.2 0-2.5.9-2.5 2.9v36.1h45v-25c0-.8-.1-1.4-.5-1.8zm-18.2-.3 9.2 15.6h-7.5c-.1-.2-1.5-2.5-9.4-15.5h7.7zm-17.8 17.2 9.2-15.6c-.2-.4 3.7 6 3.8 6.2 0 0 0 .1-.1.1-.1.1-.1.2-.1.1-.5.8-2.4 4-8.9 14.9.3.4-3.8-5.5-3.9-5.7zm23.9 5.7h-18.1c-.2.4 3.4-5.6 3.5-5.7h18.7c.2-.4-3.9 5.6-4.1 5.7zm9.2-20.8h-10.6v-10.6c0-.5.6-.7.9-.4l10.1 10.1c.3.3.1.9-.4.9z" fill="#c8bdb8"/></svg>