<svg enable-background="new 0 0 58 58" viewBox="0 0 58 58" xmlns="http://www.w3.org/2000/svg"><path fill="#c8bdb8" d="m51.5 39v-25.022c0-.766-.092-1.333-.55-1.792l-11.637-11.636c-.349-.349-.833-.55-1.328-.55h-29.022c-1.186 0-2.463.916-2.463 2.926v36.074zm-14-35.609c0-.458.553-.687.877-.363l10.095 10.095c.324.324.095.877-.363.877h-10.609zm-2.707 15.316c-.391-.391-.391-1.023 0-1.414s1.023-.391 1.414 0l6 6c.391.391.391 1.023 0 1.414l-6 6c-.195.195-.451.293-.707.293s-.512-.098-.707-.293c-.391-.391-.391-1.023 0-1.414l5.293-5.293zm-18 4.586 6-6c.391-.391 1.023-.391 1.414 0s.391 1.023 0 1.414l-5.293 5.293 5.293 5.293c.391.391.391 1.023 0 1.414-.195.195-.451.293-.707.293s-.512-.098-.707-.293l-6-6c-.391-.391-.391-1.023 0-1.414z"/><path fill="#ec6630" d="m6.5 41v15c0 1.009 1.22 2 2.463 2h40.074c1.243 0 2.463-.991 2.463-2v-15zm11.955 13h-1.641v-4.539h-4.361v4.539h-1.668v-10.076h1.668v4.416h4.361v-4.416h1.641zm9.652-8.955h-3.007v8.955h-1.654v-8.955h-3.008v-1.121h7.67v1.121zm11.266 8.955h-1.668v-6.932l-2.256 5.605h-1.449l-2.27-5.605v6.932h-1.668v-10.076h1.668l2.994 6.891 2.98-6.891h1.668v10.076zm8.832 0h-6.303v-10.076h1.668v8.832h4.635z"/></svg>