<svg enable-background="new 0 0 58 58" viewBox="0 0 58 58" xmlns="http://www.w3.org/2000/svg"><path d="m36.3 46.3c-.2-.2-.4-.4-.6-.5-.3-.1-.6-.2-.9-.2-.4 0-.7.1-.9.2-.3.1-.5.3-.6.5-.2.2-.3.5-.4.8-.1.4-.1 1-.1 2s0 1.6.1 2c.1.3.2.6.4.8s.4.4.6.5c.3.2.6.2.9.2.4 0 .7-.1.9-.2s.5-.3.6-.5c.2-.2.3-.5.4-.8s.1-1 .1-2 0-1.6-.1-2-.2-.6-.4-.8z" fill="#2a42ff"/><path d="m6.5 41v15c0 1 1.2 2 2.5 2h40c1.2 0 2.5-1 2.5-2v-15zm15.2 13.1h-1.5v-10h1.5zm3.4-3c.1.3.2.6.4.8s.4.4.6.5c.3.2.6.2.9.2.8 0 1.5-.5 1.9-1.4h1.6c-.2.9-.6 1.6-1.2 2.1s-1.4.7-2.2.7-1.4-.2-2-.6c-.5-.4-.9-.8-1.2-1.2-.1-.2-.1-.3-.2-.4s-.1-.3-.1-.5c-.1-.4-.1-1.2-.1-2.3 0-1.2 0-1.9.1-2.3s.2-.7.3-.9c.2-.5.6-.9 1.2-1.2.5-.4 1.2-.6 2-.6 1 0 1.7.3 2.3.9s1 1.3 1.1 2.1h-1.6c-.1-.4-.3-.7-.7-1-.3-.3-.7-.4-1.2-.4-.4 0-.7.1-.9.2-.3.1-.5.3-.6.5-.2.2-.3.5-.4.8-.1.4-.1 1-.1 2s0 1.6.1 2zm13.1.3c-.1.4-.2.7-.3 1-.2.5-.6.9-1.1 1.2-.5.4-1.2.6-2 .6s-1.4-.2-2-.6c-.5-.4-.9-.8-1.2-1.2-.1-.2-.1-.3-.2-.4s-.1-.3-.1-.5c-.1-.4-.1-1.2-.1-2.3 0-1.2 0-1.9.1-2.3s.2-.7.3-.9c.2-.5.6-.9 1.2-1.2.5-.4 1.2-.6 2-.6s1.5.2 2 .6.9.8 1.1 1.2c.2.2.3.6.3.9.1.4.1 1.2.1 2.3 0 1 0 1.8-.1 2.2z" fill="#2a42ff"/><g fill="#c8bdb8"><path d="m20 33.5h18v-14.4h-18zm6.3-10.8c-.5 0-.9-.4-.9-.9s.4-.9.9-.9h5.4c.5 0 .9.4.9.9s-.4.9-.9.9h-1.8v7.2h1.8c.5 0 .9.4.9.9s-.4.9-.9.9h-5.4c-.5 0-.9-.4-.9-.9s.4-.9.9-.9h1.8v-7.2z"/><path d="m51 12.2-11.7-11.7c-.3-.3-.8-.5-1.3-.5h-29c-1.2 0-2.5.9-2.5 2.9v36.1h45v-25c0-.8-.1-1.4-.5-1.8zm-11.2 22.2c0 .5-.4.9-.9.9h-19.8c-.5 0-.9-.4-.9-.9v-16.2c0-.5.4-.9.9-.9h19.8c.5 0 .9.4.9.9zm8.3-20.4h-10.6v-10.6c0-.5.6-.7.9-.4l10.1 10.1c.3.3.1.9-.4.9z"/></g></svg>