<svg enable-background="new 0 0 58 58" viewBox="0 0 58 58" xmlns="http://www.w3.org/2000/svg"><path d="m6.5 41v15c0 1 1.2 2 2.5 2h40c1.2 0 2.5-1 2.5-2v-15zm16.8 13.1h-1.5v-10h1.5zm9.5 0h-1.4l-4.5-7.1v7.1h-1.5v-10h1.4l4.5 7.1v-7.1h1.5zm3.6 0h-1.5v-10h1.5z" fill="#454c6e"/><path d="m51 12.2-11.7-11.7c-.3-.3-.8-.5-1.3-.5h-29c-1.2 0-2.5.9-2.5 2.9v36.1h45v-25c0-.8-.1-1.4-.5-1.8zm-16.5 4.6c.6 0 1 .4 1 1s-.4 1-1 1h-8c-.6 0-1-.4-1-1s.4-1 1-1zm-11-5h2c.6 0 1 .4 1 1s-.4 1-1 1h-2c-.6 0-1-.4-1-1 0-.5.4-1 1-1zm-10 0h6c.6 0 1 .4 1 1s-.4 1-1 1h-6c-.6 0-1-.4-1-1 0-.5.4-1 1-1zm0 5h9c.6 0 1 .4 1 1s-.4 1-1 1h-9c-.6 0-1-.4-1-1 0-.5.4-1 1-1zm0 5h17c.6 0 1 .4 1 1s-.4 1-1 1h-17c-.6 0-1-.4-1-1 0-.5.4-1 1-1zm0 5h4c.6 0 1 .4 1 1s-.4 1-1 1h-4c-.6 0-1-.4-1-1 0-.5.4-1 1-1zm6 7h-6c-.6 0-1-.4-1-1s.4-1 1-1h6c.6 0 1 .4 1 1s-.4 1-1 1zm1-6c0-.6.4-1 1-1h10c.6 0 1 .4 1 1s-.4 1-1 1h-10c-.6 0-1-.4-1-1zm13.9 6h-10.9c-.6 0-1-.4-1-1s.4-1 1-1h10.9c.6 0 1 .4 1 1s-.5 1-1 1zm6.2-10h-6c-.6 0-1-.4-1-1s.4-1 1-1h6c.6 0 1 .4 1 1s-.4 1-1 1zm7.5-9.8h-10.6v-10.6c0-.5.6-.7.9-.4l10.1 10.1c.3.3.1.9-.4.9z" fill="#c8bdb8"/></svg>