<svg enable-background="new 0 0 58 58" viewBox="0 0 58 58" xmlns="http://www.w3.org/2000/svg"><path d="m6.5 41v15c0 1 1.2 2 2.5 2h40c1.2 0 2.5-1 2.5-2v-15zm14.2 13.1h-6.4v-10h1.5v8.5h4.8v1.5zm7.8-8.6h-4.8v2.8h4.1v1.3h-4.1v2.9h4.8v1.4h-6.4v-10h6.4zm4.3 8.6c-1.5 0-2.7-.5-3.8-1.4l1-1.1c.8.7 1.7 1 2.8 1 1.3 0 1.9-.5 2-1.4 0-.7-.4-1.2-1.3-1.3-.4-.1-.8-.1-1.3-.2-.9-.1-1.5-.5-2-.9-.5-.5-.7-1.1-.7-1.8 0-.9.3-1.6.9-2.1s1.4-.8 2.4-.8c1.2 0 2.3.4 3.2 1l-.8 1.2c-.7-.5-1.6-.7-2.5-.8-.5 0-.9.1-1.2.3s-.5.6-.5 1.1c0 .3.1.5.3.8.2.2.6.4 1.1.5.3 0 .6.1 1.1.2.9.1 1.6.5 2.1 1 .4.5.7 1.2.7 1.9 0 1.8-1.2 2.8-3.5 2.8zm8 0c-1.5 0-2.7-.5-3.8-1.4l1-1.1c.8.7 1.7 1 2.8 1 1.3 0 1.9-.5 2-1.4 0-.7-.4-1.2-1.3-1.3-.4-.1-.8-.1-1.3-.2-.9-.1-1.5-.5-2-.9-.5-.5-.7-1.1-.7-1.8 0-.9.3-1.6.9-2.1s1.4-.8 2.4-.8c1.2 0 2.3.4 3.2 1l-.8 1.2c-.7-.5-1.6-.7-2.5-.8-.5 0-.9.1-1.2.3s-.5.6-.5 1.1c0 .3.1.5.3.8.2.2.6.4 1.1.5.3 0 .6.1 1.1.2.9.1 1.6.5 2.1 1 .4.5.7 1.2.7 1.9 0 1.8-1.2 2.8-3.5 2.8z" fill="#0096e6"/><path d="m51.5 39v-25c0-.8-.1-1.3-.6-1.8l-11.6-11.7c-.3-.3-.8-.5-1.3-.5h-29c-1.2 0-2.5.9-2.5 2.9v36.1zm-14-35.6c0-.5.6-.7.9-.4l10.1 10.1c.3.3.1.9-.4.9h-10.6zm-1 19.6v-4c0-.6-.4-1-1-1s-1-.4-1-1 .4-1 1-1c1.7 0 3 1.3 3 3v4c0 1.1.9 2 2 2 .6 0 1 .4 1 1s-.4 1-1 1c-1.1 0-2 .9-2 2v4c0 1.7-1.3 3-3 3-.6 0-1-.4-1-1s.4-1 1-1 1-.4 1-1v-4c0-1.2.5-2.3 1.4-3-.9-.7-1.4-1.8-1.4-3zm-20 2c1.1 0 2-.9 2-2v-4c0-1.7 1.3-3 3-3 .6 0 1 .4 1 1s-.4 1-1 1-1 .4-1 1v4c0 1.2-.5 2.3-1.4 3 .8.7 1.4 1.8 1.4 3v4c0 .6.4 1 1 1s1 .4 1 1-.4 1-1 1c-1.7 0-3-1.3-3-3v-4c0-1.1-.9-2-2-2-.6 0-1-.4-1-1s.4-1 1-1z" fill="#c8bdb8"/></svg>