<svg enable-background="new 0 0 58 58" viewBox="0 0 58 58" xmlns="http://www.w3.org/2000/svg"><path d="m36.1 46.4c-.4-.6-1-.9-1.8-.8h-1.8v7.1h1.8c.8 0 1.5-.3 1.8-.9.2-.2.3-.5.3-.8s.1-.9.1-1.8 0-1.5-.1-1.9c0-.4-.1-.7-.3-.9z" fill="#a655ff"/><path d="m6.5 41v15c0 1 1.2 2 2.5 2h40c1.2 0 2.5-1 2.5-2v-15zm22.4 13.1h-1.5v-6.2l-2.1 4.8h-1.3l-2-4.9v6.2h-1.5v-10h1.4l2.9 6.5 2.8-6.5h1.4v10.1zm9.1-2.8c0 .2-.1.4-.2.6s-.2.3-.3.5c-.3.5-.7.9-1.2 1.2s-1.1.5-1.9.5h-3.4v-10h3.5c1.3 0 2.4.6 3 1.7.2.4.4.8.5 1.2 0 .4.1 1.1.1 2.1s-.1 1.8-.1 2.2z" fill="#a655ff"/><g fill="#c8bdb8"><path d="m37.8 21h-3.5v5.3h-2.7l4.4 6.1 4.4-6.1h-2.6z"/><path d="m24.6 24.5-2.6-3.5h-3.5v10.6h3.5v-5.3l2.6 3.4 2.6-3.4v5.3h3.6v-10.6h-3.6z"/><path d="m51 12.2-11.7-11.7c-.3-.3-.8-.5-1.3-.5h-29c-1.2 0-2.5.9-2.5 2.9v36.1h45v-25c0-.8-.1-1.4-.5-1.8zm-7.9 20.9c0 1.1-.9 2-2 2h-24.1c-1.1 0-2-.9-2-2v-13.6c0-1.1.9-2 2-2h24c1.1 0 2 .9 2 2v13.6zm5-19.1h-10.6v-10.6c0-.5.6-.7.9-.4l10.1 10.1c.3.3.1.9-.4.9z"/></g></svg>