<svg enable-background="new 0 0 58 58" viewBox="0 0 58 58" xmlns="http://www.w3.org/2000/svg"><g fill="#b53438"><path d="m6.5 41v15c0 1 1.2 2 2.5 2h40c1.2 0 2.5-1 2.5-2v-15zm18.9 13.1h-1.5v-6.2l-2.1 4.8h-1.3l-2.1-4.8v6.2h-1.5v-10h1.4l2.9 6.5 2.8-6.5h1.4zm8.7-2.7c-.1.4-.2.7-.3 1-.2.5-.6.9-1.1 1.2-.5.4-1.2.6-2 .6s-1.4-.2-2-.6c-.5-.4-.9-.8-1.2-1.2-.1-.2-.1-.3-.2-.4s-.1-.3-.1-.5c-.1-.4-.1-1.2-.1-2.3 0-1.2 0-1.9.1-2.3s.2-.7.3-.9c.2-.5.6-.9 1.2-1.2.5-.4 1.2-.6 2-.6s1.5.2 2 .6.9.8 1.1 1.2c.2.2.3.6.3.9.1.4.1 1.2.1 2.3 0 1 0 1.8-.1 2.2zm5 2.7h-1.2l-3.3-10h1.6l2.3 7.6 2.3-7.6h1.6z"/><path d="m32.2 46.3c-.2-.2-.4-.4-.6-.5-.3-.1-.6-.2-.9-.2-.4 0-.7.1-.9.2-.3.1-.5.3-.6.5-.2.2-.3.5-.4.8-.1.4-.1 1-.1 2s0 1.6.1 2c.1.3.2.6.4.8s.4.4.6.5c.3.2.6.2.9.2.4 0 .7-.1.9-.2s.5-.3.6-.5c.2-.2.3-.5.4-.8s.1-1 .1-2 0-1.6-.1-2-.2-.6-.4-.8z"/></g><g fill="#c8bdb8"><path d="m29.5 34c7.2 0 13-5.8 13-13 0-2.5-.7-4.9-2.1-7h-1.9-1v-1-2.2c-2.3-1.8-5.1-2.8-8-2.8-7.2 0-13 5.8-13 13s5.8 13 13 13zm-5-20c0-.4.2-.7.5-.9s.7-.2 1 0l11 7c.3.2.5.5.5.8s-.2.7-.5.8l-11 7c-.2.1-.4.2-.5.2-.2 0-.3 0-.5-.1-.3-.2-.5-.5-.5-.9z"/><path d="m51.5 39v-25c0-.8-.1-1.3-.5-1.8l-11.7-11.7c-.3-.3-.8-.5-1.3-.5h-29c-1.2 0-2.5.9-2.5 2.9v36.1zm-22-33c2.8 0 5.6.8 8 2.3v-4.9c0-.5.6-.7.9-.4l10.1 10.1c.3.3.1.9-.4.9h-5.4c1.1 2.2 1.7 4.5 1.7 7 0 8.3-6.7 15-15 15s-15-6.7-15-15 6.8-15 15.1-15z"/></g></svg>