<svg enable-background="new 0 0 58 58" viewBox="0 0 58 58" xmlns="http://www.w3.org/2000/svg"><path fill="#c8bdb8" d="m51.5 39v-25.022c0-.766-.092-1.333-.55-1.792l-11.637-11.636c-.349-.349-.833-.55-1.328-.55h-29.022c-1.186 0-2.463.916-2.463 2.926v36.074zm-14-35.609c0-.458.553-.687.877-.363l10.095 10.095c.324.324.095.877-.363.877h-10.609zm-13.706 22.786h3.706v-9.053-8.359-1c0-.553.447-1 1-1s1 .447 1 1v.898c.105.461.948 3.606 4.862 6.738 1.008.808 1.74 1.555 2.308 2.351 1.365 1.914 3.414 5.929 1.787 11.304-.131.432-.527.71-.957.71-.096 0-.193-.014-.29-.043-.432-.131-.71-.527-.71-.957 0-.096.014-.193.043-.29.977-3.226-2.905-6.084-5.224-7.793-.66-.485-1.182-.869-1.521-1.205l-.298-.245v11.473c0 3.471-2.823 6.294-6.294 6.294-3.466 0-5.706-2.24-5.706-5.706 0-3.156 2.412-5.117 6.294-5.117z"/><g fill="#7d6599"><path d="m32.048 45.858c-.142-.196-.34-.36-.595-.492s-.593-.198-1.012-.198h-1.23v3.992h1.504c.2 0 .398-.034.595-.103s.376-.18.54-.335.296-.371.396-.649.15-.622.15-1.032c0-.164-.022-.354-.068-.567s-.139-.419-.28-.616z"/><path d="m6.5 41v15c0 1.009 1.22 2 2.463 2h40.074c1.243 0 2.463-.991 2.463-2v-15zm18.568 13h-1.668v-6.932l-2.256 5.605h-1.449l-2.27-5.605v6.932h-1.668v-10.076h1.668l2.994 6.891 2.98-6.891h1.668v10.076zm8.655-5.571c-.173.415-.415.764-.725 1.046s-.684.501-1.121.656-.921.232-1.449.232h-1.217v3.637h-1.641v-10.076h2.898c.429 0 .853.068 1.271.205s.795.342 1.128.615.602.604.807.991.308.822.308 1.306c0 .511-.086.973-.259 1.388zm7.635 3.842c-.132.333-.299.608-.499.827s-.426.395-.677.526-.494.23-.731.294-.453.104-.649.123-.349.027-.458.027c-.766 0-1.369-.053-1.812-.157s-.75-.212-.923-.321l.369-1.176c.082.046.159.096.232.15s.178.107.314.157.328.091.574.123.583.048 1.012.048c.629 0 1.099-.171 1.408-.513s.465-.772.465-1.292c0-.492-.142-.907-.424-1.244s-.697-.506-1.244-.506h-1.381l-.014-1.107h.93c.2 0 .403-.005.608-.014s.398-.06.581-.15.333-.246.451-.465.178-.533.178-.943c0-.164-.014-.337-.041-.52s-.103-.351-.226-.506-.303-.28-.54-.376-.565-.144-.984-.144-.754.039-1.005.116-.439.139-.567.185l-.479-1.23c.219-.063.49-.132.813-.205s.791-.109 1.401-.109c.429 0 .834.053 1.217.157s.718.271 1.005.499.515.52.684.875.253.774.253 1.258c0 .282-.05.54-.15.772s-.228.436-.383.608-.328.316-.52.431-.369.189-.533.226c.21.027.426.096.649.205s.431.265.622.465.351.444.479.731.191.617.191.991c.003.457-.064.851-.196 1.184z"/></g></svg>