<svg enable-background="new 0 0 58 58" viewBox="0 0 58 58" xmlns="http://www.w3.org/2000/svg"><g fill="#c8bdb8"><path d="m39.57 25.259c.149-.209.207-.343.23-.415-.123-.065-.286-.197-1.175-.197-.505 0-1.139.022-1.811.108.815.627 1.014.944 1.547.944.233.001.901-.009 1.209-.44z"/><path d="m20.536 32.634c.149-.047 1.019-.444 2.64-3.436-2.138 1.201-3.008 2.188-3.07 2.744-.011.092-.038.334.43.692z"/><path d="m51.5 39v-25.022c0-.766-.092-1.333-.55-1.792l-11.637-11.636c-.349-.349-.833-.55-1.328-.55h-29.022c-1.186 0-2.463.916-2.463 2.926v36.074zm-14-35.609c0-.458.553-.687.877-.363l10.095 10.095c.324.324.095.877-.363.877h-10.609zm-19.068 28.364c.182-1.628 2.195-3.332 5.985-5.068 1.504-3.296 2.935-7.357 3.788-10.75-.998-2.172-1.968-4.99-1.261-6.643.248-.579.557-1.023 1.134-1.215.228-.076.804-.172 1.016-.172.504 0 .947.649 1.261 1.049.295.376.964 1.173-.373 6.802 1.348 2.784 3.258 5.62 5.088 7.562 1.311-.237 2.439-.358 3.358-.358 1.566 0 2.515.365 2.902 1.117.32.622.189 1.349-.39 2.16-.557.779-1.325 1.191-2.22 1.191-1.216 0-2.632-.768-4.211-2.285-2.837.593-6.151 1.651-8.828 2.822-.836 1.774-1.637 3.203-2.383 4.251-1.023 1.438-1.907 2.107-2.782 2.107-.348 0-.682-.113-.967-.326-1.043-.783-1.183-1.652-1.117-2.244z"/><path d="m29.343 18.174c-.716 2.474-1.659 5.145-2.674 7.564 2.09-.811 4.362-1.519 6.496-2.02-1.35-1.568-2.699-3.526-3.822-5.544z"/><path d="m28.736 9.712c-.098.033-1.33 1.757.096 3.216.949-2.115-.053-3.23-.096-3.216z"/></g><g fill="#cc4b4c"><path d="m21.222 45.858c-.142-.196-.34-.36-.595-.492s-.593-.198-1.012-.198h-1.23v3.992h1.504c.2 0 .398-.034.595-.103.196-.068.376-.18.54-.335s.296-.371.396-.649.15-.622.15-1.032c0-.164-.023-.354-.068-.567-.046-.214-.139-.419-.28-.616z"/><path d="m6.5 41v15c0 1.009 1.22 2 2.463 2h40.074c1.243 0 2.463-.991 2.463-2v-15zm16.396 7.429c-.173.415-.415.764-.725 1.046s-.684.501-1.121.656-.921.232-1.449.232h-1.217v3.637h-1.641v-10.076h2.898c.428 0 .852.068 1.271.205s.795.342 1.128.615.602.604.807.991.308.822.308 1.306c.001.511-.086.973-.259 1.388zm10.056 2.379c-.178.588-.403 1.08-.677 1.477s-.581.709-.923.937-.672.398-.991.513c-.319.114-.611.187-.875.219-.264.03-.46.046-.588.046h-3.814v-10.076h3.035c.848 0 1.593.135 2.235.403s1.176.627 1.6 1.073.74.955.95 1.524c.209.569.314 1.155.314 1.757.001.83-.088 1.539-.266 2.127zm8.948-5.64h-4.635v3.172h4.211v1.121h-4.211v4.539h-1.668v-10.076h6.303z"/><path d="m30.765 46.282c-.287-.333-.677-.602-1.169-.807s-1.13-.308-1.914-.308h-.957v7.629h1.627c1.112 0 1.914-.355 2.406-1.066s.738-1.741.738-3.09c0-.419-.05-.834-.15-1.244-.101-.41-.294-.781-.581-1.114z"/></g></svg>