<svg enable-background="new 0 0 58 58" viewBox="0 0 58 58" xmlns="http://www.w3.org/2000/svg"><g fill="#8d7fff"><path d="m39.4 45.8c-.3-.2-.7-.3-1.1-.3h-2.2v3.2h2.2c.6 0 1-.2 1.3-.5s.4-.7.4-1.1c0-.3-.1-.6-.2-.8 0-.2-.2-.4-.4-.5z"/><path d="m22.1 45.8c-.3-.2-.7-.3-1.1-.3h-2.2v3.2h2.2c.6 0 1-.2 1.3-.5s.4-.7.4-1.1c0-.3-.1-.6-.2-.8s-.2-.4-.4-.5z"/><path d="m6.5 41v15c0 1 1.2 2 2.5 2h40c1.2 0 2.5-1 2.5-2v-15zm17 8.2c-.5.6-1.3 1-2.3 1h-2.3v3.9h-1.5v-10h3.6c.4 0 .8 0 1.1.1.4.1.7.3 1.1.6.3.2.6.5.8 1 .2.4.3.9.3 1.4-.1.7-.3 1.4-.8 2zm9.1 4.9h-1.6v-4.3h-3.9v4.3h-1.5v-10h1.5v4.3h3.9v-4.3h1.5v10zm8.2-4.9c-.5.6-1.3 1-2.3 1h-2.3v3.9h-1.5v-10h3.6c.4 0 .8 0 1.1.1.4.1.7.3 1.1.6.3.2.6.5.8 1 .2.4.3.9.3 1.4 0 .7-.3 1.4-.8 2z"/></g><path d="m51 12.2-11.6-11.7c-.4-.3-.8-.5-1.3-.5h-29.1c-1.1 0-2.4.9-2.4 2.9v36.1h45v-25c0-.8-.1-1.4-.6-1.8zm-27.9 17.1c.4.4.4 1 0 1.4-.2.2-.5.3-.7.3-.3 0-.5-.1-.7-.3l-6-6c-.4-.4-.4-1 0-1.4l6-6c.4-.4 1-.4 1.4 0s.4 1 0 1.4l-5.3 5.3zm5.5 4c-.9 0-1.5-.7-1.5-1.6 0-1 .6-1.6 1.6-1.6s1.5.7 1.5 1.6-.6 1.6-1.6 1.6zm2.5-9.8c-1.1 1.4-1.6 2.5-1.5 3.8v.4c0 1-1.8 1.4-2 0v-.4c-.2-1.4.3-2.9 1.6-4.5 1.2-1.4 2.1-2.6 2.1-3.8 0-1.6-1.3-2-2.7-2-.9 0-1.9.6-2.6.8-1.2.3-1.5-1.1-.6-1.6s2.3-1 3.7-1c3 0 4.1 1.9 4.1 3.8-.1 1.8-.8 3.1-2.1 4.5zm11.1 1.2-6 6c-.2.2-.4.3-.7.3s-.5-.1-.7-.3c-.4-.4-.4-1 0-1.4l5.3-5.3-5.3-5.3c-.4-.4-.4-1 0-1.4s1-.4 1.4 0l6 6c.4.4.4 1 0 1.4zm6-10.7h-10.6v-10.6c0-.5.6-.7.9-.4l10.1 10.1c.3.3 0 .9-.4.9z" fill="#c8bdb8"/></svg>