<svg enable-background="new 0 0 58 58" viewBox="0 0 58 58" xmlns="http://www.w3.org/2000/svg"><g fill="#c8bdb8"><path d="m51.5 39v-25.022c0-.766-.092-1.333-.55-1.792l-11.637-11.636c-.349-.349-.833-.55-1.328-.55h-29.022c-1.186 0-2.463.916-2.463 2.926v36.074zm-38.347-7.073c2.041-.494 2.309-3.604 2.343-4.546l.02-.536.108-.073c.52-2.891 3.012-5.016 5.983-5.016.096 0 .19.01.285.014l7.185-7.185c1.395-1.395 5.851-5.222 8.424-6.391v-4.803c0-.458.553-.687.877-.363l10.095 10.095c.323.324.094.877-.364.877h-8.234c-1.551 2.266-3.918 5.019-5.141 6.243l-7.049 7.048c.018.189.029.379.029.572 0 3.367-2.74 6.107-6.107 6.107l-2.087.03h-.02-6.98l-.16-.92c-.065-.528.276-1.023.793-1.153z"/><path d="m17.867 31.97h3.739c2.265 0 4.107-1.842 4.107-4.107 0-.245-.031-.483-.072-.716l-.005-.026c-.028-.155-.075-.301-.12-.449-.025-.083-.047-.167-.077-.247-.05-.134-.111-.261-.174-.387-.044-.089-.091-.176-.142-.26-.071-.119-.144-.235-.226-.345-.054-.072-.113-.139-.171-.208-.644-.756-1.555-1.277-2.6-1.411l-.167-.021c-.119-.01-.233-.036-.354-.036-2.101 0-3.847 1.588-4.06 3.694l-.082.504c-.083 1.008-.357 2.704-1.244 4.045h1.661z"/><path d="m26.497 24.221c.007.009.013.017.02.026.199.269.377.554.53.854l2.071-2.07-2.828-2.828-2.123 2.123c.925.43 1.724 1.084 2.33 1.895z"/><path d="m30.531 21.617 2.788-2.788c.961-.962 2.762-3.028 4.181-4.938v-3.441c-2.15 1.269-5.53 4.072-7.01 5.551l-2.788 2.788z"/></g><g fill="#5889c4"><path d="m21.222 45.858c-.142-.196-.34-.36-.595-.492s-.593-.198-1.012-.198h-1.23v3.992h1.504c.2 0 .398-.034.595-.103.196-.068.376-.18.54-.335s.296-.371.396-.649.15-.622.15-1.032c0-.164-.023-.354-.068-.567-.046-.214-.139-.419-.28-.616z"/><path d="m6.5 41v15c0 1.009 1.22 2 2.463 2h40.074c1.243 0 2.463-.991 2.463-2v-15zm16.396 7.429c-.173.415-.415.764-.725 1.046s-.684.501-1.121.656-.921.232-1.449.232h-1.217v3.637h-1.641v-10.076h2.898c.428 0 .852.068 1.271.205s.795.342 1.128.615.602.604.807.991.308.822.308 1.306c.001.511-.086.973-.259 1.388zm7.609 3.869c-.15.342-.362.643-.636.902s-.611.467-1.012.622-.857.232-1.367.232c-.219 0-.444-.012-.677-.034s-.467-.062-.704-.116c-.237-.055-.463-.13-.677-.226s-.399-.212-.554-.349l.287-1.176c.127.073.289.144.485.212s.398.132.608.191c.209.06.419.107.629.144.209.036.405.055.588.055.556 0 .982-.13 1.278-.39s.444-.645.444-1.155c0-.31-.105-.574-.314-.793-.21-.219-.472-.417-.786-.595s-.654-.355-1.019-.533-.707-.388-1.025-.629c-.319-.241-.583-.526-.793-.854s-.314-.738-.314-1.23c0-.446.082-.843.246-1.189s.385-.641.663-.882.602-.426.971-.554.759-.191 1.169-.191c.419 0 .843.039 1.271.116s.774.203 1.039.376c-.055.118-.119.248-.191.39-.073.142-.142.273-.205.396-.064.123-.119.226-.164.308-.046.082-.073.128-.082.137-.055-.027-.116-.063-.185-.109s-.167-.091-.294-.137c-.128-.046-.296-.077-.506-.096s-.479-.014-.807.014c-.183.019-.355.07-.52.157s-.31.193-.438.321-.228.271-.301.431c-.073.159-.109.313-.109.458 0 .364.104.658.314.882.209.224.469.419.779.588s.647.333 1.012.492c.364.159.704.354 1.019.581s.576.513.786.854c.209.342.314.781.314 1.319.003.365-.072.718-.222 1.06zm9.857-1.49c-.178.588-.403 1.08-.677 1.477s-.581.709-.923.937-.672.398-.991.513c-.319.114-.611.187-.875.219-.264.03-.46.046-.587.046h-3.814v-10.076h3.035c.848 0 1.593.135 2.235.403s1.176.627 1.6 1.073.74.955.95 1.524c.209.569.314 1.155.314 1.757 0 .83-.089 1.539-.267 2.127z"/><path d="m38.175 46.282c-.287-.333-.677-.602-1.169-.807s-1.13-.308-1.914-.308h-.957v7.629h1.627c1.112 0 1.914-.355 2.406-1.066s.738-1.741.738-3.09c0-.419-.05-.834-.15-1.244-.101-.41-.294-.781-.581-1.114z"/></g></svg>