<svg enable-background="new 0 0 58 58" viewBox="0 0 58 58" xmlns="http://www.w3.org/2000/svg"><path d="m27.3 45.8c-.3-.2-.7-.3-1.1-.3h-2.2v3.2h2.2c.6 0 1-.2 1.3-.5s.4-.7.4-1.1c0-.3-.1-.6-.2-.8s-.2-.4-.4-.5z" fill="#36abe2"/><path d="m6.5 41v15c0 1 1.2 2 2.5 2h40c1.2 0 2.5-1 2.5-2v-15zm22.1 8.2c-.5.6-1.3 1-2.3 1h-2.3v3.9h-1.5v-10h3.6c.4 0 .8 0 1.1.1.4.1.7.3 1.1.6.3.2.6.5.8 1 .2.4.3.9.3 1.4 0 .7-.3 1.4-.8 2zm5.3.8v4.1h-1.4v-4.1l-3-5.9h1.6l2.1 4.4 2.1-4.4h1.6z" fill="#36abe2"/><g fill="#c8bdb8"><path d="m33.3 12.9c0-1.3-1.1-2.4-2.4-2.4h-3.7c-1.3 0-2.4 1.1-2.4 2.4v3.8h4.2c.4 0 .8.4.8.8s-.4.8-.8.8h-9.7c-1.3 0-2.4 1.1-2.4 2.4v3.7c0 1.3 1.1 2.4 2.4 2.4h3.8v-4.3c0-.4.4-.8.8-.8h9.3v-8.8zm-6.2 1.6c-.4 0-.8-.4-.8-.8s.4-.8.8-.8.8.4.8.8-.3.8-.8.8z"/><path d="m38.7 18.2h-3.8v4.3c0 .4-.4.8-.8.8h-9.3v8.9c0 1.3 1.1 2.4 2.4 2.4h3.7c1.3 0 2.4-1.1 2.4-2.4v-3.8h-4.3c-.4 0-.8-.4-.8-.8s.4-.8.8-.8h9.7c1.3 0 2.4-1.1 2.4-2.4v-3.7c0-1.4-1.1-2.5-2.4-2.5zm-7.8 12.4c.4 0 .8.4.8.8s-.4.8-.8.8-.8-.4-.8-.8.3-.8.8-.8z"/><path d="m51 12.2-11.7-11.7c-.3-.3-.8-.5-1.3-.5h-29c-1.2 0-2.5.9-2.5 2.9v36.1h45v-25c0-.8-.1-1.4-.5-1.8zm-8.3 12.2c0 2.2-1.8 4-4 4h-3.8v3.8c0 2.2-1.8 4-4 4h-3.7c-2.2 0-4-1.8-4-4v-3.8h-3.8c-2.2 0-4-1.8-4-4v-3.7c0-2.2 1.8-4 4-4h3.8v-3.8c0-2.2 1.8-4 4-4h3.7c2.2 0 4 1.8 4 4v3.8h3.8c2.2 0 4 1.8 4 4zm5.4-10.4h-10.6v-10.6c0-.5.6-.7.9-.4l10.1 10.1c.3.3.1.9-.4.9z"/></g></svg>