<svg enable-background="new 0 0 58 58" viewBox="0 0 58 58" xmlns="http://www.w3.org/2000/svg"><g fill="#90bae1"><path d="m21.557 47.041c0-.164-.023-.354-.068-.567-.046-.214-.139-.419-.28-.615s-.34-.36-.595-.492c-.256-.132-.593-.198-1.012-.198h-1.23v3.992h1.49c.2 0 .4-.034.602-.103.2-.068.383-.18.547-.335s.296-.371.396-.649c.099-.279.15-.623.15-1.033z"/><path d="m6.5 41v15c0 1.009 1.22 2 2.463 2h40.074c1.243 0 2.463-.991 2.463-2v-15zm15.33 13-1.9-3.65c-.027 0-.064.002-.109.007-.046.005-.116.007-.212.007s-.241 0-.438 0-.463 0-.8 0v3.636h-1.641v-10.076h2.898c.428 0 .852.068 1.271.205s.795.342 1.128.615.602.604.807.991.308.822.308 1.306c0 .729-.169 1.349-.506 1.859-.338.511-.793.889-1.367 1.135l2.297 3.965zm11.061-8.955h-3.008v8.955h-1.654v-8.955h-3.008v-1.121h7.67zm8.298.123h-4.635v3.172h4.211v1.121h-4.211v4.539h-1.668v-10.076h6.303z"/></g><path fill="#c8bdb8" d="m51.5 39v-25.022c0-.766-.092-1.333-.55-1.792l-11.637-11.636c-.349-.349-.833-.55-1.328-.55h-29.022c-1.186 0-2.463.916-2.463 2.926v36.074zm-26-5h-8c-.553 0-1-.448-1-1s.447-1 1-1h8c.553 0 1 .448 1 1s-.447 1-1 1zm6-5h-10c-.553 0-1-.448-1-1s.447-1 1-1h10c.553 0 1 .448 1 1s-.447 1-1 1zm13 0h-9c-.553 0-1-.448-1-1s.447-1 1-1h9c.553 0 1 .448 1 1s-.447 1-1 1zm0-5h-6c-.553 0-1-.448-1-1s.447-1 1-1h6c.553 0 1 .448 1 1s-.447 1-1 1zm0-5h-2c-.553 0-1-.448-1-1s.447-1 1-1h2c.553 0 1 .448 1 1s-.447 1-1 1zm-7-15.609c0-.458.553-.687.877-.363l10.095 10.095c.324.324.095.877-.363.877h-10.609zm-7 13.609h8c.553 0 1 .448 1 1s-.447 1-1 1h-8c-.553 0-1-.448-1-1s.447-1 1-1zm-4.71.29c.38-.37 1.04-.37 1.42 0 .18.19.29.45.29.71s-.11.52-.29.71c-.19.18-.45.29-.71.29s-.521-.11-.71-.29c-.181-.19-.29-.44-.29-.71s.109-.52.29-.71zm-12.29-5.29h6c.553 0 1 .448 1 1s-.447 1-1 1h-6c-.553 0-1-.448-1-1s.447-1 1-1zm0 5h9c.553 0 1 .448 1 1s-.447 1-1 1h-9c-.553 0-1-.448-1-1s.447-1 1-1zm0 5h22c.553 0 1 .448 1 1s-.447 1-1 1h-22c-.553 0-1-.448-1-1s.447-1 1-1zm0 5h4c.553 0 1 .448 1 1s-.447 1-1 1h-4c-.553 0-1-.448-1-1s.447-1 1-1zm-.71 5.29c.37-.37 1.05-.37 1.42 0 .18.19.29.45.29.71s-.11.52-.29.71c-.19.18-.44.29-.71.29-.271 0-.521-.11-.71-.29-.181-.19-.29-.44-.29-.71s.109-.52.29-.71z"/></svg>