<svg enable-background="new 0 0 58 58" viewBox="0 0 58 58" xmlns="http://www.w3.org/2000/svg"><path d="m6.5 41v15c0 1 1.2 2 2.5 2h40c1.2 0 2.5-1 2.5-2v-15zm10.6 13.1c-1.5 0-2.7-.5-3.8-1.4l1-1.1c.8.7 1.7 1 2.8 1 1.3 0 1.9-.5 2-1.4 0-.7-.4-1.2-1.3-1.3-.4-.1-.8-.1-1.3-.2-.9-.1-1.5-.5-2-.9-.5-.5-.7-1.1-.7-1.8 0-.9.3-1.6.9-2.1s1.4-.8 2.4-.8c1.2 0 2.3.4 3.2 1l-.8 1.2c-.7-.5-1.6-.7-2.5-.8-.5 0-.9.1-1.2.3s-.5.6-.5 1.1c0 .3.1.5.3.8.2.2.6.4 1.1.5.3 0 .6.1 1.1.2.9.1 1.6.5 2.1 1 .4.5.7 1.2.7 1.9 0 1.8-1.2 2.8-3.5 2.8zm6.4-3c.1.3.2.6.4.8s.4.4.6.5c.3.2.6.2.9.2.8 0 1.5-.5 1.9-1.4h1.6c-.2.9-.6 1.6-1.2 2.1s-1.4.7-2.2.7-1.4-.2-2-.6c-.5-.4-.9-.8-1.2-1.2-.1-.2-.1-.3-.2-.4s-.1-.3-.1-.5c-.1-.4-.1-1.2-.1-2.3 0-1.2 0-1.9.1-2.3s.2-.7.3-.9c.2-.5.6-.9 1.2-1.2.5-.4 1.2-.6 2-.6 1 0 1.7.3 2.3.9s1 1.3 1.1 2.1h-1.6c-.1-.4-.3-.7-.7-1-.3-.3-.7-.4-1.2-.4-.4 0-.7.1-.9.2-.3.1-.5.3-.6.5-.2.2-.3.5-.4.8-.1.4-.1 1-.1 2s0 1.6.1 2zm9.4 3c-1.5 0-2.7-.5-3.8-1.4l1-1.1c.8.7 1.7 1 2.8 1 1.3 0 1.9-.5 2-1.4 0-.7-.4-1.2-1.3-1.3-.4-.1-.8-.1-1.3-.2-.9-.1-1.5-.5-2-.9-.5-.5-.7-1.1-.7-1.8 0-.9.3-1.6.9-2.1s1.4-.8 2.4-.8c1.2 0 2.3.4 3.2 1l-.8 1.2c-.7-.5-1.6-.7-2.5-.8-.5 0-.9.1-1.2.3s-.5.6-.5 1.1c0 .3.1.5.3.8.2.2.6.4 1.1.5.3 0 .6.1 1.1.2.9.1 1.6.5 2.1 1 .4.5.7 1.2.7 1.9 0 1.8-1.2 2.8-3.5 2.8zm8.1 0c-1.5 0-2.7-.5-3.8-1.4l1-1.1c.8.7 1.7 1 2.8 1 1.3 0 1.9-.5 2-1.4 0-.7-.4-1.2-1.3-1.3-.4-.1-.8-.1-1.3-.2-.9-.1-1.5-.5-2-.9-.5-.5-.7-1.1-.7-1.8 0-.9.3-1.6.9-2.1s1.4-.8 2.4-.8c1.2 0 2.3.4 3.2 1l-.8 1.2c-.7-.5-1.6-.7-2.5-.8-.5 0-.9.1-1.2.3s-.5.6-.5 1.1c0 .3.1.5.3.8.2.2.6.4 1.1.5.3 0 .6.1 1.1.2.9.1 1.6.5 2.1 1 .4.5.7 1.2.7 1.9-.1 1.8-1.3 2.8-3.5 2.8z" fill="#0096e6"/><path d="m51.5 39v-25c0-.8-.1-1.3-.6-1.8l-11.6-11.7c-.3-.3-.8-.5-1.3-.5h-29c-1.2 0-2.5.9-2.5 2.9v36.1zm-14-35.6c0-.5.6-.7.9-.4l10.1 10.1c.3.3.1.9-.4.9h-10.6zm-1 19.6v-4c0-.6-.4-1-1-1s-1-.4-1-1 .4-1 1-1c1.7 0 3 1.3 3 3v4c0 1.1.9 2 2 2 .6 0 1 .4 1 1s-.4 1-1 1c-1.1 0-2 .9-2 2v4c0 1.7-1.3 3-3 3-.6 0-1-.4-1-1s.4-1 1-1 1-.4 1-1v-4c0-1.2.5-2.3 1.4-3-.9-.7-1.4-1.8-1.4-3zm-20 2c1.1 0 2-.9 2-2v-4c0-1.7 1.3-3 3-3 .6 0 1 .4 1 1s-.4 1-1 1-1 .4-1 1v4c0 1.2-.5 2.3-1.4 3 .8.7 1.4 1.8 1.4 3v4c0 .6.4 1 1 1s1 .4 1 1-.4 1-1 1c-1.7 0-3-1.3-3-3v-4c0-1.1-.9-2-2-2-.6 0-1-.4-1-1s.4-1 1-1z" fill="#c8bdb8"/></svg>