<svg enable-background="new 0 0 58 58" viewBox="0 0 58 58" xmlns="http://www.w3.org/2000/svg"><path d="m6.5 41v15c0 1 1.2 2 2.5 2h40c1.2 0 2.5-1 2.5-2v-15zm18.2 4.4h-2.7v8.6h-1.5v-8.6h-2.7v-1.3h7v1.3zm7.8 5.2c0 1-.4 1.8-1 2.5-.7.7-1.5 1-2.5 1-.8 0-1.4-.2-2-.6-.5-.4-.9-.8-1.2-1.2-.1-.2-.1-.3-.2-.4s-.1-.3-.1-.5c-.1-.4-.1-1.2-.1-2.3 0-1.2 0-1.9.1-2.3s.2-.7.3-.9c.2-.5.6-.9 1.2-1.2.5-.4 1.2-.6 2-.6 1 0 1.7.3 2.3.9s1 1.3 1.1 2.1h-1.6c-.1-.4-.3-.7-.7-1-.3-.3-.7-.4-1.2-.4-.4 0-.7.1-.9.2-.3.1-.5.3-.6.5-.2.2-.3.5-.4.8-.1.4-.1 1-.1 2s0 1.6.1 2c.1.3.2.6.4.8s.4.4.6.5c.3.2.6.2.9.2.6 0 1.1-.2 1.5-.6s.6-.9.6-1.5v-.6h-2v-1.4h3.5zm7.5-5.4-4.5 7.4h4.5v1.4h-6.4v-1.3l4.5-7.4h-4.3v-1.3h6.2z" fill="#556080"/><g fill="#c8bdb8"><path d="m28.5 33c1.7 0 3-1.3 3-3v-3h-6v3c0 1.7 1.3 3 3 3zm-1-4h2c.6 0 1 .4 1 1s-.4 1-1 1h-2c-.6 0-1-.4-1-1s.4-1 1-1z"/><path d="m51.5 39v-25c0-.8-.1-1.3-.5-1.8l-11.7-11.6c-.3-.4-.8-.6-1.3-.6h-29c-1.2 0-2.5.9-2.5 2.9v36.1zm-14-35.6c0-.5.6-.7.9-.4l10.1 10.1c.3.3.1.9-.4.9h-10.6zm-14 21.6h4v-2h-2v-2h2v-2h-2v-2h2v-2h-2v-2h2v-2h-2v-2h2v-2h2v2h2v2h-2v2h2v2h-2v2h2v2h-2v2h2v2h-2v2h4v5c0 2.8-2.2 5-5 5s-5-2.2-5-5z"/></g></svg>