<svg enable-background="new 0 0 58 58" viewBox="0 0 58 58" xmlns="http://www.w3.org/2000/svg"><path d="m6.5 41v15c0 1 1.2 2 2.5 2h40c1.2 0 2.5-1 2.5-2v-15zm16.7 4.4h-2.7v8.6h-1.5v-8.6h-2.7v-1.3h7v1.3zm2.6 8.7h-1.5v-10h1.5zm8.5-8.6h-4.8v2.9h4.1v1.3h-4.1v4.3h-1.5v-10h6.4v1.5zm7.5 0h-4.8v2.9h4.1v1.3h-4.1v4.3h-1.5v-10h6.4v1.5z" fill="#ef394f"/><g fill="#c8bdb8"><path d="m39.5 19.1h-3.2c-.4 0-.8.4-.8.8v1.8c0 .4.4.8.8.8h3.2c.4 0 .8-.4.8-.8v-1.8c0-.4-.4-.8-.8-.8z"/><path d="m29.1 20.4c-3.3 0-5.9 2.6-5.9 5.9s2.6 5.9 5.9 5.9 5.9-2.6 5.9-5.9-2.7-5.9-5.9-5.9zm0 10c-2.3 0-4.1-1.8-4.1-4.1s1.8-4.1 4.1-4.1 4.1 1.8 4.1 4.1-1.9 4.1-4.1 4.1z"/><path d="m20.3 20c-.9 0-1.6.7-1.6 1.6s.7 1.6 1.6 1.6 1.6-.7 1.6-1.6c0-.8-.7-1.6-1.6-1.6z"/><path d="m51 12.2-11.7-11.7c-.3-.3-.8-.5-1.3-.5h-29c-1.2 0-2.5.9-2.5 2.9v36.1h45v-25c0-.8-.1-1.4-.5-1.8zm-8.5 21.2c0 1.1-.9 2-2 2h-22.9c-1.1 0-2-.9-2-2v-14.3c0-1.1.9-2 2-2h1v-2c0-.4.4-.8.8-.8h3.8c.4 0 .8.4.8.8v2h16.5c1.1 0 2 .9 2 2zm5.6-19.4h-10.6v-10.6c0-.5.6-.7.9-.4l10.1 10.1c.3.3.1.9-.4.9z"/></g></svg>