<svg enable-background="new 0 0 58 58" viewBox="0 0 58 58" xmlns="http://www.w3.org/2000/svg"><path d="m6.5 41v15c0 1 1.2 2 2.5 2h40c1.2 0 2.5-1 2.5-2v-15zm18.1 4.4h-2.7v8.6h-1.5v-8.6h-2.7v-1.3h7v1.3zm8.4 0h-2.7v8.6h-1.5v-8.6h-2.8v-1.3h7zm7.4.1h-4.8v2.9h4.1v1.3h-4.1v4.3h-1.5v-10h6.4v1.5z" fill="#28384c"/><g fill="#c8bdb8"><path d="m39.3 32.2c-.4 0-.8-.2-.9-.6l-1.9-4.9c-.1-.3-.1-.6.1-.9s.5-.4.8-.4h1v-1.9h-1.9c-.4 0-.8-.3-.9-.7l-2.7-10h-6.3l-2.7 10c-.1.4-.5.7-.9.7h-1.9v1.9h1c.3 0 .6.2.8.4.2.3.2.6.1.9l-1.9 4.9c-.1.4-.5.6-.9.6h-1.2l-.3 1h5.3l.3-1h-.6c-.3 0-.6-.2-.8-.4-.2-.3-.2-.6-.1-.9l1.9-4.9c.1-.4.5-.6.9-.6h7.8c.4 0 .8.2.9.6l1.9 4.9c.1.3.1.6-.1.9s-.5.4-.8.4h-.6l.3 1h5.7l-.3-1zm-6-9.2c-.2.2-.5.4-.8.4h-5.8c-.3 0-.6-.1-.8-.4-.2-.2-.2-.6-.2-.9l1.9-6.8c.1-.4.5-.7.9-.7h1.9c.4 0 .8.3.9.7l1.9 6.8c.3.4.3.7.1.9z"/><path d="m29.3 16.6-1.3 4.9h3.2l-1.4-4.9z"/><path d="m51 12.2-11.7-11.7c-.3-.3-.8-.5-1.3-.5h-29c-1.2 0-2.5.9-2.5 2.9v36.1h45v-25c0-.8-.1-1.4-.5-1.8zm-8 22.5c-.2.3-.5.4-.8.4h-7.8c-.4 0-.8-.3-.9-.7l-1-2.9c-.1-.3 0-.6.1-.9.2-.3.5-.4.8-.4h.6l-1.2-2.9h-6.5l-1.2 2.9h.5c.3 0 .6.1.8.4s.2.6.1.9l-1 2.9c-.1.4-.5.7-.9.7h-7.8c-.3 0-.6-.1-.8-.4s-.2-.6-.1-.9l1-2.9c.1-.4.5-.7.9-.7h1.3l1.2-2.9h-.5c-.5 0-1-.4-1-1v-3.9c0-.5.4-1 1-1h2.2l2.7-10c.1-.4.5-.7.9-.7h7.8c.4 0 .8.3.9.7l2.7 10h2.2c.5 0 1 .4 1 1v3.9c0 .5-.4 1-1 1h-.5l1.2 2.9h1.3c.4 0 .8.3.9.7l1 2.9c.1.3.1.6-.1.9zm5.1-20.7h-10.6v-10.6c0-.5.6-.7.9-.4l10.1 10.1c.3.3.1.9-.4.9z"/></g></svg>