<svg enable-background="new 0 0 58 58" viewBox="0 0 58 58" xmlns="http://www.w3.org/2000/svg"><path fill="#c8bdb8" d="m51.5 39v-25.022c0-.766-.092-1.333-.55-1.792l-11.637-11.636c-.349-.349-.833-.55-1.328-.55h-29.022c-1.186 0-2.463.916-2.463 2.926v36.074zm-26-5h-8c-.553 0-1-.448-1-1s.447-1 1-1h8c.553 0 1 .448 1 1s-.447 1-1 1zm6-5h-10c-.553 0-1-.448-1-1s.447-1 1-1h10c.553 0 1 .448 1 1s-.447 1-1 1zm13 0h-9c-.553 0-1-.448-1-1s.447-1 1-1h9c.553 0 1 .448 1 1s-.447 1-1 1zm0-5h-6c-.553 0-1-.448-1-1s.447-1 1-1h6c.553 0 1 .448 1 1s-.447 1-1 1zm0-5h-2c-.553 0-1-.448-1-1s.447-1 1-1h2c.553 0 1 .448 1 1s-.447 1-1 1zm-7-15.609c0-.458.553-.687.877-.363l10.095 10.095c.324.324.095.877-.363.877h-10.609zm-7 13.609h8c.553 0 1 .448 1 1s-.447 1-1 1h-8c-.553 0-1-.448-1-1s.447-1 1-1zm-4.7.29c.36-.37 1.04-.37 1.41 0 .18.19.29.45.29.71s-.11.52-.29.71c-.19.18-.45.29-.71.29s-.521-.11-.71-.29c-.181-.19-.29-.44-.29-.71s.109-.52.3-.71zm-12.3-5.29h6c.553 0 1 .448 1 1s-.447 1-1 1h-6c-.553 0-1-.448-1-1s.447-1 1-1zm0 5h9c.553 0 1 .448 1 1s-.447 1-1 1h-9c-.553 0-1-.448-1-1s.447-1 1-1zm0 5h22c.553 0 1 .448 1 1s-.447 1-1 1h-22c-.553 0-1-.448-1-1s.447-1 1-1zm0 5h4c.553 0 1 .448 1 1s-.447 1-1 1h-4c-.553 0-1-.448-1-1s.447-1 1-1zm-.71 5.29c.37-.37 1.05-.37 1.42.01.18.18.29.44.29.7s-.11.52-.29.71c-.19.18-.45.29-.71.29s-.521-.11-.71-.29c-.181-.19-.29-.45-.29-.71s.109-.52.29-.71z"/><path d="m6.5 41v15c0 1.009 1.22 2 2.463 2h40.074c1.243 0 2.463-.991 2.463-2v-15zm16.367 4.045h-3.008v8.955h-1.654v-8.955h-3.008v-1.121h7.67zm9.133 8.955h-1.9l-1.6-3.801h-.137l-1.722 3.801h-1.9l2.557-4.895-2.721-5.182h1.873l1.777 4.102h.137l1.928-4.102h1.873l-2.721 5.182zm9.529-8.955h-3.008v8.955h-1.654v-8.955h-3.008v-1.121h7.67z" fill="#95a5a5"/></svg>