<svg enable-background="new 0 0 58 58" viewBox="0 0 58 58" xmlns="http://www.w3.org/2000/svg"><path d="m6.5 41v15c0 1 1.2 2 2.5 2h40c1.2 0 2.5-1 2.5-2v-15zm15.5 13.1h-1.2l-3.3-10h1.6l2.3 7.6 2.3-7.6h1.6zm5.7-3c.1.3.2.6.4.8s.4.4.6.5c.3.2.6.2.9.2.8 0 1.5-.5 1.9-1.4h1.6c-.2.9-.6 1.6-1.2 2.1s-1.4.7-2.2.7-1.4-.2-2-.6c-.5-.4-.9-.8-1.2-1.2-.1-.2-.1-.3-.2-.4s-.1-.3-.1-.5c-.1-.3-.2-1.1-.2-2.2 0-1.2 0-1.9.1-2.3s.2-.7.3-.9c.2-.5.6-.9 1.2-1.2.5-.4 1.2-.6 2-.6 1 0 1.7.3 2.3.9s1 1.3 1.1 2.1h-1.6c-.1-.4-.3-.7-.7-1-.3-.3-.7-.4-1.2-.4-.4 0-.7.1-.9.2-.3.1-.5.3-.6.5-.2.2-.3.5-.4.8-.1.4-.1 1-.1 2s.1 1.5.2 1.9zm12.8-5.6h-4.8v2.9h4.1v1.3h-4.1v4.3h-1.5v-10h6.4v1.5z" fill="#b47500"/><g fill="#c8bdb8"><path d="m26.2 23.7.6.6s0 0 .1.1c.2.1.4.3.6.4.1 0 .1.1.2.1.2.1.4.2.6.2.1 0 .1 0 .2.1.3.1.5.1.8.1s.5 0 .8-.1c.1 0 .1 0 .2-.1.2-.1.4-.1.6-.2.1 0 .1-.1.2-.1.2-.1.4-.2.6-.4 0 0 0 0 .1-.1.2-.2.4-.4.6-.6.5-.6.7-1.3.7-2.2 0-2-1.6-3.6-3.6-3.6s-3.6 1.6-3.6 3.6c-.4.9-.2 1.6.3 2.2z"/><path d="m18.2 33.3h21.7v-19h-21.7zm2.8-5.4c0-2 1.3-3.7 3.1-4.3-.3-.6-.4-1.3-.4-2.1 0-3 2.4-5.4 5.4-5.4s5.4 2.4 5.4 5.4c0 .7-.1 1.4-.4 2.1 1.8.6 3.1 2.3 3.1 4.3v2.7c0 .5-.4.9-.9.9h-14.4c-.5 0-.9-.4-.9-.9z"/><path d="m35.4 27.9c0-1.4-1-2.5-2.3-2.7-.4.4-.8.8-1.3 1.1-.1.1-.3.2-.4.2 0 0 0 0-.1 0-.1.1-.3.1-.4.2h-.1c-.1 0-.3.1-.4.1h-.1c-.1 0-.3 0-.4.1h-.1c-.2 0-.4 0-.6 0s-.4 0-.6 0c-.1 0-.1 0-.2 0s-.3 0-.4-.1c-.1 0-.1 0-.2 0s-.3-.1-.4-.1h-.1c-.1 0-.3-.1-.4-.2 0 0 0 0-.1 0-.2-.1-.3-.1-.4-.2-.5-.3-.9-.6-1.3-1.1-1.3.2-2.3 1.3-2.3 2.7v1.8h12.6z"/><path d="m51 12.2-11.7-11.7c-.3-.3-.8-.5-1.3-.5h-29c-1.2 0-2.5.9-2.5 2.9v36.1h45v-25c0-.8-.1-1.4-.5-1.8zm-2.9 1.8h-6.4v20.2c0 .5-.4.9-.9.9h-23.5c-.5 0-.9-.4-.9-.9v-20.8c0-.5.4-.9.9-.9h20.2v-9.1c0-.5.6-.7.9-.4l10.1 10.1c.3.3.1.9-.4.9z"/></g></svg>