<svg xmlns="http://www.w3.org/2000/svg" viewBox="0 0 45 58"><path fill="#c8bdb8" d="M51.5,39V14A2.29,2.29,0,0,0,51,12.19L39.31.55A1.88,1.88,0,0,0,38,0H9C7.78,0,6.5.92,6.5,2.93V39ZM37.5,3.39A.51.51,0,0,1,38.38,3L48.47,13.12a.51.51,0,0,1-.36.88H37.5ZM23.5,15A1,1,0,0,1,25,14.16l11,7a1,1,0,0,1,.46.84,1,1,0,0,1-.46.84l-11,7a1,1,0,0,1-.54.16,1,1,0,0,1-.48-.12A1,1,0,0,1,23.5,29Z" transform="translate(-6.5 0)"/><path fill="#d75e72" d="M6.5,41V56A2.42,2.42,0,0,0,9,58H49a2.42,2.42,0,0,0,2.46-2V41ZM22,54.06H20l-1.21-5.89-.36-2-.35,2-1.22,5.89h-2L12.08,44h2.24l1.33,5.76.29,1.61.29-1.57L17.36,44h2.22l1.2,5.76.3,1.61.31-1.54L22.73,44h2.15Zm13.81,0h-2V46.43c0-.36,0-.63,0-.82L32,54.06H30l-1.89-8.45v.82c0,.35,0,.62,0,.82v6.81h-2V44h3.06L31,51.91,32.82,44h3Zm6.58,0h-2L37,44h2.25l2.18,7.64L43.68,44h2.18Z" transform="translate(-6.5 0)"/></svg>