<svg enable-background="new 0 0 58 58" viewBox="0 0 58 58" xmlns="http://www.w3.org/2000/svg"><path d="m6.5 41v15c0 1 1.2 2 2.5 2h40c1.2 0 2.5-1 2.5-2v-15zm14.1 9v4.1h-1.4v-4.1l-3-5.9h1.6l2.1 4.4 2.1-4.4h1.6zm12.3 4.1h-1.5v-6.2l-2.1 4.8h-1.3l-2-4.9v6.2h-1.5v-10h1.4l2.9 6.5 2.8-6.5h1.4v10.1zm8.5 0h-6.4v-10h1.5v8.5h4.8v1.5z" fill="#9777a8"/><path d="m51.5 39v-25c0-.8-.1-1.3-.5-1.8l-11.7-11.6c-.3-.4-.8-.6-1.3-.6h-29c-1.2 0-2.5.9-2.5 2.9v36.1zm-22-6c0 .6-.4 1-1 1s-1-.4-1-1v-3c0-.6.4-1 1-1s1 .4 1 1zm8-29.6c0-.5.6-.7.9-.4l10.1 10.1c.3.3.1.9-.4.9h-10.6zm-1 20.6v-4c0-.6-.4-1-1-1s-1-.4-1-1 .4-1 1-1c1.7 0 3 1.3 3 3v4c0 1.1.9 2 2 2 .6 0 1 .4 1 1s-.4 1-1 1c-1.1 0-2 .9-2 2v4c0 1.7-1.3 3-3 3-.6 0-1-.4-1-1s.4-1 1-1 1-.4 1-1v-4c0-1.2.5-2.3 1.4-3-.9-.7-1.4-1.8-1.4-3zm-8-2c.8 0 1.5.7 1.5 1.5s-.7 1.5-1.5 1.5-1.5-.7-1.5-1.5.7-1.5 1.5-1.5zm-12 4c1.1 0 2-.9 2-2v-4c0-1.7 1.3-3 3-3 .6 0 1 .4 1 1s-.4 1-1 1-1 .4-1 1v4c0 1.2-.5 2.3-1.4 3 .8.7 1.4 1.8 1.4 3v4c0 .6.4 1 1 1s1 .4 1 1-.4 1-1 1c-1.7 0-3-1.3-3-3v-4c0-1.1-.9-2-2-2-.6 0-1-.4-1-1s.4-1 1-1z" fill="#c8bdb8"/></svg>