<svg enable-background="new 0 0 58 58" viewBox="0 0 58 58" xmlns="http://www.w3.org/2000/svg"><g fill="#c8bdb8"><path d="m28.5 33c1.654 0 3-1.346 3-3v-3h-6v3c0 1.654 1.346 3 3 3zm-1-4h2c.552 0 1 .447 1 1s-.448 1-1 1h-2c-.552 0-1-.447-1-1s.448-1 1-1z"/><path d="m51.5 39v-25.022c0-.766-.092-1.333-.55-1.792l-11.637-11.636c-.349-.349-.833-.55-1.328-.55h-29.022c-1.186 0-2.463.916-2.463 2.926v36.074zm-14-35.609c0-.458.553-.687.877-.363l10.095 10.095c.324.324.095.877-.363.877h-10.609zm-14 21.609h4v-2h-2v-2h2v-2h-2v-2h2v-2h-2v-2h2v-2h-2v-2h2v-2h2v2h2v2h-2v2h2v2h-2v2h2v2h-2v2h2v2h-2v2h4v5c0 2.757-2.243 5-5 5s-5-2.243-5-5z"/></g><g fill="#556080"><path d="m37.251 45.858c-.142-.196-.34-.36-.595-.492s-.593-.198-1.012-.198h-1.23v3.992h1.504c.2 0 .398-.034.595-.103.196-.068.376-.18.54-.335s.296-.371.396-.649.15-.622.15-1.032c0-.164-.023-.354-.068-.567-.046-.214-.139-.419-.28-.616z"/><path d="m6.5 41v15c0 1.009 1.22 2 2.463 2h40.074c1.243 0 2.463-.991 2.463-2v-15zm19.766 4.25-4.799 7.205-.273.219h5.072v1.326h-6.699v-1.326l4.799-7.205.287-.219h-5.086v-1.326h6.699zm4.005 8.75h-1.668v-10.076h1.668zm8.655-5.571c-.173.415-.415.764-.725 1.046s-.684.501-1.121.656-.921.232-1.449.232h-1.217v3.637h-1.641v-10.076h2.898c.428 0 .852.068 1.271.205s.795.342 1.128.615.602.604.807.991.308.822.308 1.306c.001.511-.086.973-.259 1.388z"/></g></svg>