<svg xmlns="http://www.w3.org/2000/svg" viewBox="0 0 318.2 55.8"><path d="M29.8 1.1c-14.4 0-26 11.7-26 26.1s11.7 26.1 26 26.1c14.4 0 26-11.7 26-26.1S44.2 1.1 29.8 1.1zm-.1 45.1c-10.5 0-19.1-8.6-19.1-19.1S19.2 8 29.7 8c10.5 0 19.1 8.6 19.1 19.1 0 10.5-8.5 19.1-19.1 19.1zm0-42.8C16.4 3.4 5.5 14.2 5.5 27.6s10.8 24.2 24.2 24.2S53.9 41 53.9 27.6 43.1 3.4 29.7 3.4zm0 42.8c-10.5 0-19.1-8.6-19.1-19.1S19.2 8 29.7 8c10.5 0 19.1 8.6 19.1 19.1 0 10.5-8.5 19.1-19.1 19.1z" fill="#3d535b"></path><ellipse cx="29.9" cy="27.1" rx="24.7" ry="24.7" fill="none" stroke="#f2f2f2" stroke-width="2" stroke-miterlimit="10"></ellipse><path d="M31.7 31.9l.3-.2.2-.1.4-.2.2-.1.2-.1h.2l.4-.3v-.2h.2l.4-.3.2-.1.3-.3-.2.1-.1-.1h-.2l-.2.2-.3.4-.1.1h-.2l.1-.2.2-.2v-.2l.2-.4-.6.7-.4.2-.6.1-.2.1-.1.1h-.2l-.4.2-.2-.1-.2.1v.2l-.2-.1-.1.2-.4.2V32.2h.5l-.2.1.4-.2.7-.2M30.4 36l.2-.4v-.2l-.2.6" fill="#3d535b"></path><path d="M27.6 45.6H27l-.2-.1-.1.2.1.1-.2-.1h-.2l-.2.2.1-.2-.2-.2-.1-.2-.1-.2-.1-.2-.2.1-.2-.1h-.2l-.4-.2-.6-.1.1-.1.2.1h.4l.2.2h.1v-.2l.2.2.2.1.2-.2.1.2.2.2.2.1.2.2.1-.1h.1l.1-.2-.1-.2-.2-.1v-.2h-.2l-.4-.2-.2-.2-.4-.4.2.1.4.4.4.2.1-.2-.2-.2.1-.1.2.1.2.2v-.2l-.1-.4h-.2l-.2-.1.1-.1-.2-.2h-.2l-.2-.2V43l-.4-.2-.1-.2-.2-.2-.1-.1-.1-.2-.4-.3h-.2.2l.2.1.2.2.2.2.2.1.2.2h.1l.4.4h.2v.1l.2.1.1-.3v-.2l-.1-.2.2.1v-.2l-.4-.2h-.2v-.1h-.2V42l-.2-.2v-.1h-.7l-.1-.1-.3-.3v-.2H24l-.1.1h-.2l-.1-.2h.1v-.2l.1-.6.1.1h.1l.1-.1v-.1l.2-.2V39.6l-.1-.2-.2-.1-.3-.3-.1-.1-.2-.1h-.3l-.2-.2.1-.2-.1-.2-.2-.2h-.4l-.1.4-.1.2-1.1-.8-.2.1v.2l-.1.2v.4l-.1.3-.2.4-.2.2H20l-.1.4h-.4l-.1.2-.1.3-.1.2-.1.5-.1.2-.2.1-.4-.1v-.1l-.2-.2H18v.4l-.1.2-.1.1-.1.3c2.9 2.3 6.3 3.7 10.1 4V46l-.2-.4zm-9.9-3.4l.1-.3.1-.1.1-.2v-.4h.2l.2.2v.1l.4.1.2-.1.1-.2.1-.5.1-.2.1-.3.1-.2h.4l.2-.4h.2l.2-.2.2-.4.1-.2v-.4l.1-.2v-.2l.2-.1 1.1.7.1-.2.1-.4V38l-.2-.2v-.2l-.2-.1.1-.2h-.4l-.2-.2-.2-.1-.3-.1-.1.2h-.2l-.2.2-.1.2h-.3l-.2-.1-.2-.2h-.1v.2l-.3.4-.2-.1-.1.2-.1.2-.2.2-.1.2-.2.2-.2.2-.2-1.8-2.5.3-.3-3.1-.1.1H15v.2l.1.2.1.7-.1.2-.1.6v.5h-.1v.2l-.1.2v.2l-.1.4-.3.2-.2.4c1 1.4 2.2 2.7 3.5 3.8zm-2.9-12.5l.3-.1.4-.3.2-.2v.1l.7-.5v.1l.1.8 1.9-.2 2.8-.4 3.2-.5 2.1-.3.2.1.1.2h.2l.2.2.2.5v.2l.2.2.4.2h.2l.2.1v.1l-.2.3-.1.2v.2l-.3.5-.2.2.1.2h.1l.1.2-.1.2-.2.2v.4l.2.2.2.2v.2l.2.2.1.1.2.2.4.4-.1.2-.2.2-.2.2h-.1l-.2.2v.2l-.2.2h-.2l-.2.2-.1-.1H27l-.2.1-.1.2v.3l-4.6.7-4.1.4-2.5.3-.3-3.1-.4-4.4v-.2m2.9-4.1l.2.3-.1-.1-.1-.2m.2.3l.1.1-.1-.1m6 13.2l.3-.1.2.2v.2l-.1.2v-.2l-.1-.1-.3-.2m2.8-3.1l.1-.2.1-.2.2-.1h.4l.1.1-.1.1v.2l-.1.2-.1.1.1.2v.2l.1.2.2.2.2.2.1.2V38l.2.2.1.2.4.4h.2l.1.1-.1.2v.2h.1l-.2.2.1-.1h.2l.1.4-.2.2-1.4.2-.2-.2-.2-1.5-.5-2.5m.6.2l.1-.1.1-.3.1-.2.2-.2.1-.1h.1l.2-.1V35l.1-.2h.1l.2-.2.2-.2.1-.2-.4-.4-.2-.2-.1-.1-.2-.3V33l-.2-.1-.2-.2v-.4l.2-.2.1-.2-.1-.2h-.1l-.1-.2.2-.2.3-.5v-.2l.1-.2.2-.3 2 .9v.4l-.1.3v.1l-.2.2H30l-.1.2v.6l.1.1h.2l.4.1V35 34.4l-.1-.2-.1.2h-.1l.1.2v.3l-.1.2.1.2-.1.2-.1.2v.3l-.2.1.1.2-.1.2.1.2h-.2l-.2.2v.1h.1l-.1.2-.1.4-.1.2-.1.2-.1.2h-.2V38l.1-.3-.2-.2h-.4l-.2.1-.3-.3-.2-.1-.2-.2-.4-.4v-.4" fill="#3d535b"></path><path d="M28.8 40.1l.1-.1v-.1l-1.4.2-.1-.1-.2-1.5-.5-2.5-4.6.7-4.1.4.2 1.8.2-.2.2-.2.1-.2.2-.2.1-.2.2-.1.2.1.3-.4v-.2h.1l.2.2.2.1h.3l.1-.2.2-.2h.2l.1-.2.2-.1.2.1.2.2h.4l-.1.2.2.1v.2l.2.2v.1h.4l.2.2.1.2-.1.2.2.2h.3l.2.1.1.1.2.1.3-.1.2.2v.2l-.1.2v.3l-.2.2v.2l-.1.2H24l-.1.2v.2l.1.1.2-.2v-.1l.2-.1.1.2.1.2.2.2V40.9l.1.2.2.2.2-.1h.2l.2.2H26l.2.2.1-.2-.3-.3-.2-.1-.2-.2-.3-.2-.1-.2-.1-.4v-.1.2l.2.5.2.2.2.1.1.2.1-.2-.4-.4-.1-.5-.1-.2.1-.2-.1-.2V39l-.1-.1.2.1h.1l-.2-.1.1-.2-.4-.8h.5l-.2-.2.2.1v-.4l.1-.1.2.2v-.3l.1-.1v.2h.2l.2-.2-.1-.2v-.1h.2l.1-.1-.1.2.2-.1.1.1-.3.4h.3l-.2.1h-.2l-.3.1-.1.6.1.2.1-.2h.1V38.4l-.2.2h-.2v.4l.1-.2.2-.1.1-.1.1.2h.2l-.1.2.1.2-.2-.2-.2.1-.1.2.1.2.1-.2h.2l.1.1.1.2.2.1.2-.1-.1.2-.5-.1-.1.2.2-.1-.1.4v.2l.2.2v-.2l.2.1.2.2.2.1v-.2l.1-.2v.2l.1.1.2-.4v.4l.1.1-.2.2v.2l.2-.1.1.2.2-.1-.1.2-.1.2v.1l.4-.1h.2l-.2.2.2.2-.1.2h-.2v.4l-.2.4V43.6l-.1.1v.4l.2.3.2-.4v-.4l.1-.2.1-.2.1-.2.2.2.1-.2v-.4l.1-.4.2-.3v-.2l.1-.3v-.2l.2-.2.1-.4.1.1.1-.4-.9-.2zm.6-22.8l.8-.2 3.2-.6-.1.1.1.3-.1.4v.2l.1.2.1.2v.2l-.2.3-.3.5h-.1l-.2.2v.2l.1.4-.1.4v.2l-.1.2v.5l-.1.2v.3l-.1.2.1.8v.4l.1.7-.1.2v.2l.1.3.2.2-1.8.2-.1-.2v-.1l-.3-2.2-.3-.3-.1.2-.2-.2.1-.4-.1-.4-.1-.2-.1-.4v-.4l.1-.1v-.2l-.1-.2v-.4l-.2-.2-.1-.2v-.5l-.1-.2.1-.2v-.2l-.1-.4M29 40v.2-.2m1.9-15.2l1.8-.2 2.6-.4.3-.3.1-.2h.1l.1-.2.2-.1h.2l-.1.2.1.1v.2l.2.2h.4l-.1.2-.4.3-.1.2v.1l-.2.2.1.2H36l.1.2.2.1.2-.1.2.1.4.4.2.2-.2-.1v.2l.2.1.2.1.2.4.1.1h.2l.2.1.4-.3.2-.2-.1-.4h-.2l-.1-.2-.2-.2-.2-.1h.2l.2.1.2.2.2.4.1.4-.1.2h-.2l-.6.3h-.1l-.1.2-.2.1-.2.1-.1-.4v-.2l-.2.1-.1.2-.2.2-.1.3h-.2l-.1.1v-.1l-.1-.3-.2-.1.1-.2v-.2l-.1.2-.1.1-.1-.1-.1-.2v-.2l-.1-.1-.1-.2-.2-.2-.8.2h-.4l-1.2.3-.2.1h-.7l-1.3.2-.1-.1.1-2.1.1-.2m-.1 2.4l1.3-.2h.2l.4-.1h.1l.2-.1 1.2-.2h.4l.3 1.7v.2l-.1.2v.2l-.1-.1-.3.2-.4.3h-.2v-.1h-.1l.1.2v.1l-.6.1h-.4l-.2.1h-.2l-.3.4-.1-.1-.2.2-.2.1-.4.4-.2.1-.2-.2v-.1l.3-.3V30l-.1-.3-.2-2.5m1.9-2.7l-.2-.2-.1-.3v-.2l.1-.2-.1-.6v-.4l-.1-.8.1-.2v-.3l.1-.2.1-.2v-.2l.1-.2v-.2l.1-.4-.1-.4v-.2l.2-.2h.1l.4-.4.2-.3v-.2l-.1-.2-.1-.2v-.2l.1-.4-.1-.3.1-.1v-.2l.1-.4V16l.2-.1.2.1.2-.2v.1l1.2 5 .2.7v.4l.1.2.2.2.2.1v.2l.2.2h.1l.1.1-.1.4v.2h-.2l-.2.1-.1.2h-.1l-.1.2-.3.3-2.7.1m1.4-9.2l.2-.2.2.1.2-.1v-.2l.1-.2h.1l.2.1-.2-.5.1-.2.1-.2.4-.4-.1-.2.3-.4-.2-.2v-.4l-.1-.2.1-.6.2-.3-.1-.9 1.1-2.9h.4l.1.4.1.2.2.1.2-.2.2-.1.2-.2.2-.1.2-.2.2-.1.2.1.4.2.4.3.2.1.7 2.9.2.7v.2l.1.2v.4h.2l.2.2h.2l.2-.1.1.1-.1.2v.2l.1.2v.2l.1.2.2.2.2-.2h.2l.1.1.3.4-.3.3.2.2.2-.2v.3l.2.2v.2l-.2.4-.2.1-.3-.1.1.2-.2-.1v.1l-.2.1v.2H42l-.1.2h-.1l-.1-.1-.1.2v.2l-.1.2v-.2.2l-.1-.2-.1.1.1.2-.2.3-.1-.2-.5-.2v.2l-.2.2-.2-.2v.2l-.1.2v.2l.1.2-.3-.1h-.4l.1-.1v-.2h-.2l.1-.2-.1-.2v.4l-.3.2.1.2v.2l-.1.2v.4l.1.2-.2.2v.1l-.2-.1h-.2l-.1.2v.4l-.1-.1v-.4.2l.1.4-.2-.1.1-.2-.3-.2H38l-.1.3.1.2v.3l-.3-.8v-.2.4l.1-.1.2.7-.1.2-.1-.4h-.1l-.1.2-.1.2v-.2.2l-.1-.4-.3.4-.1.2v.2l.1.1-.3.4.1.2-.2.4-.2.2v.4l-.1.2-.2.2h-.1l-.1-.2v-.2l-.2-.1-.2-.2-.1-.2v-.4l-.2-.7-1.2-5v-.2m.5 11.4l.8-.2.2.2.1.2.1.1v.2l.1.2-.1.1-.1-.2v.2l-.1.2.1.2v.2l.1.3-.1.2-.6.4h-.2v-.2l.1-.2v-.2l-.4-1.7m1.3.6l.1.1-.1.1v-.2m.1.1l.2-.1.1-.2v.2l-.1.2-.2-.1m.2.1l.2.1.1.3v.1l-.1.2-.1-.2-.1-.5m-18.5-1.9l.2.3-.1-.1-.1-.2m.2.3l.1.1-.1-.1M30.4 36l.2-.7v.2l-.2.5m-2.9-.4l-.1-.1H27l-.2.1-.1.2v.2m0 0H23.4l-.8.1H19.1l-.4.1h-.8m9.6-.6l-.1.3-.1.2-.1.1.1.2v.4m3.6-12H32.7m0-.3h2.5l.2-.2.1-.1.1-.2h.1l.1-.2.2-.1h.2m-5.4 3.5l-.1-.1.1-1v-.2l.1-.9.1-.2m3.6 1.9H33l-.2.3H30.7m4.2 2v-.2l.1-.2v-.4l-.2-.9V26.7M31 30.8l-.2-.2v-.1l.3-.3V30l-.1-.3-.1-.8v-1.5m5.4-4.8l-.3-.3v-.2l-.2-.1-.2-.2-.1-.2v-.4l-.1-.2v-.2l-.1-.2v-.4l-.1-.2v-.2l-.1-.2v-.2l-.1-.5-.1-.4v-.2l-.1-.3v-.2l-.1-.2v-.5l-.1-.2v-.4l-.1-.2v-.2l-.1-.2V15.6m-3.5 9.2l-.1-.2V24.3l-.1-.6v-1.3l-.1-.1-.2-.2-.1.2-.3-.4v-.8l-.1-.2v-.2l-.1-.2v-.4l.1-.1v-.2l-.1-.2v-.4l-.2-.2-.1-.2v-.5l-.1-.2.1-.2v-.2m5.1 9h.8l.2.2.1.2.1.1v.2l.1.2.2.2.1.1.2.1.1.4m-21.7 1.4V31.6l.1.7V33.2l.1.4V34.3" fill="#3d535b"></path><path d="M14.8 37.9l.1-.4V36.9h.1v-.5l.1-.6.1-.2-.1-.6-.1-.4.1-.2h.1l.1-.1-.4-4.3v-.1l-1 .7-.4.3-.2.1-.2.2-.1.3-.3.4h-.3l-.2-.1-.4.2-.2.1-.2.1-.1.1c.7 2.3 1.7 4.4 3.1 6.2l.2-.4.2-.2zM34.7 30l-.2.1-.1-.1h-.2l-.2.2-.3.4-.1.1h-.2l.1-.2.2-.2v-.2l.2-.4-.6.7-.4.2-.6.1-.2.1-.1.1h-.2l-.4.2-.2-.1-.2.1v.2l-.2-.1-.1.2-.1-.1v-.2l.2-.4-.2-.2v-.1l.3-.3v-.2l.1-.2-.3-2.5-.1-.1.1-2.1.1-.2-.1-.2v-.1l-.3-2.2-.3-.3-.1.2v-.3l.1-.4-.1-.4-.1-.2-.1-.4v-.4l.1-.1v-.2l-.1-.2v-.4l-.2-.2-.1-.2v-.5l-.1-.2.1-.2V17.6l-1.5.3-1.4.2h-.2l-.5-.1-.8.8-.7 1.1v.3l-.3.4-.1.1-.2.2-.4.4v.2l.2.2v.1-.2l.2-.1v.3l.3-.1-.1.2v.2l-.2.1.2.5v.1l.1.2v.2l-.1.2h-.2l-.2.2-.6.2-.1.2-.2.2-.2.1-.1.2-.1-.1h-.4l-.4.1-.5.2-.5-.3h-.8l-.8.1-.4.2-.2.1h-.2l-.2.1-.2.1.1.4v.2l.4.1v.1l-.2.1.2.5v.2l-.3.4-.1.2-.2.2-.3.2-.3.5-.5.4-.1.1v.1l.1.8 1.9-.2 2.8-.4 3.2-.5 2.1-.3.2.1.1.2h.2l.2.2.2.5v.2l.2.2.4.2h.2l.2.1v.1l2 .9-.1-.5-.2-.2V29.8v.2l.2.2.1.3v.7l-.1.4.1.1-.1.3v.2h.5l-.2.1.4-.2.7-.4h.1l.2-.2.2-.1.4-.2.2-.1.2-.1h.2l.4-.3v-.2h.2l.4-.3.2-.1.3-.3v.2z" fill="#3d535b"></path><path d="M30.6 32v-.1H30.3V31.6l.1-.3.3-.2.1-.2h.1v-.2l.2-.1h.2l.4-.2h.1l.1-.2.2-.1.6-.1.4-.1.6-.7h.1v.1l-.2.3v.4l-.1.1h.2l.3-.4.2-.1h.4l.2-.1h.1v.1l-.3.3-.2.1-.4.3h-.2v.1l-.4.3h-.2l-.2.1-.2.1-.4.2-.2.1-.2.2h-.1l-.9.4-.4.2zm-.2-.3h.6l.7-.4h.1l.2-.2.2-.1.4-.2.2-.1.2-.1h.2l.4-.3v-.1h-.4v-.1l.1-.2.2-.2v-.1l-.1.4-.4.2-.6.1-.2.1-.1.2H31.8l-.4.2h-.1l-.1.1V31.2L31 31l-.1-.1-.1.2-.3.2-.1.2v.2zm3.6-1.9l-.3.4h.2l.4-.3.2-.1H34zm-3.6 5.8l.1-.7h.1l.1.1v.2l-.3.4zm-2.6 10.1c-3.7-.2-7.1-1.6-10.1-4v-.1l.1-.3.1-.1V40.5H18.2l.2.2v.1l.3.1.2-.1.1-.2.1-.4.1-.2.1-.3.1-.2h.5l.2-.4h.2l.1-.2.2-.4.1-.2v-.4l.1-.2V37.4l.2-.1h.1l1 .7.1-.2.1-.4h.5l.2.2.1.2v.2l.2.1h.2l.2.1.1.1.2.1.2.1.1.2v.4l-.2.2v.1l-.1.3h-.2l-.1.5v.4h.2l.2-.2h.2l.1.1v.2l.3.3h.8v.1l.2.1v.1h.1l.1.1h.1l.4.2V41.9h-.2V42.2l-.1.3-.2-.1h-.2l.2.2h.2l.2.2H26.6l.1.1.1.4v.2h-.1l-.2-.2h-.1l.1.2v.1l-.1.2H26.7v.2l.2.1.1.2-.1.2h-.1l-.1.1-.2-.2-.2-.1-.2-.2v.1l.1.2.2.2.2.2H26.9l.1-.2.2.1h.6l.1.5-.1.5zm-1.4-.3c.4.1.9.1 1.3.1l-.1-.4H27v.2l.1.1v.1H27l-.2-.1h-.4zm-8.6-3.7c2.5 2 5.4 3.3 8.4 3.7l.1-.2-.2-.2-.1-.1-.1-.2-.1-.2h-.2l-.2-.1h-.2l-.4-.2-.6-.1V44l.1-.1h.1l.2.1h.5l.2.2V43.9h.1l.2.2.1.1.2-.1.1.2.2.2.2.1.1.2.1-.1h.1l.1-.2-.1-.2-.2-.1V44H25.9l-.2-.2-.4-.4v-.1h.1l.2.1.4.4.3.2.1-.1-.1-.2.1-.1h.1l.2.1.1.1v-.1l-.1-.3h-.1l-.2-.1v-.1l-.1-.1h-.2l-.2-.2v-.1l-.4-.2-.1-.2-.4-.4-.1-.1-.1-.2-.4-.3h-.2v-.1l.1-.1h.2l.2.1.2.2.2.2.2.1.1.2h.1l.4.4h.2l.1.1.1-.2v-.4h.2v-.1l-.4-.2h-.2v-.1h-.1l-.1-.1v-.1l-.2-.1v-.1H25l-.1-.1-.3-.3v-.1h-.1l-.5.1-.1.1h-.2l-.1-.2v-.2l.1-.6h.1l.1.1v-.2l.2-.2V39.2l-.1-.5-.1-.1-.2-.1-.1-.1-.2-.1h-.3l-.2-.2V37.8l-.1-.2-.2-.1h-.3l-.1.3-.1.2-1-.7-.1.1v.2l-.1.2v.4l-.1.2-.2.4-.2.2h-.1l-.2.4h-.4l-.1.2-.1.3-.1.2-.1.4-.1.2-.4.3-.4-.1v-.2l-.1-.2h-.1v.4l-.2.4-.1.1-.1.3zm7.4 2.6h.2l-.1-.1-.1.1zm.7-.4l.1.1-.1-.1zm-.5-1.7l.2.1-.2-.1zm-7.7-.5c-1.4-1.1-2.6-2.3-3.6-3.7v-.1l.2-.4.2-.2.1-.4V36.3l.1-.1h.1v-.4l.1-.6.1-.2v-.7l-.1-.2V34l.1-.2h.2l.1-.1h.1l.3 3.1 2.4-.3.1 1.6.1-.1.2-.2.1-.2.2-.2.1-.2.2-.1h.1l.3-.4V36.4h.2l.3.6h.5v-.2l.2-.2H21l.1-.2.2-.1h.1l.2.1.2.1h.4v.1l-.2.2h.1V37.1l.1.2v.1l-.1.4-.1.2-1-.7-.1.1v.2l-.1.2v.4l-.1.2-.2.6-.2.2h-.1l-.2.4h-.4l-.1.2-.1.3-.1.2-.1.4-.1.2-.3.1-.4-.1v-.2l-.1-.2h-.1v.4l-.2.4-.1.1-.2.3zM14.3 38c1 1.4 2.1 2.6 3.4 3.6l.1-.2.1-.1V40.6H18.2l.2.2v.1l.3.1.2-.1.1-.2.1-.4.1-.2.1-.3.1-.2h.5l.2-.4h.2l.1-.2.2-.4.1-.2V38l.1-.2V37.5l.2-.1h.1l1 .7.1-.2.1-.4v-.1l-.3-.2V37h-.1l.1-.2h-.3l-.2-.2-.2-.1h-.1l-.1.2H20.8l-.2.2v.2h-.4L20 37l-.2-.2v.1l-.3.4h-.1l-.2-.1-.2.3v.2l-.2.2-.1.2-.2.2-.2.2h-.1v-.1l-.2-1.7-2.4.3-.3-3h-.1v.1l.1.2.1.7-.1.2-.3.6v.5l-.1.1V37l-.1.4-.3.2-.2.4zm1.3-1l-.4-3.2-.4-4.5v-.1l.3-.1.4-.3.2-.2h.1l.6-.5h.1v.1l.1.7 1.8-.2 2.8-.4 3.2-.5 2.1-.3h.1l.2.1.1.2h.2l.2.2.2.5v.2l.1.2.3.2h.2l.2.1v.2l-.2.2-.1.2v.2l-.3.5v.6h.1l.1.2-.1.2-.1.2v.3l.1.2.2.1v.2l.2.1h.1l.2.2.4.4v.1l-.1.2-.2.5-.2.2-.1.2v.2l-.3.3h-.2l-.2.2h-.1l-.1-.1H27.1l-.2.1-.1.2-.1.2-4.6.7-4.1.5-2.4.3zm-.7-7.7l.4 4.5.3 3.1 2.4-.3 4.1-.5 4.6-.7.1-.2.1-.2.2-.1h.4l.2-.2h.2l.2-.1v-.2l.2-.2v-.1l.2-.2.2-.2.1-.1-.4-.4-.1-.2h-.1l-.2-.2v-.2l-.2-.1-.2-.2v-.4l.2-.2.1-.2-.1-.2h-.1l-.2-.3v-.1l.2-.2.3-.5V30l.1-.2.2-.2-.2-.1h-.2l-.4-.2-.2-.2v-.2l-.2-.4-.1-.4h-.2l-.1-.2-.2-.1-2.1.3-3.2.5-2.8.4-1.9.2V29l-.1-.8-.6.5h-.1l-.1.1-.4.3-.3.2zm3-3.8l-.1-.1-.1-.2v-.1h.1l.2.3-.1.1zm.1.1l-.1-.1v-.1h.1l.1.1-.1.1zm6.2 13.5l-.1-.2-.1-.2-.2-.1v-.1l.3-.1h.1l.2.2V38.9l-.2.2zm-.2-.5l.2.2v-.1l-.2-.1zm3.5 1.2l-.2-.3-.2-1.5-.5-2.5.1-.2.1-.2.2-.1h.4l.1.1-.1.1v.2l-.1.2-.1.1.1.2v.2l.1.2.2.2.2.2.1.2v.2l.1.3.2.2.1.2.3.3H28.9l.1.1v.1l-.1.2v.2h.2l.1.4v.1h-.1l-1.6.6zm-.7-4.3l.5 2.5.2 1.5.1.2 1.4-.2-.1-.3H28.6v-.1l.1-.1V38.7l.1-.2v-.1h-.2l-.4-.4-.1-.2-.2-.2-.1-.3v-.2l-.1-.2-.2-.2-.2-.2-.1-.2v-.2l-.1-.2v-.1l.1-.1.1-.2v-.2l.1-.1H27.1l-.2.1-.1.2zm2.2 2.4v-.3l.1-.3v-.2h-.3l-.2.1h-.1l-.3-.3-.2-.1-.2-.1-.4-.4v-.2l-.1-.2v-.1l.1-.1.1-.3.1-.2.2-.2.1-.1h.1l.2-.1v-.2l.1-.2v-.1l.2-.2.2-.2.1-.1-.4-.4-.1-.4h-.1l-.2-.2v-.2l-.2-.1-.2-.2v-.4l.2-.2.1-.2-.1-.2h-.1l-.2-.3v-.1l.2-.2.3-.5V30l.1-.2.2-.3h.1l2 .9v.5l-.1.3v.1l-.2.2H30v.8H30.3l.4.1v2.1l-.1.1-.1-.1-.1.2.1.2-.1.2-.1.2-.1.2h-.1V35.8l-.1.3.1.2v.1H29.8l-.1.2-.1.2-.1.4-.1.2v.2l-.1.2-.3.1zm.1-.3v.2h.1l.1-.1v-.2l.1-.2.1-.4.1-.1v-.2l.2-.2h.1v-.2l.1-.2v-.4l.2-.1v-.2l.1-.2.1-.2-.1-.2.1-.2v-.6h.1v-.2h.1V32.6l-.3-.1h-.2l-.1-.1v-.7l.1-.2h.1l.2-.1v-.1l.1-.3v-.4l-1.9-.9-.2.2-.1.2v.2l-.3.5-.3.2v.1h.1l.1.2-.1.2-.1.2v.3l.1.2.2.1v.2l.2.1h.1l.2.2.4.4v.1l-.1.2-.2.5-.2.2-.1.2v.2l-.3.2-.2.2-.2.2-.1.2-.1.3-.1.2.1.2v.2l.3.3.2.1.2.1.3.3.2-.1h.5l.1.2-.1.4zm1.4-3.6v.1-.1zm-3 10.3l-.2-.4v-1l.2-.4v-.4l.1-.1h.1v-.1l-.2-.1.1-.1-.4.1h-.1v-.2l.1-.2v-.1H27v-.1l.1-.2H27v-.2l.1-.2H27v-.2.1h-.1v.1l-.1.1-.2-.1-.2-.2v.1l-.1.1h-.1l-.2-.2v-.2l.1-.3h-.2v-.1l.1-.2h.1l.3.1-.2-.1-.1-.2.1-.4H26v.2h-.2V39l.1-.2.2-.1h.1l.1-.1h-.1l-.2-.3-.2.1v.2h-.1l-.1-.1v-.4l.1-.1h.2l.2-.1v-.1.1h-.2l-.1-.2.1-.6.2-.2h.2-.1v-.1l.3-.4-.1.1h-.1v-.2h-.1v.1l.1.2v.1l-.2.2H25.8V37.2h-.1l-.1-.2v.5l-.1.1H25.2l.4.3V38.2l.2.1v.1h-.2v.5l.1.2-.1.2.1.2.1.5.3.4v.1l-.1.2.2.1.2.4v.1l-.1.2h-.1l-.2-.2H25.7l-.1-.2h-.2l-.2.1h-.1l-.2-.2v.2h-.1l-.2-.2-.1-.2-.1-.2h-.1v.1l-.3-.1-.2-.2v-.2l.1-.2.1-.2v-.2l.1-.2v-.2l.1-.2v-.1l-.2-.1-.2.1-.2-.1-.1-.1-.2-.1H23l-.2-.2V38.1l-.1-.2-.2-.1H22V37h-.1l.1-.2h-.3l-.2-.2-.2-.1h-.1l-.1.2H20.8l-.2.2v.2h-.4L20 37l-.2-.2v.1l-.3.4h-.1l-.2-.1-.2.3v.2l-.2.2-.1.2-.2.2-.2.2h-.1v-.1l-.2-1.7.1-.1 4.1-.5 4.6-.7h.1l.5 2.5.2 1.5.1.2 1.4-.2h.1v.2l.1.2v.1l-.1.4h-.1l-.1.3-.1.2v.2l-.1.3v.2l-.2.3-.1.4v.4l-.3.4h-.1l-.1-.1v.1l-.1.2V43.8l-.4.5zm-.1-.4l.1.2.1-.3v-.4l.1-.2.1-.2v-.2h.1l.1.1V42.3l.1-.4.1-.3v-.2l.1-.3v-.2l.2-.2.1-.4h.1l.1-.3-.2-.2-1.3.2h-.1l-.1-.2V38l-.5-2.4-4.6.7-.9.1.1.1.2.1h.4v.1l.2.1h.1V37.1l.1.2v.1h.4l.2.2.1.2v.2l.2.1h.2l.2.1.1.1h.1l.2-.1h.1l.2.2V38.7l.1.3v.3l-.2.2v.2l-.1.2-.1.2v.2l.1.1.1-.1v-.1l.2-.1h.1l.1.2.1.2.1.1v-.2h.2l.1.2.1.2.2-.1h.2l.1.2h.2l.1.1v-.1l-.2-.4-.2-.1-.2-.2-.3-.2-.1-.2.1-.3v-.1l.1-.1h.1v.2l.2.4.2.1.2.1v.1-.1l-.3-.4-.1-.5-.1-.2.1-.2-.1-.2v-.4l-.1-.1h.1V37.8l-.3-.4v-.1H25.3l-.1-.1v-.1h.2V36.8l.1-.1h.2l.1.1v-.1l.1-.1h.1v.2h.1l.1-.1-.2-.4v-.1h.5v.1h.1l.1.1v.1l-.2.3h.2l.1.1v.1l-.2.1h-.2l-.3-.1-.1.6.1.1v-.1h.2v.5H26l.1.2h.2v.1l-.1.1.1.2v.1h-.1l.1.1.1.2.2.1.2-.1h.1v.1l-.1.2h-.4l-.1.4v.2h.1l.2.1.2.2v-.1l.1-.2h.1V40.3l.2-.3h.1v.5l.1.1v.1l-.2.2v.1l.1-.1v.1h.2v.1l-.1.2-.1.2.3-.1H27.9v.1l-.1.1.1.1V42h-.2v.4l-.2.4V43.5l-.1.4zM25.9 39l.3-.1-.1-.2H26l-.1.3zm-.1-.8h.1-.1zm-7.7-1.5l.1 1.6.1-.1.2-.2.1-.2.2-.2.1-.2.2-.1h.1l.3-.4v-.2h.2l.3.3h.5v-.2l.2-.2H21l.1-.2-3 .3zm12.8-12.3l-.2-.3V24l-.3-2.2-.2-.2-.1.2h-.2l.1-.4V21l-.1-.4-.1-.2-.1-.5v-.4l.1-.1v-.8l-.2-.2-.1-.2v-.5l-.1-.2v-.2l-.1-.3.8-.2 3.2-.6h.1V16v.1l.1.3-.1.4v.2l.1.2.1.2v.2l-.2.3-.4.6h-.1l-.2.2v.2l.1.4-.1.4v.2l-.1.2v.2l-.1.2-.1.2v.3l-.1.2.1.7v.4l.1.6-.1.2v.2l.1.2.2.2v.1l-1.8.6zm-.1-.3l.1.2 1.6-.2-.1-.1-.1-.3v-.2l.1-.2-.1-.6v-.4l-.1-.7.1-.2v-.3l.1-.2.1-.2v-.2l.1-.2v-.2l.1-.4-.1-.4v-.2l.2-.2h.1l.4-.4.2-.3V18l-.1-.2-.1-.2v-.2l.1-.4-.1-.3-3.1.6-.7.2.1.2v.2l.1.2v.5l.1.2.2.2v.4l.1.2v.2l-.1.1v.4l.1.4.1.2.1.5-.1.4v.1-.1h.1l.3.3.3 2.2-.1-.2zm-1.7 15.7l-.1-.3h.1l.1.1-.1.2zm7.3-12.2l-.1-.2-.1-.3-.1-.1v-.2h-.2l-.1-.1-.1-.2v-.1l-.1-.1-.1-.2-.1-.1-.7.2h-.4l-1.3.3-.2.1h-.1l-.4.1h-.2l-1.3.2h-.1l-.1-.1.1-2.1.1-.2h.1l1.8-.2 2.6-.4.3-.3.1-.2h.1l.1-.2.2-.1h.2V23.4l.1.1v.2l.1.1h.4v.1l-.1.2-.4.2-.1.2v.2l-.2.2.1.2v.1H36l.1.1.1.1.2-.1.2.1.4.4.2.2v.1h-.1L37 26v.1l.1.1.2.1.2.4.1.1h.2l.2.1.4-.3.2-.2-.1-.3h-.2l-.1-.2-.2-.1v-.7l.1-.1h.2l.2.1.2.2.2.4.1.4-.1.2-.2.1-.7.5h-.1v.1l-.2.1-.2.1-.1-.4v-.1l-.1.1-.1.2-.2.1-.1.3h-.2l-.3.2zm-.2-.6l.1.1.1.3.1-.1h.2l.1-.3.2-.1.1-.2.2-.1h.1V26.9l.1.4h.1l.2-.1.1-.2h.1l.6-.3.2-.1.1-.2-.1-.4v-.1V26.2l-.2.2-.4.3h-.1l-.1-.3h-.2l-.1-.1-.2-.4h-.2l-.2-.1v-.4l-.3-.4h-.5l-.2-.1-.1-.3v-.1h.2v-.2l.2-.2v-.2l.1-.2.4-.2v-.1H36.6l-.2-.2V23l-.1-.1v-.2h-.1l-.3.3-.1.2h-.1l-.1.2-.3.3-2.6.4-1.7.3v.2l-.1 2v.1l1.3-.2h.2l.4-.1h.1l.2-.1 1.2-.2h.4l.8-.2h.1l.2.2.1.2.1.1v.1l.1.2.1.1.1-.1v-.2h.1l.1.1v.2l-.3.2zm2.3-1.7l.1.2h.1l-.2-.2zM31 30.4l-.2-.3V30l.3-.3v-.2l-.1-.3-.3-2.5.1-.1 1.3-.2h.2l.4-.1h.1l.2-.1 1.2-.2h.4l.3 1.7v.2l.1.4V28.6h-.2l-.4.1-.4.1h-.2v.2l-.6.1-.1.1h-.2l-.2.1h-.2l-.3.4-.2-.1-.1.2-.2.1-.4.4-.3.1zm-.1-.3l.2.2h.1l.4-.4.2-.1.2-.2.1.1.3-.4h.2l.2-.1h.2l.1-.1.6-.1v-.1l-.1-.2v-.1h.2v.1h.1l.4-.2.4-.1v-.1l.1-.1V28l-.3-1.7h-.4l-1.1.2-.2.1h-.1l-.4.1h-.2l-1.3.2.2 2.4.1.2v.2l-.2.4zm1.8-6l-.2-.2-.1-.3v-.2l.1-.2-.1-.6v-.4l-.1-.7.1-.2V21l.1-.2.1-.2v-.2l.1-.2V20l.1-.4-.1-.4V19l.2-.2h.1l.4-.4.2-.3v-.2l-.1-.2-.1-.2v-.2l.1-.4-.1-.3v-.1l.1-.1v-.2l.1-.4v-.2l.2-.1h.1l.1.1.2-.2h.1v.1l1.2 5 .2.7v.4l.1.2.2.2.2.1V22.4l.2.2h.1l.1.1v.1l-.1.4v.2h-.2l-.4-.4-.1.2h-.1l-.1.2-.3.3-2.6.4zm-.2-.3l.1.2 2.5-.4.3-.3.1-.2h.1l.1-.2.2-.1h.1v-.1l.1-.4h-.2l.1-.5v-.2l-.2-.1-.2-.2-.1-.2v-.4l-.2-.7-1.2-5-.1.1h-.1l-.2-.1-.1.1v.2l-.1.4v.4l.1.3-.1.4v.2l.1.2.1.2v.2l-.2.3-.5.6h-.1l-.2.2v.2l.1.4-.1.4v.2l-.1.2v.2l-.1.2-.1.2v.3l-.1.2.1.7v.4l.1.6-.1.2v.2l.1.5zm3.8-1.6l-.1-.1-.2-.3v-.2l-.2-.1-.2-.2-.1-.2v-.4l-.2-.7-1.2-5.1v-.1l.2-.2h.1l.2.1h.1v-.2l.1-.2h.1l-.2-.3V13.7l.1-.2.3-.4-.1-.1v-.1l.2-.4-.1-.2v-.4l-.1-.2.1-.6.2-.3-.1-.9L36.3 7h.4l.1.4.2.2.2.1.2-.2.2-.1.2-.2.5-.2.2-.2.2-.1.2.1.4.2.4.3.2.1.7 2.9.2.7v.2l.1.2v.4h.1l.2.2h.2l.2-.1h.1l.1.1v.1l-.1.2v.2l.1.2v.2l.1.2.1.2.1-.1h.2l.1.1.3.4v.1l-.2.3.1.1.1-.1V14h.1l.2.2v.8l-.2.1h-.2l.1.1v.1h-.2v.1l-.1.1-.1.1v.2h-.1v.2h-.1l-.1-.2-.1.1v.2l-.1.2h-.2v-.1l.1.2-.1.2h-.2l-.1-.2-.4-.1v.2l-.2.2v-.1l-.1.2v.2l.1.2v.1h-.1L40 17h-.5v-.1l.1-.1v-.1h-.2l-.2.1.1.2v.2l-.1.2v.4l.1.2v.1l-.2.2-.1.2-.2-.1h-.2l-.1.1v.4h-.1l-.1-.1v.2h-.2v.2l-.1.1-.1.2h-.2l-.1-.4v.1l-.1.2h-.1l-.1-.1V19l-.2.3-.1.2v.2l.1.1-.3.4.1.2-.2.4-.2.2v.4l-.1.2-.1.6zm-.1-.2l.2-.1.1-.2v-.4l.2-.2.2-.3-.1-.2v-.1l.3-.4-.1-.1V19.7l.1-.2.3-.4h.1v.1h.1l.1-.2h.1l-.1-.3h-.1V18.4l.1-.2h.1V18.5l.1.2.1-.3h.2l.1.1v-.2h.1v.5l.1.1V18.6l.1-.2H38.9l.1.1.1-.1.2-.2-.1-.2.1-.2v-.2l.1-.2v-.2l-.1-.2v-.1l.3-.1v-.4h.1l.1.2v.1h.2V17h.3l.1.1V16.8l.1-.2V16.3h.1l.1.2.1-.1V16.1h.1l.5.2.1.1v-.1l-.1-.2V16l.1-.1h.2v-.1l.1-.2h.2l.2.2v-.1h.2v-.2l.2-.1v-.1h.2l-.4-.3v-.1h.1l.3.1.2-.1.2-.4v-.2l-.1-.1-.1.3-.2-.2v-.1l.2-.3-.3-.4h-.2l-.1.2-.2-.2-.1-.2v-.2l-.1-.2v-.2l.1-.2-.1-.1-.2.1h-.2L41 12H40.7v-.4l-.1-.2v-.2l-.2-.7-.7-2.9h-.1l-.4-.3-.4-.2-.2-.1-.2.1-.2.2-.2.1-.2.1-.2.2h-.1l-.2-.1-.3-.2-.1-.4h-.2l-1.1 2.8.1.9-.2.3-.1.6.1.2v.4l.1.2v.1l-.2.4.1.1v.1l-.5.4-.1.2v.2l.2.4v.1H35l-.2-.1v.5l-.2.1h-.1l-.1-.1-.1.1v.1l1.2 5 .2.7v.4l.1.2.2.2.2.1v.4zm1.8-3.2l.1.1-.1-.1.1-.1-.1-.1v.2zm-3.1 9.8l-.1-.2.1-.1v-.2l-.3-1.7v-.1l.8-.2h.1l.2.2.1.2.1.1v.1l.1.2v.1l-.1.1h-.1l-.1.2.1.2v.2l.1.3v.2l-.6.4h-.4zm.1-.3h.1l.6-.3v-.2l-.1-.3v-.2l-.1-.2.1-.2V26.6h.1v-.1l-.1-.1-.1-.2-.1-.1-.7.2.3 1.7V28.3zm.9-1.2l-.1-.3v-.1h.1l.1.1-.1.3zm.3 0l-.2-.2.1-.1v-.2h.1l.1.1v.2l-.1.2zm.1.7l-.1-.3-.1-.5v-.1h.1l.2.1.1.3v.1l-.2.4zm-.1-.7l.1.3v.1-.1l-.1-.3zm-18.3-1.6l-.1-.1-.1-.2v-.1h.1l.2.3-.1.1zm.1.1l-.1-.1v-.1h.1l.1.1-.1.1zm12.4 10l.1-.7h.1l.1.1v.2l-.3.4zm-3.7 0v-.3l.1-.2.2-.1h.4v.1H27l-.2.1-.1.2v.2zM18 36.7v-.1H18.6l2.5-.3h.1l.6-.1H22.4l1.8-.2h.2l1-.1h1.5l.1.1-.1.1h-1.5l-1 .1h-.2l-1.8.2H21.8l-.6.1h-.1l-2.5.3h-.2l-.4-.1zm9.4-.3l-.1-.2V36l-.1-.2v-.1l.1-.1.1-.2V35.1h.1v.4l-.1.2-.1.1.1.2v.4zm3.5-12v-.1h.4l.8-.1h.5l.1.1-.1.1h-.5l-.8.1H31l-.1-.1zm1.8-.3V24H33l.6-.1h1l.4-.1h.2l.3-.3.1-.2h.1l.1-.2.2-.1h.2l.1.1-.1.1H36l-.1-.2-.1.2h-.1l-.1.2-.1.1-.2.2h-.2l-.4.1h-1l-.6.1h-.2l-.2.2zm-1.9 2.7l-.1-.2.1-1v-1l.1-.2h.1v.1l-.1.2v1l-.1 1v.1zm0 0v-.1H31.1l.6-.1H32.3l.2-.1H32.8l.2-.1h1.6v.1H32.9l-.2.1h-.2l-.2.1H31.7l-.6.1H30.8zm4.1 1.8l-.1-.2.1-.1v-.4l-.2-1.1v-.5h.1V26.9L35 28V28.3l-.1.3zM31 30.4l-.2-.3V30l.3-.3v-.2l-.1-.3-.1-.8v-.2l-.1-.6v-.2l-.1-.5.1-.1.1.1.1.5v.2l.1.6v.2l.1.8.1.2v.2l-.4.4.2.2-.1.2zm5.3-8.2l-.1-.1-.2-.3v-.2l-.2-.1-.2-.2-.1-.2v-.4l-.1-.2v-.2l-.1-.3-.1-.5-.1-.2v-.2l-.1-.2v-.2l-.1-.2-.1-.5v-.1l-.1-.2v-.2l-.1-.2v-.5l-.1-.2-.1-.4-.1-.2v-.2l-.1-.2-.1-.4v-.1h.1l.1.4.1.2v.2l.1.4v.2l.1.2v.5l.1.2v.2l.1.2v.1l.1.4.1.2v.2l.1.2v.2l.1.2.1.5.1.2v.2l.1.2v.4l.1.2.2.2.2.1.1.1v.2l.2.2h.1l-.1.4zm-5.4 2.2l-.2-.3V23.8l-.1-.6V23l-.1-.7v-.4l-.1-.1-.1-.1-.1.2H30V21l-.1-.4-.1-.2v-.2l-.1-.2v-.4l.1-.1V18.6l-.2-.2-.1-.2v-.5l-.1-.2V17h.1v.4l.1.2v.5l.1.2.2.2v.4l.1.2v.2l-.1.1v.4l.1.2v.2l.1.2.1.4-.1.4v.1-.1h.1l.2.2.1.1v.5l.1.7v.2l.1.6V23.8l.2.6zm5.5 3.2l-.1-.4-.1-.1-.3-.3-.1-.2v-.1l-.1-.1-.1-.2-.1-.1-.6.1H34.6v-.1l.6-.1H35.5l.2.2.1.2.1.1v.1l.1.1.3.2.2.1-.1.6zm-21.1 6.3l-.1-.1-.1-.4v-.2l-.1-.4v-1l-.1-.9v-.2l-.1-1.2v-.2h.1v.2l.1 1.1v.4l.1.7V32.6l.1.4v.2l.1.4v.3zm-.9 4.2c-1.4-1.9-2.4-4-3.1-6.3v-.1l.1-.1.2-.1.2-.1.4-.2h.4l.3-.3.2-.3.2-.2.2-.2.4-.3 1-.7h.1v.1l.4 4.4v.1l-.2.2v.1l.1.2.1.6-.1.2-.1.6v1.2l-.1.4-.2.2-.5.6zm-3-6.3c.7 2.2 1.7 4.3 3 6.1l.1-.3.2-.2.1-.4v-1.1l.1-.6.1-.2-.1-.6.1-.3.1-.2h.2l.1-.1-.4-4.4-.9.6-.3.3-.2.2-.1.2-.5.2-.3.4h-.4l-.3.2-.2.1-.4.1zm19.2.2v-.1H30.3V31.6l.1-.2h-.1v-.1l.1-.4v-.3l-2-.9v-.1l-.2-.1H28l-.4-.2-.2-.2v-.2l-.2-.4-.2-.4h-.2l-.1-.2-.2-.1-2.1.3-3.2.5-2.8.4-1.9.2V29l-.1-.9V28l.1-.1.5-.4.3-.4.3-.3.2-.2.1-.2.4-.4v-.2l-.3-.3v-.1l.1-.1-.4-.1V24.9l-.1-.4v-.1l.2-.1.2-.1h.2l.2-.1.4-.2.8-.1h.8l.5.3.4-.2.4-.1h.4l.1.1.1-.2.2-.1.2-.2.1-.2.3-.2.2-.2h.2l.1-.2v-.2l-.1-.2V22l-.2-.4.2-.1v-.2h-.2V21h-.1v.2l-.1.1H23v-.1l.3-.2V20.7l.4-.4.2-.2.1-.1.3-.4v-.3l.7-1.1.8-.8.4-.2h.2l1.4-.2 1.5-.3h.1l.1.3v.2l.1.2v.5l.1.2.2.2v.4l.1.2v.2l-.1.1v.4l.1.4.1.2.1.5-.1.4v.1-.1h.1l.3.3.3 2.2v.1l.1.2-.1.2-.1 2 .1.1.3 2.5.1.2v.2l-.3.9.2.2v.1l-.2.4v.1-.1h.1v-.2l.2-.1h.2l.4-.2h.1l.1-.2.2-.1.6-.1.4-.1.6-.7h.1v.1l-.2.3v.2l-.1.4-.1.1h.2l.3-.4.2-.1h.4l.2-.1h.1v.1l-.3.3-.2.1-.4.3h-.2v.1l-.4.3h-.2l-.2.1-.2.1-.4.2-.2.1-.2.2h-.1l-.9.4-.4.2zm-.2-.3h.6l.7-.4h.1l.2-.2.2-.1.4-.2.2-.1.2-.1h.2l.4-.3v-.1h-.4v-.1l.1-.2.2-.2v-.1l-.1.4-.4.2-.6.1-.2.1-.1.2H31.8l-.4.2h-.1l-.1.1V31.2L31 31l-.1-.1-.1.2-.1-.1v-.2l.2-.4-.2-.2v-.1l.3-.3V29.2l-.3-2.5-.1-.1.1-2.1v-.2l-.1-.2V24l-.3-2.2-.2-.2-.1.2h-.2l.2-.4V21l-.1-.4-.1-.2-.1-.5v-.4l.1-.1v-.8l-.2-.2-.1-.2v-.5l-.1-.2v-.2l-.1-.2-1.5.3-1.4.2h-.2l-.4.2-.7.8-.7 1.1v.3l-.3.4-.1-.1-.2.2-.4.4v.2l.1.1.2-.1h.1V21.4l.2-.1h.1v.1l-.1.2v.2h-.1l.1.4v.1l.1.2v.2l-.1.2H23.7l-.2.2-.3.2-.2.2-.2.2-.2.1-.2.2h-1l-.4.2-.5-.2h-.8l-.8.1-.4.1-.2.1h-.2l-.2.1-.2.1.1.4v.1l.4.1v.1l-.1.1.2.5v.2l-.4.4-.1.2-.1.4-.3.3-.4.4-.5.4h-.1l.1.7 1.8-.2 2.8-.4 3.2-.5 2.1-.3h.1l.2.1.1.2h.2l.2.2.2.5v.2l.1.2.3.2h.2l.2.1v.1l1.9.8h.1l-.2-.2V29.5h.2v.2l.2.1.1.3v.7l-.1.4h.1v.1l-.1.2v.2zm3.6-1.9l-.3.4h.2l.4-.3.2-.1H34z" fill="#fff"></path><g fill="#1a2e59"><path d="M76.2 10.5h3.2v17.1h-3.1l-8.8-11.8v11.8h-3.2V10.5h3.1l8.8 11.8V10.5zM92.6 14.3c1.1.6 2.1 1.5 2.7 2.6.7 1.1 1 2.3 1 3.7 0 1.4-.3 2.6-1 3.7s-1.6 2-2.7 2.6c-1.1.6-2.4 1-3.9 1-1.4 0-2.7-.3-3.9-1-1.1-.6-2.1-1.5-2.7-2.6-.7-1.1-1-2.4-1-3.7 0-1.4.3-2.6 1-3.7s1.6-2 2.7-2.6c1.1-.6 2.4-.9 3.9-.9 1.4 0 2.7.3 3.9.9zm-6 2.5c-.7.4-1.2.9-1.6 1.6-.4.7-.6 1.4-.6 2.2 0 .8.2 1.6.6 2.3.4.7.9 1.2 1.6 1.6.7.4 1.4.6 2.2.6.8 0 1.5-.2 2.1-.6.7-.4 1.2-.9 1.6-1.6.4-.7.6-1.4.6-2.3 0-.8-.2-1.6-.6-2.2-.4-.7-.9-1.2-1.6-1.6-.7-.4-1.4-.6-2.1-.6-.8 0-1.6.2-2.2.6zM106.4 27.7l-2.2-4h-3.3v4h-3.2V13.6h6.1c1.8 0 3.2.4 4.3 1.3s1.5 2.1 1.5 3.6c0 1.1-.2 2-.7 2.8-.5.8-1.1 1.4-2 1.8l3 4.6h-3.5zm-5.5-6.7h3c.9 0 1.6-.2 2-.6.5-.4.7-1 .7-1.8s-.2-1.3-.7-1.7c-.5-.4-1.2-.6-2.1-.6h-3V21zM110 13.6h11.8v2.7h-4.3v11.4h-3.2V16.3H110v-2.7zM123.3 13.6h3.2v5.9h6.4v-5.9h3.2v14.1h-3.2v-5.6h-6.4v5.6h-3.2V13.6zM139.1 13.6h10.7v2.7h-7.6v3h6.8V22h-6.8v3h7.8v2.6h-10.9v-14zM163.1 27.7L162 25h-6.5l-1.1 2.7H151l6.1-14.1h3.3l6 14.1h-3.3zm-6.6-5.3h4.4l-2.2-5.5-2.2 5.5zM174.7 16.4c-.8-.3-1.5-.4-2.1-.4-.6 0-1 .1-1.3.3-.3.2-.5.5-.5.9 0 .5.2.9.7 1.1.5.3 1.2.5 2.2.8 1 .3 1.8.6 2.4.9.6.3 1.2.7 1.6 1.3.4.6.7 1.3.7 2.2 0 1.4-.5 2.4-1.6 3.2-1 .8-2.4 1.1-4 1.1-1.1 0-2.3-.2-3.4-.6-1.1-.4-2-1-2.8-1.7l1.2-2.6c.7.6 1.5 1.1 2.5 1.5.9.4 1.8.6 2.5.6s1.2-.1 1.6-.4.6-.6.6-1c0-.5-.2-.9-.7-1.2-.5-.3-1.2-.5-2.2-.8-1-.3-1.8-.5-2.4-.8-.6-.3-1.1-.7-1.6-1.2-.4-.5-.7-1.3-.7-2.2 0-1.3.5-2.3 1.5-3.1 1-.8 2.3-1.1 4-1.1 1 0 1.9.1 2.9.4.9.3 1.8.7 2.5 1.1l-1.2 2.6c-.8-.2-1.6-.6-2.4-.9zM179.3 13.6h11.8v2.7h-4.3v11.4h-3.2V16.3h-4.3v-2.7zM211 13.8c-.8-.4-1.7-.6-2.5-.6-1.1 0-2 .3-2.9.8-.9.5-1.6 1.2-2.1 2.1-.5.9-.8 1.9-.8 2.9 0 1.1.3 2 .8 2.9.5.9 1.2 1.6 2.1 2.1.9.5 1.9.8 2.9.8.8 0 1.6-.2 2.5-.5.8-.4 1.6-.9 2.2-1.5l1.9 2.2c-.9.9-1.9 1.6-3.1 2.2-1.2.5-2.4.8-3.6.8-1.6 0-3.2-.4-4.5-1.2-1.4-.8-2.4-1.8-3.2-3.2-.8-1.3-1.2-2.8-1.2-4.5s.4-3.1 1.2-4.5c.8-1.3 1.9-2.4 3.3-3.2 1.4-.8 2.9-1.2 4.6-1.2 1.2 0 2.4.2 3.6.7 1.2.5 2.2 1.2 3 2l-1.9 2.4c-.8-.5-1.5-1.1-2.3-1.5zM226.7 14.3c1.1.6 2.1 1.5 2.7 2.6.7 1.1 1 2.3 1 3.7 0 1.4-.3 2.6-1 3.7s-1.6 2-2.7 2.6c-1.1.6-2.4 1-3.9 1-1.4 0-2.7-.3-3.9-1-1.1-.6-2.1-1.5-2.7-2.6-.7-1.1-1-2.4-1-3.7 0-1.4.3-2.6 1-3.7s1.6-2 2.7-2.6c1.1-.6 2.4-.9 3.9-.9s2.8.3 3.9.9zm-6 2.5c-.7.4-1.2.9-1.6 1.6-.4.7-.6 1.4-.6 2.2 0 .8.2 1.6.6 2.3.4.7.9 1.2 1.6 1.6.7.4 1.4.6 2.2.6.8 0 1.5-.2 2.1-.6.7-.4 1.2-.9 1.6-1.6.4-.7.6-1.4.6-2.3 0-.8-.2-1.6-.6-2.2-.4-.7-.9-1.2-1.6-1.6-.7-.4-1.4-.6-2.1-.6-.7 0-1.5.2-2.2.6zM241.5 27.7l-2.2-4H236v4h-3.2V13.6h6.1c1.8 0 3.2.4 4.3 1.3 1 .9 1.5 2.1 1.5 3.6 0 1.1-.2 2-.7 2.8-.5.8-1.1 1.4-2 1.8l3 4.6h-3.5zM236 21h3c.9 0 1.6-.2 2-.6.5-.4.7-1 .7-1.8s-.2-1.3-.7-1.7c-.5-.4-1.2-.6-2.1-.6h-3V21zM256 27.7l-2.2-4h-3.3v4h-3.2V13.6h6.1c1.8 0 3.2.4 4.3 1.3 1 .9 1.5 2.1 1.5 3.6 0 1.1-.2 2-.7 2.8-.5.8-1.1 1.4-2 1.8l3 4.6H256zm-5.5-6.7h3c.9 0 1.6-.2 2-.6.5-.4.7-1 .7-1.8s-.2-1.3-.7-1.7c-.5-.4-1.2-.6-2.1-.6h-3V21zM262 13.6h3.2v14.1H262V13.6zM278 14.5c1.1.6 2 1.4 2.6 2.5.6 1.1.9 2.3.9 3.7 0 1.4-.3 2.6-1 3.7-.6 1.1-1.5 1.9-2.7 2.5-1.1.6-2.4.9-3.9.9h-5.8V13.6h6c1.5 0 2.8.3 3.9.9zm-1.6 9.9c.6-.4 1.1-.9 1.5-1.5.4-.7.5-1.4.5-2.3a4.645 4.645 0 0 0-2.1-3.9c-.7-.4-1.4-.6-2.2-.6h-2.8V25h2.9c.8 0 1.6-.2 2.2-.6zM294.5 14.3c1.1.6 2.1 1.5 2.7 2.6.7 1.1 1 2.3 1 3.7 0 1.4-.3 2.6-1 3.7s-1.6 2-2.7 2.6c-1.1.6-2.4 1-3.9 1-1.4 0-2.7-.3-3.9-1-1.1-.6-2.1-1.5-2.7-2.6-.7-1.1-1-2.4-1-3.7 0-1.4.3-2.6 1-3.7s1.6-2 2.7-2.6c1.1-.6 2.4-.9 3.9-.9s2.7.3 3.9.9zm-6 2.5c-.7.4-1.2.9-1.6 1.6-.4.7-.6 1.4-.6 2.2 0 .8.2 1.6.6 2.3.4.7.9 1.2 1.6 1.6s1.4.6 2.2.6c.8 0 1.5-.2 2.1-.6.7-.4 1.2-.9 1.6-1.6.4-.7.6-1.4.6-2.3 0-.8-.2-1.6-.6-2.2-.4-.7-.9-1.2-1.6-1.6-.7-.4-1.4-.6-2.1-.6-.8 0-1.5.2-2.2.6zM309.2 27.7l-2.2-4h-3.3v4h-3.2V13.6h6.1c1.8 0 3.2.4 4.3 1.3 1 .9 1.5 2.1 1.5 3.6 0 1.1-.2 2-.7 2.8-.5.8-1.1 1.4-2 1.8l3 4.6h-3.5zm-5.5-6.7h3c.9 0 1.6-.2 2-.6.5-.4.7-1 .7-1.8s-.2-1.3-.7-1.7c-.5-.4-1.2-.6-2.1-.6h-3V21z"></path></g><g fill="#036a54"><path d="M68.9 37.2c-.4-.2-.7-.3-1.1-.3-.4 0-.8.1-1.2.3-.4.2-.7.5-.9.9s-.3.8-.3 1.2.1.9.3 1.3.5.7.9.9c.4.2.8.3 1.2.3.4 0 .7-.1 1.1-.3.4-.2.7-.4 1-.7l1 1.2c-.4.4-.9.8-1.5 1-.6.3-1.1.4-1.7.4-.8 0-1.5-.2-2.1-.5-.6-.4-1.1-.8-1.5-1.5-.4-.6-.5-1.3-.5-2.1s.2-1.4.5-2.1c.4-.6.9-1.1 1.5-1.5.6-.4 1.4-.5 2.1-.5.6 0 1.1.1 1.7.4.6.2 1 .6 1.4 1l-1 1.3c-.2-.3-.5-.5-.9-.7zM78.2 35.9c.6.4 1.2.8 1.5 1.5.4.6.6 1.3.6 2.1s-.2 1.5-.6 2.1c-.4.6-.9 1.1-1.5 1.5-.6.4-1.4.5-2.2.5-.8 0-1.5-.2-2.2-.5-.6-.4-1.2-.8-1.5-1.5-.4-.6-.6-1.3-.6-2.1s.2-1.4.6-2.1.9-1.1 1.5-1.5c.6-.4 1.4-.5 2.2-.5.9 0 1.6.1 2.2.5zm-3.3 1.4c-.4.2-.7.5-.9.9-.2.4-.3.8-.3 1.3s.1.9.3 1.3c.2.4.5.7.9.9.4.2.8.3 1.2.3.4 0 .8-.1 1.2-.3.4-.2.7-.5.9-.9.2-.4.3-.8.3-1.3s-.1-.9-.3-1.3c-.2-.4-.5-.7-.9-.9-.4-.2-.8-.3-1.2-.3-.4-.1-.8 0-1.2.3zM82.3 35.5h2l2.4 4.8 2.4-4.8h2v7.9h-1.6v-5.3l-2.2 4.5h-1.1L84 38.1v5.3h-1.6v-7.9zM93.7 35.5h2l2.4 4.8 2.4-4.8h2v7.9h-1.6v-5.3l-2.2 4.5h-1.1l-2.2-4.5v5.3h-1.6v-7.9zM105.1 35.5h1.8v7.9h-1.8v-7.9zM113.3 37.1c-.4-.2-.8-.2-1.2-.2-.3 0-.6.1-.7.2-.2.1-.3.3-.3.5 0 .3.1.5.4.6.3.1.7.3 1.2.5s1 .3 1.4.5c.4.2.7.4.9.7.3.3.4.7.4 1.3 0 .8-.3 1.3-.9 1.8-.6.4-1.3.6-2.2.6-.6 0-1.3-.1-1.9-.3-.6-.2-1.1-.5-1.6-.9l.7-1.5c.4.4.9.6 1.4.9.5.2 1 .3 1.4.3.4 0 .7-.1.9-.2.2-.1.3-.3.3-.6s-.1-.5-.4-.7-.7-.3-1.2-.5c-.5-.1-1-.3-1.3-.5-.3-.2-.6-.4-.9-.7-.2-.3-.4-.7-.4-1.2 0-.7.3-1.3.8-1.7.6-.4 1.3-.6 2.2-.6.5 0 1.1.1 1.6.2.5.2 1 .4 1.4.6l-.7 1.5c-.4-.3-.9-.5-1.3-.6zM121.2 37.1c-.4-.2-.8-.2-1.2-.2-.3 0-.6.1-.7.2-.2.1-.3.3-.3.5 0 .3.1.5.4.6.3.1.7.3 1.2.5s1 .3 1.4.5c.4.2.7.4.9.7.3.3.4.7.4 1.3 0 .8-.3 1.3-.9 1.8-.6.4-1.3.6-2.2.6-.6 0-1.3-.1-1.9-.3-.6-.2-1.1-.5-1.6-.9l.7-1.5c.4.4.9.6 1.4.9.5.2 1 .3 1.4.3.4 0 .7-.1.9-.2.2-.1.3-.3.3-.6s-.1-.5-.4-.7-.7-.3-1.2-.5c-.5-.1-1-.3-1.3-.5-.3-.2-.6-.4-.9-.7s-.4-.7-.4-1.2c0-.7.3-1.3.8-1.7.6-.4 1.3-.6 2.2-.6.5 0 1.1.1 1.6.2.5.2 1 .4 1.4.6l-.7 1.5c-.4-.3-.9-.5-1.3-.6zM125.4 35.5h1.8v7.9h-1.8v-7.9zM135.5 35.9c.6.4 1.2.8 1.5 1.5.4.6.6 1.3.6 2.1s-.2 1.5-.6 2.1c-.4.6-.9 1.1-1.5 1.5-.6.4-1.4.5-2.2.5-.8 0-1.5-.2-2.2-.5-.6-.4-1.2-.8-1.5-1.5-.4-.6-.6-1.3-.6-2.1s.2-1.4.6-2.1.9-1.1 1.5-1.5c.6-.4 1.4-.5 2.2-.5.9 0 1.6.1 2.2.5zm-3.3 1.4c-.4.2-.7.5-.9.9-.2.4-.3.8-.3 1.3s.1.9.3 1.3c.2.4.5.7.9.9.4.2.8.3 1.2.3.4 0 .8-.1 1.2-.3.4-.2.7-.5.9-.9.2-.4.3-.8.3-1.3s-.1-.9-.3-1.3c-.2-.4-.5-.7-.9-.9-.4-.2-.8-.3-1.2-.3-.4-.1-.9 0-1.2.3zM139.6 35.5h1.6l3.9 5.1v-5.1h1.7v7.9h-1.6l-3.9-5.1v5.1h-1.7v-7.9z"></path></g><g><circle cx="30.5" cy="27.9" r="25.8" fill="#1a2e59"></circle><path d="M30.5 7.6c-11.2 0-20.3 9.1-20.3 20.3 0 11.2 9.1 20.3 20.3 20.3 11.2 0 20.3-9.1 20.3-20.3.1-11.2-9.1-20.3-20.3-20.3z" fill="#fff"></path><ellipse cx="30.7" cy="27.9" rx="26.3" ry="26.3" fill="none" stroke="#f1f2f2" stroke-width="2" stroke-miterlimit="10"></ellipse><path fill="#1a2e59" d="M32.6 32.5l.1-.1.3-.1.2-.1.4-.3h.3l.2-.2h.2l.4-.3.1-.2h.2l.5-.4.2-.1.3-.3-.2.1-.2.1-.1-.1-.2.1-.2.1-.3.4-.2.1h-.2l.2-.2.2-.2v-.3l.2-.3-.6.7-.5.2-.6.1-.2.1-.1.2h-.2l-.5.2-.2-.1-.2.2v.2l-.2-.1-.1.2-.4.3-.1.3v.2h.5l-.2.1.4-.1.8-.4M28.2 47.1h-.6l-.2-.1-.1.3.1.1-.2-.1H27l-.2.2.1-.2-.2-.3-.2-.2-.1-.3-.1-.2-.2.1-.2-.1h-.2l-.4-.2-.7-.1.1-.1.2.1.4-.1.2.2h.1v-.2l.2.2.2.2.2-.2.1.3.2.2.2.1.2.3.1-.1h.1l.1-.2-.1-.2-.2-.1v-.2h-.2l-.4-.2-.2-.2-.4-.4.2.1.4.4.4.2.1-.2-.2-.2.1-.1.2.1.2.2.1-.2V45h-.4l.1-.1-.2-.2h-.2l-.2-.2-.1-.1-.4-.3-.1-.3-.2-.1-.1-.1-.1-.2-.5-.4h-.2.2l.2.1.2.2.2.3.2.1.2.3h.1l.4.4h.2v.1l.2.1.1-.3v-.2l-.1-.2.2.1v-.2l-.4-.2h-.2v-.1h-.2v-.1l-.1-.5v-.1l-.4.1H25.3l-.1-.1-.3-.4v-.2h-.2l-.3.2-.1.1h-.2l-.1-.4h.1v-.2l.1-.7.1.1h.1l.1-.1v-.1l.2-.2V40.6l-.1-.3-.2-.1-.2-.1-.2-.2-.2-.1h-.3l-.2-.2.1-.2-.1-.2-.3-.2h-.4l-.1.4-.2.2-1.1-.8-.2.1v.2l-.1.2v.5l-.2.2-.2.4-.2.2h-.2l-.1.6h-.4l-.1.2-.1.3-.1.2-.1.5-.1.2-.2.1-.4-.1v-.1l-.2-.2h-.2v.5l-.2.2-.1.1-.1.3c3 2.5 6.7 4 10.7 4.2v-.1l-.2-.4z"></path><path d="M17.7 43.4l.1-.3.1-.1.1-.2v-.5h.2l.2.2v.1l.4.1.2-.1.1-.2.1-.5.1-.2.1-.3.1-.2h.4l.2-.4h.2l.2-.2.2-.4.2-.2v-.5l.1-.2v-.2l.2-.1 1.1.8.2-.2.1-.4v-.1l-.2-.2v-.2l-.2-.1.1-.2h-.4l-.2-.2-.2-.1-.2.1-.1.2H21l-.2.2-.1.2h-.3l-.2-.1-.2-.2h-.1v.2l-.3.4-.2-.1-.2.1H19l-.2.2-.1.2-.2.2-.3.3-.2-1.9-2.6.3-.3-3.4-.1.1h-.1l-.1.2.1.2.1.7-.1.2-.1.7v.5h-.1v.2l-.1.2v.2l-.1.4-.3.2-.2.7c1.1 1.5 2.3 2.8 3.7 3.9z" fill="#1a2e59"></path><path fill="#1a2e59" d="M14.6 30.2l.3-.2.5-.3.2-.2v.1l.7-.6.1.1.1.8 1.9-.2 3.1-.4 3.4-.4 2.3-.4.2.2.1.2h.2l.2.2.2.5v.2l.2.3.3.2h.2l.3.2-.3.3-.1.2v.3l-.3.5-.2.2.1.2.1.1.1.2-.1.2-.2.2v.4l.2.3.2.1.1.2.2.2h.1l.2.3.4.4-.1.2-.3.2-.1.3H29l-.2.2v.2l-.2.2-.2.1-.3.2v-.1h-.4l-.2.1-.2.2v.2l-4.9.8-4.4.5-2.6.3-.3-3.4-.5-4.7v-.1M24.3 40.1l.3-.1.2.2v.2l-.2.2v-.2l-.1-.1-.2-.2"></path><path fill="#1a2e59" d="M27.3 36.8v-.2l.2-.2.2-.1h.4v.1l-.1.1v.2l-.1.2-.1.2.1.2v.2l.1.3.2.2.2.2.1.2v.3l.1.4.2.2.1.2.4.4h.2l.1.1-.1.2v.3h.1l-.2.2h.1l.2-.1.1.5h-.1l-1.5.3-.1-.3-.3-1.6-.5-2.7"></path><path fill="#1a2e59" d="M27.9 37.1l.1-.1.1-.4.1-.2.2-.2h.1l.1-.1.2-.1.1-.2.1-.3h.1l.1-.3.3-.2.1-.2-.4-.4-.2-.3h-.1l-.2-.2-.1-.2-.2-.1-.2-.3v-.4l.2-.2.1-.2-.1-.2-.1-.1-.1-.2.2-.2.3-.5V31l.1-.2.3-.3 2.1 1v.5l-.1.3v.2l-.2.2h-.1l-.1.2-.1.7h.4l.4.1.1.3-.1.7.1.2V35.8l-.1-.4.1-.3-.1-.2-.1.2-.1.1.1.2v.8l-.1.2-.1.3-.1.2-.2.1.1.2-.2.2.1.2h-.2l-.2.3v.1h.1l-.1.2-.1.5-.2.2v.2l-.1.2h-.3v-.2l.1-.4v-.3h-.4l-.3.1-.3-.3-.2-.2-.2-.1-.4-.4v-.1l-.1-.2v-.1M29.5 41.3l.2-.1v-.1l-1.5.3-.1-.3-.3-1.6-.5-2.7-4.9.8-4.4.5.2 1.9.2-.3.2-.1.2-.3.2-.2.1-.2.2-.1.2.1.3-.4v-.3h.1l.2.3h.5l.1-.2.2-.2h.2l.1-.3h.2l.2.1.2.1h.4V38.3l.2.1v.2l.1.2.1.2h.4l.2.2.1.2-.1.2.3.2h.2l.3.1.1.2h.2l.3-.1.2.2v.2l-.2.2.1.3-.2.2-.1.2-.1.2h-.1v.5l.2.2.1-.2.1-.1.2-.1.1.2.1.3.3.2v-.4l.1.2.2.3.2-.1h.2l.2.3v-.1l.3.1.2.2v-.2l-.2-.5-.2-.1-.2-.2-.3-.2-.1-.2-.2-.5.1-.2v.3l.2.5.2.1.2.1.1.2.1-.2-.3-.5-.1-.5-.1-.3v-.8l-.1-.2.2.1.1-.1-.2-.1.1-.3-.5-.3.2-.1.1.1h.2l-.2-.2h.2v-.5l.2.2v-.3l.1-.1v.2l.2-.1.2-.2-.1-.2v-.2h.4l-.1.2.2-.2.1.1-.3.5h.2l-.2.1h-.2l-.2.2-.1.7.1.3.1-.3.1.1V39.5l-.2.2h-.2v.5-.3l.2-.1.1-.1.1.3h.2l-.2.2.1.2-.2-.2-.2.1v.3l.1.2v-.3h.2l.1.1.1.2.3.2.2-.1-.2.2-.5-.1-.1.2.3-.1-.2.4v.3l.2.2v-.2l.1.1.2.2.2.1V42l.1-.2v.2l.1.1.2-.4-.1.4.2.1-.2.2v.2l.2-.1.1.2.2-.1-.1.2-.2.3v.1l.5-.1h.1l-.2.2.2.2v.2h-.2l-.1.5-.2.4v.7l-.1.5.2.4.3-.5-.1-.4.1-.2.1-.3.1-.2.2.2.1-.3v-.4l.1-.5.1-.3v-.2l.1-.3v-.2l.2-.3.1-.4.1.1.1-.5zM30.2 16.9l.8-.2 3.4-.6-.1.1.2.3-.2.5v.2l.2.3.1.2-.1.2-.2.3-.3.4-.1.1-.2.2v.2l.1.5-.1.4v.2l-.1.2v.3l-.1.2-.1.2v.4l-.1.2.1.8v.5l.1.7-.1.2-.1.2.1.3.2.3-1.8.2-.2-.2.1-.2-.4-2.3-.3-.4-.1.3-.1-.3.1-.4-.1-.4-.1-.3-.1-.4v-.5l.1-.1v-.2l-.1-.3v-.4l-.2-.3-.1-.2v-.6l-.1-.2.1-.3-.1-.2v-.1M29.8 41.1v.3-.3"></path><path fill="#1a2e59" d="M31.8 24.9l1.8-.2 2.8-.5.3-.3.1-.2h.1l.1-.2.3-.2h.2l-.1.2.2.2v.2l.2.2h.2V24h.2l-.1.2-.4.3-.1.2v.1l-.2.2.1.3-.2-.1.1.3.2.1.2-.1.2.1.4.4.2.3-.2-.1v.2l.2.1.2.1.2.4.1.1h.2l.2.1.4-.3.2-.2v-.4h-.2l-.1-.2-.2-.2-.2-.1h.2l.2.1.2.2.3.4.1.5-.2.2-.2.1-.7.3v-.1l-.1.3-.2.1-.3.1v-.7l-.2.1-.2.2-.2.2-.1.4-.2-.1-.2.3v-.2l-.1-.3-.1-.1v-.5.3l-.2.1-.1-.1-.1-.1-.1-.1v-.2l-.1-.1-.1-.2-.2-.2-.8.2h-.4l-1.3.2-.2.1h-.1l-.5.1H33l-1.4.2-.1-.1.2-2.2.1-.3"></path><path fill="#1a2e59" d="M31.6 27.5l1.4-.2h.2l.5-.1h.1l.2-.1 1.3-.2h.4l.3 1.9.1.2-.1.2v.2l-.1-.1-.4.1-.5.3h-.2v-.2h-.1l.1.2v.1l-.7.1-.1.1h-.2l-.2.1-.3.1-.3.4-.1-.1-.2.2-.2.1-.4.5h-.3l-.2-.2V31l.4-.4v-.2l-.1-.3-.3-2.6M33.6 24.7l-.2-.3-.1-.3.1-.2.1-.2-.1-.7v-.5l-.1-.8.1-.2v-.4l.1-.2.1-.2v-.3l.1-.2V20l.1-.4-.1-.5v-.2l.2-.2.1-.1.3-.4.2-.3.1-.2-.1-.2-.2-.3V17l.2-.5-.2-.3.1-.1v-.3l.1-.4.1-.2.2-.2.2.1.2-.2v.1l1.3 5.3.2.7v.5l.1.2.2.2.2.1v.3l.2.2.1.1h.1l-.1.5v.2h-.2l-.3.2-.1.2h-.1l-.1.2-.3.3-2.8.5"></path><path fill="#1a2e59" d="M35.2 14.9l.2-.3.2.2.2-.1-.1-.2.1-.2.1-.1.2.1-.2-.4v-.1l.1-.2.1-.2.4-.5-.1-.1.2-.5-.1-.3v-.4l-.1-.3.1-.6.2-.3v-1l1.1-3.1h.4l.1.5.3.2.2.1.2-.2h.2l.2-.3.2-.1.2-.2.3-.1.2.1.4.2.4.4.2.1.7 3.1.2.8v.2l.1.2v.2l.1.2h.2l.2.2h.4l.1.1v.5l.2.2-.1.2.2.3.2.2.1-.2h.2l.1.1h.1l.3.5-.2.4.1.2.2-.2v-.1l.2.2-.1.2-.2.4-.2.2-.3-.1.1.3-.2-.1v.2h-.2v.3h-.2l-.1.2-.1-.1-.2-.2-.1.2v.5l-.1-.2v.2l-.1-.2-.1.1.1.2-.1.2-.2-.2-.5-.2v.2l-.2.2-.2-.3.1.2-.1.3v.2l.1.3-.3-.2h-.4l.1-.2v-.2H41l.1-.2-.2-.2.1.3-.3.2.1.2-.1.3v.4l-.1.3.1.2-.2.3-.1.2-.2-.1-.2-.1-.1.2v.3l-.1.2-.1-.1-.1-.3.1-.2h-.1v.3l.1.4-.3-.1.1-.2-.1-.3-.1.1v.3l.1.2-.1.3-.3-.8.1-.3-.1.3-.1.2.1-.1.3.7-.1.3-.2-.5-.1.2-.1.2v-.2.2l-.1-.4-.4.4-.1.3.1.2.1.1-.3.4.1.2-.2.5-.2.2v.4l-.1.3-.2.2-.1-.1-.2-.2V22l-.2-.1-.2-.2-.1-.2V21l-.2-.7-1.3-5.3v-.1M35.7 26.9l.8-.2.2.2.1.2.1.1v.2l.1.1.1.1-.1.1-.2-.3.1.3-.1.2.1.2v.8l-.7.4-.2.1v-.2l.1-.2-.1-.2-.3-1.9"></path><path fill="#1a2e59" d="M37.1 27.6l.1.1-.1.1v-.2M37.2 27.7l.2-.1v-.3.5l-.2-.1M37.4 27.8l.1.1.1.3v.2l-.1.1-.1-.2v-.5M28.2 36.4h-.1v-.1h-.4l-.2.1-.2.2v.2M27.3 36.8l-.3.1h-.4l-.2.1h-.5l-.2.1h-.4l-.2.1h-.4l-.2.1H24l-.2.1-.8.1h-.4l-.2.1h-.7l-.2.1H20.9l-.2.1h-.4l-.3.1h-.7l-.4.1h-.5l-.2.1H18M28.2 36.4l-.1.1v.2l-.1.3-.1.1.1.2v.4M31.8 24.9H32.1l.3-.1H33l.2-.1h.4M33.6 24.7l.2-.1h.5l.2-.1h.4l.2-.1h.4l.2-.1h.5v-.1h.2l.2-.2.1-.1.1-.2h.1l.1-.2.3-.2h.2M31.6 27.5l-.1-.1.1-1.1v-.2l.1-.9.1-.3M35.7 26.9h-.4l-.2.1h-.5l-.2.1H34l-.2.1h-.1l-.2.1h-.7l-.2.1h-.4l-.2.1h-.4M36 29.4v-.2l.1-.2-.1-.2v-.3l-.2-.9v-.2l-.1-.3v-.2"></path><path fill="#1a2e59" d="M31.8 31.3l-.2-.2V31l.4-.4v-.2l-.1-.3-.1-.9V29l-.1-.2V27.9l-.1-.2v-.2M37.5 22.6l-.1-.1-.2-.2V22l-.2-.1-.2-.2-.1-.2V21l-.1-.3-.1-.2v-.2l-.1-.2v-.3l-.1-.2v-.3l-.1-.2v-.2l-.1-.3-.1-.4-.1-.2v-.3l-.1-.2v-.2l-.1-.2V16.8l-.1-.2-.1-.2v-.3l-.1-.2v-.2l-.1-.2v-.3l-.1-.2v-.1M31.8 24.9l-.2-.2.1-.2-.1-.2-.1-.7v-.4l-.1-.3v-.4l-.1-.3-.1-.2-.2-.2-.1.3-.1-.3v-.2l.1-.2-.1-.2V21l-.1-.3-.1-.2v-.7l.1-.1v-.2l-.1-.3v-.4l-.2-.3-.1-.2v-.6l-.1-.2.1-.3-.1-.2v-.1M35.7 26.9h.2l.2-.1h.2l.2-.1.2.2.1.2.1.1v.2l.1.1.2.2.2.1.1.1.1.4M14.6 30.2V30.5l.1.5v.2l.1.5v.5l.1.7v.5l.1.2V34.5l.1.3v.2"></path><path d="M14.6 38.9l.1-.4V37.9h.1v-.5l.1-.7.1-.2-.1-.7-.1-.2.1-.2h.1l.1-.1-.4-4.7v-.1l-1.1.5-.4.3-.2.2-.2.2-.2.3-.4.4h-.4l-.2-.1-.4.2-.2.1v.2l-.1.1c.7 2.4 1.8 4.7 3.3 6.6l.2-.4.2-.2zM35.8 30.5l-.2.1-.1-.1-.2.1-.2.1-.3.4-.2.1h-.2l.2-.2.2-.2v-.3l.2-.3-.6.7-.5.2-.6.1-.2.1-.1.2h-.2l-.5.2-.2-.1-.2.2v.2l-.2-.1-.1.2V31.8l.2-.5-.2-.2V31l.4-.4v-.2l-.1-.3-.3-2.6-.1-.1.2-2.2.1-.3-.2-.2.1-.2-.4-2.3-.3-.4-.1.3-.1-.3.1-.4-.1-.4-.1-.3-.1-.4v-.5l.1-.1v-.2l-.1-.3v-.4l-.2-.3-.1-.2v-.6l-.1-.2.1-.3-.1-.2v-.1l-1.7.4-1.5.2h-.2l-.4.2-.8.8-.8 1.2v.3l-.3.4-.1.2-.3.2-.4.4v.2l.2.2v.1-.2l.2-.1v.3l.3-.1-.1.2-.1.2-.2.1.2.5v.1l.1.2v.3l-.2.2h-.2l-.3.2-.2.2-.2.3-.2.2-.2.1-.1.2-.2-.1h-.4l-.5.1-.4.2-.5-.3h-.9l-.8.1-.5.2-.2.1h-.2l-.2.2h-.3v.1l.1.4v.2l.4.1.1.1-.1.1.2.6v.2l-.4.4-.1.3-.2.2-.3.2-.4.5-.5.4-.1.1.1.1.1.8 1.9-.2 3.1-.4 3.4-.4 2.3-.4.2.2.1.2h.2l.2.2.2.5v.2l.2.3.3.2h.2l.3.2 2.1 1-.1-.6-.2-.2V30.4l.1.2.2.2.1.4v.7l-.2.5h.1l-.1.3v.2h.5l-.2.1.4-.1.8-.4.1-.1.3-.1.2-.1.4-.3h.3l.2-.2h.2l.4-.3.1-.2h.2l.5-.4.2-.1.3-.3z" fill="#1a2e59"></path><g><path d="M28.4 47.7c-3.9-.2-7.6-1.7-10.8-4.2v-.1l.1-.3.1-.1.1-.2v-.5s0-.1.1-.1H18.3l.2.2v.1l.4.1.2-.1.1-.2.1-.5.1-.2.1-.3.1-.2h.5l.2-.4H20.6l.2-.2.2-.4.2-.2v-.4l.1-.2v-.2-.1l.2-.1h.1l1.1.7.1-.2.1-.4s0-.1.1-.1h.4l.2.2.1.2v.2l.2.1h.3l.2.1.2.1.2.1.2.1.1.3v.5l-.2.2v.1l-.1.1h-.1-.1l-.1.6v.2s0 .1-.1.1v.1h.2l.2-.2h.2s.1 0 .1.1v.2l.3.3h.8v.1l.2.2v.2h.1s.1 0 .1.1h.1l.4.2v.4h-.2V44.1l-.1.3h-.1l-.2-.1h-.2l.2.2h.2l.2.2v.1H27.2s.1 0 .1.1l.1.4-.1.2h-.5l.1.2V46h.2s.1 0 .1.1v.2l.2.1.1.2-.1.2h-.1l-.2.2H27h-.1l-.2-.2-.2-.1-.2-.2v.1l.1.2.2.2.2.2v.1h.4l.1-.3h.1l.2.1h.7l.2.5-.1.1c.1-.1.1 0 0 0 .1 0 .1 0 0 0zm-1.5-.3c.5.1.9.1 1.4.1l-.1-.4h-.6l-.1.2.1.1v.1h-.1l-.2-.1h-.4zm-9.1-4c2.7 2.1 5.7 3.5 9 4l.1-.2-.2-.2-.1-.1-.1-.3-.1-.2-.2.1-.2-.1h-.2l-.4-.2-.6-.1h-.1V46l.1-.1h.1l.2.1.4-.1h.1l.2.2v-.2-.1h.1l.2.2.1.1.2-.1h.1l.1.3.2.2.2.1.1.2.1-.1h.1l.1-.2-.1-.2-.2-.1V46h-.2l-.4-.2-.2-.2-.4-.4v-.1h.1l.2.1.4.4.3.2.1-.1-.1-.2.1-.1h.1l.2.1.1.1v-.1l-.1-.4h-.1l-.4-.1v-.1-.1l-.1-.1h-.2l-.2-.2v-.1l-.4-.2-.1-.2-.2-.1-.1-.1-.1-.2-.4-.3h-.2s-.1 0-.1-.1c0 0 0-.1.1-.1h.2l.2.1.2.2.2.3.2.1.2.2h.1l.4.4h.2l.1.1.1.1.1-.2v-.2l-.1-.2v-.1h.2v-.1l-.4-.2h-.2s-.1 0-.1-.1h-.1s-.1 0-.1-.1v-.1L26 43v-.1H25.4l-.1-.1-.3-.4v-.2h-.1l-.2.2-.2.1h-.2-.1l-.1-.2V42l.1-.7v-.1h.1l.1.1v-.1-.1l.2-.2V40.6l-.1-.2-.2-.1-.2-.1-.2-.2-.2-.1h-.3l-.2-.2V39.4l-.1-.2-.1-.1h-.4l-.1.4-.2.2-1.1-.8-.2.1v.9l-.2.2-.2.4-.2.2h-.1l-.2.4h-.4l-.1.2-.1.3-.1.2-.1.5-.1.2-.2.1-.4-.1v-.2l-.2-.2h-.1v.4l-.3.5-.1.1-.1.3zm7.9 2.8h.2l-.1-.1-.1.1zm.7-.4l.2.1-.2-.1zm-.5-1.8l.2.1-.2-.1z" fill="#fff"></path></g><g><path d="M17.7 43.5c-1.5-1.2-2.7-2.5-3.8-4v-.1l.3-.4.3-.2.1-.4v-.2l.1-.2v-.2s0-.1.1-.1h.1v-.4l.1-.7.1-.2-.1-.7-.1-.2v-.1l.1-.2h.2L15 35h.1v.1l.3 3.3L18 38l.2 1.7.1-.1.2-.2.1-.2.2-.2.1-.2.2-.1h.2l.3-.4v-.2-.1h.2l.2.2.2.1h.3v-.2l.2-.2H21l.1-.2.2-.1h.1l.2.1.2.2h.5v.1l-.1.2h.1V38.5l.2.2v.1l-.1.4-.2.2-1.1-.8-.1.4v.9l-.2.2-.2.4-.2.2h-.1l-.2.4h-.4l-.1.2-.1.3-.1.2-.1.5-.1.2-.2.1-.4-.1v-.2l-.2-.2h-.1v.4l-.3.5-.1.1-.2.4c.1 0 .1 0 0 0zm-3.7-4c1.1 1.4 2.3 2.7 3.6 3.9l.1-.3.1-.1.1-.2v-.5s0-.1.1-.1H18.3l.2.2v.1l.4.1.2-.1.1-.2.1-.5.1-.2.1-.3.1-.2h.5l.2-.4H20.6l.2-.2.2-.4.2-.2v-.4l.1-.2v-.2-.1l.2-.1h.1l1.1.7.1-.2.1-.4v-.1l-.2-.2v-.2h-.2v-.1l.1-.2h-.4L22 38l-.2-.1-.1.1-.1.2H21.3l-.2.2-.1.2h-.4l-.2-.1-.2-.2v.2l-.3.4h-.1l-.2-.1-.5.2-.1.1-.2.2-.1.2-.2.2-.2.3h-.1v-.1l-.2-1.7-2.6.3-.4-3.3h-.2v.1l.1.2.1.7v.3l-.1.7v.5s0 .1-.1.1v.2l-.1.2v.2l-.1.4-.3.2-.3.5z" fill="#fff"></path></g><g><path d="M15.4 38.4s-.1 0 0 0l-.4-3.3-.5-4.8v-.1l.3-.2.4-.3.2-.2h.1l.7-.5h.1v.1l.1.8 1.9-.2 3-.4 3.4-.5 2.3-.4h.1l.2.1.1.2h.2l.2.2.2.5v.2l.2.2.4.2h.2l.2.1v.2l-.2.3V31.2l-.3.6-.2.2v.1h.1l.1.2-.1.2-.2.2v.3l.1.2.2.1V33.6l.2.1.1.1.2.2.5.4v.6l-.3.2-.2.2-.2.2v.2l-.2.2h-.2l-.2.2h-.1l-.1.2H27.7l-.2.1-.1.2-.1.2h-.1l-4.9.7-4.3.5-2.6.3zm-.7-8.2l.5 4.8.3 3.3L18 38l4.3-.5 4.9-.7.1-.2.1-.2.2-.1h.4l.2-.2h.2l.2-.2v-.2l.2-.2v-.1l.2-.2.3-.2.1-.2-.4-.4-.2-.2h-.1l-.2-.2v-.2l-.2-.1-.2-.3V33l.2-.2.1-.2-.1-.2h-.1l-.1-.2v-.1l.2-.2.3-.6v-.2l.1-.2.2-.3-.2-.1h-.2l-.4-.2-.1-.4v-.2l-.2-.5-.2-.2h-.2-.1l-.1-.2-.2-.1-2.2.4-3.4.5-3 .4-2 .2s-.1 0-.1-.1l-.1-.8-.7.5h-.1l-.1.2-.5.3-.1-.1z" fill="#fff"></path></g><g><path d="M28.2 41.4c-.1 0-.1 0 0 0l-.2-.3-.3-1.6-.5-2.7.1-.2.1-.2.2-.1h.4l.1.1-.1.1v.5l-.1.1.1.2v.2l.1.2.2.2.2.2.1.2v.2l.1.3.2.2.1.2.4.4H29.7l.1.1v.1l-.1.2v.2h.1v.2h.1s.1 0 .1.1l.1.5v.1h-.2l-1.7.3zm-.9-4.6l.5 2.7.3 1.6.1.2 1.5-.3-.1-.3h-.2l-.1.1h-.1v-.1l.1-.2V40.2l.1-.2v-.1h-.2l-.4-.4-.1-.2-.2-.2-.1-.4v-.2l-.1-.2-.2-.2-.1-.3-.1-.2v-.2l-.1-.2v-.1l.1-.1.1-.2v-.2l.1-.1H27.8l-.2.1-.1.2h-.2z" fill="#fff"></path></g><g><path d="M31.8 25c-.1 0-.1 0 0 0l-.2-.3v-.1l-.3-2.3-.3-.3v.1h-.1-.1l-.1-.3.1-.4-.1-.4-.1-.2-.1-.5v-.5l.1-.1v-.2l-.1-.2v-.4l-.2-.2-.1-.3v-.5l-.1-.2.1-.2-.1-.5v-.1l.8-.2 3.4-.7h.1v.1l-.1.1.1.3v.7l.1.2.1.2v.2l-.2.3-.4.6h-.1l-.2.2v.2l.1.5-.1.4v.2l-.1.2v.2l-.1.2-.1.2v.3l-.1.2.1.8v.5l.1.7-.1.2v.2l.1.3.2.2v.1h-.1l-1.8.5zm-.1-.3l.1.2 1.7-.2-.1-.1-.1-.3V24l.1-.2-.1-.8v-.5l-.1-.8.1-.2v-.3l.1-.2.1-.2v-.2l.1-.2v-.2l.1-.4-.1-.5V19l.2-.2h.1l.4-.4.2-.3v-.2l-.1-.2-.1-.2v-.2l.1-.4-.1-.3-3.3.2-.7.2.1.2-.1.2.1.2v.5l.1.2.2.2v.4l.1.2v.2l-.1.1v.4l.1.5.1.2.1.5-.1.4v.1-.1h.1l.3.3.3 2.4.1.6z" fill="#fff"></path></g><g><path d="M37.6 28.4l-.1-.2-.1-.3-.2-.1v-.2h-.1-.1l-.2-.2v-.1l-.1-.1-.1-.2-.2-.1-.7.1h-.4l-1.3.2-.2.1h-.1l-.4.1h-.2l-1.4.2h-.1l-.1-.1.2-2.2.1-.3.1-.1 1.9-.3 2.7-.5.3-.3.1-.2h.1l.1-.2.2-.1h.2V23.6l.1.1v.2l.2.2h.5v.1l-.1.2-.4.3-.1.2v.2l-.2-.1.1.2v.1h-.2l.1.1.2.1.2-.1.2.1.4.5.2.3v.1h-.1l-.1-.1v.1l.2.1.2.1.1.4.1.1h.2l.2.1.4-.3.2-.2-.1-.3h-.1-.1l-.1-.2-.2-.2-.2-.1v-.1s0-.1.1-.1h.2l.2.1.2.2.3.4.1.5-.1.2-.3.2-.6.3h-.1l-.1.2-.2.2-.2.1h-.1l-.1-.5v-.1l-.1.1-.1.2-.2.1-.2.3H37.7l-.1.2c.1 0 .1 0 0 0zm-.2-.6l.1.1.1.3.1-.1h.2l.1-.3.2-.2.1-.2.2-.1h.1V27.6l.1.4h.1l.2-.1.1-.2h.1l.6-.3.2-.1.1-.2-.1-.4-.1-.1V26.9h.1l-.5.3h-.1l-.2-.1H39l-.1-.1-.2-.4-.2-.1-.2-.1V26.1 26l-.3-.4-.2-.1-.2.1h-.1l-.2-.2-.1-.2v-.1h.2l-.1-.1v-.1l.2-.2v-.1-.1l.1-.2.4-.3v-.1H37.7h-.1l-.2-.2v-.2l-.1-.1v-.2h-.1l-.2.1-.1.2h-.1l-.1.2-.3.3-2.7.5-1.9.5v.2l-.2 2.2v.1l1.4-.2h.2l.4-.1h.1l.2-.1 1.3-.2h.4l.8-.2h.1l.2.2.1.2.1.1V27.5l.1.2.1.1.1-.1v-.2s0-.1.1 0c0 0 .1 0 .1.1v.2z" fill="#fff"></path></g><g><path d="M37.5 22.6l-.1-.1-.2-.3V22H37l-.2-.2-.1-.2-.1-.2v-.2l-.2-.7-1.3-5.4V15l.2-.2h.1l.2.1h.1v-.2l.1-.2h.1l-.1-.3v-.1l.1-.2.1-.2.4-.4-.1-.1v-.1l.3-.4-.1-.2v-.4l-.1-.2.1-.7.2-.3-.1-.9 1.2-3.1h.5l.1.1.1.5.1-.5.2.1.2-.2.2-.1.2-.2.2-.1.2-.2.2-.2.2.1.4.2.4.4.2.1.7 3.1.2.8v.2l.1.2v.4h.2l.2.2h.2l.2-.1h.1l.1.1v.1l-.1.2v.2l.1.2v.2l.1.2.2.2.1-.1H43.9l.1.1.4.5v.1l-.3.3.1.1.1-.1v-.1-.1h.1l.2.2V14.3l.1.7-.2.1h-.2l.1.1v.1h-.2v.1s0 .1-.1.1l-.1.1v.2h-.1v.2h-.2l-.1-.2-.1.1v.2l-.1.2s0 .1-.1.1h-.1v-.1l.1.2-.1.2h-.1-.1l-.1-.2-.4-.2v.2l-.5.1h-.1v-.1l-.1.2v.2l.1.2v.1h-.1l-.3-.2h-.4-.1v-.1l.1-.1v-.1H41h-.1l-.2.1.1.2v.2l-.1.2V18l.1.2v.1l-.2.3-.1.2h-.1l-.2-.1H40V19l-.1.2h-.1l-.1-.1v.2h-.1l-.2-.1v.2l-.1.2-.1.2h-.1-.1v-.3.1l-.1.2h-.1s-.1 0-.1-.1l-.1-.3-.3.3-.1.2v.2l.1.1v.1l-.3.4.1.2v.1l-.1.5-.2.2v.4l-.1.2-.2.3zm0-.1l.2-.1.1-.2v-.4l.2-.2.2-.4-.2-.4v-.1l.3-.4h-.1V20l.1-.2.4-.5h.1V19.6h.1l.1-.2h.2L39 19h-.1V18.7l.1-.2h.1V18.8l.1.3.1-.3h.2l.1.1v-.2h.1v.5l.1.1V19l.1-.2H40.2l.2.1.1-.2.2-.2-.2-.5.1-.2v-.2l.1-.2v-.2l-.1-.2v-.1l.3-.2v-.3-.1h.1l.2.2v.2h.2v.4h.3l.1.1V16.9l.1-.2v-.2-.1h.1l.1.2.1-.1v-.2-.1h.1l.5.2.1.1v-.1l-.1-.2v-.1l.1-.1h.2v-.1l.1-.3h.2l.2.2v-.2s0-.1.1 0h.1v-.2-.1l.2-.1v-.1-.1h.2-.2v-.1h.1l.3.1.2-.1.2-.4v-.2l-.1-.1-.1.2h-.1l-.2-.2v-.1l.3-.3-.4-.5H44l-.2.2-.2-.2-.2-.3v-.2l-.1-.2v-.2l.1-.2-.1-.1-.3-.1h-.2l-.2-.2h-.2s-.1 0-.1-.1v-.4l-.1-.2v-.2l-.2-.8-.8-3.1h-.1l-.4-.4-.4-.2-.2-.1-.2.1-.2.2-.2.1-.2.2-.2.1-.2.2h-.1l-.2-.1-.2-.2-.1-.4H38l-1.1 3 .1.9-.2.3-.1.6.1.2v.4l.2.2v.1l-.3.4.1.2v.1l-.4.4-.4.3v.2l.2.4v.1h-.1l-.2-.1v.5l-.2.1h-.1l-.1-.1-.1.1v.1l1.3 5.3.2.7v.4l.1.2.2.2.2.1V22.1l.1.4zm1.8-3.4l.1.1-.1-.1.1-.1-.1-.1v.2z" fill="#fff"></path></g><g><path d="M31.4 33.1s-.1 0 0 0c-.1-.1-.1-.1 0-.1h-.2l-.1-.1V32.6l.1-.2-.1-.1v-.1l.1-.5v-.3l-2.2-1v-.1l-.2-.1h-.2l-.4-.2-.2-.1v-.2l-.2-.5-.2-.2h-.2-.1l-.1-.2-.2-.1-2.2.4-3.4.5-3 .4-2 .2s-.1 0-.1-.1V29v-.1l.1-.1.5-.5.4-.4.3-.3.2-.2.1-.2.4-.4v-.2l-.3-.4v-.1l.1-.1-.4-.1s-.1 0 0-.1v-.2l-.1-.4v-.1l.2-.1.2-.1h.2l.2-.1.5-.2.8-.1h.9l.5.3.4-.2.4-.1h.4l.1.1.1-.2.2-.1.2-.2.1-.2.3-.2.2-.2H23.8l.1-.2v-.2l-.1-.2v-.2l-.2-.5v-.1l.2-.1v-.2h-.1-.1V21.5h-.1v.2s0 .1-.1.1c0 0-.1 0-.1-.1v-.1l-.2-.2v-.1l.1-.2.4-.4.2-.2.1-.2.3-.4v-.3l.7-1.2.8-.8.4-.2h.2l1.5-.2 1.6-.3h.1l.1.3-.1.2.1.2v.5l.1.2.2.2v.4l.1.2v.2l-.1.1v.4l.1.5.1.2.1.5-.1.4v.1-.1h.1l.3.3.3 2.4v.1l.1.2-.1.2-.2 2.2.1.1.3 2.6.1.2v.2l.6 1.1.2.2v.1l-.2.5v.1-.1h.2v-.1-.1l.2-.2h.1l.2.1.4-.2h.2l.1-.2.2-.1.7-.1.4-.2.7-.8h.1v.1l-.2.4v.2l-.4.4-.1.1h.2l.3-.4.2-.1H35.5l.2-.1.2-.2h.1v.1l-.3.4-.2.1-.4.4h-.2v.1l-.4.3h-.2l-.2.1-.5.2-.5.2-.1.1-.2.2h-.1l-.8.4-.5.2zm-.2-.3h.5l.1-.1.8-.4h.1l.2-.2.2-.1.5-.2.2-.1.2-.2h.2l.4-.3V31H34.3h-.1v-.1l.2-.2.2-.2v-.2l-.2.7-.4.2-.7.1-.2.1-.1.1H32.7l-.4.2h-.1l-.2.1V32.1h-.1l-.1-.1-.1.2h-.1l-.1-.1v-.2l.2-.4-.2-.2v-.1l.4-.3v-.2l-.1-.2-.3-2.6-.1-.1.2-2.2.1-.2-.1-.2v-.1l-.3-2.3-.3-.8v.1h-.1-.1l-.1-.3.1-.4-.1-.4-.1-.2-.1-.5v-.5l.1-.1v-.2l-.1-.2v-.4l-.2-.2-.1-.3v-.5l-.1-.2.1-.2-.1-.5-1.6.3-1.5.3h-.2l-.4.2-.8.8-.7 1.1v.3l-.4.4-.1.2-.2.2-.4.4v.2l.1.1.2-.1h.1V21.7l.2-.1h.1v.1l-.1.2-.1.1h-.1l.2.4v.2l.1.2v.2l-.2.2H24l-.2.2-.3.2-.1.2-.2.2-.2.1-.1.2h-.1l-.1-.1h-.4l-.4.1-.4.2h-.1l-.5-.3h-.8l-1.1.5-.4.2-.2.1h-.2l-.2.1-.2.1.1.4v.1l.4.1V26.1l-.1.1.2.5v.2l-.4.4-.1.2-.2.2-.3.3-.4.5-.5.5h-.1l.1.8 1.9-.2 3-.4 3.4-.5 2.3-.4h.1l.2.1.1.2h.2l.2.2.2.5v.2l.2.2.4.2h.2l.2.1v.1l2 .9H31l-.2-.2V30.5h.1s.1 0 .1.1v.2l.2.2.1.4v.7l-.1.4.1.1v.1l-.1.2v-.1zm3.9-2.1l-.3.4h.2l.4-.4.2-.1h-.1H35.2l-.1.1z" fill="#fff"></path></g></g></svg>