<?xml version="1.0" standalone="no"?>
<!DOCTYPE svg PUBLIC "-//W3C//DTD SVG 1.1//EN" "http://www.w3.org/Graphics/SVG/1.1/DTD/svg11.dtd" >
<svg>
<metadata>
Created by FontForge 20090914 at Thu Aug  1 21:23:25 2013
 By www-data
</metadata>
<defs>
<font id="FontconsRegular" horiz-adv-x="900" >
  <font-face 
    font-family="FontconsRegular"
    font-weight="400"
    font-stretch="normal"
    units-per-em="1000"
    panose-1="2 0 5 3 0 0 0 0 0 0"
    ascent="750"
    descent="-250"
    bbox="-2 -24 902.004 753.001"
    underline-thickness="0"
    underline-position="0"
    unicode-range="U+000D-U+F16B"
  />
<missing-glyph horiz-adv-x="500" 
 />
    <glyph glyph-name=".notdef" horiz-adv-x="500" 
 />
    <glyph glyph-name=".notdef" horiz-adv-x="500" 
 />
    <glyph glyph-name="uni000D" unicode="&#xd;" horiz-adv-x="250" 
 />
    <glyph glyph-name="uni2010" unicode="&#x2010;" horiz-adv-x="750" 
d="M0 340v70c0 12.667 4.5 23.5 13.5 32.5s19.833 13.5 32.5 13.5h658c12.667 0 23.5 -4.5 32.5 -13.5s13.5 -19.833 13.5 -32.5v-70c0 -12.667 -4.5 -23.5 -13.5 -32.5s-19.833 -13.5 -32.5 -13.5h-657c-13.333 0 -24.5 4.33301 -33.5 13s-13.5 19.667 -13.5 33z" />
    <glyph glyph-name="guilsinglleft" unicode="&#x2039;" horiz-adv-x="471" 
d="M0 373.5c0 12.333 4.66699 23.166 14 32.499l328 329c9.33301 9.33301 20.333 14 33 14s23.667 -4.66699 33 -14l49 -49c9.33301 -9.33301 14 -20.333 14 -33s-4.66699 -23.667 -14 -33l-248 -249l248 -244c9.33301 -9.33301 14 -20.166 14 -32.499
s-4.66699 -23.166 -14 -32.499l-49 -50c-9.33301 -9.33301 -20.333 -14 -33 -14s-23.667 4.66699 -33 14l-328 329c-9.33301 9.33301 -14 20.166 -14 32.499z" />
    <glyph glyph-name="guilsinglright" unicode="&#x203a;" horiz-adv-x="471" 
d="M0 95c0 12.667 4.66699 23.6689 14 33.002l248 248l-248 245c-9.33301 9.33301 -14 20.166 -14 32.499s4.66699 23.166 14 32.499l49 50c9.33301 9.33301 20.333 14 33 14s23.667 -4.66699 33 -14l328 -329c9.33301 -9.33301 14 -20.333 14 -33s-4.66699 -23.667 -14 -33
l-328 -328c-9.33301 -9.33301 -20.333 -14 -33 -14s-23.667 4.66699 -33 14l-49 49c-9.33301 9.33301 -14 20.333 -14 33z" />
    <glyph glyph-name="arrowleft" unicode="&#x2190;" horiz-adv-x="750" 
d="M0 375c0 12.667 4.66699 23.667 14 33l328 329c9.33301 9.33301 20.333 14 33 14s23.667 -4.66699 33 -14l49 -49c9.33301 -9.33301 14 -20.333 14 -33s-4.66699 -23.667 -14 -33l-165 -165h411c13.333 0 24.5 -4.5 33.5 -13.5s13.5 -20.167 13.5 -33.5v-70
c0 -12.667 -4.5 -23.5 -13.5 -32.5s-19.833 -13.5 -32.5 -13.5h-412l165 -165c9.33301 -9.33301 14 -20.333 14 -33s-4.66699 -23.667 -14 -33l-49 -49c-9.33301 -9.33301 -20.333 -14 -33 -14s-23.667 4.66699 -33 14l-328 328c-9.33301 9.33301 -14 20.333 -14 33z" />
    <glyph glyph-name="arrowup" unicode="&#x2191;" horiz-adv-x="750" 
d="M-0.5 375c-0.333008 12.667 4.16406 23.667 13.4971 33l329 328c9.33301 9.33301 20.333 14 33 14s23.667 -4.66699 33 -14l328 -328c9.33301 -9.33301 14 -20.333 14 -33s-4.66699 -23.667 -14 -33l-49 -49c-9.33301 -9.33301 -20.166 -14 -32.499 -14
s-23.166 4.66699 -32.499 14l-166 165v-412c0 -12.667 -4.5 -23.5 -13.5 -32.5s-19.833 -13.5 -32.5 -13.5h-70c-13.333 0 -24.333 4.5 -33 13.5s-13 19.833 -13 32.5v412l-165 -165c-9.33301 -9.33301 -20.333 -14 -33 -14s-23.667 4.66699 -33 14l-49 49
c-9.33301 9.33301 -14.166 20.333 -14.499 33z" />
    <glyph glyph-name="arrowright" unicode="&#x2192;" horiz-adv-x="750" 
d="M0 341v69.998c0 12.667 4.5 23.5 13.5 32.5s19.833 13.5 32.5 13.5h412l-165 165c-9.33301 9.33301 -14 20.333 -14 33s4.66699 23.667 14 33l49 49c9.33301 9.33301 20.333 14 33 14s23.667 -4.66699 33 -14l328 -329c9.33301 -9.33301 14 -20.166 14 -32.499
s-4.66699 -23.166 -14 -32.499l-328 -329c-9.33301 -9.33301 -20.333 -14 -33 -14s-23.667 4.66699 -33 14l-49 49c-9.33301 9.33301 -14 20.333 -14 33s4.66699 23.667 14 33l165 165h-412c-12.667 0 -23.5 4.5 -32.5 13.5s-13.5 20.167 -13.5 33.5z" />
    <glyph glyph-name="arrowdown" unicode="&#x2193;" horiz-adv-x="750" 
d="M0 374c0 12.667 4.66895 23.667 14.002 33l49 49c9.33301 9.33301 20.333 14 33 14s23.667 -4.66699 33 -14l165 -165v412c0 12.667 4.5 23.5 13.5 32.5s19.833 13.5 32.5 13.5h70c13.333 0 24.333 -4.5 33 -13.5s13 -19.833 13 -32.5v-412l166 165
c9.33301 9.33301 20.166 14 32.499 14s23.166 -4.66699 32.499 -14l50 -49c9.33301 -9.33301 14 -20.333 14 -33s-4.66699 -23.667 -14 -33l-329 -328c-9.33301 -9.33301 -20.333 -14 -33 -14s-23.667 4.66699 -33 14l-328 328c-9.33301 9.33301 -14 20.333 -14 33z" />
    <glyph glyph-name="arrowboth" unicode="&#x2194;" horiz-adv-x="750" 
d="M0 357c0 10 3.33301 18.334 10 25.001l151 151c10 10 18.667 13.5 26 10.5s11 -11.833 11 -26.5v-96h354v96c0 14.667 3.5 23.5 10.5 26.5s15.833 -0.833008 26.5 -11.5l151 -150c6.66699 -6.66699 10 -15 10 -25s-3.33301 -18.333 -10 -25l-151 -151
c-10 -10.667 -18.667 -14.334 -26 -11.001s-11 12.333 -11 27v96h-354v-96c0 -14.667 -3.5 -23.5 -10.5 -26.5s-15.833 0.833008 -26.5 11.5l-151 150c-6.66699 6.66699 -10 15 -10 25z" />
    <glyph glyph-name="arrowupdn" unicode="&#x2195;" horiz-adv-x="375" 
d="M0.5 187c3 7.33301 12.167 11 27.5 11h95v354h-95c-15.333 0 -24.5 3.5 -27.5 10.5s0.833008 15.833 11.5 26.5l150 151c6.66699 6.66699 15.167 10 25.5 10s18.833 -3.33301 25.5 -10l150 -151c10.667 -10 14.5 -18.667 11.5 -26s-12.167 -11 -27.5 -11h-95v-354h95
c15.333 0 24.5 -3.5 27.5 -10.5s-0.833008 -15.833 -11.5 -26.5l-150 -151c-6.66699 -6.66699 -15.167 -10 -25.5 -10s-18.833 3.33301 -25.5 10l-150 151c-10.667 10 -14.5 18.667 -11.5 26z" />
    <glyph glyph-name="uni219E" unicode="&#x219e;" horiz-adv-x="750" 
d="M0 374c0 8.66699 2.66797 15.999 8.00098 21.999l319 345c4.66699 6 10 9 16 9s11 -1 15 -3c11.333 -4.66699 17 -14 17 -28v-689c0 -13.333 -5.83301 -22.666 -17.5 -27.999s-21.834 -3 -30.501 7l-319 344c-5.33301 6 -8 13.333 -8 22v-1zM375.001 374.499
c0 8.33301 2.66797 15.499 8.00098 21.499l319 345c4.66699 6 10 9 16 9s11 -1 15 -3c11.333 -4.66699 17 -14 17 -28v-689c0 -13.333 -5.83301 -22.666 -17.5 -27.999s-21.834 -3 -30.501 7l-319 344c-5.33301 6 -8 13.167 -8 21.5z" />
    <glyph glyph-name="uni21A0" unicode="&#x21a0;" horiz-adv-x="750" 
d="M0 30v690c0 12.667 5.66699 22 17 28c12.667 4.66699 23 2.33398 31 -6.99902l319 -344c5.33301 -6 8 -13.333 8 -22s-2.66699 -16 -8 -22l-319 -344c-5.33301 -6 -10.5 -9 -15.5 -9s-10.167 0.666992 -15.5 2c-11.333 5.33301 -17 14.666 -17 27.999zM375 30v690
c0 12.667 5.66699 22 17 28c12.667 4.66699 23 2.33398 31 -6.99902l319 -344c5.33301 -6 8 -13.333 8 -22s-2.66699 -16 -8 -22l-319 -344c-5.33301 -6 -10.5 -9 -15.5 -9s-10.167 0.666992 -15.5 2c-11.333 5.33301 -17 14.666 -17 27.999z" />
    <glyph glyph-name="uni21BB" unicode="&#x21bb;" horiz-adv-x="747" 
d="M535 582c-50 37.333 -103.335 56.001 -160.002 56.001c-73.333 0 -135 -25.667 -185 -77c-51.333 -52 -77 -114 -77 -186c0 -72.667 25.5 -134.5 76.5 -185.5s112.833 -76.5 185.5 -76.5c66 0 123.667 21.667 173 65c50 43.333 79 97.333 87 162c0.666992 4 3 8 7 12
c4.66699 3.33301 9.33398 4.66602 14.001 3.99902l75 -10c5.33301 -0.666992 9.5 -3 12.5 -7s4.16699 -8.66699 3.5 -14c-6 -46 -20 -88.833 -42 -128.5s-49.667 -73.834 -83 -102.501c-71.333 -62.667 -153.666 -94 -246.999 -94c-52 0 -100.667 9.83301 -146 29.5
s-85 46.5 -119 80.5s-60.833 73.667 -80.5 119s-29.5 94 -29.5 146s9.83301 100.667 29.5 146s46.5 85 80.5 119s73.667 60.833 119 80.5s94 29.5 146 29.5c88.667 0 168.667 -29.333 240 -88l76 76c10.667 10.667 19.667 14.5 27 11.5s11 -12.167 11 -27.5v-217
c0 -10 -3.5 -18.5 -10.5 -25.5s-15.5 -10.5 -25.5 -10.5l-217 -1c-15.333 0 -24.5 3.83301 -27.5 11.5s0.833008 16.834 11.5 27.501z" />
    <glyph glyph-name="uni21C4" unicode="&#x21c4;" 
d="M902 262l-0.000976562 -96.001c0 -4.66699 -1.5 -8.66699 -4.5 -12s-6.83301 -5 -11.5 -5h-693v-96c0 -4.66699 -1.5 -8.5 -4.5 -11.5s-6.83301 -4.5 -11.5 -4.5c-4 0 -8 1.66699 -12 5l-161 161c-2.66699 2.66699 -4 6.33398 -4 11.001s1.33301 8.66699 4 12l162 161
c2.66699 2.66699 6.33398 4 11.001 4s8.5 -1.5 11.5 -4.5s4.5 -6.83301 4.5 -11.5v-97h693c4.66699 0 8.5 -1.5 11.5 -4.5s4.5 -6.83301 4.5 -11.5zM901.999 535.999c0 -4.66699 -1.33301 -8.33301 -4 -11l-161 -162c-3.33301 -2.66699 -7.33301 -4 -12 -4
c-4 0 -7.66699 1.5 -11 4.5s-5 6.83301 -5 11.5v97h-693c-4 0 -7.66699 1.5 -11 4.5s-5 6.83301 -5 11.5v96c0 4.66699 1.66699 8.66699 5 12s7 5 11 5h693v96c0 4.66699 1.5 8.5 4.5 11.5s6.83301 4.5 11.5 4.5c4 0 8 -1.66699 12 -5l161 -160
c2.66699 -3.33301 4 -7.33301 4 -12z" />
    <glyph glyph-name="uni21E4" unicode="&#x21e4;" horiz-adv-x="525" 
d="M0 37c0 -10 3.66699 -18.667 11 -26s16 -11 26 -11h75c10.667 0 19.667 3.66699 27 11s11 16 11 26v675c0 10.667 -3.66699 19.667 -11 27s-16.333 11 -27 11h-75c-10 0 -18.667 -3.66699 -26 -11s-11 -16.333 -11 -27v-675zM150 375
c0 8.66699 2.66797 15.667 8.00098 21l319 345c4.66699 6 9.66699 9 15 9s10.666 -0.666992 15.999 -2c11.333 -6 17 -15.667 17 -29v-689c0 -13.333 -5.66699 -22.666 -17 -27.999c-12.667 -4.66699 -23 -2.33398 -31 6.99902l-319 344c-5.33301 6 -8 13.333 -8 22z" />
    <glyph glyph-name="uni21E5" unicode="&#x21e5;" horiz-adv-x="525" 
d="M0 30v690c0 12.667 5.66699 22 17 28c12.667 4.66699 23 2.33398 31 -6.99902l319 -344c5.33301 -6 8 -13.333 8 -22s-2.66699 -16 -8 -22l-319 -344c-5.33301 -6 -10.5 -9 -15.5 -9s-10.167 0.666992 -15.5 2c-11.333 5.33301 -17 14.666 -17 27.999zM375 37
c0 -10 3.66699 -18.667 11 -26s16 -11 26 -11h75c10.667 0 19.667 3.66699 27 11s11 16 11 26v675c0 10.667 -3.66699 19.667 -11 27s-16.333 11 -27 11h-75c-10 0 -18.667 -3.66699 -26 -11s-11 -16.333 -11 -27v-675z" />
    <glyph glyph-name="circleplus" unicode="&#x2295;" horiz-adv-x="750" 
d="M0 375c0 52 9.83301 100.667 29.5 146s46.5 85 80.5 119s73.667 60.833 119 80.5s94 29.5 146 29.5s100.667 -9.83301 146 -29.5s85 -46.5 119 -80.5s60.833 -73.667 80.5 -119s29.5 -94 29.5 -146s-9.83301 -100.667 -29.5 -146s-46.5 -85 -80.5 -119
s-73.667 -60.833 -119 -80.5s-94 -29.5 -146 -29.5s-100.667 9.83301 -146 29.5s-85 46.5 -119 80.5s-60.833 73.667 -80.5 119s-29.5 94 -29.5 146zM159 338c0 -4.66699 1.5 -8.5 4.5 -11.5s6.5 -4.5 10.5 -4.5h147v-161c0 -4.66699 1.5 -8.5 4.5 -11.5s6.5 -4.5 10.5 -4.5
h78c4 0 7.5 1.5 10.5 4.5s4.5 6.83301 4.5 11.5v161h147c4 0 7.5 1.5 10.5 4.5s4.5 6.83301 4.5 11.5v74c0 4 -1.5 7.5 -4.5 10.5s-6.5 4.5 -10.5 4.5h-147v162c0 4.66699 -1.5 8.5 -4.5 11.5s-6.5 4.5 -10.5 4.5h-78c-4 0 -7.5 -1.5 -10.5 -4.5s-4.5 -6.83301 -4.5 -11.5
v-162h-147c-4 0 -7.5 -1.5 -10.5 -4.5s-4.5 -6.5 -4.5 -10.5v-74z" />
    <glyph glyph-name="uni2296" unicode="&#x2296;" horiz-adv-x="750" 
d="M0 375c0 52 9.83301 100.667 29.5 146s46.5 85 80.5 119s73.667 60.833 119 80.5s94 29.5 146 29.5s100.667 -9.83301 146 -29.5s85 -46.5 119 -80.5s60.833 -73.667 80.5 -119s29.5 -94 29.5 -146s-9.83301 -100.667 -29.5 -146s-46.5 -85 -80.5 -119
s-73.667 -60.833 -119 -80.5s-94 -29.5 -146 -29.5s-100.667 9.83301 -146 29.5s-85 46.5 -119 80.5s-60.833 73.667 -80.5 119s-29.5 94 -29.5 146zM159 338c0 -4.66699 1.5 -8.5 4.5 -11.5s6.5 -4.5 10.5 -4.5h402c4 0 7.5 1.5 10.5 4.5s4.5 6.83301 4.5 11.5v74
c0 4 -1.5 7.5 -4.5 10.5s-6.5 4.5 -10.5 4.5h-402c-4 0 -7.5 -1.5 -10.5 -4.5s-4.5 -6.5 -4.5 -10.5v-74z" />
    <glyph glyph-name="circlemultiply" unicode="&#x2297;" horiz-adv-x="750" 
d="M0 375c0 52 9.83301 100.667 29.5 146s46.5 85 80.5 119s73.667 60.833 119 80.5s94 29.5 146 29.5s100.667 -9.83301 146 -29.5s85 -46.5 119 -80.5s60.833 -73.667 80.5 -119s29.5 -94 29.5 -146s-9.83301 -100.667 -29.5 -146s-46.5 -85 -80.5 -119
s-73.667 -60.833 -119 -80.5s-94 -29.5 -146 -29.5s-100.667 9.83301 -146 29.5s-85 46.5 -119 80.5s-60.833 73.667 -80.5 119s-29.5 94 -29.5 146zM113 375c0 -36 6.83301 -70 20.5 -102s32.334 -59.833 56.001 -83.5s51.5 -42.334 83.5 -56.001s66 -20.5 102 -20.5
s70 6.83301 102 20.5s60 32.334 84 56.001s42.833 51.5 56.5 83.5s20.5 66 20.5 102s-6.83301 70 -20.5 102s-32.5 60 -56.5 84s-52 42.833 -84 56.5s-66 20.5 -102 20.5s-70 -6.83301 -102 -20.5s-59.833 -32.5 -83.5 -56.5s-42.334 -52 -56.001 -84s-20.5 -66 -20.5 -102z
M212 466c0 5.33301 1.66797 10 5.00098 14l53 53c4 3.33301 8.66699 5 14 5s9.66602 -1.66699 12.999 -5l78 -78l78 78c4 3.33301 8.66699 5 14 5s9.66602 -1.66699 12.999 -5l53 -53c3.33301 -4 5 -8.66699 5 -14s-1.66699 -9.66602 -5 -12.999l-78 -78l78 -78
c8 -9.33301 8 -18.333 0 -27l-53 -53c-9.33301 -8 -18.333 -8 -27 0l-78 78l-78 -78c-3.33301 -3.33301 -7.66602 -5 -12.999 -5s-10 1.66699 -14 5l-53 53c-8 8.66699 -8 17.667 0 27l79 78l-79 78c-3.33301 3.33301 -5 7.66602 -5 12.999z" />
    <glyph glyph-name="uni2298" unicode="&#x2298;" horiz-adv-x="750" 
d="M0 375c0 52 9.83301 100.667 29.5 146s46.5 85 80.5 119s73.667 60.833 119 80.5s94 29.5 146 29.5s100.667 -9.83301 146 -29.5s85 -46.5 119 -80.5s60.833 -73.667 80.5 -119s29.5 -94 29.5 -146s-9.83301 -100.667 -29.5 -146s-46.5 -85 -80.5 -119
s-73.667 -60.833 -119 -80.5s-94 -29.5 -146 -29.5s-100.667 9.83301 -146 29.5s-85 46.5 -119 80.5s-60.833 73.667 -80.5 119s-29.5 94 -29.5 146zM516 596c-43.333 28 -86.667 42 -130 42s-81 -6.83301 -113 -20.5s-59.667 -32.5 -83 -56.5
c-51.333 -52 -77 -114 -77 -186c0 -51.333 13.667 -98.333 41 -141zM233.999 154c42.667 -27.333 89.667 -41 141 -41c72 0 134 25.667 186 77c51.333 50 77 111.667 77 185c0 50.667 -14 97.667 -42 141z" />
    <glyph glyph-name="uni22EF" unicode="&#x22ef;" 
d="M28 444.5c19.333 19 42.499 28.501 69.499 28.501s50.167 -9.66699 69.5 -29s29 -42.5 29 -69.5s-9.5 -50.167 -28.5 -69.5s-42.167 -29 -69.5 -29s-50.666 9.66699 -69.999 29s-29 42.666 -29 69.999s9.66699 50.5 29 69.5zM448.999 473.001
c27.333 0 50.666 -9.50098 69.999 -28.501s29 -42.167 29 -69.5s-9.66699 -50.666 -29 -69.999s-42.666 -29 -69.999 -29s-50.5 9.66699 -69.5 29s-28.5 42.5 -28.5 69.5s9.5 50.167 28.5 69.5s42.167 29 69.5 29zM800.999 473c27.333 0 50.666 -9.50098 69.999 -28.501
s29 -42.167 29 -69.5s-9.66699 -50.666 -29 -69.999s-42.666 -29 -69.999 -29s-50.833 9.66699 -70.5 29s-29.5 42.5 -29.5 69.5s9.83301 50.167 29.5 69.5s43.167 29 70.5 29z" />
    <glyph glyph-name="house" unicode="&#x2302;" 
d="M2 362c-6 16.667 -1.99902 30.667 12.001 42l412 338c7.33301 5.33301 15.333 8 24 8s16.667 -2.66699 24 -8l126 -104v58c0 12.667 6.33301 19 19 19h112c12.667 0 19 -6.33301 19 -19v-180l136 -112c14 -11.333 18 -25.333 12 -42c-6.66699 -16 -18.667 -24 -36 -24
h-75v-300c0 -10.667 -3.5 -19.667 -10.5 -27s-15.833 -11 -26.5 -11h-206v225h-188v-225h-206c-10.667 0 -19.667 3.66699 -27 11s-11 16.333 -11 27v300h-75c-16.667 0 -28.334 8 -35.001 24z" />
    <glyph glyph-name="uni2303" unicode="&#x2303;" horiz-adv-x="750" 
d="M-0.5 173.5c-0.333008 12.333 4.16602 23.166 13.499 32.499l329 329c9.33301 9.33301 20.333 14 33 14s23.667 -4.66699 33 -14l328 -329c9.33301 -9.33301 14 -20.166 14 -32.499s-4.66699 -23.166 -14 -32.499l-49 -50c-9.33301 -9.33301 -20.333 -14 -33 -14
s-23.667 4.66699 -33 14l-248 249l-244 -249c-9.33301 -9.33301 -20.333 -14 -33 -14s-23.667 4.66699 -33 14l-49 50c-9.33301 9.33301 -14.166 20.166 -14.499 32.499z" />
    <glyph glyph-name="uni2304" unicode="&#x2304;" horiz-adv-x="750" 
d="M0 448.5c0 12.333 4.66797 23.166 14.001 32.499l49 50c9.33301 9.33301 20.333 14 33 14s23.667 -4.66699 33 -14l248 -249l244 249c9.33301 9.33301 20.333 14 33 14s23.667 -4.66699 33 -14l49 -50c9.33301 -9.33301 14.166 -20.166 14.499 -32.499
s-4.16699 -23.166 -13.5 -32.499l-329 -329c-9.33301 -9.33301 -20.333 -14 -33 -14s-23.667 4.66699 -33 14l-328 329c-9.33301 9.33301 -14 20.166 -14 32.499z" />
    <glyph glyph-name="uni231B" unicode="&#x231b;" 
d="M660 577c0 -18 -7.66699 -37 -23 -57s-32 -37.5 -50 -52.5s-34.667 -31.167 -50 -48.5s-23 -32.166 -23 -44.499s7.66699 -27.166 23 -44.499s32 -33.5 50 -48.5s34.667 -32.667 50 -53s23 -39.5 23 -57.5v-88c0 -16.667 -21.5 -34.667 -64.5 -54s-91.5 -29 -145.5 -29
s-102.5 9.66699 -145.5 29s-64.5 37.333 -64.5 54v88c0 18 7.66699 37.167 23 57.5s32 38 50 53s34.667 31.167 50 48.5s23 32.166 23 44.499s-7.66699 27.166 -23 44.499s-32 33.5 -50 48.5s-34.667 32.5 -50 52.5s-23 39 -23 57v88c0 16.667 21.5 34.834 64.5 54.501
s91.5 29.5 145.5 29.5s102.5 -9.83301 145.5 -29.5s64.5 -37.834 64.5 -54.501v-88zM298 662l-11 -8.00098c-4.66699 -6 -4.33398 -10.333 0.999023 -13c45.333 -27.333 99.333 -41 162 -41c66.667 0 121.334 13 164.001 39c9.33301 5.33301 5.33301 13 -12 23
c-4.66699 2.66699 -12 6.33398 -22 11.001c-9.33301 4.66699 -27 10.667 -53 18s-51 11 -75 11c-60 0 -111.333 -13.333 -154 -40zM469 373.999c0 8 0.999023 15.3359 2.99902 22.0029c2.66699 7.33301 5.33398 13.333 8.00098 18c2 5.33301 6.33301 11.833 13 19.5
s11.667 12.834 15 15.501l19 19l19 18c45.333 42.667 68 73 68 91l2 38c-48.667 -27.333 -104 -41 -166 -41c-61.333 0 -116.666 13.667 -165.999 41l2 -38c0 -18 22.667 -48.333 68 -91l19 -18l19 -19c3.33301 -2.66699 8.33301 -7.83398 15 -15.501s11 -14.167 13 -19.5
c2 -4 4.33301 -10 7 -18c2.66699 -6.66699 4 -13.834 4 -21.501s-1.33301 -15.167 -4 -22.5c-2 -6.66699 -4.33301 -12.667 -7 -18c-2 -4.66699 -6.33301 -10.834 -13 -18.501s-11.667 -13.167 -15 -16.5l-19 -18l-19 -18c-45.333 -43.333 -68 -74 -68 -92v-50
c3.33301 1.33301 20 7 50 17c29.333 10 52.5 21.167 69.5 33.5s25.5 26.833 25.5 43.5c0 9.33301 3.16699 16 9.5 20s12.666 4 18.999 0s9.5 -10.667 9.5 -20c0 -16.667 8.5 -31.167 25.5 -43.5s40.167 -23.5 69.5 -33.5c30 -10 46.667 -15.667 50 -17v50
c0 18 -22.667 48.667 -68 92l-19 18l-19 18c-3.33301 3.33301 -8.33301 8.83301 -15 16.5s-11.167 14 -13.5 19s-4.83301 10.833 -7.5 17.5c-2 7.33301 -3 14.666 -3 21.999z" />
    <glyph glyph-name="uni2328" unicode="&#x2328;" 
d="M65 645h771c17.333 0 32.333 -6.33301 45 -19c12.667 -14.667 19 -29.667 19 -45v-412c0 -17.333 -6.33301 -32.333 -19 -45s-27.667 -19 -45 -19h-771c-17.333 0 -32.333 6.33301 -45 19c-12.667 14.667 -19 29.667 -19 45v412c0 16 6.33301 30.333 19 43
s27.667 19 45 19v2zM496 554v-90h90v90h-90zM630 420h-89v-90h89v90zM360 554v-90h90v90h-90zM494 420h-89v-90h89v90zM226 554v-90h90v90h-90zM360 420h-89v-90h89v90zM90 554v-90h92v90h-92zM226 420h-89v-90h89v90zM180 194v90h-90v-90h90zM675 194v90h-449v-90h449z
M809 194v90h-89v-90h89zM675 330h89v90h-89v-90zM809 464v90h-179v-90h179z" />
    <glyph glyph-name="uni237E" unicode="&#x237e;" 
d="M367 83l0.999023 9.99805h-210c-9.33301 0 -17.666 3.66699 -24.999 11s-11 15.666 -11 24.999l92 89c-0.666992 4.66699 -1 12 -1 22v182c0 50.667 14.667 96.334 44 137.001s67.333 69.334 114 86.001c-2.66699 6.66699 -4 14.334 -4 23.001c0 22.667 8 42 24 58
s35.333 24 58 24s42 -8 58 -24s24 -35.333 24 -58c0 -8.66699 -0.666992 -16.334 -2 -23.001c46 -16.667 83.833 -45.5 113.5 -86.5s44.5 -86.5 44.5 -136.5v-182c0 -10 -0.333008 -17.333 -1 -22l91 -89c0 -9.33301 -3.5 -17.666 -10.5 -24.999s-15.5 -11 -25.5 -11h-211
c0.666992 -2 1 -5.33301 1 -10c0 -22.667 -8 -42 -24 -58s-35.333 -24 -58 -24s-42 8 -58 24s-24 35.333 -24 58zM416.999 699.998c-8.66699 -8.66699 -12.999 -17.001 -12.999 -25.001s0.666992 -14.667 2 -20c16 2.66699 30.5 4 43.5 4s27.5 -1.33301 43.5 -4
c1.33301 4 2 10.333 2 19s-4.5 17.334 -13.5 26.001s-19.833 13 -32.5 13s-23.334 -4.33301 -32.001 -13z" />
    <glyph glyph-name="uni2399" unicode="&#x2399;" 
d="M0 19v169c0 15.333 3 29.833 9 43.5s14.167 25.5 24.5 35.5s22.333 18 36 24s28.167 9 43.5 9h675c15.333 0 29.833 -3 43.5 -9s25.5 -14 35.5 -24s18 -21.833 24 -35.5s9 -28.167 9 -43.5v-169c0 -12.667 -6.33301 -19 -19 -19h-862c-12.667 -0 -19 6.33301 -19 19z
M131 94c0 -5.33301 1.83301 -9.66602 5.5 -12.999s8.16699 -5 13.5 -5h600c5.33301 0 9.83301 1.66699 13.5 5s5.5 7.66602 5.5 12.999v19c0 5.33301 -1.83301 9.83301 -5.5 13.5s-8.16699 5.5 -13.5 5.5h-600c-5.33301 0 -9.83301 -1.83301 -13.5 -5.5
s-5.5 -8.16699 -5.5 -13.5v-19zM150 356v357c0 10 3.66699 18.667 11 26s16.333 11 27 11h318v-187c0 -16 5.5 -29.5 16.5 -40.5s24.167 -16.5 39.5 -16.5h188v-150h-600zM562 563v187l188 -187h-188z" />
    <glyph glyph-name="uni23F0" unicode="&#x23f0;" 
d="M450 515c-54 0 -100.167 -19.167 -138.5 -57.5s-57.5 -84.666 -57.5 -138.999s19.167 -100.666 57.5 -138.999s84.5 -57.5 138.5 -57.5s100.333 19.167 139 57.5s58 84.666 58 138.999s-19.333 100.666 -58 138.999s-85 57.5 -139 57.5zM658.5 526.5
c57.667 -57.667 86.5 -127.167 86.5 -208.5s-28.833 -150.666 -86.5 -207.999s-127.167 -86 -208.5 -86s-150.666 28.667 -207.999 86s-86 126.666 -86 207.999s28.667 150.833 86 208.5s126.666 86.5 207.999 86.5s150.833 -28.833 208.5 -86.5zM446.5 293
c-7 0 -12.833 2.33301 -17.5 7s-7 10.334 -7 17.001v50c0 6.66699 2.33301 12.334 7 17.001s10.5 7 17.5 7s12.833 -2.33301 17.5 -7s7 -10.334 7 -17.001v-50c0 -6.66699 -2.33301 -12.334 -7 -17.001s-10.5 -7 -17.5 -7zM551 256
c0.666992 -6.66699 -1.33008 -12.833 -5.99707 -18.5s-10.334 -8.5 -17.001 -8.5s-12.334 1.66699 -17.001 5l-80 64c-5.33301 4.66699 -8.33301 10.334 -9 17.001s1.16602 12.667 5.49902 18s9.83301 8.33301 16.5 9s12.667 -1 18 -5l80 -64
c5.33301 -4.66699 8.33301 -10.334 9 -17.001zM571.003 712.001c32.667 21.333 69 30.168 109 26.501s74.167 -19.834 102.5 -48.501s44.5 -63 48.5 -103s-5 -76 -27 -108zM114.003 479.003c-22 32 -31 67.998 -27 107.998s20.167 74.333 48.5 103s62.5 44.834 102.5 48.501
s76.333 -5.16602 109 -26.499zM732.003 6.00098c-4.66699 -4.66699 -10.332 -7.00098 -16.999 -7.00098s-12.334 2.33301 -17.001 7l-70 70c-4.66699 4.66699 -7 10.334 -7 17.001s2.33301 12.5 7 17.5s10.5 7.5 17.5 7.5s12.833 -2.66699 17.5 -8l69 -69
c4.66699 -4.66699 7 -10.5 7 -17.5s-2.33301 -12.833 -7 -17.5zM186.005 41l68.999 69.001c5.33301 5.33301 11.333 8 18 8s12.334 -2.5 17.001 -7.5s7 -10.833 7 -17.5s-2.33301 -12.334 -7 -17.001l-69 -70c-4.66699 -4.66699 -10.5 -7 -17.5 -7s-12.833 2.33301 -17.5 7
s-7 10.5 -7 17.5s2.33301 12.833 7 17.5z" />
    <glyph glyph-name="block" unicode="&#x2588;" horiz-adv-x="750" 
d="M0 34v682c-0 9.33301 3.33301 17.333 10 24s14.667 10 24 10h682c9.33301 0 17.333 -3.33301 24 -10s10 -14.667 10 -24v-682c0 -9.33301 -3.33301 -17.333 -10 -24s-14.667 -10 -24 -10h-682c-9.33301 -0 -17.333 3.33301 -24 10s-10 14.667 -10 24z" />
    <glyph glyph-name="uni25B6" unicode="&#x25b6;" horiz-adv-x="659" 
d="M0 34l-0.000976562 681.999c0 12.667 5.83301 22.5 17.5 29.5s22.834 6.83301 33.501 -0.5l591 -340c11.333 -8 17 -18 17 -30s-5.66699 -22 -17 -30l-591 -340c-5.33301 -3.33301 -11 -5 -17 -5s-11.667 1.66699 -17 5c-11.333 6.66699 -17 16.334 -17 29.001z" />
    <glyph glyph-name="uni25D1" unicode="&#x25d1;" horiz-adv-x="750" 
d="M0 375c0 52 9.83301 100.667 29.5 146s46.5 85 80.5 119s73.667 60.833 119 80.5s94 29.5 146 29.5s100.667 -9.83301 146 -29.5s85 -46.5 119 -80.5s60.833 -73.667 80.5 -119s29.5 -94 29.5 -146s-9.83301 -100.667 -29.5 -146s-46.5 -85 -80.5 -119
s-73.667 -60.833 -119 -80.5s-94 -29.5 -146 -29.5s-100.667 9.83301 -146 29.5s-85 46.5 -119 80.5s-60.833 73.667 -80.5 119s-29.5 94 -29.5 146zM113 375c0 -36 6.83203 -70 20.499 -102s32.5 -59.667 56.5 -83c50.667 -51.333 112.334 -77 185.001 -77v525
c-73.333 0 -135 -25.667 -185 -77c-51.333 -52 -77 -114 -77 -186z" />
    <glyph glyph-name="uni25F7" unicode="&#x25f7;" 
d="M450 665v-332.002h334c0 -92 -32.5 -170.5 -97.5 -235.5s-143.333 -97.5 -235 -97.5s-170 32.5 -235 97.5s-97.5 143.333 -97.5 235s32.333 169.834 97 234.501s142.667 97.334 234 98.001zM535 748.998c91.333 0 169.667 -32.668 235 -98.001s98 -143.666 98 -234.999
h-334v333h1z" />
    <glyph glyph-name="uni2601" unicode="&#x2601;" 
d="M723 61l-10 0.999023h-535c-49.333 0.666992 -91.5 18.667 -126.5 54s-52.5 78 -52.5 128c0 32.667 8 62.834 24 90.501s37.667 49.167 65 64.5c-4 12 -6 24.667 -6 38c0 34 12.167 63.167 36.5 87.5s51.833 36.5 82.5 36.5s57.667 -9 81 -27c22.667 46 55.5 83 98.5 111
s90.833 42 143.5 42c74 0 137.167 -26 189.5 -78s78.5 -115.333 78.5 -190c0 -7.33301 -0.333008 -12.666 -1 -15.999c33.333 -13.333 60 -34.833 80 -64.5s30 -62.834 30 -99.501c0 -48.667 -17.5 -90.5 -52.5 -125.5s-76.833 -52.5 -125.5 -52.5z" />
    <glyph glyph-name="uni2605" unicode="&#x2605;" horiz-adv-x="787" 
d="M0 465c3.33301 8.66699 11.9971 14 25.9971 16l238 35l106 215c6.66699 13.333 14.5 20 23.5 20s16.5 -6.66699 22.5 -20l107 -215l237 -35c14.667 -2 23.334 -7.33301 26.001 -16s-1 -18 -11 -28l-172 -168l40 -236c2.66699 -14.667 0.333984 -24.667 -6.99902 -30
s-17.333 -4.33301 -30 3l-213 111l-212 -111c-13.333 -7.33301 -23.666 -8.33301 -30.999 -3s-9.66602 15.333 -6.99902 30l41 236l-172 168c-10.667 10 -14.334 19.333 -11.001 28h-1z" />
    <glyph glyph-name="uni2606" unicode="&#x2606;" horiz-adv-x="787" 
d="M0.5 465c3 8.66699 11.499 13.999 25.499 15.999l238 34l106 216c6 12.667 13.667 19 23 19s17 -6.33301 23 -19l107 -216l237 -34c14.667 -2 23.334 -7.33301 26.001 -16s-1 -18 -11 -28l-172 -168l40 -236c4 -22 -2 -33 -18 -33c-4.66699 0 -11 1.66699 -19 5l-213 112
l-212 -112c-8 -3.33301 -15 -5 -21 -5s-10.667 2.83301 -14 8.5s-4.33301 13.834 -3 24.501l41 236l-172 168c-10.667 10 -14.5 19.333 -11.5 28zM135.999 420.999l100 -98l29 -27l-31 -178l159 84l159 -84l-23 139l-7 39l129 125l-139 20l-39 6l-80 161l-79 -161z" />
    <glyph glyph-name="uni260E" unicode="&#x260e;" 
d="M284 727c4 -2.66699 6.66992 -4.33203 8.00293 -4.99902c11.333 -6.66699 22.666 -34.5 33.999 -83.5s16.666 -78.833 15.999 -89.5s-6 -21.667 -16 -33s-29.667 -29.666 -59 -54.999c8 -24 21.167 -50.833 39.5 -80.5s37.166 -55.334 56.499 -77.001
s43.833 -45 73.5 -70s56.167 -42.833 79.5 -53.5c26 22.667 44.667 38.334 56 47.001c16.667 12.667 30 18 40 16c11.333 -0.666992 40.666 -9.5 87.999 -26.5s73.333 -31.5 78 -43.5c22 -43.333 24.333 -75.666 7 -96.999c-31.333 -38.667 -63.666 -63.667 -96.999 -75h-1
c-6 0 -14.167 -0.5 -24.5 -1.5s-24.5 0.166992 -42.5 3.5s-37 7.16602 -57 11.499s-42.5 11.666 -67.5 21.999s-49.5 22.166 -73.5 35.499c-54.667 31.333 -106 73.333 -154 126c-32.667 37.333 -60.667 77.666 -84 120.999s-40.166 83 -50.499 119s-17.833 70 -22.5 102
c-8.66699 58.667 -8.66699 97.334 0 116.001c15.333 30 43.666 58 84.999 84c6 4 12.333 6.66699 19 8c18.667 3.33301 41.667 -3.66699 69 -21z" />
    <glyph glyph-name="uni2611" unicode="&#x2611;" 
d="M0 150l0.00195312 450.002c0 41.333 14.667 76.666 44 105.999s64.666 44 105.999 44h525c8.66699 0 17 -1 25 -3l-91 -91h-459c-15.333 0 -28.5 -5.5 -39.5 -16.5s-16.5 -24.167 -16.5 -39.5v-450c0 -15.333 5.5 -28.5 16.5 -39.5s24.167 -16.5 39.5 -16.5h525
c15.333 0 28.5 5.5 39.5 16.5s16.5 24.167 16.5 39.5v159l94 94v-253c0 -40.667 -14.833 -75.834 -44.5 -105.501s-64.834 -44.5 -105.501 -44.5h-525c-42 0 -77.333 14.667 -106 44c-29.333 30.667 -44 66 -44 106zM188.002 472.002c0 10.667 3.66699 19.667 11 27l48 48
c7.33301 7.33301 16.333 11 27 11s19.667 -3.66699 27 -11l166 -166l319 320c7.33301 7.33301 16.5 11 27.5 11s20.167 -3.66699 27.5 -11l48 -48c7.33301 -7.33301 11 -16.333 11 -27s-3.66699 -19.667 -11 -27l-395 -395c-7.33301 -7.33301 -16.333 -11 -27 -11
s-19.667 3.66699 -27 11l-49 48l-192 193c-7.33301 7.33301 -11 16.333 -11 27z" />
    <glyph glyph-name="uniF0DA" unicode="&#x2622;" 
d="M797 233l-2.99805 -8c-30 -68.667 -76.167 -123.5 -138.5 -164.5s-130.833 -61.5 -205.5 -61.5c-50.667 0 -99.667 10 -147 30c-46 20 -86.167 47.5 -120.5 82.5s-60.833 75.833 -79.5 122.5c-38.667 96 -38.334 191.667 0.999023 287c30 70.667 77 127 141 169
c62.667 40.667 131 61 205 61c49.333 0 97 -9.33301 143 -28c46 -19.333 86.5 -46.5 121.5 -81.5s62.167 -75.5 81.5 -121.5c39.333 -95.333 39.666 -191 0.999023 -287zM759.002 505c-17.333 41.333 -41.5059 77.5 -72.5059 108.5s-67.167 55.167 -108.5 72.5
s-84 26 -128 26c-66.667 0 -127.667 -18.333 -183 -55c-57.333 -38 -99.333 -88.333 -126 -151c-35.333 -86 -35.666 -171.667 -0.999023 -257c16.667 -41.333 40.334 -77.833 71.001 -109.5s66.334 -56.167 107.001 -73.5c42 -18 86 -27 132 -27
c66.667 0 127.834 18.333 183.501 55s96.834 85.667 123.501 147l3 7c34.667 86 34.334 171.667 -0.999023 257zM450.996 317c17.333 0 32 6 44 18s18 26.333 18 43s-6 31 -18 43s-26.667 18 -44 18s-32 -6 -44 -18s-18 -26.333 -18 -43s6 -31 18 -43s26.667 -18 44 -18z
M140.996 378c0 -54.667 13.833 -105.833 41.5 -153.5s65.5 -85.167 113.5 -112.5l109 186c-14.667 8.66699 -26.167 20 -34.5 34s-12.5 29.333 -12.5 46h-217zM295.996 644.001l108.001 -186c31.333 17.333 62.666 17.333 93.999 0l108 186c-48 27.333 -99.667 41 -155 41
s-107 -13.667 -155 -41zM543.997 378.001c0 -16.667 -4.16699 -32.001 -12.5 -46.001s-19.5 -25.333 -33.5 -34l108 -186c48 27.333 85.833 64.833 113.5 112.5s41.5 98.834 41.5 153.501h-217z" />
    <glyph glyph-name="uni2641" unicode="&#x2641;" 
d="M450 750c68 0 130.668 -16.833 188.001 -50.5s102.666 -79.167 135.999 -136.5c34 -57.333 51 -119.833 51 -187.5s-16.833 -130.334 -50.5 -188.001s-79.167 -103.167 -136.5 -136.5c-57.333 -34 -120 -51 -188 -51s-130.667 17 -188 51
c-57.333 33.333 -102.833 78.833 -136.5 136.5s-50.5 120.334 -50.5 188.001s16.833 130.167 50.5 187.5s79.167 103 136.5 137c57.333 33.333 120 50 188 50zM769.001 375c0 69.333 -20.166 131.834 -60.499 187.501s-92.833 94.167 -157.5 115.5
c-9.33301 -11.333 -13.666 -19.666 -12.999 -24.999c2 -20 6.83301 -33.167 14.5 -39.5s15.5 -7.83301 23.5 -4.5l25 10c8 2.66699 13 3 15 1c7.33301 -8.66699 10 -16.834 8 -24.501s-6.83301 -14.834 -14.5 -21.501s-15 -14.667 -22 -24s-11.833 -19.5 -14.5 -30.5
s0 -24.833 8 -41.5c9.33301 -18.667 19.666 -31.5 30.999 -38.5s26 -10.833 44 -11.5c10 0 18.667 -5.33301 26 -16s12.333 -21.334 15 -32.001c2.66699 -10 4.66699 -20.333 6 -31c1.33301 -14 1 -32.833 -1 -56.5s-5.66699 -41.167 -11 -52.5
c-4.66699 -14 -5.33398 -26 -2.00098 -36s8.33301 -17.667 15 -23c43.333 56.667 65 121.334 65 194.001zM406.002 691.001c-57.333 -8 -108.837 -30.166 -154.504 -66.499s-78.834 -81.166 -99.501 -134.499c0.666992 0 6 -0.333008 16 -1s17.667 -1.66699 23 -3
c4 0 10.667 -1 20 -3c8 -2 14.167 -4.33301 18.5 -7s7.16602 -5.66699 8.49902 -9c2.66699 -6.66699 -0.666016 -18.5 -9.99902 -35.5s-14 -32.5 -14 -46.5c0 -10.667 3 -19.834 9 -27.501s12.833 -13.5 20.5 -17.5s14.5 -9.16699 20.5 -15.5s9 -13.5 9 -21.5
c0 -13.333 2.16699 -30.5 6.5 -51.5s6.5 -32.5 6.5 -34.5c0 -6.66699 9.16699 -21 27.5 -43s31.833 -33 40.5 -33c5.33301 0 8.33301 6 9 18c0.666992 11.333 0 25.666 -2 42.999c-1.33301 16.667 -2 26.667 -2 30c0.666992 15.333 4.33398 34.666 11.001 57.999
c3.33301 13.333 9.33301 25 18 35c8.66699 9.33301 17.667 15.666 27 18.999c8.66699 4.66699 17.334 9.66699 26.001 15c8.66699 6 14.667 13 18 21c4.66699 16.667 7.33398 30.667 8.00098 42c0.666992 12 -2 22.667 -8 32c-6.66699 8.66699 -13.5 15.834 -20.5 21.501
s-15.833 10.5 -26.5 14.5c-10 4 -18.667 6.83301 -26 8.5s-15.166 3.33398 -23.499 5.00098s-13.166 2.83398 -14.499 3.50098c-8.66699 2.66699 -19.334 4.33398 -32.001 5.00098c-13.333 0.666992 -22.833 0 -28.5 -2s-13 1 -22 9s-13.5 15.667 -13.5 23
c0 5.33301 4 12 12 20c8 9.33301 17.333 19 28 29s17.667 18.333 21 25c4.66699 6.66699 9.33398 12 14.001 16c4.66699 3.33301 10.5 7.16602 17.5 11.499s14.167 9.83301 21.5 16.5c2 1.33301 8.33301 5.33301 19 12c11.333 7.33301 18.333 13.666 21 18.999z
M348.998 72.002c32.667 -10.667 66.334 -16 101.001 -16c64 0 122.667 17.667 176 53c-6 11.333 -18.5 19 -37.5 23s-37.167 5.33301 -54.5 4c-12 -1.33301 -28.833 -6.16602 -50.5 -14.499s-33.834 -12.833 -36.501 -13.5c-2 -0.666992 -10.667 -2.66699 -26 -6
c-14 -4 -25 -6 -33 -6c-6 -0.666992 -13 -4.33398 -21 -11.001c-7.33301 -6.66699 -13.333 -11 -18 -13z" />
    <glyph glyph-name="uni2661" unicode="&#x2661;" horiz-adv-x="846" 
d="M423 650c66.667 66.667 131.335 100.001 194.002 100.001c64 0 116.333 -17.333 157 -52c48 -40.667 72 -100.334 72 -179.001c0 -48 -17.333 -99 -52 -153c-14.667 -22 -33.334 -44.333 -56.001 -67l-288 -288c-8.66699 -7.33301 -17.834 -11 -27.501 -11
s-18.167 3.66699 -25.5 11l-290 288c-38 38 -68.333 83.667 -91 137c-10.667 26 -16 57 -16 93s6.83301 68.667 20.5 98s31.5 53 53.5 71c40 34.667 91.5 52 154.5 52s127.833 -33.333 194.5 -100zM89.001 598.001c-9.33301 -20.667 -13.999 -44.333 -13.999 -71
s4.33301 -49.667 13 -69c16 -36 35.333 -66.333 58 -91l277 -277l263 262c30.667 30.667 54.667 66 72 106c8.66699 19.333 13 42.333 13 69s-4.66699 50.167 -14 70.5s-21.666 36.5 -36.999 48.5c-24.667 19.333 -59 29 -103 29c-42 0 -88.333 -25 -139 -75
c-11.333 -12 -20.333 -22.167 -27 -30.5s-16 -12.5 -28 -12.5s-21.333 4.16699 -28 12.5s-15.834 18.333 -27.501 30s-24.834 23.167 -39.501 34.5c-36.667 27.333 -69.667 41 -99 41c-69.333 0 -116 -25.667 -140 -77z" />
    <glyph glyph-name="heart" unicode="&#x2665;" horiz-adv-x="846" 
d="M423 650c66.667 66.667 131.335 100.001 194.002 100.001c64 0 116.333 -17.333 157 -52c48 -40.667 72 -100.334 72 -179.001c0 -48 -17.333 -99 -52 -153c-14.667 -22 -33.334 -44.333 -56.001 -67l-289 -288c-7.33301 -7.33301 -16 -11 -26 -11
s-18.667 3.66699 -26 11l-290 288c-38 38 -68.333 83.667 -91 137c-10.667 26 -16 57 -16 93s6.66699 68.667 20 98s30.666 53 51.999 71c40.667 34.667 92.667 52 156 52s128.333 -33.333 195 -100z" />
    <glyph glyph-name="musicalnotedbl" unicode="&#x266b;" horiz-adv-x="688" 
d="M137 225c16.667 0 33.666 -2.33203 50.999 -6.99902v388l500 144v-525c0 -30.667 -13.667 -57.167 -41 -79.5s-60.666 -33.5 -99.999 -33.5c-38.667 0 -71.667 11.167 -99 33.5s-41 48.833 -41 79.5c0 31.333 13.667 57.666 41 78.999c28 22 61 33 99 33
c16 0 31.667 -2 47 -6v248l-312 -90v-377c0 -31.333 -13.667 -57.666 -41 -78.999c-28 -22 -61.333 -33 -100 -33s-72 11 -100 33c-27.333 21.333 -41 47.666 -41 78.999c0 32 13.667 58.667 41 80c28 22 60 33 96 33z" />
    <glyph glyph-name="uni267B" unicode="&#x267b;" 
d="M599 121c0 -4.66699 -1.49707 -8.33398 -4.49707 -11.001s-6.5 -4 -10.5 -4h-449c-2.66699 0 -4.83398 0.333008 -6.50098 1s-3.16699 1.66699 -4.5 3c-1.33301 2 -2 3.33301 -2 4c-0.666992 0.666992 -1.33398 2.33398 -2.00098 5.00098v5v6v6v74v195h-90
c-8 0 -15 3 -21 9s-9 13 -9 21c0 7.33301 2.33301 13.666 7 18.999l150 180c6 6.66699 13.667 10 23 10s16.666 -3.33301 21.999 -10l150 -180c4.66699 -5.33301 7 -11.666 7 -18.999c0 -8 -3 -15 -9 -21s-13 -9 -21 -9h-89v-180h269c4.66699 0 8.66699 -1.66699 12 -5
l74 -90c2.66699 -3.33301 4 -6.33301 4 -9zM898.003 315c0 -7.33301 -2.33496 -13.665 -7.00195 -18.998l-150 -180c-6 -6.66699 -13.5 -10 -22.5 -10s-16.833 3.33301 -23.5 10l-149 180c-4.66699 5.33301 -7 11.666 -7 18.999c0 8 3 15 9 21s13 9 21 9h89v180h-269
c-4.66699 0 -8.66699 1.66699 -12 5l-74 90c-2.66699 2.66699 -4 6 -4 10s1.5 7.33301 4.5 10s6.5 4 10.5 4h449c2.66699 0 4.83398 -0.166992 6.50098 -0.5s3.16699 -1.5 4.5 -3.5s2 -3.33301 2 -4c0.666992 -0.666992 1.33398 -2.33398 2.00098 -5.00098v-5v-6v-6v-74
v-195h90c8 0 15 -3 21 -9s9 -13 9 -21z" />
    <glyph glyph-name="uni2691" unicode="&#x2691;" 
d="M38 611c-25.333 16.667 -38.0029 36.668 -38.0029 60.001s7.33301 42.333 22 57s32.334 22 53.001 22s38.334 -7.33301 53.001 -22s22 -33.834 22 -57.501s-12.333 -43.5 -37 -59.5v-592c0 -5.33301 -1.83301 -9.83301 -5.5 -13.5s-8.16699 -5.5 -13.5 -5.5h-38
c-5.33301 -0 -9.66602 1.83301 -12.999 5.5s-5 8.16699 -5 13.5v592zM149.997 203.001l0.000976562 363.999c0 10.667 3.16699 21.334 9.5 32.001s14.166 18.667 23.499 24c87.333 46.667 161.666 71 222.999 73c54 0 108 -13.667 162 -41l51 -25
c18.667 -9.33301 40.334 -14.666 65.001 -15.999c61.333 -3.33301 122.666 13.334 183.999 50.001c9.33301 5.33301 17 6.33301 23 3s9 -10.333 9 -21v-365c0 -10 -3 -20.5 -9 -31.5s-13.667 -19.167 -23 -24.5c-61.333 -36.667 -121.666 -53.334 -180.999 -50.001
c-26.667 1.33301 -49.334 6.66602 -68.001 15.999l-52 25c-15.333 8 -31.333 15 -48 21c-37.333 13.333 -70 19.833 -98 19.5s-52.333 -3.16602 -73 -8.49902c-53.333 -12.667 -108.333 -34.334 -165 -65.001c-9.33301 -5.33301 -17.166 -6 -23.499 -2s-9.5 11.333 -9.5 22z
" />
    <glyph glyph-name="uni2692" unicode="&#x2692;" 
d="M514 211c1.33301 6 2 11 2 15l88 87l124 -124l84 -62l9 -34l-93 -93l-33 9l-63 84zM747.5 130c-7.66699 7.33301 -17 11 -28 11s-20.167 -3.66699 -27.5 -11s-11 -16.5 -11 -27.5s3.66699 -20.167 11 -27.5s16.5 -11 27.5 -11s20.333 3.66699 28 11s11.5 16.5 11.5 27.5
s-3.83301 20.167 -11.5 27.5zM463 454l-87.002 -88.001c-4 0 -9 -0.666992 -15 -2l-63 63c-19.333 -9.33301 -36 -14 -50 -14c-44.667 0 -84.667 18 -120 54s-53.333 76 -54 120c0 0.666992 5 6 15 16c38 -37.333 59.333 -57.5 64 -60.5s16.834 -4.5 36.501 -4.5
s40.334 10.667 62.001 32s32.5 41.833 32.5 61.5s-1.66699 32.334 -5 38.001s-23.333 26.5 -60 62.5c8.66699 10.667 14 16 16 16h2c43.333 0 82.833 -17.833 118.5 -53.5s53.5 -75.5 53.5 -119.5c0 -16.667 -5 -34 -15 -52zM746.998 301.999l0.996094 23.999
c0 46.667 -11 83.334 -33 110.001c-7.33301 9.33301 -15.666 16.666 -24.999 21.999h-3c-6 0 -16 -6.66699 -30 -20l-196 -194c2 -6 3 -12.667 3 -20c0 -9.33301 -5.33301 -18.333 -16 -27l-180 -180l-10 -10c-3.33301 -4 -10.333 -6 -21 -6
c-24.667 0 -47.667 14.333 -69 43c-12 16 -18 29.5 -18 40.5s2 18.833 6 23.5l10 10l181 181c2.66699 2 5.83398 5 9.50098 9s9.33398 6 17.001 6s14.5 -1 20.5 -3l174 174l8 13c6 5.33301 9.33301 12 10 20c2.66699 34.667 -16.666 56.334 -57.999 65.001h-1
c-10 0 -26.333 11.333 -49 34c-16 13.333 -24 22.333 -24 27s5.33301 12.667 16 24l65 66c10 10 17.167 15 21.5 15s12.5 -6 24.5 -18l6 -5c19.333 -20 30.333 -34.667 33 -44c2 -12 9 -25.667 21 -41c2 -2.66699 7.5 -4 16.5 -4s14.5 -1 16.5 -3l107 -107
c27.333 -27.333 41 -67.333 41 -120c0 -30.667 -4.66699 -65.667 -14 -105l-14 -45z" />
    <glyph glyph-name="uni2693" unicode="&#x2693;" 
d="M156 160l-8.99902 -1.00488c-12.667 0 -23.5 4.5 -32.5 13.5s-13.5 19.833 -13.5 32.5s4.5 23.334 13.5 32.001s19.667 13 32 13s22.833 -4.33301 31.5 -13s13 -19.334 13 -32.001v-7c5.33301 -4.66699 15.5 -11.167 30.5 -19.5s26.5 -15.5 34.5 -21.5
c28 -18 71 -27.667 129 -29l28 135c2.66699 58.667 5 116 7 172h-122l-47 11c-8 -10.667 -17.333 -16 -28 -16s-19.667 3.5 -27 10.5s-11 15.5 -11 25.5s3.66699 18.5 11 25.5s16.666 10.5 27.999 10.5s20.333 -5.33301 27 -16h170c1.33301 42.667 2.33301 71.334 3 86.001
c-19.333 6 -34.833 16.833 -46.5 32.5s-17.5 34.834 -17.5 57.501s8.66699 42.834 26 60.501s38.5 26.5 63.5 26.5s46.167 -8.83301 63.5 -26.5s26 -37.667 26 -60s-5.83301 -41.333 -17.5 -57s-26.834 -26.5 -45.501 -32.5c0 -4.66699 0.666992 -17 2 -37l2 -50h169
c6 10.667 14.833 16 26.5 16s21.167 -3.5 28.5 -10.5s11 -15.5 11 -25.5s-3.66699 -18.5 -11 -25.5s-16.666 -10.5 -27.999 -10.5s-20 5.33301 -26 16l-48 -11h-121l6 -172l29 -138c6.66699 -0.666992 13 -1 19 -1c38 0 69.667 7.83301 95 23.5s52 33.167 80 52.5
c-0.666992 0.666992 -1 2.33398 -1 5.00098c0 12.667 4.33301 23.334 13 32.001s19.334 13 32.001 13s23.334 -4.33301 32.001 -13s13 -19.334 13 -32.001s-4.33301 -23.5 -13 -32.5s-19.334 -13.5 -32.001 -13.5l-10 1
c-72.667 -61.333 -143.334 -101.666 -212.001 -120.999c-42 -26 -68 -39 -78 -39s-39 13.333 -87 40c-45.333 13.333 -92 35.666 -140 66.999c-24 16.667 -47.667 34.334 -71 53.001zM402.001 658.495c0 -13 4.49902 -24.167 13.499 -33.5s20.333 -14 34 -14
s25 4.66699 34 14s13.5 20.5 13.5 33.5s-4.66699 24.167 -14 33.5s-20.666 14 -33.999 14s-24.5 -4.66699 -33.5 -14s-13.5 -20.5 -13.5 -33.5z" />
    <glyph glyph-name="uni2699" unicode="&#x2699;" horiz-adv-x="748" 
d="M749 287l-96.999 -14c-6 -20 -14.333 -39.333 -25 -58l59 -78c3.33301 -4.66699 3 -8.66699 -1 -12l-78 -78c-3.33301 -4 -7.33301 -4.33301 -12 -1l-78 59c-18.667 -10.667 -38 -18.667 -58 -24l-14 -98c-0.666992 -4.66699 -3.66699 -7 -9 -7h-111
c-5.33301 0 -8.33301 2.33301 -9 7l-14 98c-20 5.33301 -39.333 13.333 -58 24l-78 -59c-4.66699 -3.33301 -8.66699 -3 -12 1l-78 78c-4 3.33301 -4.33301 7.33301 -1 12l59 78c-10.667 18.667 -19 38 -25 58l-97 14c-5.33301 0.666992 -8 3.66699 -8 9v111
c0 5.33301 2.66699 8.33301 8 9l97 14c6 20 14.333 39.333 25 58l-59 78c-3.33301 4.66699 -3 8.66699 1 12l78 78c3.33301 4 7.33301 4.33301 12 1l78 -59c18.667 10.667 38 19 58 25l14 97c0.666992 5.33301 3.66699 8 9 8h111c5.33301 0 8.33301 -2.66699 9 -8l14 -97
c20 -6 39.333 -14.333 58 -25l78 59c4.66699 3.33301 8.66699 3 12 -1l78 -78c4 -3.33301 4.33301 -7.33301 1 -12l-59 -78c10.667 -18.667 19 -38 25 -58l97 -14c5.33301 -0.666992 8 -3.66699 8 -9v-111c-0.666992 -5.33301 -3.33398 -8.33301 -8.00098 -9zM380.501 464
c-31 0 -57.5 -11 -79.5 -33s-33 -48.5 -33 -79.5s11 -57.5 33 -79.5s48.5 -33 79.5 -33s57.5 11 79.5 33s33 48.5 33 79.5s-11 57.5 -33 79.5s-48.5 33 -79.5 33z" />
    <glyph glyph-name="uni269B" unicode="&#x269b;" 
d="M451 1c-27.333 0 -52.666 16.667 -75.999 50s-41.666 78.833 -54.999 136.5s-20 120.334 -20 188.001s6.66699 130.167 20 187.5s31.666 102.666 54.999 135.999s48.666 50 75.999 50s52.5 -16.667 75.5 -50s41.333 -78.833 55 -136.5s20.5 -120.167 20.5 -187.5
s-6.83301 -129.833 -20.5 -187.5s-32 -103.167 -55 -136.5s-48.167 -50 -75.5 -50zM451 726c-29.333 0 -54.333 -34.333 -75 -103s-31 -151.334 -31 -248.001s10.333 -179.334 31 -248.001s45.667 -103 75 -103s54.166 34.333 74.499 103s30.5 151.334 30.5 248.001
s-10.167 179.334 -30.5 248.001s-45.166 103 -74.499 103zM768 178c-22 -35.333 -71.667 -46.333 -149 -33s-159.833 47.333 -247.5 102s-154.667 113.667 -201 177s-58.5 112.666 -36.5 147.999s71.667 46.333 149 33s159.833 -47.333 247.5 -102
s154.667 -113.667 201 -177s58.5 -112.666 36.5 -147.999zM153 560c-15.333 -24.667 0.666992 -63.834 48 -117.501s112.166 -106 194.499 -157s158 -85.833 227 -104.5s111.167 -15.667 126.5 9s-0.666992 63.834 -48 117.501s-112.166 106 -194.499 157
s-158 85.833 -227 104.5s-111.167 15.667 -126.5 -9zM371.5 503c87.667 54.667 170.167 88.667 247.5 102s127 2.33301 149 -33s9.83301 -84.666 -36.5 -147.999s-113.333 -122.333 -201 -177s-170.167 -88.667 -247.5 -102s-127 -2.33301 -149 33
s-9.83301 84.666 36.5 147.999s113.333 122.333 201 177zM395.5 464.5c-82.333 -51 -147.166 -103.333 -194.499 -157s-63.333 -92.834 -48 -117.501s57.5 -27.667 126.5 -9s144.667 53.5 227 104.5s147.166 103.333 194.499 157s63.333 92.834 48 117.501
s-57.5 27.667 -126.5 9s-144.667 -53.5 -227 -104.5zM451 414c-10.667 0 -19.834 -3.83301 -27.501 -11.5s-11.5 -16.834 -11.5 -27.501s3.83301 -19.834 11.5 -27.501s16.834 -11.5 27.501 -11.5s19.834 3.83301 27.501 11.5s11.5 16.834 11.5 27.501
s-3.83301 19.834 -11.5 27.501s-16.834 11.5 -27.501 11.5z" />
    <glyph glyph-name="uni26A0" unicode="&#x26a0;" horiz-adv-x="930" 
d="M845 151c14.667 -24.667 22 -45.667 22 -63s-3.66699 -32.333 -11 -45c-17.333 -29.333 -50 -44 -98 -44h-624c-48 0 -80.333 14.667 -97 44c-7.33301 12.667 -11 27.5 -11 44.5s7.33301 38.167 22 63.5l311 535c24 42 53.333 63 88 63s64 -21 88 -63zM404 545
c-9.33301 0 -13.999 -3.99902 -13.999 -11.999l6 -286c1.33301 -8 6.33301 -12 15 -12h76c9.33301 0 14 4 14 12l7 286c0.666992 3.33301 -0.333008 6.16602 -3 8.49902s-6.33398 3.5 -11.001 3.5h-90zM393.001 108.001c0 -9.33301 4.66699 -14 14 -14h85
c3.33301 0 6.5 1.33301 9.5 4s4.5 6 4.5 10v82c0 4 -1.5 7.33301 -4.5 10s-6.16699 4 -9.5 4h-85c-9.33301 0 -14 -4.66699 -14 -14v-82z" />
    <glyph glyph-name="uni26A1" unicode="&#x26a1;" 
d="M232 316l355 434l-97 -316h176l-355 -434l97 316h-176z" />
    <glyph glyph-name="uni26AA" unicode="&#x26aa;" 
d="M700 375c0 68 -24.667 126.667 -74 176s-108 74 -176 74s-126.667 -24.667 -176 -74s-74 -108 -74 -176s24.667 -126.667 74 -176s108 -74 176 -74s126.667 24.667 176 74s74 108 74 176zM825 375c0 -102.667 -36.833 -190.834 -110.5 -264.501
s-161.834 -110.5 -264.501 -110.5s-190.834 36.833 -264.501 110.5s-110.5 161.834 -110.5 264.501s36.833 190.834 110.5 264.501s161.834 110.5 264.501 110.5s190.834 -36.833 264.501 -110.5s110.5 -161.834 110.5 -264.501z" />
    <glyph glyph-name="uni26AB" unicode="&#x26ab;" 
d="M826 376c0 -67.333 -17 -130 -51 -188s-79.833 -103.833 -137.5 -137.5s-120.167 -50.5 -187.5 -50.5s-129.833 16.833 -187.5 50.5s-103.5 79.5 -137.5 137.5s-51 120.667 -51 188s17 129.833 51 187.5s79.833 103.5 137.5 137.5s120.167 51 187.5 51
s129.833 -17 187.5 -51s103.5 -79.833 137.5 -137.5s51 -120.167 51 -187.5z" />
    <glyph glyph-name="uni26D3" unicode="&#x26d3;" 
d="M75 548c0 28 5.33008 54.3369 15.9971 79.0039s25.167 46.167 43.5 64.5s39.5 32.5 63.5 42.5c24.667 10.667 51 16 79 16c26.667 0 52.667 -5.16699 78 -15.5s47 -24.5 65 -42.5l10 -10l13 -12c4 -4 7.33301 -8 10 -12s4 -7.66699 4 -11c0 -6 -2 -11 -6 -15
c-2 -2.66699 -5.66699 -4.33398 -11 -5.00098c-14.667 -3.33301 -28.667 -7 -42 -11c-12.667 -4 -26 -9 -40 -15c-1.33301 -1.33301 -3.83301 -2 -7.5 -2s-7.66699 1.66699 -12 5s-9.16602 6.66602 -14.499 9.99902c-6 3.33301 -12.667 6.66602 -20 9.99902s-16.333 5 -27 5
s-21 -2 -31 -6s-18.333 -9.66699 -25 -17c-7.33301 -8 -13 -16.667 -17 -26c-4.66699 -9.33301 -7 -20 -7 -32c0 -12.667 3 -24.334 9 -35.001c5.33301 -10.667 12 -20.667 20 -30s16.667 -18 26 -26s18.333 -16.333 27 -25l85 -84c6.66699 -7.33301 15 -13 25 -17
s20.333 -6 31 -6c13.333 0 24.833 2.5 34.5 7.5s16.834 7.5 21.501 7.5c4 0 10 -3.33301 18 -10c8 -6 17 -13.667 27 -23c8.66699 -8 16.334 -16.333 23.001 -25s10 -15.334 10 -20.001c0 -9.33301 -5.5 -17.5 -16.5 -24.5s-24.167 -12.833 -39.5 -17.5
c-14 -5.33301 -28.667 -9.66602 -44 -12.999c-14.667 -2.66699 -26 -4 -34 -4c-26.667 0 -52.334 5.16699 -77.001 15.5s-46.667 24.833 -66 43.5l-142 143c-19.333 18.667 -34.166 40.5 -44.499 65.5s-15.5 50.833 -15.5 77.5zM345.997 489.004
c0 8.66699 5.66602 16.6611 16.999 23.9941c11.333 6.66699 24.333 12.667 39 18c14 4.66699 28.667 8.66699 44 12c14.667 3.33301 26 5 34 5c26.667 0 52.5 -5.16699 77.5 -15.5s46.833 -24.833 65.5 -43.5l142 -143c19.333 -18.667 34.333 -40.667 45 -66
c10 -25.333 15 -51.333 15 -78c0 -28 -5.33301 -54.167 -16 -78.5s-25 -45.833 -43 -64.5c-18.667 -18 -40.334 -32.333 -65.001 -43s-50.667 -16 -78 -16c-26.667 0 -52.5 5.33301 -77.5 16s-46.833 25.334 -65.5 44.001c-2.66699 2.66699 -6.16699 5.66699 -10.5 9
s-8.16602 7.33301 -11.499 12c-3.33301 3.33301 -6.66602 7.33301 -9.99902 12c-3.33301 4 -5 8 -5 12c0 6 2 10.333 6 13c2 2.66699 5.66699 4.66699 11 6c14.667 2.66699 28.667 6 42 10c12.667 4 26 9.33301 40 16c4 1.33301 6.66699 2 8 2c4 0 8 -1.66699 12 -5
c5.33301 -3.33301 10 -6.66602 14 -9.99902c6 -3.33301 12.667 -6.66602 20 -9.99902s16.333 -5 27 -5c22.667 0 41.667 7.83301 57 23.5s23 34.5 23 56.5c0 12.667 -2.66699 24.667 -8 36c-5.33301 10.667 -12.333 20.334 -21 29.001l-26 27l-27 24l-84 85
c-16.667 15.333 -35.667 23 -57 23c-14 0 -25.5 -2.66699 -34.5 -8s-16.167 -8 -21.5 -8c-4 0 -10 3.33301 -18 10s-16.667 14.334 -26 23.001c-8.66699 8.66699 -16.667 17.334 -24 26.001c-6.66699 9.33301 -10 16 -10 20z" />
    <glyph glyph-name="uni26DF" unicode="&#x26df;" 
d="M300 142c0 18 -6.66699 33.5 -20 46.5s-29 19.5 -47 19.5s-33.5 -6.5 -46.5 -19.5s-19.5 -28.5 -19.5 -46.5s6.5 -33.667 19.5 -47s28.5 -20 46.5 -20s33.667 6.66699 47 20s20 29 20 47zM100 408l200 0.000976562v134h-82c-4.66699 0 -8.66699 -1.66699 -12 -5
l-101 -102c-3.33301 -2.66699 -5 -6.33398 -5 -11.001v-16zM766.5 142.001c-0.333008 18 -7 33.5 -20 46.5s-28.5 19.5 -46.5 19.5s-33.667 -6.5 -47 -19.5s-20 -28.5 -20 -46.5s6.66699 -33.667 20 -47s29 -20 47 -20s33.667 6.66699 47 20s19.833 29 19.5 47zM900 708.001
l-0.000976562 -533.001c0 -5.33301 -0.666992 -10 -2 -14s-3.66602 -7 -6.99902 -9c-3.33301 -2.66699 -6.33301 -4.66699 -9 -6c-2 -2 -6 -3.33301 -12 -4c-7.33301 0 -11.333 -0.333008 -12 -1h-13c-6.66699 0.666992 -10.667 1 -12 1c0 -36.667 -13 -68.167 -39 -94.5
s-57.333 -39.5 -94 -39.5s-68 13.167 -94 39.5s-39 57.833 -39 94.5h-200c0 -36.667 -13.167 -68.167 -39.5 -94.5s-57.833 -39.5 -94.5 -39.5s-68 13.167 -94 39.5s-39 57.833 -39 94.5h-33c-1.33301 0 -5.33301 -0.166992 -12 -0.5s-11 -0.5 -13 -0.5
c-0.666992 0.666992 -2.33398 1 -5.00098 1h-7c-5.33301 0.666992 -9.33301 2 -12 4c-2.66699 1.33301 -5.66699 3.33301 -9 6c-3.33301 2 -5.66602 5 -6.99902 9s-2 8.66699 -2 14c-0 8.66699 3.33301 16.334 10 23.001s14.334 10 23.001 10v167v18v20
c0 4.66699 0.333008 10.667 1 18c0.666992 8 2 14.333 4 19c1.33301 5.33301 3.66602 10.666 6.99902 15.999c3.33301 6 7.33301 11.333 12 16l103 103c6 6.66699 14.667 12.334 26 17.001c11.333 4 21.666 6 30.999 6h83v100c0 9.33301 3.33301 17.333 10 24
s14.334 10 23.001 10h533c9.33301 0 17.333 -3.33301 24 -10s10 -14.667 10 -24z" />
    <glyph glyph-name="uni2702" unicode="&#x2702;" 
d="M302 417c44 26 65.9971 62.6631 65.9971 109.996c0 30 -12.5 60.167 -37.5 90.5s-60.833 51.5 -107.5 63.5c-20.667 6 -42.167 9 -64.5 9s-43.666 -3.83301 -63.999 -11.5s-38.333 -19.167 -54 -34.5s-25.667 -31.166 -30 -47.499s-6.5 -29.833 -6.5 -40.5
c0 -30.667 11.667 -59.667 35 -87c26.667 -32.667 63 -55 109 -67c15.333 -4 38.333 -8.33301 69 -13s53.334 -9 68.001 -13c-16 -4 -39.333 -8.5 -70 -13.5s-53.667 -9.5 -69 -13.5c-46.667 -12 -82.5 -33.167 -107.5 -63.5s-37.5 -60.833 -37.5 -91.5
c0 -33.333 12.333 -62.333 37 -87c14.667 -15.333 32.5 -26.833 53.5 -34.5s42.5 -11.5 64.5 -11.5s43.667 3 65 9c46.667 12.667 83.334 35.334 110.001 68.001c23.333 27.333 35 56.333 35 87c0 10.667 -1.66699 21.334 -5 32.001c-8.66699 32.667 -29 58.334 -61 77.001
c14.667 3.33301 34 8.66602 58 15.999l15 -4c83.333 -70.667 201.333 -119.667 354 -147c18.667 -3.33301 35.667 -5.33301 51 -6h8c12 0 23.167 1.33301 33.5 4s19.166 5.33398 26.499 8.00098c10.667 3.33301 23.667 14.333 39 33l15 19l-443 119l440 118
c-15.333 26.667 -32.666 44 -51.999 52s-39.333 12 -60 12h-9c-43.333 -2 -96.333 -12 -159 -30c-99.333 -26.667 -181.333 -67.667 -246 -123l-13 -3c-29.333 8.66699 -48 13.667 -56 15zM106.997 143.996c-27.333 10 -41 24.999 -41 44.999c0 12 6 25 18 39
c29.333 34 71.333 52.333 126 55c19.333 0 38 -3.33301 56 -10c22.667 -8.66699 34 -22.667 34 -42c0 -12 -6 -25.333 -18 -40c-19.333 -23.333 -46.333 -39.666 -81 -48.999c-16 -4.66699 -32 -7 -48 -7s-31.333 3 -46 9zM67.9971 562.995
c0 19.333 13.667 34.002 41 44.002c14.667 5.33301 30.334 8 47.001 8s32.667 -2.33301 48 -7c34.667 -8.66699 61.334 -24.667 80.001 -48c12.667 -14.667 19 -28.334 19 -41.001c0 -18 -13.667 -32.333 -41 -43c-14.667 -5.33301 -29.834 -8 -45.501 -8
s-31.834 2.33301 -48.501 7c-34.667 9.33301 -60 23.166 -76 41.499s-24 33.833 -24 46.5z" />
    <glyph glyph-name="uni2708" unicode="&#x2708;" 
d="M362 299c-54.667 0 -116.667 6.33594 -186 19.0029l-85 -110c-8 -9.33301 -18.333 -14 -31 -14h-45c-5.33301 0 -9.33301 1.66699 -12 5s-3.33398 7.66602 -2.00098 12.999l34 144c1.33301 5.33301 2 11.333 2 18s-0.666992 12.667 -2 18l-34 144
c-1.33301 5.33301 -0.666016 9.83301 2.00098 13.5s6.66699 5.5 12 5.5h45c12 0 22.333 -5 31 -15l85 -110c62 12.667 124 19 186 19h12l-61 283c-1.33301 5.33301 -0.5 9.66602 2.5 12.999s7.16699 5 12.5 5h64c12.667 0 22 -5.33301 28 -16l164 -285h157
c39.333 0 75.666 -7.66699 108.999 -23c34.667 -16.667 51.334 -34 50.001 -52c1.33301 -18 -15.334 -35.333 -50.001 -52c-33.333 -15.333 -69.666 -23 -108.999 -23h-158l-163 -283c-6 -10.667 -15.333 -16 -28 -16h-64c-5.33301 0 -9.5 1.66699 -12.5 5
s-3.83301 7.66602 -2.5 12.999l61 281h-12z" />
    <glyph glyph-name="uni2709" unicode="&#x2709;" 
d="M902 501l0.000976562 -400c0 -22 -8 -40.833 -24 -56.5s-35 -23.5 -57 -23.5h-741c-22 0 -40.667 7.66699 -56 23c-16 16 -24 35 -24 57v400c14.667 -16.667 31.667 -31.334 51 -44.001c121.333 -82.667 204.666 -140.667 249.999 -174l46 -33
c12 -7.33301 28 -15.333 48 -24c20 -8 38.333 -12 55 -12h1c17.333 0 36 4 56 12c19.333 8 35 16 47 24s27.667 19 47 33c54.667 40 138 98 250 174c19.333 12.667 36.333 27.334 51 44.001zM902.001 649c0 -26.667 -8.33496 -51.999 -25.002 -75.999
c-16 -24 -36.333 -44.667 -61 -62l-236 -164l-21 -15l-27 -19c-6.66699 -4.66699 -15.667 -10 -27 -16c-10 -6.66699 -19.667 -11.334 -29 -14.001c-8.66699 -3.33301 -17 -5 -25 -5h-1c-7.33301 0 -15.666 1.66699 -24.999 5s-19 8 -29 14l-26 16
c-9.33301 6 -18.333 12.333 -27 19c-11.333 8 -18.666 13 -21.999 15l-131 92l-104 72c-20.667 14 -40 33.333 -58 58c-18.667 24.667 -28 47.667 -28 69c0 26 7 47.667 21 65s33.667 26 59 26h741c22 0 41 -7.83301 57 -23.5s24 -34.5 24 -56.5z" />
    <glyph glyph-name="uni270B" unicode="&#x270b;" 
d="M252 413c-5.33301 0 -8.00195 39.002 -8.00195 117.002c0 32 -13 48 -39 48c-13.333 0 -24.666 -5 -33.999 -15s-14 -22.333 -14 -37v-371c0 -42.667 15 -79 45 -109s66.333 -45 109 -45h134c28.667 0 58.5 8 89.5 24s53.5 34.667 67.5 56l103 160c10 16 18.5 36 25.5 60
s10.5 40.667 10.5 50c0 18 -11 27 -33 27c-18 0 -32 -8 -42 -24l-40 -60c-10 -14.667 -17 -22 -21 -22s-6 5 -6 15v352c0 15.333 -4.66699 28.166 -14 38.499s-20.666 15.5 -33.999 15.5c-26 0 -39 -16 -39 -48v-21c0 -138 -5.66699 -207 -17 -207l-11 37
c-6.66699 51.333 -10 134 -10 248c0 32 -13 48 -39 48c-13.333 0 -24.5 -4.83301 -33.5 -14.5s-13.5 -21.5 -13.5 -35.5c0 -178.667 -5 -275.334 -15 -290.001h-1c-2 0 -4.66699 14 -8 42s-5 89 -5 183c0 16.667 -3.33301 30.5 -10 41.5s-16.5 16.5 -29.5 16.5
s-24.167 -5.66699 -33.5 -17s-14 -25 -14 -41c0 -107.333 -5 -178.333 -15 -213c-1.33301 -6 -3 -9 -5 -9z" />
    <glyph glyph-name="uni270D" unicode="&#x270d;" 
d="M0 150l0.00195312 450.002c0 41.333 14.667 76.666 44 105.999s64.666 44 105.999 44h525c1.33301 0 3 -0.166992 5 -0.5s3.66699 -0.5 5 -0.5l-93 -93h-442c-15.333 0 -28.5 -5.5 -39.5 -16.5s-16.5 -24.167 -16.5 -39.5v-450c0 -15.333 5.5 -28.5 16.5 -39.5
s24.167 -16.5 39.5 -16.5h525c15.333 0 28.5 5.5 39.5 16.5s16.5 24.167 16.5 39.5v217l94 94v-311c0 -40.667 -14.833 -75.834 -44.5 -105.501s-64.834 -44.5 -105.501 -44.5h-525c-42 0 -77.333 14.667 -106 44c-29.333 30.667 -44 66 -44 106zM308.002 158.002l53 161
l318 318l108 -108l-318 -318zM423.002 307.002c2 -2.66699 4.66699 -4 8 -4s6 1.33301 8 4l250 249c6 6 6 11.667 0 17s-11.667 5.33301 -17 0l-249 -249c-6 -6 -6 -11.667 0 -17zM733.002 691.002l44.999 45.998c9.33301 9.33301 20.333 14 33 14
s23.334 -4.66699 32.001 -14l44 -44c8.66699 -9.33301 13.167 -20.166 13.5 -32.499s-4.16699 -23.166 -13.5 -32.499l-46 -45z" />
    <glyph glyph-name="uni270E" unicode="&#x270e;" horiz-adv-x="750" 
d="M0 0l67 204l423 423l137 -137l-423 -423zM140 199c0 -4 1.5 -7.5 4.5 -10.5s6.66699 -4.5 11 -4.5s7.83301 1.33301 10.5 4l337 337c6.66699 6.66699 7.5 12.667 2.5 18s-9.5 8 -13.5 8s-7.33301 -1.66699 -10 -5l-337 -336c-3.33301 -3.33301 -5 -7 -5 -11zM538 675
l58 58c11.333 11.333 25 17 41 17s29.667 -5.66699 41 -17l28 -27l27 -28c11.333 -11.333 17 -25 17 -41s-5.66699 -29.667 -17 -41l-58 -58z" />
    <glyph glyph-name="uni2714" unicode="&#x2714;" 
d="M0 312.5c0 11 3.66699 20.167 11 27.5l85 85c7.33301 7.33301 16.5 11 27.5 11s20.167 -3.66699 27.5 -11l178 -178c7.33301 -7.33301 16.5 -11 27.5 -11s20.167 3.66699 27.5 11l364 364c7.33301 7.33301 16.5 11 27.5 11s20.167 -3.66699 27.5 -11l85 -85
c7.33301 -7.33301 11 -16.5 11 -27.5s-3.66699 -20.167 -11 -27.5l-444 -444c-7.33301 -7.33301 -17.5 -13.666 -30.5 -18.999s-24.833 -8 -35.5 -8h-43c-11.333 0 -23.5 2.66699 -36.5 8s-23.167 11.666 -30.5 18.999l-257 258c-7.33301 7.33301 -11 16.5 -11 27.5z" />
    <glyph glyph-name="uni2716" unicode="&#x2716;" horiz-adv-x="750" 
d="M0 94c0 12.667 4.66504 23.665 13.998 32.998l248 249l-248 244c-9.33301 9.33301 -14 20.333 -14 33s4.66699 23.667 14 33l49 49c9.33301 9.33301 20.333 14 33 14s23.667 -4.66699 33 -14l246 -246l246 246c9.33301 9.33301 20.333 14 33 14s23.667 -4.66699 33 -14
l49 -49c9.33301 -9.33301 14 -20.333 14 -33s-4.66699 -23.667 -14 -33l-248 -249l248 -244c9.33301 -9.33301 14 -20.166 14 -32.499s-4.66699 -23.166 -14 -32.499l-49 -50c-9.33301 -9.33301 -20.333 -14 -33 -14s-23.667 4.66699 -33 14l-246 247l-247 -247
c-9.33301 -9.33301 -20.166 -14 -32.499 -14s-23.166 4.66699 -32.499 14l-49 49c-9.33301 9.33301 -14 20.333 -14 33z" />
    <glyph glyph-name="uni271A" unicode="&#x271a;" horiz-adv-x="750" 
d="M0 340v70c0 12.667 4.5 23.5 13.5 32.5s19.833 13.5 32.5 13.5h248v247c0 13.333 4.33301 24.5 13 33.5s19.667 13.5 33 13.5h70c12.667 0 23.5 -4.5 32.5 -13.5s13.5 -19.833 13.5 -32.5v-248h248c12.667 0 23.5 -4.5 32.5 -13.5s13.5 -19.833 13.5 -32.5v-70
c0 -12.667 -4.5 -23.5 -13.5 -32.5s-19.833 -13.5 -32.5 -13.5h-248v-247c0 -13.333 -4.5 -24.5 -13.5 -33.5s-19.833 -13.5 -32.5 -13.5h-70c-12.667 0 -23.5 4.5 -32.5 13.5s-13.5 19.833 -13.5 32.5v248h-247c-13.333 0 -24.5 4.33301 -33.5 13s-13.5 19.667 -13.5 33z
" />
    <glyph glyph-name="uni273D" unicode="&#x273d;" horiz-adv-x="697" 
d="M1 497c-3.33301 12 -1.66797 23.6689 4.99902 35.002l35 61c6.66699 11.333 16.167 18.5 28.5 21.5s24.166 1.5 35.499 -4.5l162 -94v187c0 13.333 4.5 24.5 13.5 33.5s20.167 13.5 33.5 13.5h69c13.333 0 24.5 -4.5 33.5 -13.5s13.5 -19.833 13.5 -32.5v-188l162 94
c11.333 6 23.166 7.5 35.499 4.5s21.833 -10.167 28.5 -21.5l34 -61c6.66699 -11.333 8.5 -23 5.5 -35s-10.167 -21.333 -21.5 -28l-163 -94l163 -94c11.333 -6.66699 18.5 -16 21.5 -28s1.5 -23.667 -4.5 -35l-35 -61c-6.66699 -11.333 -16.167 -18.5 -28.5 -21.5
s-24.166 -1.5 -35.499 4.5l-162 94v-187c0 -13.333 -4.5 -24.5 -13.5 -33.5s-20.167 -13.5 -33.5 -13.5h-69c-13.333 0 -24.5 4.5 -33.5 13.5s-13.5 19.833 -13.5 32.5v188l-162 -94c-11.333 -6.66699 -23.166 -8.33398 -35.499 -5.00098s-21.833 10.666 -28.5 21.999
l-35 61c-6 11.333 -7.5 23 -4.5 35s10.167 21.333 21.5 28l163 94l-163 94c-11.333 6.66699 -18.666 16 -21.999 28z" />
    <glyph glyph-name="uniF0DA" unicode="&#x2746;" 
d="M787 294l-24 51l-169 -36l-116 66l116 65l169 -35l24 50l-102 36l97 54l-19 33l-96 -58l21 106l-56 5l-53 -164l-116 -69l2 135l115 128l-32 46l-81 -71l2 112h-38l3 -112l-82 71l-32 -46l115 -128l2 -135l-116 69l-53 164l-56 -5l21 -106l-96 58l-19 -33l97 -54
l-102 -35l24 -51l168 35l117 -65l-117 -66l-168 36l-24 -51l102 -35l-97 -54l19 -33l96 58l-21 -107l56 -4l53 163l116 69l-2 -134l-115 -128l32 -46l82 71l-3 -112h38l-3 112l82 -71l32 47l-114 127l-3 134l116 -69l53 -163l56 5l-21 106l96 -58l19 33l-97 54z" />
    <glyph glyph-name="uni2757" unicode="&#x2757;" horiz-adv-x="750" 
d="M0 375c0 52 9.83301 100.667 29.5 146s46.5 85 80.5 119s73.667 60.833 119 80.5s94 29.5 146 29.5s100.667 -9.83301 146 -29.5s85 -46.5 119 -80.5s60.833 -73.667 80.5 -119s29.5 -94 29.5 -146s-9.83301 -100.667 -29.5 -146s-46.5 -85 -80.5 -119
s-73.667 -60.833 -119 -80.5s-94 -29.5 -146 -29.5s-100.667 9.83301 -146 29.5s-85 46.5 -119 80.5s-60.833 73.667 -80.5 119s-29.5 94 -29.5 146zM330 627c-9.33301 0 -13.999 -4.66699 -13.999 -14l6 -347c1.33301 -9.33301 6.33301 -14 15 -14h76
c9.33301 0 14 4.66699 14 14l7 347c0.666992 3.33301 -0.333008 6.5 -3 9.5s-6.33398 4.5 -11.001 4.5h-90zM319.001 125c0 -9.33301 4.66699 -14 14 -14h85c3.33301 0 6.5 1.33301 9.5 4s4.5 6 4.5 10v82c0 4 -1.5 7.33301 -4.5 10s-6.16699 4 -9.5 4h-85
c-9.33301 0 -14 -4.66699 -14 -14v-82z" />
    <glyph glyph-name="uni275D" unicode="&#x275d;" 
d="M45 331c0.666992 46.667 3.33301 87.999 8 123.999s14.167 72.333 28.5 109s33.5 67.5 57.5 92.5s56.5 46 97.5 63s89.167 27.167 144.5 30.5v-168c-46.667 0 -80.5 -16.667 -101.5 -50s-31.5 -86.333 -31.5 -159l-4 -1h90c13.333 0 24.5 -4.66699 33.5 -14
s13.5 -20.666 13.5 -33.999v-278c0 -12.667 -4.5 -23.667 -13.5 -33s-20.167 -14 -33.5 -14h-242c-12.667 0 -23.667 4.66699 -33 14s-14 20.333 -14 33v285zM518.999 330.999c0 46.667 2.49902 88 7.49902 124s14.667 72.333 29 109s33.5 67.5 57.5 92.5s56.5 46 97.5 63
s89.167 27.167 144.5 30.5v-168c-48 0 -82.333 -16.667 -103 -50s-31 -86.333 -31 -159l-4 -1h90c12.667 0 23.667 -4.66699 33 -14s14 -20.666 14 -33.999v-278c0 -12.667 -4.66699 -23.667 -14 -33s-20.333 -14 -33 -14h-241c-13.333 0 -24.666 4.66699 -33.999 14
s-14 20.333 -14 33v278c0 3.33301 0.333008 5.66602 1 6.99902z" />
    <glyph glyph-name="uni275E" unicode="&#x275e;" 
d="M856 418c-1.33301 -46.667 -4.33301 -87.833 -9 -123.5s-14.167 -72 -28.5 -109s-33.5 -68 -57.5 -93s-56.333 -46 -97 -63s-89 -27.167 -145 -30.5v169c47.333 0 81.333 16.667 102 50s31 86 31 158l5 1h-91c-12.667 0 -23.667 4.66699 -33 14s-14 21 -14 35v277
c0 12.667 4.66699 23.667 14 33s20.333 14 33 14h242c13.333 0 24.5 -4.66699 33.5 -14s13.833 -20.333 14.5 -33v-285zM381 418.001c0 -46.667 -2.5 -87.833 -7.5 -123.5s-14.667 -72 -29 -109s-33.5 -68 -57.5 -93s-56.333 -46 -97 -63s-89 -27.167 -145 -30.5v169
c48 0 82.333 16.667 103 50s31 86 31 158l5 1h-91c-12.667 0 -23.667 4.66699 -33 14s-14 21 -14 35v277c0 12.667 4.66699 23.667 14 33s20.333 14 33 14h241c14 0 25.667 -4.66699 35 -14s14 -20.333 14 -33v-277c0 -4 -0.666992 -6.66699 -2 -8z" />
    <glyph glyph-name="uniE000" unicode="&#xe000;" horiz-adv-x="500" 
d="M0 0z" />
    <glyph glyph-name="uniF000" unicode="&#xf000;" horiz-adv-x="750" 
d="M50 261c0 10 3.16504 18.3311 9.49805 24.998s14.5 10.667 24.5 12v339c-10 0.666992 -18.167 4.33398 -24.5 11.001s-9.5 15 -9.5 25s3.5 18.5 10.5 25.5s15.833 10.5 26.5 10.5h267l15 40h9l15 -40h271c10.667 0 19.5 -3.5 26.5 -10.5s10.5 -15.667 10.5 -26
s-3.5 -19 -10.5 -26s-15.833 -10.5 -26.5 -10.5v-338c10.667 0 19.5 -3.5 26.5 -10.5s10.5 -15.667 10.5 -26s-3.5 -19.166 -10.5 -26.499s-15.833 -11 -26.5 -11h-267v-47l136 -82l-13 -22l-123 47v-94c0 -7.33301 -2.66699 -13.5 -8 -18.5s-11.666 -7.5 -18.999 -7.5
s-13.166 2.5 -17.499 7.5s-6.5 11.167 -6.5 18.5v94l-122 -47l-12 22l134 82v47h-259c-10.667 0 -19.5 3.66699 -26.5 11s-10.5 16 -10.5 26zM130.998 300.998h487v332h-487v-332z" />
    <glyph glyph-name="uniF001" unicode="&#xf001;" 
d="M450.5 749c-90.333 0 -167.5 -9.16699 -231.5 -27.5s-96 -40.333 -96 -66s32 -47.667 96 -66s141.167 -27.5 231.5 -27.5s167.5 9.16699 231.5 27.5s96 40.333 96 66s-32 47.667 -96 66s-141.167 27.5 -231.5 27.5zM778 580l-0.000976562 -112c0 -26 -32 -48 -96 -66
s-141.167 -27 -231.5 -27s-167.5 9 -231.5 27s-96 40 -96 66v112c54.667 -36 146.334 -57.333 275.001 -64c20 -0.666992 37.5 -1 52.5 -1s32.667 0.5 53 1.5s48.5 3.5 84.5 7.5c82 8 145.333 26.667 190 56zM777.999 393v-112c0 -26 -32 -48.167 -96 -66.5
s-141.167 -27.5 -231.5 -27.5s-167.5 9.16699 -231.5 27.5s-96 40.5 -96 66.5v112c52 -36 143.667 -57 275 -63c20 -1.33301 37.5 -2 52.5 -2s32.667 0.5 53 1.5s48.5 3.16699 84.5 6.5c84.667 8.66699 148 27.667 190 57zM777.999 206l-0.00195312 -112
c0 -26 -32 -48.167 -96 -66.5s-141.167 -27.5 -231.5 -27.5s-167.5 9.16699 -231.5 27.5s-96 40.5 -96 66.5v112c42.667 -29.333 106.334 -48 191.001 -56c62.667 -6.66699 104.834 -10 126.501 -10s42.667 0.666992 63 2s48.5 4 84.5 8c84.667 8 148 26.667 190 56z" />
    <glyph glyph-name="uniF002" unicode="&#xf002;" horiz-adv-x="750" 
d="M485 177c-52.667 -34.667 -109.999 -51.998 -171.999 -51.998c-43.333 0 -84 8.16699 -122 24.5s-71.167 38.666 -99.5 66.999s-50.666 61.333 -66.999 99s-24.5 78.167 -24.5 121.5s8.16699 84 24.5 122s38.666 71.167 66.999 99.5s61.5 50.666 99.5 66.999
s78.5 24.5 121.5 24.5s83.5 -8.16699 121.5 -24.5s71.167 -38.666 99.5 -66.999s50.666 -61.5 66.999 -99.5s24.5 -78.667 24.5 -122c0 -62 -17.333 -119.333 -52 -172l168 -167c6 -6.66699 9 -14.334 9 -23.001s-3 -16 -9 -22l-44 -44c-6 -6 -13.333 -9 -22 -9s-16 3 -22 9
zM125.001 437.002c0 -26 4.83301 -50.333 14.5 -73s23 -42.5 40 -59.5s37 -30.333 60 -40s47.5 -14.5 73.5 -14.5s50.333 4.83301 73 14.5s42.5 23 59.5 40s30.333 36.833 40 59.5s14.5 47 14.5 73s-4.83301 50.333 -14.5 73s-23 42.5 -40 59.5s-36.833 30.5 -59.5 40.5
s-47 15 -73 15s-50.5 -5 -73.5 -15s-43 -23.5 -60 -40.5s-30.333 -36.833 -40 -59.5s-14.5 -47 -14.5 -73zM201.001 420.502c-4.66699 4.33301 -6.99902 12.334 -6.99902 24.001s3.16699 24.667 9.5 39s14.833 26.833 25.5 37.5c23.333 23.333 51.333 35 84 35
c6.66699 0 12.167 -2.33301 16.5 -7s6.5 -10.334 6.5 -17.001s-2.16699 -12.167 -6.5 -16.5s-9.83301 -6.5 -16.5 -6.5c-20 0 -37 -7 -51 -21s-21 -31 -21 -51c0 -6.66699 -2.16699 -12.167 -6.5 -16.5s-9.83301 -6.5 -16.5 -6.5s-12.334 2.16699 -17.001 6.5z" />
    <glyph glyph-name="uniF003" unicode="&#xf003;" 
d="M878 750v-750h-857v750h857zM824 696h-749v-642h749v642zM771 643v-536h-643v536h643zM378.5 482.5c-0.333008 9.66699 -4.50293 17.166 -12.5029 22.499l-123 76c-6.66699 4 -13.5 5.16699 -20.5 3.5s-12.5 -5.66699 -16.5 -12s-5.16699 -13.166 -3.5 -20.499
s5.83398 -12.666 12.501 -15.999l88 -55l-90 -61c-13.333 -10.667 -15.666 -23.334 -6.99902 -38.001c5.33301 -7.33301 11.833 -11 19.5 -11s13.834 1.66699 18.501 5l123 84c8 5.33301 11.833 12.833 11.5 22.5zM609.997 481.999h-161v-54h161v54z" />
    <glyph glyph-name="uniF004" unicode="&#xf004;" 
d="M327 543l164 -157l159 155l-69 66h228v-221l-78 76l-241 -231l-162 159l-161 -156l-81 77zM867 57v-57h-868v57h868z" />
    <glyph glyph-name="uniF005" unicode="&#xf005;" 
d="M768 604v-46.0029h-638v46c0 13.333 3.83301 23.833 11.5 31.5s15.167 11.834 22.5 12.501l11 2h549c0.666992 0 2.16699 -0.166992 4.5 -0.5s5.83301 -1.16602 10.5 -2.49902s9 -3.66602 13 -6.99902c4 -2.66699 7.66699 -7.16699 11 -13.5s5 -13.833 5 -22.5z
M632 741.997c0.666992 0 2.16797 -0.166016 4.50098 -0.499023s6 -1.33301 11 -3s9.83301 -3.83398 14.5 -6.50098c3.33301 -2.66699 6.66602 -7.33398 9.99902 -14.001c4 -6 6 -13.333 6 -22h-457c0 13.333 3.83301 23.833 11.5 31.5s15.5 11.834 23.5 12.501l11 2h365z
M860.001 557.998l12 -12.001c6 -5.33301 9.83301 -9 11.5 -11s4.5 -5.66699 8.5 -11c3.33301 -5.33301 5.33301 -10.333 6 -15s1 -10.667 1 -18s-1 -15.333 -3 -24l-20 -116l-33 -191c-12.667 -69.333 -19 -104.666 -19 -105.999c-2 -14 -7.66699 -24.833 -17 -32.5
s-18.333 -11.834 -27 -12.501l-12 -1h-638c-3.33301 0 -7.83301 0.333008 -13.5 1s-13.5 4.83398 -23.5 12.501s-16.333 18.5 -19 32.5l-18 106l-33 191l-20 116c-2 8.66699 -3 16.667 -3 24s0.333008 13.333 1 18s2.66699 9.66699 6 15s6 9 8 11s6 5.66699 12 11l11 12
l28 28v-73h766v73zM632.001 310.997l0.000976562 90.999h-64v-73h-237v73h-64v-91c0 -1.33301 0.166992 -3.16602 0.5 -5.49902s1.16602 -6 2.49902 -11s3.33301 -9.5 6 -13.5c3.33301 -4 8.16602 -7.66699 14.499 -11s13.833 -5 22.5 -5h273
c13.333 0 23.833 3.83301 31.5 11.5s11.834 15.5 12.501 23.5z" />
    <glyph glyph-name="uniF006" unicode="&#xf006;" 
d="M394 203v-169h-338v169h338zM225 147h-113v-56h113v56zM337 147h-32v-56h32v56zM844 203v-169h-338v169h338zM675 147h-113v-56h113v56zM788 147h-33v-56h33v56zM900 372v-169h-338v169h338zM731 316h-112v-56h112v56zM844 316h-33v-56h33v56zM844 541v-169h-338v169h338
zM675 485h-113v-57h113v57zM788 485h-33v-57h33v57zM394 372v-169h-338v169h338zM225 316h-113v-56h113v56zM337 316h-32v-56h32v56zM337 541v-169h-337v169h337zM169 485h-113v-57h113v57zM281 485h-33v-57h33v57zM394 710v-169h-338v169h338zM225 653h-113v-56h113v56z
M337 653h-32v-56h32v56z" />
    <glyph glyph-name="uniF007" unicode="&#xf007;" 
d="M0 34v6.99707c7.33301 12.667 13.666 26 18.999 40l18 42c23.333 54.667 50 87.334 80 98.001c7.33301 2.66699 15.166 4.33398 23.499 5.00098s20.833 2.33398 37.5 5.00098l65 11l79 12c2.66699 11.333 5 22.833 7 34.5s4.66699 22.834 8 33.501l-16 22
c-5.33301 6.66699 -10.333 14 -15 22c-12 19.333 -19.333 37 -22 53l-6 46l-6 44l-6 41c-1.33301 12 -2 22.833 -2 32.5s3.5 24.834 10.5 45.501s18 40 33 58s34.333 33.167 58 45.5s51.834 18.5 84.501 18.5s60.834 -6.16699 84.501 -18.5s42.834 -27.5 57.501 -45.5
c29.333 -34.667 44 -72.667 44 -114c0 -2.66699 -0.666992 -10 -2 -22l-6 -42c-8 -62 -14.333 -99 -19 -111s-9.5 -22.167 -14.5 -30.5s-10.333 -16 -16 -23s-10.834 -14.167 -15.501 -21.5c3.33301 -10.667 6 -21.834 8 -33.501s4.33301 -23.167 7 -34.5l119 -19
c33.333 -5.33301 54.166 -8.33301 62.499 -9s16.166 -2.33398 23.499 -5.00098c11.333 -4 22.5 -11.5 33.5 -22.5s20 -22.833 27 -35.5s13.5 -26 19.5 -40l17 -42c6 -14 12.667 -27.333 20 -40v-7c-9.33301 -5.33301 -18.166 -11.5 -26.499 -18.5s-18.5 -12.167 -30.5 -15.5
h-786c-12 3.33301 -22.167 8.5 -30.5 15.5s-17.166 13.167 -26.499 18.5z" />
    <glyph glyph-name="uniF008" unicode="&#xf008;" 
d="M0 56v638c0 15.333 5.5 28.5 16.5 39.5s24.167 16.5 39.5 16.5h788c15.333 0 28.5 -5.5 39.5 -16.5s16.5 -24.167 16.5 -39.5v-638c0 -15.333 -5.5 -28.5 -16.5 -39.5s-24.167 -16.5 -39.5 -16.5h-788c-15.333 0 -28.5 5.5 -39.5 16.5s-16.5 24.167 -16.5 39.5zM56 75
c0 -5.33301 1.83301 -9.83301 5.5 -13.5s8.16699 -5.5 13.5 -5.5h75c5.33301 0 9.83301 1.83301 13.5 5.5s5.5 8.16699 5.5 13.5v75c0 5.33301 -1.83301 9.83301 -5.5 13.5s-8.16699 5.5 -13.5 5.5h-75c-5.33301 0 -9.83301 -1.83301 -13.5 -5.5s-5.5 -8.16699 -5.5 -13.5
v-75zM56 250c0 -5.33301 1.83301 -9.83301 5.5 -13.5s8.16699 -5.5 13.5 -5.5h75c5.33301 0 9.83301 1.83301 13.5 5.5s5.5 8.16699 5.5 13.5v75c0 5.33301 -1.83301 9.83301 -5.5 13.5s-8.16699 5.5 -13.5 5.5h-75c-5.33301 0 -9.83301 -1.83301 -13.5 -5.5
s-5.5 -8.16699 -5.5 -13.5v-75zM56 425c0 -5.33301 1.83301 -9.83301 5.5 -13.5s8.16699 -5.5 13.5 -5.5h75c5.33301 0 9.83301 1.83301 13.5 5.5s5.5 8.16699 5.5 13.5v75c0 5.33301 -1.83301 9.83301 -5.5 13.5s-8.16699 5.5 -13.5 5.5h-75
c-5.33301 0 -9.83301 -1.83301 -13.5 -5.5s-5.5 -8.16699 -5.5 -13.5v-75zM56 600c0 -5.33301 1.83301 -9.83301 5.5 -13.5s8.16699 -5.5 13.5 -5.5h75c5.33301 0 9.83301 1.83301 13.5 5.5s5.5 8.16699 5.5 13.5v75c0 5.33301 -1.83301 9.83301 -5.5 13.5
s-8.16699 5.5 -13.5 5.5h-75c-5.33301 0 -9.83301 -1.83301 -13.5 -5.5s-5.5 -8.16699 -5.5 -13.5v-75zM225 75c0 -5.33301 1.83301 -9.83301 5.5 -13.5s8.16699 -5.5 13.5 -5.5h412c5.33301 0 9.83301 1.83301 13.5 5.5s5.5 8.16699 5.5 13.5v250
c0 5.33301 -1.83301 9.83301 -5.5 13.5s-8.16699 5.5 -13.5 5.5h-412c-5.33301 0 -9.83301 -1.83301 -13.5 -5.5s-5.5 -8.16699 -5.5 -13.5v-250zM225 425c0 -5.33301 1.83301 -9.83301 5.5 -13.5s8.16699 -5.5 13.5 -5.5h412c5.33301 0 9.83301 1.83301 13.5 5.5
s5.5 8.16699 5.5 13.5v250c0 5.33301 -1.83301 9.83301 -5.5 13.5s-8.16699 5.5 -13.5 5.5h-412c-5.33301 0 -9.83301 -1.83301 -13.5 -5.5s-5.5 -8.16699 -5.5 -13.5v-250zM731 75c0 -5.33301 1.83301 -9.83301 5.5 -13.5s8.16699 -5.5 13.5 -5.5h75
c5.33301 0 9.83301 1.83301 13.5 5.5s5.5 8.16699 5.5 13.5v75c0 5.33301 -1.83301 9.83301 -5.5 13.5s-8.16699 5.5 -13.5 5.5h-75c-5.33301 0 -9.83301 -1.83301 -13.5 -5.5s-5.5 -8.16699 -5.5 -13.5v-75zM731 250c0 -5.33301 1.83301 -9.83301 5.5 -13.5
s8.16699 -5.5 13.5 -5.5h75c5.33301 0 9.83301 1.83301 13.5 5.5s5.5 8.16699 5.5 13.5v75c0 5.33301 -1.83301 9.83301 -5.5 13.5s-8.16699 5.5 -13.5 5.5h-75c-5.33301 0 -9.83301 -1.83301 -13.5 -5.5s-5.5 -8.16699 -5.5 -13.5v-75zM731 425
c0 -5.33301 1.83301 -9.83301 5.5 -13.5s8.16699 -5.5 13.5 -5.5h75c5.33301 0 9.83301 1.83301 13.5 5.5s5.5 8.16699 5.5 13.5v75c0 5.33301 -1.83301 9.83301 -5.5 13.5s-8.16699 5.5 -13.5 5.5h-75c-5.33301 0 -9.83301 -1.83301 -13.5 -5.5s-5.5 -8.16699 -5.5 -13.5
v-75zM731 600c0 -5.33301 1.83301 -9.83301 5.5 -13.5s8.16699 -5.5 13.5 -5.5h75c5.33301 0 9.83301 1.83301 13.5 5.5s5.5 8.16699 5.5 13.5v75c0 5.33301 -1.83301 9.83301 -5.5 13.5s-8.16699 5.5 -13.5 5.5h-75c-5.33301 0 -9.83301 -1.83301 -13.5 -5.5
s-5.5 -8.16699 -5.5 -13.5v-75z" />
    <glyph glyph-name="uniF009" unicode="&#xf009;" 
d="M0 38v262c0 10.667 3.66699 19.667 11 27s16.333 11 27 11h337c10.667 0 19.667 -3.66699 27 -11s11 -16.333 11 -27v-262c0 -10.667 -3.66699 -19.667 -11 -27s-16.333 -11 -27 -11h-337c-10.667 0 -19.667 3.66699 -27 11s-11 16.333 -11 27zM0 450v263
c0 10 3.66699 18.667 11 26s16.333 11 27 11h337c10.667 0 19.667 -3.66699 27 -11s11 -16 11 -26v-263c0 -10.667 -3.66699 -19.5 -11 -26.5s-16.333 -10.5 -27 -10.5h-337c-10.667 0 -19.667 3.5 -27 10.5s-11 15.833 -11 26.5zM488 38v262c0 10.667 3.5 19.667 10.5 27
s15.833 11 26.5 11h338c10 0 18.667 -3.66699 26 -11s11 -16.333 11 -27v-262c0 -10.667 -3.66699 -19.667 -11 -27s-16 -11 -26 -11h-338c-10.667 0 -19.5 3.66699 -26.5 11s-10.5 16.333 -10.5 27zM488 450v263c0 10 3.5 18.667 10.5 26s15.833 11 26.5 11h338
c10 0 18.667 -3.66699 26 -11s11 -16 11 -26v-263c0 -10.667 -3.66699 -19.5 -11 -26.5s-16 -10.5 -26 -10.5h-338c-10.667 0 -19.5 3.5 -26.5 10.5s-10.5 15.833 -10.5 26.5z" />
    <glyph glyph-name="uniF00A" unicode="&#xf00a;" 
d="M0 38v132c0 10.667 3.66699 19.5 11 26.5s16.333 10.5 27 10.5h175c10 0 18.667 -3.5 26 -10.5s11 -15.833 11 -26.5v-132c0 -10.667 -3.66699 -19.667 -11 -27s-16 -11 -26 -11h-175c-10.667 0 -19.667 3.66699 -27 11s-11 16.333 -11 27zM0 320v110
c0 10.667 3.66699 19.5 11 26.5s16.333 10.5 27 10.5h175c10 0 18.667 -3.5 26 -10.5s11 -15.833 11 -26.5v-110c0 -10.667 -3.66699 -19.667 -11 -27s-16 -11 -26 -11h-175c-10.667 0 -19.667 3.66699 -27 11s-11 16.333 -11 27zM0 580v133c0 10 3.66699 18.667 11 26
s16.333 11 27 11h175c10 0 18.667 -3.66699 26 -11s11 -16 11 -26v-133c0 -10.667 -3.66699 -19.667 -11 -27s-16 -11 -26 -11h-175c-10.667 0 -19.667 3.66699 -27 11s-11 16.333 -11 27zM325 38v132c0 10.667 3.66699 19.5 11 26.5s16.333 10.5 27 10.5h175
c10 0 18.667 -3.5 26 -10.5s11 -15.833 11 -26.5v-132c0 -10.667 -3.66699 -19.667 -11 -27s-16 -11 -26 -11h-175c-10.667 0 -19.667 3.66699 -27 11s-11 16.333 -11 27zM325 320v110c0 10.667 3.66699 19.5 11 26.5s16.333 10.5 27 10.5h175c10 0 18.667 -3.5 26 -10.5
s11 -15.833 11 -26.5v-110c0 -10.667 -3.66699 -19.667 -11 -27s-16 -11 -26 -11h-175c-10.667 0 -19.667 3.66699 -27 11s-11 16.333 -11 27zM325 580v133c0 10 3.66699 18.667 11 26s16.333 11 27 11h175c10 0 18.667 -3.66699 26 -11s11 -16 11 -26v-133
c0 -10.667 -3.66699 -19.667 -11 -27s-16 -11 -26 -11h-175c-10.667 0 -19.667 3.66699 -27 11s-11 16.333 -11 27zM650 38v132c0 10.667 3.66699 19.5 11 26.5s16.333 10.5 27 10.5h175c10 0 18.667 -3.5 26 -10.5s11 -15.833 11 -26.5v-132
c0 -10.667 -3.66699 -19.667 -11 -27s-16 -11 -26 -11h-175c-10.667 0 -19.667 3.66699 -27 11s-11 16.333 -11 27zM650 320v110c0 10.667 3.66699 19.5 11 26.5s16.333 10.5 27 10.5h175c10 0 18.667 -3.5 26 -10.5s11 -15.833 11 -26.5v-110
c0 -10.667 -3.66699 -19.667 -11 -27s-16 -11 -26 -11h-175c-10.667 0 -19.667 3.66699 -27 11s-11 16.333 -11 27zM650 580v133c0 10 3.66699 18.667 11 26s16.333 11 27 11h175c10 0 18.667 -3.66699 26 -11s11 -16 11 -26v-133c0 -10.667 -3.66699 -19.667 -11 -27
s-16 -11 -26 -11h-175c-10.667 0 -19.667 3.66699 -27 11s-11 16.333 -11 27z" />
    <glyph glyph-name="uniF00B" unicode="&#xf00b;" 
d="M0 38v132c0 10.667 3.66699 19.5 11 26.5s16.333 10.5 27 10.5h145c10 0 18.667 -3.5 26 -10.5s11 -15.833 11 -26.5v-132c0 -10.667 -3.66699 -19.667 -11 -27s-16 -11 -26 -11h-145c-10.667 0 -19.667 3.66699 -27 11s-11 16.333 -11 27zM0 320v110
c0 10.667 3.66699 19.5 11 26.5s16.333 10.5 27 10.5h145c10 0 18.667 -3.5 26 -10.5s11 -15.833 11 -26.5v-110c0 -10.667 -3.66699 -19.667 -11 -27s-16 -11 -26 -11h-145c-10.667 0 -19.667 3.66699 -27 11s-11 16.333 -11 27zM0 580v133c0 10 3.66699 18.667 11 26
s16.333 11 27 11h145c10 0 18.667 -3.66699 26 -11s11 -16 11 -26v-133c0 -10.667 -3.66699 -19.667 -11 -27s-16 -11 -26 -11h-145c-10.667 0 -19.667 3.66699 -27 11s-11 16.333 -11 27zM295 38v132c0 10.667 3.66699 19.5 11 26.5s16.333 10.5 27 10.5h530
c10 0 18.667 -3.5 26 -10.5s11 -15.833 11 -26.5v-132c0 -10.667 -3.66699 -19.667 -11 -27s-16 -11 -26 -11h-530c-10.667 0 -19.667 3.66699 -27 11s-11 16.333 -11 27zM295 320v110c0 10.667 3.66699 19.5 11 26.5s16.333 10.5 27 10.5h530c10 0 18.667 -3.5 26 -10.5
s11 -15.833 11 -26.5v-110c0 -10.667 -3.66699 -19.667 -11 -27s-16 -11 -26 -11h-530c-10.667 0 -19.667 3.66699 -27 11s-11 16.333 -11 27zM295 580v133c0 10 3.66699 18.667 11 26s16.333 11 27 11h530c10 0 18.667 -3.66699 26 -11s11 -16 11 -26v-133
c0 -10.667 -3.66699 -19.667 -11 -27s-16 -11 -26 -11h-530c-10.667 0 -19.667 3.66699 -27 11s-11 16.333 -11 27z" />
    <glyph glyph-name="uniF00C" unicode="&#xf00c;" 
d="M38 551v199h225v-199h-225zM65 0v73h172v-73h-172zM65 187v74h172v-74h-172zM65 375v74h172v-74h-172zM336 551v199h226v-199h-226zM362 0v73h173v-73h-173zM362 187v74h173v-74h-173zM362 375v74h173v-74h-173zM635 551v199h225v-199h-225zM662 0v73h172v-73h-172z
M662 187v74h172v-74h-172zM662 375v74h172v-74h-172z" />
    <glyph glyph-name="uniF00D" unicode="&#xf00d;" 
d="M502 666l-0.000976562 -186c114 -14 207.333 -51.667 280 -113c30.667 -26 58.334 -61 83.001 -105c19.333 -35.333 31 -74.333 35 -117v-9c-6.66699 12.667 -22 29 -46 49s-49.5 36.167 -76.5 48.5s-65 22.5 -114 30.5s-102.833 9.33301 -161.5 4v-184l-291 290z
M289.999 666v-106l-185 -186l185 -184v-106l-291 290z" />
    <glyph glyph-name="uniF00E" unicode="&#xf00e;" horiz-adv-x="750" 
d="M485 177c-52.667 -34.667 -109.999 -51.998 -171.999 -51.998c-43.333 0 -84 8.16699 -122 24.5s-71.167 38.666 -99.5 66.999s-50.666 61.333 -66.999 99s-24.5 78.167 -24.5 121.5s8.16699 84 24.5 122s38.666 71.167 66.999 99.5s61.5 50.666 99.5 66.999
s78.5 24.5 121.5 24.5s83.5 -8.16699 121.5 -24.5s71.167 -38.666 99.5 -66.999s50.666 -61.5 66.999 -99.5s24.5 -78.667 24.5 -122c0 -62 -17.333 -119.333 -52 -172l168 -167c6 -6.66699 9 -14.334 9 -23.001s-3 -16 -9 -22l-44 -44c-6 -6 -13.333 -9 -22 -9s-16 3 -22 9
zM125.001 437.002c0 -26 4.83301 -50.333 14.5 -73s23 -42.5 40 -59.5s37 -30.333 60 -40s47.5 -14.5 73.5 -14.5s50.333 4.83301 73 14.5s42.5 23 59.5 40s30.333 36.833 40 59.5s14.5 47 14.5 73s-4.83301 50.333 -14.5 73s-23 42.5 -40 59.5s-36.833 30.5 -59.5 40.5
s-47 15 -73 15s-50.5 -5 -73.5 -15s-43 -23.5 -60 -40.5s-30.333 -36.833 -40 -59.5s-14.5 -47 -14.5 -73zM188.001 422.002v31c0 4.66699 1.5 8.5 4.5 11.5s6.5 4.5 10.5 4.5h78v78c0 4 1.5 7.5 4.5 10.5s6.83301 4.5 11.5 4.5h31c4.66699 0 8.5 -1.5 11.5 -4.5
s4.5 -6.5 4.5 -10.5v-78h78c10.667 0 16 -5.33301 16 -16v-31c0 -10.667 -5.33301 -16 -16 -16h-78v-78c0 -10.667 -5.33301 -16 -16 -16h-31c-10.667 0 -16 5.33301 -16 16v78h-78c-4 0 -7.5 1.5 -10.5 4.5s-4.5 6.83301 -4.5 11.5z" />
    <glyph glyph-name="uniF010" unicode="&#xf010;" horiz-adv-x="750" 
d="M485 177c-52.667 -34.667 -109.999 -51.998 -171.999 -51.998c-43.333 0 -84 8.16699 -122 24.5s-71.167 38.666 -99.5 66.999s-50.666 61.333 -66.999 99s-24.5 78.167 -24.5 121.5s8.16699 84 24.5 122s38.666 71.167 66.999 99.5s61.5 50.666 99.5 66.999
s78.5 24.5 121.5 24.5s83.5 -8.16699 121.5 -24.5s71.167 -38.666 99.5 -66.999s50.666 -61.5 66.999 -99.5s24.5 -78.667 24.5 -122c0 -62 -17.333 -119.333 -52 -172l168 -167c6 -6.66699 9 -14.334 9 -23.001s-3 -16 -9 -22l-44 -44c-6 -6 -13.333 -9 -22 -9s-16 3 -22 9
zM125.001 437.002c0 -26 4.83301 -50.333 14.5 -73s23 -42.5 40 -59.5s37 -30.333 60 -40s47.5 -14.5 73.5 -14.5s50.333 4.83301 73 14.5s42.5 23 59.5 40s30.333 36.833 40 59.5s14.5 47 14.5 73s-4.83301 50.333 -14.5 73s-23 42.5 -40 59.5s-36.833 30.5 -59.5 40.5
s-47 15 -73 15s-50.5 -5 -73.5 -15s-43 -23.5 -60 -40.5s-30.333 -36.833 -40 -59.5s-14.5 -47 -14.5 -73zM188.001 422.002v31c0 4.66699 1.5 8.5 4.5 11.5s6.5 4.5 10.5 4.5h219c10.667 0 16 -5.33301 16 -16v-31c0 -10.667 -5.33301 -16 -16 -16h-219
c-4 0 -7.5 1.5 -10.5 4.5s-4.5 6.83301 -4.5 11.5z" />
    <glyph glyph-name="uniF011" unicode="&#xf011;" horiz-adv-x="713" 
d="M28 217.5c-18.667 43 -28.001 91.668 -28.001 146.001s13.667 107.333 41 159s65.666 94.5 114.999 128.5c4 2 8.5 2.83301 13.5 2.5s9.16699 -2.83301 12.5 -7.5l42 -62c6.66699 -10.667 5 -19.334 -5 -26.001c-34 -23.333 -60.167 -52.666 -78.5 -87.999
s-27.5 -71.5 -27.5 -108.5s6.33301 -70.333 19 -100s30 -55.5 52 -77.5c47.333 -47.333 104.666 -71 171.999 -71c68 0 125.667 23.667 173 71s71 104.666 71 171.999c0 40.667 -9.33301 78.667 -28 114s-45 64.666 -79 87.999c-4 2 -6.5 5.5 -7.5 10.5
s-0.166992 10.167 2.5 15.5l43 62c7.33301 8.66699 16 10.334 26 5.00098c48.667 -34 86.834 -76.833 114.501 -128.5s41.5 -104.667 41.5 -159s-9.33301 -103 -28 -146s-44.167 -80.667 -76.5 -113s-70.166 -57.833 -113.499 -76.5s-89.666 -28 -138.999 -28
s-95.5 9.33301 -138.5 28s-80.667 44.167 -113 76.5s-57.833 70 -76.5 113zM299.999 394.001v337c0 12.667 6.33301 19 19 19h75c5.33301 0 9.83301 -1.83301 13.5 -5.5s5.5 -8.16699 5.5 -13.5v-337c0 -5.33301 -1.83301 -9.83301 -5.5 -13.5s-8.16699 -5.5 -13.5 -5.5h-75
c-12.667 0 -19 6.33301 -19 19z" />
    <glyph glyph-name="uniF012" unicode="&#xf012;" 
d="M0 19v127c-0 5.33301 1.83301 9.83301 5.5 13.5s8.16699 5.5 13.5 5.5h94c5.33301 0 9.66602 -1.83301 12.999 -5.5s5 -8.16699 5 -13.5v-127c0 -5.33301 -1.66699 -9.83301 -5 -13.5s-7.66602 -5.5 -12.999 -5.5h-94c-12.667 -0 -19 6.33301 -19 19zM192 19v212
c0 5.33301 1.83301 9.83301 5.5 13.5s8.16699 5.5 13.5 5.5h94c5.33301 0 9.66602 -1.83301 12.999 -5.5s5 -8.16699 5 -13.5v-212c0 -5.33301 -1.66699 -9.83301 -5 -13.5s-7.66602 -5.5 -12.999 -5.5h-94c-5.33301 -0 -9.83301 1.83301 -13.5 5.5s-5.5 8.16699 -5.5 13.5z
M384 19v330c0 5.33301 1.83301 9.83301 5.5 13.5s8.16699 5.5 13.5 5.5h94c5.33301 0 9.83301 -1.83301 13.5 -5.5s5.5 -8.16699 5.5 -13.5v-330c0 -5.33301 -1.83301 -9.83301 -5.5 -13.5s-8.16699 -5.5 -13.5 -5.5h-94c-5.33301 -0 -9.83301 1.83301 -13.5 5.5
s-5.5 8.16699 -5.5 13.5zM577 19v486c0 5.33301 1.66699 9.83301 5 13.5s7.66602 5.5 12.999 5.5h94c5.33301 0 9.83301 -1.83301 13.5 -5.5s5.5 -8.16699 5.5 -13.5v-486c0 -5.33301 -1.83301 -9.83301 -5.5 -13.5s-8.16699 -5.5 -13.5 -5.5h-94
c-5.33301 -0 -9.66602 1.83301 -12.999 5.5s-5 8.16699 -5 13.5zM769 19v712c0 12.667 6.33301 19 19 19h93c12.667 0 19 -6.33301 19 -19v-712c0 -12.667 -6.33301 -19 -19 -19h-93c-12.667 -0 -19 6.33301 -19 19z" />
    <glyph glyph-name="uniF014" unicode="&#xf014;" horiz-adv-x="648" 
d="M1 549l-0.998047 32.999l1 33c22.667 12 83 20.333 181 25c-4 32.667 0 58 12 76c14.667 22.667 58 34 130 34c73.333 0 116.666 -11.333 129.999 -34c12 -21.333 16 -46.666 12 -75.999c98 -4.66699 158.333 -13 181 -25c0.666992 -6 1 -11.667 1 -17v-32
c0 -5.33301 -0.333008 -11 -1 -17c-22.667 -14 -93.334 -23 -212.001 -27h-16l-95 -1h-41c-106 0 -189.667 6 -251 18c-14 2.66699 -24.333 6 -31 10zM67.002 483.999c65.333 -8 126.332 -11.998 182.999 -11.998h147c57.333 0 118.666 4 183.999 12
c-3.33301 -50.667 -6 -102.167 -8 -154.5s-3.83301 -94.333 -5.5 -126s-2.66699 -55.334 -3 -71.001s-1.16602 -30.834 -2.49902 -45.501c-2 -34.667 -8 -56.667 -18 -66c-14 -14 -48 -21 -102 -21h-236c-53.333 0 -86.666 6 -99.999 18
c-13.333 13.333 -20.666 51.333 -21.999 114c-0.666992 16 -1.83398 39.833 -3.50098 71.5s-3.66699 73.667 -6 126s-4.83301 103.833 -7.5 154.5zM149.001 333.001l9 -170.999v-32c0 -26 3.33301 -41.333 10 -46s11.667 -7.16699 15 -7.5s6.66602 -0.5 9.99902 -0.5
s6 -0.333008 8 -1h11c3.33301 0 5 6.33301 5 19v286c0 5.33301 -1.83301 9.83301 -5.5 13.5s-8.16699 5.5 -13.5 5.5l-33 2c-5.33301 0 -9.66602 -1.66699 -12.999 -5s-4.83301 -8.83301 -4.5 -16.5s0.5 -15.834 0.5 -24.501s0.333008 -16 1 -22zM256.001 668.002
c-0.666992 -4 -0.332031 -12.667 1.00098 -26c6 0.666992 12.667 1 20 1h47l67 -1c1.33301 13.333 1.66602 22 0.999023 26c-14.667 4 -33 6 -55 6c-39.333 0 -66.333 -2 -81 -6zM292.003 94.002c0 -5.33301 1.66797 -9.83301 5.00098 -13.5s7.66602 -5.5 12.999 -5.5h28
c5.33301 0 9.83301 1.83301 13.5 5.5s5.5 8.16699 5.5 13.5v285c0 5.33301 -3.66699 9.66602 -11 12.999s-12 5 -14 5h-15c-2 0 -6.66699 -1.66699 -14 -5s-11 -7.66602 -11 -12.999v-285zM490.004 162.002c0 6 0.499023 15.832 1.49902 29.499s2 35.834 3 66.501
s3.16699 72.334 6.5 125.001c0 5.33301 -1.66699 9.66602 -5 12.999s-7.66602 5 -12.999 5l-33 -2c-5.33301 0 -9.66602 -1.83301 -12.999 -5.5s-5 -8.16699 -5 -13.5v-286c0 -12.667 1.33301 -19 4 -19h11c4 1.33301 13.333 2 28 2c7.33301 1.33301 11.666 8 12.999 20
l1 33c0 4.66699 0.333008 8.66699 1 12v20z" />
    <glyph glyph-name="uniF016" unicode="&#xf016;" horiz-adv-x="600" 
d="M0 56v638c0 15.333 5.5 28.5 16.5 39.5s24.167 16.5 39.5 16.5h219v-269c0 -15.333 5.5 -28.5 16.5 -39.5s24.167 -16.5 39.5 -16.5h269v-369c0 -15.333 -5.5 -28.5 -16.5 -39.5s-24.167 -16.5 -39.5 -16.5h-488c-15.333 0 -28.5 5.5 -39.5 16.5s-16.5 24.167 -16.5 39.5
zM331 481v266h3l263 -263v-3h-266z" />
    <glyph glyph-name="uniF017" unicode="&#xf017;" horiz-adv-x="750" 
d="M0 375c0 52 9.83301 100.667 29.5 146s46.5 85 80.5 119s73.667 60.833 119 80.5s94 29.5 146 29.5s100.667 -9.83301 146 -29.5s85 -46.5 119 -80.5s60.833 -73.667 80.5 -119s29.5 -94 29.5 -146s-9.83301 -100.667 -29.5 -146s-46.5 -85 -80.5 -119
s-73.667 -60.833 -119 -80.5s-94 -29.5 -146 -29.5s-100.667 9.83301 -146 29.5s-85 46.5 -119 80.5s-60.833 73.667 -80.5 119s-29.5 94 -29.5 146zM113 375c0 -36 6.83301 -70 20.5 -102s32.334 -59.833 56.001 -83.5s51.5 -42.334 83.5 -56.001s66 -20.5 102 -20.5
s70 6.83301 102 20.5s60 32.334 84 56.001s42.833 51.5 56.5 83.5s20.5 66 20.5 102s-6.83301 70 -20.5 102s-32.5 60 -56.5 84s-52 42.833 -84 56.5s-66 20.5 -102 20.5s-70 -6.83301 -102 -20.5s-59.833 -32.5 -83.5 -56.5s-42.334 -52 -56.001 -84s-20.5 -66 -20.5 -102z
M319 375v149.996c0 15.333 5.5 28.5 16.5 39.5s24.167 16.5 39.5 16.5s28.5 -5.5 39.5 -16.5s16.5 -24.167 16.5 -39.5v-127l90 -89c11.333 -11.333 17 -24.666 17 -39.999s-4.16699 -27.166 -12.5 -35.499s-16 -13.833 -23 -16.5s-14.167 -4 -21.5 -4
c-16 0 -29.333 5.33301 -40 16l-106 106c-0.666992 0.666992 -1 1.33398 -1 2.00098s-1.33301 2.33398 -4 5.00098c-7.33301 7.33301 -11 18.333 -11 33z" />
    <glyph glyph-name="uniF018" unicode="&#xf018;" 
d="M1 17l289.998 716c2 4.66699 5.5 8.66699 10.5 12s10.167 5 15.5 5h95l-4 -83h84l-4 83h95c5.33301 0 10.5 -1.66699 15.5 -5s8.5 -7.33301 10.5 -12l290 -716c2 -4.66699 1.83301 -8.66699 -0.5 -12s-6.16602 -5 -11.499 -5h-361l-13 250h-126l-13 -250h-361
c-5.33301 0 -9.16602 1.66699 -11.499 5s-2.5 7.33301 -0.5 12zM393.998 389h112l-10 202h-92z" />
    <glyph glyph-name="uniF019" unicode="&#xf019;" 
d="M0 19v300c-0 5.33301 1.83301 9.83301 5.5 13.5s8.16699 5.5 13.5 5.5h112c5.33301 0 9.83301 -1.83301 13.5 -5.5s5.5 -8.16699 5.5 -13.5v-169h600v169c0 5.33301 1.83301 9.83301 5.5 13.5s8.16699 5.5 13.5 5.5h112c5.33301 0 9.83301 -1.83301 13.5 -5.5
s5.5 -8.16699 5.5 -13.5v-300c0 -12.667 -6.33301 -19 -19 -19h-862c-12.667 -0 -19 6.33301 -19 19zM169 461c2 5.33301 8.33301 8 19 8h150v244c0 10 3.5 18.667 10.5 26s15.833 11 26.5 11h150c10.667 0 19.667 -3.66699 27 -11s11 -16 11 -26v-244h150
c10 0 16 -2.66699 18 -8s-0.666992 -11.666 -8 -18.999l-246 -247c-7.33301 -7.33301 -16.333 -11 -27 -11s-19.667 3.66699 -27 11l-246 247c-7.33301 7.33301 -10 13.666 -8 18.999z" />
    <glyph glyph-name="uniF01A" unicode="&#xf01a;" horiz-adv-x="750" 
d="M0 375c0 52 9.83301 100.667 29.5 146s46.5 85 80.5 119s73.667 60.833 119 80.5s94 29.5 146 29.5s100.667 -9.83301 146 -29.5s85 -46.5 119 -80.5s60.833 -73.667 80.5 -119s29.5 -94 29.5 -146s-9.83301 -100.667 -29.5 -146s-46.5 -85 -80.5 -119
s-73.667 -60.833 -119 -80.5s-94 -29.5 -146 -29.5s-100.667 9.83301 -146 29.5s-85 46.5 -119 80.5s-60.833 73.667 -80.5 119s-29.5 94 -29.5 146zM113 375c0 -36 6.83301 -70 20.5 -102s32.334 -59.833 56.001 -83.5s51.5 -42.334 83.5 -56.001s66 -20.5 102 -20.5
s70 6.83301 102 20.5s60 32.334 84 56.001s42.833 51.5 56.5 83.5s20.5 66 20.5 102s-6.83301 70 -20.5 102s-32.5 59.833 -56.5 83.5s-52 42.334 -84 56.001s-66 20.5 -102 20.5s-70 -6.83301 -102 -20.5s-59.833 -32.334 -83.5 -56.001s-42.334 -51.5 -56.001 -83.5
s-20.5 -66 -20.5 -102zM206 349c2.66699 6.66699 10.665 10 23.998 10h79v185c0 5.33301 1.83301 9.83301 5.5 13.5s8.16699 5.5 13.5 5.5h94c5.33301 0 9.83301 -1.83301 13.5 -5.5s5.5 -8.16699 5.5 -13.5v-185h79c13.333 0 21.333 -3.33301 24 -10
s-0.666016 -14.667 -9.99902 -24l-136 -136c-6 -6 -13.5 -9 -22.5 -9s-16.833 3 -23.5 9l-136 136c-9.33301 9.33301 -12.666 17.333 -9.99902 24z" />
    <glyph glyph-name="uniF01B" unicode="&#xf01b;" horiz-adv-x="750" 
d="M0 375c0 52 9.83301 100.667 29.5 146s46.5 85 80.5 119s73.667 60.833 119 80.5s94 29.5 146 29.5s100.667 -9.83301 146 -29.5s85 -46.5 119 -80.5s60.833 -73.667 80.5 -119s29.5 -94 29.5 -146s-9.83301 -100.667 -29.5 -146s-46.5 -85 -80.5 -119
s-73.667 -60.833 -119 -80.5s-94 -29.5 -146 -29.5s-100.667 9.83301 -146 29.5s-85 46.5 -119 80.5s-60.833 73.667 -80.5 119s-29.5 94 -29.5 146zM113 375c0 -36 6.83301 -70 20.5 -102s32.334 -59.833 56.001 -83.5s51.5 -42.334 83.5 -56.001s66 -20.5 102 -20.5
s70 6.83301 102 20.5s60 32.334 84 56.001s42.833 51.5 56.5 83.5s20.5 66 20.5 102s-6.83301 70 -20.5 102s-32.5 59.833 -56.5 83.5s-52 42.334 -84 56.001s-66 20.5 -102 20.5s-70 -6.83301 -102 -20.5s-59.833 -32.334 -83.5 -56.001s-42.334 -51.5 -56.001 -83.5
s-20.5 -66 -20.5 -102zM206 401c-2.66699 6.66699 0.668945 14.667 10.002 24l136 136c6.66699 6 14.167 9 22.5 9s16.166 -3 23.499 -9l136 -136c9.33301 -9.33301 12.666 -17.333 9.99902 -24s-10.667 -10 -24 -10h-79v-185c0 -5.33301 -1.83301 -9.83301 -5.5 -13.5
s-8.16699 -5.5 -13.5 -5.5h-94c-5.33301 0 -9.83301 1.83301 -13.5 5.5s-5.5 8.16699 -5.5 13.5v185h-79c-13.333 0 -21.333 3.33301 -24 10z" />
    <glyph glyph-name="uniF01C" unicode="&#xf01c;" 
d="M0 38v282c0 24.667 5 48.667 15 72l139 324c4 9.33301 11.167 17.333 21.5 24s20.5 10 30.5 10h488c10 0 20.167 -3.33301 30.5 -10s17.5 -14.667 21.5 -24l139 -324c10 -23.333 15 -47.333 15 -72v-282c0 -10.667 -3.66699 -19.667 -11 -27s-16 -11 -26 -11h-825
c-10.667 0 -19.667 3.66699 -27 11s-11 16.333 -11 27zM116 339l189 0.000976562l56 -113h187l57 113h179c-0.666992 1.33301 -1 2.83301 -1 4.5s-0.333008 3.16699 -1 4.5l-125 290h-414l-125 -291c-0.666992 -0.666992 -1 -1.83398 -1 -3.50098
s-0.333008 -3.16699 -1 -4.5z" />
    <glyph glyph-name="uniF01D" unicode="&#xf01d;" horiz-adv-x="750" 
d="M0 375c0 52 9.83301 100.667 29.5 146s46.5 85 80.5 119s73.667 60.833 119 80.5s94 29.5 146 29.5s100.667 -9.83301 146 -29.5s85 -46.5 119 -80.5s60.833 -73.667 80.5 -119s29.5 -94 29.5 -146s-9.83301 -100.667 -29.5 -146s-46.5 -85 -80.5 -119
s-73.667 -60.833 -119 -80.5s-94 -29.5 -146 -29.5s-100.667 9.83301 -146 29.5s-85 46.5 -119 80.5s-60.833 73.667 -80.5 119s-29.5 94 -29.5 146zM113 375c0 -36 6.83301 -70 20.5 -102s32.334 -59.833 56.001 -83.5s51.5 -42.334 83.5 -56.001s66 -20.5 102 -20.5
s70 6.83301 102 20.5s60 32.334 84 56.001s42.833 51.5 56.5 83.5s20.5 66 20.5 102s-6.83301 70 -20.5 102s-32.5 60 -56.5 84s-52 42.833 -84 56.5s-66 20.5 -102 20.5s-70 -6.83301 -102 -20.5s-59.833 -32.5 -83.5 -56.5s-42.334 -52 -56.001 -84s-20.5 -66 -20.5 -102z
M258 220v310c0 6 2.66699 10.5 8 13.5s10.333 3.16699 15 0.5l269 -156c5.33301 -2 8 -6.33301 8 -13s-2.66699 -11 -8 -13l-269 -156c-2.66699 -1.33301 -5.16699 -2 -7.5 -2s-5.5 1.16699 -9.5 3.5s-6 6.5 -6 12.5z" />
    <glyph glyph-name="uniF01E" unicode="&#xf01e;" 
d="M186 109.5c-73.333 73 -110.001 161.5 -110.001 265.5s36.667 192.5 110 265.5s162 109.5 266 109.5s192.5 -36.333 265.5 -109s109.5 -161.167 109.5 -265.5s-36.333 -193 -109 -266s-161.167 -109.5 -265.5 -109.5s-193.166 36.5 -266.499 109.5zM147.999 333
c20.667 -24.667 61.333 -42.334 122 -53.001c-4 29.333 -6 57 -6 83s1 50.333 3 73c-50.667 10 -87 19.667 -109 29c-8.66699 -29.333 -12.667 -57.666 -12 -84.999zM161.998 272c20 -47.333 44.667 -84.668 74 -112.001c24.667 -27.333 57.334 -49.333 98.001 -66
c-24.667 34.667 -43.334 81.334 -56.001 140.001c-51.333 11.333 -90 24 -116 38zM174.998 505.998c3.33301 -3.33301 35.667 -12.998 97 -28.998c12.667 77.333 35.667 137.666 69 180.999c-49.333 -22.667 -84.333 -45.334 -105 -68.001c-24.667 -22 -45 -50 -61 -84z
M306.999 432c-2 -16.667 -3 -38.332 -3 -64.999s2.66699 -58.334 8 -95.001c37.333 -6 76.333 -10 117 -12v164c-47.333 1.33301 -88 4 -122 8zM311.999 471.002c38 -2.66699 76.999 -5 116.999 -7v215h-3c-26 -10 -49.167 -33.833 -69.5 -71.5
s-35.166 -83.167 -44.499 -136.5zM321.998 227.002c6.66699 -28 16.5 -54.999 29.5 -80.999s25.5 -45 37.5 -57s25.333 -18 40 -18v149c-36 1.33301 -71.667 3.66602 -107 6.99902zM580.998 227.003c-36 -4 -72 -6.33301 -108 -7v-149c41.333 0 77.333 52 108 156z
M589.998 271.003c4 24.667 6.00098 54.168 6.00098 88.501s-0.333008 58.166 -1 71.499c-38.667 -4 -79.334 -6.33301 -122.001 -7v-164c38.667 1.33301 77.667 5 117 11zM590.999 471.004c-16 90 -45.333 154 -88 192c-16 10.667 -26 16 -30 16v-215
c38 0.666992 77.333 3 118 7zM561.999 659.004c33.333 -43.333 56 -104.334 68 -183.001c52 8.66699 84.667 18.334 98 29.001c-34.667 76 -90 127.333 -166 154zM567.999 94.0029c41.333 17.333 74.333 39.332 99 65.999c30 28 53.333 63.667 70 107
c-28.667 -13.333 -66 -24.666 -112 -33.999c-14 -60 -33 -106.333 -57 -139zM632.999 279.002c55.333 9.33301 90.001 20.6689 104.001 34.002c7.33301 7.33301 12.333 14.666 15 21.999s4.66699 22.666 6 45.999s-3.33398 51 -14.001 83c-36 -14.667 -72 -24 -108 -28
c1.33301 -14.667 2 -36.5 2 -65.5s-1.66699 -59.5 -5 -91.5z" />
    <glyph glyph-name="uniF01F" unicode="&#xf01f;" 
d="M375 49l11.9941 -1.99902c8.66699 0 16.167 3.16699 22.5 9.5s9.5 13.833 9.5 22.5v267c0 8.66699 3 16 9 22s13.333 9 22 9s16 -3 22 -9s9 -13.333 9 -22v-267c0 -8.66699 3.16699 -16.167 9.5 -22.5s12.5 -9.5 18.5 -9.5c5.33301 0 11 1 17 3
c36.667 10 74.667 37.333 114 82l24 -26c4 -5.33301 6 -11.666 6 -18.999v-48c0 -10.667 3.83301 -19.834 11.5 -27.501s16.834 -11.5 27.501 -11.5s19.834 3.83301 27.501 11.5s11.5 16.834 11.5 27.501v71c0 6.66699 -1.5 14.5 -4.5 23.5s-6.5 15.833 -10.5 20.5l-48 51
c10.667 28 16 57 16 87c0 7.33301 -0.333008 14.666 -1 21.999h14c9.33301 0 17.333 -3.33301 24 -10s10 -14.667 10 -24v-36c0 -11.333 3.83301 -20.833 11.5 -28.5s17 -11.5 28 -11.5s20.333 3.83301 28 11.5s11.5 17.167 11.5 28.5v70c0 22 -7.66699 40.667 -23 56
s-34 23 -56 23h-74c-5.33301 10 -13 22.667 -23 38l66 72c10.667 12.667 16 28.334 16 47.001v70c0 11.333 -3.83301 20.833 -11.5 28.5s-17 11.5 -28 11.5s-20.333 -3.83301 -28 -11.5s-11.5 -17.167 -11.5 -28.5v-51c0 -7.33301 -2 -13.666 -6 -18.999l-42 -46
c-20 40 -30 78 -30 114s-9 65.167 -27 87.5s-40.667 37.166 -68 44.499v-75c0 -8.66699 -3 -16 -9 -22s-13.333 -9 -22 -9s-16 3 -22 9s-9 13.333 -9 22v75c-27.333 -7.33301 -50 -22.166 -68 -44.499s-27 -51.333 -27 -87s-10 -73.5 -30 -113.5l-42 45
c-4 5.33301 -6 11.666 -6 18.999v51c0 11.333 -3.83301 20.833 -11.5 28.5s-17 11.5 -28 11.5s-20.333 -3.83301 -28 -11.5s-11.5 -17.167 -11.5 -28.5v-70c0 -18.667 5.33301 -34.334 16 -47.001l66 -71c-9.33301 -14 -17.333 -27 -24 -39h-73
c-22 0 -40.667 -7.66699 -56 -23s-23 -34 -23 -56v-70c0 -11.333 3.83301 -20.833 11.5 -28.5s17 -11.5 28 -11.5s20.333 3.83301 28 11.5s11.5 17.167 11.5 28.5v36c0 9.33301 3.33301 17.333 10 24s14.667 10 24 10h14c-0.666992 -7.33301 -1 -14.666 -1 -21.999
c0 -30 5.33301 -59 16 -87l-48 -51c-4 -4.66699 -7.5 -11.5 -10.5 -20.5s-4.5 -16.833 -4.5 -23.5v-71c0 -10.667 3.83301 -19.834 11.5 -27.501s16.834 -11.5 27.501 -11.5s19.834 3.83301 27.501 11.5s11.5 16.834 11.5 27.501v48c0 7.33301 2 13.666 6 18.999l24 26
c18.667 -21.333 36.834 -38.833 54.501 -52.5s37.834 -23.834 60.501 -30.501z" />
    <glyph glyph-name="uniF021" unicode="&#xf021;" 
d="M3 160l69.999 205.998c2.66699 8.66699 8.66699 15.334 18 20.001c10 4 19.333 4.66699 28 2l206 -70c14 -4.66699 21.167 -11 21.5 -19s-6.16699 -15.333 -19.5 -22l-95 -47c34 -51.333 78.333 -86 133 -104c66.667 -23.333 133.667 -19 201 13
c30 14.667 56.667 35 80 61s41 56 53 90c2.66699 11.333 10.334 15.333 23.001 12l71 -24c11.333 -4.66699 15.333 -12.667 12 -24c-16.667 -49.333 -41.667 -92.333 -75 -129s-71.5 -65.5 -114.5 -86.5s-89.333 -33.5 -139 -37.5s-97.167 1.66699 -142.5 17
c-88.667 30 -156.334 84 -203.001 162l-97 -47c-13.333 -7.33301 -23.166 -8.16602 -29.499 -2.49902s-6.83301 15.5 -1.5 29.5zM94.999 494.998c16.667 48.667 41.6689 91.498 75.002 128.498s71.5 66.167 114.5 87.5s89.167 34 138.5 38s97 -1.66699 143 -17
c87.333 -30.667 155 -85 203 -163l97 48c13.333 6.66699 23.166 7.16699 29.499 1.5s6.83301 -15.5 1.5 -29.5l-70 -205c-2.66699 -9.33301 -8.66699 -16.333 -18 -21c-10 -4 -19.333 -4.66699 -28 -2l-206 70c-14 4.66699 -21.167 11 -21.5 19s6.16699 15.333 19.5 22
l95 47c-34 50.667 -78.667 85.334 -134 104.001c-67.333 24 -134 19.667 -200 -13c-30 -14.667 -56.667 -35 -80 -61s-41 -56 -53 -90c-1.33301 -5.33301 -4.33301 -9 -9 -11s-9.33398 -2.33301 -14.001 -1l-71 25c-5.33301 1.33301 -9 4.33301 -11 9
s-2.33301 9.33398 -1 14.001z" />
    <glyph glyph-name="uniF022" unicode="&#xf022;" 
d="M0 56v638c0 15.333 5.5 28.5 16.5 39.5s24.167 16.5 39.5 16.5h788c15.333 0 28.5 -5.5 39.5 -16.5s16.5 -24.167 16.5 -39.5v-638c0 -15.333 -5.5 -28.5 -16.5 -39.5s-24.167 -16.5 -39.5 -16.5h-788c-15.333 0 -28.5 5.5 -39.5 16.5s-16.5 24.167 -16.5 39.5zM75 75
h750v525h-750v-525zM150 169v37c0 12.667 6.33301 19 19 19h75c5.33301 0 9.83301 -1.83301 13.5 -5.5s5.5 -8.16699 5.5 -13.5v-37c0 -5.33301 -1.83301 -9.83301 -5.5 -13.5s-8.16699 -5.5 -13.5 -5.5h-75c-12.667 0 -19 6.33301 -19 19zM150 319v37
c0 12.667 6.33301 19 19 19h75c5.33301 0 9.83301 -1.83301 13.5 -5.5s5.5 -8.16699 5.5 -13.5v-37c0 -5.33301 -1.83301 -9.83301 -5.5 -13.5s-8.16699 -5.5 -13.5 -5.5h-75c-12.667 0 -19 6.33301 -19 19zM150 469v37c0 12.667 6.33301 19 19 19h75
c5.33301 0 9.83301 -1.83301 13.5 -5.5s5.5 -8.16699 5.5 -13.5v-37c0 -5.33301 -1.83301 -9.83301 -5.5 -13.5s-8.16699 -5.5 -13.5 -5.5h-75c-12.667 0 -19 6.33301 -19 19zM338 169v37c0 5.33301 1.66699 9.83301 5 13.5s7.66602 5.5 12.999 5.5h375
c12.667 0 19 -6.33301 19 -19v-37c0 -12.667 -6.33301 -19 -19 -19h-375c-5.33301 0 -9.66602 1.83301 -12.999 5.5s-5 8.16699 -5 13.5zM338 319v37c0 5.33301 1.66699 9.83301 5 13.5s7.66602 5.5 12.999 5.5h375c12.667 0 19 -6.33301 19 -19v-37
c0 -12.667 -6.33301 -19 -19 -19h-375c-5.33301 0 -9.66602 1.83301 -12.999 5.5s-5 8.16699 -5 13.5zM338 469v37c0 5.33301 1.66699 9.83301 5 13.5s7.66602 5.5 12.999 5.5h375c12.667 0 19 -6.33301 19 -19v-37c0 -12.667 -6.33301 -19 -19 -19h-375
c-5.33301 0 -9.66602 1.83301 -12.999 5.5s-5 8.16699 -5 13.5z" />
    <glyph glyph-name="uniF023" unicode="&#xf023;" horiz-adv-x="750" 
d="M522 272c0 19.333 -6.66699 35.666 -20 48.999s-29.5 20 -48.5 20s-35.167 -6.66699 -48.5 -20s-20 -29.666 -20 -48.999c0 -12.667 3.33301 -24.334 10 -35.001s15.667 -19 27 -25l-36 -122c-2 -5.33301 -1.16699 -10.333 2.5 -15s8.16699 -7 13.5 -7h103
c5.33301 0 9.83301 2.33301 13.5 7s4.5 9.66699 2.5 15l-37 122c11.333 6 20.5 14.333 27.5 25s10.5 22.334 10.5 35.001zM317 409h273.002v102c0 37.333 -13.333 69.333 -40 96s-58.834 40 -96.501 40s-69.834 -13.333 -96.501 -40s-40 -58.667 -40 -96v-102zM760.002 358
v-307c0 -14 -5 -26 -15 -36s-22 -15 -36 -15h-511c-14 0 -26 5 -36 15s-15 22 -15 36v307c0 14 5 26 15 36s22 15 36 15h17v102c0 65.333 23.5 121.5 70.5 168.5s103.167 70.5 168.5 70.5s121.333 -23.5 168 -70.5s70 -103.167 70 -168.5v-102h17c14 0 26 -5 36 -15
s15 -22 15 -36z" />
    <glyph glyph-name="uniF025" unicode="&#xf025;" 
d="M450 750c72.667 0 143.668 -17.9971 213.001 -53.9971c108.667 -56.667 181.667 -135.334 219 -236.001c12 -33.333 18 -68 18 -104c0 -58 -12 -113 -36 -165l-13 -28l-81 -12c-8.66699 -32.667 -26.167 -59.667 -52.5 -81s-57.166 -32 -92.499 -32v-19
c0 -5.33301 -1.83301 -9.83301 -5.5 -13.5s-8.16699 -5.5 -13.5 -5.5h-38c-5.33301 0 -9.66602 1.83301 -12.999 5.5s-5 8.16699 -5 13.5v337c0 5.33301 1.66699 9.83301 5 13.5s7.66602 5.5 12.999 5.5h38c5.33301 0 9.83301 -1.83301 13.5 -5.5s5.5 -8.16699 5.5 -13.5
v-18c28 0 53.167 -7 75.5 -21s40.166 -32 53.499 -54l19 2c10 28.667 15 60.667 15 96s-10.333 70.166 -31 104.499s-47.334 64.166 -80.001 89.499s-69 45.5 -109 60.5s-79.333 22.5 -118 22.5s-78 -7.5 -118 -22.5s-76.167 -35.167 -108.5 -60.5
s-58.833 -55.166 -79.5 -89.499s-31 -68.833 -31 -103.5s4.66699 -67 14 -97l19 -2c13.333 22 31.166 40 53.499 54s47.5 21 75.5 21v18c0 5.33301 1.83301 9.83301 5.5 13.5s8.16699 5.5 13.5 5.5h38c5.33301 0 9.66602 -1.83301 12.999 -5.5s5 -8.16699 5 -13.5v-337
c0 -5.33301 -1.66699 -9.83301 -5 -13.5s-7.66602 -5.5 -12.999 -5.5h-38c-5.33301 0 -9.83301 1.83301 -13.5 5.5s-5.5 8.16699 -5.5 13.5v19c-35.333 0 -66.166 10.667 -92.499 32s-43.833 48.333 -52.5 81l-81 12l-13 28c-24 52 -36 109.833 -36 173.5
s21.833 125.667 65.5 186s100.5 108.666 170.5 144.999s141.333 54.5 214 54.5z" />
    <glyph glyph-name="uniF026" unicode="&#xf026;" horiz-adv-x="425" 
d="M0 286v178.002c-0 5.33301 1.83301 9.83301 5.5 13.5s8.16699 5.5 13.5 5.5h196l153 153c15.333 15.333 28.5 20.666 39.5 15.999s16.5 -17.667 16.5 -39v-476c0 -21.333 -5.5 -34.333 -16.5 -39s-24.167 0.666016 -39.5 15.999l-153 153h-196
c-5.33301 0 -9.83301 1.83301 -13.5 5.5s-5.5 8.16699 -5.5 13.5z" />
    <glyph glyph-name="uniF027" unicode="&#xf027;" horiz-adv-x="600" 
d="M0 286v178.002c-0 5.33301 1.83301 9.83301 5.5 13.5s8.16699 5.5 13.5 5.5h196l153 153c15.333 15.333 28.5 20.666 39.5 15.999s16.5 -17.667 16.5 -39v-476c0 -21.333 -5.5 -34.333 -16.5 -39s-24.167 0.666016 -39.5 15.999l-153 153h-196
c-5.33301 0 -9.83301 1.83301 -13.5 5.5s-5.5 8.16699 -5.5 13.5zM482 205.002c-2.66699 10 -1.33398 19.668 3.99902 29.001c26 44.667 39 91.5 39 140.5s-13 96.167 -39 141.5c-5.33301 9.33301 -6.66602 19 -3.99902 29s8.66699 17.667 18 23
s18.833 6.66602 28.5 3.99902s17.167 -8.66699 22.5 -18c32.667 -58 49 -117.667 49 -179s-16.333 -121 -49 -179c-7.33301 -12.667 -18.333 -19 -33 -19c-5.33301 0 -11.333 1.66699 -18 5c-9.33301 5.33301 -15.333 13 -18 23z" />
    <glyph glyph-name="uniF028" unicode="&#xf028;" 
d="M0 286v178.002c-0 5.33301 1.83301 9.83301 5.5 13.5s8.16699 5.5 13.5 5.5h196l153 153c15.333 15.333 28.5 20.666 39.5 15.999s16.5 -17.667 16.5 -39v-476c0 -21.333 -5.5 -34.333 -16.5 -39s-24.167 0.666016 -39.5 15.999l-153 153h-196
c-5.33301 0 -9.83301 1.83301 -13.5 5.5s-5.5 8.16699 -5.5 13.5zM482 205.002c-2.66699 10 -1.33398 19.668 3.99902 29.001c26 44.667 39 91.5 39 140.5s-13 96.167 -39 141.5c-5.33301 9.33301 -6.66602 19 -3.99902 29s8.66699 17.667 18 23
s18.833 6.66602 28.5 3.99902s17.167 -8.66699 22.5 -18c32.667 -58 49 -117.667 49 -179s-16.333 -121 -49 -179c-7.33301 -12.667 -18.333 -19 -33 -19c-5.33301 0 -11.333 1.66699 -18 5c-9.33301 5.33301 -15.333 13 -18 23zM603 117.003c-2 10 -0.333008 19.667 5 29
c44.667 70 67 146.333 67 229s-22.333 159 -67 229c-5.33301 9.33301 -7 19 -5 29s7.66699 17.667 17 23s19 7 29 5s17.667 -7.66699 23 -17c52 -83.333 78 -173 78 -269s-26 -185.667 -78 -269c-6.66699 -12 -15.5 -18 -26.5 -18s-20.333 2.33301 -28 7s-12.5 12 -14.5 22z
M723.5 30.0029c-1.66699 10 0.166992 19.333 5.5 28c64 96 96 201.667 96 317s-32 221 -96 317c-5.33301 8.66699 -7.16602 18 -5.49902 28s7 17.833 16 23.5s18.5 7.5 28.5 5.5s18 -7.33301 24 -16c72 -108 108 -227.333 108 -358s-36 -250 -108 -358
c-8 -11.333 -17.167 -17 -27.5 -17s-19.333 2.5 -27 7.5s-12.334 12.5 -14.001 22.5z" />
    <glyph glyph-name="uniF029" unicode="&#xf029;" 
d="M75 113c0 15.333 3.00195 30 9.00195 44c5.33301 13.333 13 25 23 35c10 10.667 22 19 36 25s28.833 9 44.5 9s30.167 -3 43.5 -9s25.166 -14.167 35.499 -24.5s18.5 -22.333 24.5 -36s9 -28.167 9 -43.5s-3 -30 -9 -44s-14 -26 -24 -36c-10.667 -10 -22.667 -18 -36 -24
s-27.833 -9 -43.5 -9s-30.334 3 -44.001 9s-25.5 14 -35.5 24s-18 21.833 -24 35.5s-9 28.5 -9 44.5zM75.002 392l-0.00292969 75.999c0 11.333 4 20.333 12 27c7.33301 7.33301 15.666 11 24.999 11c0.666992 0 1.16699 -0.166992 1.5 -0.5s0.833008 -0.5 1.5 -0.5
c62 -4 119.667 -19 173 -45c54.667 -26 103 -60 145 -102s75.833 -90.167 101.5 -144.5s40.834 -112.166 45.501 -173.499c1.33301 -11.333 -2 -20.666 -10 -27.999c-7.33301 -8 -16.666 -12 -27.999 -12h-75c-9.33301 0 -17.666 3.16699 -24.999 9.5
s-11.666 14.5 -12.999 24.5c-3.33301 42.667 -14.333 82.667 -33 120c-17.333 37.333 -40.333 70 -69 98c-28.667 28.667 -61.667 52 -99 70s-77 29 -119 33c-10 1.33301 -18.333 5.66602 -25 12.999c-6 6.66699 -9 14.667 -9 24zM74.999 637.999l0.00585938 74.998
c0 10.667 4 19.667 12 27c7.33301 6.66699 15.666 10 24.999 10h2c96 -4.66699 186.167 -26.334 270.5 -65.001s158.166 -89.667 221.499 -153c63.333 -64 114.333 -138 153 -222s60.667 -174.333 66 -271c1.33301 -10 -2.33398 -19 -11.001 -27
c-7.33301 -8 -16 -12 -26 -12h-76c-10 0 -18.5 3.5 -25.5 10.5s-10.833 15.167 -11.5 24.5c-4.66699 76.667 -22.334 148 -53.001 214c-30.667 66.667 -71.334 125.334 -122.001 176.001s-109.334 91.334 -176.001 122.001s-138 48.334 -214 53.001
c-10 0.666992 -18.333 4.66699 -25 12s-10 16 -10 26z" />
    <glyph glyph-name="uniF02A" unicode="&#xf02a;" 
d="M701 750c34.667 0 64.167 -12.167 88.5 -36.5s36.5 -53.833 36.5 -88.5v-500c0 -34.667 -12.167 -64.167 -36.5 -88.5s-53.833 -36.5 -88.5 -36.5h-500c-34.667 0 -64.167 12.167 -88.5 36.5s-36.5 53.833 -36.5 88.5v500c0 34.667 12.167 64.167 36.5 88.5
s53.833 36.5 88.5 36.5h500zM732 563h-457v-105h457v105zM255 319h-85v-101h85v101zM170 338h85v102h-85v-102zM275 319v-101h457v101h-457zM275 338h457v102h-457v-102zM255 563h-85v-105h85v105zM170 125c0 -8.66699 3 -16 9 -22s13.333 -9 22 -9h54v104h-85v-73zM701 94
c8.66699 0 16 3 22 9s9 13.333 9 22v73h-457v-104h426z" />
    </font>
</defs>
</svg>
