<?xml version="1.0" standalone="no"?>
<!DOCTYPE svg PUBLIC "-//W3C//DTD SVG 1.1//EN" "http://www.w3.org/Graphics/SVG/1.1/DTD/svg11.dtd" >
<svg xmlns="http://www.w3.org/2000/svg">
<metadata></metadata>
<defs>
<font id="FontconsRegularRegular" horiz-adv-x="900" >
<font-face units-per-em="1000" ascent="750" descent="-250" />
<missing-glyph horiz-adv-x="500" />
<glyph unicode="&#xd;" horiz-adv-x="250" />
<glyph unicode="&#x2010;" horiz-adv-x="750" d="M0 340v70q0 19 13.5 32.5t32.5 13.5h658q19 0 32.5 -13.5t13.5 -32.5v-70q0 -19 -13.5 -32.5t-32.5 -13.5h-657q-20 0 -33.5 13t-13.5 33z" />
<glyph unicode="&#x2039;" horiz-adv-x="471" d="M0 373.5q0 18.5 14 32.5l328 329q14 14 33 14t33 -14l49 -49q14 -14 14 -33t-14 -33l-248 -249l248 -244q14 -14 14 -32.5t-14 -32.5l-49 -50q-14 -14 -33 -14t-33 14l-328 329q-14 14 -14 32.5z" />
<glyph unicode="&#x203a;" horiz-adv-x="471" d="M0 95q0 19 14 33l248 248l-248 245q-14 14 -14 32.5t14 32.5l49 50q14 14 33 14t33 -14l328 -329q14 -14 14 -33t-14 -33l-328 -328q-14 -14 -33 -14t-33 14l-49 49q-14 14 -14 33z" />
<glyph unicode="&#x2190;" horiz-adv-x="750" d="M0 375q0 19 14 33l328 329q14 14 33 14t33 -14l49 -49q14 -14 14 -33t-14 -33l-165 -165h411q20 0 33.5 -13.5t13.5 -33.5v-70q0 -19 -13.5 -32.5t-32.5 -13.5h-412l165 -165q14 -14 14 -33t-14 -33l-49 -49q-14 -14 -33 -14t-33 14l-328 328q-14 14 -14 33z" />
<glyph unicode="&#x2191;" horiz-adv-x="750" d="M-0.5 375q-0.5 19 13.5 33l329 328q14 14 33 14t33 -14l328 -328q14 -14 14 -33t-14 -33l-49 -49q-14 -14 -32.5 -14t-32.5 14l-166 165v-412q0 -19 -13.5 -32.5t-32.5 -13.5h-70q-20 0 -33 13.5t-13 32.5v412l-165 -165q-14 -14 -33 -14t-33 14l-49 49q-14 14 -14.5 33z " />
<glyph unicode="&#x2192;" horiz-adv-x="750" d="M0 341v70q0 19 13.5 32.5t32.5 13.5h412l-165 165q-14 14 -14 33t14 33l49 49q14 14 33 14t33 -14l328 -329q14 -14 14 -32.5t-14 -32.5l-328 -329q-14 -14 -33 -14t-33 14l-49 49q-14 14 -14 33t14 33l165 165h-412q-19 0 -32.5 13.5t-13.5 33.5z" />
<glyph unicode="&#x2193;" horiz-adv-x="750" d="M0 374q0 19 14 33l49 49q14 14 33 14t33 -14l165 -165v412q0 19 13.5 32.5t32.5 13.5h70q20 0 33 -13.5t13 -32.5v-412l166 165q14 14 32.5 14t32.5 -14l50 -49q14 -14 14 -33t-14 -33l-329 -328q-14 -14 -33 -14t-33 14l-328 328q-14 14 -14 33z" />
<glyph unicode="&#x2194;" horiz-adv-x="750" d="M0 357q0 15 10 25l151 151q15 15 26 10.5t11 -26.5v-96h354v96q0 22 10.5 26.5t26.5 -11.5l151 -150q10 -10 10 -25t-10 -25l-151 -151q-15 -16 -26 -11t-11 27v96h-354v-96q0 -22 -10.5 -26.5t-26.5 11.5l-151 150q-10 10 -10 25z" />
<glyph unicode="&#x2195;" horiz-adv-x="375" d="M0.5 187q4.5 11 27.5 11h95v354h-95q-23 0 -27.5 10.5t11.5 26.5l150 151q10 10 25.5 10t25.5 -10l150 -151q16 -15 11.5 -26t-27.5 -11h-95v-354h95q23 0 27.5 -10.5t-11.5 -26.5l-150 -151q-10 -10 -25.5 -10t-25.5 10l-150 151q-16 15 -11.5 26z" />
<glyph unicode="&#x219e;" horiz-adv-x="750" d="M0 374.5q0 12.5 8 21.5l319 345q7 9 16 9t15 -3q17 -7 17 -28v-689q0 -20 -17.5 -28t-30.5 7l-319 344q-8 9 -8 21.5zM375 374.5q0 12.5 8 21.5l319 345q7 9 16 9t15 -3q17 -7 17 -28v-689q0 -20 -17.5 -28t-30.5 7l-319 344q-8 9 -8 21.5z" />
<glyph unicode="&#x21a0;" horiz-adv-x="750" d="M0 30v690q0 19 17 28q19 7 31 -7l319 -344q8 -9 8 -22t-8 -22l-319 -344q-8 -9 -15.5 -9t-15.5 2q-17 8 -17 28zM375 30v690q0 19 17 28q19 7 31 -7l319 -344q8 -9 8 -22t-8 -22l-319 -344q-8 -9 -15.5 -9t-15.5 2q-17 8 -17 28z" />
<glyph unicode="&#x21bb;" horiz-adv-x="747" d="M535 582q-75 56 -160 56q-110 0 -185 -77q-77 -78 -77 -186q0 -109 76.5 -185.5t185.5 -76.5q99 0 173 65q75 65 87 162q1 6 7 12q7 5 14 4l75 -10q8 -1 12.5 -7t3.5 -14q-9 -69 -42 -128.5t-83 -102.5q-107 -94 -247 -94q-78 0 -146 29.5t-119 80.5t-80.5 119t-29.5 146 t29.5 146t80.5 119t119 80.5t146 29.5q133 0 240 -88l76 76q16 16 27 11.5t11 -27.5v-217q0 -15 -10.5 -25.5t-25.5 -10.5l-217 -1q-23 0 -27.5 11.5t11.5 27.5z" />
<glyph unicode="&#x21e4;" horiz-adv-x="525" d="M0 37q0 -15 11 -26t26 -11h75q16 0 27 11t11 26v675q0 16 -11 27t-27 11h-75q-15 0 -26 -11t-11 -27v-675zM150 375q0 13 8 21l319 345q7 9 15 9t16 -2q17 -9 17 -29v-689q0 -20 -17 -28q-19 -7 -31 7l-319 344q-8 9 -8 22z" />
<glyph unicode="&#x21e5;" horiz-adv-x="525" d="M0 30v690q0 19 17 28q19 7 31 -7l319 -344q8 -9 8 -22t-8 -22l-319 -344q-8 -9 -15.5 -9t-15.5 2q-17 8 -17 28zM375 37q0 -15 11 -26t26 -11h75q16 0 27 11t11 26v675q0 16 -11 27t-27 11h-75q-15 0 -26 -11t-11 -27v-675z" />
<glyph unicode="&#x2295;" horiz-adv-x="750" d="M0 375q0 78 29.5 146t80.5 119t119 80.5t146 29.5t146 -29.5t119 -80.5t80.5 -119t29.5 -146t-29.5 -146t-80.5 -119t-119 -80.5t-146 -29.5t-146 29.5t-119 80.5t-80.5 119t-29.5 146zM159 338q0 -7 4.5 -11.5t10.5 -4.5h147v-161q0 -7 4.5 -11.5t10.5 -4.5h78 q6 0 10.5 4.5t4.5 11.5v161h147q6 0 10.5 4.5t4.5 11.5v74q0 6 -4.5 10.5t-10.5 4.5h-147v162q0 7 -4.5 11.5t-10.5 4.5h-78q-6 0 -10.5 -4.5t-4.5 -11.5v-162h-147q-6 0 -10.5 -4.5t-4.5 -10.5v-74z" />
<glyph unicode="&#x2296;" horiz-adv-x="750" d="M0 375q0 78 29.5 146t80.5 119t119 80.5t146 29.5t146 -29.5t119 -80.5t80.5 -119t29.5 -146t-29.5 -146t-80.5 -119t-119 -80.5t-146 -29.5t-146 29.5t-119 80.5t-80.5 119t-29.5 146zM159 338q0 -7 4.5 -11.5t10.5 -4.5h402q6 0 10.5 4.5t4.5 11.5v74q0 6 -4.5 10.5 t-10.5 4.5h-402q-6 0 -10.5 -4.5t-4.5 -10.5v-74z" />
<glyph unicode="&#x2297;" horiz-adv-x="750" d="M0 375q0 78 29.5 146t80.5 119t119 80.5t146 29.5t146 -29.5t119 -80.5t80.5 -119t29.5 -146t-29.5 -146t-80.5 -119t-119 -80.5t-146 -29.5t-146 29.5t-119 80.5t-80.5 119t-29.5 146zM113 375q0 -54 20.5 -102t56 -83.5t83.5 -56t102 -20.5t102 20.5t84 56t56.5 83.5 t20.5 102t-20.5 102t-56.5 84t-84 56.5t-102 20.5t-102 -20.5t-83.5 -56.5t-56 -84t-20.5 -102zM212 466q0 8 5 14l53 53q6 5 14 5t13 -5l78 -78l78 78q6 5 14 5t13 -5l53 -53q5 -6 5 -14t-5 -13l-78 -78l78 -78q12 -14 0 -27l-53 -53q-14 -12 -27 0l-78 78l-78 -78 q-5 -5 -13 -5t-14 5l-53 53q-12 13 0 27l79 78l-79 78q-5 5 -5 13z" />
<glyph unicode="&#x2298;" horiz-adv-x="750" d="M0 375q0 78 29.5 146t80.5 119t119 80.5t146 29.5t146 -29.5t119 -80.5t80.5 -119t29.5 -146t-29.5 -146t-80.5 -119t-119 -80.5t-146 -29.5t-146 29.5t-119 80.5t-80.5 119t-29.5 146zM516 596q-65 42 -130 42t-113 -20.5t-83 -56.5q-77 -78 -77 -186q0 -77 41 -141z M234 154q64 -41 141 -41q108 0 186 77q77 75 77 185q0 76 -42 141z" />
<glyph unicode="&#x22ef;" d="M28 444.5q29 28.5 69.5 28.5t69.5 -29t29 -69.5t-28.5 -69.5t-69.5 -29t-70 29t-29 70t29 69.5zM449 473q41 0 70 -28.5t29 -69.5t-29 -70t-70 -29t-69.5 29t-28.5 69.5t28.5 69.5t69.5 29zM801 473q41 0 70 -28.5t29 -69.5t-29 -70t-70 -29t-70.5 29t-29.5 69.5 t29.5 69.5t70.5 29z" />
<glyph unicode="&#x2302;" d="M2 362q-9 25 12 42l412 338q11 8 24 8t24 -8l126 -104v58q0 19 19 19h112q19 0 19 -19v-180l136 -112q21 -17 12 -42q-10 -24 -36 -24h-75v-300q0 -16 -10.5 -27t-26.5 -11h-206v225h-188v-225h-206q-16 0 -27 11t-11 27v300h-75q-25 0 -35 24z" />
<glyph unicode="&#x2303;" horiz-adv-x="750" d="M-0.5 173.5q-0.5 18.5 13.5 32.5l329 329q14 14 33 14t33 -14l328 -329q14 -14 14 -32.5t-14 -32.5l-49 -50q-14 -14 -33 -14t-33 14l-248 249l-244 -249q-14 -14 -33 -14t-33 14l-49 50q-14 14 -14.5 32.5z" />
<glyph unicode="&#x2304;" horiz-adv-x="750" d="M0 448.5q0 18.5 14 32.5l49 50q14 14 33 14t33 -14l248 -249l244 249q14 14 33 14t33 -14l49 -50q14 -14 14.5 -32.5t-13.5 -32.5l-329 -329q-14 -14 -33 -14t-33 14l-328 329q-14 14 -14 32.5z" />
<glyph unicode="&#x231b;" d="M618 375q68 -55 107 -147t39 -197v-31h-626v31q0 105 39.5 197t107.5 147q-68 55 -107.5 147t-39.5 197v31h627v-31q0 -105 -39.5 -197t-107.5 -147zM502 375l46 26q65 38 106.5 115t47.5 172h-502q7 -95 48 -172t106 -115l46 -26l-46 -27q-65 -37 -106 -114.5 t-48 -172.5h502q-6 95 -47.5 172.5t-106.5 114.5zM490 290h1l2 -1v-1q35 -17 67 -61.5t46.5 -76.5t14.5 -35h-340q34 86 85 139q22 23 44 34v1l2 1h1q14 9 22 42.5t3 69.5t-23 49q-26 15 -49.5 48t-34.5 58l-11 26h262q-2 -8 -14 -32t-22 -40q-27 -43 -59 -60 q-18 -13 -22.5 -49t3.5 -69.5t22 -42.5z" />
<glyph unicode="&#x237e;" d="M367 83l1 10h-210q-14 0 -25 11t-11 25l92 89q-1 7 -1 22v182q0 76 44 137t114 86q-4 10 -4 23q0 34 24 58t58 24t58 -24t24 -58q0 -13 -2 -23q69 -25 113.5 -86.5t44.5 -136.5v-182q0 -15 -1 -22l91 -89q0 -14 -10.5 -25t-25.5 -11h-211q1 -3 1 -10q0 -34 -24 -58 t-58 -24t-58 24t-24 58zM417 700q-13 -13 -13 -25t2 -20q24 4 43.5 4t43.5 -4q2 6 2 19t-13.5 26t-32.5 13t-32 -13z" />
<glyph unicode="&#x2399;" d="M678 -1h-454v157h-174v411h174v182h323l131 -131v-51h174v-411h-174v-157zM796 262h-101v-51h101v51zM626 51v105h-350v-105h350zM276 697v-310h-52v125h-62v-190h580v190h-64v-125h-52v179h-132v131h-218z" />
<glyph unicode="&#x23f0;" d="M450 515q-81 0 -138.5 -57.5t-57.5 -139t57.5 -139t138.5 -57.5t139 57.5t58 139t-58 139t-139 57.5zM658.5 526.5q86.5 -86.5 86.5 -208.5t-86.5 -208t-208.5 -86t-208 86t-86 208t86 208.5t208 86.5t208.5 -86.5zM446.5 293q-10.5 0 -17.5 7t-7 17v50q0 10 7 17t17.5 7 t17.5 -7t7 -17v-50q0 -10 -7 -17t-17.5 -7zM551 256q1 -10 -6 -18.5t-17 -8.5t-17 5l-80 64q-8 7 -9 17t5.5 18t16.5 9t18 -5l80 -64q8 -7 9 -17zM571 712q49 32 109 26.5t102.5 -48.5t48.5 -103t-27 -108zM114 479q-33 48 -27 108t48.5 103t102.5 48.5t109 -26.5zM732 6 q-7 -7 -17 -7t-17 7l-70 70q-7 7 -7 17t7 17.5t17.5 7.5t17.5 -8l69 -69q7 -7 7 -17.5t-7 -17.5zM186 41l69 69q8 8 18 8t17 -7.5t7 -17.5t-7 -17l-69 -70q-7 -7 -17.5 -7t-17.5 7t-7 17.5t7 17.5z" />
<glyph unicode="&#x2588;" horiz-adv-x="750" d="M0 34v682q0 14 10 24t24 10h682q14 0 24 -10t10 -24v-682q0 -14 -10 -24t-24 -10h-682q-14 0 -24 10t-10 24z" />
<glyph unicode="&#x25b6;" horiz-adv-x="659" d="M0 34v682q0 19 17.5 29.5t33.5 -0.5l591 -340q17 -12 17 -30t-17 -30l-591 -340q-8 -5 -17 -5t-17 5q-17 10 -17 29z" />
<glyph unicode="&#x25d1;" horiz-adv-x="750" d="M0 375q0 78 29.5 146t80.5 119t119 80.5t146 29.5t146 -29.5t119 -80.5t80.5 -119t29.5 -146t-29.5 -146t-80.5 -119t-119 -80.5t-146 -29.5t-146 29.5t-119 80.5t-80.5 119t-29.5 146zM113 375q0 -54 20.5 -102t56.5 -83q76 -77 185 -77v525q-110 0 -185 -77 q-77 -78 -77 -186z" />
<glyph unicode="&#x25f7;" d="M450 665v-332h334q0 -138 -97.5 -235.5t-235 -97.5t-235 97.5t-97.5 235t97 234.5t234 98zM535 749q137 0 235 -98t98 -235h-334v333h1z" />
<glyph unicode="&#x2601;" d="M723 61l-10 1h-535q-74 1 -126.5 54t-52.5 128q0 49 24 90.5t65 64.5q-6 18 -6 38q0 51 36.5 87.5t82.5 36.5t81 -27q34 69 98.5 111t143.5 42q111 0 189.5 -78t78.5 -190q0 -11 -1 -16q50 -20 80 -64.5t30 -99.5q0 -73 -52.5 -125.5t-125.5 -52.5z" />
<glyph unicode="&#x2605;" horiz-adv-x="787" d="M0.5 465q4.5 13 25.5 16l238 35l106 215q10 20 23.5 20t22.5 -20l107 -215l237 -35q22 -3 26 -16t-11 -28l-172 -168l40 -236q4 -22 -7 -30t-30 3l-213 111l-212 -111q-20 -11 -31 -3t-7 30l41 236l-172 168q-16 15 -11.5 28z" />
<glyph unicode="&#x2606;" horiz-adv-x="787" d="M0.5 465q4.5 13 25.5 16l238 34l106 216q9 19 23 19t23 -19l107 -216l237 -34q22 -3 26 -16t-11 -28l-172 -168l40 -236q6 -33 -18 -33q-7 0 -19 5l-213 112l-212 -112q-12 -5 -21 -5t-14 8.5t-3 24.5l41 236l-172 168q-16 15 -11.5 28zM136 421l100 -98l29 -27l-31 -178 l159 84l159 -84l-23 139l-7 39l129 125l-139 20l-39 6l-80 161l-79 -161z" />
<glyph unicode="&#x260e;" d="M284 727q6 -4 8 -5q17 -10 34 -83.5t16 -89.5t-16 -33t-59 -55q12 -36 39.5 -80.5t56.5 -77t73.5 -70t79.5 -53.5q39 34 56 47q25 19 40 16q17 -1 88 -26.5t78 -43.5q33 -65 7 -97q-47 -58 -97 -75h-1q-9 0 -24.5 -1.5t-42.5 3.5t-57 11.5t-67.5 22t-73.5 35.5 q-82 47 -154 126q-49 56 -84 121t-50.5 119t-22.5 102q-13 88 0 116q23 45 85 84q9 6 19 8v0q28 5 69 -21z" />
<glyph unicode="&#x2611;" d="M0 150v450q0 62 44 106t106 44h525q13 0 25 -3l-91 -91h-459q-23 0 -39.5 -16.5t-16.5 -39.5v-450q0 -23 16.5 -39.5t39.5 -16.5h525q23 0 39.5 16.5t16.5 39.5v159l94 94v-253q0 -61 -44.5 -105.5t-105.5 -44.5h-525q-63 0 -106 44q-44 46 -44 106zM188 472q0 16 11 27 l48 48q11 11 27 11t27 -11l166 -166l319 320q11 11 27.5 11t27.5 -11l48 -48q11 -11 11 -27t-11 -27l-395 -395q-11 -11 -27 -11t-27 11l-49 48l-192 193q-11 11 -11 27z" />
<glyph unicode="&#x2641;" d="M450 749q110 0 204 -61t139 -161.5t26.5 -212t-93.5 -192.5t-182.5 -109.5t-212.5 6t-175 123t-79 197.5q-7 80 19.5 155.5t76.5 131.5t123 89.5t154 33.5zM697 484q-1 -3 1 -16t4 -15.5t7 -5.5t7 -1.5t1.5 4t-2.5 6.5t-2 5h6q0 5 -1.5 6t-3.5 0.5t-3.5 -0.5t-5.5 14 q3 0 9 2q-6 6 -9 3.5t-8 -2.5zM213 423l-3 7q0 5 -5.5 7t-11.5 10t-6.5 12.5t-0.5 15.5q0 21 -9 28q-50 -104 -17 -213.5t130.5 -171.5t214.5 -39t186 116q-6 -2 -8 8t0 20q-2 11 7 9q-4 1 -2 5q10 -7 8 1q-1 4 1 5.5t1 -1.5q4 3 5 9l2 -17q0 -7 -5 -7t-5 -28q56 80 56 175 q0 3 0.5 7t0 6.5t-1.5 5.5q0 5 -4.5 6t-16.5 5.5t-18 2.5q0 7 -5 11t-6 1.5t0 -5.5q5 -11 5 -15q5 1 5 6l2 -11q9 0 12 9l5 -11q3 1 2 3q8 -4 0 -15t-16.5 -16.5t-13 -7.5t-11 -2t-9.5 4t-8 16q-12 27 -18.5 35.5t-7.5 13.5q12 0 12 25q-1 0 -8 -2q-16 -3 -20 3l-8 15 q-4 4 -5.5 -1.5t-1.5 -15.5q1 0 -6 11q-22 32 -28 24q2 -4 9.5 -12.5t10.5 -8.5q-3 0 -5 1q-1 -4 -1.5 -6.5t-2.5 -3.5q0 9 -9 16.5t-17 7.5q-2 -4 -12 -1q-2 0 -4.5 -8t-3.5 -8l-6 -10q0 -2 -6.5 -2t-6.5 -1q-12 3 -10 15.5t2 13.5q2 -1 8.5 0t7.5 0q6 -8 6 2q5 7 -8 19 q11 -7 9 2q4 -3 6 0t2 8q3 -4 5 0l1 4q0 -2 7 2t8 5q-5 2 -3.5 6t4.5 6q4 2 4.5 1t0 -3.5t1.5 -3.5q3 2 3 4l-4 10q-19 0 -21.5 4.5t5.5 7.5q14 7 18 13q9 16 20 16l52 4q23 0 23 -12q-4 0 -11.5 -1t-11.5 -1q8 -9 7 -12l12 1l9 12q-54 64 -133 90.5t-161 9.5t-142 -74 q0 -1 6 2q0 -8 5 -10t6 -5l-3 -1q0 -4 -8 -1q-13 4 -7 -1.5t14.5 -6.5t12.5 2q-1 4 -4 6q0 -8 19 11q5 -3 12.5 -10t7.5 -10q7 0 6 6l-1 6h9t5 -6t-4.5 -8.5t-3.5 -4.5t6 -4t5 -3q-2 1 -10 0t-10 0q6 3 6 10q-4 1 -19 -10q-21 -7 -7 -20q6 -6 18.5 -11t14 -3.5t5.5 -4.5 q0 -1 2 -11q7 -3 7 7q-3 4 -2.5 5t4 2t4.5 1.5t0.5 7.5t-3.5 7t-2 6t0 8l13 -2q3 0 4 3q5 0 11 -7t6 -10q12 0 12 8q1 0 9 -11.5t8 -13.5q1 2 4 3q14 -5 -4 -14q-2 -1 -4 -2.5t-11.5 -1.5t-16.5 -2.5t-7 -13.5q3 0 11.5 5t9.5 6q1 -1 1 -2q-7 0 -2 -6.5t8 -6.5q0 -5 -14 -5 q2 1 2.5 2.5t1.5 2.5q-11 0 -29 -23q-10 -20 -15.5 -25t-5 -12.5t1 -13t-2.5 -6.5q-8 14 -13 17t-14 3q1 -2 2 -5q-4 -1 -10 0q-14 4 -17 -7q-3 -4 0 -15.5t3 -14.5q2 0 6.5 -5.5t6.5 -5.5q4 0 4 5q-4 1 8 8l7 3q0 -2 -4.5 -9t-2.5 -11.5t6 -5t6 3.5q1 0 3 -9.5t2 -12.5 q3 -1 3.5 -4t1.5 -3l13 2q3 0 1 -5q1 0 8.5 7t12.5 9.5t8 -2t18 -7.5t15 -11q2 -1 10 -3.5t11 -6.5l6 -22q22 0 18 -12l17 1q7 0 11 -10q2 -9 1.5 -12t-5 -8t-5.5 -9q0 -16 -6.5 -30.5t-21.5 -14.5q-2 -3 -3.5 -11t-3.5 -10l-2 -3q-4 -1 -8 -4q-3 -5 -4.5 -9t-3.5 -5 t-4.5 -2.5t-1.5 -5t0 -5.5q-12 0 -25 -13q1 0 -1 -6l-5 -13q-2 -8 -2 -10q0 1 1 2t2 -1l-8 -13q0 -1 1 -8l-22 7q-2 1 -1.5 17.5t3.5 16.5q0 7 5 35t5.5 29.5t1.5 10.5q4 19 -2 27q-15 16 -17 23.5t-7 13.5q-11 13 -7.5 18t3.5 13.5t7 12.5q1 1 1 8t-0.5 10.5t-3 4.5 t-6.5 -1q-10 -3 -15.5 8.5t-8 13.5t-9 4.5t-10 6t-14 5.5t-18 5.5t-7.5 14t-14.5 23.5t-14.5 14q-1 -1 5 -9q15 -20 11.5 -21t-6 1t-5 6t-4 8t-3.5 8t-2 5zM633 468q12 -6 18 -4.5t6 3.5q2 -3 9 -4t12 2q-7 16 -19 16q-11 -5 -13 6q-5 4 -9 -4t-4 -15zM501 564q0 -12 -28 -5 q0 1 1.5 3t-1.5 2q3 2 7 3q0 -6 10 -5zM531 523q0 4 1.5 6.5t2.5 5.5v-6q3 1 6 3q-1 -6 3.5 -11.5t3.5 -10.5q3 5 5 0q0 -10 -14 -4q-12 4 -6 8q2 1 5 1q-1 7 -7 8zM517 508l-1 6v2q1 2 7 3q-4 0 -2 4q2 0 7 -1q3 -3 -2 -8.5t-9 -5.5zM534 504q-1 -3 -2 -2q-2 2 2 2z M389 484l3 3q0 -3 -3 -3zM573 473q1 -3 -1 -6q-5 5 1 6zM573 465q2 0 0.5 -3.5t-4.5 -3.5q-1 4 2 7h2zM592 452l-1 -4q-4 2 -9 3q7 0 10 1zM517 430q11 11 25 11q6 8 18 6.5t15 1.5q4 -2 7 -9t3 -11q2 -2 11 -3t11.5 -0.5t6.5 2.5q7 6 7 -3q21 -1 21 -4q6 0 15 -20.5 t13 -23.5q-2 -4 7 -19.5t11 -16.5q13 0 20 3q0 -15 -8.5 -24t-14 -16.5t-15.5 -19.5l3 -32q0 -6 -2 -15q-2 -3 -7.5 -11t-7.5 -21t-3 -16q-10 -6 -13.5 -13t-5 -9t-10.5 -3.5t-9 -3.5l-9 -1q-2 0 -4 1q0 7 -6.5 21.5t-11.5 35t-3 37t0 25.5q-4 0 -6.5 7.5t-2.5 11.5 q7 8 3 13.5t-13 5.5q-2 4 -11 4t-17.5 -1.5t-15.5 1.5t-15.5 13.5t-8.5 19.5q-4 6 -1.5 23t6 22t8.5 11q10 10 10 20zM318 391q0 -3 2 0q1 -8 -2 0zM332 391q12 -2 15 -8h-7q-12 4 -14 7q3 -1 6 1zM367 374q-10 -1 -14 -1t-5 1h6l-2 4q9 0 10 1q4 -3 5 -5zM334 374q4 0 4 -2 q-4 0 -4 2zM339 372zM375 374h2q-3 1 -2 0zM372 374zM358 350zM699 246q0 2 2 3z" />
<glyph unicode="&#x2661;" horiz-adv-x="846" d="M423 650q100 100 194 100q96 0 157 -52q72 -61 72 -179q0 -72 -52 -153q-22 -33 -56 -67l-288 -288q-13 -11 -27.5 -11t-25.5 11l-290 288q-57 57 -91 137q-16 39 -16 93t20.5 98t53.5 71q60 52 154.5 52t194.5 -100zM89 598q-14 -31 -14 -71t13 -69q24 -54 58 -91 l277 -277l263 262q46 46 72 106q13 29 13 69t-14 70.5t-37 48.5q-37 29 -103 29q-63 0 -139 -75q-17 -18 -27 -30.5t-28 -12.5t-28 12.5t-27.5 30t-39.5 34.5q-55 41 -99 41q-104 0 -140 -77z" />
<glyph unicode="&#x2665;" horiz-adv-x="846" d="M423 650q100 100 194 100q96 0 157 -52q72 -61 72 -179q0 -72 -52 -153q-22 -33 -56 -67l-289 -288q-11 -11 -26 -11t-26 11l-290 288q-57 57 -91 137q-16 39 -16 93t20 98t52 71q61 52 156 52t195 -100z" />
<glyph unicode="&#x266b;" horiz-adv-x="688" d="M137 225q25 0 51 -7v388l500 144v-525q0 -46 -41 -79.5t-100 -33.5q-58 0 -99 33.5t-41 79.5q0 47 41 79q42 33 99 33q24 0 47 -6v248l-312 -90v-377q0 -47 -41 -79q-42 -33 -100 -33t-100 33q-41 32 -41 79q0 48 41 80q42 33 96 33z" />
<glyph unicode="&#x267b;" d="M1 502.5q-6 14.5 13 34.5l181 199q12 14 30 14t30 -14l181 -199q19 -20 13 -34.5t-32 -14.5h-117v-319h81q4 -5 6.5 -9.5t7.5 -9.5l119 -131h-327q-15 0 -26 11t-11 26v432h-117q-26 0 -32 14.5zM386 731h326q16 0 27 -11t11 -26v-431h117q26 0 32 -15t-13 -35l-181 -199 q-12 -14 -30 -14t-30 14l-181 199q-19 20 -13 35t32 15h117v318h-81q-4 5 -6.5 9.5t-7.5 9.5z" />
<glyph unicode="&#x2691;" d="M38 611q-38 25 -38 60t22 57t53 22t53 -22t22 -57.5t-37 -59.5v-592q0 -8 -5.5 -13.5t-13.5 -5.5h-38q-8 0 -13 5.5t-5 13.5v592zM150 203v364q0 16 9.5 32t23.5 24q131 70 223 73q81 0 162 -41q23 -12 51 -25.5t65 -15.5q92 -5 184 50q14 8 23 3t9 -21v-365 q0 -15 -9 -31.5t-23 -24.5q-92 -55 -181 -50q-40 2 -68 15.5t-51.5 25.5t-48.5 21q-56 20 -98 19.5t-73 -8.5q-80 -19 -165 -65q-14 -8 -23.5 -2t-9.5 22z" />
<glyph unicode="&#x2692;" d="M514 211q2 9 2 15l88 87l124 -124l84 -62l9 -34l-93 -93l-33 9l-63 84zM747.5 130q-11.5 11 -28 11t-27.5 -11t-11 -27.5t11 -27.5t27.5 -11t28 11t11.5 27.5t-11.5 27.5zM463 454l-87 -88q-6 0 -15 -2l-63 63q-29 -14 -50 -14q-67 0 -120 54t-54 120q0 1 15 16 q57 -56 64 -60.5t36.5 -4.5t62 32t32.5 61.5t-5 38t-60 62.5q13 16 16 16h2q65 0 118.5 -53.5t53.5 -119.5q0 -25 -15 -52zM747 302l1 24q0 70 -33 110q-11 14 -25 22h-3q-9 0 -30 -20l-196 -194q3 -9 3 -20q0 -14 -16 -27l-180 -180q-4 -4 -9.5 -10t-21.5 -6q-37 0 -69 43 q-18 24 -18 40.5t6.5 23.5t9.5 10l181 181q4 3 9.5 9t17 6t20.5 -3l174 174l8 13q9 8 10 20q4 52 -58 65h-1q-15 0 -49 34q-24 20 -24 27t16 24l65 66q15 15 21.5 15t24.5 -18l6 -5q29 -30 33 -44q3 -18 21 -41q3 -4 16.5 -4t16.5 -3l107 -107q41 -41 41 -120 q0 -46 -14 -105l-14 -45z" />
<glyph unicode="&#x2693;" d="M156 160l-9 -1q-19 0 -32.5 13.5t-13.5 32.5t13.5 32t32 13t31.5 -13t13 -32v-7q8 -7 30.5 -19.5t34.5 -21.5q42 -27 129 -29l28 135q4 88 7 172h-122l-47 11q-12 -16 -28 -16t-27 10.5t-11 25.5t11 25.5t28 10.5t27 -16h170q2 64 3 86q-29 9 -46.5 32.5t-17.5 57.5 t26 60.5t63.5 26.5t63.5 -26.5t26 -60t-17.5 -57t-45.5 -32.5q0 -7 2 -37l2 -50h169q9 16 26.5 16t28.5 -10.5t11 -25.5t-11 -25.5t-28 -10.5t-26 16l-48 -11h-121l6 -172l29 -138q10 -1 19 -1q57 0 95 23.5t80 52.5q-1 1 -1 5q0 19 13 32t32 13t32 -13t13 -32t-13 -32.5 t-32 -13.5l-10 1q-109 -92 -212 -121q-63 -39 -78 -39t-87 40q-68 20 -140 67q-36 25 -71 53zM402 658.5q0 -19.5 13.5 -33.5t34 -14t34 14t13.5 33.5t-14 33.5t-34 14t-33.5 -14t-13.5 -33.5z" />
<glyph unicode="&#x2699;" horiz-adv-x="748" d="M0 320v111q0 7 7 9q31 8 57 11q33 3 40 4q11 32 23 55q-34 48 -57 74q-5 5 0 12q38 46 84 84q5 5 12 0q19 -19 36 -30.5t24 -17t14 -10.5q26 14 55 23q7 67 14 97q2 8 9 8h111q9 0 11 -13.5t4.5 -32.5t5.5 -39l3 -20q40 -14 54 -23q15 11 26.5 20t24.5 18t22 17.5t15 1.5 l11 -11q5 -5 16 -14q28 -26 54 -58q4 -6 0 -12q-14 -16 -56 -73q15 -29 24 -58q12 -3 24.5 -4.5t24.5 -3.5t24.5 -3.5t23.5 -3.5q7 -2 7 -9v-111q0 -7 -7 -9q-24 -7 -53 -10q-39 -4 -44 -5q-11 -32 -23 -55q34 -48 57 -74q5 -5 0 -12q-38 -47 -84 -84q-5 -5 -12 0 q-19 19 -36 30.5t-24 17t-14 10.5q-26 -14 -55 -23q-5 -57 -15 -97q-2 -8 -9 -8h-111q-7 0 -9 8q-3 19 -5.5 38t-5.5 39l-3 20q-40 14 -54 23q-6 -5 -13 -9q-32 -23 -63 -49q-6 -6 -11.5 0t-11.5 11.5t-16 15.5q-31 29 -54 57q-5 6 0 12q15 18 29 37t27 36q-15 29 -24 58 q-12 3 -24.5 4.5t-24.5 3.5t-24.5 3.5t-23.5 3.5q-7 2 -7 9zM261 374q0 -23 9 -43.5t24.5 -35.5t36 -24t43.5 -9t43.5 9t35.5 24q33 33 33 80q0 46 -33 79t-79 33q-45 0 -80 -33q-33 -32 -33 -80z" />
<glyph unicode="&#x269b;" d="M451 1q-41 0 -76 50t-55 136.5t-20 188t20 187.5t55 136t76 50t75.5 -50t55 -136.5t20.5 -187.5t-20.5 -187.5t-55 -136.5t-75.5 -50zM451 726q-44 0 -75 -103t-31 -248t31 -248t75 -103t74.5 103t30.5 248t-30.5 248t-74.5 103zM768 178q-33 -53 -149 -33t-247.5 102 t-201 177t-36.5 148t149 33t247.5 -102t201 -177t36.5 -148zM153 560q-23 -37 48 -117.5t194.5 -157t227 -104.5t126.5 9t-48 117.5t-194.5 157t-227 104.5t-126.5 -9zM371.5 503q131.5 82 247.5 102t149 -33t-36.5 -148t-201 -177t-247.5 -102t-149 33t36.5 148t201 177z M395.5 464.5q-123.5 -76.5 -194.5 -157t-48 -117.5t126.5 -9t227 104.5t194.5 157t48 117.5t-126.5 9t-227 -104.5zM451 414q-16 0 -27.5 -11.5t-11.5 -27.5t11.5 -27.5t27.5 -11.5t27.5 11.5t11.5 27.5t-11.5 27.5t-27.5 11.5z" />
<glyph unicode="&#x26a0;" horiz-adv-x="930" d="M845 151q22 -37 22 -63t-11 -45q-26 -44 -98 -44h-624q-72 0 -97 44q-11 19 -11 44.5t22 63.5l311 535q36 63 88 63t88 -63zM404 545q-14 0 -14 -12l6 -286q2 -12 15 -12h76q14 0 14 12l7 286q1 5 -3 8.5t-11 3.5h-90zM393 108q0 -14 14 -14h85q5 0 9.5 4t4.5 10v82 q0 6 -4.5 10t-9.5 4h-85q-14 0 -14 -14v-82z" />
<glyph unicode="&#x26a1;" d="M232 316l355 434l-97 -316h176l-355 -434l97 316h-176z" />
<glyph unicode="&#x26d3;" d="M535 266q-56 -47 -134 -47t-136 59l-131 132q-59 56 -59 139.5t58.5 142t140.5 58.5t142 -58l98 -97h-178q-6 16 -24.5 25t-44 9t-48.5 -22.5t-23 -56t23 -55.5l131 -132q24 -23 51.5 -23t46.5 12zM766.5 58.5q-58.5 -58.5 -140.5 -58.5t-142 58l-98 97h178 q6 -16 24.5 -25t44 -9t48.5 22.5t23 56t-23 55.5l-131 132q-24 23 -51.5 23t-46.5 -12l-87 86q56 47 134 47t136 -59l131 -132q59 -56 59 -139.5t-58.5 -142z" />
<glyph unicode="&#x26df;" d="M900 667v-456h-71q-14 32 -43 50.5t-64.5 18.5t-64.5 -18.5t-44 -50.5h-237v456h524zM223 280q-35 0 -64.5 -18.5t-43.5 -50.5h-115v194l120 133h198v-306q-36 48 -95 48zM73 393v-62h174v142h-107zM167 217.5q23 22.5 55.5 22.5t56 -22.5t23.5 -55.5t-23.5 -56t-56 -23 t-55.5 23t-23 56t23 55.5zM665.5 217.5q23.5 22.5 56 22.5t55.5 -22.5t23 -55.5t-23 -56t-55.5 -23t-56 23t-23.5 56t23.5 55.5z" />
<glyph unicode="&#x2702;" d="M302 417q66 39 66 110q0 45 -37.5 90.5t-107.5 63.5q-31 9 -64.5 9t-64 -11.5t-54 -34.5t-30 -47.5t-6.5 -40.5q0 -46 35 -87q40 -49 109 -67q23 -6 69 -13t68 -13q-24 -6 -70 -13.5t-69 -13.5q-70 -18 -107.5 -63.5t-37.5 -91.5q0 -50 37 -87q22 -23 53.5 -34.5 t64.5 -11.5t65 9q70 19 110 68q35 41 35 87q0 16 -5 32q-13 49 -61 77q22 5 58 16l15 -4q125 -106 354 -147q28 -5 51 -6h8q18 0 33.5 4t26.5 8q16 5 39 33l15 19l-443 119l440 118q-23 40 -52 52t-60 12h-9q-65 -3 -159 -30q-149 -40 -246 -123l-13 -3q-44 13 -56 15z M107 144q-41 15 -41 45q0 18 18 39q44 51 126 55q29 0 56 -10q34 -13 34 -42q0 -18 -18 -40q-29 -35 -81 -49q-24 -7 -48 -7t-46 9zM68 563q0 29 41 44q22 8 47 8t48 -7q52 -13 80 -48q19 -22 19 -41q0 -27 -41 -43q-22 -8 -45.5 -8t-48.5 7q-52 14 -76 41.5t-24 46.5z" />
<glyph unicode="&#x2708;" d="M362 299q-82 0 -186 19l-85 -110q-12 -14 -31 -14h-45q-8 0 -12 5t-2 13l34 144q2 8 2 18t-2 18l-34 144q-2 8 2 13.5t12 5.5h45q18 0 31 -15l85 -110q93 19 186 19h12l-61 283q-2 8 2.5 13t12.5 5h64q19 0 28 -16l164 -285h157q59 0 109 -23q52 -25 50 -52 q2 -27 -50 -52q-50 -23 -109 -23h-158l-163 -283q-9 -16 -28 -16h-64q-8 0 -12.5 5t-2.5 13l61 281h-12z" />
<glyph unicode="&#x2709;" d="M897 107l-293 281l293 251q3 -8 3 -16v-499q0 -9 -3 -17zM450 328l-116 94l-295 253q10 2 15 2h792q5 0 15 -2l-295 -253zM846 70h-792q-6 0 -14 2l296 285l114 -94l115 94l295 -285q-8 -2 -14 -2zM3 639l293 -251l-293 -281q-3 8 -3 17v499q0 8 3 16z" />
<glyph unicode="&#x270b;" d="M252 413q-8 0 -8 117q0 48 -39 48q-20 0 -34 -15t-14 -37v-371q0 -64 45 -109t109 -45h134q43 0 89.5 24t67.5 56l103 160q15 24 25.5 60t10.5 50q0 27 -33 27q-27 0 -42 -24l-40 -60q-15 -22 -21 -22t-6 15v352q0 23 -14 38.5t-34 15.5q-39 0 -39 -48v-21 q0 -207 -17 -207l-11 37q-10 77 -10 248q0 48 -39 48q-20 0 -33.5 -14.5t-13.5 -35.5q0 -268 -15 -290h-1q-3 0 -8 42t-5 183q0 25 -10 41.5t-29.5 16.5t-33.5 -17t-14 -41q0 -161 -15 -213q-2 -9 -5 -9z" />
<glyph unicode="&#x270d;" d="M0 150v450q0 62 44 106t106 44h525q2 0 5 -0.5t5 -0.5l-93 -93h-442q-23 0 -39.5 -16.5t-16.5 -39.5v-450q0 -23 16.5 -39.5t39.5 -16.5h525q23 0 39.5 16.5t16.5 39.5v217l94 94v-311q0 -61 -44.5 -105.5t-105.5 -44.5h-525q-63 0 -106 44q-44 46 -44 106zM308 158 l53 161l318 318l108 -108l-318 -318zM423 307q3 -4 8 -4t8 4l250 249q9 9 0 17t-17 0l-249 -249q-9 -9 0 -17zM733 691l45 46q14 14 33 14t32 -14l44 -44q13 -14 13.5 -32.5t-13.5 -32.5l-46 -45z" />
<glyph unicode="&#x270e;" horiz-adv-x="750" d="M0 0l67 204l423 423l137 -137l-423 -423zM140 199q0 -6 4.5 -10.5t11 -4.5t10.5 4l337 337q10 10 2.5 18t-13.5 8t-10 -5l-337 -336q-5 -5 -5 -11zM538 675l58 58q17 17 41 17t41 -17l28 -27l27 -28q17 -17 17 -41t-17 -41l-58 -58z" />
<glyph unicode="&#x2714;" d="M0 312.5q0 16.5 11 27.5l85 85q11 11 27.5 11t27.5 -11l178 -178q11 -11 27.5 -11t27.5 11l364 364q11 11 27.5 11t27.5 -11l85 -85q11 -11 11 -27.5t-11 -27.5l-444 -444q-11 -11 -30.5 -19t-35.5 -8h-43q-17 0 -36.5 8t-30.5 19l-257 258q-11 11 -11 27.5z" />
<glyph unicode="&#x2716;" horiz-adv-x="750" d="M0 94q0 19 14 33l248 249l-248 244q-14 14 -14 33t14 33l49 49q14 14 33 14t33 -14l246 -246l246 246q14 14 33 14t33 -14l49 -49q14 -14 14 -33t-14 -33l-248 -249l248 -244q14 -14 14 -32.5t-14 -32.5l-49 -50q-14 -14 -33 -14t-33 14l-246 247l-247 -247 q-14 -14 -32.5 -14t-32.5 14l-49 49q-14 14 -14 33z" />
<glyph unicode="&#x271a;" horiz-adv-x="750" d="M0 340v70q0 19 13.5 32.5t32.5 13.5h248v247q0 20 13 33.5t33 13.5h70q19 0 32.5 -13.5t13.5 -32.5v-248h248q19 0 32.5 -13.5t13.5 -32.5v-70q0 -19 -13.5 -32.5t-32.5 -13.5h-248v-247q0 -20 -13.5 -33.5t-32.5 -13.5h-70q-19 0 -32.5 13.5t-13.5 32.5v248h-247 q-20 0 -33.5 13t-13.5 33z" />
<glyph unicode="&#x273d;" horiz-adv-x="697" d="M1 497q-5 18 5 35l35 61q10 17 28.5 21.5t35.5 -4.5l162 -94v187q0 20 13.5 33.5t33.5 13.5h69q20 0 33.5 -13.5t13.5 -32.5v-188l162 94q17 9 35.5 4.5t28.5 -21.5l34 -61q10 -17 5.5 -35t-21.5 -28l-163 -94l163 -94q17 -10 21.5 -28t-4.5 -35l-35 -61 q-10 -17 -28.5 -21.5t-35.5 4.5l-162 94v-187q0 -20 -13.5 -33.5t-33.5 -13.5h-69q-20 0 -33.5 13.5t-13.5 32.5v188l-162 -94q-17 -10 -35.5 -5t-28.5 22l-35 61q-9 17 -4.5 35t21.5 28l163 94l-163 94q-17 10 -22 28z" />
<glyph unicode="&#x2757;" horiz-adv-x="750" d="M0 375q0 78 29.5 146t80.5 119t119 80.5t146 29.5t146 -29.5t119 -80.5t80.5 -119t29.5 -146t-29.5 -146t-80.5 -119t-119 -80.5t-146 -29.5t-146 29.5t-119 80.5t-80.5 119t-29.5 146zM330 627q-14 0 -14 -14l6 -347q2 -14 15 -14h76q14 0 14 14l7 347q1 5 -3 9.5 t-11 4.5h-90zM319 125q0 -14 14 -14h85q5 0 9.5 4t4.5 10v82q0 6 -4.5 10t-9.5 4h-85q-14 0 -14 -14v-82z" />
<glyph unicode="&#x275d;" d="M45 331q1 70 8 124t28.5 109t57.5 92.5t97.5 63t144.5 30.5v-168q-70 0 -101.5 -50t-31.5 -159l-4 -1h90q20 0 33.5 -14t13.5 -34v-278q0 -19 -13.5 -33t-33.5 -14h-242q-19 0 -33 14t-14 33v285zM519 331q0 70 7.5 124t29 109t57.5 92.5t97.5 63t144.5 30.5v-168 q-72 0 -103 -50t-31 -159l-4 -1h90q19 0 33 -14t14 -34v-278q0 -19 -14 -33t-33 -14h-241q-20 0 -34 14t-14 33v278q0 5 1 7z" />
<glyph unicode="&#x275e;" d="M856 418q-2 -70 -9 -123.5t-28.5 -109t-57.5 -93t-97 -63t-145 -30.5v169q71 0 102 50t31 158l5 1h-91q-19 0 -33 14t-14 35v277q0 19 14 33t33 14h242q20 0 33.5 -14t14.5 -33v-285zM381 418q0 -70 -7.5 -123.5t-29 -109t-57.5 -93t-97 -63t-145 -30.5v169q72 0 103 50 t31 158l5 1h-91q-19 0 -33 14t-14 35v277q0 19 14 33t33 14h241q21 0 35 -14t14 -33v-277q0 -6 -2 -8z" />
<glyph unicode="&#xe000;" horiz-adv-x="500" d="M0 0v0v0z" />
<glyph unicode="&#xf000;" horiz-adv-x="750" d="M50 261q0 15 9.5 25t24.5 12v339q-15 1 -24.5 11t-9.5 25t10.5 25.5t26.5 10.5h267l15 40h9l15 -40h271q16 0 26.5 -10.5t10.5 -26t-10.5 -26t-26.5 -10.5v-338q16 0 26.5 -10.5t10.5 -26t-10.5 -26.5t-26.5 -11h-267v-47l136 -82l-13 -22l-123 47v-94q0 -11 -8 -18.5 t-19 -7.5t-17.5 7.5t-6.5 18.5v94l-122 -47l-12 22l134 82v47h-259q-16 0 -26.5 11t-10.5 26zM131 301h487v332h-487v-332z" />
<glyph unicode="&#xf001;" d="M450.5 749q-135.5 0 -231.5 -27.5t-96 -66t96 -66t231.5 -27.5t231.5 27.5t96 66t-96 66t-231.5 27.5zM778 580v-112q0 -39 -96 -66t-231.5 -27t-231.5 27t-96 66v112q82 -54 275 -64q30 -1 52.5 -1t53 1.5t84.5 7.5q123 12 190 56zM778 393v-112q0 -39 -96 -66.5 t-231.5 -27.5t-231.5 27.5t-96 66.5v112q78 -54 275 -63q30 -2 52.5 -2t53 1.5t84.5 6.5q127 13 190 57zM778 206v-112q0 -39 -96 -66.5t-231.5 -27.5t-231.5 27.5t-96 66.5v112q64 -44 191 -56q94 -10 126.5 -10t63 2t84.5 8q127 12 190 56z" />
<glyph unicode="&#xf002;" horiz-adv-x="750" d="M485 177q-79 -52 -172 -52q-65 0 -122 24.5t-99.5 67t-67 99t-24.5 121.5t24.5 122t67 99.5t99.5 67t121.5 24.5t121.5 -24.5t99.5 -67t67 -99.5t24.5 -122q0 -93 -52 -172l168 -167q9 -10 9 -23t-9 -22l-44 -44q-9 -9 -22 -9t-22 9zM125 437q0 -39 14.5 -73t40 -59.5 t60 -40t73.5 -14.5t73 14.5t59.5 40t40 59.5t14.5 73t-14.5 73t-40 59.5t-59.5 40.5t-73 15t-73.5 -15t-60 -40.5t-40 -59.5t-14.5 -73zM201 420.5q-7 6.5 -7 24t9.5 39t25.5 37.5q35 35 84 35q10 0 16.5 -7t6.5 -17t-6.5 -16.5t-16.5 -6.5q-30 0 -51 -21t-21 -51 q0 -10 -6.5 -16.5t-16.5 -6.5t-17 6.5z" />
<glyph unicode="&#xf003;" d="M878 750v-750h-857v750h857zM824 696h-749v-642h749v642zM771 643v-536h-643v536h643zM378.5 482.5q-0.5 14.5 -12.5 22.5l-123 76q-10 6 -20.5 3.5t-16.5 -12t-3.5 -20.5t12.5 -16l88 -55l-90 -61q-20 -16 -7 -38q8 -11 19.5 -11t18.5 5l123 84q12 8 11.5 22.5zM610 482 h-161v-54h161v54z" />
<glyph unicode="&#xf004;" d="M327 543l164 -157l159 155l-69 66h228v-221l-78 76l-241 -231l-162 159l-161 -156l-81 77zM867 57v-57h-868v57h868z" />
<glyph unicode="&#xf005;" d="M644 374q0 20 -14.5 34t-34.5 14h-289q-20 0 -34.5 -14t-14.5 -34t14.5 -34t34.5 -14h289q20 0 34.5 14t14.5 34zM869 486v-450q0 -13 -10 -22.5t-23 -9.5h-772q-13 0 -22.5 9.5t-9.5 22.5v450q0 14 9.5 23.5t22.5 9.5h772q13 0 23 -9.5t10 -23.5zM900 712v-97 q0 -13 -9 -22.5t-22 -9.5h-837q-13 0 -22.5 9.5t-9.5 22.5v97q0 13 9.5 22.5t22.5 9.5h837q13 0 22 -9.5t9 -22.5z" />
<glyph unicode="&#xf006;" d="M394 203v-169h-338v169h338zM225 147h-113v-56h113v56zM337 147h-32v-56h32v56zM844 203v-169h-338v169h338zM675 147h-113v-56h113v56zM788 147h-33v-56h33v56zM900 372v-169h-338v169h338zM731 316h-112v-56h112v56zM844 316h-33v-56h33v56zM844 541v-169h-338v169h338 zM675 485h-113v-57h113v57zM788 485h-33v-57h33v57zM394 372v-169h-338v169h338zM225 316h-113v-56h113v56zM337 316h-32v-56h32v56zM337 541v-169h-337v169h337zM169 485h-113v-57h113v57zM281 485h-33v-57h33v57zM394 710v-169h-338v169h338zM225 653h-113v-56h113v56z M337 653h-32v-56h32v56z" />
<glyph unicode="&#xf007;" d="M0 34v7q11 19 19.5 40t17.5 42q35 82 80 98q11 4 23.5 5t37.5 5t65.5 10.5t78.5 12.5q4 17 7 34.5t8 33.5q-8 11 -16 21.5t-15 22.5q-18 29 -21.5 53t-6.5 45.5t-6 44t-5.5 41t-2.5 33t10.5 45.5t33 58t58 45.5t84.5 18.5t84.5 -18.5t57.5 -45.5q44 -52 44 -114 q0 -4 -2.5 -22.5t-5.5 -41.5q-12 -93 -19 -111t-14.5 -30.5t-16 -23t-15.5 -21.5q5 -16 8 -33.5t7 -34.5q70 -11 119.5 -19t62 -9t23.5 -5q17 -6 33.5 -22.5t27 -35.5t19.5 -40t17.5 -42t19.5 -40v-7q-14 -8 -26.5 -18.5t-30.5 -15.5h-786q-18 5 -30.5 15.5t-26.5 18.5z" />
<glyph unicode="&#xf008;" d="M0 56v638q0 23 16.5 39.5t39.5 16.5h788q23 0 39.5 -16.5t16.5 -39.5v-638q0 -23 -16.5 -39.5t-39.5 -16.5h-788q-23 0 -39.5 16.5t-16.5 39.5zM56 75q0 -8 5.5 -13.5t13.5 -5.5h75q8 0 13.5 5.5t5.5 13.5v75q0 8 -5.5 13.5t-13.5 5.5h-75q-8 0 -13.5 -5.5t-5.5 -13.5 v-75zM56 250q0 -8 5.5 -13.5t13.5 -5.5h75q8 0 13.5 5.5t5.5 13.5v75q0 8 -5.5 13.5t-13.5 5.5h-75q-8 0 -13.5 -5.5t-5.5 -13.5v-75zM56 425q0 -8 5.5 -13.5t13.5 -5.5h75q8 0 13.5 5.5t5.5 13.5v75q0 8 -5.5 13.5t-13.5 5.5h-75q-8 0 -13.5 -5.5t-5.5 -13.5v-75zM56 600 q0 -8 5.5 -13.5t13.5 -5.5h75q8 0 13.5 5.5t5.5 13.5v75q0 8 -5.5 13.5t-13.5 5.5h-75q-8 0 -13.5 -5.5t-5.5 -13.5v-75zM225 75q0 -8 5.5 -13.5t13.5 -5.5h412q8 0 13.5 5.5t5.5 13.5v250q0 8 -5.5 13.5t-13.5 5.5h-412q-8 0 -13.5 -5.5t-5.5 -13.5v-250zM225 425 q0 -8 5.5 -13.5t13.5 -5.5h412q8 0 13.5 5.5t5.5 13.5v250q0 8 -5.5 13.5t-13.5 5.5h-412q-8 0 -13.5 -5.5t-5.5 -13.5v-250zM731 75q0 -8 5.5 -13.5t13.5 -5.5h75q8 0 13.5 5.5t5.5 13.5v75q0 8 -5.5 13.5t-13.5 5.5h-75q-8 0 -13.5 -5.5t-5.5 -13.5v-75zM731 250 q0 -8 5.5 -13.5t13.5 -5.5h75q8 0 13.5 5.5t5.5 13.5v75q0 8 -5.5 13.5t-13.5 5.5h-75q-8 0 -13.5 -5.5t-5.5 -13.5v-75zM731 425q0 -8 5.5 -13.5t13.5 -5.5h75q8 0 13.5 5.5t5.5 13.5v75q0 8 -5.5 13.5t-13.5 5.5h-75q-8 0 -13.5 -5.5t-5.5 -13.5v-75zM731 600 q0 -8 5.5 -13.5t13.5 -5.5h75q8 0 13.5 5.5t5.5 13.5v75q0 8 -5.5 13.5t-13.5 5.5h-75q-8 0 -13.5 -5.5t-5.5 -13.5v-75z" />
<glyph unicode="&#xf009;" d="M0 38v262q0 16 11 27t27 11h337q16 0 27 -11t11 -27v-262q0 -16 -11 -27t-27 -11h-337q-16 0 -27 11t-11 27zM0 450v263q0 15 11 26t27 11h337q16 0 27 -11t11 -26v-263q0 -16 -11 -26.5t-27 -10.5h-337q-16 0 -27 10.5t-11 26.5zM488 38v262q0 16 10.5 27t26.5 11h338 q15 0 26 -11t11 -27v-262q0 -16 -11 -27t-26 -11h-338q-16 0 -26.5 11t-10.5 27zM488 450v263q0 15 10.5 26t26.5 11h338q15 0 26 -11t11 -26v-263q0 -16 -11 -26.5t-26 -10.5h-338q-16 0 -26.5 10.5t-10.5 26.5z" />
<glyph unicode="&#xf00a;" d="M0 38v132q0 16 11 26.5t27 10.5h175q15 0 26 -10.5t11 -26.5v-132q0 -16 -11 -27t-26 -11h-175q-16 0 -27 11t-11 27zM0 320v110q0 16 11 26.5t27 10.5h175q15 0 26 -10.5t11 -26.5v-110q0 -16 -11 -27t-26 -11h-175q-16 0 -27 11t-11 27zM0 580v133q0 15 11 26t27 11 h175q15 0 26 -11t11 -26v-133q0 -16 -11 -27t-26 -11h-175q-16 0 -27 11t-11 27zM325 38v132q0 16 11 26.5t27 10.5h175q15 0 26 -10.5t11 -26.5v-132q0 -16 -11 -27t-26 -11h-175q-16 0 -27 11t-11 27zM325 320v110q0 16 11 26.5t27 10.5h175q15 0 26 -10.5t11 -26.5v-110 q0 -16 -11 -27t-26 -11h-175q-16 0 -27 11t-11 27zM325 580v133q0 15 11 26t27 11h175q15 0 26 -11t11 -26v-133q0 -16 -11 -27t-26 -11h-175q-16 0 -27 11t-11 27zM650 38v132q0 16 11 26.5t27 10.5h175q15 0 26 -10.5t11 -26.5v-132q0 -16 -11 -27t-26 -11h-175 q-16 0 -27 11t-11 27zM650 320v110q0 16 11 26.5t27 10.5h175q15 0 26 -10.5t11 -26.5v-110q0 -16 -11 -27t-26 -11h-175q-16 0 -27 11t-11 27zM650 580v133q0 15 11 26t27 11h175q15 0 26 -11t11 -26v-133q0 -16 -11 -27t-26 -11h-175q-16 0 -27 11t-11 27z" />
<glyph unicode="&#xf00b;" d="M0 38v132q0 16 11 26.5t27 10.5h145q15 0 26 -10.5t11 -26.5v-132q0 -16 -11 -27t-26 -11h-145q-16 0 -27 11t-11 27zM0 320v110q0 16 11 26.5t27 10.5h145q15 0 26 -10.5t11 -26.5v-110q0 -16 -11 -27t-26 -11h-145q-16 0 -27 11t-11 27zM0 580v133q0 15 11 26t27 11 h145q15 0 26 -11t11 -26v-133q0 -16 -11 -27t-26 -11h-145q-16 0 -27 11t-11 27zM295 38v132q0 16 11 26.5t27 10.5h530q15 0 26 -10.5t11 -26.5v-132q0 -16 -11 -27t-26 -11h-530q-16 0 -27 11t-11 27zM295 320v110q0 16 11 26.5t27 10.5h530q15 0 26 -10.5t11 -26.5v-110 q0 -16 -11 -27t-26 -11h-530q-16 0 -27 11t-11 27zM295 580v133q0 15 11 26t27 11h530q15 0 26 -11t11 -26v-133q0 -16 -11 -27t-26 -11h-530q-16 0 -27 11t-11 27z" />
<glyph unicode="&#xf00c;" d="M38 551v199h225v-199h-225zM65 0v73h172v-73h-172zM65 187v74h172v-74h-172zM65 375v74h172v-74h-172zM336 551v199h226v-199h-226zM362 0v73h173v-73h-173zM362 187v74h173v-74h-173zM362 375v74h173v-74h-173zM635 551v199h225v-199h-225zM662 0v73h172v-73h-172z M662 187v74h172v-74h-172zM662 375v74h172v-74h-172z" />
<glyph unicode="&#xf00d;" d="M502 666v-186q171 -21 280 -113q46 -39 83 -105q29 -53 35 -117v-9q-10 19 -46 49t-76.5 48.5t-114 30.5t-161.5 4v-184l-291 290zM290 666v-106l-185 -186l185 -184v-106l-291 290z" />
<glyph unicode="&#xf00e;" horiz-adv-x="750" d="M485 177q-79 -52 -172 -52q-65 0 -122 24.5t-99.5 67t-67 99t-24.5 121.5t24.5 122t67 99.5t99.5 67t121.5 24.5t121.5 -24.5t99.5 -67t67 -99.5t24.5 -122q0 -93 -52 -172l168 -167q9 -10 9 -23t-9 -22l-44 -44q-9 -9 -22 -9t-22 9zM125 437q0 -39 14.5 -73t40 -59.5 t60 -40t73.5 -14.5t73 14.5t59.5 40t40 59.5t14.5 73t-14.5 73t-40 59.5t-59.5 40.5t-73 15t-73.5 -15t-60 -40.5t-40 -59.5t-14.5 -73zM188 422v31q0 7 4.5 11.5t10.5 4.5h78v78q0 6 4.5 10.5t11.5 4.5h31q7 0 11.5 -4.5t4.5 -10.5v-78h78q16 0 16 -16v-31q0 -16 -16 -16 h-78v-78q0 -16 -16 -16h-31q-16 0 -16 16v78h-78q-6 0 -10.5 4.5t-4.5 11.5z" />
<glyph unicode="&#xf010;" horiz-adv-x="750" d="M485 177q-79 -52 -172 -52q-65 0 -122 24.5t-99.5 67t-67 99t-24.5 121.5t24.5 122t67 99.5t99.5 67t121.5 24.5t121.5 -24.5t99.5 -67t67 -99.5t24.5 -122q0 -93 -52 -172l168 -167q9 -10 9 -23t-9 -22l-44 -44q-9 -9 -22 -9t-22 9zM125 437q0 -39 14.5 -73t40 -59.5 t60 -40t73.5 -14.5t73 14.5t59.5 40t40 59.5t14.5 73t-14.5 73t-40 59.5t-59.5 40.5t-73 15t-73.5 -15t-60 -40.5t-40 -59.5t-14.5 -73zM188 422v31q0 7 4.5 11.5t10.5 4.5h219q16 0 16 -16v-31q0 -16 -16 -16h-219q-6 0 -10.5 4.5t-4.5 11.5z" />
<glyph unicode="&#xf011;" horiz-adv-x="713" d="M28 217.5q-28 64.5 -28 146t41 159t115 128.5q6 3 13.5 2.5t12.5 -7.5l42 -62q10 -16 -5 -26q-51 -35 -78.5 -88t-27.5 -108.5t19 -100t52 -77.5q71 -71 172 -71q102 0 173 71t71 172q0 61 -28 114t-79 88q-6 3 -7.5 10.5t2.5 15.5l43 62q11 13 26 5q73 -51 114.5 -128.5 t41.5 -159t-28 -146t-76.5 -113t-113.5 -76.5t-139 -28t-138.5 28t-113 76.5t-76.5 113zM300 394v337q0 19 19 19h75q8 0 13.5 -5.5t5.5 -13.5v-337q0 -8 -5.5 -13.5t-13.5 -5.5h-75q-19 0 -19 19z" />
<glyph unicode="&#xf012;" d="M0 19v127q0 8 5.5 13.5t13.5 5.5h94q8 0 13 -5.5t5 -13.5v-127q0 -8 -5 -13.5t-13 -5.5h-94q-19 0 -19 19zM192 19v212q0 8 5.5 13.5t13.5 5.5h94q8 0 13 -5.5t5 -13.5v-212q0 -8 -5 -13.5t-13 -5.5h-94q-8 0 -13.5 5.5t-5.5 13.5zM384 19v330q0 8 5.5 13.5t13.5 5.5h94 q8 0 13.5 -5.5t5.5 -13.5v-330q0 -8 -5.5 -13.5t-13.5 -5.5h-94q-8 0 -13.5 5.5t-5.5 13.5zM577 19v486q0 8 5 13.5t13 5.5h94q8 0 13.5 -5.5t5.5 -13.5v-486q0 -8 -5.5 -13.5t-13.5 -5.5h-94q-8 0 -13 5.5t-5 13.5zM769 19v712q0 19 19 19h93q19 0 19 -19v-712 q0 -19 -19 -19h-93q-19 0 -19 19z" />
<glyph unicode="&#xf014;" horiz-adv-x="648" d="M1 549l-1 33l1 33q34 18 181 25q-6 49 12 76q22 34 130 34q110 0 130 -34q18 -32 12 -76q147 -7 181 -25q1 -9 1 -17v-32q0 -8 -1 -17q-34 -21 -212 -27h-16l-95 -1h-41q-159 0 -251 18q-21 4 -31 10zM67 484q98 -12 183 -12h147q86 0 184 12q-5 -76 -8 -154.5t-5.5 -126 t-3 -71t-2.5 -45.5q-3 -52 -18 -66q-21 -21 -102 -21h-236q-80 0 -100 18q-20 20 -22 114q-1 24 -3.5 71.5t-6 126t-7.5 154.5zM149 333l9 -171v-32q0 -39 10 -46t15 -7.5t10 -0.5t8 -1h11q5 0 5 19v286q0 8 -5.5 13.5t-13.5 5.5l-33 2q-8 0 -13 -5t-4.5 -16.5t0.5 -24.5 t1 -22zM256 668q-1 -6 1 -26q9 1 20 1h47l67 -1q2 20 1 26q-22 6 -55 6q-59 0 -81 -6zM292 94q0 -8 5 -13.5t13 -5.5h28q8 0 13.5 5.5t5.5 13.5v285q0 8 -11 13t-14 5h-15q-3 0 -14 -5t-11 -13v-285zM490 162q0 9 1.5 29.5t3 66.5t6.5 125q0 8 -5 13t-13 5l-33 -2 q-8 0 -13 -5.5t-5 -13.5v-286q0 -19 4 -19h11q6 2 28 2q11 2 13 20l1 33q0 7 1 12v20z" />
<glyph unicode="&#xf016;" horiz-adv-x="600" d="M0 56v638q0 23 16.5 39.5t39.5 16.5h219v-269q0 -23 16.5 -39.5t39.5 -16.5h269v-369q0 -23 -16.5 -39.5t-39.5 -16.5h-488q-23 0 -39.5 16.5t-16.5 39.5zM331 481v266h3l263 -263v-3h-266z" />
<glyph unicode="&#xf017;" horiz-adv-x="750" d="M0 375q0 78 29.5 146t80.5 119t119 80.5t146 29.5t146 -29.5t119 -80.5t80.5 -119t29.5 -146t-29.5 -146t-80.5 -119t-119 -80.5t-146 -29.5t-146 29.5t-119 80.5t-80.5 119t-29.5 146zM113 375q0 -54 20.5 -102t56 -83.5t83.5 -56t102 -20.5t102 20.5t84 56t56.5 83.5 t20.5 102t-20.5 102t-56.5 84t-84 56.5t-102 20.5t-102 -20.5t-83.5 -56.5t-56 -84t-20.5 -102zM319 375v150q0 23 16.5 39.5t39.5 16.5t39.5 -16.5t16.5 -39.5v-127l90 -89q17 -17 17 -40t-12.5 -35.5t-23 -16.5t-21.5 -4q-24 0 -40 16l-106 106q-1 1 -1 2t-4 5 q-11 11 -11 33z" />
<glyph unicode="&#xf018;" d="M1 17l290 716q3 7 10.5 12t15.5 5h95l-4 -83h84l-4 83h95q8 0 15.5 -5t10.5 -12l290 -716q3 -7 -0.5 -12t-11.5 -5h-361l-13 250h-126l-13 -250h-361q-8 0 -11.5 5t-0.5 12zM394 389h112l-10 202h-92z" />
<glyph unicode="&#xf019;" d="M0 19v300q0 8 5.5 13.5t13.5 5.5h112q8 0 13.5 -5.5t5.5 -13.5v-169h600v169q0 8 5.5 13.5t13.5 5.5h112q8 0 13.5 -5.5t5.5 -13.5v-300q0 -19 -19 -19h-862q-19 0 -19 19zM169 461q3 8 19 8h150v244q0 15 10.5 26t26.5 11h150q16 0 27 -11t11 -26v-244h150q15 0 18 -8 t-8 -19l-246 -247q-11 -11 -27 -11t-27 11l-246 247q-11 11 -8 19z" />
<glyph unicode="&#xf01a;" horiz-adv-x="750" d="M0 375q0 78 29.5 146t80.5 119t119 80.5t146 29.5t146 -29.5t119 -80.5t80.5 -119t29.5 -146t-29.5 -146t-80.5 -119t-119 -80.5t-146 -29.5t-146 29.5t-119 80.5t-80.5 119t-29.5 146zM113 375q0 -54 20.5 -102t56 -83.5t83.5 -56t102 -20.5t102 20.5t84 56t56.5 83.5 t20.5 102t-20.5 102t-56.5 83.5t-84 56t-102 20.5t-102 -20.5t-83.5 -56t-56 -83.5t-20.5 -102zM206 349q4 10 24 10h79v185q0 8 5.5 13.5t13.5 5.5h94q8 0 13.5 -5.5t5.5 -13.5v-185h79q20 0 24 -10t-10 -24l-136 -136q-9 -9 -22.5 -9t-23.5 9l-136 136q-14 14 -10 24z" />
<glyph unicode="&#xf01b;" horiz-adv-x="750" d="M0 375q0 78 29.5 146t80.5 119t119 80.5t146 29.5t146 -29.5t119 -80.5t80.5 -119t29.5 -146t-29.5 -146t-80.5 -119t-119 -80.5t-146 -29.5t-146 29.5t-119 80.5t-80.5 119t-29.5 146zM113 375q0 -54 20.5 -102t56 -83.5t83.5 -56t102 -20.5t102 20.5t84 56t56.5 83.5 t20.5 102t-20.5 102t-56.5 83.5t-84 56t-102 20.5t-102 -20.5t-83.5 -56t-56 -83.5t-20.5 -102zM206 401q-4 10 10 24l136 136q10 9 22.5 9t23.5 -9l136 -136q14 -14 10 -24t-24 -10h-79v-185q0 -8 -5.5 -13.5t-13.5 -5.5h-94q-8 0 -13.5 5.5t-5.5 13.5v185h-79 q-20 0 -24 10z" />
<glyph unicode="&#xf01c;" d="M0 38v282q0 37 15 72l139 324q6 14 21.5 24t30.5 10h488q15 0 30.5 -10t21.5 -24l139 -324q15 -35 15 -72v-282q0 -16 -11 -27t-26 -11h-825q-16 0 -27 11t-11 27zM116 339h189l56 -113h187l57 113h179q-1 2 -1 4.5t-1 4.5l-125 290h-414l-125 -291q-1 -1 -1 -3.5 t-1 -4.5z" />
<glyph unicode="&#xf01d;" horiz-adv-x="750" d="M0 375q0 78 29.5 146t80.5 119t119 80.5t146 29.5t146 -29.5t119 -80.5t80.5 -119t29.5 -146t-29.5 -146t-80.5 -119t-119 -80.5t-146 -29.5t-146 29.5t-119 80.5t-80.5 119t-29.5 146zM113 375q0 -54 20.5 -102t56 -83.5t83.5 -56t102 -20.5t102 20.5t84 56t56.5 83.5 t20.5 102t-20.5 102t-56.5 84t-84 56.5t-102 20.5t-102 -20.5t-83.5 -56.5t-56 -84t-20.5 -102zM258 220v310q0 9 8 13.5t15 0.5l269 -156q8 -3 8 -13t-8 -13l-269 -156q-4 -2 -7.5 -2t-9.5 3.5t-6 12.5z" />
<glyph unicode="&#xf01e;" d="M186 109.5q-110 109.5 -110 265.5t110 265.5t266 109.5t265.5 -109t109.5 -265.5t-109 -266t-265.5 -109.5t-266.5 109.5zM146 376zM148 333q31 -37 122 -53q-6 44 -6 83t3 73q-76 15 -109 29q-13 -44 -12 -85zM162 272q30 -71 74 -112q37 -41 98 -66q-37 52 -56 140 q-77 17 -116 38zM175 506q5 -5 97 -29q19 116 69 181q-74 -34 -105 -68q-37 -33 -61 -84zM307 432q-3 -25 -3 -65t8 -95q56 -9 117 -12v164q-71 2 -122 8zM312 471q57 -4 117 -7v215h-3q-39 -15 -69.5 -71.5t-44.5 -136.5zM322 227q10 -42 29.5 -81t37.5 -57t40 -18v149 q-54 2 -107 7zM581 227q-54 -6 -108 -7v-149q62 0 108 156zM590 271q6 37 6 88.5t-1 71.5q-58 -6 -122 -7v-164q58 2 117 11zM591 471q-24 135 -88 192q-24 16 -30 16v-215q57 1 118 7zM562 659q50 -65 68 -183q78 13 98 29q-52 114 -166 154zM568 94q62 26 99 66 q45 42 70 107q-43 -20 -112 -34q-21 -90 -57 -139zM633 279q83 14 104 34q11 11 15 22t6 46t-14 83q-54 -22 -108 -28q2 -22 2 -65.5t-5 -91.5z" />
<glyph unicode="&#xf01f;" d="M375 49l12 -2q13 0 22.5 9.5t9.5 22.5v267q0 13 9 22t22 9t22 -9t9 -22v-267q0 -13 9.5 -22.5t18.5 -9.5q8 0 17 3q55 15 114 82l24 -26q6 -8 6 -19v-48q0 -16 11.5 -27.5t27.5 -11.5t27.5 11.5t11.5 27.5v71q0 10 -4.5 23.5t-10.5 20.5l-48 51q16 42 16 87q0 11 -1 22 h14q14 0 24 -10t10 -24v-36q0 -17 11.5 -28.5t28 -11.5t28 11.5t11.5 28.5v70q0 33 -23 56t-56 23h-74q-8 15 -23 38l66 72q16 19 16 47v70q0 17 -11.5 28.5t-28 11.5t-28 -11.5t-11.5 -28.5v-51q0 -11 -6 -19l-42 -46q-30 60 -30 114t-27 87.5t-68 44.5v-75q0 -13 -9 -22 t-22 -9t-22 9t-9 22v75q-41 -11 -68 -44.5t-27 -87t-30 -113.5l-42 45q-6 8 -6 19v51q0 17 -11.5 28.5t-28 11.5t-28 -11.5t-11.5 -28.5v-70q0 -28 16 -47l66 -71q-14 -21 -24 -39h-73q-33 0 -56 -23t-23 -56v-70q0 -17 11.5 -28.5t28 -11.5t28 11.5t11.5 28.5v36 q0 14 10 24t24 10h14q-1 -11 -1 -22q0 -45 16 -87l-48 -51q-6 -7 -10.5 -20.5t-4.5 -23.5v-71q0 -16 11.5 -27.5t27.5 -11.5t27.5 11.5t11.5 27.5v48q0 11 6 19l24 26q28 -32 54.5 -52.5t60.5 -30.5z" />
<glyph unicode="&#xf021;" d="M3 160l70 206q4 13 18 20q15 6 28 2l206 -70q21 -7 21.5 -19t-19.5 -22l-95 -47q51 -77 133 -104q100 -35 201 13q45 22 80 61t53 90q4 17 23 12l71 -24q17 -7 12 -24q-25 -74 -75 -129t-114.5 -86.5t-139 -37.5t-142.5 17q-133 45 -203 162l-97 -47q-20 -11 -29.5 -2.5 t-1.5 29.5zM95 495q25 73 75 128.5t114.5 87.5t138.5 38t143 -17q131 -46 203 -163l97 48q20 10 29.5 1.5t1.5 -29.5l-70 -205q-4 -14 -18 -21q-15 -6 -28 -2l-206 70q-21 7 -21.5 19t19.5 22l95 47q-51 76 -134 104q-101 36 -200 -13q-45 -22 -80 -61t-53 -90q-2 -8 -9 -11 t-14 -1l-71 25q-8 2 -11 9t-1 14z" />
<glyph unicode="&#xf022;" d="M0 56v638q0 23 16.5 39.5t39.5 16.5h788q23 0 39.5 -16.5t16.5 -39.5v-638q0 -23 -16.5 -39.5t-39.5 -16.5h-788q-23 0 -39.5 16.5t-16.5 39.5zM75 75h750v525h-750v-525zM150 169v37q0 19 19 19h75q8 0 13.5 -5.5t5.5 -13.5v-37q0 -8 -5.5 -13.5t-13.5 -5.5h-75 q-19 0 -19 19zM150 319v37q0 19 19 19h75q8 0 13.5 -5.5t5.5 -13.5v-37q0 -8 -5.5 -13.5t-13.5 -5.5h-75q-19 0 -19 19zM150 469v37q0 19 19 19h75q8 0 13.5 -5.5t5.5 -13.5v-37q0 -8 -5.5 -13.5t-13.5 -5.5h-75q-19 0 -19 19zM338 169v37q0 8 5 13.5t13 5.5h375 q19 0 19 -19v-37q0 -19 -19 -19h-375q-8 0 -13 5.5t-5 13.5zM338 319v37q0 8 5 13.5t13 5.5h375q19 0 19 -19v-37q0 -19 -19 -19h-375q-8 0 -13 5.5t-5 13.5zM338 469v37q0 8 5 13.5t13 5.5h375q19 0 19 -19v-37q0 -19 -19 -19h-375q-8 0 -13 5.5t-5 13.5z" />
<glyph unicode="&#xf023;" horiz-adv-x="750" d="M0 56v300q0 23 16.5 40t39.5 17h57v85q0 105 77 178q77 74 185 74t186 -74q77 -73 77 -178v-85h56q23 0 39.5 -17t16.5 -40v-300q0 -23 -16.5 -39.5t-39.5 -16.5h-638q-23 0 -39.5 16.5t-16.5 39.5zM225 413h300v85q0 57 -44 99q-43 41 -106 41t-106 -41q-44 -42 -44 -99 v-85z" />
<glyph unicode="&#xf025;" d="M450 750q109 0 213 -54q163 -85 219 -236q18 -50 18 -104q0 -87 -36 -165l-13 -28l-81 -12q-13 -49 -52.5 -81t-92.5 -32v-19q0 -8 -5.5 -13.5t-13.5 -5.5h-38q-8 0 -13 5.5t-5 13.5v337q0 8 5 13.5t13 5.5h38q8 0 13.5 -5.5t5.5 -13.5v-18q42 0 75.5 -21t53.5 -54l19 2 q15 43 15 96t-31 104.5t-80 89.5t-109 60.5t-118 22.5t-118 -22.5t-108.5 -60.5t-79.5 -89.5t-31 -103.5t14 -97l19 -2q20 33 53.5 54t75.5 21v18q0 8 5.5 13.5t13.5 5.5h38q8 0 13 -5.5t5 -13.5v-337q0 -8 -5 -13.5t-13 -5.5h-38q-8 0 -13.5 5.5t-5.5 13.5v19 q-53 0 -92.5 32t-52.5 81l-81 12l-13 28q-36 78 -36 173.5t65.5 186t170.5 145t214 54.5z" />
<glyph unicode="&#xf026;" horiz-adv-x="425" d="M0 286v178q0 8 5.5 13.5t13.5 5.5h196l153 153q23 23 39.5 16t16.5 -39v-476q0 -32 -16.5 -39t-39.5 16l-153 153h-196q-8 0 -13.5 5.5t-5.5 13.5z" />
<glyph unicode="&#xf027;" horiz-adv-x="600" d="M0 286v178q0 8 5.5 13.5t13.5 5.5h196l153 153q23 23 39.5 16t16.5 -39v-476q0 -32 -16.5 -39t-39.5 16l-153 153h-196q-8 0 -13.5 5.5t-5.5 13.5zM482 205q-4 15 4 29q39 67 39 140.5t-39 141.5q-8 14 -4 29t18 23t28.5 4t22.5 -18q49 -87 49 -179t-49 -179 q-11 -19 -33 -19q-8 0 -18 5q-14 8 -18 23z" />
<glyph unicode="&#xf028;" d="M0 286v178q0 8 5.5 13.5t13.5 5.5h196l153 153q23 23 39.5 16t16.5 -39v-476q0 -32 -16.5 -39t-39.5 16l-153 153h-196q-8 0 -13.5 5.5t-5.5 13.5zM482 205q-4 15 4 29q39 67 39 140.5t-39 141.5q-8 14 -4 29t18 23t28.5 4t22.5 -18q49 -87 49 -179t-49 -179 q-11 -19 -33 -19q-8 0 -18 5q-14 8 -18 23zM603 117q-3 15 5 29q67 105 67 229t-67 229q-8 14 -5 29t17 23t29 5t23 -17q78 -125 78 -269t-78 -269q-10 -18 -26.5 -18t-28 7t-14.5 22zM723.5 30q-2.5 15 5.5 28q96 144 96 317t-96 317q-8 13 -5.5 28t16 23.5t28.5 5.5 t24 -16q108 -162 108 -358t-108 -358q-12 -17 -27.5 -17t-27 7.5t-14 22.5z" />
<glyph unicode="&#xf029;" d="M74 493q134 0 247.5 -66t180.5 -179.5t68 -247.5h-145q-1 145 -103.5 247t-247.5 102v144zM74 750q152 0 290.5 -59.5t239.5 -160t160.5 -239.5t59.5 -291h-144q-1 164 -82.5 303.5t-220.5 220.5t-303 81v145zM174 200q41 0 70.5 -29t29.5 -70.5t-29.5 -71t-70.5 -29.5 t-70.5 29.5t-29.5 71t29.5 70.5t70.5 29z" />
<glyph unicode="&#xf02a;" d="M701 750q52 0 88.5 -36.5t36.5 -88.5v-500q0 -52 -36.5 -88.5t-88.5 -36.5h-500q-52 0 -88.5 36.5t-36.5 88.5v500q0 52 36.5 88.5t88.5 36.5h500zM732 563h-457v-105h457v105zM255 319h-85v-101h85v101zM170 338h85v102h-85v-102zM275 319v-101h457v101h-457zM275 338 h457v102h-457v-102zM255 563h-85v-105h85v105zM170 125q0 -13 9 -22t22 -9h54v104h-85v-73zM701 94q13 0 22 9t9 22v73h-457v-104h426z" />
<glyph unicode="&#xf02b;" horiz-adv-x="750" d="M0 474v218q0 24 17 41t41 17h218q24 0 53 -12t46 -29l358 -358q17 -17 17 -41t-17 -41l-252 -252q-17 -17 -41 -17t-41 17l-358 358q-17 17 -29 46t-12 53zM94 600q0 -23 16.5 -39.5t39.5 -16.5t39.5 16.5t16.5 39.5t-16.5 39.5t-39.5 16.5t-39.5 -16.5t-16.5 -39.5z" />
<glyph unicode="&#xf02c;" horiz-adv-x="898" d="M0 475v217q0 24 17 41t41 17h217q24 0 53.5 -11.5t45.5 -29.5l321 -358q16 -17 16.5 -41t-16.5 -41l-252 -251q-17 -17 -41 -17.5t-41 17.5l-320 358q-16 18 -28.5 46.5t-12.5 52.5zM94 600q0 -23 16.5 -39.5t39.5 -16.5t39.5 16.5t16.5 39.5t-16.5 39.5t-39.5 16.5 t-39.5 -16.5t-16.5 -39.5zM379 749h83q24 0 53.5 -12t45.5 -29l321 -358q16 -18 16.5 -41.5t-16.5 -40.5l-252 -251q-17 -17 -41 -17q-26 -1 -47 24l246 245q17 17 16.5 41t-16.5 41l-320 358q-15 16 -40.5 27t-48.5 13z" />
<glyph unicode="&#xf02d;" horiz-adv-x="835" d="M5 152q1 8 2 15.5t1.5 14.5t-1.5 12t-1 11.5t7.5 14t14.5 21.5q24 38 31 65.5t4.5 34.5t-0.5 14t8 12.5t10.5 13t10 19t10.5 24t8 24.5t4 20t-1 16t0.5 15t9.5 12t12 11.5t10.5 17.5t10.5 24q20 46 13 60q-6 12 4.5 23.5t17.5 21.5t13 26.5t14 30.5q21 33 61 21l-1 -2 q15 5 26 5h381q38 0 58 -27t9 -64l-138 -442q-9 -31 -38 -52.5t-62 -21.5h-436q-13 0 -19 -7q-6 -10 1 -29t28.5 -35t42.5 -16h462q14 0 28 10.5t18 23.5l151 482q4 15 2 28q20 -7 30 -21q20 -26 9 -63l-138 -442q-9 -32 -38 -53t-62 -21h-462q-38 0 -75 26q-36 25 -49 61 t-2 65zM244 469q-5 -19 13 -19h300q8 0 15 5.5t9 13.5l12 37q2 8 -1.5 13.5t-11.5 5.5h-300q-8 0 -15.5 -5.5t-9.5 -13.5zM278 581q-4 -18 13 -18h300q18 0 25 18l11 38q2 8 -1.5 13.5t-11.5 5.5h-300q-18 0 -25 -19z" />
<glyph unicode="&#xf02e;" horiz-adv-x="600" d="M0 54v641q0 36 34 51q10 4 21 4h490q30 0 46 -24q9 -14 9 -31v-641q0 -37 -34 -50q-15 -7 -31.5 -3.5t-27.5 15.5l-207 207l-207 -207q-11 -12 -27.5 -15.5t-31.5 3.5q-34 15 -34 50z" />
<glyph unicode="&#xf02f;" d="M451 749l374 -103v-542l-374 -104l-375 104v542zM419 74v402l-280 79v-404zM450 532l275 77l-274 75l-274 -75zM763 151v403l-281 -78v-403z" />
<glyph unicode="&#xf030;" d="M0 56v525q0 23 16.5 40t39.5 17h179l28 61q9 21 32.5 36t46.5 15h216q23 0 46.5 -15t32.5 -36l28 -61h179q23 0 39.5 -17t16.5 -40v-525q0 -23 -16.5 -39.5t-39.5 -16.5h-788q-23 0 -39.5 16.5t-16.5 39.5zM216 318q0 -48 18.5 -90.5t50 -74.5t74.5 -50.5t91 -18.5 t91 18.5t75 50.5q68 70 68 166q0 97 -68.5 165.5t-165.5 68.5t-165.5 -68.5t-68.5 -166.5zM291 319q0 33 12.5 62t34 50.5t50.5 34t62 12.5t62 -12.5t50.5 -34t34 -50.5t12.5 -62t-12.5 -62t-34 -51t-50.5 -34.5t-62 -12.5t-62 12.5t-50.5 34.5t-34 51t-12.5 62z" />
<glyph unicode="&#xf031;" horiz-adv-x="803" d="M282 1q-34 0 -168 10l-24 -4q-37 -7 -80 -7h-10l1 39q10 4 46.5 10.5t44.5 13.5q8 5 24 33l249 654h62l104 -245q40 -95 57 -137q31 -78 43 -107q21 -50 35 -88.5t30 -71t23.5 -39t24.5 -8.5q24 -3 56 -14q3 -18 3 -27v-5q0 -3 -1 -8l-183 8h-39q-16 0 -26 -1l-97 -5 l-28 -1q0 20 2 38l63 13q28 7 33.5 11.5t5.5 12.5t-3 16l-67 167l-218 1q-6 -14 -18 -47t-27.5 -75.5t-15.5 -54t8 -19.5q17 -12 91 -21v-29q0 -8 -1 -13zM268 320q66 -1 105.5 -2t51.5 0l14 1q-47 131 -89 220z" />
<glyph unicode="&#xf032;" horiz-adv-x="693" d="M352 750l30 -1h37q85 0 141 -32q93 -45 93 -147q0 -68 -62 -114q-9 -6 -74 -38q87 -20 131.5 -71t44.5 -115q0 -35 -12.5 -73t-40.5 -68t-66 -47q-77 -37 -196 -35l-97 2q-42 1 -100.5 -3t-92 -5t-88.5 -3l1 46q13 3 33 6q40 6 61 15q12 21 13.5 54.5t1.5 64.5l-1 243 q-1 19 -1 68q-2 166 -9 183q-2 4 -6 5q-10 7 -27.5 7.5t-62.5 6.5l-2 41l128 3l187 6h22q4 1 8 1h6zM266 434q24 -4 54 -4q86 0 130 32t44 110q0 55 -41.5 91.5t-126.5 36.5q-26 0 -64 -7q0 -13 2 -37q4 -67 2 -136v-86zM316 383q-30 0 -50 -5v-155l2 -132q0 -8 5 -21 q36 -16 69 -16q186 0 186 164q0 55 -25 94.5t-64.5 55t-122.5 15.5z" />
<glyph unicode="&#xf033;" horiz-adv-x="515" d="M330 -1h-12q-4 0 -8.5 1t-22.5 3t-51 6l-99 1q-30 0 -69 -4q-57 -6 -68 -6l9 41q12 4 35 9q44 11 62 20q14 19 20 50l42 198l6 31q11 58 20 87t9 31l15 76l8 31l15 90v19q-22 11 -50.5 12.5t-33 2t-8.5 0.5l10 51l159 -7q15 -1 24 -1h13q47 0 101 4t59 4q-1 -5 -1 -9 q-1 -6 -6 -21l-3 -14q-24 -8 -55 -15.5t-50 -14.5q-13 -34 -19 -83q-11 -49 -19.5 -86t-13.5 -63l-31 -152l-19 -77l-21 -115l-7 -22v-5q0 -3 1 -8q31 -7 55 -10t38 -5q-4 -36 -8 -48l-12 -1q-9 -1 -14 -1z" />
<glyph unicode="&#xf034;" d="M27 541q-19 10 -27 21q16 42 30 101q17 79 20 85h28q2 -3 10.5 -20t14.5 -24q8 -2 63 -2l62 1l10 1l55 1l104 -1h141l27 5q6 5 11 20t7 20l21 1h5q3 0 8 -1q1 -19 0.5 -47.5t0.5 -67.5v-77q0 -15 -2 -25q-10 -4 -18 -5.5t-15 -3.5q-13 25 -26.5 64t-18.5 45t-11 8.5 t-31 2.5h-82q-8 0 -17 -2q-3 -21 -3 -35l1 -74v-163l1 -175v-72q0 -35 5 -57q9 -4 19 -6q14 -3 43 -10q13 -5 24 -9q2 -10 2 -16v-14q0 -4 -1 -9h-17q-46 0 -71 3q-43 5 -128 5l-115 -9l-2 25v5q9 15 47 26t58 22q2 5 5 33q5 63 3 206l-2 209q-1 44 -1 70q0 37 -3.5 41 t-9.5 5t-29 1h-62q-44 0 -61 -12t-56 -73q-11 -17 -17 -17zM675.5 112.5q2.5 6.5 15.5 6.5h59v512h-59q-13 0 -15.5 6.5t6.5 16.5l90 90q7 6 15 6t16 -6l90 -90q9 -10 6.5 -16.5t-16.5 -6.5h-58v-512h58q14 0 16.5 -6.5t-6.5 -15.5l-90 -91q-8 -6 -16 -6t-15 6l-90 91 q-9 9 -6.5 15.5z" />
<glyph unicode="&#xf035;" horiz-adv-x="750" d="M0 114q0 9 6 15l91 90q9 10 15.5 7t6.5 -16v-59h512v59q0 13 6.5 16t16.5 -7l90 -90q6 -6 6 -15t-6 -15l-90 -91q-10 -9 -16.5 -6.5t-6.5 16.5v58h-512v-58q0 -14 -6.5 -16.5t-15.5 6.5l-91 91q-6 6 -6 15zM26 585q-17 7 -26 17q14 28 27 78q17 60 21 70h27l23 -35l56 -1 h140l9 1h355l26 3q6 5 10 14q4 14 7 19h33v-153q0 -10 -2 -20q-16 -5 -31 -7q-12 18 -25 48.5t-17 37.5q-6 5 -11 7q-8 2 -64 2h-112q-8 0 -17 -1q-2 -18 -2 -28l2 -217l-1 -58q0 -30 6 -45q6 -3 17 -4.5t19 -3.5t18 -5q22 -5 28 -7q2 -16 2 -19l-1 -12h-16q-46 0 -77.5 3 t-114.5 3l-110 -7q0 8 -1 10v14q10 13 45 21t55 18q3 5 5 22l1 93l-3 213q0 5 -9 9q-7 1 -29 1h-60q-10 0 -30.5 -0.5t-41.5 -1.5q-52 -1 -58 -5q-20 -12 -43.5 -43t-29.5 -31z" />
<glyph unicode="&#xf036;" d="M0 38v56q0 15 11 26t27 11h825q15 0 26 -11t11 -26v-56q0 -16 -11 -27t-26 -11h-825q-16 0 -27 11t-11 27zM0 244v56q0 16 11 27t27 11h525q15 0 26 -11t11 -27v-56q0 -16 -11 -27t-26 -11h-525q-16 0 -27 11t-11 27zM0 450v56q0 16 11 27t27 11h750q15 0 26 -11t11 -27 v-56q0 -16 -11 -26.5t-26 -10.5h-750q-16 0 -27 10.5t-11 26.5zM0 656v57q0 15 11 26t27 11h450q15 0 26 -11t11 -26v-57q0 -15 -11 -26t-26 -11h-450q-16 0 -27 11t-11 26z" />
<glyph unicode="&#xf037;" d="M0 38v56q0 15 11 26t27 11h825q15 0 26 -11t11 -26v-56q0 -16 -11 -27t-26 -11h-825q-16 0 -27 11t-11 27zM38 450v56q0 16 10.5 27t26.5 11h750q16 0 27 -11t11 -27v-56q0 -16 -11 -26.5t-27 -10.5h-750q-16 0 -26.5 10.5t-10.5 26.5zM150 244v56q0 16 11 27t27 11h525 q15 0 26 -11t11 -27v-56q0 -16 -11 -27t-26 -11h-525q-16 0 -27 11t-11 27zM188 656v57q0 15 10.5 26t26.5 11h450q16 0 27 -11t11 -26v-57q0 -15 -11 -26t-27 -11h-450q-16 0 -26.5 11t-10.5 26z" />
<glyph unicode="&#xf038;" d="M0 38v56q0 15 11 26t27 11h825q15 0 26 -11t11 -26v-56q0 -16 -11 -27t-26 -11h-825q-16 0 -27 11t-11 27zM75 450v56q0 16 11 27t27 11h750q15 0 26 -11t11 -27v-56q0 -16 -11 -26.5t-26 -10.5h-750q-16 0 -27 10.5t-11 26.5zM300 244v56q0 16 11 27t27 11h525 q15 0 26 -11t11 -27v-56q0 -16 -11 -27t-26 -11h-525q-16 0 -27 11t-11 27zM375 656v57q0 15 11 26t27 11h450q15 0 26 -11t11 -26v-57q0 -15 -11 -26t-26 -11h-450q-16 0 -27 11t-11 26z" />
<glyph unicode="&#xf039;" d="M0 38v56q0 15 11 26t27 11h825q15 0 26 -11t11 -26v-56q0 -16 -11 -27t-26 -11h-825q-16 0 -27 11t-11 27zM0 244v56q0 16 11 27t27 11h825q15 0 26 -11t11 -27v-56q0 -16 -11 -27t-26 -11h-825q-16 0 -27 11t-11 27zM0 450v56q0 16 11 27t27 11h825q15 0 26 -11t11 -27 v-56q0 -16 -11 -26.5t-26 -10.5h-825q-16 0 -27 10.5t-11 26.5zM0 656v57q0 15 11 26t27 11h825q15 0 26 -11t11 -26v-57q0 -15 -11 -26t-26 -11h-825q-16 0 -27 11t-11 26z" />
<glyph unicode="&#xf03a;" d="M0 38v56q0 15 11 26t27 11h75q15 0 26 -11t11 -26v-56q0 -16 -11 -27t-26 -11h-75q-16 0 -27 11t-11 27zM0 244v56q0 16 11 27t27 11h75q15 0 26 -11t11 -27v-56q0 -16 -11 -27t-26 -11h-75q-16 0 -27 11t-11 27zM0 450v56q0 16 11 27t27 11h75q15 0 26 -11t11 -27v-56 q0 -16 -11 -26.5t-26 -10.5h-75q-16 0 -27 10.5t-11 26.5zM0 656v57q0 15 11 26t27 11h75q15 0 26 -11t11 -26v-57q0 -15 -11 -26t-26 -11h-75q-16 0 -27 11t-11 26zM225 38v56q0 15 11 26t27 11h600q15 0 26 -11t11 -26v-56q0 -16 -11 -27t-26 -11h-600q-16 0 -27 11 t-11 27zM225 244v56q0 16 11 27t27 11h600q15 0 26 -11t11 -27v-56q0 -16 -11 -27t-26 -11h-600q-16 0 -27 11t-11 27zM225 450v56q0 16 11 27t27 11h600q15 0 26 -11t11 -27v-56q0 -16 -11 -26.5t-26 -10.5h-600q-16 0 -27 10.5t-11 26.5zM225 656v57q0 15 11 26t27 11h600 q15 0 26 -11t11 -26v-57q0 -15 -11 -26t-26 -11h-600q-16 0 -27 11t-11 26z" />
<glyph unicode="&#xf03b;" d="M0 369v37q0 19 19 19h104v75q0 15 8 18t19 -8l105 -105q8 -8 8 -17.5t-8 -17.5l-105 -105q-11 -11 -19 -8t-8 19v74h-104q-19 0 -19 19zM300 19v712q0 19 19 19h37q19 0 19 -19v-712q0 -19 -19 -19h-37q-19 0 -19 19zM450 38v56q0 15 11 26t27 11h375q15 0 26 -11t11 -26 v-56q0 -16 -11 -27t-26 -11h-375q-16 0 -27 11t-11 27zM450 244v56q0 16 11 27t27 11h300q15 0 26 -11t11 -27v-56q0 -16 -11 -27t-26 -11h-300q-16 0 -27 11t-11 27zM450 450v56q0 16 11 27t27 11h337q16 0 27 -11t11 -27v-56q0 -16 -11 -26.5t-27 -10.5h-337 q-16 0 -27 10.5t-11 26.5zM450 656v57q0 15 11 26t27 11h262q16 0 27 -11t11 -26v-57q0 -15 -11 -26t-27 -11h-262q-16 0 -27 11t-11 26z" />
<glyph unicode="&#xf03c;" d="M0 38v56q0 15 11 26t26 11h375q16 0 27 -11t11 -26v-56q0 -16 -11 -27t-27 -11h-375q-15 0 -26 11t-11 27zM0 244v56q0 16 11 27t26 11h300q16 0 27 -11t11 -27v-56q0 -16 -11 -27t-27 -11h-300q-15 0 -26 11t-11 27zM0 450v56q0 16 11 27t26 11h338q15 0 26 -11t11 -27 v-56q0 -16 -11 -26.5t-26 -10.5h-338q-15 0 -26 10.5t-11 26.5zM0 656v57q0 15 11 26t26 11h263q15 0 26 -11t11 -26v-57q0 -15 -11 -26t-26 -11h-263q-15 0 -26 11t-11 26zM525 19v712q0 19 19 19h37q8 0 13.5 -5.5t5.5 -13.5v-712q0 -8 -5.5 -13.5t-13.5 -5.5h-37 q-19 0 -19 19zM644 345q-7 9 -7 17.5t7 17.5l106 105q11 11 18.5 8t7.5 -19v-74h105q8 0 13.5 -5.5t5.5 -13.5v-37q0 -8 -5.5 -13.5t-13.5 -5.5h-105v-75q0 -15 -7.5 -18.5t-18.5 7.5z" />
<glyph unicode="&#xf03d;" d="M-2 113v525q0 47 34 79q34 33 79 33h375q45 0 80 -33q33 -32 33 -79v-169l251 272q9 9 17 9t14 -2q18 -8 18 -28v-690q0 -20 -17.5 -27.5t-31.5 6.5l-251 272v-168q0 -46 -33.5 -79.5t-79.5 -33.5h-375q-46 0 -79.5 33.5t-33.5 79.5z" />
<glyph unicode="&#xf03e;" d="M0 56v638q0 23 16.5 39.5t39.5 16.5h788q23 0 39.5 -16.5t16.5 -39.5v-638q0 -23 -16.5 -39.5t-39.5 -16.5h-788q-23 0 -39.5 16.5t-16.5 39.5zM75 75h750v600h-750v-600zM150 150v51l135 176l92 -76l173 262l200 -207v-206h-600zM172 471q-22 22 -22 53.5t22 53.5 t53.5 22t53.5 -22t22 -53.5t-22 -53.5t-53.5 -22t-53.5 22z" />
<glyph unicode="&#xf03f;" d="M321 238l357 321l-279 -345l304 -99l153 635l-812 -422zM396 166l89 -30l-89 -135v165z" />
<glyph unicode="&#xf040;" d="M84 656q-12 0 -20 -8.5t-8 -19.5v-394q0 -12 8 -20.5t20 -8.5h732q11 0 19.5 8.5t8.5 20.5v394q0 11 -8.5 19.5t-19.5 8.5h-732zM844 740q23 0 39.5 -16.5t16.5 -39.5v-507q0 -23 -16.5 -39.5t-39.5 -16.5h-788q-24 0 -40 16.5t-16 39.5v507q0 23 16 39.5t40 16.5h788z M337 65q16 28 32 28h161q10 0 20 -10.5t12 -17.5l28 -57h-281z" />
<glyph unicode="&#xf041;" horiz-adv-x="530" d="M42 343q-42 75 -42 150q0 47 21 95t57 84t84 57t103 21t103 -21t84 -57q78 -78 78 -187q0 -67 -42 -142l-179 -311q-18 -32 -44 -32t-44 32zM134 485q0 -27 10 -51t28 -42t42 -28t51 -10t51 10t41.5 28t28 42t10.5 51t-10.5 51t-28 41.5t-41.5 28t-51 10.5t-51 -10.5 t-42 -28t-28 -41.5t-10 -51z" />
<glyph unicode="&#xf042;" horiz-adv-x="894" d="M239 284q2 2 5.5 21.5t6.5 28.5l-8 12q-22 28 -27.5 47.5t-8 36.5t-5.5 44.5t-4 34.5q-7 58 36 101t101.5 43t101.5 -43t36 -101q-1 -7 -4 -35q-5 -45 -12.5 -72.5t-27.5 -55.5l-9 -12q4 -14 6.5 -29t4.5 -22l96 -15q5 -1 20 -3t23 -3q21 -5 39 -20.5t35.5 -58t22.5 -52 t4 -12.5q-11 -6 -18 -12t-11.5 -8.5t-11.5 -3.5t-10 -1h-571q-13 0 -30.5 12.5t-18.5 12.5q-3 8 7 18q5 10 13 30t17 39.5t26 36t51 20.5q5 1 62 10l33 5l15 3l11 1q2 0 4 2zM724 237q0 -8 22 -8l32 -5q6 -1 18 -2q26 -2 39 -7t23 -16t14 -21q14 -28 21 -49q7 -14 7 -15.5 t-13 -10.5t-21 -9h-181q10 3 23 13t19 12q2 5 -4.5 15.5t-7 12.5t-17.5 41t-28 58q-28 48 -81 58q-16 3 -20 7q-3 4 -5 18l-3 20q-7 51 -7 55q-2 26 14 51t41 37q47 27 103 -6q22 -14 34.5 -39.5t8.5 -53.5q-1 -12 -4.5 -34.5t-5.5 -37.5t-10 -26t-10.5 -14.5t-4.5 -4.5 q-4 -5 -2.5 -10.5t3.5 -15.5t3 -13z" />
<glyph unicode="&#xf043;" horiz-adv-x="531" d="M21 162.5q-21 48.5 -21 95.5q0 85 42 150q10 16 33 47t51 73q68 103 95 192q5 17 17.5 24.5t26.5 5.5q15 2 27.5 -5.5t17.5 -24.5q35 -115 146 -265q23 -31 38 -55q37 -57 37 -123t-21 -114.5t-57 -84.5t-84.5 -57t-103.5 -21t-103 21t-84 57t-57 84.5zM116 205 q0 -26 19.5 -45t47 -19t47 19t19.5 42t-6.5 34t-12.5 18.5t-12 17.5q-18 28 -24 49q-4 9 -11 7q-9 2 -11 -7q-10 -33 -33 -61.5t-23 -54.5z" />
<glyph unicode="&#xf044;" d="M804.5 42.5q-7.5 7.5 -17.5 7.5h-649q-11 0 -18 -7.5t-7 -17.5v0q0 -10 7.5 -17.5t17.5 -7.5h649q10 0 17.5 7.5t7.5 17.5t-7.5 17.5zM773 530l-204 205q-15 15 -35.5 15t-34.5 -14l-400 -401q-15 -14 -15 -35t15 -35l115 -123q16 -16 41 -29t45 -13h76q20 0 45 13t40 29 l312 315q15 15 15 36.5t-15 36.5zM421 177q-28 -27 -45 -27h-77q-9 0 -25 9.5t-24 17.5l-116 119l182 183l201 -201z" />
<glyph unicode="&#xf045;" d="M0 150v450q0 62 44 106t106 44h408q-3 -15 -3 -31v-25q-80 -10 -151 -38h-254q-23 0 -39.5 -16.5t-16.5 -39.5v-450q0 -23 16.5 -39.5t39.5 -16.5h525q23 0 39.5 16.5t16.5 39.5v54q19 12 31 24l63 62v-140q0 -61 -44.5 -105.5t-105.5 -44.5h-525q-63 0 -106 44 q-44 46 -44 106zM188 190v18q0 172 112 278q122 114 348 116v113q0 28 14 34t34 -14l191 -191q13 -12 13 -31.5t-13 -31.5l-191 -191q-20 -20 -34 -14t-14 34v127q-193 0 -308 -78q-104 -71 -121 -190q-2 -13 -14.5 -13t-14.5 12t-2 22z" />
<glyph unicode="&#xf046;" d="M791 403q50 -20 79.5 -64.5t29.5 -99.5q0 -73 -52 -125t-125 -52h-224v175h115q13 0 16 7t-4 18l-157 187q-9 11 -21.5 11t-20.5 -11l-157 -187q-9 -11 -5.5 -18t17.5 -7h115v-175h-219v1q-73 1 -125.5 54t-52.5 127q0 49 24 90t65 66q-6 20 -6 37q0 51 36.5 87t83.5 36 t79 -26q33 69 98 111.5t144 42.5q111 0 189.5 -78.5t78.5 -189.5q0 -11 -1 -17z" />
<glyph unicode="&#xf047;" horiz-adv-x="750" d="M0 375q0 12 8 20l121 120q12 13 21 9t9 -21v-80h169v168h-81q-17 0 -21 9t9 21l120 121q8 8 20 8t20 -8l121 -121q12 -12 8.5 -21t-21.5 -9h-81v-168h169v80q0 17 9 21t21 -9l121 -120q8 -8 8 -20t-8 -20l-121 -120q-12 -13 -21 -9.5t-9 21.5v83h-169v-171h81 q18 0 21.5 -9t-8.5 -21l-121 -121q-8 -8 -20 -8t-20 8l-120 121q-13 12 -9 21t21 9h81v171h-169v-83q0 -17 -9 -21t-21 9l-121 120q-8 8 -8 20z" />
<glyph unicode="&#xf048;" d="M448 -1q-67 24 -121.5 58.5t-87.5 68t-58 73t-36 68.5t-17 59q-8 41 -8 56v219q133 10 263 98q49 33 65 49q98 -85 224 -126q53 -17 104 -21v-219q0 -86 -60 -184q-25 -39 -58 -72.5t-87.5 -68t-122.5 -58.5zM448 649q-10 -11 -41.5 -32t-58.5 -35q-70 -35 -141 -41v-161 q0 -62 45 -135q60 -97 196 -147v551z" />
<glyph unicode="&#xf049;" d="M0 37q0 -15 11 -26t26 -11h75q16 0 27 11t11 26v675q0 16 -11 27t-27 11h-75q-15 0 -26 -11t-11 -27v-675zM150 375q0 13 8 21l319 345q7 9 15 9t16 -2q17 -9 17 -29v-689q0 -20 -17 -28q-19 -7 -31 7l-319 344q-8 9 -8 22zM525 375q0 13 8 21l319 345q7 9 15 9t16 -2 q17 -9 17 -29v-689q0 -20 -17 -28q-19 -7 -31 7l-319 344q-8 9 -8 22z" />
<glyph unicode="&#xf04a;" d="M290 107v643l-267 -108v-642zM612 0v642l267 108v-643zM344 107v643l214 -108v-642z" />
<glyph unicode="&#xf04c;" horiz-adv-x="750" d="M0 34v682q0 14 10 24t24 10h239q14 0 24 -10t10 -24v-682q0 -14 -10 -24t-24 -10h-239q-14 0 -24 10t-10 24zM443 34v682q0 14 10 24t24 10h239q14 0 24 -10t10 -24v-682q0 -14 -10 -24t-24 -10h-239q-14 0 -24 10t-10 24z" />
<glyph unicode="&#xf04d;" d="M900 430q0 28 -43 28h-90l-165 203q3 9 3 27t-17.5 35.5t-41.5 17.5t-41.5 -17t-17.5 -41.5t17.5 -42t41.5 -17.5l10 -1l133 -164h-444l133 164h10q24 0 41.5 17.5t17.5 42t-17.5 42t-42 17.5t-41.5 -17t-17 -35.5t3 -27.5l-165 -203h-124q-43 0 -43 -28t43 -28h814 q43 0 43 28zM807 345h-715q-17 0 -28 -12t-8 -29l39 -265q2 -17 16 -25.5t33 -8.5h612q19 0 32.5 9t16.5 25l39 269q2 17 -8.5 27t-28.5 10zM220 90q0 -12 -8.5 -20t-20 -8t-20 8t-8.5 20v170q0 12 8.5 20t20 8t20 -8t8.5 -20v-170zM390 90q0 -12 -8.5 -20t-20 -8t-20 8 t-8.5 20v170q0 12 8.5 20t20 8t20 -8t8.5 -20v-170zM560 90q0 -12 -8.5 -20t-20 -8t-20 8t-8.5 20v170q0 12 8.5 20t20 8t20 -8t8.5 -20v-170zM730 90q0 -12 -8.5 -20t-20 -8t-20 8t-8.5 20v170q0 12 8.5 20t20 8t20 -8t8.5 -20v-170z" />
<glyph unicode="&#xf04e;" d="M450.5 574q-43.5 0 -74.5 -31t-31 -74.5t31 -74.5t74.5 -31t74.5 31t31 74.5t-31 74.5t-74.5 31zM685 468.5q0 22.5 -5 46.5l38 41l-55 11q-20 42 -54 73l7 56l-52 -24q-40 23 -86 28l-27 50l-28 -50q-46 -5 -86 -28l-52 24l7 -56q-34 -31 -54 -73l-55 -11l38 -41 q-5 -24 -5 -46.5t5 -45.5l-38 -41l55 -11q20 -42 54 -74l7 -7l-36 -290l188 187l187 -187l-36 290l7 7q34 32 54 74l55 11l-38 41q5 23 5 45.5zM450.5 305q-67.5 0 -116 48t-48.5 115.5t48.5 116t116 48.5t116 -48.5t48.5 -116t-48.5 -115.5t-116 -48z" />
<glyph unicode="&#xf04f;" d="M449 626q54 8 78.5 31.5t68.5 36.5t94 3.5t83 -45.5q53 -56 89 -175.5t36 -243.5q0 -58 -18 -100.5t-47.5 -62t-64 -23.5t-69.5 11t-57 38t-32.5 34.5t-20 23.5t-13.5 17q-21 27 -33 43h-188q-32 -45 -46 -60t-24 -26.5t-30.5 -33t-55.5 -36.5t-69.5 -11t-64 23.5 t-47.5 62t-18 100.5q0 124 36 243.5t89 175.5q33 36 83 45.5t94 -3.5t72 -40q9 -9 28 -16t33 -9zM261.5 570q-15.5 0 -26.5 -11.5t-11 -27.5v-55h-54q-16 0 -27.5 -11t-11.5 -26t11.5 -26t27.5 -11h54v-55q0 -16 11 -27.5t26.5 -11.5t26.5 11.5t11 27.5v55h54q17 0 28.5 11 t11.5 26t-11.5 26t-28.5 11h-54v55q0 16 -11 27.5t-26.5 11.5zM683 458q19 0 33 13.5t14 33t-14 33t-33 13.5t-33 -13.5t-14 -33t14 -33t33 -13.5zM589.5 345q19.5 0 33 14t13.5 33.5t-13.5 33t-33 13.5t-33 -13.5t-13.5 -33t13.5 -33.5t33 -14z" />
<glyph unicode="&#xf050;" d="M0 30v690q0 19 17 28q19 7 31 -7l319 -344q8 -9 8 -22t-8 -22l-319 -344q-8 -9 -15.5 -9t-15.5 2q-17 8 -17 28zM375 30v690q0 19 17 28q19 7 31 -7l319 -344q8 -9 8 -22t-8 -22l-319 -344q-8 -9 -15.5 -9t-15.5 2q-17 8 -17 28zM750 37q0 -15 11 -26t26 -11h75 q16 0 27 11t11 26v675q0 16 -11 27t-27 11h-75q-15 0 -26 -11t-11 -27v-675z" />
<glyph unicode="&#xf052;" horiz-adv-x="750" d="M0 34v97q0 14 10 24t24 10h682q14 0 24 -10t10 -24v-97q0 -14 -10 -24t-24 -10h-682q-14 0 -24 10t-10 24zM3 290q-9 21 7 37l341 341q10 10 24 10t24 -10l341 -341q16 -16 7.5 -37t-31.5 -21h-682q-23 0 -31 21z" />
<glyph unicode="&#xf053;" d="M858 749q17 0 23.5 -6.5t6.5 -24.5v-689q0 -17 -6.5 -23.5t-23.5 -6.5h-763q-29 0 -56 28t-27 55v506q0 18 6.5 24t23.5 6h97v100q0 18 6.5 24.5t24.5 6.5h688zM836 52v644h-645v-598h-52v468h-74v-484q0 -7 11.5 -18.5t18.5 -11.5h741zM494 629v-235h-235v235h235z M761 596v-39h-195v39h195zM761 476v-38h-195v38h195zM761 317v-39h-502v39h502zM761 196v-39h-502v39h502z" />
<glyph unicode="&#xf054;" d="M49 537q-61 -135 -24 -246t137 -186.5t230 -97.5q73 -10 100 25q29 36 27 88q-1 27 -4 54t2.5 45.5t20 28t29.5 15t39 5.5q41 0 81 -5q82 -10 141.5 39t59.5 129.5t-50.5 139.5t-123.5 97.5t-147 59t-150 21t-144.5 -19.5t-127.5 -69t-96 -123zM102 246q-33 61 -34 126.5 t24.5 121t69.5 100.5t104 72t115.5 30t119.5 -9.5t131.5 -38.5t120 -65.5t73 -91t-9.5 -115.5q-28 -52 -79 -56q-25 -2 -58 2t-44 4q-96 9 -150 -50q-28 -30 -28 -75q0 -13 7 -46q11 -59 -4 -80q-21 -28 -88 -9q-9 3 -25 8q-180 50 -245 172zM146 473.5q0 27.5 15.5 46.5 t37.5 23.5t44 0t37.5 -23t15.5 -46t-15.5 -46.5t-37.5 -23.5t-44 -0.5t-37.5 23t-15.5 46.5zM167 263.5q0 24.5 13.5 41t33 20.5t38.5 0t32.5 -20.5t13.5 -40.5t-13.5 -40.5t-32.5 -20.5t-38.5 -0.5t-33 20t-13.5 41zM343 570.5q0 27.5 15.5 46.5t37.5 23.5t44 0.5t37 -22.5 t15 -46t-15 -46.5t-37 -23.5t-44 -0.5t-37.5 22.5t-15.5 46zM570.5 580q11.5 14 28 17.5t33 0.5t28 -17t11.5 -34.5t-11.5 -35t-28 -17.5t-33 0t-28 17t-11.5 34.5t11.5 34.5z" />
<glyph unicode="&#xf055;" d="M753 526l15 3q26 0 35 -25q22 -61 22 -129t-22 -129q-9 -25 -36 -25q-6 0 -15 3q-49 -99 -151 -151q6 -18 -1 -31.5t-21 -19.5q-64 -22 -128.5 -22t-129.5 22q-13 6 -19 18q-8 15 -2 33q-100 49 -152 151q-9 -3 -15 -3q-26 0 -35 25q-23 63 -23 129t23 129q9 25 35 25 l15 -3q52 103 152 151q-6 18 1 31.5t20 19.5q65 22 130.5 22t127.5 -23q14 -5 21 -17q7 -15 1 -33q101 -50 152 -151zM767 259q42 116 1 232l-148 -37q17 -37 17 -79t-17 -79zM566 58l-36 147q-37 -18 -79 -17.5t-80 17.5l-36 -147q54 -21 115.5 -20.5t115.5 20.5zM530 243 q21 0 32 -18q21 15 39 38q-19 11 -19 32q0 8 4 17q14 28 14 62.5t-9 53t-9 26.5q0 20 19 33q-17 22 -39 38q-11 -18 -32 -18q-9 0 -27 9t-52.5 9t-52.5 -9t-27 -9q-21 0 -32 18q-22 -16 -39 -38q19 -11 19 -33q0 -8 -9.5 -28t-9.5 -51.5t9.5 -51t9.5 -28t-5 -16.5 q-3 -9 -14 -16q14 -19 39 -39q11 19 32 19q9 0 27 -9t52.5 -9t52.5 9t27 9zM133 491q-21 -60 -21 -116.5t21 -115.5l147 37q-18 40 -18 79.5t19 78.5zM566 692q-54 21 -115.5 20.5t-115.5 -20.5l36 -147q38 17 79.5 17t79.5 -17z" />
<glyph unicode="&#xf056;" d="M454 557l-131 -369l-114 174l-93 -86l-41 35l146 136l87 -132l154 435l141 -545l118 372l105 -335l-55 -14l-50 161l-123 -389z" />
<glyph unicode="&#xf057;" horiz-adv-x="750" d="M0 376q0 72 27.5 141t82.5 124t124 82t141 27t141 -27t124 -82t82.5 -124t27.5 -141t-27.5 -141t-82.5 -124t-124 -82.5t-141 -27.5t-141 27.5t-124 82.5t-82.5 124t-27.5 141zM185 240l55 -54q5 -5 11 -5t11 5l114 114l103 -104q5 -5 11 -5t11 5l53 53q11 11 0 22 l-104 103l115 115q11 11 0 22l-55 55q-11 11 -22 0l-114 -115l-104 104q-11 11 -22 0l-52 -53q-5 -5 -5 -11t5 -11l103 -103l-114 -115q-10 -10 0 -22z" />
<glyph unicode="&#xf058;" horiz-adv-x="750" d="M0 375q0 78 29.5 146t80.5 119t119 80.5t146 29.5t146 -29.5t119 -80.5t80.5 -119t29.5 -146t-29.5 -146t-80.5 -119t-119 -80.5t-146 -29.5t-146 29.5t-119 80.5t-80.5 119t-29.5 146zM112 351.5q0 -9.5 7 -16.5l150 -150q19 -16 39 -16h25q20 0 39 16l259 259 q7 7 7 16.5t-7 15.5l-50 50q-6 7 -15.5 7t-16.5 -7l-212 -213q-7 -7 -16.5 -7t-15.5 7l-104 104q-7 7 -16.5 7t-15.5 -7l-50 -49q-7 -7 -7 -16.5z" />
<glyph unicode="&#xf059;" horiz-adv-x="750" d="M0 375q0 78 29.5 146t80.5 119t119 80.5t146 29.5t146 -29.5t119 -80.5t80.5 -119t29.5 -146t-29.5 -146t-80.5 -119t-119 -80.5t-146 -29.5t-146 29.5t-119 80.5t-80.5 119t-29.5 146zM250 531l44 -55q13 -8 20.5 -1.5t16.5 11.5q23 11 42 11t32 -10.5t13 -27t-11.5 -30 t-25.5 -25.5t-25 -22.5t-20 -23.5q-21 -32 -21 -68v-30q0 -5 4.5 -9.5t9.5 -4.5h77q6 0 10 4.5t4 9.5v25q0 18 12 31t26.5 25.5t26.5 24t21 26.5q23 36 23 71.5t-13 60.5t-34 42q-44 33 -103 33q-49 0 -93 -24q-19 -10 -31.5 -22.5t-4.5 -21.5zM315 132q0 -5 4.5 -9.5 t9.5 -4.5h77q6 0 10 4.5t4 9.5v74q0 14 -14 14h-77q-5 0 -9.5 -4t-4.5 -10v-74z" />
<glyph unicode="&#xf05a;" horiz-adv-x="750" d="M0 375q0 78 29.5 146t80.5 119t119 80.5t146 29.5t146 -29.5t119 -80.5t80.5 -119t29.5 -146t-29.5 -146t-80.5 -119t-119 -80.5t-146 -29.5t-146 29.5t-119 80.5t-80.5 119t-29.5 146zM269 418q0 -14 14 -14h40v-192h-37q-5 0 -9.5 -4.5t-4.5 -9.5v-66q0 -5 4.5 -9.5 t9.5 -4.5h189q5 0 9.5 4.5t4.5 9.5v66q0 5 -4.5 9.5t-9.5 4.5h-36v271q0 6 -4.5 10t-9.5 4h-142q-14 0 -14 -14v-65zM322 555q0 -6 4.5 -10.5t10.5 -4.5h88q5 0 9.5 4.5t4.5 10.5v77q0 6 -4.5 10t-9.5 4h-88q-6 0 -10.5 -4t-4.5 -10v-77z" />
<glyph unicode="&#xf05b;" horiz-adv-x="750" d="M0 338v75q0 8 5.5 13t13.5 5h80q18 83 77.5 142.5t142.5 77.5v80q0 19 19 19h75q8 0 13 -5.5t5 -13.5v-80q83 -18 142.5 -77.5t77.5 -142.5h80q8 0 13.5 -5t5.5 -13v-75q0 -19 -19 -19h-80q-18 -83 -77.5 -142.5t-142.5 -77.5v-80q0 -8 -5 -13.5t-13 -5.5h-75 q-19 0 -19 19v80q-83 18 -142.5 77.5t-77.5 142.5h-80q-19 0 -19 19zM178 319q14 -52 51.5 -89.5t89.5 -51.5v85q0 8 5.5 13t13.5 5h75q8 0 13 -5t5 -13v-85q52 14 89.5 51.5t51.5 89.5h-84q-19 0 -19 19v75q0 8 5.5 13t13.5 5h84q-14 52 -51.5 89.5t-89.5 51.5v-84 q0 -8 -5 -13.5t-13 -5.5h-75q-19 0 -19 19v84q-52 -14 -89.5 -51.5t-51.5 -89.5h85q8 0 13 -5t5 -13v-75q0 -8 -5 -13.5t-13 -5.5h-85z" />
<glyph unicode="&#xf05c;" d="M824 0h-749q-22 0 -29.5 13.5t4.5 32.5l292 476v121h-53q-22 0 -38 17t-16 37t16 36.5t38 16.5h321q22 0 38 -16.5t16 -36.5t-16 -37t-38 -17h-53v-121l293 -476q11 -19 3.5 -32.5t-29.5 -13.5zM518 431.5q0 14.5 -10.5 25t-25 10.5t-25 -10.5t-10.5 -25t10.5 -24.5 t25 -10t25 10t10.5 24.5zM657 153l-71 115h-101q0 20 -14 34.5t-34.5 14.5t-34.5 -14.5t-15 -34.5h-106l-70 -115q-12 -19 -4.5 -32.5t29.5 -13.5h395q22 0 29.5 13.5t-3.5 32.5z" />
<glyph unicode="&#xf05d;" horiz-adv-x="750" d="M0 375q0 78 29.5 146t80.5 119t119 80.5t146 29.5t146 -29.5t119 -80.5t80.5 -119t29.5 -146t-29.5 -146t-80.5 -119t-119 -80.5t-146 -29.5t-146 29.5t-119 80.5t-80.5 119t-29.5 146zM113 375q0 -54 20.5 -102t56 -83.5t83.5 -56t102 -20.5t102 20.5t84 56t56.5 83.5 t20.5 102t-20.5 102t-56.5 84t-84 56.5t-102 20.5t-102 -20.5t-83.5 -56.5t-56 -84t-20.5 -102zM156 352q0 8 5 13l53 53q5 5 13 5t14 -5l83 -84q13 -12 27 0l158 159q6 5 14 5t13 -5l53 -53q5 -5 5 -13t-5 -14l-192 -192q-16 -13 -32 -13h-55q-16 0 -32 13l-117 117 q-5 6 -5 14z" />
<glyph unicode="&#xf05e;" d="M900 495v-124l-899 2v113q0 39 25 73q11 15 35 27t44 12t124 -1q10 49 49 81t89 32l169 -1q50 0 88.5 -32t48.5 -81h104t67.5 -12t33.5 -28q19 -32 22 -61zM288 597l327 -1q-9 25 -30.5 41t-48.5 16h-169q-27 0 -49 -15.5t-30 -40.5zM563 315l-1 -56q0 -23 -16.5 -39.5 t-39.5 -16.5h-112q-24 0 -40.5 17t-16.5 40l1 56l-338 1v-220q0 -22 23 -40q26 -21 85 -21q639 -2 673.5 -2.5t58 6t34.5 14.5t18 18q7 13 7 22l1 220zM506 316h-112v-56l112 -1v57z" />
<glyph unicode="&#xf05f;" d="M436 319l-265 -265q-9 -9 -9 -22t9 -22t19 -9t16 3q441 191 452 196t16 22l71 258l15 -15q11 -11 26.5 -11t27 11.5t11.5 27t-11 27.5l-220 220q-12 11 -27.5 11t-27 -11t-11.5 -27t11 -27l15 -15l-258 -71q-18 -6 -25 -22l-193 -446q-3 -6 -3 -16t9 -19t22.5 -9t22.5 10 l264 264q-5 15 -5 30q0 32 22.5 55t55 23t55.5 -23t23 -55.5t-23 -55.5t-55 -23q-15 0 -30 6z" />
<glyph unicode="&#xf060;" d="M21 294v391q0 27 19 46t46 19h482q28 0 46.5 -19t18.5 -46v-72h-100v44h-412v-333h57v-94h-92q-27 0 -46 19t-19 45zM264 63v399q0 26 19.5 45t45.5 19h483q27 0 45.5 -19t18.5 -45v-399q0 -26 -18.5 -45t-45.5 -19h-483q-26 0 -45.5 19t-19.5 45zM363 92h414v342h-414 v-342z" />
<glyph unicode="&#xf061;" d="M466 616l3 -35q0 -28 -11 -61l-68 39q-10 6 -18 6q-28 0 -40 -22q-6 -9 -7 -18.5t4 -18.5q5 -14 18 -21l26 -15l-180 -312l5 -9q11 -20 11 -44t-6 -50l-3 -12l75 -44l10 10q41 42 82 42h12l179 311l26 -14q9 -6 16 -6h14q17 2 25.5 16.5t8.5 23.5q0 27 -21 40l-69 40 q33 36 66.5 49t53.5 41q26 39 26 83q0 23 -10.5 52.5t-41.5 52.5q-20 9 -45 9h-2q-48 0 -96 -41q-43 -37 -43 -92zM246 69q0 5 3.5 20.5t4.5 25t0 15.5q-1 12 -7 27l162 282l105 -60l-163 -282q-7 0 -12 -1l-10 -3l-10 -5q-10 -6 -16.5 -11.5t-8.5 -7.5q-8 -6 -19 -17z" />
<glyph unicode="&#xf062;" d="M801 515v-515h-235v515h235zM660 141h-47v-47h47v47zM660 234h-47v-47h47v47zM660 328h-47v-47h47v47zM660 422h-47v-47h47v47zM754 141h-47v-47h47v47zM754 234h-47v-47h47v47zM754 328h-47v-47h47v47zM754 422h-47v-47h47v47zM520 375v-375h-422v375l47 47h47v140 l46 94h47v94h47v-94h47l47 -94v-140h47zM332 515h47v47h-47v-47zM239 515h46v47h-46v-47zM238 94v47h-46v-47h46zM238 187v47h-46v-47h46zM238 281v47h-46v-47h46zM239 422h46v46h-46v-46zM332 141h-47v-47h47v47zM332 234h-47v-47h47v47zM332 328h-47v-47h47v47zM332 422 h47v46h-47v-46zM426 141h-47v-47h47v47zM426 234h-47v-47h47v47zM426 328h-47v-47h47v47z" />
<glyph unicode="&#xf063;" d="M678 735q0 15 -15 15h-430q-6 0 -10.5 -4.5t-4.5 -10.5v-19h-87q-17 0 -28.5 -12t-11.5 -28v-635q0 -16 11.5 -28t28.5 -12h637q17 0 28.5 12t11.5 28v580l-96 95h-34v19zM177 77v255q0 12 9 21t21 9h486q12 0 21 -9t9 -21v-255q0 -13 -9 -21.5t-21 -8.5h-486 q-12 0 -21 8.5t-9 21.5zM252 473v228q0 6 4.5 10.5t10.5 4.5h361q6 0 10.5 -4.5t4.5 -10.5v-228q0 -6 -4.5 -10.5t-10.5 -4.5h-361q-6 0 -10.5 4.5t-4.5 10.5zM495.5 495.5q4.5 -4.5 11.5 -4.5h66q6 0 11 4.5t5 10.5v164q0 7 -5 11.5t-11 4.5h-66q-7 0 -11.5 -4.5 t-4.5 -11.5v-164q0 -6 4.5 -10.5z" />
<glyph unicode="&#xf064;" d="M0 66q0 102 35 192t107 158q154 145 440 147v143q0 35 17.5 42.5t43.5 -17.5l240 -241q17 -16 17 -39.5t-17 -40.5l-240 -241q-25 -25 -43 -17.5t-18 42.5v161q-245 -2 -389 -99q-132 -90 -153 -240q-2 -16 -18 -16h-1q-16 0 -18.5 20.5t-2.5 45.5z" />
<glyph unicode="&#xf065;" horiz-adv-x="750" d="M0 42v255q0 26 13 31.5t32 -12.5l81 -81l134 134q6 6 15 6t16 -6l78 -78q6 -7 6 -16t-6 -15l-134 -134l81 -81q19 -19 13 -32t-32 -13h-254q-18 0 -30.5 12.5t-12.5 29.5zM375 475q0 9 6 15l134 134l-81 81q-19 19 -13 32t32 13h254q18 0 30.5 -12.5t12.5 -29.5v-255 q0 -26 -13 -31.5t-32 12.5l-81 81l-134 -133q-6 -7 -15 -7t-16 7l-78 77q-6 7 -6 16z" />
<glyph unicode="&#xf066;" horiz-adv-x="750" d="M0 99q0 9 6 16l134 133l-81 81q-19 19 -13 32t32 13h254q19 0 31 -12.5t12 -29.5v-255q0 -26 -13 -31.5t-32 13.5l-81 81l-134 -134q-6 -7 -15 -7t-16 7l-78 78q-6 6 -6 15zM375 417v255q0 26 13 31.5t32 -13.5l81 -81l134 134q6 7 15 7t16 -7l78 -78q6 -6 6 -15t-6 -16 l-134 -133l81 -81q19 -19 13 -32t-32 -13h-254q-20 0 -30 12q-13 13 -13 30z" />
<glyph unicode="&#xf067;" d="M21 214l429 -107l428 107v-107l-428 -107l-429 107v107zM21 429l429 -108l428 108v-108l-428 -107l-429 107v108zM21 643l429 107l428 -107v-107l-428 -107l-429 107v107z" />
<glyph unicode="&#xf068;" d="M824 94h-749v-94h749v94zM824 421h-749v94h749v-94zM169 562l281 187l280 -187h-561zM215 94h-93v281h93v-281zM403 94h-94v281h94v-281zM590 94h-94v281h94v-281zM777 94h-93v281h93v-281z" />
<glyph unicode="&#xf069;" d="M75 0v469h750v-469h-750zM497 562v188h234l94 -188h-328zM403 750v-188h-328l94 188h234z" />
<glyph unicode="&#xf06b;" d="M0 281v188q0 8 5.5 13.5t13.5 5.5h258q-55 0 -93 38q-39 39 -39 93q0 55 39 93q40 38 93 38q63 0 98 -45l75 -97l75 97q35 45 98 45q53 0 93 -38q39 -38 39 -93q0 -54 -39 -93q-38 -38 -93 -38h258q8 0 13.5 -5.5t5.5 -13.5v-188q0 -8 -5.5 -13t-13.5 -5h-56v-207 q0 -23 -16.5 -39.5t-39.5 -16.5h-638q-23 0 -39.5 16.5t-16.5 39.5v207h-56q-8 0 -13.5 5t-5.5 13zM220 619q0 -23 17 -39.5t40 -16.5h113l-73 94q-18 18 -40.5 18t-39.5 -16.5t-17 -39.5zM356 105q0 -15 11 -26t27 -11h112q16 0 27 11t11 26v383h-188v-383zM509 563h114 q23 0 40 16.5t17 39.5t-17 39.5t-36 16.5q-26 0 -44 -18z" />
<glyph unicode="&#xf06c;" d="M8 41q-13 18 -4.5 40t25 38.5t32 29t25.5 22t12 15.5q2 8 -2 18q-9 21 -12 33q-22 140 63 253q74 99 202 143q38 14 83.5 16.5t84.5 3t70.5 1.5t60.5 6q67 10 93 38q10 10 18.5 19.5t18.5 16.5q21 16 45.5 16t34.5 -21q62 -121 32 -283q-42 -228 -272 -347 q-110 -57 -220 -57q-77 0 -144 25q-11 4 -21.5 9.5t-22.5 11.5q-35 20 -48 21q-9 -2 -20 -18t-17 -25.5t-11 -17.5q-9 -16 -21 -32t-30 -16h-2q-28 2 -39 17.5t-14 23.5zM188.5 253.5q1.5 -15.5 12.5 -25.5t27 -10t26 13q85 97 176 137q91 39 214 35q15 -2 26.5 9.5t12 27 t-10 27t-26.5 11.5q-207 9 -350 -104q-50 -39 -98 -94q-11 -11 -9.5 -26.5z" />
<glyph unicode="&#xf06d;" horiz-adv-x="675" d="M26.5 120q-26.5 40 -26.5 96t30.5 117.5t82.5 111.5q-18 -125 31 -192q22 -30 53 -44q-34 150 1 291q41 162 182 250q-38 -81 -11 -161q11 -35 30.5 -59t34 -42.5t24.5 -42.5q23 -51 23 -135q-9 20 -27 32t-45.5 12t-49 -22t-21.5 -45.5t5.5 -37.5t16.5 -25 q25 -23 75 -23q44 4 77 31q33 30 43 64q21 65 8 149h-1q52 -50 82.5 -111.5t30.5 -117.5t-26.5 -96t-72.5 -66.5t-107 -40t-131 -13.5t-131.5 13.5t-107.5 40t-72.5 66.5z" />
<glyph unicode="&#xf06e;" d="M0 376q8 13 39.5 49t59.5 62.5t70 59t83.5 55.5t94.5 39.5t113 16.5t132 -29t125 -71q109 -87 162 -153l21 -29q-24 -36 -79.5 -91t-105.5 -92.5t-122.5 -67.5t-142.5 -30q-178 0 -362 180q-55 55 -88 101zM310.5 515.5q-57.5 -57.5 -57.5 -139t57.5 -139t139.5 -57.5 t139.5 57.5t57.5 139t-57.5 139t-139.5 57.5t-139.5 -57.5zM390.5 317q-24.5 25 -24.5 59.5t24.5 59.5t59.5 25t60 -25t25 -59.5t-25 -59.5t-60 -25t-59.5 25z" />
<glyph unicode="&#xf06f;" d="M676 626q0 23 -16.5 39.5t-40.5 16.5h-122q-12 0 -20.5 -8.5t-8.5 -19.5q0 -14 15 -26q24 -25 24 -59.5t-25 -59t-60 -24.5t-59.5 24.5t-24.5 58.5q0 36 28 64q10 9 10 21t-8 20.5t-20 8.5h-66q-24 0 -40.5 -16.5t-16.5 -39.5v-160q0 -12 -8 -20t-20 -8t-20 8 q-30 39 -74.5 39t-73.5 -29t-29 -70t29 -69.5t72.5 -28.5t73.5 36q9 11 21.5 11t20.5 -8.5t8 -19.5v-160q0 -23 16.5 -39.5t40.5 -16.5h108q12 0 20 8t8 20.5t-6 17.5q-32 27 -32 64t25 62t59.5 25t59.5 -25t25 -59q0 -36 -28 -64q-10 -8 -10 -20.5t8 -21t20 -8.5l80 1 q24 0 40.5 16.5t16.5 39.5v159q0 12 8 20.5t20.5 8.5t20.5 -11h1q29 -36 73 -36t73 28.5t29 69.5t-29 70t-74 29t-74 -39q-8 -9 -20 -9t-20 8.5t-8 20.5v160z" />
<glyph unicode="&#xf070;" d="M315 5q-7 -12 -17 -6l-80 45q-10 5 -3 17l47 84q-87 45 -175 131q-55 55 -88 101q8 13 39.5 49t59.5 62.5t70 59t83.5 55.5t94.5 39.5t101 16.5t96 -13l55 99q7 12 17 6l80 -44q10 -6 4 -18zM449 574q-82 0 -139.5 -57.5t-57.5 -139t61 -142.5l59 107q-7 16 -7 43 t22.5 50t51.5 26l60 107q-24 6 -50 6zM899 377l-21 29q-49 61 -156 149l-79 -141q3 -18 3 -37q0 -81 -57 -139q-32 -31 -70 -45l-54 -97q62 3 130.5 31.5t118.5 66t98 85.5q63 62 87 98z" />
<glyph unicode="&#xf071;" d="M825 282v-281h-328v281h141v93h-375v-93h141v-281h-328v281h140v140h211v47h-141v281h328v-281h-140v-47h210v-140h141zM123 235v-47h234v47h-234zM567 656v47h-234v-47h234zM778 235h-234v-47h234v47z" />
<glyph unicode="&#xf072;" d="M394 10q0 65 -158 62q-66 0 -113 -3t-66 -3v56l-28 1h-29v618q108 0 195 -15.5t137 -33t84 -49t34 -71.5q0 40 34 71.5t84 49t114 29.5q110 19 218 19v-618h-29l-28 -1v-56q-19 0 -53 2t-63 3t-63.5 1.5t-60.5 -2.5t-49 -10q-48 -13 -48 -50h-112zM57 207q249 -1 337 -53 v418q0 5 -2 11q-14 81 -239 97h-9q-28 4 -87 4v-477zM843 684q-213 0 -298 -58q-39 -26 -39 -54v-418q88 52 337 53v477z" />
<glyph unicode="&#xf073;" horiz-adv-x="750" d="M0 56v549q0 23 16.5 39.5t39.5 16.5h36v-69q0 -28 19.5 -47.5t47.5 -19.5h15q28 0 48 19.5t20 47.5v69h58v-69q0 -28 19.5 -47.5t47.5 -19.5h16q28 0 47.5 19.5t19.5 47.5v69h58v-69q0 -28 20 -47.5t48 -19.5h15q28 0 47.5 19.5t19.5 47.5v69h36q23 0 39.5 -16.5 t16.5 -39.5v-549q0 -23 -16.5 -39.5t-39.5 -16.5h-638q-23 0 -39.5 16.5t-16.5 39.5zM75 75h600v398h-600v-398zM129 592v128q0 12 9 21t21 9h15q13 0 21.5 -9t8.5 -21v-128q0 -12 -8.5 -20.5t-21.5 -8.5h-15q-12 0 -21 8.5t-9 20.5zM179 135q-2 12 -2 23q0 36 20 58.5 t43.5 39t43.5 32t20 36.5q0 38 -40 38q-30 0 -50 -33l-34 23q15 30 48 46q16 8 45.5 8t55.5 -20.5t26 -58.5q0 -48 -62 -87q-39 -25 -51 -38.5t-12 -27.5h92v34h42v-73h-185zM338 592v128q0 12 8.5 21t20.5 9h16q12 0 21 -9t9 -21v-128q0 -12 -9 -20.5t-21 -8.5h-16 q-12 0 -20.5 8.5t-8.5 20.5zM397 330v71h187v-34l-117 -232h-51l107 212q2 6 9 15v1q-3 0 -5 -1h-88v-32h-42zM546 592v128q0 12 8.5 21t21.5 9h15q12 0 21 -9t9 -21v-128q0 -12 -9 -20.5t-21 -8.5h-15q-13 0 -21.5 8.5t-8.5 20.5z" />
<glyph unicode="&#xf074;" d="M0 122v75q0 19 19 19h107q61 0 138 115q22 33 46.5 72t53.5 81.5t62 75.5q74 74 160 74h99v90q0 20 12 24t29 -10l163 -135q11 -9 11 -22.5t-11 -22.5l-163 -136q-17 -14 -29 -10t-12 24v86h-99q-62 0 -139 -115q-22 -33 -46.5 -72.5t-53 -81.5t-61.5 -75 q-74 -74 -160 -74h-107q-8 0 -13.5 5t-5.5 13zM231 453q-56 69 -105 69h-107q-8 0 -13.5 5.5t-5.5 13.5v75q0 8 5.5 13.5t13.5 5.5h107q92 0 170 -85q-18 -26 -65 -97zM481 287q56 -69 105 -69h99v94q0 20 12 24t29 -10l163 -136q11 -9 11 -22.5t-11 -22.5l-163 -135 q-17 -14 -29 -10t-12 24v82h-99q-53 0 -93.5 23t-75.5 61q29 40 64 97z" />
<glyph unicode="&#xf075;" d="M48 272.5q-48 67.5 -48 142t35.5 134.5t96.5 104.5t143 70.5t175 26t175 -26t143 -70.5t96.5 -104.5t35.5 -128t-35.5 -128t-96.5 -104.5t-143 -70.5t-175 -26q-44 0 -84 6q-88 -67 -194 -90l-24 -4q-12 -2 -26.5 -4t-18.5 14v1q-2 7 3 11l9 10q29 32 36 46q17 32 26 78 q-81 45 -129 112.5z" />
<glyph unicode="&#xf076;" horiz-adv-x="750" d="M0 311v139q0 8 5.5 13.5t13.5 5.5h187q8 0 13.5 -5.5t5.5 -13.5v-139q0 -28 41 -56q45 -30 108.5 -30t109.5 30q41 28 41 56v139q0 8 5.5 13.5t13.5 5.5h187q8 0 13.5 -5.5t5.5 -13.5v-139q0 -65 -29.5 -121.5t-80.5 -98.5t-119 -66.5t-146 -24.5t-146 24.5t-119 66.5 t-80.5 98.5t-29.5 121.5zM0 544v187q0 19 19 19h187q19 0 19 -19v-187q0 -19 -19 -19h-187q-19 0 -19 19zM525 544v187q0 19 19 19h187q19 0 19 -19v-187q0 -19 -19 -19h-187q-19 0 -19 19z" />
<glyph unicode="&#xf077;" d="M832 188v-113l-113 -75l-113 75v113l113 75zM801 171l-82 55l-82 -55l82 -55zM791 658v-137l-137 -91l-137 91v137l137 91zM754 638l-100 67l-100 -67l100 -66zM538 393v-236l-236 -157l-236 157v236l236 157zM474 359l-172 114l-172 -114l172 -115z" />
<glyph unicode="&#xf078;" d="M527 34q6 -6 6 -14.5t-6 -15t-15 -6.5h-125q-9 0 -15 6.5t-6 15t6 14.5t15 6h125q9 0 15 -6zM554 124q8 0 14.5 -6.5t6.5 -14.5v-21q0 -9 -6.5 -15t-14.5 -6h-209q-8 0 -14.5 6t-6.5 15v21q0 8 6.5 14.5t14.5 6.5h209zM554 207q8 0 14.5 -6t6.5 -15v-21q0 -8 -6.5 -14 t-14.5 -6h-209q-8 0 -14.5 6t-6.5 14v21q0 9 6.5 15t14.5 6h209zM449.5 750q103.5 0 177 -70.5t73.5 -169.5q0 -57 -26 -107t-72 -84l-38 -90h-231l-36 90q-46 34 -72 84t-26 107q0 99 73.5 169.5t177 70.5z" />
<glyph unicode="&#xf079;" d="M898 537v-470q0 -17 -11 -28.5t-26 -11.5h-38v550h38q15 0 26 -11.5t11 -28.5zM697 577h51v-550h-599v550h56q73 144 131 144h223q35 0 72 -44t66 -100zM502 590q14 0 23.5 10t9.5 24t-9.5 23t-23.5 9h-112q-14 0 -23 -9t-9 -23t9 -24t23 -10h112zM37 577h37v-550h-37 q-15 0 -26 11.5t-11 28.5v470q0 17 11 28.5t26 11.5z" />
<glyph unicode="&#xf07a;" d="M0 694v37q0 19 19 19h113q15 0 36 -6q16 -11 24 -42l13 -61h658q17 0 28 -13t8 -29l-53 -282q-3 -12 -13 -20.5t-24 -8.5h-529l17 -82q5 -18 23 -18h418q8 0 13.5 -5.5t5.5 -13.5v-38q0 -8 -5.5 -13t-13.5 -5h-449q-33 0 -42 13q-12 17 -17 35l-105 496q-5 18 -23 18h-83 q-19 0 -19 19zM284 56q0 23 16.5 40t40 17t40 -17t16.5 -40t-16.5 -39.5t-40 -16.5t-40 16.5t-16.5 39.5zM602 56q0 23 16.5 40t39.5 17t39.5 -17t16.5 -40t-16.5 -39.5t-39.5 -16.5t-39.5 16.5t-16.5 39.5z" />
<glyph unicode="&#xf07b;" d="M0 56v638q0 23 16.5 39.5t39.5 16.5h338q23 0 39.5 -16.5t16.5 -39.5t16.5 -39.5t39.5 -16.5h338q23 0 39.5 -17t16.5 -40v-525q0 -23 -16.5 -39.5t-39.5 -16.5h-788q-23 0 -39.5 16.5t-16.5 39.5z" />
<glyph unicode="&#xf07c;" d="M0 185v509q0 23 16.5 39.5t39.5 16.5h338q23 0 39.5 -16.5t16.5 -39.5t16.5 -39.5t39.5 -16.5h216q23 0 39.5 -17t16.5 -40v-108h-600q-35 0 -67 -23q-31 -21 -43 -56zM21 0l120 371q3 11 15 19t23 8h721l-127 -370q-3 -11 -15 -19.5t-23 -8.5h-714z" />
<glyph unicode="&#xf07d;" d="M434 121q21 -21 21 -49.5t-20.5 -48.5t-49 -20t-48.5 20t-20 48.5t20 49.5l49 48zM361 430q0 41 -28.5 69.5t-67.5 28.5l200 201q20 20 48.5 20t49 -20t20.5 -48.5t-21 -49.5zM706 322q0 -29 -21 -50l-201 -200q0 40 -29 69l-240 240q-21 20 -21 49t20.5 49t49 20 t48.5 -20t20 -49t-20 -49l21 -20l181 181l146 -145l25 -26q21 -20 21 -49zM558 421l-34 34l-143 -143l34 -34zM637 342l-34 34l-143 -143l34 -34z" />
<glyph unicode="&#xf07e;" d="M717 327q0 -41 -29 -70l-225 -225q-29 -30 -70.5 -30t-70.5 29.5t-29 70.5t29 70l36 36l-146 146q-29 29 -29 70q0 49 38 79l216 217q29 29 70.5 29t70.5 -29t29 -70.5t-29 -70.5l-36 -36l146 -146q29 -29 29 -70zM307 521q26 -7 46 -26q19 -20 26 -46l150 150l15 14 q15 15 15 36.5t-15 36.5t-36.5 15t-35.5 -15zM443 102q0 21 -14 36l-37 36l-36 -36q-15 -15 -15 -36t15 -36t36.5 -15t36 15t14.5 36zM669 327q0 21 -15 36l-146 146l-155 -155l-35 34q15 15 15 36.5t-14.5 36t-36 14.5t-36.5 -14.5t-15 -36t15 -36.5l217 -216 q19 -19 26 -46l165 165q15 15 15 36zM530 432l-128 -128l-35 34l129 129zM582 381l-129 -129l-34 34l129 129zM599 364l34 -35l-128 -128l-35 34z" />
<glyph unicode="&#xf07f;" d="M277 1l-114 113l472 471q75 -16 101 -77q9 -21 12 -36zM715 477q-6 31 -19 45q-24 23 -48 28l-9 3l-127 -127l76 -76zM357 536l82 73l-107 7l-41 104l-40 -104l-106 -9l82 -72l-25 -109l90 59l91 -59zM553 647l45 41l-59 4l-23 58l-22 -58l-59 -5l45 -41l-14 -61l51 34 l51 -33z" />
<glyph unicode="&#xf080;" d="M75 0h187v327h-187v-327zM356 0h187v749h-187v-749zM637 0h187v515h-187v-515z" />
<glyph unicode="&#xf081;" d="M306 457.5q11 10.5 27 10.5h530q15 0 26 -10.5t11 -27.5v-393q0 -15 -11 -26t-26 -11h-530q-16 0 -27 11t-11 26v393q0 17 11 27.5zM0 38v675q0 16 11 26.5t27 10.5h145q15 0 26 -10.5t11 -26.5v-675q0 -15 -11 -26.5t-26 -11.5h-145q-16 0 -27 11.5t-11 26.5zM306 739 q11 11 27 11h530q15 0 26 -11t11 -27v-132q0 -16 -11 -26.5t-26 -10.5h-530q-16 0 -27 10.5t-11 26.5v132q0 16 11 27z" />
<glyph unicode="&#xf082;" d="M64 375q0 -19 14 -33t33 -14h117q19 0 33 14t14 33t-14 33t-33 14h-117q-19 0 -33 -14t-14 -33zM111 58v223h117v-223q0 -24 -17 -41t-41 -17t-41.5 17t-17.5 41zM111 469v223q0 24 17.5 41t41.5 17t41 -17t17 -41v-223h-117zM345 562.5q0 -19.5 14 -33.5t33 -14h118 q18 0 32 14t14 33.5t-13.5 33t-32.5 13.5h-118q-19 0 -33 -13.5t-14 -33zM392 58v411h118v-411q0 -24 -17.5 -41t-41.5 -17t-41.5 17t-17.5 41zM392 656v36q0 24 17.5 41t41.5 17t41 -17t18 -41v-36h-118zM603 211q0 -19 14 -33t33 -14h118q19 0 32.5 14t13.5 33t-13.5 33 t-32.5 14h-118q-20 0 -33.5 -14t-13.5 -33zM650 58v59h118v-59q0 -24 -18 -41t-42 -17t-41 17t-17 41zM650 304v388q0 24 17 41t41 17t42 -17t18 -41v-388h-118z" />
<glyph unicode="&#xf083;" d="M450.5 750q155.5 0 265 -110t109.5 -266q0 -93 -41 -171q-53 -103 -155 -158q-84 -46 -176.5 -46t-176.5 43q-102 54 -157 156q-44 83 -44 176q0 156 110 266t265.5 110zM715 279q4 14 10.5 37t6.5 58q0 117 -83 199.5t-199 82.5t-199 -82.5t-83 -199.5q0 -45 19 -98 q19 5 41 5q58 0 100 -41.5t42 -99.5q0 -15 -5 -33q4 -2 26.5 -8t61 -6t76.5 11q1 0 4.5 2t4.5 2q-4 19 -4 36q0 57 42 99t99 42q21 0 40 -6zM396 374l1 9l-51 220l19 8l121 -192q23 -17 23 -45q0 -12 -5 -21q-14 -35 -52 -35q-10 0 -21 4q-35 15 -35 52zM468 628v-86h-35v86 h35zM607 560l24 -24l-61 -61l-24 25zM604 390v34h86v-34h-86zM212 390v34h85v-34h-85zM258 536l25 24l61 -60l-25 -25z" />
<glyph unicode="&#xf084;" d="M538 436l286 -286v-150h-152v115h-115v115h-115l-55 55q-36 -12 -75 -12q-98 0 -168 69.5t-70 168.5t70 168.5t168 69.5t168 -69.5t70 -168.5q0 -39 -12 -75zM262.5 482q33.5 0 57 23.5t23.5 56.5t-23.5 56.5t-57 23.5t-57 -23.5t-23.5 -56.5t23.5 -56.5t57 -23.5z" />
<glyph unicode="&#xf085;" d="M65 491l14 1q6 21 17 42q-15 23 -43 56q-5 5 5 16q33 36 58 57q6 4 9 -1q8 -8 17 -14.5t18 -13.5l21 -15q21 11 42 17q4 46 11 74q0 5 6 5h84q7 0 8 -10t3.5 -24.5t4.5 -29.5l2 -15q20 -6 41 -17q8 7 19 15q27 19 38 29q6 4 9 -1q5 -4 9 -8l30 -30q12 -12 23 -25 q3 -5 -3.5 -12.5t-16.5 -21t-23 -30.5q9 -16 19 -44q8 -2 17.5 -3t19.5 -3l18 -2q23 -3 23 -10v-84q0 -5 -5 -7q-14 -3 -29.5 -5t-25 -3t-19.5 -3q-6 -20 -17 -41q15 -23 43 -56q4 -5 -5 -16q-28 -33 -58 -57q-6 -4 -9 1q-18 15 -35 27q-5 5 -10.5 8.5t-10.5 7.5 q-21 -11 -42 -17q-2 -17 -4 -36.5t-7 -37.5q-2 -5 -7 -5h-84q-6 0 -7.5 9.5t-3.5 24.5l-6 45q-20 6 -41 17q-5 -4 -9.5 -7t-12 -9t-17 -13t-17 -13t-10.5 -1q-5 4 -8 8l-9 8q-11 11 -23 22q-28 27 -22 33q17 20 42 56q-10 20 -18 44q-8 2 -17.5 3t-19.5 3l-18 2q-9 1 -18 3 q-5 2 -5 7v84q0 6 9 8t56 8zM197 432q0 -35 25 -60t60 -25t60 25t25 60t-25 60t-60 25t-60 -25t-25 -60zM594 103q-49 -8 -53 3l-17 82q-2 6 6.5 9t18.5 7t21 8q1 5 1.5 9t2.5 9t3.5 8.5t3.5 8.5q-11 16 -25 39q-3 5 2 8l62 56q4 4 11 -1q13 -10 33 -27q18 7 35 8 q6 12 21 40q3 5 8 3l80 -25q5 -2 5 -8l-8 -43q14 -11 25 -28q24 2 37 2t15 -5l18 -83q2 -5 -6.5 -8.5t-18.5 -7t-21 -7.5q-1 -5 -1.5 -9t-2.5 -9q-4 -10 -7 -16q19 -28 23 -36t0 -11l-62 -57q-4 -4 -10.5 1.5t-15.5 12.5t-17 14q-20 -7 -37 -8q-10 -22 -20 -40q-3 -5 -8 -3 l-80 25q-5 2 -5 8l7 44q-14 12 -24 27zM756 451q-19 -5 -34 -3q-12 -18 -24 -34q-3 -3 -8 -1l-69 34q-5 2 -2.5 9.5t5.5 17t7 19.5q-10 10 -19 28q-11 1 -21.5 1.5t-18 1.5t-7.5 7l-5 76q0 5 8 7q22 6 37 9q2 4 3 8t3 8t4.5 7t4.5 7q-5 10 -9 19.5t-7 16t1 10.5l64 42 q5 3 10.5 -2.5t12 -13t13.5 -15.5q16 3 33 3q12 18 24 33q3 3 8 2l69 -34q6 -4 0 -20t-9 -26q10 -13 18 -29q11 -1 22 -1q25 -2 25 -9l5 -77q0 -4 -8 -6q-25 -7 -37 -9q-2 -4 -3 -7q-3 -11 -11 -22q5 -10 9 -19.5t7 -16.5t-2 -10l-63 -42q-5 -3 -13 5t-23 26zM686.5 236.5 q-20.5 -10.5 -28 -33t3 -43t33 -28t43 3t28 33t-3 43t-33 28t-43 -3zM681 564q7 -20 26 -30q20 -9 40 -2.5t29.5 26t2.5 39.5t-26 29.5t-39 2.5t-30 -26t-3 -39z" />
<glyph unicode="&#xf086;" d="M366 216q-26 0 -69 5q-72 -55 -157 -74q-20 -5 -36 -6.5t-20 11.5v1q-2 6 12 20t27 34t21 64q-66 36 -105 91t-39 115.5t29 109t78.5 85t116 57.5t142.5 21t142.5 -21t116 -57.5t78 -85t28.5 -104t-28.5 -104t-78.5 -84.5q-107 -78 -258 -78zM603 80q-43 -5 -89 -5 t-103.5 16t-105.5 45q8 4 12 7q13 -2 25 -2h24q184 0 312 99q60 46 94 108.5t34 134.5q0 19 -3 39q97 -78 97 -180q0 -66 -39 -120.5t-105 -91.5q8 -44 21 -63.5t23.5 -30.5t14 -15t2 -9.5t-6.5 -9t-13 -2t-17 3.5q-99 15 -177 76z" />
<glyph unicode="&#xf087;" horiz-adv-x="783" d="M25 26q-34 128 -23 308q4 56 13 105q45 3 94 3t90 -10q19 -123 16 -312q-1 -54 -5 -94q-37 -4 -76 -3q-66 3 -109 3zM102 127q-11 -11 -11 -26.5t11 -26.5t27 -11t26.5 11t10.5 26.5t-10.5 26.5t-26.5 11t-27 -11zM250 59q9 177 -10 353q38 17 54.5 34.5t28 32t29 32.5 t30 28.5t22.5 20.5q21 18 37 46t21 64t13 68q0 7 7 11q34 5 63 -21q22 -20 29 -53.5t-0.5 -60t-19 -50.5t-22 -46.5t-11.5 -47.5q29 -12 88.5 -9.5t90.5 2.5t52 -9q46 -18 23 -88q0 -4 -14 -25q21 -21 21 -43q1 -39 -32 -68q19 -28 7 -63q-10 -31 -36 -44q11 -64 -41 -97 q-43 -26 -126 -26q-101 0 -179 33q-48 20 -74.5 25t-50.5 1z" />
<glyph unicode="&#xf088;" horiz-adv-x="783" d="M22 409q-21 21 -21 43q-2 38 32 68q-17 28 -7 63q10 31 36 44q-11 64 42 97q42 26 125 26q101 0 179 -33q49 -20 75 -24.5t50 -0.5q-6 -118 -0.5 -217.5t10.5 -136.5q-39 -18 -54.5 -35t-27.5 -31.5t-31 -33.5q-15 -17 -27.5 -27.5t-22.5 -20.5q-50 -45 -58 -110 q-5 -36 -14 -68q0 -8 -7 -11q-34 -5 -63 21q-23 21 -29.5 54t1 59.5t19 50.5t22 47t11.5 48q-21 9 -52 9l-126 -3q-68 0 -82 37q-7 21 6 60q1 1 3.5 5.5t5 8.5t3.5 8zM574 409q-14 185 -1 315q45 5 105.5 2.5t80.5 -2.5q33 -125 21 -308q-3 -56 -12 -105q-45 -3 -93.5 -3 t-90.5 10q-6 38 -10 91zM628 676q-11 -11 -11 -26.5t11 -26.5t26.5 -11t26.5 11t11 26.5t-11 26.5t-26.5 11t-26.5 -11z" />
<glyph unicode="&#xf089;" horiz-adv-x="393" d="M0.5 465q4.5 13 25.5 16l238 34l106 216q9 19 23 19v-633l-212 -112q-20 -10 -31 -2t-7 30l41 236l-172 168q-16 15 -11.5 28z" />
<glyph unicode="&#xf08a;" d="M381 750v-240q165 -22 272 -84q102 -60 153 -130q54 -75 69 -130q17 -64 19 -88v-13q-5 9 -14.5 22.5t-50.5 47t-93.5 57.5t-147.5 39t-207 6v-238l-376 375z" />
<glyph unicode="&#xf08b;" horiz-adv-x="825" d="M0 150v450q0 61 44.5 105.5t105.5 44.5h225v-94h-225q-23 0 -39.5 -16.5t-16.5 -39.5v-450q0 -23 16.5 -39.5t39.5 -16.5h225v-94h-225q-61 0 -105.5 44.5t-44.5 105.5zM248 285v180q0 16 11 26.5t27 10.5h209v143q0 20 19 27.5t32 -6.5l270 -270q9 -9 9 -21.5t-9 -20.5 l-270 -270q-9 -9 -17.5 -9t-14.5 2q-19 8 -19 28v142h-209q-16 0 -27 11t-11 27z" />
<glyph unicode="&#xf08c;" d="M734 525h148v-511h-681v1l-183 476l635 245zM673 525l-53 137l-356 -137h409zM91 459l110 -286v328zM258 71h567v397h-567v-397zM713 314l60 -196h-446l106 116l68 -44l127 183l40 -73zM382.5 297q-22.5 0 -38 15.5t-15.5 38t15.5 38t38 15.5t38 -15.5t15.5 -38 t-15.5 -38t-38 -15.5z" />
<glyph unicode="&#xf08d;" d="M1 461q4 38 21 80.5t47 82.5t65.5 68.5t71.5 43.5q77 31 125 -5q49 -35 40 -120l141 -105q52 29 101.5 33.5t79.5 -18t42.5 -54t11.5 -70.5q-2 -84 -54 -172l201 -193q13 -13 2 -24q-5 -8 -11.5 -8t-12.5 2l-242 138q-72 -76 -149 -101q-80 -26 -131 13q-35 26 -45 74.5 t4 106.5l-141 106q-36 -15 -69 -15t-58 18q-49 37 -40 119zM80 417.5q1 -7.5 8.5 -13.5t22 -6t31 8t33.5 22q35 29 65 69q5 6 4 13.5t-8 12.5q-15 12 -26 -4q-37 -49 -65.5 -67.5t-34.5 -16.5q-6 5 -13.5 4t-12.5 -7.5t-4 -14zM219 368l170 -127q6 -4 13.5 -4t12.5 7 q11 15 -3 27l-163 121q-15 -14 -30 -24zM393 141q-10 -16 3.5 -26.5t33 -10.5t41.5 10t45 27q47 36 85 86q11 16 -4 27q-6 5 -13.5 3.5t-12.5 -7.5q-45 -61 -93 -90q-44 -27 -59 -15q-6 5 -13.5 3.5t-12.5 -7.5z" />
<glyph unicode="&#xf08e;" d="M731 316q43 -32 94 -34v-132q0 -61 -44.5 -105.5t-105.5 -44.5h-525q-63 0 -106 44q-44 46 -44 106v450q0 62 44 106t106 44h284q-3 -21 -3 -28v-43q0 -11 3 -23h-284q-23 0 -39.5 -16.5t-16.5 -39.5v-450q0 -23 16.5 -39.5t39.5 -16.5h525q23 0 39.5 16.5t16.5 39.5v166 zM338 255q0 12 8 20l376 377h-131q-12 0 -20 8t-8 20v42q-1 11 7.5 19.5t20.5 8.5h281q11 0 19.5 -8.5t8.5 -19.5v-281q0 -12 -8.5 -20.5t-19.5 -7.5h-42q-12 0 -20 8t-8 20v131l-377 -376q-8 -8 -20 -8t-20 8l-39 39q-8 8 -8 20z" />
<glyph unicode="&#xf08f;" d="M450 -1q-102 0 -188.5 50.5t-137 137t-50.5 188.5t50.5 188.5t137 137t188.5 50.5t188.5 -50.5t137 -137t50.5 -188.5t-50.5 -188.5t-137 -137t-188.5 -50.5zM450 685q-129 0 -219.5 -90.5t-90.5 -219.5t90.5 -219.5t219.5 -90.5t219.5 90.5t90.5 219.5t-90.5 219.5 t-219.5 90.5zM213.5 434q-18.5 0 -32 -13t-13.5 -31.5t13.5 -32t32 -13.5t31.5 13.5t13 32t-13 31.5t-31.5 13zM422 260q-19 0 -32 -13.5t-13 -32t13 -31.5t32 -13t32 13t13 31.5t-13 32t-32 13.5zM687.5 448q-18.5 0 -32 -13.5t-13.5 -32t13.5 -31.5t32 -13t31.5 13 t13 31.5t-13 32t-31.5 13.5zM255.5 271q-13.5 0 -23.5 -10t-10 -23.5t10 -23.5t23.5 -10t23.5 10t10 23.5t-10 23.5t-23.5 10zM450 420q-19 0 -32 -13t-13 -32t13 -32t32 -13t32 13t13 32t-13 32t-32 13zM472 353q10 10 10 23.5t-10 23.5l-180 180q-10 10 -24 10t-23.5 -9.5 t-9.5 -23.5t10 -24l180 -180q10 -10 23.5 -10t23.5 10zM568 498q-12 0 -12 -11q0 -5 4 -9q41 -43 41 -104.5t-44 -105.5t-107 -44t-107 44t-44 106t42 105l-17 16q-48 -50 -48 -121t51 -122t123 -51t123 51t51 122t-48 121q-4 3 -8 3zM632 549q-4 3 -8.5 3t-8 -3.5t-3.5 -9 t4 -8.5q62 -66 62 -158t-67 -158.5t-161 -66.5t-161 66.5t-67 159t63 158.5l-17 17q-69 -73 -69 -175.5t73.5 -176t177.5 -73.5t178 73.5t74 176t-70 175.5z" />
<glyph unicode="&#xf090;" horiz-adv-x="825" d="M0 285v180q0 16 11 26.5t27 10.5h209v143q0 20 18 28q19 7 33 -7l270 -270q8 -9 8 -21.5t-8 -20.5l-270 -270q-9 -9 -17 -9t-16 2q-18 8 -18 28v142h-209q-16 0 -27 11t-11 27zM450 0v94h225q23 0 39.5 16.5t16.5 39.5v450q0 23 -16.5 39.5t-39.5 16.5h-225v94h225 q60 0 105 -44q45 -43 45 -106v-450q0 -61 -44.5 -105.5t-105.5 -44.5h-225z" />
<glyph unicode="&#xf091;" horiz-adv-x="825" d="M172 0q-20 0 -17 41q2 41 13.5 51t31.5 16.5t39.5 11t33.5 9t12 11.5t-2 12v11q1 17 10.5 25.5t20.5 15.5t19.5 15t8.5 26t-19.5 33.5t-45.5 20.5q-112 20 -195 84q-82 63 -82 126v91q0 16 11 26.5t27 10.5h158q-1 6 -1 13v13q0 53 7.5 66t17.5 17t27 4h331q32 0 42 -18 q10 -16 10 -69v-13q0 -6 -1 -13h158q16 0 27 -10.5t11 -26.5v-91q0 -62 -81 -127q-84 -66 -197 -83q-25 -5 -44.5 -20.5t-19.5 -33.5t8.5 -26t19 -15t19.5 -16q18 -16 10 -48q-2 -7 11.5 -11.5t32.5 -8.5q56 -13 72 -28q12 -10 13 -38q3 -54 -16 -54h-481zM240 384 q-22 70 -38 178h-127v-53q0 -24 45 -61q49 -42 120 -64zM585 384q71 22 121 64q44 37 44 61v53h-128q-13 -100 -37 -178z" />
<glyph unicode="&#xf092;" d="M161 353q-35 -34 -49 -77.5t-14 -72.5q0 -75 63 -139t138 -64q30 0 60 11q51 17 87 53l346 351q9 8 9 20.5t-8.5 21t-21 8.5t-20.5 -9l-346 -351q-39 -39 -92 -46q-22 -4 -53 7t-58 38q-47 47 -47 105q1 4 2.5 17.5t12 37t17.5 32.5l14 16l346 351q7 5 9.5 7t7.5 5 q23 16 50.5 16t54.5 -28q30 -29 30 -61q0 -20 -11.5 -38t-18.5 -25l-325 -330q-10 -11 -20 -11t-20.5 10t-10.5 20t10 22l224 227q8 9 8 21t-8 20.5t-20 8.5t-20 -8l-224 -228q-28 -28 -26 -61q0 -8 3 -25t23 -37q26 -27 63 -27q33 0 59 26l326 331q32 32 43 85q2 10 2 24.5 t-8.5 41.5t-36.5 55q-46 46 -98 46q-21 0 -51 -10t-55 -36z" />
<glyph unicode="&#xf093;" d="M0 19v300q0 8 5.5 13.5t13.5 5.5h112q8 0 13.5 -5.5t5.5 -13.5v-169h600v169q0 8 5.5 13.5t13.5 5.5h112q8 0 13.5 -5.5t5.5 -13.5v-300q0 -19 -19 -19h-862q-19 0 -19 19zM169 473.5q-3 7.5 8 18.5l246 247q11 11 27 11t27 -11l247 -247q11 -11 7.5 -18.5t-18.5 -7.5 h-150v-244q0 -16 -11 -27t-27 -11h-150q-16 0 -26.5 11t-10.5 27v244h-150q-16 0 -19 7.5z" />
<glyph unicode="&#xf094;" d="M75 218v311l218 220h311l220 -220v-311l-220 -218h-311zM259 238l55 -54q5 -5 11 -5t11 5l114 114l103 -104q5 -5 11 -5t11 5l53 53q11 11 0 22l-104 103l115 115q11 11 0 22l-55 55q-11 11 -22 0l-114 -115l-104 104q-11 11 -22 0l-52 -53q-5 -5 -5 -11t5 -11l103 -103 l-114 -115q-10 -10 0 -22z" />
<glyph unicode="&#xf095;" d="M276 28q-6 106 -23 103q30 34 15 62q-6 12 -21 20q15 17 21 33t6 22v240q2 14 -13 25q-7 3 -16 3l-101 -1q-50 0 -73 -39q-9 -20 -9 -39v-105q0 -54 38 -76q15 -8 34 -10q34 -3 34 -38v-198q-2 -17 12 -27q9 -3 16 -3h49q21 3 27 16q4 5 4 12zM330 535q170 -5 301 88 q52 36 97 93q17 22 21.5 16.5t5.5 -12.5v-618q2 -21 -2 -24q-4 -9 -19 10q-67 113 -239 157q-78 20 -163 23q-20 0 -25 12q-4 3 -4 13v217q0 11 7 17.5t13 7.5h7zM784 80v643q0 10 8.5 18.5t19 8.5t18.5 -8.5t8 -18.5v-643q0 -11 -8 -19t-18.5 -8t-19 8t-8.5 19z" />
<glyph unicode="&#xf096;" d="M825 62q0 -25 -18.5 -43.5t-44.5 -18.5h-624q-26 0 -44.5 18.5t-18.5 43.5l31 653q0 14 10.5 24.5t24.5 10.5h56q14 0 24 -10.5t10 -24.5l30 -341l136 117q9 9 22 9t22 -9t9 -22v-94l134 116q9 9 22 9t22 -9t9 -22v-94l135 116q9 9 21.5 9t22 -9t9.5 -22v-407zM343 297 h-36q-12 0 -20.5 -8.5t-8.5 -21.5v-35q0 -12 8.5 -20.5t20.5 -8.5h36q12 0 20.5 8.5t8.5 20.5v35q0 13 -8.5 21.5t-20.5 8.5zM530 297h-35q-12 0 -20.5 -8.5t-8.5 -21.5v-35q0 -12 8.5 -20.5t20.5 -8.5h35q12 0 20.5 8.5t8.5 20.5v35q0 13 -8.5 21.5t-20.5 8.5zM717 297h-35 q-12 0 -20.5 -8.5t-8.5 -21.5v-35q0 -12 8.5 -20.5t20.5 -8.5h35q13 0 21.5 8.5t8.5 20.5v35q0 13 -8.5 21.5t-21.5 8.5z" />
<glyph unicode="&#xf097;" d="M556 737l-137 -137l-60 59q-11 12 -26.5 12t-27 -11.5t-11.5 -27.5t11 -27l9 -8l-67 -67q-64 -64 -75.5 -150.5t34.5 -161.5l-112 -112q-18 -18 -18 -44t18 -44t43.5 -18t43.5 18l112 112q76 -46 162 -34.5t151 76.5l66 66l9 -8q11 -12 27 -12t27 11.5t11 27t-11 27.5 l-67 67l145 145q11 11 11 27t-11 27t-27 11t-27 -11l-145 -145l-141 141l137 137q12 11 12 27t-11.5 27.5t-27.5 11.5t-27 -12z" />
<glyph unicode="&#xf098;" d="M296 579l-1 -1l-91 163q-6 12 -17 6l-79 -44q-10 -6 -3 -17l109 -196q-42 -62 -44.5 -135t36.5 -137l-112 -112q-18 -18 -18 -44t18 -44t43.5 -18t43.5 18l112 112q67 -41 144 -36l48 -87q6 -11 17 -6l79 45q10 5 3 17l-36 64h1zM813 496l-145 -145l67 -67 q11 -12 11 -27.5t-11 -27t-27 -11.5t-27 12l-9 8l-56 -57l-274 488q10 -2 17 -10l60 -59l137 137q11 12 27 12t27.5 -11.5t11.5 -27.5t-12 -27l-137 -137l141 -141l145 145q11 11 27 11t27 -11t11 -27t-11 -27z" />
<glyph unicode="&#xf099;" d="M158 420l258 100l65 -25l-258 -100l258 -100l421 162l-421 162l-420 -162zM481 252l194 75v-141q-3 -3 -8 -8.5t-23.5 -18t-39.5 -22.5q-55 -26 -123 -26q-93 0 -157 45q-37 25 -37 30v141zM240 244.5q0 -23.5 -18 -38.5v-95l-64 25v67q-22 16 -22 42t22 42v133l64 -25 v-111q18 -16 18 -39.5z" />
<glyph unicode="&#xf09a;" d="M425 98q0 -37 -34 -48q-12 -4 -18 -4v0q-24 0 -37.5 13t-13.5 26l-1 13q0 11 -7 19t-18.5 8t-18.5 -6.5t-9 -19.5q0 -30 10.5 -51.5t25.5 -31.5q34 -20 57 -20l11 -1q29 0 50.5 11t31 24.5t14.5 31.5q8 25 8 36v314h-51v-314zM451 751q12 0 18 -6.5t6 -12.5v-31 q8 -1 21 -2t51 -8.5t72.5 -19.5t76.5 -38t72.5 -60t51.5 -88.5t21 -121.5v-2q-2 3 -5 8.5t-14 19t-24 24t-36.5 19t-52 8.5t-53.5 -8t-38 -20q-28 -24 -38 -52q-17 50 -74 71q-25 9 -56 9t-55.5 -8.5t-37.5 -19.5q-26 -24 -37 -52q-17 51 -76 72q-25 8 -53.5 8t-52 -8.5 t-36.5 -19t-24 -24t-14 -19t-5 -8.5v2q0 211 193 296q87 39 173 42v25q-3 8 4.5 16.5t19.5 8.5h2z" />
<glyph unicode="&#xf09b;" d="M755 574l-303 -174l-305 175l303 175zM118 527l304 -175v-352l-304 175v352zM782 525v-350l-304 -175v349z" />
<glyph unicode="&#xf09c;" d="M158 420l258 100l65 -25l-258 -100l258 -100l421 162l-421 162l-420 -162zM481 252l194 75v-141q-3 -3 -8 -8.5t-23.5 -18t-39.5 -22.5q-55 -26 -123 -26q-93 0 -157 45q-37 25 -37 30v141zM240 244.5q0 -23.5 -18 -38.5v-95l-64 25v67q-22 16 -22 42t22 42v133l64 -25 v-111q18 -16 18 -39.5z" />
</font>
</defs>
</svg>
