<svg xmlns="http://www.w3.org/2000/svg" viewBox="0 0 491.717 491.717"><path fill="#333333" d="M212.454 416.89c-115.447 0-208.445-93-208.445-208.445S97.006 0 212.453 0 420.9 93 420.9 208.445s-93 208.445-208.446 208.445zm0-384.822c-97.274 0-176.377 79.102-176.377 176.377s79.102 176.377 176.377 176.377S388.83 305.72 388.83 208.445 309.728 32.068 212.454 32.068z"/><path fill="#333333" d="M472.21 491.717c-4.277 0-8.553-1.07-11.76-4.276L333.246 360.237c-6.414-6.414-6.414-16.034 0-22.448 6.414-6.414 16.034-6.414 22.448 0l127.205 127.205c6.414 6.414 6.414 16.034 0 22.448-2.138 3.208-6.414 4.277-10.69 4.277z"/></svg>