<?xml version="1.0" encoding="utf-8"?>
<!-- Generator: Adobe Illustrator 16.0.0, SVG Export Plug-In . SVG Version: 6.00 Build 0)  -->
<!DOCTYPE svg PUBLIC "-//W3C//DTD SVG 1.1//EN" "http://www.w3.org/Graphics/SVG/1.1/DTD/svg11.dtd">
<svg version="1.1" id="Layer_1" xmlns="http://www.w3.org/2000/svg" xmlns:xlink="http://www.w3.org/1999/xlink" x="0px" y="0px"
	 width="549.52px" height="88.833px" viewBox="125.24 255.584 549.52 88.833" enable-background="new 125.24 255.584 549.52 88.833"
	 xml:space="preserve">
<g>
	<g>
		<path fill="#515559" d="M306.831,271.254c-0.821-1.524-2.291-2.401-4.033-2.401c-1.846,0-3.432,0.943-4.147,2.46l-24.548,48.365
			l-0.033,0.068c-0.603,1.339-0.517,2.729,0.246,3.908c0.862,1.332,2.509,2.19,4.197,2.19c1.703,0,3.151-0.879,3.856-2.329
			l6.135-11.969h28.581l5.882,11.691c0.762,1.562,2.32,2.488,4.173,2.488c1.837,0,3.54-0.906,4.333-2.312
			c0.696-1.234,0.638-2.666-0.169-4.033L306.831,271.254z M312.938,303.17h-20.354l10.208-20.351L312.938,303.17z"/>
		<path fill="#515559" d="M413.062,269.35c-2.279,0-4.701,1.622-4.701,4.627v26.675c0,10.992-8.434,16-16.267,16
			c-7.832,0-16.265-5.008-16.265-16v-26.675c0-2.876-2.366-4.381-4.702-4.381c-2.695,0-4.649,1.809-4.649,4.299v26.757
			c0,16.496,12.889,25.125,25.616,25.125c12.733,0,25.62-8.629,25.62-25.125v-26.757C417.714,270.945,415.314,269.35,413.062,269.35
			z"/>
		<path fill="#515559" d="M500.42,270.154h-42.125c-2.918,0-4.492,2.285-4.492,4.432c0,2.149,1.574,4.432,4.492,4.432h16.428v42.535
			c0,3.01,2.348,4.631,4.554,4.631c2.321,0,4.721-1.729,4.721-4.631c0-7.322-0.021-14.705-0.044-22.084
			c-0.018-6.833-0.036-13.666-0.04-20.451h16.508c2.998,0,4.617-2.282,4.617-4.432C505.037,272.439,503.418,270.154,500.42,270.154z
			"/>
		<path fill="#515559" d="M581.544,269.261c-2.228,0-4.593,1.595-4.593,4.554v20.573h-26.676v-20.573
			c0-2.94-2.384-4.523-4.621-4.523c-2.23,0-4.489,1.551-4.489,4.523v47.41c0,1.359,0.54,2.582,1.522,3.441
			c0.863,0.76,1.986,1.176,3.166,1.176c2.198,0,4.422-1.584,4.422-4.617v-18.457h26.676v18.457c0,1.791,0.779,2.887,1.431,3.49
			c0.828,0.768,1.936,1.188,3.118,1.188l0,0c2.25,0,4.64-1.639,4.64-4.678v-47.41C586.14,270.855,583.77,269.261,581.544,269.261z"
			/>
		<path fill="#515559" d="M674.27,271.683c-0.773-1.419-2.373-2.337-4.075-2.337c-1.543,0-2.931,0.755-3.812,2.071l-17.287,23.396
			l-17.056-23.318c-0.912-1.328-2.33-2.091-3.905-2.091c-1.843,0-3.601,1.043-4.377,2.591c-0.707,1.418-0.515,3.03,0.532,4.425
			l20.244,26.811v17.67c0,2.729,1.906,4.639,4.637,4.639c2.247,0,4.637-1.628,4.637-4.639v-17.68l20.09-26.972l0.062-0.092
			C674.905,274.684,675.019,273.056,674.27,271.683z"/>
	</g>
	<g>
		<path fill="#BE1E2D" d="M175.793,283.11l19.115,19.117c2.763,2.762,7.241,2.758,10.003-0.004
			c2.763-2.763,2.766-7.242,0.003-10.005L185.8,273.104c-13.678-13.678-35.783-13.901-49.752-0.692
			c-0.128,0.109-0.256,0.219-0.376,0.338c-0.059,0.061-0.114,0.124-0.17,0.184c-0.062,0.058-0.125,0.113-0.183,0.171
			c-0.122,0.122-0.23,0.247-0.339,0.375c-13.21,13.972-12.985,36.073,0.692,49.752l19.115,19.113c2.763,2.762,7.24,2.762,10.003,0
			c2.763-2.763,2.766-7.244,0.002-10.005l-19.115-19.114c-8.339-8.342-8.396-21.874-0.172-30.289
			C153.919,274.715,167.453,274.771,175.793,283.11z"/>
		<path fill="#EC1C24" d="M200.462,257.656c-2.763,2.763-2.76,7.242,0.003,10.004l19.113,19.114
			c8.34,8.339,8.393,21.871,0.171,30.289c-8.414,8.22-21.945,8.166-30.286-0.176l-19.113-19.112c-2.763-2.763-7.246-2.763-10.007,0
			c-2.763,2.763-2.763,7.245,0,10.007l19.113,19.112c13.678,13.681,35.784,13.902,49.75,0.692c0.129-0.108,0.256-0.217,0.378-0.341
			c0.059-0.061,0.113-0.119,0.172-0.18c0.06-0.06,0.123-0.114,0.183-0.172c0.12-0.125,0.227-0.248,0.335-0.381
			c13.212-13.965,12.988-36.066-0.69-49.747l-19.112-19.112C207.708,254.893,203.226,254.893,200.462,257.656z"/>
	</g>
	<g>
		<path fill="#515559" d="M306.831,271.254c-0.821-1.524-2.291-2.401-4.033-2.401c-1.846,0-3.432,0.943-4.147,2.46l-24.548,48.365
			l-0.033,0.068c-0.603,1.339-0.517,2.729,0.246,3.908c0.862,1.332,2.509,2.19,4.197,2.19c1.703,0,3.151-0.879,3.856-2.329
			l6.135-11.969h28.581l5.882,11.691c0.762,1.562,2.32,2.488,4.173,2.488c1.837,0,3.54-0.906,4.333-2.312
			c0.696-1.234,0.638-2.666-0.169-4.033L306.831,271.254z M312.938,303.17h-20.354l10.208-20.351L312.938,303.17z"/>
		<path fill="#515559" d="M413.062,269.35c-2.279,0-4.701,1.622-4.701,4.627v26.675c0,10.992-8.434,16-16.267,16
			c-7.832,0-16.265-5.008-16.265-16v-26.675c0-2.876-2.366-4.381-4.702-4.381c-2.695,0-4.649,1.809-4.649,4.299v26.757
			c0,16.496,12.889,25.125,25.616,25.125c12.733,0,25.62-8.629,25.62-25.125v-26.757C417.714,270.945,415.314,269.35,413.062,269.35
			z"/>
		<path fill="#515559" d="M500.42,270.154h-42.125c-2.918,0-4.492,2.285-4.492,4.432c0,2.149,1.574,4.432,4.492,4.432h16.428v42.535
			c0,3.01,2.348,4.631,4.554,4.631c2.321,0,4.721-1.729,4.721-4.631c0-7.322-0.021-14.705-0.044-22.084
			c-0.018-6.833-0.036-13.666-0.04-20.451h16.508c2.998,0,4.617-2.282,4.617-4.432C505.037,272.439,503.418,270.154,500.42,270.154z
			"/>
		<path fill="#515559" d="M581.544,269.261c-2.228,0-4.593,1.595-4.593,4.554v20.573h-26.676v-20.573
			c0-2.94-2.384-4.523-4.621-4.523c-2.23,0-4.489,1.551-4.489,4.523v47.41c0,1.359,0.54,2.582,1.522,3.441
			c0.863,0.76,1.986,1.176,3.166,1.176c2.198,0,4.422-1.584,4.422-4.617v-18.457h26.676v18.457c0,1.791,0.779,2.887,1.431,3.49
			c0.828,0.768,1.936,1.188,3.118,1.188l0,0c2.25,0,4.64-1.639,4.64-4.678v-47.41C586.14,270.855,583.77,269.261,581.544,269.261z"
			/>
		<path fill="#515559" d="M674.27,271.683c-0.773-1.419-2.373-2.337-4.075-2.337c-1.543,0-2.931,0.755-3.812,2.071l-17.287,23.396
			l-17.056-23.318c-0.912-1.328-2.33-2.091-3.905-2.091c-1.843,0-3.601,1.043-4.377,2.591c-0.707,1.418-0.515,3.03,0.532,4.425
			l20.244,26.811v17.67c0,2.729,1.906,4.639,4.637,4.639c2.247,0,4.637-1.628,4.637-4.639v-17.68l20.09-26.972l0.062-0.092
			C674.905,274.684,675.019,273.056,674.27,271.683z"/>
	</g>
	<g>
		<path fill="#BE1E2D" d="M175.793,283.11l19.115,19.117c2.763,2.762,7.241,2.758,10.003-0.004
			c2.763-2.763,2.766-7.242,0.003-10.005L185.8,273.104c-13.678-13.678-35.783-13.901-49.752-0.692
			c-0.128,0.109-0.256,0.219-0.376,0.338c-0.059,0.061-0.114,0.124-0.17,0.184c-0.062,0.058-0.125,0.113-0.183,0.171
			c-0.122,0.122-0.23,0.247-0.339,0.375c-13.21,13.972-12.985,36.073,0.692,49.752l19.115,19.113c2.763,2.762,7.24,2.762,10.003,0
			c2.763-2.763,2.766-7.244,0.002-10.005l-19.115-19.114c-8.339-8.342-8.396-21.874-0.172-30.289
			C153.919,274.715,167.453,274.771,175.793,283.11z"/>
		<path fill="#EC1C24" d="M200.462,257.656c-2.763,2.763-2.76,7.242,0.003,10.004l19.113,19.114
			c8.34,8.339,8.393,21.871,0.171,30.289c-8.414,8.22-21.945,8.166-30.286-0.176l-19.113-19.112c-2.763-2.763-7.246-2.763-10.007,0
			c-2.763,2.763-2.763,7.245,0,10.007l19.113,19.112c13.678,13.681,35.784,13.902,49.75,0.692c0.129-0.108,0.256-0.217,0.378-0.341
			c0.059-0.061,0.113-0.119,0.172-0.18c0.06-0.06,0.123-0.114,0.183-0.172c0.12-0.125,0.227-0.248,0.335-0.381
			c13.212-13.965,12.988-36.066-0.69-49.747l-19.112-19.112C207.708,254.893,203.226,254.893,200.462,257.656z"/>
	</g>
</g>
</svg>
