<?xml version="1.0" encoding="utf-8"?>
<!-- Generator: Adobe Illustrator 16.0.0, SVG Export Plug-In . SVG Version: 6.00 Build 0)  -->
<!DOCTYPE svg PUBLIC "-//W3C//DTD SVG 1.1//EN" "http://www.w3.org/Graphics/SVG/1.1/DTD/svg11.dtd">
<svg version="1.1" id="Layer_1" xmlns="http://www.w3.org/2000/svg" xmlns:xlink="http://www.w3.org/1999/xlink" x="0px" y="0px"
	 width="72px" height="50px" viewBox="-11.907 11.088 72 50" enable-background="new -11.907 11.088 72 50" xml:space="preserve">
<g>
	<g>
		<path fill="#0397A7" d="M24.475,60.094c-12.313,0-24.437-0.632-25.232-0.674l-2.144-0.386c-4.796-1.916-7.938-6.439-8.005-11.522
			c-0.09-6.566,5.056-12.107,11.627-12.716c2.026-7.199,9.265-12.418,17.544-12.528c9.322-0.055,17.125,6.064,18.406,14.26
			c7.507,0.362,13.588,5.264,14.334,11.707l-2.157,0.25c-0.646-5.601-6.259-9.809-13.071-9.809c-0.021,0-0.042,0-0.063,0
			l-0.994,0.004l-0.091-0.989c-0.685-7.549-7.804-13.328-16.333-13.253c-7.59,0.1-14.175,4.991-15.659,11.628L2.453,36.89
			l-0.844,0.025c-5.88,0.167-10.425,4.81-10.346,10.566c0.054,4.168,2.617,7.883,6.538,9.495l1.683,0.292
			c0.181,0.003,30.83,1.598,44.351-0.23c1.025-0.152,1.924-0.306,2.737-0.5l0.504,2.11c-0.864,0.208-1.822,0.373-2.911,0.536
			C39.059,59.875,31.733,60.094,24.475,60.094z"/>
	</g>
	<g>
		<path fill="#0397A7" d="M11.985,42.52l-2.167-0.102c0.064-1.36-0.322-2.435-1.185-3.28c-2.569-2.523-8.313-2.178-8.37-2.172
			l-0.145-2.165c0.275-0.015,6.765-0.418,10.031,2.786C11.461,38.873,12.079,40.532,11.985,42.52z"/>
	</g>
	<g>
		<path fill="#0397A7" d="M25.417,45.749c-0.122-2.505,0.594-4.581,2.13-6.168c3.13-3.233,8.532-3.175,8.734-3.179l-0.032,2.17
			c-0.089-0.02-4.695-0.023-7.149,2.521c-1.114,1.156-1.61,2.645-1.517,4.549L25.417,45.749z"/>
	</g>
	<g>
		<polygon fill="#0397A7" points="44.027,59.195 43.98,57.025 44.027,57.025 		"/>
	</g>
	<g>
		<path fill="#0397A7" d="M46.828,58.708l-0.758-2.034c4.839-1.799,2.525-9.49,2.502-9.569l2.072-0.64
			C51.683,49.821,52.219,56.701,46.828,58.708z"/>
	</g>
	<g>
		<path fill="#0397A7" d="M44.884,40.32l-1.873-1.094c0.775-1.328,1.169-2.779,1.169-4.312c0-4.746-3.86-8.607-8.606-8.607
			c-1.867,0-3.634,0.594-5.111,1.717l-1.313-1.727c1.858-1.411,4.079-2.16,6.425-2.16c5.941,0,10.776,4.835,10.776,10.777
			C46.35,36.81,45.843,38.678,44.884,40.32z"/>
	</g>
	<g>
		<path fill="#0397A7" d="M36.713,18.312c0,0.598-0.422,1.085-0.949,1.085l0,0c-0.525,0-0.949-0.487-0.949-1.085v-5.141
			c0-0.6,0.424-1.089,0.949-1.089l0,0c0.527,0,0.949,0.489,0.949,1.089V18.312z"/>
	</g>
	<g>
		<path fill="#0397A7" d="M52.863,35.574c-0.598,0-1.085-0.424-1.085-0.954l0,0c0-0.523,0.487-0.949,1.085-0.949h5.145
			c0.602,0,1.085,0.424,1.085,0.949l0,0c0,0.53-0.483,0.954-1.085,0.954H52.863z"/>
	</g>
	<g>
		<path fill="#0397A7" d="M48.193,23.541c-0.422,0.424-1.068,0.466-1.445,0.097l0,0c-0.369-0.371-0.324-1.021,0.102-1.441
			l3.632-3.638c0.428-0.422,1.068-0.468,1.443-0.098l0,0c0.375,0.375,0.328,1.021-0.1,1.445L48.193,23.541z"/>
	</g>
	<g>
		<path fill="#0397A7" d="M19.302,20.301c-0.426-0.428-0.466-1.072-0.095-1.441l0,0c0.371-0.375,1.017-0.331,1.443,0.093
			l3.634,3.636c0.424,0.426,0.468,1.07,0.095,1.443l0,0c-0.371,0.369-1.015,0.329-1.443-0.1L19.302,20.301z"/>
	</g>
</g>
</svg>
