<svg xmlns="http://www.w3.org/2000/svg">
    <symbol id="compact" fill="#414042" viewBox="0 0 106 54">
        <path d="M40.6 7.4v13.4c0 4.7-3.6 8.5-9.5 8.5-4.5 0-9.2-2.6-9.2-9.3V8l5.1-.6v12c0 2.3.4 5.1 4.4 5.1 3.5 0 4.2-2.4 4.2-5.6V8l5-.6z"/>
        <path d="M0 .7L5.2 0v9.9h.1c1.5-2 3.2-2.6 6.1-2.6 4.3 0 7.2 2.7 7.2 7.2v14.3l-5.2.3V15.9c0-2.2-1-4.1-3.4-4.1-3.3 0-4.8 2.5-4.8 5.1v11.8l-5.2.4V.7z"/>
        <path d="M46.6 34.8H33.8l.5-2.4h17L36.7 50.7h14.6l-.6 2.3H32l14.6-18.2z"/>
        <path d="M77.8 36.6c1.6-3.5 3.9-4.6 7.7-4.6l-1 2.4h-.9c-2.6 0-5.7 3.2-5.7 8.4V53l-2.4.5v-21l2.4-.5v4.6z"/>
        <path d="M106 42.8c0 5.5-4.5 10.8-10.5 10.8-6.1 0-10.5-5.2-10.5-10.8C85 37.3 89.5 32 95.5 32S106 37.2 106 42.8zm-18.7 0c0 4.4 3.5 8.4 8.2 8.4 4.6 0 8.2-4 8.2-8.4s-3.5-8.4-8.2-8.4c-4.7 0-8.2 4-8.2 8.4z"/>
        <path d="M69 47.1c-1.4 2.4-3.9 4.1-6.9 4.1-4.2 0-7.5-3.3-8.1-7.2h18.5c0-.4.1-.8.1-1.2 0-5.5-4.5-10.8-10.5-10.8s-10.5 5.2-10.5 10.8c0 5.5 4.5 10.8 10.5 10.8 4.4 0 7.9-2.8 9.6-6.4H69zm-6.9-12.7c4.2 0 7.5 3.3 8.1 7.2H54c.6-3.9 3.9-7.2 8.1-7.2z"/>
        <path d="M58 24.2c-.7.3-1.4.5-2.1.5-3.5 0-6.1-2.9-6.1-6.3s2.7-6.3 6.1-6.3c2.9 0 5.6 2.9 5.6 6.3 0 .6-.1 1.2-.2 1.8l4.5-5.6c-1.5-4.3-5.5-7.2-10-7.2-2.5 0-4.3.7-6 2.4V0l-5.2.7V18c0 6.3 4.3 10.7 9.3 11.3l4.1-5.1z"/>
    </symbol>
    <symbol id="standard" viewBox="0 0 150 49">
        <path fill="#414042" d="M44.4 8.1v14.7c0 5.2-3.9 9.3-10.4 9.3-4.9 0-10-2.8-10-10.1V8.8l5.5-.7v13.1c0 2.5.5 5.6 4.8 5.6 3.9 0 4.6-2.6 4.6-6.1v-12l5.5-.6z"/>
        <path fill="#414042" d="M0 .7L5.7 0v10.8h.1C7.4 8.7 9.3 8 12.5 8c4.7 0 7.8 3 7.8 7.8v15.6l-5.7.4V17.3c0-2.4-1.1-4.4-3.7-4.4-3.6 0-5.2 2.7-5.2 5.6v12.9l-5.7.4V.7z"/>
        <path fill="#414042" d="M90.3 9H76l-2.1 2.6h11.2l-16 19.8h20.4l.7-2.6h-16z"/>
        <path fill="#414042" d="M119.1 13.4c1.7-3.9 4.3-5 8.4-5l-1.1 2.6h-1c-2.8 0-6.3 3.5-6.3 9.1v11.3l-2.6.5V9l2.6-.5v4.9z"/>
        <path fill="#414042" d="M150 20.2c0 6-4.9 11.8-11.5 11.8S127 26.2 127 20.2c0-6 4.9-11.8 11.5-11.8S150 14.2 150 20.2zm-20.4 0c0 4.8 3.9 9.2 8.9 9.2s8.9-4.4 8.9-9.2c0-4.8-3.9-9.2-8.9-9.2s-8.9 4.4-8.9 9.2z"/>
        <path fill="#414042" d="M109.5 24.9c-1.5 2.6-4.3 4.4-7.6 4.4-4.6 0-8.2-3.6-8.8-7.9H113.3c0-.4.1-.8.1-1.3 0-6-4.9-11.8-11.5-11.8S90.4 14 90.4 20.1c0 6 4.9 11.8 11.5 11.8 4.8 0 8.7-3.1 10.4-7h-2.8zM102 11c4.6 0 8.2 3.6 8.8 7.9H93.1c.7-4.3 4.3-7.9 8.9-7.9z"/>
        <path fill="#414042" d="M63.4 26.4c-.7.4-1.5.6-2.3.6-3.8 0-6.7-3.2-6.7-6.9s2.9-6.9 6.7-6.9c3.2 0 6.1 3.2 6.1 6.9 0 .7-.1 1.3-.3 1.9l4.9-6.1C70.2 11.2 65.9 8 61 8c-2.8 0-4.7.8-6.6 2.6V0l-5.7.7v19c0 6.9 4.7 11.7 10.2 12.4l4.5-5.7z"/>
        <g id="help" fill="#5e6365">
            <path d="M53.6 48.2c-.1-.1-.2-.3-.2-.4v-8.6c0-.2.1-.3.2-.5.1-.1.3-.2.4-.2.2 0 .3.1.5.2.1.1.2.3.2.5v3.7H60v-3.7c0-.2.1-.3.2-.5.1-.1.3-.2.4-.2.2 0 .3.1.5.2s.2.3.2.5v8.6c0 .2-.1.3-.2.4-.1.1-.3.2-.5.2s-.3-.1-.4-.2c-.1-.2-.2-.3-.2-.5V44h-5.3v3.7c0 .2-.1.3-.2.4-.1.1-.3.2-.5.2-.1.1-.3 0-.4-.1z"/>
            <path d="M64.2 48.1c-.2-.1-.2-.3-.2-.4v-8.5c0-.2.1-.3.2-.5.1-.1.3-.2.4-.2h5.6c.2 0 .3.1.4.2.1.1.2.3.2.4s-.1.3-.2.4c-.1.1-.3.2-.4.2h-5v3.1h4.5c.2 0 .3.1.4.2s.2.3.2.4c0 .2-.1.3-.2.4-.1.1-.2.2-.4.2h-4.5v3.1h5c.2 0 .3.1.4.2.1.1.2.3.2.4s-.1.3-.2.4c-.1.1-.3.2-.4.2h-5.6c-.2 0-.3-.1-.4-.2z"/>
            <path d="M73.2 48c-.2-.2-.3-.4-.3-.6v-8.3c0-.2.1-.3.2-.5.1-.1.3-.2.4-.2.2 0 .3.1.5.2.1.1.2.3.2.5V47h4.6c.2 0 .3.1.5.2s.2.3.2.5-.1.3-.2.4c-.1.1-.3.2-.5.2h-5c-.2 0-.5-.1-.6-.3z"/>
            <path d="M81.2 48.2c-.2-.2-.2-.3-.2-.5v-8.6c0-.2.1-.3.2-.5.1-.1.3-.2.4-.2h3.2c.9 0 1.6.1 2.2.4.6.3 1 .7 1.2 1.1s.4 1 .4 1.5-.1 1-.4 1.5-.7 1.1-1.2 1.4c-.6.3-1.3.4-2.2.4h-2.5v3c0 .2-.1.3-.2.4-.1.1-.3.2-.5.2-.2.1-.3 0-.4-.1zm3.5-4.7c1 0 1.6-.2 2-.5.4-.4.6-.8.6-1.4 0-.5-.2-1-.6-1.4-.4-.4-1.1-.5-2-.5h-2.4v3.8h2.4z"/>
            <path d="M95.8 47.8c-.7-.4-1.3-1-1.8-1.8-.4-.8-.6-1.6-.6-2.7 0-1 .2-1.9.6-2.7.4-.8 1-1.3 1.8-1.8.7-.4 1.6-.6 2.5-.6.6 0 1.2.1 1.7.2s1 .4 1.5.6c.2.1.3.3.3.5 0 .1-.1.3-.2.4-.1.1-.2.2-.4.2-.1 0-.2 0-.3-.1-.4-.2-.8-.4-1.2-.5-.4-.1-.8-.2-1.4-.2-.8 0-1.5.2-2.1.5-.6.3-1 .8-1.3 1.4-.3.6-.4 1.2-.4 2 0 .7.1 1.4.4 2 .3.6.7 1 1.3 1.4.6.3 1.2.5 2.1.5.5 0 1-.1 1.4-.2.4-.1.8-.3 1.2-.5.1 0 .2-.1.3-.1.2 0 .3.1.4.2.1.1.2.2.2.4s-.1.4-.3.5c-.5.3-1 .5-1.5.6-.5.1-1.1.2-1.7.2-.9.2-1.7 0-2.5-.4z"/>
            <path d="M103.9 48.1c-.1-.1-.2-.3-.2-.4v-8.5c0-.2.1-.3.2-.5.1-.1.3-.2.4-.2h5.6c.2 0 .3.1.4.2.1.1.2.3.2.4s-.1.3-.2.4c-.1.1-.3.2-.4.2h-5v3.1h4.5c.2 0 .3.1.4.2s.2.3.2.4c0 .2-.1.3-.2.4-.1.1-.3.2-.4.2H105v3.1h5c.2 0 .3.1.4.2.1.1.2.3.2.4s-.1.3-.2.4c-.1.1-.3.2-.4.2h-5.6c-.2 0-.3-.1-.5-.2z"/>
            <path d="M112.9 48.2c-.1-.1-.2-.3-.2-.4v-8.4c0-.3.1-.5.3-.7.2-.2.4-.3.6-.3h.2c.3 0 .6.1.8.4l5.4 7.8V39c0-.2.1-.3.2-.5.1-.1.3-.2.4-.2.2 0 .3.1.5.2s.2.3.2.5v8.4c0 .3-.1.5-.3.6-.2.2-.4.3-.7.3h-.2c-.1 0-.3 0-.4-.1l-.3-.3-5.4-7.8v7.6c0 .2-.1.3-.2.4-.1.1-.3.2-.5.2-.2.1-.3 0-.4-.1z"/>
            <path d="M126.4 48.2c-.1-.1-.2-.3-.2-.4v-8h-2.9c-.2 0-.3-.1-.4-.2-.1-.1-.2-.3-.2-.4s.1-.3.2-.4c.1-.1.3-.2.4-.2h7c.2 0 .3.1.4.2.1.1.2.3.2.4s-.1.3-.2.4-.3.2-.4.2h-2.8v8c0 .2-.1.3-.2.4-.1.1-.3.2-.5.2-.1 0-.3-.1-.4-.2z"/>
            <path d="M132.6 48.1c-.1-.1-.2-.3-.2-.4v-8.5c0-.2.1-.3.2-.5.1-.1.3-.2.4-.2h5.6c.2 0 .3.1.4.2.1.1.2.3.2.4s-.1.3-.2.4c-.1.1-.3.2-.4.2h-5v3.1h4.5c.2 0 .3.1.4.2s.2.3.2.4c0 .2-.1.3-.2.4-.1.1-.3.2-.4.2h-4.5v3.1h5c.2 0 .3.1.4.2.1.1.2.3.2.4s-.1.3-.2.4c-.1.1-.3.2-.4.2H133c-.1 0-.2-.1-.4-.2z"/>
            <path d="M141.6 48.2c-.1-.1-.2-.3-.2-.4v-8.6c0-.2.1-.3.2-.5.1-.1.3-.2.4-.2h3.3c1.3 0 2.2.3 2.9.8.6.5 1 1.2 1 2.1 0 .6-.2 1.1-.5 1.5-.3.5-.8.8-1.4 1 .7.2 1.1.6 1.4 1.3.2.7.4 1.3.4 1.9v.6c0 .2-.1.3-.2.4-.1.1-.3.2-.4.2-.2 0-.4-.1-.5-.2s-.2-.3-.2-.5v-.4c0-.5 0-.9-.1-1.3s-.3-.8-.6-1.1-.8-.5-1.4-.5h-2.9v3.2c0 .2-.1.3-.2.4-.1.1-.3.2-.5.2-.3.3-.4.2-.5.1zm3.6-4.9c.8 0 1.4-.2 1.9-.5s.7-.8.7-1.3c0-.6-.2-1-.6-1.3-.4-.3-1.1-.4-2.1-.4h-2.5v3.6h2.6z"/>
        </g>
    </symbol>
</svg>