<svg enable-background="new 0 0 58 58" viewBox="0 0 58 58" xmlns="http://www.w3.org/2000/svg"><path d="m50.949 12.187-1.361-1.361-9.504-9.505c-.001-.001-.001-.001-.002-.001l-.77-.771c-.355-.354-.826-.549-1.327-.549h-29.022c-1.359 0-2.463 1.105-2.463 2.463v36.537 16.537c0 1.358 1.104 2.463 2.463 2.463h40.074c1.358 0 2.463-1.105 2.463-2.463v-16.537-25.485c0-.495-.201-.98-.551-1.328zm-11.449-.187v-8.435l8.435 8.435h-2.435zm1 2h2.731c-.346.597-.992 1-1.731 1-.723 0-1.353-.389-1.704-.964.232-.021.466-.036.704-.036zm9 41.537c0 .255-.208.463-.463.463h-40.074c-.255 0-.463-.208-.463-.463v-14.537h41zm-41-16.537v-36.537c0-.255.208-.463.463-.463h28.595c-.033.126-.058.256-.058.391v9.609.461c-3.071.968-5.503 3.382-6.502 6.44-.687-.555-1.548-.901-2.498-.901-1.859 0-3.411 1.28-3.858 3h-3.142v-2h-6v6h6v-2h2.921c-.336 2.663-1.985 4.978-4.389 6.163-.668-1.279-1.992-2.163-3.532-2.163-2.206 0-4 1.794-4 4s1.794 4 4 4c2.146 0 3.888-1.702 3.982-3.825 2.655-1.151 4.647-3.387 5.524-6.073.686.553 1.546.898 2.494.898 1.859 0 3.411-1.28 3.858-3h3.142v2h6v-6h-6v2h-2.931c.379-3.019 2.444-5.514 5.222-6.518.592 1.473 2.027 2.518 3.709 2.518 1.859 0 3.411-1.28 3.858-3h3.75c.135 0 .265-.025.392-.058v25.058zm22-17c0 1.103-.897 2-2 2s-2-.897-2-2 .897-2 2-2 2 .897 2 2zm-11 1h-2v-2h2zm-1 8c0 1.103-.897 2-2 2s-2-.897-2-2 .897-2 2-2 2 .897 2 2zm19-10h2v2h-2z"/><path d="m23.515 51.908h3.787l.724 2.092h1.695l-3.5-10.063h-1.627l-3.527 10.063h1.709zm1.9-5.455 1.49 4.348h-3.008z"/><path d="m31.868 43.924h1.668v10.076h-1.668z"/></svg>