<svg enable-background="new 0 0 58 58" viewBox="0 0 58 58" xmlns="http://www.w3.org/2000/svg"><path fill="#c8bdb8" d="m51.5 39v-25.022c0-.766-.092-1.333-.55-1.792l-11.637-11.636c-.349-.349-.833-.55-1.328-.55h-29.022c-1.186 0-2.463.916-2.463 2.926v36.074zm-35-12c1.54 0 2.864.884 3.532 2.163 2.404-1.185 4.053-3.501 4.389-6.163h-2.921v2h-6v-6h6v2h3.142c.447-1.72 1.999-3 3.858-3 .95 0 1.811.346 2.498.901 1-3.057 3.431-5.471 6.502-6.44v-.461-8.609c0-.458.553-.687.877-.363l10.095 10.095c.324.324.095.877-.363.877h-2.751c-.447 1.72-1.999 3-3.858 3-1.682 0-3.117-1.045-3.708-2.518-2.778 1.004-4.843 3.499-5.222 6.518h2.93v-2h6v6h-6v-2h-3.142c-.447 1.72-1.999 3-3.858 3-.948 0-1.808-.345-2.494-.898-.877 2.686-2.868 4.922-5.524 6.073-.094 2.123-1.836 3.825-3.982 3.825-2.206 0-4-1.794-4-4s1.794-4 4-4z"/><g fill="#ffc14f"><path d="m23.897 50.801h3.008l-1.49-4.348z"/><path d="m6.5 41v15c0 1.009 1.22 2 2.463 2h40.074c1.243 0 2.463-.991 2.463-2v-15zm21.526 13-.725-2.092h-3.787l-.738 2.092h-1.709l3.527-10.063h1.627l3.501 10.063zm5.51 0h-1.668v-10.076h1.668z"/></g></svg>