<svg enable-background="new 0 0 58 58" viewBox="0 0 58 58" xmlns="http://www.w3.org/2000/svg"><path d="m50.949 12.187-.771-.771-10.094-10.095-.001-.001-.768-.768c-.35-.351-.835-.552-1.33-.552h-29.022c-1.186 0-2.463.916-2.463 2.926v36.074 16.537.463c0 .838.843 1.654 1.839 1.91.05.013.097.032.148.042.157.031.316.048.476.048h40.074c.16 0 .319-.017.475-.048.052-.01.1-.029.15-.042.996-.257 1.838-1.072 1.838-1.91v-.463-16.537-25.022c0-.766-.092-1.332-.551-1.791zm-11.449-8.622 8.435 8.435h-8.435zm-30.537 52.435c-.071 0-.135-.025-.198-.049-.156-.075-.265-.231-.265-.414v-14.537h41v14.537c0 .183-.11.339-.265.414-.063.024-.127.049-.198.049zm-.463-17v-36.074c0-.217.033-.926.463-.926h28.595c-.033.126-.058.256-.058.392v11.608h11.608c.135 0 .265-.025.391-.058 0 .014.001.02.001.036v25.022z"/><path d="m20.889 43.938-3.528 10.062h1.709l.738-2.092h3.787l.725 2.092h1.695l-3.5-10.063h-1.626zm-.698 6.863 1.518-4.348 1.49 4.348z"/><path d="m31.908 52.619-2.338-8.695h-1.873l3.131 10.131h2.133l3.281-10.131h-1.859z"/><path d="m38.32 43.924h1.668v10.076h-1.668z"/><path d="m36.037 21.156-11-7c-.309-.195-.698-.208-1.019-.033-.319.176-.518.512-.518.877v14c0 .365.199.701.519.877.15.082.315.123.481.123.187 0 .374-.053.537-.156l11-7c.288-.184.463-.502.463-.844s-.175-.66-.463-.844zm-10.537 6.023v-10.358l8.137 5.179z"/></svg>