<svg enable-background="new 0 0 58 58" viewBox="0 0 58 58" xmlns="http://www.w3.org/2000/svg"><g fill="#c8bdb8"><path d="m15.5 23h8v2h-8z"/><path d="m15.5 19h8v2h-8z"/><path d="m25.5 27h19v2h-19z"/><path d="m25.5 19h19v2h-19z"/><path d="m25.5 23h19v2h-19z"/><path d="m15.5 31h8v2h-8z"/><path d="m15.5 15h8v2h-8z"/><path d="m15.5 27h8v2h-8z"/><path d="m25.5 31h19v2h-19z"/><path d="m51.5 39v-25.022c0-.766-.092-1.333-.55-1.792l-11.637-11.636c-.349-.349-.833-.55-1.328-.55h-29.022c-1.186 0-2.463.916-2.463 2.926v36.074zm-14-35.609c0-.458.553-.687.877-.363l10.095 10.095c.324.324.095.877-.363.877h-10.609zm-24 27.609v-2-2-2-2-2-2-2-4h12v4h21v4 2 2 2 2 2 4h-21-2-10z" /></g><g fill="#e96360"><path d="m29.908 49.338h-1.928v3.459h2.051c.483 0 .861-.155 1.135-.465s.41-.725.41-1.244c0-.492-.142-.907-.424-1.244s-.697-.506-1.244-.506z"/><path d="m6.5 41v15c0 1.009 1.22 2 2.463 2h40.074c1.243 0 2.463-.991 2.463-2v-15zm17.181 9.808c-.178.588-.403 1.08-.677 1.477s-.581.709-.923.937-.672.398-.991.513c-.319.114-.611.187-.875.219-.265.03-.461.046-.588.046h-3.814v-10.076h3.035c.848 0 1.593.135 2.235.403s1.176.627 1.6 1.073.74.955.95 1.524c.209.569.314 1.155.314 1.757 0 .83-.089 1.539-.266 2.127zm9.262 1.456c-.137.328-.308.6-.513.813s-.429.383-.67.506c-.242.123-.474.217-.697.28-.224.063-.422.103-.595.116-.173.014-.286.021-.341.021h-3.787v-10.076h2.898c.428 0 .843.05 1.244.15.401.101.756.26 1.066.479s.556.504.738.854c.182.351.273.768.273 1.251 0 .282-.046.54-.137.772s-.205.436-.342.608-.294.316-.472.431-.349.189-.513.226c.209.027.433.096.67.205s.458.265.663.465.376.444.513.731.205.617.205.991c.002.457-.066.849-.203 1.177zm8.86-7.096h-4.635v3.172h4.211v1.121h-4.211v4.539h-1.668v-10.076h6.303z"/><path d="m29.197 48.23c.2 0 .405-.005.615-.014.209-.009.405-.06.588-.15.182-.091.33-.246.444-.465s.171-.533.171-.943c0-.164-.023-.335-.068-.513-.046-.178-.137-.34-.273-.485s-.333-.265-.588-.355c-.255-.091-.593-.137-1.012-.137h-1.094v3.063h.068 1.149z"/><path d="m21.493 46.282c-.287-.333-.677-.602-1.169-.807s-1.13-.308-1.914-.308h-.957v7.629h1.627c1.112 0 1.914-.355 2.406-1.066s.738-1.741.738-3.09c0-.419-.05-.834-.15-1.244s-.294-.781-.581-1.114z"/></g></svg>