<svg enable-background="new 0 0 58 58" viewBox="0 0 58 58" xmlns="http://www.w3.org/2000/svg"><path d="m50.95 12.187-.771-.771-10.095-10.095-.771-.771c-.349-.349-.833-.55-1.328-.55h-29.022c-1.186 0-2.463.916-2.463 2.926v36.074 16.537.463c0 .837.842 1.653 1.838 1.91.05.013.098.032.15.042.156.031.315.048.475.048h40.074c.16 0 .319-.017.475-.048.052-.01.1-.029.15-.042.996-.257 1.838-1.073 1.838-1.91v-.463-16.537-25.022c0-.767-.092-1.333-.55-1.791zm-3.015-.187h-8.435v-8.435zm-38.972 44c-.071 0-.135-.026-.198-.049-.156-.074-.265-.23-.265-.414v-14.537h41v14.537c0 .184-.109.339-.265.414-.063.023-.127.049-.198.049zm-.463-17v-36.074c0-.217.033-.926.463-.926h28.595c-.033.126-.058.256-.058.391v11.609h11.609c.135 0 .264-.025.39-.058 0 .015.001.021.001.036v25.022z"/><path d="m22.683 45.4c-.424-.446-.957-.805-1.6-1.073s-1.388-.403-2.235-.403h-3.035v10.076h3.814c.127 0 .323-.016.588-.048.264-.032.556-.104.875-.219.319-.114.649-.285.991-.513s.649-.54.923-.937.499-.889.677-1.477.267-1.297.267-2.126c0-.602-.105-1.188-.314-1.757-.211-.568-.528-1.076-.951-1.523zm-1.197 6.33c-.492.711-1.294 1.066-2.406 1.066h-1.627v-7.629h.957c.784 0 1.422.103 1.914.308s.882.474 1.169.807.48.704.581 1.114c.1.41.15.825.15 1.244.001 1.349-.245 2.38-.738 3.09z"/><path d="m32.431 49.365c-.205-.2-.426-.355-.663-.465-.237-.109-.46-.178-.67-.205.164-.036.335-.111.513-.226s.335-.258.472-.431.25-.376.342-.608c.091-.232.137-.49.137-.772 0-.483-.091-.9-.273-1.251-.183-.351-.429-.636-.738-.854-.31-.219-.666-.378-1.066-.479-.401-.101-.816-.15-1.244-.15h-2.901v10.076h3.787c.055 0 .168-.007.342-.021.173-.014.371-.053.595-.116.223-.063.456-.157.697-.28s.465-.292.67-.506.376-.485.513-.813.205-.72.205-1.176c0-.374-.068-.704-.205-.991s-.308-.532-.513-.732zm-4.451-4.197h1.094c.419 0 .756.046 1.012.137.255.091.451.21.588.355s.228.308.273.485c.045.178.068.349.068.513 0 .41-.057.725-.171.943-.114.219-.262.374-.444.465-.183.091-.378.142-.588.15-.21.009-.415.014-.615.014h-1.148-.069zm3.186 7.164c-.273.31-.652.465-1.135.465h-2.051v-3.459h1.928c.547 0 .961.169 1.244.506.282.337.424.752.424 1.244 0 .519-.137.934-.41 1.244z"/><path d="m35.5 54h1.668v-4.539h4.211v-1.121h-4.211v-3.172h4.635v-1.244h-6.303z"/><path d="m25.5 13h-12v4 2 2 2 2 2 2 2 4h10 2 21v-4-2-2-2-2-2-4h-21zm-10 6h8v2h-8zm0 4h8v2h-8zm0 4h8v2h-8zm8 6h-8v-2h8zm21 0h-19v-2h19zm0-4h-19v-2h19zm0-4h-19v-2h19zm0-6v2h-19v-2zm-29-2v-2h8v2z"/></svg>