<svg enable-background="new 0 0 58 58" viewBox="0 0 58 58" xmlns="http://www.w3.org/2000/svg"><path d="m50.95 12.187-.771-.771-10.095-10.095-.771-.771c-.349-.349-.833-.55-1.328-.55h-29.022c-1.186 0-2.463.916-2.463 2.926v36.074 16.537.463c0 .837.842 1.653 1.838 1.91.05.013.098.032.15.042.156.031.315.048.475.048h40.074c.16 0 .319-.017.475-.048.052-.01.1-.029.15-.042.996-.257 1.838-1.073 1.838-1.91v-.463-16.537-25.022c0-.767-.092-1.333-.55-1.791zm-3.015-.187h-8.435v-8.435zm-38.972 44c-.071 0-.135-.026-.198-.049-.156-.074-.265-.23-.265-.414v-14.537h41v14.537c0 .184-.109.339-.265.414-.063.023-.127.049-.198.049zm-.463-17v-36.074c0-.217.033-.926.463-.926h28.595c-.033.126-.058.256-.058.391v11.609h11.609c.135 0 .264-.025.39-.058 0 .015.001.021.001.036v25.022z"/><path d="m23.235 45.4c-.424-.446-.957-.805-1.6-1.073s-1.388-.403-2.235-.403h-3.035v10.076h3.814c.127 0 .323-.016.588-.048.264-.032.556-.104.875-.219.319-.114.649-.285.991-.513s.649-.54.923-.937.499-.889.677-1.477.267-1.297.267-2.126c0-.602-.105-1.188-.314-1.757-.21-.568-.527-1.076-.951-1.523zm-1.196 6.33c-.492.711-1.294 1.066-2.406 1.066h-1.627v-7.629h.957c.784 0 1.422.103 1.914.308s.882.474 1.169.807.48.704.581 1.114c.1.41.15.825.15 1.244 0 1.349-.246 2.38-.738 3.09z"/><path d="m33.265 45.072c-.378-.429-.82-.754-1.326-.978s-1.06-.335-1.661-.335-1.155.111-1.661.335-.948.549-1.326.978-.675.964-.889 1.606c-.214.643-.321 1.388-.321 2.235s.107 1.595.321 2.242.51 1.185.889 1.613c.378.429.82.752 1.326.971s1.06.328 1.661.328 1.155-.109 1.661-.328.948-.542 1.326-.971.674-.966.889-1.613c.214-.647.321-1.395.321-2.242s-.107-1.593-.321-2.235c-.215-.642-.511-1.177-.889-1.606zm-.677 5.626c-.137.487-.326.882-.567 1.183-.242.301-.515.518-.82.649-.306.132-.627.198-.964.198-.328 0-.641-.07-.937-.212s-.561-.364-.793-.67-.415-.699-.547-1.183c-.132-.483-.203-1.066-.212-1.75.009-.702.082-1.294.219-1.777s.326-.877.567-1.183.515-.521.82-.649.626-.191.964-.191c.328 0 .64.068.937.205.296.137.561.36.793.67s.415.704.547 1.183.203 1.06.212 1.743c-.01.702-.082 1.297-.219 1.784z"/><path d="m39.062 45.954c.241-.306.515-.521.82-.649s.626-.191.964-.191c.301 0 .59.06.868.178s.531.31.759.574l1.135-1.012c-.374-.364-.798-.638-1.271-.82-.474-.183-.984-.273-1.531-.273-.593 0-1.144.111-1.654.335-.511.224-.955.549-1.333.978s-.675.964-.889 1.606c-.214.643-.321 1.388-.321 2.235s.107 1.595.321 2.242.51 1.185.889 1.613c.378.429.82.752 1.326.971s1.06.328 1.661.328c.547 0 1.057-.091 1.531-.273.474-.183.897-.456 1.271-.82l-1.135-.998c-.237.265-.499.456-.786.574s-.595.178-.923.178-.641-.07-.937-.212-.561-.364-.793-.67-.415-.699-.547-1.183c-.132-.483-.203-1.066-.212-1.75.009-.702.082-1.294.219-1.777s.326-.878.568-1.184z"/><path d="m13.5 14h6c.552 0 1-.448 1-1s-.448-1-1-1h-6c-.552 0-1 .448-1 1s.448 1 1 1z"/><path d="m13.5 19h9c.552 0 1-.448 1-1s-.448-1-1-1h-9c-.552 0-1 .448-1 1s.448 1 1 1z"/><path d="m26.5 19c.26 0 .52-.11.71-.29.18-.19.29-.45.29-.71s-.11-.52-.29-.71c-.37-.37-1.05-.37-1.42 0-.18.19-.29.45-.29.71s.11.52.29.71c.19.18.45.29.71.29z"/><path d="m30.5 19h8c.552 0 1-.448 1-1s-.448-1-1-1h-8c-.552 0-1 .448-1 1s.448 1 1 1z"/><path d="m12.79 32.29c-.18.19-.29.45-.29.71s.11.52.29.71c.19.18.45.29.71.29s.52-.11.71-.29c.18-.19.29-.45.29-.71 0-.27-.11-.52-.29-.71-.37-.37-1.05-.37-1.42 0z"/><path d="m25.5 32h-8c-.552 0-1 .448-1 1s.448 1 1 1h8c.552 0 1-.448 1-1s-.448-1-1-1z"/><path d="m44.5 17h-2c-.552 0-1 .448-1 1s.448 1 1 1h2c.552 0 1-.448 1-1s-.448-1-1-1z"/><path d="m13.5 24h22c.552 0 1-.448 1-1s-.448-1-1-1h-22c-.552 0-1 .448-1 1s.448 1 1 1z"/><path d="m44.5 22h-6c-.552 0-1 .448-1 1s.448 1 1 1h6c.552 0 1-.448 1-1s-.448-1-1-1z"/><path d="m13.5 29h4c.552 0 1-.448 1-1s-.448-1-1-1h-4c-.552 0-1 .448-1 1s.448 1 1 1z"/><path d="m31.5 27h-10c-.552 0-1 .448-1 1s.448 1 1 1h10c.552 0 1-.448 1-1s-.448-1-1-1z"/><path d="m44.5 27h-9c-.552 0-1 .448-1 1s.448 1 1 1h9c.552 0 1-.448 1-1s-.448-1-1-1z"/></svg>