<svg enable-background="new 0 0 58 58" viewBox="0 0 58 58" xmlns="http://www.w3.org/2000/svg"><path d="m50.95 12.187-.77-.77-10.096-10.096s-.001-.001-.002-.001l-.768-.768c-.349-.351-.834-.552-1.329-.552h-29.022c-1.186 0-2.463.916-2.463 2.926v36.074 16.537.463c0 .838.843 1.654 1.839 1.91.05.013.097.032.148.042.157.031.316.048.476.048h40.074c.16 0 .319-.017.475-.048.051-.01.098-.029.148-.042.997-.256 1.84-1.072 1.84-1.91v-.463-16.537-25.022c0-.765-.092-1.332-.55-1.791zm-11.45-8.622 8.435 8.435h-8.435zm-30.537 52.435c-.071 0-.135-.025-.198-.049-.156-.075-.265-.231-.265-.414v-14.537h41v14.537c0 .183-.109.339-.265.414-.063.024-.127.049-.198.049zm-.463-17v-36.074c0-.217.033-.926.463-.926h28.595c-.033.126-.058.256-.058.392v11.608h11.609c.135 0 .264-.025.39-.058 0 .014.001.02.001.036v25.022z"/><path d="m19.683 45.4c-.424-.446-.957-.805-1.6-1.073s-1.388-.403-2.235-.403h-3.035v10.076h3.814c.127 0 .323-.016.588-.048.264-.032.556-.104.875-.219.319-.114.649-.285.991-.513s.649-.54.923-.937.499-.889.677-1.477.267-1.297.267-2.126c0-.602-.105-1.188-.314-1.757-.211-.568-.528-1.076-.951-1.523zm-1.197 6.33c-.492.711-1.294 1.066-2.406 1.066h-1.627v-7.629h.957c.784 0 1.422.103 1.914.308s.882.474 1.169.807.48.704.581 1.114c.1.41.15.825.15 1.244.001 1.349-.245 2.38-.738 3.09z"/><path d="m32.213 52.619-1.777-8.695h-1.86l-1.914 8.695-1.777-8.695h-1.86l2.557 10.131h2.147l1.763-7.602 1.654 7.602h2.133l2.721-10.131h-1.859z"/><path d="m42.234 49.926h1.709v2.488c-.073.101-.187.178-.342.232s-.316.098-.485.13-.337.055-.506.068-.303.021-.403.021c-.328 0-.641-.077-.937-.232s-.561-.392-.793-.711-.415-.729-.547-1.23-.203-1.094-.212-1.777c.009-.702.082-1.294.219-1.777s.326-.877.567-1.183.515-.521.82-.649.627-.191.964-.191c.301 0 .593.06.875.178s.533.31.752.574l1.135-1.012c-.374-.364-.798-.638-1.271-.82s-.984-.273-1.531-.273c-.593 0-1.144.111-1.654.335s-.955.549-1.333.978-.675.964-.889 1.606c-.214.643-.321 1.388-.321 2.235s.107 1.595.321 2.242.51 1.185.889 1.613c.378.429.82.752 1.326.971s1.06.328 1.661.328c.301 0 .604-.022.909-.068s.602-.123.889-.232.561-.248.82-.417.494-.385.704-.649v-3.896h-3.336z"/><path d="m41.5 21h-4v-6h-2v6h-4v4h-2v-12h-17v17.065h17v-3.065h2v4h4v6h2v-6h4v-4h6v-2h-6zm-14 7.065h-13v-13.065h13v10h-2v2h2zm12 .935h-6v-6h6z"/></svg>