<svg enable-background="new 0 0 58 58" viewBox="0 0 58 58" xmlns="http://www.w3.org/2000/svg"><g fill="#e57e25"><path d="m30.6 45.8c-.3-.2-.7-.3-1.1-.3h-2.2v3.2h2.2c.6 0 1-.2 1.3-.5s.4-.7.4-1.1c0-.3-.1-.6-.2-.8 0-.2-.2-.4-.4-.5z"/><path d="m6.5 41v15c0 1 1.2 2 2.5 2h40c1.2 0 2.5-1 2.5-2v-15zm17.9 4.5h-4.8v2.8h4.1v1.3h-4.1v2.9h4.8v1.4h-6.4v-10h6.4zm7.6 3.7c-.5.6-1.3 1-2.3 1h-2.3v3.9h-1.5v-10h3.6c.4 0 .8 0 1.1.1.4.1.7.3 1.1.6.3.2.6.5.8 1 .2.4.3.9.3 1.4 0 .7-.3 1.4-.8 2zm5.1 4.9c-1.5 0-2.7-.5-3.8-1.4l1-1.1c.8.7 1.7 1 2.8 1 1.3 0 1.9-.5 2-1.4 0-.7-.4-1.2-1.3-1.3-.4-.1-.8-.1-1.3-.2-.9-.1-1.5-.5-2-.9-.5-.5-.7-1.1-.7-1.8 0-.9.3-1.6.9-2.1s1.4-.8 2.4-.8c1.2 0 2.3.4 3.2 1l-.8 1.2c-.7-.5-1.6-.7-2.5-.8-.5 0-.9.1-1.2.3s-.5.6-.5 1.1c0 .3.1.5.3.8.2.2.6.4 1.1.5.3 0 .6.1 1.1.2.9.1 1.6.5 2.1 1 .4.5.7 1.2.7 1.9-.1 1.8-1.2 2.8-3.5 2.8z"/></g><path d="m51.5 39v-25c0-.8-.1-1.3-.5-1.8l-11.7-11.7c-.3-.3-.8-.5-1.3-.5h-29c-1.2 0-2.5.9-2.5 2.9v36.1zm-14-35.6c0-.5.6-.7.9-.4l10.1 10.1c.3.3.1.9-.4.9h-10.6zm-25 13.6h6v2h6v-4h10v4h6v-2h6v6h-6v-2h-3.5c4.6 2.6 7.5 7.6 7.5 13 0 .6-.4 1-1 1s-1-.4-1-1c0-5.2-3.2-10-8-12v3h-10v-3c-4.8 2-8 6.8-8 12 0 .6-.4 1-1 1s-1-.4-1-1c0-5.4 3-10.4 7.5-13h-3.5v2h-6z" fill="#c8bdb8"/></svg>