<svg enable-background="new 0 0 58 58" viewBox="0 0 58 58" xmlns="http://www.w3.org/2000/svg"><path d="m50.95 12.187-.771-.771-10.095-10.095-.771-.771c-.349-.349-.833-.55-1.328-.55h-29.022c-1.186 0-2.463.916-2.463 2.926v36.074 16.537.463c0 .837.842 1.653 1.838 1.91.05.013.098.032.15.042.156.031.315.048.475.048h40.074c.16 0 .319-.017.475-.048.052-.01.1-.029.15-.042.996-.257 1.838-1.073 1.838-1.91v-.463-16.537-25.022c0-.767-.092-1.333-.55-1.791zm-3.015-.187h-8.435v-8.435zm-38.972 44c-.071 0-.135-.026-.198-.049-.156-.074-.265-.23-.265-.414v-14.537h41v14.537c0 .184-.109.339-.265.414-.063.023-.127.049-.198.049zm-.463-17v-36.074c0-.217.033-.926.463-.926h28.595c-.033.126-.058.256-.058.391v11.609h11.609c.135 0 .264-.025.39-.058 0 .015.001.021.001.036v25.022z"/><path d="m16.414 54h6.303v-1.244h-4.635v-3.295h4.211v-1.121h-4.211v-3.172h4.635v-1.244h-6.303z"/><path d="m30.428 43.924-1.928 4.101h-.137l-1.777-4.101h-1.873l2.721 5.181-2.557 4.895h1.9l1.723-3.801h.137l1.599 3.801h1.901l-2.557-4.895 2.721-5.181z"/><path d="m34.598 54h6.302v-1.244h-4.634v-3.295h4.211v-1.121h-4.211v-3.172h4.634v-1.244h-6.302z"/><path d="m39.798 15.045c-.527-.165-1.088.129-1.253.656l-5 16c-.165.527.129 1.088.656 1.253.1.031.2.046.299.046.426 0 .82-.274.954-.702l5-16c.165-.527-.129-1.088-.656-1.253z"/><circle cx="30" cy="20.5" r="1.5"/><circle cx="30" cy="27.5" r="1.5"/><path d="m22.5 19h2c.552 0 1-.448 1-1s-.448-1-1-1h-2c-3.86 0-7 3.14-7 7s3.14 7 7 7h2c.552 0 1-.448 1-1s-.448-1-1-1h-2c-2.757 0-5-2.243-5-5s2.243-5 5-5z"/></svg>