<svg enable-background="new 0 0 58 58" viewBox="0 0 58 58" xmlns="http://www.w3.org/2000/svg"><path d="m50.949 12.187-.771-.771-10.093-10.094-.771-.771c-.356-.356-.828-.551-1.329-.551h-29.022c-1.359 0-2.463 1.104-2.463 2.463v36.537 16.537c0 1.359 1.104 2.463 2.463 2.463h40.074c1.358 0 2.463-1.104 2.463-2.463v-16.537-25.485c0-.501-.195-.973-.551-1.328zm-3.014-.187h-8.435v-8.435zm1.565 43.537c0 .255-.208.463-.463.463h-40.074c-.255 0-.463-.208-.463-.463v-14.537h41zm-41-16.537v-36.537c0-.255.208-.463.463-.463h28.595c-.033.126-.058.256-.058.392v11.608h11.608c.135 0 .265-.025.392-.058v25.058z"/><path d="m18.246 49.461h4.211v-1.121h-4.211v-3.172h4.635v-1.244h-6.303v10.076h1.668z"/><path d="m30.934 52.756h-4.635v-8.832h-1.668v10.076h6.303z"/><path d="m34.652 51.908h3.787l.725 2.092h1.695l-3.5-10.063h-1.627l-3.527 10.063h1.709zm1.901-5.455 1.49 4.348h-3.008z"/><path d="m35.985 14.929-.707-.707c-4.289-4.289-11.268-4.289-15.557 0s-4.289 11.268 0 15.557c2.145 2.145 4.961 3.217 7.778 3.217s5.634-1.072 7.778-3.217l.707-.707-7.07-7.072zm-2.867 14.103c-3.53 2.826-8.712 2.603-11.982-.668-3.509-3.51-3.509-9.219 0-12.729 1.755-1.755 4.06-2.632 6.364-2.632 1.991 0 3.981.654 5.618 1.964l-7.032 7.033z"/><circle cx="26.5" cy="17" r="2"/><path d="m36.5 21h-3c-.553 0-1 .447-1 1s.447 1 1 1h3c.553 0 1-.447 1-1s-.447-1-1-1z"/><path d="m42.5 21h-2c-.553 0-1 .447-1 1s.447 1 1 1h2c.553 0 1-.447 1-1s-.447-1-1-1z"/></svg>