<svg enable-background="new 0 0 64 64" viewBox="0 0 64 64" xmlns="http://www.w3.org/2000/svg"><path d="m63 26v28c0 1.1-.9 2-2 2h-58c-1.1 0-2-.9-2-2v-28c0-2.2 1.8-4 4-4h54c2.2 0 4 1.8 4 4z" fill="#f9ebbc"/><path d="m63 16v10c0-2.2-1.8-4-4-4h-54c-2.2 0-4 1.8-4 4v-16c0-1.1.9-2 2-2h22.2c.5 0 1 .2 1.4.6l4.8 4.8c.4.4.9.6 1.4.6h28.2c1.1 0 2 .9 2 2z" fill="#f2df98"/><path d="m61 13h-28.2c-.3 0-.5-.1-.7-.3l-4.8-4.8c-.6-.6-1.3-.9-2.1-.9h-22.2c-1.7 0-3 1.3-3 3v44c0 1.7 1.3 3 3 3h58c1.7 0 3-1.3 3-3v-38c0-1.7-1.3-3-3-3zm-58-4h22.2c.3 0 .5.1.7.3l4.8 4.8c.6.6 1.3.9 2.1.9h28.2c.6 0 1 .4 1 1v6c-.8-.6-1.9-1-3-1h-54c-1.1 0-2.2.4-3 1v-12c0-.6.4-1 1-1zm59 45c0 .6-.4 1-1 1h-58c-.6 0-1-.4-1-1v-28c0-1.7 1.3-3 3-3h54c1.7 0 3 1.3 3 3z" fill="#e7c248"/></svg>