<svg enable-background="new 0 0 58 58" viewBox="0 0 58 58" xmlns="http://www.w3.org/2000/svg"><path d="m50.949 12.187-1.361-1.361-9.504-9.505c-.001-.001-.001-.001-.001-.001l-.771-.771c-.355-.354-.826-.549-1.327-.549h-29.022c-1.187 0-2.463.916-2.463 2.926v36.074 16.537.463c0 .837.841 1.652 1.836 1.909.051.014.1.033.152.043.156.031.315.048.475.048h40.074c.16 0 .319-.017.475-.048.052-.01.101-.029.152-.043.995-.257 1.836-1.072 1.836-1.909v-.463-16.537-25.022c0-.767-.093-1.334-.551-1.791zm-11.449-8.622 8.435 8.435h-8.435zm-30.537 52.435c-.071 0-.135-.025-.198-.049-.155-.074-.265-.23-.265-.414v-14.537h41v14.537c0 .184-.11.34-.265.414-.063.024-.127.049-.198.049zm-.463-17v-36.074c0-.217.033-.926.463-.926h28.595c-.033.126-.058.256-.058.391v11.609h11.608c.135 0 .265-.025.391-.058 0 .015.001.021.001.036v25.022z"/><path d="m16.814 48.34h-4.361v-4.416h-1.668v10.076h1.668v-4.539h4.361v4.539h1.641v-10.076h-1.641z"/><path d="m20.438 45.045h3.007v8.955h1.655v-8.955h3.007v-1.121h-7.669z"/><path d="m34.725 50.814-2.995-6.89h-1.667v10.076h1.667v-6.932l2.27 5.606h1.449l2.256-5.606v6.932h1.668v-10.076h-1.668z"/><path d="m43.57 43.924h-1.668v10.076h6.303v-1.244h-4.635z"/><path d="m24.207 17.293c-.391-.391-1.023-.391-1.414 0l-6 6c-.391.391-.391 1.023 0 1.414l6 6c.195.195.451.293.707.293s.512-.098.707-.293c.391-.391.391-1.023 0-1.414l-5.293-5.293 5.293-5.293c.391-.391.391-1.023 0-1.414z"/><path d="m36.207 17.293c-.391-.391-1.023-.391-1.414 0s-.391 1.023 0 1.414l5.293 5.293-5.293 5.293c-.391.391-.391 1.023 0 1.414.195.195.451.293.707.293s.512-.098.707-.293l6-6c.391-.391.391-1.023 0-1.414z"/></svg>