<svg enable-background="new 0 0 58 58" viewBox="0 0 58 58" xmlns="http://www.w3.org/2000/svg"><path d="m50.949 12.187-1.361-1.361-9.504-9.505c-.001-.001-.001-.001-.001-.001l-.771-.771c-.355-.354-.826-.549-1.327-.549h-29.022c-1.187 0-2.463.916-2.463 2.926v36.074 16.537.463c0 .837.841 1.652 1.836 1.909.051.014.1.033.152.043.156.031.315.048.475.048h40.074c.16 0 .319-.017.475-.048.052-.01.101-.029.152-.043.995-.257 1.836-1.072 1.836-1.909v-.463-16.537-25.022c0-.767-.093-1.334-.551-1.791zm-11.874 12.813-6.773-1.815c.119-.381.198-.775.198-1.185 0-1.068-.416-2.073-1.172-2.828-.755-.755-1.76-1.172-2.828-1.172-.355 0-.697.062-1.031.151l-1.813-6.764c.931-.248 1.886-.382 2.844-.382 2.817 0 5.634 1.072 7.778 3.216 2.914 2.915 3.843 7.069 2.797 10.779zm-.745 1.92c-.089.179-.187.353-.285.526-.073.128-.147.256-.225.381-.086.138-.175.275-.268.409-.114.166-.235.329-.36.49-.077.099-.151.2-.231.297-.215.259-.44.513-.682.755-.316.316-.656.607-1.008.882-.073.057-.148.108-.221.163-.314.231-.638.45-.977.648-.027.016-.054.032-.082.048l-1.677-6.261 6.038 1.618c-.009.015-.015.03-.022.044zm-20.443-7.764 6.764 1.812c-.089.335-.151.677-.151 1.032 0 1.068.416 2.073 1.172 2.828.755.755 1.76 1.172 2.828 1.172.646 0 1.26-.169 1.819-.456l1.827 6.82c-3.866 1.353-8.339.499-11.425-2.585-2.873-2.874-3.811-6.953-2.834-10.623zm.728-1.958c.101-.211.211-.416.325-.619.061-.107.124-.214.188-.319.099-.163.201-.324.309-.482.107-.156.221-.308.337-.459.085-.111.167-.225.256-.333.218-.262.445-.519.691-.765.245-.245.502-.473.764-.69.109-.09.224-.173.336-.259.15-.115.302-.229.456-.335.157-.107.318-.209.481-.308.106-.065.212-.128.32-.189.203-.114.409-.224.621-.326.023-.011.047-.022.071-.033l1.9 7.09-7.091-1.9c.014-.024.024-.049.036-.073zm8.754 3.158.064-.044c.317-.201.683-.312 1.067-.312.534 0 1.036.208 1.414.586s.586.88.586 1.414-.208 1.036-.586 1.414c-.756.756-2.072.756-2.828 0-.378-.378-.586-.88-.586-1.414 0-.384.111-.749.312-1.065l.046-.067c.051-.075.112-.146.174-.216.02-.021.034-.045.054-.066.015-.015.033-.025.048-.039.075-.069.153-.134.235-.191zm12.131-16.791 8.435 8.435h-8.435zm-30.537 52.435c-.071 0-.135-.025-.198-.049-.155-.074-.265-.23-.265-.414v-14.537h41v14.537c0 .184-.11.34-.265.414-.063.024-.127.049-.198.049zm-.463-17v-36.074c0-.217.033-.926.463-.926h28.595c-.033.126-.058.256-.058.391v10.243c-3.384-3.253-8.103-4.31-12.361-3.176l-.013-.047-1.022.367c-.027.01-.051.023-.077.032-.383.14-.759.299-1.13.475-.059.028-.119.054-.178.082-.344.171-.68.36-1.011.563-.075.046-.153.087-.227.134-.306.196-.602.412-.894.637-.08.061-.165.116-.244.179-.357.288-.704.595-1.035.927-.332.332-.639.679-.928 1.036-.062.077-.115.159-.174.237-.226.294-.444.592-.642.9-.047.073-.087.149-.132.223-.204.333-.394.671-.566 1.016-.028.056-.052.115-.08.172-.178.374-.338.753-.479 1.139-.009.025-.022.048-.031.073l-.366 1.022.046.012c-1.154 4.337-.045 9.157 3.35 12.553 2.534 2.534 5.863 3.801 9.192 3.801 1.41 0 2.815-.241 4.164-.696l.015.057.677-.298c.065-.026.129-.058.194-.086l.197-.087c.046-.02.088-.045.133-.066.305-.139.607-.285.903-.448.076-.042.149-.089.224-.133.267-.155.533-.312.791-.487.143-.096.277-.203.415-.305.185-.137.373-.268.552-.415.321-.264.631-.542.926-.837.325-.325.628-.664.911-1.014.057-.071.106-.148.162-.22.225-.29.443-.584.64-.889.039-.061.072-.126.11-.187.206-.33.4-.665.573-1.009.025-.05.046-.102.071-.153.177-.361.337-.727.478-1.1.008-.021.019-.04.027-.061l.386-1.031-.046-.012c1.088-3.895.33-8.194-2.27-11.517h10.374c.135 0 .265-.025.391-.058 0 .015.001.021.001.036v25.025z"/><path d="m19.785 43.924h1.668v10.076h-1.668z"/><path d="m28.569 49.064c-.314-.228-.654-.422-1.019-.581s-.702-.323-1.012-.492c-.311-.169-.57-.364-.779-.588-.21-.224-.314-.518-.314-.882 0-.146.036-.299.109-.458.072-.159.173-.303.301-.431.127-.128.273-.234.438-.321s.337-.139.52-.157c.328-.027.597-.032.807-.014.209.019.378.05.506.096.127.046.226.091.294.137s.13.082.185.109c.009-.009.036-.055.082-.137.045-.082.1-.185.164-.308.063-.123.132-.255.205-.396.072-.142.137-.271.191-.39-.265-.173-.611-.299-1.039-.376-.429-.077-.853-.116-1.271-.116-.41 0-.8.063-1.169.191s-.692.313-.971.554-.499.535-.663.882-.246.743-.246 1.189c0 .492.104.902.314 1.23.209.328.474.613.793.854.318.241.66.451 1.025.629.364.178.704.355 1.019.533s.576.376.786.595c.209.219.314.483.314.793 0 .511-.148.896-.444 1.155s-.723.39-1.278.39c-.183 0-.379-.019-.588-.055-.21-.036-.42-.084-.629-.144-.21-.06-.412-.123-.608-.191s-.358-.139-.485-.212l-.287 1.176c.154.137.34.253.554.349s.439.171.677.226c.236.055.472.094.704.116s.458.034.677.034c.51 0 .966-.077 1.367-.232.4-.155.738-.362 1.012-.622s.485-.561.636-.902.226-.695.226-1.06c0-.538-.105-.978-.314-1.319-.213-.341-.475-.626-.79-.854z"/><path d="m38.358 45.072c-.378-.429-.82-.754-1.326-.978s-1.06-.335-1.661-.335-1.155.111-1.661.335-.948.549-1.326.978-.675.964-.889 1.606-.321 1.388-.321 2.235.107 1.595.321 2.242.511 1.185.889 1.613.82.752 1.326.971 1.06.328 1.661.328 1.155-.109 1.661-.328.948-.542 1.326-.971.675-.966.889-1.613.321-1.395.321-2.242-.107-1.593-.321-2.235-.511-1.177-.889-1.606zm-.676 5.626c-.137.487-.326.882-.567 1.183s-.515.518-.82.649-.627.198-.964.198c-.328 0-.641-.07-.937-.212s-.561-.364-.793-.67-.415-.699-.547-1.183-.203-1.066-.212-1.75c.009-.702.082-1.294.219-1.777s.326-.877.567-1.183.515-.521.82-.649.626-.191.964-.191c.328 0 .641.068.937.205s.561.36.793.67.415.704.547 1.183.202 1.06.212 1.743c-.01.702-.083 1.297-.219 1.784z"/></svg>