<svg enable-background="new 0 0 58 58" viewBox="0 0 58 58" xmlns="http://www.w3.org/2000/svg"><g fill="#c8bdb8"><path d="m27.071 20.604c-.082.085-.152.173-.214.264l-.046.067c-.2.316-.311.681-.311 1.065 0 .534.208 1.036.586 1.414.756.756 2.072.756 2.828 0 .378-.378.586-.88.586-1.414s-.208-1.036-.586-1.414-.88-.586-1.414-.586c-.384 0-.75.111-1.067.312l-.064.044c-.082.057-.16.121-.235.19-.015.014-.033.025-.048.039-.006.006-.009.013-.015.019z"/><path d="m28.5 18c1.068 0 2.073.417 2.828 1.172.756.755 1.172 1.76 1.172 2.828 0 .41-.079.804-.198 1.185l6.777 1.816c.273-.965.421-1.971.421-3.001 0-2.938-1.144-5.701-3.222-7.778s-4.84-3.222-7.778-3.222c-.975 0-1.928.137-2.846.382l1.815 6.769c.334-.089.676-.151 1.031-.151z"/><path d="m35.074 30.806c.065-.049.131-.095.195-.145.353-.275.693-.566 1.01-.883.235-.235.455-.482.666-.734.093-.111.179-.227.267-.342.105-.135.207-.271.305-.411.115-.165.224-.332.33-.503.049-.079.097-.159.144-.239.128-.22.252-.442.365-.672l-6.041-1.619 1.678 6.266c.004-.002.008-.005.012-.007.371-.215.725-.456 1.069-.711z"/><path d="m23.771 12.078c-.265.125-.522.262-.774.406-.055.032-.109.065-.163.098-.205.123-.407.251-.604.387-.124.086-.244.179-.365.271-.134.101-.27.2-.399.307-.256.214-.506.437-.744.675-.246.246-.474.503-.691.765-.089.108-.171.221-.256.333-.116.151-.23.303-.337.459-.108.157-.209.319-.309.482-.065.106-.128.212-.188.319-.114.203-.224.408-.325.619-.012.024-.022.049-.034.074l7.091 1.9z"/><path d="m28.5 26c-1.068 0-2.073-.417-2.828-1.172-.756-.755-1.172-1.76-1.172-2.828 0-.355.062-.697.151-1.031l-6.764-1.812c-.977 3.67-.038 7.749 2.835 10.622 2.078 2.077 4.84 3.221 7.778 3.221 1.264 0 2.49-.224 3.648-.63l-1.829-6.826c-.559.287-1.173.456-1.819.456z"/><path d="m51.5 39v-25.022c0-.766-.092-1.333-.55-1.792l-11.637-11.636c-.349-.349-.833-.55-1.328-.55h-29.022c-1.186 0-2.463.916-2.463 2.926v36.074zm-35.589-20.373.366-1.022c.009-.025.022-.048.031-.073.141-.386.301-.765.479-1.139.027-.057.052-.115.08-.172.171-.346.362-.684.566-1.016.045-.074.085-.15.132-.223.198-.308.415-.606.642-.9.06-.078.113-.161.174-.237.288-.357.596-.704.928-1.036.329-.329.675-.635 1.031-.923.066-.053.136-.099.203-.151.308-.24.624-.467.95-.677.044-.028.089-.053.133-.08.372-.233.755-.445 1.147-.639l.006-.003c.629-.309 1.277-.579 1.949-.781l.399-.143.011.041c1.084-.291 2.209-.453 3.362-.453 3.385 0 6.567 1.293 9 3.633v-9.242c0-.458.553-.687.877-.363l10.095 10.095c.324.324.095.877-.363.877h-9.373c1.787 2.277 2.764 5.061 2.764 8 0 1.207-.174 2.386-.49 3.518l.041.011-.359.959c-.319.867-.726 1.698-1.225 2.482-.019.031-.036.063-.056.094-.21.324-.439.637-.68.943-.045.058-.085.12-.132.177-.284.349-.584.687-.907 1.009-.288.288-.59.561-.904.82-.281.234-.575.449-.872.657-.023.016-.044.034-.067.05-.797.549-1.648 1.003-2.54 1.358l-.63.278-.013-.048c-1.325.447-2.725.692-4.166.692-3.473 0-6.737-1.352-9.192-3.808-3.396-3.396-4.504-8.216-3.35-12.553z"/></g><g fill="#71c285"><path d="m37.142 45.988c-.232-.31-.497-.533-.793-.67s-.608-.205-.937-.205c-.338 0-.658.063-.964.191s-.579.344-.82.649-.431.699-.567 1.183-.21 1.075-.219 1.777c.009.684.08 1.267.212 1.75s.314.877.547 1.183.497.528.793.67.608.212.937.212c.337 0 .658-.066.964-.198s.579-.349.82-.649.431-.695.567-1.183.209-1.082.219-1.784c-.01-.684-.08-1.265-.212-1.743s-.315-.873-.547-1.183z"/><path d="m6.5 41v15c0 1.009 1.22 2 2.463 2h40.074c1.243 0 2.463-.991 2.463-2v-15zm14.953 13h-1.668v-10.076h1.668zm7.991-1.702c-.15.342-.362.643-.636.902s-.611.467-1.012.622-.857.232-1.367.232c-.219 0-.444-.012-.677-.034s-.468-.062-.704-.116c-.237-.055-.463-.13-.677-.226s-.399-.212-.554-.349l.287-1.176c.127.073.289.144.485.212s.398.132.608.191c.209.06.419.107.629.144.209.036.405.055.588.055.556 0 .982-.13 1.278-.39s.444-.645.444-1.155c0-.31-.105-.574-.314-.793-.21-.219-.472-.417-.786-.595s-.654-.355-1.019-.533-.707-.388-1.025-.629c-.319-.241-.584-.526-.793-.854-.21-.328-.314-.738-.314-1.23 0-.446.082-.843.246-1.189s.385-.641.663-.882.602-.426.971-.554.759-.191 1.169-.191c.419 0 .843.039 1.271.116s.774.203 1.039.376c-.055.118-.119.248-.191.39-.073.142-.142.273-.205.396-.064.123-.119.226-.164.308-.046.082-.073.128-.082.137-.055-.027-.116-.063-.185-.109s-.167-.091-.294-.137c-.128-.046-.297-.077-.506-.096-.21-.019-.479-.014-.807.014-.183.019-.355.07-.52.157s-.311.193-.438.321c-.128.128-.229.271-.301.431-.073.159-.109.313-.109.458 0 .364.104.658.314.882.209.224.469.419.779.588s.646.333 1.012.492c.364.159.704.354 1.019.581s.576.513.786.854c.209.342.314.781.314 1.319.004.365-.071.718-.222 1.06zm9.803-1.142c-.214.647-.511 1.185-.889 1.613s-.82.752-1.326.971-1.06.328-1.661.328-1.155-.109-1.661-.328-.948-.542-1.326-.971-.675-.966-.889-1.613-.321-1.395-.321-2.242.107-1.593.321-2.235.511-1.178.889-1.606.82-.754 1.326-.978 1.06-.335 1.661-.335 1.155.111 1.661.335.948.549 1.326.978.675.964.889 1.606.321 1.388.321 2.235-.107 1.595-.321 2.242z"/></g></svg>