<svg enable-background="new 0 0 58 58" viewBox="0 0 58 58" xmlns="http://www.w3.org/2000/svg"><g fill="#b53438"><path d="m28.2 46.1-1.5 4.4h2.9z"/><path d="m39 46.9c0-.5-.2-.9-.5-1.1s-.6-.3-1.1-.3h-2.4v3h2.3c.6 0 1-.2 1.3-.5.2-.3.4-.7.4-1.1z"/><path d="m6.5 41v15c0 1 1.2 2 2.5 2h40c1.2 0 2.5-1 2.5-2v-15zm16.5 10c0 1-.3 1.8-1 2.3-.6.6-1.4.8-2.2.9-1.2 0-2-.5-2.6-1.3l1.2-.9c.1.2.3.3.5.5.2.1.5.2.8.2.4 0 .8-.1 1.1-.4.2-.1.3-.3.4-.6.1-.2.2-.5.2-.8v-6.7h1.6zm7.8 3.1-.8-2.2h-3.8l-.8 2.2h-1.6l3.6-10h1.3l3.6 10zm8.2 0-2.1-4.3h-1.9v4.3h-1.5v-10h3.9c.8 0 1.5.2 2 .7.6.5 1 1.2 1 2.1 0 1.4-.7 2.3-1.9 2.8l2.3 4.4z"/></g><g fill="#c8bdb8"><path d="m36.7 22.6c0-.3.1-.7.1-1v-2.2h-22.2v2.2c0 6.1 5 11 11 11 5.4 0 9.9-3.9 10.9-9.1.1-.2.2-.6.2-.9z"/><path d="m51 12.2-11.7-11.7c-.3-.3-.8-.5-1.3-.5h-29c-1.2 0-2.5.9-2.5 2.9v36.1h45v-25c0-.8-.1-1.4-.5-1.8zm-12.1 12.7h-.4c-.8 3.2-2.8 5.9-5.5 7.7h2.6c.6 0 1.1.5 1.1 1.1s-.5 1.1-1.1 1.1h-19.9c-.6 0-1.1-.5-1.1-1.1s.5-1.1 1.1-1.1h2.6c-3.6-2.4-5.9-6.4-5.9-11v-3.3c0-.6.5-1.1 1.1-1.1h24.3 6.6c.6 0 1.1.5 1.1 1.1.1 3.7-2.9 6.6-6.6 6.6zm9.2-10.9h-10.6v-10.6c0-.5.6-.7.9-.4l10.1 10.1c.3.3.1.9-.4.9z"/><path d="m38.9 21.6v1.1c2.1 0 3.8-1.4 4.3-3.3h-4.3z"/></g></svg>