<svg enable-background="new 0 0 58 58" viewBox="0 0 58 58" xmlns="http://www.w3.org/2000/svg"><g fill="#c8bdb8"><path d="m50.95 12.187-11.637-11.637c-.349-.349-.833-.55-1.328-.55h-29.022c-1.186 0-2.463.916-2.463 2.926v36.074h.633l16.736-14.245c.397-.337.986-.314 1.355.055l4.743 4.743 9.795-10.727c.181-.198.434-.315.703-.325.282-.009.53.09.725.274l10 9.5.311.297v-14.594c-.001-.766-.093-1.333-.551-1.791zm-34.45 11.451c-3.071 0-5.569-2.498-5.569-5.569s2.498-5.569 5.569-5.569 5.569 2.498 5.569 5.569-2.498 5.569-5.569 5.569zm31.609-9.638h-10.609v-10.609c0-.458.553-.687.877-.363l10.095 10.095c.324.324.095.877-.363.877z"/><path d="m31.383 30.969 4.807 4.807c.391.391.391 1.023 0 1.414s-1.023.391-1.414 0l-10.314-10.314-14.244 12.124h41.282v-7.636l-10.949-10.436z"/><path d="m16.5 14.5c-1.968 0-3.569 1.601-3.569 3.569s1.601 3.569 3.569 3.569 3.569-1.601 3.569-3.569-1.601-3.569-3.569-3.569z"/></g><g fill="#14a085"><path d="m26.946 45.858c-.142-.196-.34-.36-.595-.492s-.593-.198-1.012-.198h-1.23v3.992h1.504c.2 0 .398-.034.595-.103.196-.068.376-.18.54-.335s.296-.371.396-.649.15-.622.15-1.032c0-.164-.023-.354-.068-.567-.045-.214-.139-.419-.28-.616z"/><path d="m8.5 41h-.65-1.35v1.08.92 13c0 1.009 1.22 2 2.463 2h40.074c1.243 0 2.463-.991 2.463-2v-15zm11.521 10.566c0 .474-.087.873-.26 1.196s-.406.583-.697.779c-.292.196-.627.333-1.005.41s-.768.116-1.169.116c-.201 0-.436-.021-.704-.062-.269-.041-.547-.104-.834-.191s-.563-.185-.827-.294c-.265-.109-.488-.232-.67-.369l.697-1.107c.091.063.221.13.39.198.168.068.353.132.554.191.2.06.41.111.629.157s.424.068.615.068c.483 0 .868-.094 1.155-.28s.439-.504.458-.95v-7.711h1.668zm8.6-3.137c-.173.415-.415.764-.725 1.046s-.684.501-1.121.656-.921.232-1.449.232h-1.217v3.637h-1.641v-10.076h2.898c.428 0 .852.068 1.271.205s.795.342 1.128.615.602.604.807.991.308.822.308 1.306c.001.511-.086.973-.259 1.388zm9.475 4.272c-.21.265-.444.48-.704.649s-.533.308-.82.417-.584.187-.889.233c-.306.046-.608.068-.909.068-.602 0-1.155-.109-1.661-.328s-.948-.542-1.326-.971-.675-.966-.889-1.613-.321-1.395-.321-2.242.107-1.593.321-2.235c.214-.643.51-1.178.889-1.606.378-.429.822-.754 1.333-.978.51-.224 1.062-.335 1.654-.335.547 0 1.057.091 1.531.273.474.183.897.456 1.271.82l-1.135 1.012c-.219-.265-.47-.456-.752-.574-.283-.118-.574-.178-.875-.178-.337 0-.659.063-.964.191-.306.128-.579.344-.82.649-.242.306-.431.699-.567 1.183s-.21 1.075-.219 1.777c.009.684.08 1.276.212 1.777s.314.911.547 1.23.497.556.793.711.608.232.937.232c.1 0 .234-.007.403-.021.168-.014.337-.036.506-.068.168-.032.33-.075.485-.13s.269-.132.342-.232v-2.488h-1.709v-1.121h3.336z"/></g></svg>