<svg enable-background="new 0 0 58 58" viewBox="0 0 58 58" xmlns="http://www.w3.org/2000/svg"><path d="m50.949 12.187-5.818-5.818-5.047-5.048-.77-.77c-.35-.35-.834-.551-1.329-.551h-29.022c-1.186 0-2.463.916-2.463 2.926v36.074 16.537.463c0 .837.842 1.653 1.838 1.91.05.013.098.032.15.042.156.031.315.048.475.048h40.074c.16 0 .319-.017.475-.048.052-.01.101-.029.152-.043.995-.257 1.836-1.072 1.836-1.909v-.463-16.537-25.022c0-.767-.093-1.334-.551-1.791zm-3.014-.187h-8.435v-8.435l4.248 4.249zm-38.972-10h28.595c-.033.126-.058.256-.058.391v11.609h11.608c.135 0 .265-.025.391-.058 0 .015.001.021.001.036v12.693l-8.311-7.896c-.195-.185-.445-.284-.725-.274-.269.01-.521.127-.703.325l-9.795 10.727-4.743-4.743c-.369-.369-.958-.392-1.355-.055l-15.368 13.081v-34.91c0-.217.033-.926.463-.926zm0 54c-.071 0-.135-.026-.198-.049-.156-.074-.265-.23-.265-.414v-14.537h41v14.537c0 .184-.11.34-.265.414-.063.024-.127.049-.198.049zm1.255-17 14.245-12.124 10.313 10.314c.391.391 1.023.391 1.414 0s.391-1.023 0-1.414l-4.807-4.807 9.168-10.041 8.949 8.501v9.571z"/><path d="m19.354 51.43c-.019.446-.171.764-.458.95s-.672.28-1.155.28c-.191 0-.396-.022-.615-.068s-.429-.098-.629-.157c-.201-.06-.385-.123-.554-.191s-.299-.135-.39-.198l-.697 1.107c.182.137.405.26.67.369.264.109.54.207.827.294s.565.15.834.191.503.062.704.062c.401 0 .791-.039 1.169-.116s.713-.214 1.005-.41.524-.456.697-.779.26-.723.26-1.196v-7.848h-1.668z"/><path d="m28.767 44.744c-.333-.273-.709-.479-1.128-.615-.419-.137-.843-.205-1.271-.205h-2.898v10.076h1.641v-3.637h1.217c.528 0 1.012-.077 1.449-.232s.811-.374 1.121-.656.551-.631.725-1.046c.173-.415.26-.877.26-1.388 0-.483-.103-.918-.308-1.306s-.476-.717-.808-.991zm-.622 3.329c-.101.278-.232.494-.396.649s-.344.267-.54.335-.395.103-.595.103h-1.504v-3.992h1.23c.419 0 .756.066 1.012.198.255.132.453.296.595.492.141.196.234.401.28.615.045.214.068.403.068.567 0 .411-.05.755-.15 1.033z"/><path d="m35.76 49.926h1.709v2.488c-.073.101-.187.178-.342.232-.155.055-.317.098-.485.13-.169.032-.337.055-.506.068-.169.014-.303.021-.403.021-.328 0-.641-.077-.937-.232s-.561-.392-.793-.711-.415-.729-.547-1.23-.203-1.094-.212-1.777c.009-.702.082-1.294.219-1.777s.326-.877.567-1.183.515-.521.82-.649.626-.191.964-.191c.301 0 .592.06.875.178.282.118.533.31.752.574l1.135-1.012c-.374-.364-.798-.638-1.271-.82-.474-.183-.984-.273-1.531-.273-.593 0-1.144.111-1.654.335-.511.224-.955.549-1.333.978s-.675.964-.889 1.606c-.214.643-.321 1.388-.321 2.235s.107 1.595.321 2.242.51 1.185.889 1.613c.378.429.82.752 1.326.971s1.06.328 1.661.328c.301 0 .604-.022.909-.068s.602-.123.889-.232.561-.248.82-.417.494-.385.704-.649v-3.896h-3.336z"/><path d="m19.069 23.638c3.071 0 5.569-2.498 5.569-5.569s-2.498-5.569-5.569-5.569-5.569 2.498-5.569 5.569 2.498 5.569 5.569 5.569zm0-9.138c1.968 0 3.569 1.601 3.569 3.569s-1.601 3.569-3.569 3.569-3.569-1.601-3.569-3.569 1.601-3.569 3.569-3.569z"/></svg>