<svg enable-background="new 0 0 58 58" viewBox="0 0 58 58" xmlns="http://www.w3.org/2000/svg"><path fill="#eeaf4b" d="m6.5 41v15c0 1.009 1.22 2 2.463 2h40.074c1.243 0 2.463-.991 2.463-2v-15zm20.521 10.566c0 .474-.087.873-.26 1.196-.174.323-.406.583-.697.779-.292.196-.627.333-1.005.41s-.769.116-1.169.116c-.201 0-.436-.021-.704-.062s-.547-.104-.834-.191-.563-.185-.827-.294c-.265-.109-.488-.232-.67-.369l.697-1.107c.091.063.221.13.39.198s.353.132.554.191c.2.06.41.111.629.157s.424.068.615.068c.482 0 .868-.094 1.155-.28s.439-.504.458-.95v-7.711h1.668zm7.937.732c-.15.342-.362.643-.636.902s-.611.467-1.012.622-.857.232-1.367.232c-.219 0-.444-.012-.677-.034s-.468-.062-.704-.116c-.237-.055-.463-.13-.677-.226s-.399-.212-.554-.349l.287-1.176c.127.073.289.144.485.212s.398.132.608.191c.209.06.419.107.629.144.209.036.405.055.588.055.556 0 .982-.13 1.278-.39s.444-.645.444-1.155c0-.31-.105-.574-.314-.793-.21-.219-.472-.417-.786-.595s-.654-.355-1.019-.533-.707-.388-1.025-.629c-.319-.241-.584-.526-.793-.854-.21-.328-.314-.738-.314-1.23 0-.446.082-.843.246-1.189s.385-.641.663-.882.602-.426.971-.554.759-.191 1.169-.191c.419 0 .843.039 1.271.116s.774.203 1.039.376c-.055.118-.119.248-.191.39-.073.142-.142.273-.205.396-.064.123-.119.226-.164.308-.046.082-.073.128-.082.137-.055-.027-.116-.063-.185-.109s-.167-.091-.294-.137c-.128-.046-.297-.077-.506-.096-.21-.019-.479-.014-.807.014-.183.019-.355.07-.52.157s-.311.193-.438.321c-.128.128-.229.271-.301.431-.073.159-.109.313-.109.458 0 .364.104.658.314.882.209.224.469.419.779.588s.646.333 1.012.492c.364.159.704.354 1.019.581s.576.513.786.854c.209.342.314.781.314 1.319.004.365-.072.718-.222 1.06z"/><path fill="#c8bdb8" d="m51.5 39v-25.022c0-.766-.092-1.333-.55-1.792l-11.637-11.636c-.349-.349-.833-.55-1.328-.55h-29.022c-1.186 0-2.463.916-2.463 2.926v36.074zm-22-7c0 .552-.447 1-1 1s-1-.448-1-1v-3c0-.552.447-1 1-1s1 .448 1 1zm8-28.609c0-.458.553-.687.877-.363l10.095 10.095c.324.324.095.877-.363.877h-10.609zm-1 19.609v-4c0-.551-.448-1-1-1-.553 0-1-.448-1-1s.447-1 1-1c1.654 0 3 1.346 3 3v4c0 1.103.897 2 2 2 .553 0 1 .448 1 1s-.447 1-1 1c-1.103 0-2 .897-2 2v4c0 1.654-1.346 3-3 3-.553 0-1-.448-1-1s.447-1 1-1c.552 0 1-.449 1-1v-4c0-1.2.542-2.266 1.382-3-.84-.734-1.382-1.8-1.382-3zm-8-2c.828 0 1.5.672 1.5 1.5s-.672 1.5-1.5 1.5-1.5-.672-1.5-1.5.672-1.5 1.5-1.5zm-12 4c1.103 0 2-.897 2-2v-4c0-1.654 1.346-3 3-3 .553 0 1 .448 1 1s-.447 1-1 1c-.552 0-1 .449-1 1v4c0 1.2-.542 2.266-1.382 3 .84.734 1.382 1.8 1.382 3v4c0 .551.448 1 1 1 .553 0 1 .448 1 1s-.447 1-1 1c-1.654 0-3-1.346-3-3v-4c0-1.103-.897-2-2-2-.553 0-1-.448-1-1s.447-1 1-1z"/></svg>