<svg enable-background="new 0 0 58 58" viewBox="0 0 58 58" xmlns="http://www.w3.org/2000/svg"><path d="m50.949 12.187-1.361-1.361-9.504-9.505c-.001-.001-.001-.001-.002-.001l-.77-.771c-.355-.354-.826-.549-1.327-.549h-29.022c-1.187 0-2.463.916-2.463 2.926v36.074 16.537.463c0 .837.841 1.652 1.836 1.909.051.014.1.033.152.043.156.031.315.048.475.048h40.074c.16 0 .319-.017.475-.048.052-.01.101-.029.152-.043.995-.257 1.836-1.072 1.836-1.909v-.463-16.537-25.022c0-.767-.093-1.334-.551-1.791zm-11.449-8.622 8.435 8.435h-8.435zm-30.537 52.435c-.071 0-.135-.025-.198-.049-.155-.074-.265-.23-.265-.414v-14.537h41v14.537c0 .184-.11.34-.265.414-.063.024-.127.049-.198.049zm-.463-17v-36.074c0-.217.033-.926.463-.926h28.595c-.033.126-.058.256-.058.391v11.389c-.532-.48-1.229-.78-2-.78-.553 0-1 .448-1 1s.447 1 1 1c.552 0 1 .449 1 1v4c0 1.2.542 2.266 1.382 3-.84.734-1.382 1.8-1.382 3v4c0 .551-.448 1-1 1-.553 0-1 .448-1 1s.447 1 1 1c1.654 0 3-1.346 3-3v-4c0-1.103.897-2 2-2 .553 0 1-.448 1-1s-.447-1-1-1c-1.103 0-2-.897-2-2v-4c0-.771-.301-1.468-.78-2h11.389c.135 0 .265-.025.391-.058 0 .015.001.021.001.036v25.022z"/><path d="m16.354 51.43c-.019.446-.171.764-.458.95s-.672.28-1.155.28c-.191 0-.396-.022-.615-.068s-.429-.098-.629-.157-.385-.123-.554-.191-.299-.135-.39-.198l-.697 1.107c.183.137.405.26.67.369s.54.207.827.294.565.15.834.191.504.062.704.062c.401 0 .791-.039 1.169-.116s.713-.214 1.005-.41.524-.456.697-.779.26-.723.26-1.196v-7.848h-1.668z"/><path d="m25.083 49.064c-.314-.228-.654-.422-1.019-.581s-.702-.323-1.012-.492-.569-.364-.779-.588-.314-.518-.314-.882c0-.146.036-.299.109-.458s.173-.303.301-.431.273-.234.438-.321.337-.139.52-.157c.328-.027.597-.032.807-.014s.378.05.506.096.226.091.294.137.13.082.185.109c.009-.009.036-.055.082-.137s.101-.185.164-.308.132-.255.205-.396.137-.271.191-.39c-.265-.173-.61-.299-1.039-.376s-.853-.116-1.271-.116c-.41 0-.8.063-1.169.191s-.692.313-.971.554-.499.535-.663.882-.248.744-.248 1.19c0 .492.104.902.314 1.23s.474.613.793.854.661.451 1.025.629.704.355 1.019.533.576.376.786.595.314.483.314.793c0 .511-.148.896-.444 1.155s-.723.39-1.278.39c-.183 0-.378-.019-.588-.055s-.419-.084-.629-.144-.412-.123-.608-.191-.357-.139-.485-.212l-.287 1.176c.155.137.34.253.554.349s.439.171.677.226c.237.055.472.094.704.116s.458.034.677.034c.511 0 .966-.077 1.367-.232s.738-.362 1.012-.622.485-.561.636-.902.226-.695.226-1.06c0-.538-.104-.978-.314-1.319s-.474-.627-.788-.855z"/><path d="m34.872 45.072c-.378-.429-.82-.754-1.326-.978s-1.06-.335-1.661-.335-1.155.111-1.661.335-.948.549-1.326.978-.675.964-.889 1.606-.321 1.388-.321 2.235.107 1.595.321 2.242.511 1.185.889 1.613.82.752 1.326.971 1.06.328 1.661.328 1.155-.109 1.661-.328.948-.542 1.326-.971.675-.966.889-1.613.321-1.395.321-2.242-.107-1.593-.321-2.235-.511-1.177-.889-1.606zm-.677 5.626c-.137.487-.326.882-.567 1.183s-.515.518-.82.649-.627.198-.964.198c-.328 0-.641-.07-.937-.212s-.561-.364-.793-.67-.415-.699-.547-1.183-.203-1.066-.212-1.75c.009-.702.082-1.294.219-1.777s.326-.877.567-1.183.515-.521.82-.649.627-.191.964-.191c.328 0 .641.068.937.205s.561.36.793.67.415.704.547 1.183.203 1.06.212 1.743c-.009.702-.082 1.297-.219 1.784z"/><path d="m44.012 50.869-3.951-6.945h-1.668v10.076h1.668v-6.945l3.951 6.945h1.668v-10.076h-1.668z"/><path d="m20.5 20v-4c0-.551.448-1 1-1 .553 0 1-.448 1-1s-.447-1-1-1c-1.654 0-3 1.346-3 3v4c0 1.103-.897 2-2 2-.553 0-1 .448-1 1s.447 1 1 1c1.103 0 2 .897 2 2v4c0 1.654 1.346 3 3 3 .553 0 1-.448 1-1s-.447-1-1-1c-.552 0-1-.449-1-1v-4c0-1.2-.542-2.266-1.382-3 .84-.734 1.382-1.8 1.382-3z"/><circle cx="28.5" cy="19.5" r="1.5"/><path d="m28.5 25c-.553 0-1 .448-1 1v3c0 .552.447 1 1 1s1-.448 1-1v-3c0-.552-.447-1-1-1z"/></svg>