<svg enable-background="new 0 0 58 58" viewBox="0 0 58 58" xmlns="http://www.w3.org/2000/svg"><path d="m6.5 41v15c0 1 1.2 2 2.5 2h40c1.2 0 2.5-1 2.5-2v-15zm18.5 13.1h-1.5v-6.2l-2.1 4.8h-1.3l-2.1-4.8v6.2h-1.5v-10h1.5l2.9 6.5 2.8-6.5h1.3zm8.1 0-2.7-4.9-1.8 1.8v3h-1.5v-10h1.5v5.1l4.1-5.1h1.8l-3.1 4 3.5 6h-1.8zm6.3 0h-1.2l-3.3-10h1.6l2.3 7.6 2.3-7.6h1.6z" fill="#e65b17"/><g fill="#c8bdb8"><path d="m31.5 11.4-1.1-3h-2.6l-1.1 3z"/><path d="m35.5 22.4h-12.8l-.3.9-.4 1.1h14.2z"/><path d="m24.5 17.4-1.1 3h11.3l-1-3z"/><path d="m36.9 26.4h-15.7l-.7 2h17.2z"/><path d="m25.2 15.4h7.7l-.7-2h-6.2z"/><path d="m19.1 30.4h-2v2h24v-2h-2z"/><path d="m51 12.2-11.7-11.7c-.3-.3-.8-.5-1.3-.5h-29c-1.2 0-2.5.9-2.5 2.9v36.1h45v-25c0-.8-.1-1.4-.5-1.8zm-7.9 21.2c0 .6-.4 1-1 1h-26c-.6 0-1-.4-1-1v-4c0-.6.4-1 1-1h2.3l4.5-12.3 1.1-3.1 2.1-6c.1-.4.5-.7.9-.7h4c.4 0 .8.3.9.7l1.8 5 1.5 4 1.8 5 1.5 4 1.2 3.3h2.3c.6 0 1 .4 1 1v4.1zm5-19.4h-10.6v-10.6c0-.5.6-.7.9-.4l10.1 10.1c.3.3.1.9-.4.9z"/></g></svg>