<svg enable-background="new 0 0 58 58" viewBox="0 0 58 58" xmlns="http://www.w3.org/2000/svg"><path d="m50.949 12.187-.771-.771-10.093-10.094-.771-.771c-.356-.356-.828-.551-1.329-.551h-29.022c-1.359 0-2.463 1.104-2.463 2.463v36.537 16.537c0 1.359 1.104 2.463 2.463 2.463h40.074c1.358 0 2.463-1.104 2.463-2.463v-16.537-25.485c0-.501-.195-.973-.551-1.328zm-3.014-.187h-8.435v-8.435zm1.565 43.537c0 .255-.208.463-.463.463h-40.074c-.255 0-.463-.208-.463-.463v-14.537h41zm-41-16.537v-36.537c0-.255.208-.463.463-.463h28.595c-.033.126-.058.256-.058.392v11.608h11.608c.135 0 .265-.025.392-.058v25.058z"/><path d="m17.426 47.068 2.269 5.606h1.45l2.255-5.606v6.932h1.668v-10.076h-1.668l-2.98 6.89-2.994-6.89h-1.668v10.076h1.668z"/><path d="m29.211 50.363h1.217c.528 0 1.012-.077 1.449-.232s.812-.374 1.121-.656.552-.631.725-1.046.26-.877.26-1.388c0-.483-.103-.918-.308-1.306s-.474-.718-.807-.991-.709-.479-1.128-.615-.843-.205-1.271-.205h-2.899v10.076h1.641zm0-5.195h1.23c.419 0 .757.066 1.012.198s.453.296.595.492.234.401.28.615.068.403.068.567c0 .41-.05.754-.15 1.032s-.232.494-.396.649-.344.267-.54.335-.395.103-.595.103h-1.504z"/><path d="m38.111 52.893c-.429 0-.766-.016-1.012-.048s-.438-.073-.574-.123-.241-.103-.314-.157-.15-.104-.232-.15l-.369 1.176c.173.109.48.217.923.321s1.046.157 1.812.157c.109 0 .262-.009.458-.027s.412-.06.649-.123.48-.162.731-.294.477-.308.677-.526.367-.494.499-.827.198-.727.198-1.183c0-.374-.063-.704-.191-.991s-.287-.531-.479-.731-.398-.355-.622-.465-.439-.178-.649-.205c.164-.036.342-.111.533-.226s.364-.258.52-.431.282-.376.383-.608.15-.49.15-.772c0-.483-.084-.902-.253-1.258s-.396-.647-.684-.875-.622-.395-1.005-.499-.788-.157-1.217-.157c-.61 0-1.078.036-1.401.109s-.595.142-.813.205l.479 1.23c.128-.046.316-.107.567-.185s.586-.116 1.005-.116.747.048.984.144.417.221.54.376.198.323.226.506.041.355.041.52c0 .41-.06.725-.178.943s-.269.374-.451.465-.376.142-.581.15-.408.014-.608.014h-.93l.014 1.107h1.381c.547 0 .962.169 1.244.506s.424.752.424 1.244c0 .52-.155.95-.465 1.292s-.781.512-1.41.512z"/><path d="m34.362 13.636c-3.914-3.131-4.757-6.277-4.862-6.738v-.898c0-.553-.447-1-1-1s-1 .447-1 1v1 8.359 9.053h-3.706c-3.882 0-6.294 1.961-6.294 5.117 0 3.466 2.24 5.706 5.706 5.706 3.471 0 6.294-2.823 6.294-6.294v-11.473l.298.243c.34.336.861.72 1.521 1.205 2.318 1.709 6.2 4.567 5.224 7.793-.029.098-.043.195-.043.291 0 .43.278.826.71.957.097.029.194.043.29.043.43 0 .826-.278.957-.71 1.627-5.375-.422-9.39-1.787-11.304-.567-.796-1.3-1.543-2.308-2.35zm-6.862 15.305c0 2.368-1.926 4.294-4.294 4.294-2.355 0-3.706-1.351-3.706-3.706 0-2.576 2.335-3.117 4.294-3.117h3.706zm5.005-11.633c-.571-.422-1.065-.785-1.371-1.081l-1.634-1.34v-3.473c.827 1.174 1.987 2.483 3.612 3.783.858.688 1.472 1.308 1.929 1.95.716 1.003 1.431 2.339 1.788 3.978-1.327-1.61-3.084-2.904-4.324-3.817z"/></svg>