<svg enable-background="new 0 0 58 58" viewBox="0 0 58 58" xmlns="http://www.w3.org/2000/svg"><g fill="#c8bdb8"><path d="m29.5 34c7.168 0 13-5.832 13-13 0-2.498-.708-4.907-2.052-7h-1.948-1v-1-2.24c-2.279-1.783-5.102-2.76-8-2.76-7.168 0-13 5.832-13 13s5.832 13 13 13zm-5-20c0-.365.199-.701.519-.877.321-.175.71-.162 1.019.033l11 7c.287.184.462.502.462.844s-.175.66-.463.844l-11 7c-.163.103-.35.156-.537.156-.166 0-.331-.041-.481-.123-.32-.176-.519-.512-.519-.877z"/><path d="m51.5 39v-25.022c0-.766-.092-1.333-.55-1.792l-11.637-11.636c-.349-.349-.833-.55-1.328-.55h-29.022c-1.186 0-2.463.916-2.463 2.926v36.074zm-22-33c2.842 0 5.615.826 8 2.333v-4.942c0-.458.553-.687.877-.363l10.095 10.095c.324.324.095.877-.363.877h-5.357c1.142 2.151 1.749 4.535 1.749 7 0 8.271-6.729 15-15 15s-15-6.729-15-15 6.728-15 14.999-15z"/></g><g fill="#ff5364"><path d="m32.048 45.858c-.142-.196-.34-.36-.595-.492s-.593-.198-1.012-.198h-1.23v3.992h1.504c.2 0 .398-.034.595-.103.196-.068.376-.18.54-.335s.296-.371.396-.649.15-.622.15-1.032c0-.164-.023-.354-.068-.567-.046-.214-.139-.419-.28-.616z"/><path d="m39.479 50.35v-4.512l-2.899 4.512z"/><path d="m6.5 41v15c0 1.009 1.22 2 2.463 2h40.074c1.243 0 2.463-.991 2.463-2v-15zm18.568 13h-1.668v-6.932l-2.256 5.605h-1.449l-2.27-5.605v6.932h-1.668v-10.076h1.668l2.994 6.891 2.98-6.891h1.668v10.076zm8.655-5.571c-.173.415-.415.764-.725 1.046s-.684.501-1.121.656-.921.232-1.449.232h-1.217v3.637h-1.641v-10.076h2.898c.428 0 .852.068 1.271.205s.795.342 1.128.615.602.604.807.991.308.822.308 1.306c0 .511-.086.973-.259 1.388zm8.476 3.219h-1.053v2.352h-1.668v-2.352h-4.361v-1.298l4.361-6.426h1.668v6.426h1.053z"/></g></svg>