<svg enable-background="new 0 0 58 58" viewBox="0 0 58 58" xmlns="http://www.w3.org/2000/svg"><g fill="#859594"><path d="m23.4 46.3c-.2-.2-.4-.4-.6-.5-.3-.1-.6-.2-.9-.2-.4 0-.7.1-.9.2-.3.1-.5.3-.6.5-.2.2-.3.5-.4.8-.1.4-.1 1-.1 2s0 1.6.1 2c.1.3.2.6.4.8s.4.4.6.5c.3.2.6.2.9.2.4 0 .7-.1.9-.2.3-.1.5-.3.6-.5.2-.2.3-.5.4-.8s.1-1 .1-2 0-1.6-.1-2-.2-.6-.4-.8z"/><path d="m6.5 41v15c0 1 1.2 2 2.5 2h40c1.2 0 2.5-1 2.5-2v-15zm18.8 10.4c-.1.4-.2.7-.3 1-.2.5-.6.9-1.1 1.2-.5.4-1.2.6-2 .6s-1.4-.2-2-.6c-.5-.4-.9-.8-1.2-1.2-.1-.2-.1-.3-.2-.4s-.1-.3-.1-.5c-.1-.4-.1-1.2-.1-2.3 0-1.2 0-1.9.1-2.3s.2-.7.3-.9c.2-.5.6-.9 1.2-1.2.5-.4 1.2-.6 2-.6s1.5.2 2 .6.9.8 1.1 1.2c.2.2.3.6.3.9.1.4.1 1.2.1 2.3 0 1 0 1.8-.1 2.2zm7.6-6h-2.7v8.6h-1.5v-8.6h-2.7v-1.3h7v1.3zm7.4.1h-4.8v2.9h4.1v1.3h-4.1v4.3h-1.5v-10h6.4v1.5z"/></g><g fill="#c8bdb8"><path d="m37.5 13.3h-18.6v5.8h1.9v-2.9c0-.5.4-1 1-1h5.8c.5 0 1 .4 1 1v13.5c0 .5-.4 1-1 1h-4.8v1.9h13.5v-1.9h-4.8c-.5 0-1-.4-1-1v-13.5c0-.5.4-1 1-1h5.8c.5 0 1 .4 1 1v2.9h1.9v-5.1h-2.7z"/><path d="m51 12.2-11.7-11.7c-.3-.3-.8-.5-1.3-.5h-29c-1.2 0-2.5.9-2.5 2.9v36.1h45v-25c0-.8-.1-1.4-.5-1.8zm-2.9 1.8h-5.9v6.1c0 .5-.4 1-1 1h-3.9c-.5 0-1-.4-1-1v-2.9h-3.9v11.6h4.8c.5 0 1 .4 1 1v3.9c0 .5-.4 1-1 1h-15.4c-.5 0-1-.4-1-1v-3.9c0-.5.4-1 1-1h4.8v-11.6h-3.9v2.9c0 .5-.4 1-1 1h-3.7c-.5 0-1-.4-1-1v-7.7c0-.5.4-1 1-1h19.5v-8c0-.5.6-.7.9-.4l10.1 10.1c.3.3.1.9-.4.9z"/></g></svg>