<svg enable-background="new 0 0 58 58" viewBox="0 0 58 58" xmlns="http://www.w3.org/2000/svg"><path d="m50.95 12.187-.771-.771-10.095-10.095-.771-.771c-.349-.349-.833-.55-1.328-.55h-29.022c-1.186 0-2.463.916-2.463 2.926v36.074 16.537.463c0 .837.842 1.653 1.838 1.91.05.013.098.032.15.042.156.031.315.048.475.048h40.074c.16 0 .319-.017.475-.048.052-.01.1-.029.15-.042.996-.257 1.838-1.073 1.838-1.91v-.463-16.537-25.022c0-.767-.092-1.333-.55-1.791zm-3.015-.187h-8.435v-8.435zm-36.435-10c0 .552.448 1 1 1s1-.448 1-1h2c0 .552.448 1 1 1s1-.448 1-1h2c0 .552.448 1 1 1s1-.448 1-1h2c0 .552.448 1 1 1s1-.448 1-1h2c0 .552.448 1 1 1s1-.448 1-1h2c0 .552.448 1 1 1s1-.448 1-1h2c0 .552.448 1 1 1s1-.448 1-1h.058c-.033.126-.058.256-.058.391v3.609 4 4h2c0 .552.448 1 1 1s1-.448 1-1h2c0 .552.448 1 1 1s1-.448 1-1h2c0 .552.448 1 1 1s1-.448 1-1c0-.02-.01-.037-.011-.057.003-.001.007-.001.01-.002 0 .015.001.021.001.036v.023 4 4 4 .67l-.163-.155c.094-.153.163-.322.163-.515 0-.552-.448-1-1-1-.211 0-.395.08-.557.191l-.648-.615c.12-.165.205-.357.205-.576 0-.552-.448-1-1-1-.238 0-.447.095-.618.233l-.627-.596c.146-.174.245-.391.245-.637 0-.552-.448-1-1-1-.264 0-.501.107-.68.275l-.607-.577c.177-.18.287-.426.287-.698 0-.552-.448-1-1-1-.291 0-.547.129-.73.327l-.581-.552c-.013-.012-.029-.016-.042-.027.212-.183.353-.446.353-.748 0-.552-.448-1-1-1s-1 .448-1 1c0 .306.145.57.361.753-.031.027-.071.042-.099.073l-.5.548c-.184-.223-.451-.374-.762-.374-.552 0-1 .448-1 1 0 .344.184.632.448.812l-.613.671c-.176-.284-.476-.483-.835-.483-.552 0-1 .448-1 1 0 .39.23.72.556.884l-.647.708c-.156-.347-.503-.592-.909-.592-.552 0-1 .448-1 1 0 .44.288.802.683.936l-.735.805c-.116-.423-.488-.741-.948-.741-.552 0-1 .448-1 1 0 .492.362.882.83.966l-.85.931c-.055-.501-.464-.897-.98-.897-.552 0-1 .448-1 1 0 .544.436.982.976.995l-.509.558-4.743-4.743c-.369-.369-.958-.392-1.355-.055l-6.412 5.457c.016-.07.043-.137.043-.212 0-.552-.448-1-1-1s-1 .448-1 1 .448 1 1 1c.015 0 .027-.008.042-.008l-1.063.904c-.054-.501-.464-.896-.979-.896-.552 0-1 .448-1 1 0 .461.318.832.743.948l-.815.694c-.145-.374-.503-.642-.928-.642-.552 0-1 .448-1 1 0 .369.209.678.507.851l-.697.593c-.181-.261-.468-.444-.81-.444-.552 0-1 .448-1 1 0 .284.121.538.311.72l-1.311 1.116v-2.836c.552 0 1-.448 1-1s-.448-1-1-1v-2c.552 0 1-.448 1-1s-.448-1-1-1v-2c.552 0 1-.448 1-1s-.448-1-1-1v-2c.552 0 1-.448 1-1s-.448-1-1-1v-2c.552 0 1-.448 1-1s-.448-1-1-1v-2c.552 0 1-.448 1-1s-.448-1-1-1v-2c.552 0 1-.448 1-1s-.448-1-1-1v-2c.552 0 1-.448 1-1s-.448-1-1-1v-2c.552 0 1-.448 1-1zm-2.537 54c-.071 0-.135-.026-.198-.049-.156-.074-.265-.23-.265-.414v-14.537h41v14.537c0 .184-.109.339-.265.414-.063.023-.127.049-.198.049zm1.255-17 14.134-12.03c.051.008.096.03.148.03.025 0 .047-.013.071-.014l10.205 10.204c.391.391 1.023.391 1.414 0s.391-1.023 0-1.414l-4.807-4.807 9.168-10.041 8.949 8.502v9.57z"/><path d="m22.042 44.744c-.333-.273-.709-.479-1.128-.615-.419-.137-.843-.205-1.271-.205h-2.898v10.076h1.641v-3.637h1.217c.528 0 1.012-.077 1.449-.232s.811-.374 1.121-.656.551-.631.725-1.046c.173-.415.26-.877.26-1.388 0-.483-.103-.918-.308-1.306s-.475-.717-.808-.991zm-.622 3.329c-.101.278-.232.494-.396.649s-.344.267-.54.335-.395.103-.595.103h-1.504v-3.992h1.23c.419 0 .756.066 1.012.198.255.132.453.296.595.492.141.196.234.401.28.615.045.214.068.403.068.567 0 .411-.05.755-.15 1.033z"/><path d="m30.648 50.869-3.951-6.945h-1.668v10.076h1.668v-6.945l3.951 6.945h1.668v-10.076h-1.668z"/><path d="m38.824 49.926h1.709v2.488c-.073.101-.187.178-.342.232-.155.055-.317.098-.485.13-.169.032-.337.055-.506.068-.169.014-.303.021-.403.021-.328 0-.641-.077-.937-.232s-.561-.392-.793-.711-.415-.729-.547-1.23-.203-1.094-.212-1.777c.009-.702.082-1.294.219-1.777s.326-.877.567-1.183.515-.521.82-.649.626-.191.964-.191c.301 0 .592.06.875.178.282.118.533.31.752.574l1.135-1.012c-.374-.364-.798-.638-1.271-.82-.474-.183-.984-.273-1.531-.273-.593 0-1.144.111-1.654.335-.511.224-.955.549-1.333.978s-.675.964-.889 1.606c-.214.643-.321 1.388-.321 2.235s.107 1.595.321 2.242.51 1.185.889 1.613c.378.429.82.752 1.326.971s1.06.328 1.661.328c.301 0 .604-.022.909-.068s.602-.123.889-.232.561-.248.82-.417.494-.385.704-.649v-3.896h-3.336z"/><circle cx="10.5" cy="4" r="1"/><circle cx="14.5" cy="4" r="1"/><circle cx="18.5" cy="4" r="1"/><circle cx="22.5" cy="4" r="1"/><circle cx="26.5" cy="4" r="1"/><circle cx="30.5" cy="4" r="1"/><circle cx="34.5" cy="4" r="1"/><circle cx="36.5" cy="6" r="1"/><circle cx="32.5" cy="6" r="1"/><circle cx="28.5" cy="6" r="1"/><circle cx="24.5" cy="6" r="1"/><circle cx="20.5" cy="6" r="1"/><circle cx="16.5" cy="6" r="1"/><circle cx="12.5" cy="6" r="1"/><circle cx="10.5" cy="8" r="1"/><circle cx="14.5" cy="8" r="1"/><circle cx="18.5" cy="8" r="1"/><circle cx="22.5" cy="8" r="1"/><circle cx="26.5" cy="8" r="1"/><circle cx="30.5" cy="8" r="1"/><circle cx="34.5" cy="8" r="1"/><circle cx="36.5" cy="10" r="1"/><circle cx="32.5" cy="10" r="1"/><circle cx="28.5" cy="10" r="1"/><circle cx="24.5" cy="10" r="1"/><circle cx="20.5" cy="10" r="1"/><circle cx="16.5" cy="10" r="1"/><circle cx="12.5" cy="10" r="1"/><circle cx="10.5" cy="12" r="1"/><circle cx="22.5" cy="12" r="1"/><circle cx="26.5" cy="12" r="1"/><circle cx="30.5" cy="12" r="1"/><circle cx="34.5" cy="12" r="1"/><circle cx="36.5" cy="14" r="1"/><circle cx="32.5" cy="14" r="1"/><circle cx="28.5" cy="14" r="1"/><circle cx="24.5" cy="14" r="1"/><circle cx="26.5" cy="16" r="1"/><circle cx="30.5" cy="16" r="1"/><circle cx="34.5" cy="16" r="1"/><circle cx="38.5" cy="16" r="1"/><circle cx="42.5" cy="16" r="1"/><circle cx="44.5" cy="18" r="1"/><circle cx="48.5" cy="22" r="1"/><circle cx="46.5" cy="20" r="1"/><circle cx="48.5" cy="18" r="1"/><circle cx="46.5" cy="16" r="1"/><circle cx="36.5" cy="18" r="1"/><circle cx="32.5" cy="18" r="1"/><circle cx="28.5" cy="18" r="1"/><circle cx="24.5" cy="18" r="1"/><path d="m10.5 21c.426 0 .784-.269.928-.644.136.301.296.589.481.858-.242.183-.409.459-.409.786 0 .552.448 1 1 1 .322 0 .595-.162.778-.398.258.184.533.345.822.484-.353.155-.6.505-.6.914 0 .552.448 1 1 1s1-.448 1-1c0-.178-.059-.336-.14-.481.368.077.749.118 1.14.118s.772-.041 1.14-.118c-.081.145-.14.303-.14.481 0 .552.448 1 1 1s1-.448 1-1c0-.409-.247-.759-.599-.914.288-.139.563-.299.822-.484.182.236.455.398.777.398.552 0 1-.448 1-1 0-.327-.167-.603-.409-.785.185-.27.345-.557.481-.858.144.374.502.643.928.643.552 0 1-.448 1-1s-.448-1-1-1c-.205 0-.385.077-.543.182.073-.36.112-.732.112-1.114 0-.441-.057-.868-.154-1.28.166.125.362.212.585.212.552 0 1-.448 1-1s-.448-1-1-1c-.46 0-.831.318-.948.741-.148-.321-.326-.625-.53-.909.281-.178.478-.476.478-.832 0-.552-.448-1-1-1-.361 0-.664.202-.839.489-.298-.207-.617-.385-.954-.531.449-.098.793-.479.793-.958 0-.552-.448-1-1-1s-1 .448-1 1c0 .25.101.472.253.647-.404-.093-.822-.147-1.253-.147s-.849.054-1.253.147c.152-.175.253-.397.253-.647 0-.552-.448-1-1-1s-1 .448-1 1c0 .479.344.86.793.958-.337.146-.655.324-.954.531-.175-.287-.478-.489-.839-.489-.552 0-1 .448-1 1 0 .356.197.654.478.832-.204.284-.381.589-.53.909-.117-.423-.488-.741-.948-.741-.552 0-1 .448-1 1s.448 1 1 1c.223 0 .419-.087.585-.211-.097.412-.154.839-.154 1.28 0 .381.039.754.112 1.114-.158-.106-.338-.183-.543-.183-.552 0-1 .448-1 1s.448 1 1 1zm6-6.5c1.968 0 3.569 1.601 3.569 3.569s-1.601 3.569-3.569 3.569-3.569-1.601-3.569-3.569 1.601-3.569 3.569-3.569z"/><circle cx="26.5" cy="20" r="1"/><circle cx="30.5" cy="20" r="1"/><circle cx="34.5" cy="20" r="1"/><circle cx="32.5" cy="22" r="1"/><circle cx="28.5" cy="22" r="1"/><circle cx="24.5" cy="22" r="1"/><circle cx="10.5" cy="24" r="1"/><circle cx="22.5" cy="24" r="1"/><circle cx="26.5" cy="24" r="1"/><circle cx="30.5" cy="24" r="1"/><circle cx="28.5" cy="26" r="1"/><circle cx="20.5" cy="26" r="1"/><circle cx="16.5" cy="26" r="1"/><circle cx="12.5" cy="26" r="1"/><circle cx="10.5" cy="28" r="1"/><circle cx="14.5" cy="28" r="1"/><circle cx="18.5" cy="28" r="1"/><circle cx="12.5" cy="30" r="1"/><circle cx="10.5" cy="32" r="1"/></svg>