<svg enable-background="new 0 0 58 58" viewBox="0 0 58 58" xmlns="http://www.w3.org/2000/svg"><path d="m50.95 12.187-.77-.77-10.096-10.096s-.001-.001-.002-.001l-.768-.768c-.349-.351-.834-.552-1.329-.552h-29.022c-1.358 0-2.463 1.104-2.463 2.463v36.537 16.537c0 1.359 1.105 2.463 2.463 2.463h40.074c1.358 0 2.463-1.104 2.463-2.463v-16.537-25.485c0-.501-.195-.972-.55-1.328zm-3.015-.187h-8.435v-8.435zm1.565 43.537c0 .255-.208.463-.463.463h-40.074c-.255 0-.463-.208-.463-.463v-14.537h41zm-41-16.537v-36.537c0-.255.208-.463.463-.463h28.595c-.033.126-.058.256-.058.392v11.608h11.609c.135 0 .265-.025.391-.058v25.058z"/><path d="m18.581 50.363h1.217c.528 0 1.012-.077 1.449-.232s.811-.374 1.121-.656.551-.631.725-1.046c.173-.415.26-.877.26-1.388 0-.483-.103-.918-.308-1.306s-.474-.718-.807-.991-.709-.479-1.128-.615c-.419-.137-.843-.205-1.271-.205h-2.899v10.076h1.641zm0-5.195h1.23c.419 0 .756.066 1.012.198.255.132.453.296.595.492.141.196.234.401.28.615.045.214.068.403.068.567 0 .41-.05.754-.15 1.032-.101.278-.232.494-.396.649s-.344.267-.54.335-.395.103-.595.103h-1.504z"/><path d="m26.853 50.363h1.217c.528 0 1.012-.077 1.449-.232s.811-.374 1.121-.656.551-.631.725-1.046c.173-.415.26-.877.26-1.388 0-.483-.103-.918-.308-1.306s-.474-.718-.807-.991-.709-.479-1.128-.615c-.419-.137-.843-.205-1.271-.205h-2.898v10.076h1.641v-3.637zm0-5.195h1.23c.419 0 .756.066 1.012.198.255.132.453.296.595.492.141.196.234.401.28.615.045.214.068.403.068.567 0 .41-.05.754-.15 1.032-.101.278-.232.494-.396.649s-.344.267-.54.335-.395.103-.595.103h-1.504z"/><path d="m35.944 54h1.655v-8.955h3.007v-1.121h-7.669v1.121h3.007z"/><circle cx="20.5" cy="19" r="1"/><circle cx="20.5" cy="27" r="1"/><circle cx="20.5" cy="23" r="1"/><circle cx="22.5" cy="21" r="1"/><circle cx="24.5" cy="19" r="1"/><circle cx="22.5" cy="25" r="1"/><circle cx="24.5" cy="27" r="1"/><circle cx="24.5" cy="23" r="1"/><circle cx="26.5" cy="21" r="1"/><circle cx="28.5" cy="19" r="1"/><circle cx="26.5" cy="25" r="1"/><circle cx="28.5" cy="27" r="1"/><circle cx="28.5" cy="23" r="1"/><circle cx="30.5" cy="21" r="1"/><circle cx="32.5" cy="19" r="1"/><circle cx="30.5" cy="25" r="1"/><circle cx="32.5" cy="27" r="1"/><circle cx="32.5" cy="23" r="1"/><circle cx="34.5" cy="21" r="1"/><circle cx="36.5" cy="19" r="1"/><circle cx="34.5" cy="25" r="1"/><circle cx="36.5" cy="27" r="1"/><circle cx="36.5" cy="23" r="1"/><path d="m29.5 13c0-.553-.448-1-1-1s-1 .447-1 1v2h-11v16h6.234l-2.091 3.485c-.284.474-.131 1.088.343 1.372.16.097.338.143.513.143.34 0 .671-.173.858-.485l2.709-4.515h6.868l2.709 4.515c.187.312.518.485.858.485.175 0 .353-.046.514-.143.474-.284.627-.898.343-1.372l-2.092-3.485h6.234v-16h-11zm4 4c0 .552.448 1 1 1s1-.448 1-1h2c0 .552.448 1 1 1v2c-.552 0-1 .448-1 1s.448 1 1 1v2c-.552 0-1 .448-1 1s.448 1 1 1v2c-.552 0-1 .448-1 1h-2c0-.552-.448-1-1-1s-1 .448-1 1h-2c0-.552-.448-1-1-1s-1 .448-1 1h-2c0-.552-.448-1-1-1s-1 .448-1 1h-2c0-.552-.448-1-1-1s-1 .448-1 1h-2c0-.552-.448-1-1-1v-2c.552 0 1-.448 1-1s-.448-1-1-1v-2c.552 0 1-.448 1-1s-.448-1-1-1v-2c.552 0 1-.448 1-1h2c0 .552.448 1 1 1s1-.448 1-1h2c0 .552.448 1 1 1s1-.448 1-1h2c0 .552.448 1 1 1s1-.448 1-1z"/></svg>