<svg enable-background="new 0 0 58 58" viewBox="0 0 58 58" xmlns="http://www.w3.org/2000/svg"><g fill="#f6712e"><path d="m6.5 41v15c0 1.009 1.22 2 2.463 2h40.074c1.243 0 2.463-.991 2.463-2v-15zm16.593 7.429c-.173.415-.415.764-.725 1.046s-.684.501-1.121.656-.921.232-1.449.232h-1.217v3.637h-1.641v-10.076h2.898c.428 0 .852.068 1.271.205s.795.342 1.128.615.602.604.807.991.308.822.308 1.306c.001.511-.086.973-.259 1.388zm8.271 0c-.173.415-.415.764-.725 1.046s-.684.501-1.121.656-.921.232-1.449.232h-1.217v3.637h-1.641v-10.076h2.898c.428 0 .852.068 1.271.205s.795.342 1.128.615.602.604.807.991.308.822.308 1.306c.001.511-.086.973-.259 1.388zm9.242-3.384h-3.008v8.955h-1.654v-8.955h-3.008v-1.121h7.67z"/><path d="m21.418 45.858c-.142-.196-.34-.36-.595-.492s-.593-.198-1.012-.198h-1.23v3.992h1.504c.2 0 .398-.034.595-.103.196-.068.376-.18.54-.335s.296-.371.396-.649.15-.622.15-1.032c0-.164-.023-.354-.068-.567-.046-.214-.139-.419-.28-.616z"/><path d="m29.689 45.858c-.142-.196-.34-.36-.595-.492s-.593-.198-1.012-.198h-1.23v3.992h1.504c.2 0 .398-.034.595-.103.196-.068.376-.18.54-.335s.296-.371.396-.649.15-.622.15-1.032c0-.164-.023-.354-.068-.567-.045-.214-.138-.419-.28-.616z"/></g><g fill="#c8bdb8"><path d="m18.5 18h20v12h-20z"/><path d="m51.5 39v-25.022c0-.766-.092-1.333-.55-1.792l-11.637-11.636c-.349-.349-.833-.55-1.328-.55h-29.022c-1.186 0-2.463.916-2.463 2.926v36.074zm-14-35.609c0-.458.553-.687.877-.363l10.095 10.095c.324.324.095.877-.363.877h-10.609zm-21 12.609h11v-2c0-.553.448-1 1-1s1 .447 1 1v2h11v16h-6.234l2.091 3.485c.284.474.131 1.088-.343 1.372-.16.097-.338.143-.513.143-.34 0-.671-.173-.858-.485l-2.709-4.515h-6.868l-2.709 4.515c-.187.312-.518.485-.858.485-.175 0-.353-.046-.514-.143-.474-.284-.627-.898-.343-1.372l2.092-3.485h-6.234z"/></g></svg>