<svg enable-background="new 0 0 58 58" viewBox="0 0 58 58" xmlns="http://www.w3.org/2000/svg"><path d="m50.949 12.187-5.818-5.818-5.047-5.048-.77-.77c-.35-.35-.834-.551-1.329-.551h-29.022c-1.358 0-2.463 1.105-2.463 2.463v36.537 16.537c0 1.358 1.105 2.463 2.463 2.463h40.074c1.358 0 2.463-1.105 2.463-2.463v-16.537-25.485c0-.495-.201-.98-.551-1.328zm-11.449-.187v-3.097-5.338l8.435 8.435h-6.741zm-15.478 19.168c-.154-.097-.326-.168-.522-.168-.501 0-.899.375-.971.856-.298.069-.604.113-.923.113l-1.111.006c-.013-.54-.451-.975-.995-.975-.548 0-.99.441-.997.987l-2.282.013c.262-.396.465-.823.63-1.253.176.152.398.253.649.253.552 0 1-.448 1-1s-.448-1-1-1c-.063 0-.119.025-.179.036.072-.403.118-.776.143-1.081l.082-.504c.017-.165.059-.321.094-.479.483-.071.86-.47.86-.972 0-.208-.079-.391-.188-.551.175-.243.372-.467.595-.665.168.127.367.216.593.216.552 0 1-.448 1-1 0-.025-.012-.045-.014-.07.358-.103.73-.174 1.12-.174.121 0 .235.025.354.036l.167.021c.135.017.263.053.394.082-.004.037-.021.068-.021.105 0 .552.448 1 1 1 .273 0 .52-.111.7-.288.191.156.367.326.527.513.021.025.041.049.062.075-.178.18-.289.427-.289.7 0 .552.448 1 1 1 .035 0 .065-.016.099-.02.01.048.029.092.038.141l.005.026c.041.234.072.471.072.716 0 .399-.075.778-.182 1.143-.012 0-.021-.006-.032-.006-.552 0-1 .448-1 1 0 .208.078.39.187.55-.2.229-.42.438-.665.618zm2.494-6.921c-.007-.009-.013-.017-.02-.026-.605-.811-1.405-1.465-2.332-1.895l2.123-2.123 2.828 2.828-2.071 2.07c-.151-.3-.329-.585-.528-.854zm4.015-2.63-2.828-2.828 2.787-2.789c1.479-1.479 4.86-4.282 7.01-5.551v3.442c-1.419 1.91-3.22 3.976-4.181 4.938zm18.969 33.92c0 .255-.208.463-.463.463h-40.074c-.255 0-.463-.208-.463-.463v-14.537h41zm-41-16.537v-36.537c0-.255.208-.463.463-.463h28.595c-.033.126-.058.256-.058.391v5.804c-2.573 1.169-7.029 4.996-8.424 6.391l-7.185 7.185c-.095-.004-.189-.014-.285-.014-2.971 0-5.463 2.125-5.983 5.016l-.108.073-.02.536c-.034.942-.302 4.052-2.343 4.546-.517.129-.858.625-.793 1.152l.161.92h6.98l2.106-.03c3.367 0 6.107-2.74 6.107-6.107 0-.193-.011-.383-.029-.572l7.049-7.048c1.223-1.224 3.591-3.976 5.141-6.243h9.234c.135 0 .265-.025.392-.058v25.058z"/><path d="m18.385 50.363h1.217c.528 0 1.012-.077 1.449-.232s.811-.374 1.121-.656.551-.631.725-1.046c.173-.415.26-.877.26-1.388 0-.483-.103-.918-.308-1.306s-.474-.718-.807-.991-.709-.479-1.128-.615c-.419-.137-.843-.205-1.271-.205h-2.898v10.076h1.641v-3.637zm0-5.195h1.23c.419 0 .756.066 1.012.198.255.132.453.296.595.492.141.196.234.401.28.615.045.214.068.403.068.567 0 .41-.05.754-.15 1.032-.101.278-.232.494-.396.649s-.344.267-.54.335-.395.103-.595.103h-1.504z"/><path d="m27.477 52.756c-.183 0-.378-.019-.588-.055s-.419-.084-.629-.144-.413-.123-.608-.191c-.196-.068-.358-.139-.485-.212l-.287 1.176c.155.137.339.253.554.349.214.096.439.171.677.226.237.055.472.094.704.116s.458.034.677.034c.51 0 .966-.077 1.367-.232s.738-.362 1.012-.622.485-.561.636-.902.226-.695.226-1.06c0-.538-.105-.978-.314-1.319-.21-.342-.472-.627-.786-.854s-.654-.422-1.019-.581-.702-.323-1.012-.492-.57-.364-.779-.588c-.21-.224-.314-.518-.314-.882 0-.146.036-.299.109-.458s.173-.303.301-.431c.127-.128.273-.234.438-.321s.337-.139.52-.157c.328-.027.597-.032.807-.014.209.019.378.05.506.096.127.046.226.091.294.137s.13.082.185.109c.009-.009.036-.055.082-.137.045-.082.1-.185.164-.308.063-.123.132-.255.205-.396.073-.142.137-.271.191-.39-.265-.173-.611-.299-1.039-.376-.429-.077-.853-.116-1.271-.116-.41 0-.8.063-1.169.191s-.693.313-.971.554-.499.535-.663.882-.246.743-.246 1.189c0 .492.104.902.314 1.23.209.328.474.613.793.854s.661.451 1.025.629.704.355 1.019.533.576.376.786.595c.209.219.314.483.314.793 0 .511-.148.896-.444 1.155-.301.26-.727.39-1.282.39z"/><path d="m36.896 53.952c.264-.032.556-.104.875-.219.319-.114.649-.285.991-.513s.649-.54.923-.937.499-.889.677-1.477.267-1.297.267-2.126c0-.602-.105-1.188-.314-1.757-.21-.569-.526-1.078-.95-1.524s-.957-.805-1.6-1.073-1.388-.403-2.235-.403h-3.035v10.077h3.814c.127 0 .323-.016.587-.048zm-2.761-1.155v-7.629h.957c.784 0 1.422.103 1.914.308s.882.474 1.169.807.48.704.581 1.114c.1.41.15.825.15 1.244 0 1.349-.246 2.379-.738 3.09s-1.294 1.066-2.406 1.066z"/><circle cx="21.5" cy="26" r="1"/><circle cx="23.5" cy="28" r="1"/><circle cx="19.5" cy="28" r="1"/><circle cx="21.5" cy="30" r="1"/></svg>