<svg enable-background="new 0 0 58 58" viewBox="0 0 58 58" xmlns="http://www.w3.org/2000/svg"><g fill="#556080"><path d="m29.1 46.1-1.5 4.4h2.9z"/><path d="m22.8 46.9c0-.5-.2-.9-.5-1.1s-.6-.3-1.1-.3h-2.4v3h2.3c.6 0 1-.2 1.3-.5s.4-.7.4-1.1z"/><path d="m6.5 41v15c0 1 1.2 2 2.5 2h40c1.2 0 2.5-1 2.5-2v-15zm16.3 13.1-2.1-4.3h-1.9v4.3h-1.5v-10h3.9c.8 0 1.5.2 2 .7.6.5 1 1.2 1 2.1 0 1.4-.7 2.3-1.9 2.8l2.3 4.4zm8.9 0-.7-2.3h-3.8l-.8 2.2h-1.6l3.6-10h1.3l3.6 10h-1.6zm8.2 0-2.1-4.3h-1.9v4.3h-1.5v-10h3.9c.8 0 1.5.2 2 .7.6.5 1 1.2 1 2.1 0 1.4-.7 2.3-1.9 2.8l2.3 4.4z"/><path d="m39.9 46.9c0-.5-.2-.9-.5-1.1s-.6-.3-1.1-.3h-2.4v3h2.3c.6 0 1-.2 1.3-.5.2-.3.4-.7.4-1.1z"/></g><g fill="#c8bdb8"><path d="m28.5 33c1.7 0 3-1.3 3-3v-3h-6v3c0 1.7 1.3 3 3 3zm-1-4h2c.6 0 1 .4 1 1s-.4 1-1 1h-2c-.6 0-1-.4-1-1s.4-1 1-1z"/><path d="m51.5 39v-25c0-.8-.1-1.3-.5-1.8l-11.7-11.6c-.3-.4-.8-.6-1.3-.6h-29c-1.2 0-2.5.9-2.5 2.9v36.1zm-14-35.6c0-.5.6-.7.9-.4l10.1 10.1c.3.3.1.9-.4.9h-10.6zm-14 21.6h4v-2h-2v-2h2v-2h-2v-2h2v-2h-2v-2h2v-2h-2v-2h2v-2h2v2h2v2h-2v2h2v2h-2v2h2v2h-2v2h2v2h-2v2h4v5c0 2.8-2.2 5-5 5s-5-2.2-5-5z"/></g></svg>