<svg enable-background="new 0 0 58 58" viewBox="0 0 58 58" xmlns="http://www.w3.org/2000/svg"><path d="m50.949 12.187-1.361-1.361-9.504-9.505c-.001-.001-.001-.001-.001-.001l-.771-.771c-.355-.354-.826-.549-1.327-.549h-29.022c-1.187 0-2.463.916-2.463 2.926v36.074 16.537.463c0 .837.841 1.652 1.836 1.909.051.014.1.033.152.043.156.031.315.048.475.048h40.074c.16 0 .319-.017.475-.048.052-.01.101-.029.152-.043.995-.257 1.836-1.072 1.836-1.909v-.463-16.537-25.022c0-.767-.093-1.334-.551-1.791zm-11.449-8.622 8.435 8.435h-8.435zm-30.537 52.435c-.071 0-.135-.025-.198-.049-.155-.074-.265-.23-.265-.414v-14.537h41v14.537c0 .184-.11.34-.265.414-.063.024-.127.049-.198.049zm-.463-17v-36.074c0-.217.033-.926.463-.926h28.595c-.033.126-.058.256-.058.391v11.609h11.608c.135 0 .265-.025.391-.058 0 .015.001.021.001.036v25.022z"/><path d="m22.637 48.9c.337-.511.506-1.13.506-1.859 0-.483-.103-.918-.308-1.306s-.474-.718-.807-.991-.709-.479-1.128-.615c-.42-.137-.844-.205-1.271-.205h-2.899v10.076h1.641v-3.637h.8s.342 0 .438 0 .166-.002.212-.007c.045-.005.082-.007.109-.007l1.9 3.65h1.736l-2.297-3.965c.575-.245 1.03-.623 1.368-1.134zm-2.174.158c-.201.068-.401.103-.602.103h-1.49v-3.992h1.23c.419 0 .756.066 1.012.198.255.132.453.296.595.492s.234.401.28.615c.045.214.068.403.068.567 0 .41-.051.754-.15 1.032-.101.278-.232.494-.396.649s-.347.267-.547.336z"/><path d="m25.221 45.045h3.008v8.955h1.654v-8.955h3.008v-1.121h-7.67z"/><path d="m34.887 54h1.668v-4.539h4.211v-1.121h-4.211v-3.172h4.634v-1.244h-6.302z"/><path d="m13.5 14h6c.553 0 1-.448 1-1s-.447-1-1-1h-6c-.553 0-1 .448-1 1s.447 1 1 1z"/><path d="m13.5 19h9c.553 0 1-.448 1-1s-.447-1-1-1h-9c-.553 0-1 .448-1 1s.447 1 1 1z"/><path d="m26.5 19c.26 0 .52-.11.71-.29.18-.19.29-.45.29-.71s-.11-.52-.29-.71c-.38-.37-1.04-.37-1.42 0-.181.19-.29.44-.29.71s.109.52.29.71c.189.18.45.29.71.29z"/><path d="m30.5 19h8c.553 0 1-.448 1-1s-.447-1-1-1h-8c-.553 0-1 .448-1 1s.447 1 1 1z"/><path d="m12.79 32.29c-.181.19-.29.44-.29.71s.109.52.29.71c.189.18.439.29.71.29.27 0 .52-.11.71-.29.18-.19.29-.45.29-.71s-.11-.52-.29-.71c-.37-.37-1.05-.37-1.42 0z"/><path d="m25.5 32h-8c-.553 0-1 .448-1 1s.447 1 1 1h8c.553 0 1-.448 1-1s-.447-1-1-1z"/><path d="m44.5 17h-2c-.553 0-1 .448-1 1s.447 1 1 1h2c.553 0 1-.448 1-1s-.447-1-1-1z"/><path d="m13.5 24h22c.553 0 1-.448 1-1s-.447-1-1-1h-22c-.553 0-1 .448-1 1s.447 1 1 1z"/><path d="m44.5 22h-6c-.553 0-1 .448-1 1s.447 1 1 1h6c.553 0 1-.448 1-1s-.447-1-1-1z"/><path d="m13.5 29h4c.553 0 1-.448 1-1s-.447-1-1-1h-4c-.553 0-1 .448-1 1s.447 1 1 1z"/><path d="m31.5 27h-10c-.553 0-1 .448-1 1s.447 1 1 1h10c.553 0 1-.448 1-1s-.447-1-1-1z"/><path d="m44.5 27h-9c-.553 0-1 .448-1 1s.447 1 1 1h9c.553 0 1-.448 1-1s-.447-1-1-1z"/></svg>