<svg enable-background="new 0 0 58 58" viewBox="0 0 58 58" xmlns="http://www.w3.org/2000/svg"><g fill="#e57e25"><path d="m50.949 12.187-1.361-1.361-9.504-9.505c-.001-.001-.001-.001-.002-.001l-.77-.771c-.355-.354-.826-.549-1.327-.549h-29.022c-1.359 0-2.463 1.105-2.463 2.463v36.537 16.537c0 1.358 1.104 2.463 2.463 2.463h40.074c1.358 0 2.463-1.105 2.463-2.463v-16.537-25.485c0-.495-.201-.98-.551-1.328zm-3.014-.187h-8.435v-8.435zm1.565 43.537c0 .255-.208.463-.463.463h-40.074c-.255 0-.463-.208-.463-.463v-14.537h41zm-41-16.537v-36.537c0-.255.208-.463.463-.463h28.595c-.033.126-.058.256-.058.391v11.609h11.608c.135 0 .265-.025.392-.058v25.058z"/><path d="m19.205 52.756c-.183 0-.378-.019-.588-.055s-.419-.084-.629-.144-.412-.123-.608-.191-.357-.139-.485-.212l-.287 1.176c.155.137.34.253.554.349s.439.171.677.226.472.094.704.116.458.034.677.034c.511 0 .966-.077 1.367-.232s.738-.362 1.012-.622.485-.561.636-.902.226-.695.226-1.06c0-.538-.104-.978-.314-1.319s-.472-.627-.786-.854-.654-.422-1.019-.581-.702-.323-1.012-.492-.569-.364-.779-.588-.314-.518-.314-.882c0-.146.036-.299.109-.458s.173-.303.301-.431.273-.234.438-.321.337-.139.52-.157c.328-.027.597-.032.807-.014s.378.05.506.096.226.091.294.137.13.082.185.109c.009-.009.036-.055.082-.137s.101-.185.164-.308.132-.255.205-.396.137-.271.191-.39c-.265-.173-.61-.299-1.039-.376s-.853-.116-1.271-.116c-.41 0-.8.063-1.169.191s-.692.313-.971.554-.499.535-.663.882-.246.743-.246 1.189c0 .492.104.902.314 1.23s.474.613.793.854.661.451 1.025.629.704.355 1.019.533.576.376.786.595.314.483.314.793c0 .511-.148.896-.444 1.155-.3.26-.726.39-1.282.39z"/><path d="m28.994 54.055 3.281-10.131h-1.859l-2.475 8.695-2.337-8.695h-1.874l3.131 10.131z"/><path d="m35.358 52.77c.378.429.82.752 1.326.971s1.06.328 1.661.328c.301 0 .604-.022.909-.068s.602-.123.889-.232.561-.248.82-.417.494-.385.704-.649v-3.896h-3.336v1.121h1.709v2.488c-.073.101-.187.178-.342.232s-.316.098-.485.13-.337.055-.506.068-.303.021-.403.021c-.328 0-.641-.077-.937-.232s-.561-.392-.793-.711-.415-.729-.547-1.23-.203-1.094-.212-1.777c.009-.702.082-1.294.219-1.777s.326-.877.567-1.183.515-.521.82-.649.627-.191.964-.191c.301 0 .593.06.875.178s.533.31.752.574l1.135-1.012c-.374-.364-.798-.638-1.271-.82s-.984-.273-1.531-.273c-.593 0-1.144.111-1.654.335s-.955.549-1.333.978-.675.964-.889 1.606-.321 1.388-.321 2.235.107 1.595.321 2.242.511 1.181.889 1.61z"/><path d="m40.5 19h-6v-4h-10v4h-6v-2h-6v6h6v-2h3.548c-4.566 2.636-7.548 7.588-7.548 13 0 .552.447 1 1 1s1-.448 1-1c0-5.246 3.229-9.999 8-11.995v2.995h10v-2.995c4.771 1.997 8 6.75 8 11.995 0 .552.447 1 1 1s1-.448 1-1c0-5.412-2.982-10.364-7.548-13h3.548v2h6v-6h-6zm-24 2h-2v-2h2zm16 2h-6v-3.754-2.246h6v2.246zm10-4h2v2h-2z"/></g></svg>