<svg enable-background="new 0 0 58 58" viewBox="0 0 58 58" xmlns="http://www.w3.org/2000/svg"><path fill="#c8bdb8" d="m51.5 39v-25.022c0-.766-.092-1.333-.55-1.792l-11.637-11.636c-.349-.349-.833-.55-1.328-.55h-29.022c-1.186 0-2.463.916-2.463 2.926v36.074zm-14-35.609c0-.458.553-.687.877-.363l10.095 10.095c.324.324.095.877-.363.877h-10.609zm-25 13.609h6v2h6v-4h10v4h6v-2h6v6h-6v-2h-3.548c4.566 2.636 7.548 7.588 7.548 13 0 .552-.447 1-1 1s-1-.448-1-1c0-5.246-3.229-9.999-8-11.995v2.995h-10v-2.995c-4.771 1.997-8 6.75-8 11.995 0 .552-.447 1-1 1s-1-.448-1-1c0-5.412 2.982-10.364 7.548-13h-3.548v2h-6z"/><path fill="#e57e25" d="m6.5 41v15c0 1.009 1.22 2 2.463 2h40.074c1.243 0 2.463-.991 2.463-2v-15zm15.733 11.298c-.15.342-.362.643-.636.902s-.61.467-1.012.622-.856.232-1.367.232c-.219 0-.444-.012-.677-.034s-.467-.062-.704-.116-.463-.13-.677-.226-.398-.212-.554-.349l.287-1.176c.128.073.289.144.485.212s.398.132.608.191.419.107.629.144.405.055.588.055c.556 0 .982-.13 1.278-.39s.444-.645.444-1.155c0-.31-.104-.574-.314-.793s-.472-.417-.786-.595-.654-.355-1.019-.533-.706-.388-1.025-.629-.583-.526-.793-.854-.314-.738-.314-1.23c0-.446.082-.843.246-1.189s.385-.641.663-.882.602-.426.971-.554.759-.191 1.169-.191c.419 0 .843.039 1.271.116s.774.203 1.039.376c-.055.118-.118.248-.191.39s-.142.273-.205.396-.118.226-.164.308-.073.128-.082.137c-.055-.027-.116-.063-.185-.109s-.166-.091-.294-.137-.296-.077-.506-.096-.479-.014-.807.014c-.183.019-.355.07-.52.157s-.31.193-.438.321-.228.271-.301.431-.109.313-.109.458c0 .364.104.658.314.882s.47.419.779.588.647.333 1.012.492.704.354 1.019.581.576.513.786.854.314.781.314 1.319c.004.365-.071.718-.222 1.06zm6.761 1.757h-2.133l-3.131-10.131h1.873l2.338 8.695 2.475-8.695h1.859zm12.674-1.354c-.21.265-.444.48-.704.649s-.533.308-.82.417-.583.187-.889.233-.608.068-.909.068c-.602 0-1.155-.109-1.661-.328s-.948-.542-1.326-.971-.675-.966-.889-1.613-.321-1.395-.321-2.242.107-1.593.321-2.235.511-1.178.889-1.606.822-.754 1.333-.978 1.062-.335 1.654-.335c.547 0 1.058.091 1.531.273s.897.456 1.271.82l-1.135 1.012c-.219-.265-.47-.456-.752-.574s-.574-.178-.875-.178c-.337 0-.658.063-.964.191s-.579.344-.82.649-.431.699-.567 1.183-.21 1.075-.219 1.777c.009.684.08 1.276.212 1.777s.314.911.547 1.23.497.556.793.711.608.232.937.232c.101 0 .234-.007.403-.021s.337-.036.506-.068.33-.075.485-.13.269-.132.342-.232v-2.488h-1.709v-1.121h3.336z"/></svg>