<svg enable-background="new 0 0 58 58" viewBox="0 0 58 58" xmlns="http://www.w3.org/2000/svg"><path d="m50.95 12.187-.77-.77-10.096-10.096s-.001-.001-.002-.001l-.768-.768c-.349-.351-.834-.552-1.329-.552h-29.022c-1.186 0-2.463.916-2.463 2.926v36.074 16.537.463c0 .838.843 1.654 1.839 1.91.05.013.097.032.148.042.157.031.316.048.476.048h40.074c.16 0 .319-.017.475-.048.051-.01.098-.029.148-.042.997-.256 1.84-1.072 1.84-1.91v-.463-16.537-25.022c0-.765-.092-1.332-.55-1.791zm-11.45-8.622 8.435 8.435h-8.435zm-30.537 52.435c-.071 0-.135-.025-.198-.049-.156-.075-.265-.231-.265-.414v-14.537h41v14.537c0 .183-.109.339-.265.414-.063.024-.127.049-.198.049zm-.463-17v-36.074c0-.217.033-.926.463-.926h28.595c-.033.126-.058.256-.058.392v11.608h11.609c.135 0 .264-.025.39-.058 0 .014.001.02.001.036v25.022z"/><path d="m19.566 45.25h5.086l-.287.219-4.799 7.205v1.326h6.7v-1.326h-5.073l.274-.219 4.799-7.205v-1.326h-6.7z"/><path d="m28.604 43.924h1.668v10.076h-1.668z"/><path d="m38.071 44.744c-.333-.273-.709-.479-1.128-.615-.419-.137-.843-.205-1.271-.205h-2.898v10.076h1.641v-3.637h1.217c.528 0 1.012-.077 1.449-.232s.811-.374 1.121-.656.551-.631.725-1.046c.173-.415.26-.877.26-1.388 0-.483-.103-.918-.308-1.306s-.475-.717-.808-.991zm-.622 3.329c-.101.278-.232.494-.396.649s-.344.267-.54.335-.395.103-.595.103h-1.504v-3.992h1.23c.419 0 .756.066 1.012.198.255.132.453.296.595.492.141.196.234.401.28.615.045.214.068.403.068.567.001.411-.05.755-.15 1.033z"/><path d="m29.5 23h2v-2h-2v-2h2v-2h-2v-2h2v-2h-2v-2h2v-2h-2v-2h-2v2h-2v2h2v2h-2v2h2v2h-2v2h2v2h-2v2h2v2h-4v5c0 2.757 2.243 5 5 5s5-2.243 5-5v-5h-4zm2 7c0 1.654-1.346 3-3 3s-3-1.346-3-3v-3h6z"/><path d="m27.5 31h2c.552 0 1-.447 1-1s-.448-1-1-1h-2c-.552 0-1 .447-1 1s.448 1 1 1z"/></svg>