<svg enable-background="new 0 0 58 58" viewBox="0 0 58 58" xmlns="http://www.w3.org/2000/svg"><g fill="#4e74ba"><path d="m31.1 46.1-1.4 4.4h2.9l-1.4-4.4z"/><path d="m6.5 41v15c0 1 1.2 2 2.5 2h40c1.2 0 2.5-1 2.5-2v-15zm17 13.1-1.9-7.2-1.9 7.2h-1.3l-2.5-10h1.6l1.6 7.1 1.9-7.1h1.1l1.9 7.1 1.6-7.1h1.6l-2.5 10zm10.3 0-.8-2.3h-3.8l-.8 2.2h-1.6l3.6-10h1.3l3.6 10h-1.5zm5.3 0h-1.2l-3.3-10h1.6l2.3 7.6 2.3-7.6h1.6z"/></g><path d="m51.5 39v-25c0-.8-.1-1.3-.5-1.8l-11.7-11.7c-.3-.3-.8-.5-1.3-.5h-29c-1.2 0-2.5.9-2.5 2.9v36.1zm-14-35.6c0-.5.6-.7.9-.4l10.1 10.1c.3.3.1.9-.4.9h-10.6zm-13.7 22.8h3.7v-9.1-8.3-1c0-.6.4-1 1-1s1 .4 1 1v.9c.1.5.9 3.6 4.9 6.7 1 .8 1.7 1.6 2.3 2.4 1.4 1.9 3.4 5.9 1.8 11.3-.1.4-.5.7-1 .7-.1 0-.2 0-.3 0-.4-.1-.7-.5-.7-1 0-.1 0-.2 0-.3 1-3.2-2.9-6.1-5.2-7.8-.7-.5-1.2-.9-1.5-1.2l-.3-.2v11.5c0 3.5-2.8 6.3-6.3 6.3s-5.7-2.2-5.7-5.7c0-3.3 2.4-5.2 6.3-5.2z" fill="#c8bdb8"/></svg>