<svg enable-background="new 0 0 58 58" viewBox="0 0 58 58" xmlns="http://www.w3.org/2000/svg"><path d="m50.95 12.187-.77-.77-10.096-10.096s-.001-.001-.002-.001l-.768-.768c-.349-.351-.834-.552-1.329-.552h-29.022c-1.186 0-2.463.916-2.463 2.926v36.074 16.537.463c0 .838.843 1.654 1.839 1.91.05.013.097.032.148.042.157.031.316.048.476.048h40.074c.16 0 .319-.017.475-.048.051-.01.098-.029.148-.042.997-.256 1.84-1.072 1.84-1.91v-.463-16.537-25.022c0-.765-.092-1.332-.55-1.791zm-8.45 8.813c0 7.168-5.832 13-13 13s-13-5.832-13-13 5.832-13 13-13c2.898 0 5.721.977 8 2.76v2.24 1h1 1.948c1.344 2.093 2.052 4.502 2.052 7zm-1.519-9h-1.481v-1.717-6.718l8.435 8.435zm-32.018 44c-.071 0-.135-.025-.198-.049-.156-.075-.265-.231-.265-.414v-14.537h41v14.537c0 .183-.109.339-.265.414-.063.024-.127.049-.198.049zm-.463-17v-36.074c0-.217.033-.926.463-.926h28.595c-.033.126-.058.256-.058.392v5.942c-2.385-1.508-5.158-2.334-8-2.334-8.271 0-15 6.729-15 15s6.729 15 15 15 15-6.729 15-15c0-2.465-.607-4.849-1.749-7h6.357c.135 0 .264-.025.39-.058 0 .014.001.02.001.036v25.022z"/><path d="m20.42 50.814-2.994-6.89h-1.668v10.076h1.668v-6.932l2.269 5.606h1.45l2.255-5.606v6.932h1.668v-10.076h-1.668z"/><path d="m32.868 44.744c-.333-.273-.709-.479-1.128-.615-.419-.137-.843-.205-1.271-.205h-2.899v10.076h1.641v-3.637h1.217c.528 0 1.012-.077 1.449-.232s.811-.374 1.121-.656.551-.631.725-1.046c.173-.415.26-.877.26-1.388 0-.483-.103-.918-.308-1.306s-.474-.717-.807-.991zm-.622 3.329c-.101.278-.232.494-.396.649s-.344.267-.54.335-.395.103-.595.103h-1.504v-3.992h1.23c.419 0 .756.066 1.012.198.255.132.453.296.595.492.141.196.234.401.28.615.045.214.068.403.068.567 0 .411-.05.755-.15 1.033z"/><path d="m41.146 43.924h-1.668l-4.361 6.426v1.299h4.361v2.351h1.668v-2.352h1.053v-1.298h-1.053zm-1.667 6.426h-2.899l2.898-4.512v4.512z"/><path d="m37.037 20.156-11-7c-.308-.195-.698-.208-1.019-.033-.319.176-.518.512-.518.877v14c0 .365.199.701.519.877.15.082.315.123.481.123.187 0 .374-.053.537-.156l11-7c.288-.184.463-.502.463-.844s-.175-.66-.463-.844zm-10.537 6.023v-10.358l8.137 5.179z"/></svg>