<svg enable-background="new 0 0 58 58" viewBox="0 0 58 58" xmlns="http://www.w3.org/2000/svg"><path d="m50.95 12.187-.771-.771-10.095-10.095-.771-.771c-.349-.349-.833-.55-1.328-.55h-29.022c-1.186 0-2.463.916-2.463 2.926v36.074 16.537.463c0 .837.842 1.653 1.838 1.91.05.013.098.032.15.042.156.031.315.048.475.048h40.074c.16 0 .319-.017.475-.048.052-.01.1-.029.15-.042.996-.257 1.838-1.073 1.838-1.91v-.463-16.537-25.022c0-.767-.092-1.333-.55-1.791zm-3.015-.187h-8.435v-8.435zm-38.972 44c-.071 0-.135-.026-.198-.049-.156-.074-.265-.23-.265-.414v-14.537h41v14.537c0 .184-.109.339-.265.414-.063.023-.127.049-.198.049zm-.463-17v-36.074c0-.217.033-.926.463-.926h28.595c-.033.126-.058.256-.058.391v11.609h11.609c.135 0 .264-.025.39-.058 0 .015.001.021.001.036v25.022z"/><path d="m22.227 43.924-1.928 4.101h-.137l-1.777-4.101h-1.873l2.72 5.181-2.556 4.895h1.9l1.723-3.801h.137l1.599 3.801h1.901l-2.557-4.895 2.721-5.181z"/><path d="m28.037 43.924h-1.668v10.076h6.303v-1.244h-4.635z"/><path d="m38.94 49.064c-.314-.228-.654-.422-1.019-.581s-.702-.323-1.012-.492-.57-.364-.779-.588c-.21-.224-.314-.518-.314-.882 0-.146.036-.299.109-.458s.173-.303.301-.431c.127-.128.273-.234.438-.321s.337-.139.52-.157c.328-.027.597-.032.807-.014.209.019.378.05.506.096.127.046.226.091.294.137s.13.082.185.109c.009-.009.036-.055.082-.137.045-.082.1-.185.164-.308.063-.123.132-.255.205-.396.073-.142.137-.271.191-.39-.265-.173-.611-.299-1.039-.376-.429-.077-.853-.116-1.271-.116-.41 0-.8.063-1.169.191s-.693.313-.971.554-.499.535-.663.882-.246.743-.246 1.189c0 .492.104.902.314 1.23.209.328.474.613.793.854s.661.451 1.025.629.704.355 1.019.533.576.376.786.595c.209.219.314.483.314.793 0 .511-.148.896-.444 1.155-.296.26-.723.39-1.278.39-.183 0-.378-.019-.588-.055s-.419-.084-.629-.144-.413-.123-.608-.191c-.196-.068-.358-.139-.485-.212l-.287 1.176c.155.137.339.253.554.349.214.096.439.171.677.226.237.055.472.094.704.116s.458.034.677.034c.51 0 .966-.077 1.367-.232s.738-.362 1.012-.622.485-.561.636-.902.226-.695.226-1.06c0-.538-.105-.978-.314-1.319-.213-.341-.475-.626-.79-.854z"/><path d="m24.5 13h-12v4 2 2 2 2 2 2 2 4h10 2 21v-4-2-2-2-2-2-4h-21zm-10 6h8v2h-8zm0 4h8v2h-8zm0 4h8v2h-8zm8 6h-8v-2h8zm21 0h-19v-2h19zm0-4h-19v-2h19zm0-4h-19v-2h19zm0-6v2h-19v-2zm-29-2v-2h8v2z"/></svg>