<svg enable-background="new 0 0 58 58" viewBox="0 0 58 58" xmlns="http://www.w3.org/2000/svg"><path fill="#c8bdb8" d="m51.5 39v-25.022c0-.766-.092-1.333-.55-1.792l-11.637-11.636c-.349-.349-.833-.55-1.328-.55h-29.022c-1.186 0-2.463.916-2.463 2.926v36.074zm-14-35.609c0-.458.553-.687.877-.363l10.095 10.095c.324.324.095.877-.363.877h-10.609zm-3.707 15.316c-.391-.391-.391-1.023 0-1.414s1.023-.391 1.414 0l6 6c.391.391.391 1.023 0 1.414l-6 6c-.195.195-.451.293-.707.293s-.512-.098-.707-.293c-.391-.391-.391-1.023 0-1.414l5.293-5.293zm-9.236 12.96 6-17c.185-.521.753-.795 1.276-.61.521.184.794.755.61 1.276l-6 17c-.145.411-.531.667-.943.667-.11 0-.223-.019-.333-.058-.521-.183-.794-.754-.61-1.275zm-8.764-8.374 6-6c.391-.391 1.023-.391 1.414 0s.391 1.023 0 1.414l-5.293 5.293 5.293 5.293c.391.391.391 1.023 0 1.414-.195.195-.451.293-.707.293s-.512-.098-.707-.293l-6-6c-.391-.391-.391-1.023 0-1.414z"/><path fill="#f29c1f" d="m6.5 41v15c0 1.009 1.22 2 2.463 2h40.074c1.243 0 2.463-.991 2.463-2v-15zm16.436 13h-1.9l-1.6-3.801h-.137l-1.723 3.801h-1.9l2.557-4.895-2.721-5.182h1.873l1.777 4.102h.137l1.928-4.102h1.873l-2.721 5.182zm11.73 0h-1.668v-6.932l-2.256 5.605h-1.449l-2.27-5.605v6.932h-1.668v-10.076h1.668l2.994 6.891 2.98-6.891h1.668v10.076zm8.832 0h-6.303v-10.076h1.668v8.832h4.635z"/></svg>