<?xml version="1.0" encoding="utf-8"?>
<!-- Generator: Adobe Illustrator 16.0.3, SVG Export Plug-In . SVG Version: 6.00 Build 0)  -->
<!DOCTYPE svg PUBLIC "-//W3C//DTD SVG 1.1//EN" "http://www.w3.org/Graphics/SVG/1.1/DTD/svg11.dtd">
<svg version="1.1" id="Layer_1" xmlns="http://www.w3.org/2000/svg" xmlns:xlink="http://www.w3.org/1999/xlink" x="0px" y="0px"
	 width="198.587px" height="79.15px" viewBox="0 0 198.587 79.15" enable-background="new 0 0 198.587 79.15" xml:space="preserve">
<path id="path243" fill="#1F1C1D" d="M68.101,29.033c-4.126,0-8.731,1.59-9.696,6.821c-0.103,0.556,0.265,0.821,0.62,0.902
	l4.229,0.507c0.391-0.02,0.657-0.444,0.732-0.845c0.361-1.8,1.843-2.65,3.496-2.65c0.893,0,1.896,0.307,2.424,1.128
	c0.606,0.914,0.563,2.158,0.563,3.213v0.62c-2.513,0.289-5.822,0.464-8.174,1.522c-2.714,1.207-4.623,3.662-4.623,7.272
	c0,4.626,2.833,6.934,6.483,6.934c3.081,0,4.783-0.724,7.159-3.213c0.788,1.173,1.042,1.705,2.48,2.932
	c0.321,0.172,0.728,0.155,1.015-0.113v0.057c0.866-0.789,2.44-2.227,3.326-2.987c0.354-0.297,0.276-0.783,0-1.184
	c-0.792-1.123-1.635-2.03-1.635-4.116v-6.934c0-2.938,0.249-5.645-1.86-7.667C72.979,29.596,70.208,29.033,68.101,29.033z
	 M124.926,29.033c-4.127,0-8.729,1.59-9.696,6.821c-0.102,0.556,0.265,0.821,0.62,0.902l4.229,0.507
	c0.391-0.02,0.659-0.444,0.732-0.845c0.363-1.8,1.843-2.65,3.495-2.65c0.896,0,1.896,0.307,2.425,1.128
	c0.604,0.914,0.507,2.158,0.507,3.213v0.62c-2.512,0.289-5.764,0.464-8.117,1.522c-2.717,1.207-4.623,3.662-4.623,7.272
	c0,4.626,2.836,6.934,6.482,6.934c3.078,0,4.781-0.724,7.16-3.213c0.786,1.173,1.041,1.705,2.48,2.932
	c0.324,0.172,0.728,0.155,1.015-0.113v0.057c0.866-0.789,2.44-2.227,3.326-2.987c0.353-0.297,0.271-0.783,0-1.184
	c-0.793-1.123-1.635-2.03-1.635-4.116v-6.934c0-2.938,0.19-5.645-1.917-7.667C129.746,29.596,127.033,29.033,124.926,29.033z
	 M92.962,29.259c-2.667,0-4.644,1.345-5.693,4.228h-0.057v-2.988c-0.027-0.417-0.367-0.767-0.79-0.789h-4.059
	c-0.46,0-0.845,0.39-0.845,0.846v22.832c0.034,0.404,0.376,0.761,0.789,0.789h4.34c0.464,0,0.844-0.386,0.846-0.846V41.209
	c0-2.642-0.128-6.257,2.988-6.257c3.076,0,2.649,3.714,2.649,6.257v12.121c0,0.43,0.353,0.817,0.79,0.846h4.341
	c0.461,0,0.846-0.386,0.846-0.846V41.209c0-1.297-0.053-3.186,0.394-4.341c0.446-1.154,1.54-1.917,2.594-1.917
	c1.255,0,2.213,0.438,2.536,1.973c0.202,0.913,0.113,3.325,0.113,4.284v12.121c0,0.43,0.353,0.817,0.789,0.846h4.341
	c0.462,0,0.846-0.386,0.846-0.846V38.899c0-2.452,0.247-5.235-1.127-7.16c-1.214-1.729-3.199-2.48-5.018-2.48
	c-2.551,0-4.924,1.345-5.976,4.228C97.385,30.605,95.673,29.259,92.962,29.259z M166.756,29.259c-6.271,0-9.753,5.515-9.753,12.627
	c0,7.064,3.443,12.741,9.753,12.741c6.071,0,9.923-5.546,9.923-12.516C176.679,34.907,173.189,29.259,166.756,29.259z
	 M191.504,29.259c-2.996,0-4.708,1.498-5.919,4.623h-0.056v-3.495c-0.078-0.354-0.411-0.598-0.789-0.621h-4.003
	c-0.438,0-0.808,0.316-0.846,0.733v22.832c0,0.43,0.355,0.817,0.789,0.846h4.284c0.462,0,0.839-0.385,0.847-0.846v-12.29
	c0-1.54,0.13-2.946,0.732-4.34c0.486-1.106,1.427-1.804,2.479-1.804c2.992,0,2.707,3.644,2.707,6.145v12.403
	c0.042,0.387,0.393,0.707,0.789,0.732h4.341c0.426,0,0.796-0.324,0.846-0.732V39.068c0-2.21,0.006-5.279-1.128-7.104
	C195.364,29.992,193.442,29.259,191.504,29.259L191.504,29.259z M139.415,29.653c-0.441,0-0.788,0.35-0.79,0.845v3.27
	c0.002,0.489,0.339,0.842,0.79,0.846h7.44l-8.512,12.572c-0.52,0.81-0.563,1.728-0.563,2.255v3.325c0,0.479,0.521,1.001,1.014,0.733
	c4.852-2.649,10.665-2.413,15.053-0.056c0.532,0.29,1.07-0.254,1.07-0.733v-3.495c-0.042-0.469-0.226-0.916-0.789-1.24
	c-2.489-1.433-5.38-1.871-8.117-1.805l7.384-10.824c0.685-0.973,1.066-1.558,1.072-2.029v-2.819c0-0.485-0.332-0.845-0.79-0.845
	H139.415z M166.756,33.938c1.374,0,2.389,0.613,2.875,2.199c0.564,1.828,0.62,4.109,0.62,6.032c0,2.93-0.137,7.78-3.495,7.78
	c-3.396,0-3.382-6.005-3.382-8.795C163.374,38.37,163.561,33.938,166.756,33.938z M70.412,42.281v0.958
	c0,1.734,0.063,3.193-0.79,4.736c-0.688,1.254-1.772,2.029-2.987,2.029c-1.66,0-2.65-1.346-2.65-3.27
	C63.985,42.943,67.279,42.281,70.412,42.281z M127.237,42.281v0.958c0,1.734,0.064,3.193-0.789,4.736
	c-0.688,1.254-1.765,2.029-2.988,2.029c-1.66,0-2.649-1.346-2.649-3.27C120.811,42.943,124.102,42.281,127.237,42.281z"/>
<path id="path257" d="M155.368,54.909v3.271h2.199v-3.271H155.368z M91.608,55.473v23.282h2.03v-2.086
	c0.433,0.826,0.924,1.444,1.522,1.86c0.595,0.415,1.279,0.62,2.029,0.62c1.49,0,2.777-0.761,3.89-2.312
	c1.113-1.55,1.69-3.796,1.69-6.652c0-1.87-0.24-3.421-0.732-4.734c-0.492-1.312-1.15-2.287-1.973-2.933
	c-0.823-0.645-1.757-1.015-2.762-1.015c-0.718,0-1.389,0.189-1.973,0.564c-0.587,0.375-1.061,0.986-1.522,1.747v-8.343H91.608z
	 M112.468,60.941c-1.529,0-2.745,0.453-3.608,1.353s-1.297,2.059-1.297,3.495c0,0.836,0.188,1.544,0.508,2.199
	c0.318,0.655,0.778,1.188,1.353,1.578c0.578,0.392,1.729,0.906,3.439,1.466c1.184,0.381,1.891,0.705,2.198,0.959
	c0.447,0.369,0.677,0.854,0.677,1.521c0,0.771-0.268,1.417-0.789,1.917c-0.521,0.504-1.247,0.733-2.199,0.733
	c-0.951,0-1.736-0.269-2.312-0.847c-0.574-0.577-0.884-1.458-1.015-2.649l-2.198,0.451c0.497,3.617,2.301,5.414,5.412,5.412
	c1.659,0,2.93-0.468,3.89-1.466c0.96-0.997,1.466-2.336,1.466-3.946c0-0.87-0.153-1.624-0.451-2.255s-0.706-1.1-1.24-1.466
	c-0.536-0.364-1.729-0.851-3.552-1.465c-1.324-0.464-2.1-0.804-2.367-1.016c-0.449-0.355-0.677-0.842-0.677-1.465
	c0-0.635,0.21-1.174,0.677-1.579c0.466-0.405,1.187-0.62,2.142-0.62c1.682,0,2.622,0.923,2.819,2.763l2.142-0.339
	c-0.147-1.162-0.401-2.082-0.789-2.705c-0.388-0.624-0.962-1.151-1.691-1.522C114.271,61.079,113.433,60.941,112.468,60.941z
	 M125.941,60.941c-1.762,0-3.249,0.726-4.397,2.255s-1.691,3.746-1.691,6.652c0,2.801,0.553,4.996,1.691,6.482
	c1.138,1.484,2.613,2.199,4.453,2.199c1.463,0,2.677-0.438,3.665-1.353c0.99-0.915,1.708-2.261,2.086-4.06l-2.256-0.395
	c-0.647,2.305-1.843,3.436-3.495,3.439c-1.053,0-1.913-0.448-2.649-1.41c-0.736-0.963-1.151-2.393-1.24-4.284h9.696v-0.789
	c0-2.845-0.567-4.98-1.691-6.483C128.987,61.694,127.622,60.941,125.941,60.941z M139.302,60.941c-0.526,0-0.986,0.178-1.409,0.563
	c-0.423,0.387-0.902,1.185-1.409,2.368V61.28h-1.974v16.855h2.198V69.34c0-1.226,0.117-2.406,0.396-3.494
	c0.158-0.624,0.457-1.117,0.846-1.467c0.387-0.349,0.829-0.507,1.296-0.507c0.519,0,1.032,0.208,1.579,0.62l0.732-2.649
	C140.79,61.23,140.038,60.941,139.302,60.941z M166.249,60.941c-1.741,0-3.175,0.733-4.285,2.199
	c-1.105,1.465-1.691,3.666-1.691,6.596c0,2.906,0.593,5.108,1.691,6.595c1.1,1.484,2.474,2.199,4.172,2.199
	c1.402,0,2.608-0.521,3.608-1.578c1.001-1.058,1.61-2.614,1.86-4.623l-2.143-0.338c-0.158,1.437-0.533,2.472-1.128,3.156
	c-0.593,0.682-1.307,1.016-2.142,1.016c-1.064,0-1.97-0.497-2.649-1.522c-0.681-1.025-1.016-2.667-1.016-4.961
	c0-2.224,0.36-3.827,1.072-4.849s1.62-1.578,2.706-1.578c0.726,0,1.344,0.282,1.86,0.846c0.52,0.564,0.863,1.457,1.07,2.593
	l2.143-0.45c-0.257-1.776-0.828-3.115-1.748-4.003C168.708,61.348,167.591,60.941,166.249,60.941z M178.82,60.941
	c-1.762,0-3.248,0.726-4.397,2.255c-1.148,1.529-1.69,3.746-1.69,6.652c0,2.801,0.553,4.996,1.69,6.482
	c1.14,1.484,2.615,2.199,4.454,2.199c1.458,0,2.674-0.438,3.664-1.353c0.988-0.915,1.707-2.261,2.086-4.06l-2.255-0.395
	c-0.648,2.305-1.79,3.436-3.438,3.439c-1.054,0-1.97-0.448-2.706-1.41c-0.736-0.963-1.151-2.393-1.24-4.284h9.696v-0.789
	c0-2.845-0.567-4.98-1.691-6.483C181.87,61.694,180.501,60.941,178.82,60.941z M191.843,60.941c-1.532,0-2.744,0.453-3.608,1.353
	c-0.866,0.899-1.296,2.059-1.296,3.495c0,0.836,0.132,1.544,0.451,2.199c0.316,0.655,0.774,1.188,1.353,1.578
	c0.574,0.392,1.73,0.906,3.439,1.466c1.18,0.381,1.946,0.705,2.255,0.959c0.447,0.369,0.676,0.854,0.676,1.521
	c0,0.771-0.268,1.417-0.789,1.917c-0.52,0.504-1.247,0.733-2.198,0.733c-0.955,0-1.737-0.269-2.312-0.847
	c-0.574-0.577-0.944-1.458-1.071-2.649l-2.198,0.451c0.497,3.617,2.297,5.414,5.412,5.412c1.661,0,2.985-0.468,3.945-1.466
	c0.961-0.997,1.466-2.336,1.466-3.946c0-0.87-0.153-1.624-0.45-2.255c-0.298-0.631-0.761-1.1-1.297-1.466
	c-0.533-0.364-1.674-0.851-3.495-1.465c-1.325-0.464-2.157-0.804-2.424-1.016c-0.449-0.355-0.678-0.842-0.678-1.465
	c0-0.635,0.267-1.174,0.733-1.579c0.468-0.405,1.191-0.62,2.143-0.62c1.681,0,2.621,0.923,2.818,2.763l2.143-0.339
	c-0.15-1.162-0.4-2.082-0.79-2.705c-0.387-0.624-0.962-1.151-1.69-1.522C193.65,61.079,192.807,60.941,191.843,60.941z
	 M141.557,61.28l4.904,16.855h2.086l4.905-16.855h-2.256l-2.875,10.316c-0.348,1.247-0.655,2.323-0.845,3.213
	c-0.24-1.12-0.47-2.297-0.789-3.439l-2.819-10.09H141.557z M155.368,61.28v16.855h2.199V61.28H155.368z M83.096,61.504
	c-1.744,0-3.148,0.783-4.285,2.312c-1.138,1.529-1.747,3.746-1.747,6.652c0,2.802,0.563,4.943,1.691,6.427s2.632,2.255,4.454,2.255
	c1.446,0,2.629-0.495,3.608-1.409c0.978-0.914,1.654-2.261,2.03-4.059l-2.199-0.339c-0.64,2.305-1.804,3.436-3.438,3.439
	c-1.044,0-1.921-0.448-2.649-1.41c-0.729-0.963-1.152-2.392-1.24-4.284h9.583l0.056-0.789c0-2.845-0.578-5.037-1.69-6.539
	C86.155,62.257,84.759,61.504,83.096,61.504z M58.347,61.899l3.947,16.856h2.311l2.594-12.967l0.451,2.875l2.086,10.092h2.255
	l4.002-16.856h-2.086l-2.199,9.753l-0.733,3.27l-0.676-3.27l-1.917-9.753h-2.255l-2.03,9.866l-0.676,3.495l-0.789-3.608
	l-2.029-9.753H58.347z M125.885,63.252c1.096,0,1.998,0.53,2.706,1.578c0.486,0.72,0.803,1.812,0.901,3.271h-7.272
	c0.069-1.479,0.487-2.622,1.185-3.496C124.102,63.732,124.901,63.252,125.885,63.252z M178.765,63.252
	c1.092,0,1.997,0.53,2.705,1.578c0.486,0.72,0.804,1.812,0.902,3.271H175.1c0.068-1.479,0.486-2.622,1.184-3.496
	C176.978,63.732,177.779,63.252,178.765,63.252z M83.096,63.873c1.083,0,1.952,0.529,2.65,1.579c0.481,0.718,0.802,1.811,0.901,3.27
	h-7.159c0.068-1.48,0.435-2.678,1.127-3.552C81.305,64.295,82.12,63.873,83.096,63.873z M97.077,63.873
	c0.978,0,1.81,0.543,2.481,1.579c0.671,1.037,0.958,2.635,0.958,4.848c0,2.156-0.318,3.763-1.016,4.848
	c-0.696,1.086-1.525,1.636-2.424,1.636c-0.661,0-1.261-0.223-1.804-0.677c-0.544-0.455-0.944-1.106-1.24-1.974
	c-0.296-0.866-0.452-2.201-0.452-3.946c0-2.054,0.366-3.593,1.072-4.679C95.359,64.421,96.179,63.873,97.077,63.873z"/>
<path id="polygon287" fill="#F5A81C" d="M26.75,46.001l-8.4,3.608l7.78,3.326l9.02-3.326L26.75,46.001z M14.122,50.512L13.84,66.748
	l12.29,5.412V55.303L14.122,50.512z M39.378,50.512L28.272,54.74v15.897l11.106-4.51V50.512z"/>
<path id="polygon311" fill="#F5A81C" d="M52.626,0l-8.457,3.608l7.836,3.326l9.02-3.326L52.626,0z M40.9,4.792v16.236l10.485,3.044
	l0.338-14.771L40.9,4.792z M64.352,5.694L54.43,9.922v15.954l9.922-4.51V5.694z"/>
<path id="use3387" fill="#F5A81C" d="M12.91,22.851L4.51,26.459l7.779,3.326l9.02-3.326L12.91,22.851z M0.282,27.361L0,43.597
	l12.29,5.411V32.153L0.282,27.361z M25.538,27.361l-11.106,4.228v15.897l11.106-4.51V27.361z"/>
<path id="use3389" fill="#F5A81C" d="M39.97,22.251l-8.4,3.608l7.78,3.326l9.02-3.326L39.97,22.251z M27.342,26.761L27.06,42.997
	l12.29,5.412V31.553L27.342,26.761z M52.597,26.761l-11.105,4.228v15.897l11.105-4.511V26.761z"/>
<path id="use3391" fill="#F5A81C" d="M79.057,0l-8.4,3.608l7.78,3.326l9.02-3.326L79.057,0z M66.429,4.51l-0.282,16.235l12.29,5.413
	V9.302L66.429,4.51z M91.685,4.51L80.579,8.738v15.898l11.106-4.51V4.51z"/>
<g>
	<path fill="#231F20" d="M95.103,18.929V5.335h1.508c0.16,0,0.296,0.037,0.41,0.11c0.113,0.073,0.187,0.187,0.219,0.339l0.2,0.949
		c0.413-0.473,0.887-0.855,1.423-1.148c0.537-0.293,1.164-0.439,1.883-0.439c0.56,0,1.07,0.117,1.533,0.35
		c0.463,0.233,0.862,0.571,1.198,1.014c0.337,0.443,0.597,0.989,0.779,1.638c0.184,0.649,0.275,1.394,0.275,2.232
		c0,0.766-0.104,1.475-0.31,2.127c-0.207,0.652-0.501,1.218-0.885,1.698c-0.383,0.479-0.845,0.854-1.388,1.124
		c-0.543,0.27-1.15,0.404-1.823,0.404c-0.579,0-1.07-0.088-1.473-0.265c-0.403-0.177-0.764-0.421-1.083-0.734v4.195H95.103z
		 M99.897,7.093c-0.513,0-0.95,0.108-1.313,0.325s-0.701,0.521-1.014,0.914v4.594c0.279,0.346,0.584,0.588,0.914,0.724
		c0.33,0.136,0.684,0.205,1.063,0.205c0.373,0,0.71-0.07,1.014-0.209c0.303-0.14,0.56-0.353,0.77-0.64
		c0.209-0.286,0.37-0.647,0.484-1.083c0.113-0.436,0.169-0.95,0.169-1.543c0-0.6-0.048-1.107-0.145-1.523
		c-0.097-0.416-0.234-0.754-0.414-1.014s-0.398-0.449-0.654-0.569C100.515,7.153,100.224,7.093,99.897,7.093z"/>
	<path fill="#231F20" d="M110.774,5.175c0.766,0,1.46,0.124,2.082,0.37c0.622,0.247,1.154,0.596,1.593,1.049
		c0.44,0.453,0.779,1.005,1.02,1.658c0.239,0.653,0.359,1.382,0.359,2.188c0,0.813-0.12,1.545-0.359,2.198
		c-0.24,0.653-0.579,1.208-1.02,1.668c-0.438,0.459-0.971,0.813-1.593,1.059s-1.316,0.37-2.082,0.37s-1.462-0.124-2.088-0.37
		s-1.16-0.599-1.603-1.059c-0.443-0.459-0.786-1.015-1.029-1.668s-0.364-1.385-0.364-2.198c0-0.805,0.121-1.535,0.364-2.188
		c0.243-0.652,0.586-1.205,1.029-1.658c0.442-0.453,0.977-0.802,1.603-1.049C109.313,5.299,110.009,5.175,110.774,5.175z
		 M110.774,13.835c0.852,0,1.483-0.286,1.893-0.859s0.614-1.412,0.614-2.517c0-1.105-0.205-1.948-0.614-2.527
		c-0.409-0.579-1.041-0.869-1.893-0.869c-0.866,0-1.505,0.292-1.918,0.874c-0.413,0.583-0.619,1.423-0.619,2.522
		c0,1.098,0.206,1.936,0.619,2.512C109.27,13.547,109.908,13.835,110.774,13.835z"/>
	<path fill="#231F20" d="M116.507,5.335h1.958c0.187,0,0.343,0.043,0.47,0.13c0.126,0.086,0.206,0.196,0.239,0.33l1.469,5.473
		c0.079,0.3,0.145,0.593,0.194,0.879c0.05,0.287,0.098,0.573,0.145,0.859c0.073-0.286,0.151-0.572,0.235-0.859
		c0.083-0.286,0.171-0.579,0.265-0.879l1.697-5.493c0.04-0.133,0.12-0.243,0.24-0.33c0.119-0.087,0.26-0.13,0.419-0.13h1.089
		c0.18,0,0.33,0.043,0.45,0.13c0.119,0.086,0.199,0.196,0.239,0.33l1.678,5.593c0.087,0.286,0.165,0.564,0.235,0.834
		c0.069,0.27,0.138,0.541,0.204,0.814c0.047-0.286,0.099-0.573,0.155-0.859c0.057-0.287,0.128-0.583,0.215-0.889l1.518-5.473
		c0.033-0.133,0.113-0.243,0.24-0.33c0.126-0.086,0.272-0.13,0.439-0.13h1.867l-3.246,10.248h-1.987
		c-0.213,0-0.366-0.146-0.46-0.439l-1.848-5.923c-0.06-0.193-0.114-0.388-0.164-0.584c-0.051-0.197-0.092-0.392-0.125-0.584
		c-0.04,0.199-0.084,0.398-0.13,0.594c-0.047,0.196-0.1,0.395-0.16,0.594l-1.867,5.903c-0.094,0.293-0.273,0.439-0.539,0.439h-1.889
		L116.507,5.335z"/>
	<path fill="#231F20" d="M137.791,5.175c0.646,0,1.24,0.104,1.783,0.31c0.543,0.207,1.01,0.508,1.403,0.904
		c0.393,0.396,0.699,0.882,0.919,1.458c0.22,0.576,0.329,1.233,0.329,1.973c0,0.187-0.008,0.341-0.024,0.464
		c-0.017,0.124-0.047,0.22-0.091,0.29c-0.043,0.07-0.101,0.12-0.174,0.15c-0.073,0.03-0.167,0.045-0.28,0.045h-6.332
		c0.073,1.052,0.356,1.824,0.85,2.317c0.492,0.493,1.145,0.739,1.957,0.739c0.399,0,0.744-0.046,1.033-0.14
		c0.29-0.093,0.543-0.196,0.76-0.31c0.216-0.113,0.406-0.216,0.569-0.31s0.321-0.14,0.475-0.14c0.1,0,0.187,0.02,0.26,0.06
		c0.073,0.04,0.136,0.096,0.189,0.169l0.719,0.899c-0.272,0.32-0.579,0.588-0.919,0.804s-0.693,0.39-1.063,0.52
		s-0.745,0.221-1.129,0.274c-0.383,0.053-0.754,0.08-1.113,0.08c-0.713,0-1.375-0.118-1.987-0.354
		c-0.613-0.236-1.146-0.586-1.599-1.049c-0.452-0.463-0.809-1.036-1.068-1.718c-0.26-0.683-0.39-1.474-0.39-2.373
		c0-0.699,0.113-1.356,0.34-1.973c0.226-0.616,0.551-1.152,0.974-1.608s0.938-0.817,1.548-1.084
		C136.338,5.309,137.025,5.175,137.791,5.175z M137.841,6.943c-0.719,0-1.281,0.203-1.688,0.609s-0.666,0.982-0.779,1.728h4.635
		c0-0.32-0.044-0.621-0.13-0.904c-0.087-0.283-0.22-0.531-0.399-0.744c-0.18-0.213-0.406-0.381-0.68-0.504
		C138.526,7.005,138.207,6.943,137.841,6.943z"/>
	<path fill="#231F20" d="M144.233,15.583V5.335h1.448c0.253,0,0.429,0.046,0.529,0.14c0.1,0.093,0.166,0.253,0.2,0.479l0.149,1.238
		c0.365-0.632,0.796-1.131,1.288-1.498c0.493-0.366,1.046-0.549,1.658-0.549c0.506,0,0.926,0.117,1.259,0.35l-0.32,1.848
		c-0.02,0.12-0.063,0.205-0.13,0.254c-0.066,0.05-0.156,0.075-0.27,0.075c-0.1,0-0.236-0.023-0.409-0.07
		c-0.173-0.046-0.403-0.07-0.689-0.07c-0.513,0-0.952,0.142-1.318,0.424c-0.366,0.283-0.676,0.698-0.929,1.244v6.382H144.233z"/>
	<path fill="#231F20" d="M156.628,5.175c0.646,0,1.24,0.104,1.783,0.31c0.542,0.207,1.01,0.508,1.403,0.904
		c0.393,0.396,0.699,0.882,0.919,1.458c0.22,0.576,0.329,1.233,0.329,1.973c0,0.187-0.008,0.341-0.024,0.464
		c-0.017,0.124-0.047,0.22-0.09,0.29c-0.044,0.07-0.102,0.12-0.175,0.15c-0.074,0.03-0.167,0.045-0.28,0.045h-6.332
		c0.073,1.052,0.355,1.824,0.849,2.317s1.146,0.739,1.958,0.739c0.399,0,0.744-0.046,1.033-0.14c0.29-0.093,0.543-0.196,0.76-0.31
		c0.216-0.113,0.406-0.216,0.569-0.31s0.321-0.14,0.474-0.14c0.101,0,0.187,0.02,0.26,0.06c0.074,0.04,0.137,0.096,0.19,0.169
		l0.719,0.899c-0.273,0.32-0.579,0.588-0.919,0.804c-0.339,0.216-0.694,0.39-1.063,0.52c-0.37,0.13-0.746,0.221-1.129,0.274
		s-0.754,0.08-1.113,0.08c-0.713,0-1.375-0.118-1.987-0.354c-0.613-0.236-1.146-0.586-1.599-1.049
		c-0.452-0.463-0.809-1.036-1.068-1.718c-0.26-0.683-0.39-1.474-0.39-2.373c0-0.699,0.113-1.356,0.34-1.973
		c0.227-0.616,0.551-1.152,0.974-1.608s0.939-0.817,1.548-1.084C155.175,5.309,155.862,5.175,156.628,5.175z M156.678,6.943
		c-0.719,0-1.282,0.203-1.688,0.609c-0.406,0.406-0.666,0.982-0.779,1.728h4.635c0-0.32-0.044-0.621-0.13-0.904
		c-0.087-0.283-0.22-0.531-0.399-0.744c-0.18-0.213-0.406-0.381-0.68-0.504C157.363,7.005,157.044,6.943,156.678,6.943z"/>
	<path fill="#231F20" d="M170.281,15.583c-0.319,0-0.529-0.15-0.63-0.449l-0.199-0.989c-0.213,0.24-0.437,0.457-0.669,0.649
		c-0.233,0.193-0.484,0.359-0.754,0.5c-0.27,0.14-0.56,0.248-0.869,0.324c-0.31,0.077-0.645,0.115-1.004,0.115
		c-0.56,0-1.072-0.117-1.538-0.35s-0.867-0.571-1.204-1.014c-0.336-0.443-0.596-0.991-0.778-1.643
		c-0.184-0.653-0.275-1.398-0.275-2.237c0-0.759,0.104-1.465,0.31-2.118c0.207-0.652,0.503-1.218,0.89-1.698
		c0.386-0.479,0.849-0.854,1.388-1.124c0.54-0.27,1.146-0.405,1.818-0.405c0.572,0,1.062,0.092,1.468,0.275s0.77,0.428,1.089,0.734
		V0.741h2.467v14.842H170.281z M166.995,13.775c0.513,0,0.949-0.106,1.309-0.32c0.359-0.213,0.699-0.516,1.019-0.909V7.952
		c-0.279-0.339-0.584-0.579-0.914-0.719c-0.329-0.14-0.684-0.209-1.063-0.209c-0.373,0-0.711,0.07-1.014,0.209
		c-0.304,0.14-0.56,0.352-0.77,0.634c-0.209,0.283-0.371,0.643-0.484,1.079s-0.169,0.95-0.169,1.543
		c0,0.599,0.048,1.107,0.145,1.523c0.097,0.417,0.234,0.756,0.414,1.019c0.18,0.263,0.399,0.453,0.659,0.569
		C166.386,13.717,166.676,13.775,166.995,13.775z"/>
	<path fill="#231F20" d="M178.342,15.583V0.741h2.467v5.853c0.406-0.433,0.865-0.777,1.378-1.034s1.112-0.385,1.798-0.385
		c0.56,0,1.07,0.115,1.533,0.345c0.463,0.23,0.862,0.564,1.198,1.004c0.337,0.439,0.596,0.982,0.779,1.628
		c0.183,0.646,0.274,1.389,0.274,2.228c0,0.766-0.103,1.475-0.31,2.127c-0.206,0.652-0.501,1.218-0.884,1.698
		s-0.846,0.854-1.388,1.124c-0.543,0.27-1.15,0.404-1.823,0.404c-0.313,0-0.6-0.032-0.859-0.095
		c-0.26-0.063-0.496-0.152-0.709-0.265c-0.213-0.113-0.411-0.251-0.594-0.415c-0.184-0.163-0.358-0.344-0.524-0.544l-0.11,0.689
		c-0.04,0.173-0.108,0.296-0.204,0.37c-0.097,0.073-0.229,0.11-0.395,0.11H178.342z M183.136,7.093
		c-0.513,0-0.951,0.108-1.313,0.325c-0.363,0.216-0.701,0.521-1.014,0.914v4.594c0.279,0.346,0.584,0.588,0.914,0.724
		c0.329,0.136,0.688,0.205,1.073,0.205c0.373,0,0.709-0.07,1.009-0.209c0.3-0.14,0.555-0.353,0.764-0.64
		c0.21-0.286,0.371-0.647,0.484-1.083s0.17-0.95,0.17-1.543c0-0.6-0.048-1.107-0.145-1.523c-0.097-0.416-0.234-0.754-0.415-1.014
		c-0.179-0.26-0.397-0.449-0.653-0.569C183.753,7.153,183.462,7.093,183.136,7.093z"/>
	<path fill="#231F20" d="M193.004,18.4c-0.074,0.173-0.169,0.304-0.285,0.395c-0.116,0.09-0.294,0.134-0.534,0.134h-1.838
		l1.918-4.105l-4.146-9.488h2.157c0.2,0,0.354,0.046,0.46,0.14s0.187,0.2,0.239,0.32l2.188,5.313
		c0.073,0.173,0.137,0.353,0.19,0.539c0.053,0.187,0.1,0.373,0.14,0.56c0.054-0.193,0.111-0.379,0.175-0.56
		c0.063-0.179,0.131-0.363,0.205-0.549l2.058-5.304c0.053-0.133,0.141-0.243,0.264-0.33s0.262-0.13,0.415-0.13h1.978L193.004,18.4z"
		/>
</g>
</svg>
