<?xml version="1.0" encoding="utf-8"?>
<!-- Generator: Adobe Illustrator 16.0.3, SVG Export Plug-In . SVG Version: 6.00 Build 0)  -->
<!DOCTYPE svg PUBLIC "-//W3C//DTD SVG 1.1//EN" "http://www.w3.org/Graphics/SVG/1.1/DTD/svg11.dtd">
<svg version="1.1" id="Layer_1" xmlns="http://www.w3.org/2000/svg" xmlns:xlink="http://www.w3.org/1999/xlink" x="0px" y="0px"
	 width="156.15px" height="156.15px" viewBox="0 0 156.15 156.15" enable-background="new 0 0 156.15 156.15" xml:space="preserve">
<line fill="none" stroke="#1100FF" stroke-width="0.25" stroke-miterlimit="10" x1="145.258" y1="63.357" x2="116.503" y2="38.337"/>
<circle fill="#0482B2" cx="78.075" cy="78.075" r="78.075"/>
<path opacity="0.1" d="M83.771,155.921c40.458-2.92,72.379-36.644,72.379-77.846c0-1.913-0.093-3.804-0.229-5.683l-40.006-34.505
	L99.555,44.76L80.029,27.962L64.104,75.848L46.324,60.358l-8.181,13.744l10.035,26.287l-9.708,16.253L83.771,155.921z"/>
<path opacity="0.2" d="M128.748,76.463l-15.105-15.112c-1.439-1.435-0.991-2.974,0.991-3.419c0,0,1.639-0.371,3.655-2.387
	c4.333-4.332,4.329-11.361,0-15.684c-4.334-4.333-11.352-4.333-15.685,0c-2.019,2.017-2.385,3.652-2.385,3.652
	c-0.446,1.988-1.988,2.434-3.424,0.99l-15.105-15.1c-1.438-1.439-3.794-1.439-5.231,0L61.355,44.508
	c-1.436,1.439-0.99,2.982,0.992,3.426c0,0,1.641,0.369,3.654,2.383c4.326,4.33,4.334,11.355,0,15.689
	c-4.329,4.329-11.358,4.325-15.684,0c-2.017-2.019-2.385-3.658-2.385-3.658c-0.446-1.984-1.988-2.428-3.424-0.993L29.404,76.463
	c-1.439,1.437-1.439,3.788,0,5.226L44.51,96.794c1.436,1.439,0.988,2.978-0.996,3.426c0,0-1.637,0.368-3.654,2.387
	c-4.332,4.333-4.332,11.354,0,15.685c4.329,4.327,11.354,4.331,15.686,0c2.021-2.019,2.385-3.655,2.385-3.655
	c0.449-1.987,1.986-2.431,3.422-0.99l15.107,15.101c1.438,1.438,3.794,1.438,5.231,0L96.8,113.64
	c1.436-1.435,0.989-2.981-0.993-3.423c0,0-1.644-0.369-3.657-2.383c-4.334-4.332-4.334-11.355,0-15.69
	c4.329-4.33,11.353-4.334,15.685,0c2.018,2.018,2.383,3.659,2.383,3.659c0.448,1.984,1.986,2.435,3.426,0.995l15.105-15.109
	C130.186,80.251,130.186,77.899,128.748,76.463z"/>
<path fill="#FFFFFF" d="M127.748,75.463l-15.105-15.112c-1.439-1.435-0.991-2.974,0.991-3.419c0,0,1.639-0.371,3.655-2.387
	c4.333-4.332,4.329-11.361,0-15.684c-4.334-4.333-11.352-4.333-15.685,0c-2.019,2.017-2.385,3.652-2.385,3.652
	c-0.446,1.988-1.988,2.434-3.424,0.99l-15.105-15.1c-1.438-1.439-3.794-1.439-5.231,0L60.355,43.508
	c-1.436,1.439-0.99,2.982,0.992,3.426c0,0,1.641,0.369,3.654,2.383c4.326,4.33,4.334,11.355,0,15.689
	c-4.329,4.329-11.358,4.325-15.684,0c-2.017-2.019-2.385-3.658-2.385-3.658c-0.446-1.984-1.988-2.428-3.424-0.993L28.404,75.463
	c-1.439,1.437-1.439,3.788,0,5.226L43.51,95.794c1.436,1.439,0.988,2.978-0.996,3.426c0,0-1.637,0.368-3.654,2.387
	c-4.332,4.333-4.332,11.354,0,15.685c4.329,4.327,11.354,4.331,15.686,0c2.021-2.019,2.385-3.655,2.385-3.655
	c0.449-1.987,1.986-2.431,3.422-0.99l15.107,15.101c1.438,1.438,3.794,1.438,5.231,0L95.8,112.64
	c1.436-1.435,0.989-2.981-0.993-3.423c0,0-1.644-0.369-3.657-2.383c-4.334-4.332-4.334-11.355,0-15.69
	c4.329-4.33,11.353-4.334,15.685,0c2.018,2.018,2.383,3.659,2.383,3.659c0.448,1.984,1.986,2.435,3.426,0.995l15.105-15.109
	C129.186,79.251,129.186,76.899,127.748,75.463z"/>
</svg>
