<?xml version="1.0" encoding="utf-8"?>
<!-- Generator: Adobe Illustrator 16.0.3, SVG Export Plug-In . SVG Version: 6.00 Build 0)  -->
<!DOCTYPE svg PUBLIC "-//W3C//DTD SVG 1.1//EN" "http://www.w3.org/Graphics/SVG/1.1/DTD/svg11.dtd">
<svg version="1.1" id="Layer_1" xmlns="http://www.w3.org/2000/svg" xmlns:xlink="http://www.w3.org/1999/xlink" x="0px" y="0px"
	 width="156.15px" height="156.15px" viewBox="0 0 156.15 156.15" enable-background="new 0 0 156.15 156.15" xml:space="preserve">
<circle fill="#D93C2F" cx="78.075" cy="78.076" r="78.075"/>
<path opacity="0.1" d="M95.666,154.136c9.523-2.194,18.388-6.111,26.226-11.436l-36.135-30.547l-17.84,18.599L95.666,154.136z"/>
<path opacity="0.1" d="M156.099,76.042l-53.262-45.117L57.036,44.589l23.912,20.117L68.676,93.3l55.975,47.438
	c19.115-14.23,31.5-36.998,31.5-62.661C156.15,77.394,156.116,76.72,156.099,76.042z"/>
<g opacity="0.1">
	<path d="M50.015,34.355c1.839-1.541,3.841-2.984,6.005-4.326c2.163-1.343,4.487-2.523,6.974-3.543
		c2.486-1.019,5.159-1.815,8.02-2.387c2.858-0.571,5.954-0.857,9.287-0.857c4.674,0,8.888,0.622,12.644,1.865
		c3.754,1.244,6.949,3.021,9.585,5.333s4.662,5.098,6.08,8.354c1.417,3.258,2.125,6.875,2.125,10.854
		c0,3.83-0.521,7.112-1.566,9.846c-1.044,2.736-2.375,5.123-3.99,7.161c-1.617,2.04-3.383,3.792-5.296,5.259
		c-1.915,1.467-3.73,2.848-5.445,4.14c-1.716,1.293-3.208,2.562-4.477,3.804c-1.268,1.243-2.051,2.637-2.35,4.177l-2.088,10.443
		H69.707l-1.641-12.01c-0.051-0.298-0.088-0.596-0.112-0.895c-0.025-0.299-0.037-0.597-0.037-0.895c0-2.188,0.522-4.104,1.566-5.745
		s2.361-3.145,3.953-4.513c1.591-1.367,3.307-2.686,5.147-3.954c1.839-1.268,3.555-2.635,5.146-4.103
		c1.591-1.466,2.909-3.107,3.954-4.923c1.044-1.814,1.566-3.965,1.566-6.452c0-2.984-0.982-5.358-2.946-7.124
		c-1.966-1.765-4.662-2.648-8.094-2.648c-2.637,0-4.837,0.274-6.602,0.82c-1.766,0.548-3.282,1.156-4.551,1.828
		c-1.268,0.671-2.375,1.281-3.319,1.828c-0.945,0.548-1.891,0.82-2.834,0.82c-2.139,0-3.729-0.919-4.774-2.76L50.015,34.355z
		 M63.739,121.406c0-1.79,0.336-3.456,1.008-4.997c0.671-1.541,1.591-2.885,2.76-4.029c1.168-1.143,2.548-2.051,4.14-2.723
		c1.591-0.671,3.331-1.006,5.222-1.006c1.839,0,3.555,0.335,5.147,1.006c1.591,0.672,2.983,1.58,4.177,2.723
		c1.193,1.145,2.126,2.488,2.797,4.029c0.672,1.541,1.008,3.207,1.008,4.997s-0.336,3.469-1.008,5.035
		c-0.671,1.566-1.604,2.922-2.797,4.065c-1.193,1.145-2.586,2.039-4.177,2.686c-1.593,0.646-3.309,0.97-5.147,0.97
		c-1.891,0-3.631-0.324-5.222-0.97c-1.592-0.646-2.972-1.541-4.14-2.686c-1.169-1.144-2.089-2.499-2.76-4.065
		C64.075,124.875,63.739,123.196,63.739,121.406z"/>
</g>
<g>
	<path fill="#FFFFFF" d="M49.015,33.355c1.839-1.541,3.841-2.984,6.005-4.326c2.163-1.343,4.487-2.523,6.974-3.543
		c2.486-1.019,5.159-1.815,8.02-2.387c2.858-0.571,5.954-0.857,9.287-0.857c4.674,0,8.888,0.622,12.644,1.865
		c3.754,1.244,6.949,3.021,9.585,5.333s4.662,5.098,6.08,8.354c1.417,3.258,2.125,6.875,2.125,10.854
		c0,3.83-0.521,7.112-1.566,9.846c-1.044,2.736-2.375,5.123-3.99,7.161c-1.617,2.04-3.383,3.792-5.296,5.259
		c-1.915,1.467-3.73,2.848-5.445,4.14c-1.716,1.293-3.208,2.562-4.477,3.804c-1.268,1.243-2.051,2.637-2.35,4.177l-2.088,10.443
		H68.707l-1.641-12.01c-0.051-0.298-0.088-0.596-0.112-0.895c-0.025-0.299-0.037-0.597-0.037-0.895c0-2.188,0.522-4.104,1.566-5.745
		s2.361-3.145,3.953-4.513c1.591-1.367,3.307-2.686,5.147-3.954c1.839-1.268,3.555-2.635,5.146-4.103
		c1.591-1.466,2.909-3.107,3.954-4.923c1.044-1.814,1.566-3.965,1.566-6.452c0-2.984-0.982-5.358-2.946-7.124
		c-1.966-1.765-4.662-2.648-8.094-2.648c-2.637,0-4.837,0.274-6.602,0.82c-1.766,0.548-3.282,1.156-4.551,1.828
		c-1.268,0.671-2.375,1.281-3.319,1.828c-0.945,0.548-1.891,0.82-2.834,0.82c-2.139,0-3.729-0.919-4.774-2.76L49.015,33.355z
		 M62.739,120.406c0-1.79,0.336-3.456,1.008-4.997c0.671-1.541,1.591-2.885,2.76-4.029c1.168-1.143,2.548-2.051,4.14-2.723
		c1.591-0.671,3.331-1.006,5.222-1.006c1.839,0,3.555,0.335,5.147,1.006c1.591,0.672,2.983,1.58,4.177,2.723
		c1.193,1.145,2.126,2.488,2.797,4.029c0.672,1.541,1.008,3.207,1.008,4.997s-0.336,3.469-1.008,5.035
		c-0.671,1.566-1.604,2.922-2.797,4.065c-1.193,1.145-2.586,2.039-4.177,2.686c-1.593,0.646-3.309,0.97-5.147,0.97
		c-1.891,0-3.631-0.324-5.222-0.97c-1.592-0.646-2.972-1.541-4.14-2.686c-1.169-1.144-2.089-2.499-2.76-4.065
		C63.075,123.875,62.739,122.196,62.739,120.406z"/>
</g>
</svg>
