<?xml version="1.0" encoding="utf-8"?>
<!-- Generator: Adobe Illustrator 16.0.3, SVG Export Plug-In . SVG Version: 6.00 Build 0)  -->
<!DOCTYPE svg PUBLIC "-//W3C//DTD SVG 1.1//EN" "http://www.w3.org/Graphics/SVG/1.1/DTD/svg11.dtd">
<svg version="1.1" id="Layer_1" xmlns="http://www.w3.org/2000/svg" xmlns:xlink="http://www.w3.org/1999/xlink" x="0px" y="0px"
	 width="156.15px" height="156.15px" viewBox="0 0 156.15 156.15" enable-background="new 0 0 156.15 156.15" xml:space="preserve">
<circle fill="#D93C2F" cx="78.075" cy="78.075" r="78.075"/>
<path opacity="0.1" d="M155.062,91.026l-23.898-20.174l-39.83,16.323l-41.814-8.238l-23.07,1.647l14.418,12.977l0.824,30.073
	l37.358,32.492C117.317,155.655,148.941,127.667,155.062,91.026z"/>
<path opacity="0.1" d="M132.655,72.344C113.701,56.38,79.567,26.904,79.567,26.904S45.424,56.38,26.341,72.344
	c-1.121,1.017-1.974,2.848-1.974,4.591c0,3.051,2.47,5.871,5.52,5.871h11.059v37.938c0,3.051,2.45,6.063,5.501,6.063h16.561
	c3.052,0,5.938-3.018,5.938-6.063V98.806h22v21.938c0,3.045,2.131,6.063,5.182,6.063h16.559c3.052,0,5.26-3.012,5.26-6.063V82.806
	h11.301c3.051,0,5.521-2.82,5.521-5.871C134.768,75.191,133.915,73.36,132.655,72.344z M82.233,71.521l5.114,11.314l-3.409,1.551
	l-4.799-11.47l-6.193,6.044V53.388l18.438,17.359L82.233,71.521z"/>
<path fill="#FFFFFF" d="M131.163,70.852c-18.953-15.964-53.088-45.44-53.088-45.44S43.932,54.888,24.85,70.852
	c-1.121,1.017-1.974,2.592-1.974,4.335c0,3.053,2.47,5.618,5.52,5.618h11.551v38.446c0,3.051,1.958,5.554,5.01,5.554h16.56
	c3.052,0,5.43-2.509,5.43-5.554V97.806h22v21.446c0,3.045,2.639,5.554,5.689,5.554h16.559c3.053,0,5.752-2.503,5.752-5.554V80.806
	h10.809c3.051,0,5.52-2.565,5.52-5.618C133.274,73.444,132.423,71.869,131.163,70.852z M80.741,70.029l5.115,11.314l-3.41,1.55
	l-5.052-11.469l-6.448,6.044V51.896l18.691,17.359L80.741,70.029z"/>
</svg>
