<?xml version="1.0" encoding="utf-8"?>
<!-- Generator: Adobe Illustrator 16.0.3, SVG Export Plug-In . SVG Version: 6.00 Build 0)  -->
<!DOCTYPE svg PUBLIC "-//W3C//DTD SVG 1.1//EN" "http://www.w3.org/Graphics/SVG/1.1/DTD/svg11.dtd">
<svg version="1.1" id="Layer_1" xmlns="http://www.w3.org/2000/svg" xmlns:xlink="http://www.w3.org/1999/xlink" x="0px" y="0px"
	 width="196.819px" height="100.851px" viewBox="0 0 196.819 100.851" enable-background="new 0 0 196.819 100.851"
	 xml:space="preserve">
<path fill="#231F20" d="M6.765,39.602c1.353-1.353,3.519-2.165,5.413-2.165c6.224,0,8.253,3.924,8.253,9.606v13.395l-6.765,0.677
	V47.449c0-2.571-1.353-3.924-3.382-3.924c-2.166,0-3.519,1.353-3.519,3.924v12.854L0,60.98V30.266l6.765-0.676V39.602z"/>
<path fill="#231F20" d="M38.019,38.519l6.765-0.676v22.594l-6.359,0.677v-3.383H38.29c-1.353,2.978-3.923,3.789-5.817,3.789
	c-6.225,0-8.254-3.924-8.254-9.606V38.519l6.766-0.676v13.666c0,2.57,1.353,3.923,3.382,3.923c2.029,0,3.382-1.217,3.382-3.923
	V38.519H38.019z"/>
<path fill="#231F20" d="M55.202,29.454v10.147h0.135c1.218-1.624,3.653-2.3,5.818-2.3c6.766,0,11.501,5.682,11.501,12.177
	c0,6.629-5.412,11.771-11.907,11.771c-7.847,0-12.313-4.602-12.313-12.448V30.266L55.202,29.454z M60.073,55.026
	c3.247,0,5.683-2.57,5.683-5.683c0-2.977-2.436-5.683-5.683-5.683c-3.382,0-5.817,2.571-5.817,5.683S56.69,55.026,60.073,55.026z"/>
<path fill="#231F20" d="M75.091,59.083l15.965-16.37H76.173v-1.488h17.454v1.353L77.121,59.22h16.913v1.488H75.091V59.083z"/>
<path fill="#231F20" d="M97.28,50.695c0.135,4.872,3.382,8.525,9.335,8.525c6.089,0,7.712-3.789,8.389-5.548h1.759
	c-1.624,5.007-5.141,7.171-10.282,7.171c-6.766,0-10.959-4.06-10.959-10.553c0-4.059,2.57-10.282,10.959-10.282
	c6.765,0,10.688,4.464,10.824,10.824H97.28V50.695z M115.275,49.208c-0.676-5.413-4.464-7.712-9.065-7.712
	c-5.006,0-8.253,3.112-9.065,7.712H115.275z"/>
<path fill="#231F20" d="M120.01,41.225h1.76v4.6h0.134c1.354-3.382,4.33-5.276,8.118-5.276c0.541,0,0.947,0.135,1.489,0.27v1.759
	c-0.406-0.135-0.948-0.271-2.03-0.271c-5.141,0-7.577,3.924-7.577,7.848v10.553h-1.758V41.225H120.01z"/>
<path fill="#231F20" d="M143.417,40.008c7.035,0,11.094,4.87,11.094,10.418c0,5.547-4.059,10.417-11.094,10.417
	c-7.036,0-11.095-4.87-11.095-10.417C132.323,44.878,136.518,40.008,143.417,40.008z M143.417,59.22c6.223,0,9.336-4.466,9.336-8.93
	c0-4.465-3.113-8.93-9.336-8.93c-6.224,0-9.337,4.465-9.337,8.93C134.081,54.754,137.329,59.22,143.417,59.22z"/>
<path fill="#0482B2" stroke="#0482B2" stroke-miterlimit="10" d="M139.493,7.129c0-3.653,2.978-6.629,6.63-6.629
	c3.654,0,6.494,2.977,6.494,6.629c0,3.654-2.977,6.495-6.494,6.495C142.47,13.625,139.493,10.648,139.493,7.129L139.493,7.129z
	 M148.829,31.078c0,1.488-1.353,2.57-2.706,2.57c-1.486,0-2.57-1.217-2.57-2.57V13.489h5.412L148.829,31.078L148.829,31.078z"/>
<path fill="#0482B2" stroke="#0482B2" stroke-miterlimit="10" d="M139.493,93.721c0,3.652,2.978,6.63,6.63,6.63
	c3.654,0,6.494-2.978,6.494-6.63s-2.977-6.495-6.494-6.495C142.47,87.092,139.493,90.069,139.493,93.721L139.493,93.721z
	 M148.829,69.638c0-1.489-1.353-2.571-2.706-2.571c-1.486,0-2.57,1.218-2.57,2.571v17.725h5.412L148.829,69.638L148.829,69.638z"/>
<path fill="#0482B2" stroke="#0482B2" stroke-miterlimit="10" d="M172.236,15.112c2.571-2.571,6.766-2.571,9.336,0
	s2.57,6.765,0,9.336c-2.57,2.57-6.765,2.57-9.336,0C169.666,21.877,169.666,17.683,172.236,15.112L172.236,15.112z M161.682,38.655
	c-1.082,1.082-2.84,0.947-3.788-0.136c-1.082-1.083-1.082-2.706,0-3.789l12.448-12.447l3.788,3.788L161.682,38.655L161.682,38.655z"
	/>
<path fill="#0482B2" stroke="#0482B2" stroke-miterlimit="10" d="M189.825,44.066c3.652,0,6.494,2.976,6.494,6.628
	c0,3.654-2.976,6.631-6.494,6.631c-3.653,0-6.494-2.977-6.494-6.631C183.331,47.042,186.171,44.066,189.825,44.066L189.825,44.066z
	 M165.742,53.402c-1.487,0-2.571-1.217-2.571-2.707c0-1.487,1.218-2.569,2.571-2.569h17.724v5.412L165.742,53.402L165.742,53.402z"
	/>
<path fill="#0482B2" stroke="#0482B2" stroke-miterlimit="10" d="M171.831,86.009c2.57,2.57,6.765,2.57,9.336,0
	c2.569-2.571,2.569-6.765,0-9.336c-2.571-2.57-6.766-2.57-9.336,0C169.258,79.245,169.258,83.438,171.831,86.009L171.831,86.009z
	 M161.278,62.333c-1.083-1.082-2.706-0.948-3.788,0.134c-1.085,1.083-1.085,2.706,0,3.788l12.446,12.448l3.789-3.788L161.278,62.333
	L161.278,62.333z"/>
</svg>
