<svg xmlns="http://www.w3.org/2000/svg" viewBox="0 0 294.6 62.9">
	<path d="M87.3 15.7v28.9c0 10.2-7.7 18.3-20.4 18.3-9.7 0-19.7-5.5-19.7-19.9V17L58 15.7v25.7c0 4.9.9 11 9.4 11 7.6 0 9-5.2 9-11.9V17.1l10.9-1.4zM177.2 17.5h-28l-4.1 5.1H167l-31.4 39h40.1l1.4-5.1h-31.4M234 26.3h.2c3.2-7.6 8.2-9.9 16.4-9.9l-2.2 5.2c-.5-.1-1.3-.1-2-.1-5.5 0-12.3 6.9-12.3 17.9v22.2l-5.1 1.1V17.5l5.1-1.1v9.9zM294.6 39.5c0 11.9-9.6 23.1-22.6 23.1-13 0-22.6-11.3-22.6-23.1 0-11.9 9.6-23.1 22.6-23.1 13 0 22.6 11.3 22.6 23.1zm-40.1 0c0 9.4 7.6 18 17.5 18s17.5-8.6 17.5-18-7.6-18-17.5-18c-10 0-17.5 8.6-17.5 18zM215.1 48.9c-3 5.1-8.4 8.7-14.9 8.7-9 0-16.1-7.1-17.3-15.5h39.7c.1-.8.2-1.7.2-2.5 0-11.9-9.6-23.1-22.6-23.1s-22.6 11.3-22.6 23.1c0 11.9 9.6 23.1 22.6 23.1 9.5 0 17-6 20.5-13.8h-5.6zm-14.9-27.4c9 0 16.1 7.1 17.3 15.4h-34.6c1.3-8.3 8.3-15.4 17.3-15.4zM24.5 15.5c-6.2 0-9.9 1.4-13.1 5.6h-.2V.1L0 3.3v59l11.2-.7V36.2c0-5.6 3.3-11 10.3-11 5 0 7.2 4 7.2 8.7v28.4l11.2-.7V30.9c-.1-9.5-6.2-15.4-15.4-15.4zM141.2 31.1c-3.3-9.2-11.8-15.5-21.4-15.5-5.5 0-9.2 1.6-12.9 5.2V0L95.6 3.2v35.4c0 13.5 9.2 23.1 19.9 24.3l9-11.1c-1.4.7-3 1.1-4.5 1.1-7.5 0-13.2-6.2-13.2-13.5s5.7-13.5 13.2-13.5c6.3 0 12 6.2 12 13.5 0 1.3-.2 2.6-.5 3.8l9.7-12.1z"></path>
</svg>