<?xml version="1.0" encoding="utf-8"?>
<!-- Generator: Adobe Illustrator 16.0.3, SVG Export Plug-In . SVG Version: 6.00 Build 0)  -->
<!DOCTYPE svg PUBLIC "-//W3C//DTD SVG 1.1//EN" "http://www.w3.org/Graphics/SVG/1.1/DTD/svg11.dtd">
<svg version="1.1" id="Layer_1" xmlns="http://www.w3.org/2000/svg" xmlns:xlink="http://www.w3.org/1999/xlink" x="0px" y="0px"
	 width="156.15px" height="156.15px" viewBox="0 0 156.15 156.15" enable-background="new 0 0 156.15 156.15" xml:space="preserve">
<circle fill="#0482B2" cx="78.075" cy="78.075" r="78.075"/>
<path opacity="0.1" d="M156.15,78.075c0-2.041-0.104-4.057-0.257-6.058L107.5,30.313l-21.625,19.5l-13-11.375L50.25,45.125
	L34.438,76.313l29.016,25.328l-19.79,16.721l-9.638,2.178l41.19,35.539c0.951,0.034,1.901,0.072,2.86,0.072
	C121.195,156.15,156.15,121.195,156.15,78.075z"/>
<path opacity="0.2" d="M123.149,109.899L90.965,77.715c-0.303-0.303-0.623-0.571-0.955-0.822l5.7-6.001
	c0.291-0.294,0.566-0.604,0.82-0.92c7.567,2.854,16.448,1.249,22.53-4.832c4.436-4.438,6.673-10.576,6.133-16.839
	c-0.059-0.709-0.527-1.321-1.195-1.563c-0.672-0.245-1.42-0.079-1.924,0.424L111.76,57.475l-10.444-2.633l-2.961-10.772
	l10.313-10.313c0.504-0.504,0.67-1.254,0.427-1.923c-0.243-0.67-0.855-1.136-1.565-1.197c-6.263-0.54-12.4,1.695-16.839,6.134
	c-6.077,6.078-7.687,14.952-4.837,22.518c-0.309,0.262-0.617,0.541-0.92,0.838l-8.391,8.059L61.137,52.778
	c-0.192-0.193-0.398-0.363-0.609-0.522c0.181-0.316,0.357-0.645,0.52-0.981c3.254,0.626,9.203-5.711,14.255-10.762L60.584,25.794
	c-6.58,6.582-11.386,11-10.764,14.254c-1.504,0.734-2.845,1.634-3.798,2.589l-2.073,2.071c-1.346,1.349-2.158,3.024-2.448,4.771
	c-0.201,0.23-0.404,0.472-0.608,0.73l-0.772,0.971c-0.022,0.024-0.089,0.119-0.107,0.144l-0.701,0.981
	c-0.438,0.584-0.821,1.219-1.192,1.832c-0.136,0.227-0.274,0.454-0.416,0.682c-0.023,0.039-0.046,0.079-0.066,0.116l-0.311,0.588
	c-0.376,0.704-0.766,1.434-1.101,2.237l-0.053,0.128c-0.394,0.936-0.801,1.905-1.086,2.932l-0.139,0.445
	c-0.113,0.364-0.227,0.729-0.332,1.163l-0.287,1.417c-0.213,0.887-0.285,1.76-0.349,2.533l-0.041,0.509
	c-0.105,0.803-0.075,1.561-0.045,2.228c0.009,0.223,0.018,0.443,0.025,0.739c0.007,0.122,0.007,0.242,0.012,0.36
	c0.007,0.299,0.015,0.637,0.073,0.995l0.18,1.148c0.037,0.223,0.071,0.438,0.1,0.645c0.068,0.467,0.14,0.95,0.279,1.408l0.752,2.612
	c0.232,0.795,0.986,1.32,1.811,1.262c0.438-0.028,0.831-0.22,1.123-0.511c0.261-0.262,0.441-0.605,0.497-0.991l0.39-2.657
	c0.029-0.21,0.12-0.52,0.213-0.846c0.065-0.227,0.131-0.458,0.181-0.653l0.278-0.993c0.033-0.134,0.1-0.265,0.157-0.398
	c0.055-0.124,0.11-0.252,0.159-0.379c0.093-0.211,0.181-0.421,0.267-0.637c0.17-0.425,0.332-0.823,0.58-1.216
	c0.107-0.18,0.207-0.36,0.308-0.543c0.258-0.461,0.502-0.896,0.792-1.256c0.02-0.022,0.036-0.045,0.055-0.07l0.655-0.901
	c0.134-0.171,0.286-0.332,0.432-0.493c0.104-0.114,0.208-0.229,0.339-0.381c0.387-0.464,0.84-0.869,1.279-1.269l0.236-0.211
	c0.324-0.302,0.699-0.585,1.095-0.885c0.162-0.12,0.318-0.24,0.475-0.358c0.199-0.129,0.392-0.259,0.583-0.387
	c0.356-0.24,0.666-0.448,1.023-0.634l0.774-0.442l0.786-0.386c0.274-0.141,0.543-0.252,0.791-0.351
	c0.148-0.063,0.294-0.121,0.429-0.181c0.139-0.046,0.271-0.099,0.397-0.145c0.169-0.062,0.313-0.121,0.511-0.172l0.213-0.048
	c0.23,0.374,0.502,0.729,0.825,1.055l15.241,15.239L35.68,107.434c-0.013,0.015-0.026,0.027-0.037,0.038
	c-4.048,4.05-4.708,9.979-0.658,14.027c4.049,4.049,9.602,3.011,13.647-1.038c0.019-0.015,0.036-0.031,0.05-0.051l28.701-30.222
	c0.169,0.201,0.335,0.4,0.522,0.587l32.184,32.183c3.605,3.608,9.455,3.608,13.062,0
	C126.754,119.355,126.754,113.504,123.149,109.899z M44.433,117.125c-1.491,1.493-3.909,1.493-5.4,0c-1.492-1.491-1.492-3.908,0-5.4
	c1.492-1.489,3.909-1.49,5.4,0C45.922,113.217,45.922,115.634,44.433,117.125z"/>
<path fill="#FFFFFF" d="M122.189,108.94L90.005,76.756c-0.302-0.303-0.623-0.572-0.955-0.823l5.7-6.001
	c0.291-0.294,0.567-0.604,0.821-0.92c7.566,2.854,16.447,1.25,22.53-4.832c4.436-4.438,6.672-10.575,6.132-16.838
	c-0.058-0.709-0.527-1.322-1.195-1.563c-0.671-0.246-1.419-0.079-1.923,0.423l-10.314,10.314l-10.445-2.633l-2.961-10.773
	l10.313-10.313c0.505-0.504,0.671-1.255,0.427-1.924c-0.243-0.67-0.855-1.135-1.564-1.197c-6.264-0.539-12.4,1.696-16.84,6.134
	c-6.077,6.078-7.686,14.953-4.836,22.518c-0.309,0.263-0.617,0.542-0.92,0.839l-8.391,8.059L60.178,51.819
	c-0.192-0.194-0.398-0.363-0.609-0.522c0.181-0.317,0.357-0.645,0.52-0.982c3.254,0.626,9.202-5.711,14.254-10.762L59.625,24.835
	c-6.58,6.582-11.386,10.999-10.764,14.253c-1.504,0.735-2.845,1.635-3.798,2.589l-2.073,2.072c-1.345,1.348-2.158,3.024-2.448,4.771
	c-0.201,0.23-0.404,0.471-0.608,0.729l-0.772,0.971c-0.021,0.024-0.089,0.12-0.107,0.145l-0.701,0.98
	c-0.438,0.584-0.821,1.22-1.192,1.832c-0.136,0.227-0.273,0.454-0.416,0.683c-0.023,0.039-0.046,0.078-0.066,0.116l-0.311,0.587
	c-0.376,0.705-0.766,1.435-1.101,2.237l-0.053,0.129c-0.394,0.935-0.801,1.904-1.086,2.932l-0.139,0.444
	c-0.113,0.365-0.227,0.729-0.332,1.164l-0.287,1.417c-0.213,0.886-0.285,1.759-0.348,2.533l-0.042,0.509
	c-0.105,0.803-0.075,1.56-0.045,2.227c0.009,0.224,0.018,0.443,0.025,0.739c0.007,0.123,0.007,0.243,0.012,0.361
	c0.007,0.299,0.015,0.637,0.073,0.995l0.18,1.148c0.038,0.222,0.071,0.438,0.1,0.645c0.068,0.467,0.14,0.95,0.279,1.408l0.752,2.612
	c0.232,0.794,0.986,1.32,1.811,1.262c0.438-0.029,0.831-0.22,1.123-0.512c0.261-0.262,0.441-0.605,0.498-0.991l0.39-2.657
	c0.029-0.21,0.12-0.519,0.213-0.845c0.066-0.227,0.131-0.458,0.181-0.654l0.278-0.993c0.033-0.133,0.099-0.264,0.156-0.398
	c0.055-0.123,0.11-0.252,0.159-0.378c0.093-0.211,0.181-0.422,0.267-0.638c0.17-0.424,0.332-0.823,0.58-1.215
	c0.107-0.18,0.207-0.36,0.308-0.543c0.258-0.461,0.502-0.896,0.792-1.256c0.02-0.022,0.036-0.045,0.055-0.071l0.655-0.901
	c0.134-0.17,0.286-0.332,0.432-0.492c0.104-0.115,0.208-0.229,0.339-0.381c0.387-0.465,0.84-0.869,1.279-1.269l0.236-0.212
	c0.324-0.302,0.699-0.585,1.095-0.885c0.162-0.119,0.318-0.239,0.475-0.357c0.199-0.129,0.392-0.26,0.583-0.387
	c0.356-0.241,0.666-0.449,1.023-0.635l0.775-0.442l0.786-0.385c0.273-0.142,0.543-0.252,0.791-0.352
	c0.148-0.062,0.294-0.121,0.429-0.18c0.139-0.047,0.271-0.1,0.397-0.146c0.169-0.061,0.313-0.121,0.511-0.171l0.213-0.048
	c0.23,0.374,0.502,0.729,0.825,1.054l15.241,15.24L34.72,106.474c-0.013,0.016-0.026,0.027-0.037,0.039
	c-4.048,4.049-4.708,9.978-0.658,14.026c4.049,4.05,9.602,3.012,13.647-1.037c0.019-0.015,0.036-0.032,0.05-0.052l28.701-30.222
	c0.169,0.202,0.335,0.4,0.522,0.588l32.184,32.183c3.605,3.608,9.455,3.608,13.061,0
	C125.795,118.396,125.795,112.544,122.189,108.94z M43.473,116.166c-1.491,1.493-3.909,1.493-5.4,0c-1.492-1.492-1.492-3.908,0-5.4
	c1.492-1.489,3.909-1.49,5.4,0C44.963,112.258,44.963,114.674,43.473,116.166z"/>
</svg>
