<?xml version="1.0" encoding="utf-8"?>
<!-- Generator: Adobe Illustrator 16.0.3, SVG Export Plug-In . SVG Version: 6.00 Build 0)  -->
<!DOCTYPE svg PUBLIC "-//W3C//DTD SVG 1.1//EN" "http://www.w3.org/Graphics/SVG/1.1/DTD/svg11.dtd">
<svg version="1.1" id="Layer_1" xmlns="http://www.w3.org/2000/svg" xmlns:xlink="http://www.w3.org/1999/xlink" x="0px" y="0px"
	 width="156.15px" height="156.15px" viewBox="0 0 156.15 156.15" enable-background="new 0 0 156.15 156.15" xml:space="preserve">
<circle fill="#0482B2" cx="78.075" cy="78.075" r="78.075"/>
<g>
	<defs>
		<circle id="SVGID_1_" cx="78.075" cy="78.075" r="78.075"/>
	</defs>
	<clipPath id="SVGID_2_">
		<use xlink:href="#SVGID_1_"  overflow="visible"/>
	</clipPath>
	<polygon opacity="0.1" clip-path="url(#SVGID_2_)" points="128.595,36.102 207.887,103.71 135.605,198.113 30.073,108.62 
		125.575,109.325 	"/>
</g>
<path display="none" opacity="0.1" enable-background="new    " d="M37.886,121.366l40.688,34.771
	c42.164-0.267,76.376-33.949,77.521-75.9L98.444,31.353l-19.774-3.09L61.162,34.03l-3.708,35.429l37.9,9.682l-7.621,33.575
	L37.886,121.366z"/>
<path display="none" opacity="0.2" enable-background="new    " d="M51.943,51.257v14.874h-6.375c-4.695,0-8.5,3.805-8.5,8.5v42.5
	c0,4.695,3.805,8.498,8.5,8.498h67.997c4.695,0,8.501-3.803,8.501-8.498v-42.5c0-4.695-3.806-8.5-8.501-8.5h-6.374V51.257
	c0-15.257-12.367-27.624-27.624-27.624C64.312,23.633,51.943,36,51.943,51.257z M62.568,66.131V51.257c0-9.393,7.605-17,16.999-17
	c9.393,0,16.999,7.607,16.999,17v14.874H62.568z M71.067,89.505c0-4.694,3.804-8.498,8.5-8.498c4.695,0,8.499,3.804,8.499,8.498
	c0,2.997-1.552,5.634-3.888,7.142c0,0,0.829,5.016,1.765,10.922c0,1.763-1.425,3.187-3.188,3.187H76.38
	c-1.765,0-3.188-1.424-3.188-3.187l1.764-10.922C72.619,95.138,71.067,92.501,71.067,89.505z"/>
<path display="none" fill="#FFFFFF" d="M50.451,49.765v14.874h-6.374c-4.696,0-8.5,3.803-8.5,8.5v42.499
	c0,4.694,3.804,8.499,8.5,8.499h67.997c4.695,0,8.5-3.805,8.5-8.499V73.139c0-4.697-3.805-8.5-8.5-8.5H105.7V49.765
	c0-15.257-12.368-27.624-27.625-27.624C62.82,22.141,50.451,34.509,50.451,49.765z M61.076,64.639V49.765
	c0-9.393,7.606-17,16.999-17s17,7.607,17,17v14.874H61.076z M69.576,88.015c0-4.697,3.804-8.501,8.499-8.501
	c4.696,0,8.5,3.804,8.5,8.501c0,2.995-1.552,5.631-3.889,7.139c0,0,0.831,5.016,1.764,10.922c0,1.764-1.424,3.188-3.188,3.188
	h-6.375c-1.765,0-3.188-1.425-3.188-3.188l1.763-10.922C71.128,93.646,69.576,91.01,69.576,88.015z"/>
<g opacity="0.2">
	<path d="M125.23,35.406H36.419c-3.78,0-6.844,3.063-6.844,6.866v63.104c0,3.805,3.063,6.88,6.844,6.88H70.49
		c0,0,1.48,13.773-10.333,13.773v6.88H70.49H91.15h10.333v-6.89c-12.268,0-10.333-13.773-10.333-13.773h34.089
		c3.76,0,6.825-3.079,6.825-6.88V42.272C132.064,38.469,128.999,35.406,125.23,35.406z M81.341,109.491
		c-3.139,0-5.693-2.551-5.693-5.694c0-3.13,2.546-5.688,5.693-5.688c3.148,0,5.694,2.559,5.694,5.688
		C87.035,106.94,84.479,109.491,81.341,109.491z M124.747,95.904h-0.01H36.9V42.708h87.847V95.904z"/>
	<path d="M81.341,99.179c-2.555,0-4.617,2.076-4.617,4.617c0,2.551,2.072,4.622,4.617,4.622c2.551,0,4.622-2.071,4.622-4.622
		C85.963,101.256,83.895,99.179,81.341,99.179z"/>
</g>
<g>
	<path fill="#FFFFFF" d="M124.23,34.406H35.419c-3.78,0-6.844,3.063-6.844,6.866v63.104c0,3.805,3.063,6.88,6.844,6.88H69.49
		c0,0,1.48,13.773-10.333,13.773v6.88H69.49H90.15h10.333v-6.89c-12.268,0-10.333-13.773-10.333-13.773h34.089
		c3.76,0,6.825-3.079,6.825-6.88V41.272C131.064,37.469,127.999,34.406,124.23,34.406z M80.341,108.491
		c-3.139,0-5.693-2.551-5.693-5.694c0-3.13,2.546-5.688,5.693-5.688c3.148,0,5.694,2.559,5.694,5.688
		C86.035,105.94,83.479,108.491,80.341,108.491z M123.747,94.904h-0.01H35.9V41.708h87.847V94.904z"/>
	<path fill="#FFFFFF" d="M80.341,98.179c-2.555,0-4.617,2.076-4.617,4.617c0,2.551,2.071,4.622,4.617,4.622
		c2.551,0,4.622-2.071,4.622-4.622C84.963,100.256,82.895,98.179,80.341,98.179z"/>
</g>
<line display="none" fill="none" stroke="#1100FF" stroke-width="0.25" stroke-miterlimit="10" x1="173.149" y1="71.113" x2="128.129" y2="32.946"/>
<line display="none" fill="none" stroke="#1100FF" stroke-width="0.25" stroke-miterlimit="10" x1="75.093" y1="143.786" x2="30.073" y2="105.62"/>
</svg>
