<svg xmlns="http://www.w3.org/2000/svg" height="45.662" viewBox="0 0 275.277 50">
    <g id="icon">
        <g fill="#8DC63F">
            <path d="M16.915 44.062c.76-2.258 2.585-5.414 6.925-8.203l-7.42-4.284V20.77l7.426-4.29c-4.342-2.788-6.17-5.946-6.927-8.202-.048-.142-.08-.272-.12-.41-6.812 3.33-11.516 10.31-11.516 18.405 0 8.073 4.678 15.036 11.46 18.378.055-.194.102-.384.17-.588zM18.822 7.762c1.02 2.93 3.425 5.55 6.966 7.6 3.537-2.05 5.942-4.67 6.962-7.598.08-.233.144-.456.204-.676-2.234-.835-4.643-1.314-7.17-1.314-2.524 0-4.93.478-7.165 1.313.058.22.12.44.202.675z"/>
            <path d="M18.386 30.44l7.396 4.27 7.392-4.27v-8.537l-7.392-4.27-7.396 4.27"/>
            <path d="M34.77 7.87c-.04.137-.07.268-.117.41-.76 2.256-2.587 5.416-6.93 8.203l7.417 4.287v10.807l-7.42 4.283c4.34 2.79 6.17 5.945 6.925 8.203.07.204.116.396.17.592 6.787-3.34 11.47-10.306 11.47-18.38 0-8.096-4.703-15.073-11.514-18.406zM32.744 44.575c-1.02-2.925-3.424-5.542-6.96-7.597h-.005c-3.538 2.055-5.942 4.672-6.962 7.597-.104.3-.188.586-.257.863 2.25.85 4.678 1.334 7.225 1.334 2.544 0 4.97-.485 7.217-1.332-.07-.277-.154-.565-.258-.865z"/>
        </g>
        <path fill="#7FB539" d="M25.783 17.587l-7.435 4.292 7.435 4.293 7.437-4.294"/>
        <path fill="#8DC63F" d="M18.35 30.464l7.433 4.295v-8.587l-7.435-4.294"/>
        <path fill="#6D9D31" d="M33.218 30.464l.002-8.585-7.437 4.293v8.586"/>
    </g>
    <g fill="#424143">
        <path d="M53.77 18.723c0-6.754 4.784-11.71 11.573-11.71 6.753 0 11.574 4.955 11.574 11.71 0 3.257-1.12 6.076-3.02 8.143l1.864 2.104-2.75 2.31-1.967-2.207c-1.663.883-3.596 1.36-5.7 1.36-6.79-.002-11.574-4.957-11.574-11.71zm14.762 7.5l-2.817-3.19 2.782-2.31 2.818 3.19c.983-1.39 1.527-3.19 1.527-5.19 0-4.684-2.952-8.18-7.5-8.18-4.582 0-7.5 3.496-7.5 8.18 0 4.648 2.918 8.177 7.5 8.177 1.187 0 2.238-.238 3.19-.678zM80.72 21.064V7.387h4.04V20.96c0 3.6 2.002 5.94 5.768 5.94 3.767 0 5.77-2.34 5.77-5.94V7.388h4.04v13.677c0 5.598-3.226 9.367-9.81 9.367-6.55 0-9.808-3.768-9.808-9.366zM105.16 30.022V7.387h11.13c4.175 0 6.45 2.578 6.45 5.768 0 2.817-1.832 4.753-3.936 5.194 2.444.373 4.376 2.78 4.376 5.532 0 3.53-2.304 6.144-6.582 6.144H105.16v-.004zM118.668 13.8c0-1.663-1.155-2.92-3.155-2.92h-6.383v5.838h6.383c2 0 3.155-1.186 3.155-2.92zm.44 9.57c0-1.695-1.185-3.156-3.43-3.156h-6.55v6.312h6.55c2.142 0 3.43-1.186 3.43-3.155zM127.19 30.022V7.387h15.507v3.494H131.16v5.84h11.3v3.494h-11.3v6.312h11.537v3.497H127.19zM145.315 26.83l2.238-3.086c1.53 1.665 4.008 3.156 7.166 3.156 3.255 0 4.51-1.595 4.51-3.124 0-4.75-13.167-1.796-13.167-10.11 0-3.77 3.26-6.654 8.246-6.654 3.496 0 6.38 1.153 8.448 3.188l-2.237 2.953c-1.8-1.798-4.208-2.613-6.584-2.613-2.306 0-3.803 1.155-3.803 2.818 0 4.242 13.17 1.63 13.17 10.045 0 3.77-2.68 7.023-8.758 7.023-4.172.005-7.192-1.49-9.23-3.595z"/>
    </g>
    <path fill="#424143" d="M58.037 44.89v-6.85H55.6v-.855h5.845v.855h-2.45v6.85h-.958zM66.46 44.89v-3.676c0-.992-.498-1.268-1.26-1.268-.67 0-1.315.415-1.64.868v4.076h-.864v-7.705h.865v2.933c.38-.47 1.145-.946 1.987-.946 1.165 0 1.778.567 1.778 1.78v3.94h-.866v-.002zM68.738 42.09c0-1.612 1.155-2.92 2.75-2.92 1.685 0 2.678 1.32 2.678 2.994v.216H69.66c.07 1.054.797 1.93 2 1.93.646 0 1.28-.255 1.73-.72l.417.568c-.564.555-1.316.867-2.217.867-1.663 0-2.852-1.19-2.852-2.934zm2.737-2.204c-1.19 0-1.78 1.006-1.824 1.85h3.662c-.012-.822-.566-1.85-1.837-1.85zM78.592 44.89v-7.705h3.096c1.547 0 2.413 1.06 2.413 2.322 0 1.257-.877 2.32-2.412 2.32H79.55v3.062h-.958zm4.517-5.383c0-.865-.627-1.465-1.538-1.465H79.55v2.932h2.022c.91 0 1.537-.6 1.537-1.467zM84.867 42.09c0-1.612 1.062-2.92 2.76-2.92 1.697 0 2.76 1.308 2.76 2.92 0 1.62-1.063 2.936-2.76 2.936-1.7 0-2.76-1.317-2.76-2.935zm4.608 0c0-1.13-.66-2.145-1.848-2.145-1.188 0-1.848 1.016-1.848 2.146 0 1.147.66 2.16 1.847 2.16 1.188 0 1.848-1.013 1.848-2.16zM96.627 44.89l-1.455-4.483-1.456 4.483h-.866l-1.778-5.578h.9l1.362 4.443 1.466-4.443h.75l1.456 4.443 1.36-4.443h.915l-1.778 5.578h-.875zM99.956 42.09c0-1.612 1.154-2.92 2.746-2.92 1.687 0 2.68 1.32 2.68 2.994v.216h-4.503c.068 1.054.796 1.93 2 1.93.643 0 1.277-.255 1.73-.72l.415.568c-.564.555-1.316.867-2.218.867-1.66 0-2.85-1.19-2.85-2.934zm2.737-2.204c-1.19 0-1.78 1.006-1.825 1.85h3.66c-.01-.822-.566-1.85-1.835-1.85zM106.783 44.89v-5.578h.867v.888c.45-.58 1.097-1.02 1.858-1.02v.892c-.104-.015-.206-.023-.336-.023-.542 0-1.27.44-1.522.887v3.953h-.867zM113.267 42.09c0-1.612 1.062-2.92 2.76-2.92 1.697 0 2.76 1.308 2.76 2.92 0 1.62-1.062 2.936-2.76 2.936-1.7 0-2.76-1.317-2.76-2.935zm4.61 0c0-1.13-.66-2.145-1.85-2.145-1.192 0-1.85 1.016-1.85 2.146 0 1.147.657 2.16 1.85 2.16 1.19 0 1.85-1.013 1.85-2.16zM120.44 44.89v-4.817h-.92v-.76h.92v-.43c0-1.148.635-1.812 1.614-1.812.454 0 .836.102 1.18.426l-.356.558c-.185-.164-.403-.27-.685-.27-.575 0-.89.382-.89 1.1v.43h1.133v.76h-1.133v4.817h-.862z"/>
    <path fill="#73A441" d="M126.506 44.89v-7.705h3.43c1.34 0 2.16.81 2.16 1.964 0 .968-.646 1.616-1.352 1.765.823.13 1.503.972 1.503 1.894 0 1.236-.82 2.08-2.228 2.08h-3.514zm4.594-5.604c0-.693-.46-1.246-1.324-1.246h-2.31v2.482h2.31c.863 0 1.324-.532 1.324-1.236zm.152 3.417c0-.702-.482-1.324-1.418-1.324h-2.368v2.65h2.368c.89 0 1.418-.506 1.418-1.327zM133.587 37.937c0-.325.27-.587.593-.587.322 0 .576.262.576.587 0 .322-.252.58-.576.58-.323-.004-.593-.258-.593-.58zm.152 6.953v-5.578h.867v5.578h-.868zM136.017 42.09c0-1.612 1.062-2.92 2.76-2.92 1.698 0 2.76 1.308 2.76 2.92 0 1.62-1.062 2.936-2.76 2.936-1.698 0-2.76-1.317-2.76-2.935zm4.605 0c0-1.13-.66-2.145-1.846-2.145-1.19 0-1.85 1.016-1.85 2.146 0 1.147.66 2.16 1.85 2.16 1.187 0 1.846-1.013 1.846-2.16zM142.948 44.89v-7.705h.863v7.705h-.862zM145.223 42.09c0-1.612 1.064-2.92 2.76-2.92 1.697 0 2.76 1.308 2.76 2.92 0 1.62-1.062 2.936-2.76 2.936-1.696 0-2.76-1.317-2.76-2.935zm4.61 0c0-1.13-.66-2.145-1.85-2.145-1.188 0-1.847 1.016-1.847 2.146 0 1.147.66 2.16 1.846 2.16 1.192 0 1.85-1.013 1.85-2.16zM152.145 46.306l.436-.622c.464.542 1.02.752 1.816.752.923 0 1.8-.452 1.8-1.63v-.843c-.415.565-1.097.994-1.884.994-1.453 0-2.48-1.088-2.48-2.886 0-1.79 1.017-2.9 2.48-2.9.752 0 1.435.372 1.885.986v-.845h.867v5.495c0 1.77-1.308 2.345-2.668 2.345-.937-.002-1.583-.185-2.25-.844zm4.052-3.026v-2.45c-.31-.47-.982-.888-1.66-.888-1.134 0-1.803.89-1.803 2.13 0 1.222.67 2.11 1.803 2.11.678 0 1.35-.414 1.66-.902zM158.625 46.285c.13.06.336.09.473.09.385 0 .64-.122.83-.586l.375-.845-2.333-5.634h.944l1.85 4.572 1.858-4.57h.936l-2.793 6.708c-.336.805-.9 1.12-1.64 1.13-.184 0-.475-.035-.623-.08l.123-.785z"/>
    <path fill="#424143" d="M169.462 41.458l-1.706 1.72-.426-.428 1.72-1.72-1.72-1.72.426-.427 1.706 1.72 1.72-1.72.427.428-1.708 1.72 1.707 1.72-.428.428-1.72-1.72z"/>
    <path fill="#73A441" d="M182.828 44.89v-6.482l-2.61 6.482h-.39l-2.624-6.482v6.482h-.958v-7.705h1.374l2.402 5.934 2.39-5.935h1.375v7.705h-.96zM189.046 44.89v-.64c-.45.508-1.098.775-1.848.775-.934 0-1.94-.636-1.94-1.848 0-1.258.995-1.836 1.94-1.836.76 0 1.397.243 1.848.75v-1.004c0-.736-.602-1.166-1.41-1.166-.666 0-1.212.232-1.707.774l-.407-.603c.605-.622 1.316-.92 2.23-.92 1.19 0 2.158.53 2.158 1.883v3.835h-.864v.002zm0-1.18v-1.063c-.337-.452-.925-.683-1.524-.683-.82 0-1.387.506-1.387 1.213 0 .72.566 1.223 1.387 1.223.6 0 1.187-.228 1.524-.69zM191.832 43.723v-3.65h-.923v-.76h.922v-1.528h.878v1.527h1.132v.76h-1.132v3.466c0 .415.183.713.554.713.255 0 .47-.11.588-.24l.252.66c-.218.207-.527.356-1.027.356-.83 0-1.245-.472-1.245-1.303zM198.833 44.89v-3.676c0-.992-.5-1.268-1.263-1.268-.664 0-1.314.415-1.64.868v4.076h-.862v-7.705h.863v2.933c.383-.47 1.147-.946 1.987-.946 1.168 0 1.78.567 1.78 1.78v3.94h-.864v-.002z"/>
    <path fill="#424143" d="M206.433 41.458l-1.707 1.72-.428-.428 1.72-1.72-1.72-1.72.428-.427 1.707 1.72 1.724-1.72.427.428-1.71 1.72 1.71 1.72-.427.428-1.724-1.72z"/>
    <path fill="#73A441" d="M212.904 41.043c0-2.37 1.745-3.984 3.963-3.984 1.36 0 2.31.643 2.92 1.518l-.797.454c-.437-.657-1.247-1.118-2.123-1.118-1.685 0-2.97 1.28-2.97 3.13 0 1.822 1.284 3.128 2.97 3.128.876 0 1.687-.475 2.123-1.12l.808.44c-.644.89-1.57 1.533-2.93 1.533-2.22 0-3.964-1.618-3.964-3.982zM220.67 42.09c0-1.612 1.062-2.92 2.76-2.92 1.7 0 2.76 1.308 2.76 2.92 0 1.62-1.06 2.936-2.76 2.936-1.698 0-2.76-1.317-2.76-2.935zm4.605 0c0-1.13-.66-2.145-1.847-2.145-1.19 0-1.85 1.016-1.85 2.146 0 1.147.66 2.16 1.85 2.16 1.188 0 1.847-1.013 1.847-2.16zM234.335 44.89v-3.788c0-.703-.3-1.156-1.028-1.156-.58 0-1.19.405-1.475.854v4.09h-.867v-3.787c0-.703-.292-1.156-1.028-1.156-.567 0-1.165.415-1.467.868v4.076h-.863v-5.577h.863v.806c.242-.36.982-.947 1.814-.947.845 0 1.328.464 1.49 1.04.31-.51 1.062-1.04 1.87-1.04 1.016 0 1.56.567 1.56 1.688v4.03h-.87zM243.67 44.89v-3.788c0-.703-.303-1.156-1.027-1.156-.58 0-1.19.405-1.48.854v4.09h-.863v-3.787c0-.703-.29-1.156-1.028-1.156-.567 0-1.165.415-1.466.868v4.076h-.864v-5.577h.864v.806c.242-.36.98-.947 1.81-.947.844 0 1.332.464 1.496 1.04.307-.51 1.062-1.04 1.866-1.04 1.017 0 1.56.567 1.56 1.688v4.03h-.867zM250.036 44.89v-.788c-.426.485-1.152.924-1.983.924-1.17 0-1.78-.577-1.78-1.776v-3.938h.864v3.67c0 .98.496 1.27 1.26 1.27.67 0 1.317-.39 1.64-.846V39.31h.866v5.575h-.866v.005zM256.415 44.89v-3.65c0-.994-.506-1.297-1.26-1.297-.68 0-1.315.418-1.65.87v4.072h-.86V39.31h.86v.808c.394-.47 1.156-.946 2-.946 1.153 0 1.765.588 1.765 1.802v3.912h-.854v.004zM258.87 37.937c0-.325.262-.587.583-.587.324 0 .58.262.58.587 0 .322-.256.58-.58.58-.32 0-.584-.258-.584-.58zm.148 6.953v-5.578h.863v5.578h-.862zM261.787 43.723v-3.65h-.923v-.76h.923v-1.528h.882v1.527h1.13v.76h-1.13v3.466c0 .415.182.713.553.713.252 0 .473-.11.588-.24l.255.66c-.22.207-.532.356-1.025.356-.833 0-1.253-.472-1.253-1.303zM264.842 46.285c.128.06.333.09.47.09.382 0 .637-.122.835-.586l.37-.845-2.336-5.634h.948l1.85 4.572 1.857-4.57h.936l-2.792 6.708c-.335.805-.903 1.12-1.64 1.13-.187 0-.475-.035-.625-.08l.13-.785z"/>
</svg>