<svg xmlns="http://www.w3.org/2000/svg" width="224.341" height="47.933" viewBox="192.018 373.652 224.341 47.933" enable-background="new 192.018 373.652 224.341 47.933"><g fill="#73A541"><path d="M192.018 392.058c0-7.015 4.97-12.16 12.02-12.16 7.014 0 12.02 5.146 12.02 12.16 0 3.385-1.163 6.311-3.137 8.46l1.938 2.186-2.855 2.396-2.044-2.291c-1.727.916-3.736 1.409-5.921 1.409-7.052 0-12.021-5.146-12.021-12.16zm15.332 7.79l-2.925-3.313 2.89-2.396 2.926 3.313c1.022-1.445 1.586-3.313 1.586-5.394 0-4.863-3.066-8.495-7.79-8.495-4.758 0-7.79 3.632-7.79 8.495 0 4.829 3.032 8.495 7.79 8.495 1.234 0 2.326-.248 3.313-.705zM220.01 394.49v-14.205h4.195v14.099c0 3.736 2.08 6.169 5.992 6.169s5.992-2.433 5.992-6.169v-14.099h4.195v14.205c0 5.814-3.349 9.728-10.187 9.728-6.803 0-10.187-3.913-10.187-9.728zM245.393 403.795v-23.51h11.562c4.335 0 6.697 2.679 6.697 5.992 0 2.925-1.903 4.935-4.088 5.393 2.538.388 4.547 2.891 4.547 5.746 0 3.666-2.397 6.38-6.838 6.38l-11.88-.001zm14.029-16.849c0-1.728-1.198-3.031-3.278-3.031h-6.627v6.062h6.627c2.08.001 3.278-1.233 3.278-3.031zm.458 9.94c0-1.762-1.233-3.277-3.56-3.277h-6.803v6.556h6.803c2.221-.001 3.56-1.234 3.56-3.279zM268.273 403.795v-23.51h16.108v3.63h-11.984v6.062h11.738v3.631h-11.738v6.556h11.984v3.631h-16.108zM287.1 400.481l2.327-3.208c1.586 1.729 4.159 3.278 7.438 3.278 3.384 0 4.688-1.657 4.688-3.244 0-4.934-13.676-1.866-13.676-10.503 0-3.913 3.384-6.908 8.565-6.908 3.63 0 6.626 1.197 8.777 3.312l-2.327 3.066c-1.868-1.868-4.371-2.715-6.838-2.715-2.396 0-3.948 1.199-3.948 2.927 0 4.405 13.676 1.691 13.676 10.433 0 3.913-2.785 7.296-9.094 7.296-4.336.003-7.474-1.548-9.588-3.734z"/></g><path fill="#414042" d="M308.176 385.94l1.354-1.628c.909 1.058 2.39 1.713 3.891 1.713 1.861 0 2.938-.867 2.938-2.157 0-1.396-1.1-2.009-3.129-2.009-.592 0-1.396.021-1.606.042v-2.242c.231.021 1.058.021 1.606.021 1.67 0 2.918-.57 2.918-1.86s-1.289-1.968-2.854-1.968c-1.459 0-2.644.529-3.658 1.565l-1.27-1.544c1.101-1.29 2.812-2.221 5.161-2.221 3.046 0 5.074 1.438 5.074 3.785 0 1.903-1.606 3.004-3.045 3.236 1.354.148 3.277 1.248 3.277 3.426 0 2.411-2.051 4.124-5.329 4.124-2.494.001-4.356-1.014-5.328-2.283z"/><path fill="#66923E" d="M196.452 419.233v-7.112h-2.531v-.888h6.069v.888h-2.543v7.112h-.995zM205.199 419.233v-3.813c0-1.032-.516-1.319-1.307-1.319-.696 0-1.367.433-1.703.899v4.233h-.899v-8h.899v3.047c.396-.492 1.188-.983 2.063-.983 1.211 0 1.847.588 1.847 1.847v4.091l-.9-.002zM207.565 416.331c0-1.679 1.2-3.034 2.854-3.034 1.751 0 2.783 1.367 2.783 3.106v.228h-4.678c.072 1.092.828 2.003 2.075 2.003.671 0 1.331-.264 1.799-.743l.432.587c-.587.576-1.367.899-2.303.899-1.727 0-2.962-1.235-2.962-3.046zm2.843-2.291c-1.235 0-1.847 1.044-1.895 1.919h3.802c-.012-.852-.588-1.919-1.907-1.919zM217.801 419.233v-8h3.214c1.607 0 2.506 1.104 2.506 2.41 0 1.308-.912 2.41-2.506 2.41h-2.219v3.18h-.995zm4.689-5.588c0-.898-.648-1.522-1.595-1.522h-2.099v3.047h2.099c.947-.002 1.595-.626 1.595-1.525zM224.316 416.331c0-1.679 1.104-3.034 2.867-3.034s2.866 1.355 2.866 3.034-1.103 3.046-2.866 3.046c-1.763 0-2.867-1.367-2.867-3.046zm4.786 0c0-1.176-.684-2.23-1.919-2.23s-1.919 1.056-1.919 2.23c0 1.188.684 2.243 1.919 2.243s1.919-1.055 1.919-2.243zM236.53 419.233l-1.511-4.653-1.511 4.653h-.9l-1.847-5.793h.937l1.415 4.616 1.523-4.616h.78l1.511 4.616 1.415-4.616h.948l-1.847 5.793h-.913zM239.988 416.331c0-1.679 1.2-3.034 2.854-3.034 1.751 0 2.783 1.367 2.783 3.106v.228h-4.678c.072 1.092.828 2.003 2.075 2.003.671 0 1.331-.264 1.799-.743l.432.587c-.587.576-1.367.899-2.303.899-1.726 0-2.962-1.235-2.962-3.046zm2.843-2.291c-1.235 0-1.847 1.044-1.895 1.919h3.802c-.012-.852-.588-1.919-1.907-1.919zM247.08 419.233v-5.793h.899v.924c.468-.601 1.14-1.057 1.931-1.057v.925l-.348-.024c-.564 0-1.319.456-1.583.924v4.103l-.899-.002zM253.812 416.331c0-1.679 1.104-3.034 2.867-3.034s2.866 1.355 2.866 3.034-1.103 3.046-2.866 3.046c-1.763 0-2.867-1.367-2.867-3.046zm4.786 0c0-1.176-.684-2.23-1.919-2.23-1.235 0-1.919 1.056-1.919 2.23 0 1.188.684 2.243 1.919 2.243 1.235 0 1.919-1.055 1.919-2.243zM261.264 419.233v-5.001h-.959v-.792h.959v-.443c0-1.188.66-1.883 1.679-1.883.468 0 .863.106 1.223.442l-.372.575c-.192-.167-.42-.274-.708-.274-.6 0-.923.396-.923 1.14v.443h1.175v.792h-1.175v5.001h-.899z"/><path fill="#414042" d="M267.564 419.233v-8h3.562c1.391 0 2.243.84 2.243 2.039 0 1.008-.671 1.68-1.403 1.835.852.132 1.559 1.008 1.559 1.967 0 1.283-.851 2.159-2.314 2.159h-3.647zm4.773-5.816c0-.72-.48-1.296-1.379-1.296h-2.398v2.579h2.398c.899 0 1.379-.552 1.379-1.283zm.156 3.55c0-.73-.504-1.379-1.475-1.379h-2.458v2.758h2.458c.923 0 1.475-.528 1.475-1.379zM274.92 412.014c0-.336.276-.611.612-.611.335 0 .6.275.6.611s-.264.601-.6.601c-.336-.002-.612-.265-.612-.601zm.156 7.219v-5.793h.899v5.793h-.899zM277.439 416.331c0-1.679 1.104-3.034 2.867-3.034s2.866 1.355 2.866 3.034-1.103 3.046-2.866 3.046c-1.763 0-2.867-1.367-2.867-3.046zm4.786 0c0-1.176-.684-2.23-1.919-2.23-1.235 0-1.919 1.056-1.919 2.23 0 1.188.684 2.243 1.919 2.243 1.235 0 1.919-1.055 1.919-2.243zM284.639 419.233v-8h.899v8h-.899zM287.003 416.331c0-1.679 1.104-3.034 2.867-3.034s2.866 1.355 2.866 3.034-1.103 3.046-2.866 3.046c-1.763 0-2.867-1.367-2.867-3.046zm4.786 0c0-1.176-.684-2.23-1.919-2.23-1.235 0-1.919 1.056-1.919 2.23 0 1.188.684 2.243 1.919 2.243 1.235 0 1.919-1.055 1.919-2.243zM294.191 420.709l.456-.648c.479.564 1.056.78 1.883.78.959 0 1.871-.468 1.871-1.69v-.876c-.432.588-1.139 1.031-1.955 1.031-1.511 0-2.579-1.128-2.579-2.999 0-1.857 1.056-3.01 2.579-3.01.78 0 1.487.384 1.955 1.021v-.876h.899v5.709c0 1.835-1.355 2.435-2.771 2.435-.97-.002-1.642-.193-2.338-.877zm4.21-3.143v-2.543c-.324-.491-1.02-.924-1.727-.924-1.175 0-1.871.924-1.871 2.206 0 1.271.696 2.195 1.871 2.195.707.002 1.403-.43 1.727-.934zM300.923 420.685c.132.061.348.097.492.097.396 0 .66-.132.863-.611l.384-.876-2.422-5.853h.983l1.919 4.75 1.931-4.75h.972l-2.902 6.969c-.348.839-.936 1.163-1.703 1.175-.192 0-.492-.036-.647-.084l.13-.817z"/><path fill="#66923E" d="M312.178 415.671l-1.775 1.787-.442-.443 1.787-1.787-1.787-1.786.442-.443 1.775 1.787 1.787-1.787.443.443-1.775 1.786 1.775 1.787-.443.443-1.787-1.787z"/><path fill="#414042" d="M326.059 419.233v-6.729l-2.711 6.729h-.406l-2.723-6.729v6.729h-.996v-8h1.428l2.494 6.165 2.482-6.165h1.428v8h-.996zM332.518 419.233v-.659c-.469.526-1.141.803-1.92.803-.971 0-2.015-.659-2.015-1.919 0-1.307 1.031-1.906 2.015-1.906.791 0 1.451.252 1.92.779v-1.044c0-.769-.625-1.211-1.465-1.211-.695 0-1.259.24-1.773.804l-.42-.624c.623-.646 1.367-.959 2.314-.959 1.234 0 2.242.552 2.242 1.955v3.981h-.898zm0-1.223v-1.104c-.349-.468-.961-.707-1.584-.707-.852 0-1.438.526-1.438 1.259 0 .744.588 1.271 1.438 1.271.623 0 1.235-.239 1.584-.719zM335.41 418.022v-3.79h-.959v-.792h.959v-1.583h.912v1.583h1.176v.792h-1.176v3.598c0 .432.191.744.574.744.266 0 .492-.12.612-.252l.265.684c-.229.216-.553.371-1.068.371-.863 0-1.295-.491-1.295-1.355zM342.68 419.233v-3.813c0-1.032-.516-1.319-1.307-1.319-.695 0-1.367.433-1.703.899v4.233h-.898v-8h.898v3.047c.396-.492 1.188-.983 2.062-.983 1.211 0 1.849.588 1.849 1.847v4.091l-.901-.002z"/><path fill="#66923E" d="M350.576 415.671l-1.775 1.787-.443-.443 1.787-1.787-1.787-1.786.443-.443 1.775 1.787 1.787-1.787.443.443-1.773 1.786 1.773 1.787-.443.443-1.787-1.787z"/><path fill="#414042" d="M357.297 415.239c0-2.458 1.812-4.139 4.115-4.139 1.414 0 2.398.673 3.033 1.583l-.826.469c-.457-.685-1.297-1.163-2.207-1.163-1.752 0-3.082 1.331-3.082 3.25 0 1.896 1.33 3.251 3.082 3.251.91 0 1.75-.492 2.207-1.164l.838.456c-.67.924-1.631 1.595-3.045 1.595-2.303 0-4.115-1.679-4.115-4.138zM365.361 416.331c0-1.679 1.104-3.034 2.867-3.034s2.866 1.355 2.866 3.034-1.104 3.046-2.866 3.046c-1.763 0-2.867-1.367-2.867-3.046zm4.785 0c0-1.176-.685-2.23-1.918-2.23-1.236 0-1.92 1.056-1.92 2.23 0 1.188.684 2.243 1.92 2.243 1.235 0 1.918-1.055 1.918-2.243zM379.555 419.233v-3.933c0-.73-.312-1.199-1.068-1.199-.6 0-1.233.419-1.534.888v4.246h-.898v-3.935c0-.73-.301-1.199-1.067-1.199-.588 0-1.211.433-1.523.899v4.233h-.898v-5.793h.898v.84c.252-.372 1.02-.983 1.883-.983.877 0 1.381.479 1.549 1.079.322-.527 1.104-1.079 1.941-1.079 1.057 0 1.619.588 1.619 1.751v4.187l-.902-.002zM389.25 419.233v-3.933c0-.73-.312-1.199-1.068-1.199-.6 0-1.233.419-1.535.888v4.246h-.897v-3.935c0-.73-.301-1.199-1.067-1.199-.589 0-1.212.433-1.523.899v4.233h-.898v-5.793h.898v.84c.252-.372 1.02-.983 1.883-.983.877 0 1.381.479 1.549 1.079.322-.527 1.104-1.079 1.941-1.079 1.057 0 1.619.588 1.619 1.751v4.187l-.902-.002zM395.863 419.233v-.815c-.443.504-1.199.959-2.063.959-1.211 0-1.848-.6-1.848-1.847v-4.09h.899v3.813c0 1.02.517 1.319 1.308 1.319.694 0 1.366-.408 1.703-.876v-4.258h.899v5.793l-.898.002zM402.488 419.233v-3.79c0-1.031-.527-1.344-1.31-1.344-.707 0-1.366.433-1.715.899v4.233h-.897v-5.793h.897v.84c.408-.492 1.199-.983 2.076-.983 1.199 0 1.834.611 1.834 1.871v4.065l-.885.002zM405.033 412.014c0-.336.274-.611.61-.611.337 0 .601.275.601.611s-.264.601-.601.601c-.335-.001-.61-.265-.61-.601zm.156 7.219v-5.793h.897v5.793h-.897zM408.068 418.022v-3.79h-.959v-.792h.959v-1.583h.912v1.583h1.176v.792h-1.176v3.598c0 .432.19.744.575.744.265 0 .492-.12.611-.252l.264.684c-.229.216-.551.371-1.065.371-.865 0-1.297-.491-1.297-1.355zM411.238 420.685c.131.061.348.097.49.097.396 0 .659-.132.864-.611l.383-.876-2.422-5.853h.982l1.92 4.75 1.93-4.75h.974l-2.902 6.969c-.348.839-.936 1.163-1.703 1.175-.193 0-.492-.036-.648-.084l.132-.817z"/></svg>