
      <svg xmlns="http://www.w3.org/2000/svg" version="1.1" width="1281" style="display: block;" height="700"><polygon stroke-linejoin="round" stroke-miterlimit="1" stroke-width="1" points="270.5,712 131.5,706 -9.5,712" style="fill:#6e6e6e;stroke:#6e6e6e;"></polygon><polygon stroke-linejoin="round" stroke-miterlimit="1" stroke-width="1" points="1230.5,712 959.5,708 787.5,712" style="fill:#717171;stroke:#717171;"></polygon><polygon stroke-linejoin="round" stroke-miterlimit="1" stroke-width="1" points="1275.5,510 1234.5,377 1228.5,536" style="fill:#777777;stroke:#777777;"></polygon><polygon stroke-linejoin="round" stroke-miterlimit="1" stroke-width="1" points="1293.5,168 1196.5,285 1276.5,260" style="fill:#868686;stroke:#868686;"></polygon><polygon stroke-linejoin="round" stroke-miterlimit="1" stroke-width="1" points="1293.5,168 1256.5,78 1196.5,285" style="fill:#8b8b8b;stroke:#8b8b8b;"></polygon><polygon stroke-linejoin="round" stroke-miterlimit="1" stroke-width="1" points="1293.5,168 1292.5,29 1256.5,78" style="fill:#8c8c8c;stroke:#8c8c8c;"></polygon><polygon stroke-linejoin="round" stroke-miterlimit="1" stroke-width="1" points="1293.5,491 1234.5,377 1275.5,510" style="fill:#767676;stroke:#767676;"></polygon><polygon stroke-linejoin="round" stroke-miterlimit="1" stroke-width="1" points="1293.5,545 1275.5,510 1228.5,536" style="fill:#727272;stroke:#727272;"></polygon><polygon stroke-linejoin="round" stroke-miterlimit="1" stroke-width="1" points="1293.5,545 1293.5,491 1275.5,510" style="fill:#727272;stroke:#727272;"></polygon><polygon stroke-linejoin="round" stroke-miterlimit="1" stroke-width="1" points="1293.5,609 1293.5,545 1228.5,536" style="fill:#707070;stroke:#707070;"></polygon><polygon stroke-linejoin="round" stroke-miterlimit="1" stroke-width="1" points="1293.5,367 1234.5,377 1293.5,491" style="fill:#797979;stroke:#797979;"></polygon><polygon stroke-linejoin="round" stroke-miterlimit="1" stroke-width="1" points="1293.5,323 1276.5,260 1196.5,285" style="fill:#838383;stroke:#838383;"></polygon><polygon stroke-linejoin="round" stroke-miterlimit="1" stroke-width="1" points="1293.5,323 1196.5,285 1234.5,377" style="fill:#818181;stroke:#818181;"></polygon><polygon stroke-linejoin="round" stroke-miterlimit="1" stroke-width="1" points="1293.5,323 1293.5,168 1276.5,260" style="fill:#828282;stroke:#828282;"></polygon><polygon stroke-linejoin="round" stroke-miterlimit="1" stroke-width="1" points="1293.5,628 1293.5,609 1228.5,536" style="fill:#6e6e6e;stroke:#6e6e6e;"></polygon><polygon stroke-linejoin="round" stroke-miterlimit="1" stroke-width="1" points="1293.5,628 1228.5,536 1230.5,712" style="fill:#6d6d6d;stroke:#6d6d6d;"></polygon><polygon stroke-linejoin="round" stroke-miterlimit="1" stroke-width="1" points="1293.5,712 1293.5,628 1230.5,712" style="fill:#696969;stroke:#696969;"></polygon><polygon stroke-linejoin="round" stroke-miterlimit="1" stroke-width="1" points="1293.5,349 1293.5,323 1234.5,377" style="fill:#7d7d7d;stroke:#7d7d7d;"></polygon><polygon stroke-linejoin="round" stroke-miterlimit="1" stroke-width="1" points="1293.5,349 1234.5,377 1293.5,367" style="fill:#7c7c7c;stroke:#7c7c7c;"></polygon><polygon stroke-linejoin="round" stroke-miterlimit="1" stroke-width="1" points="1293.5,-15 1196.5,-15 1292.5,29" style="fill:#939393;stroke:#939393;"></polygon><polygon stroke-linejoin="round" stroke-miterlimit="1" stroke-width="1" points="1293.5,-15 1292.5,29 1293.5,168" style="fill:#8c8c8c;stroke:#8c8c8c;"></polygon><polygon stroke-linejoin="round" stroke-miterlimit="1" stroke-width="1" points="1292.5,29 1196.5,-15 1256.5,78" style="fill:#939393;stroke:#939393;"></polygon><polygon stroke-linejoin="round" stroke-miterlimit="1" stroke-width="1" points="1256.5,78 1077.5,271 1196.5,285" style="fill:#909090;stroke:#909090;"></polygon><polygon stroke-linejoin="round" stroke-miterlimit="1" stroke-width="1" points="1256.5,78 1035.5,88 1077.5,271" style="fill:#9c9c9c;stroke:#9c9c9c;"></polygon><polygon stroke-linejoin="round" stroke-miterlimit="1" stroke-width="1" points="1256.5,78 1106.5,26 1035.5,88" style="fill:#a2a2a2;stroke:#a2a2a2;"></polygon><polygon stroke-linejoin="round" stroke-miterlimit="1" stroke-width="1" points="1230.5,712 1228.5,536 1059.5,577" style="fill:#727272;stroke:#727272;"></polygon><polygon stroke-linejoin="round" stroke-miterlimit="1" stroke-width="1" points="1234.5,377 1059.5,577 1228.5,536" style="fill:#7a7a7a;stroke:#7a7a7a;"></polygon><polygon stroke-linejoin="round" stroke-miterlimit="1" stroke-width="1" points="1256.5,78 1196.5,-15 1106.5,26" style="fill:#9c9c9c;stroke:#9c9c9c;"></polygon><polygon stroke-linejoin="round" stroke-miterlimit="1" stroke-width="1" points="1234.5,377 1196.5,285 1077.5,271" style="fill:#898989;stroke:#898989;"></polygon><polygon stroke-linejoin="round" stroke-miterlimit="1" stroke-width="1" points="1234.5,377 1077.5,271 1017.5,339" style="fill:#8c8c8c;stroke:#8c8c8c;"></polygon><polygon stroke-linejoin="round" stroke-miterlimit="1" stroke-width="1" points="1234.5,377 1017.5,339 1059.5,577" style="fill:#838383;stroke:#838383;"></polygon><polygon stroke-linejoin="round" stroke-miterlimit="1" stroke-width="1" points="1196.5,-15 1004.5,-15 1106.5,26" style="fill:#ababab;stroke:#ababab;"></polygon><polygon stroke-linejoin="round" stroke-miterlimit="1" stroke-width="1" points="1230.5,712 1059.5,577 959.5,708" style="fill:#727272;stroke:#727272;"></polygon><polygon stroke-linejoin="round" stroke-miterlimit="1" stroke-width="1" points="1059.5,577 1017.5,339 976.5,512" style="fill:#858585;stroke:#858585;"></polygon><polygon stroke-linejoin="round" stroke-miterlimit="1" stroke-width="1" points="325.5,-15 -9.5,-15 5.5,-13" style="fill:#a9a9a9;stroke:#a9a9a9;"></polygon><polygon stroke-linejoin="round" stroke-miterlimit="1" stroke-width="1" points="1077.5,271 1035.5,88 968.5,107" style="fill:#a8a8a8;stroke:#a8a8a8;"></polygon><polygon stroke-linejoin="round" stroke-miterlimit="1" stroke-width="1" points="1106.5,26 1004.5,-15 1035.5,88" style="fill:#b2b2b2;stroke:#b2b2b2;"></polygon><polygon stroke-linejoin="round" stroke-miterlimit="1" stroke-width="1" points="1077.5,271 882.5,252 1017.5,339" style="fill:#9c9c9c;stroke:#9c9c9c;"></polygon><polygon stroke-linejoin="round" stroke-miterlimit="1" stroke-width="1" points="1077.5,271 968.5,107 882.5,252" style="fill:#a8a8a8;stroke:#a8a8a8;"></polygon><polygon stroke-linejoin="round" stroke-miterlimit="1" stroke-width="1" points="1035.5,88 1004.5,-15 954.5,38" style="fill:#bababa;stroke:#bababa;"></polygon><polygon stroke-linejoin="round" stroke-miterlimit="1" stroke-width="1" points="1059.5,577 976.5,512 959.5,708" style="fill:#7a7a7a;stroke:#7a7a7a;"></polygon><polygon stroke-linejoin="round" stroke-miterlimit="1" stroke-width="1" points="1017.5,339 852.5,419 976.5,512" style="fill:#8f8f8f;stroke:#8f8f8f;"></polygon><polygon stroke-linejoin="round" stroke-miterlimit="1" stroke-width="1" points="1035.5,88 954.5,38 968.5,107" style="fill:#b8b8b8;stroke:#b8b8b8;"></polygon><polygon stroke-linejoin="round" stroke-miterlimit="1" stroke-width="1" points="1017.5,339 882.5,252 849.5,385" style="fill:#9d9d9d;stroke:#9d9d9d;"></polygon><polygon stroke-linejoin="round" stroke-miterlimit="1" stroke-width="1" points="1017.5,339 849.5,385 852.5,419" style="fill:#979797;stroke:#979797;"></polygon><polygon stroke-linejoin="round" stroke-miterlimit="1" stroke-width="1" points="955.5,-15 946.5,-3 954.5,38" style="fill:#c7c7c7;stroke:#c7c7c7;"></polygon><polygon stroke-linejoin="round" stroke-miterlimit="1" stroke-width="1" points="976.5,512 767.5,557 959.5,708" style="fill:#7f7f7f;stroke:#7f7f7f;"></polygon><polygon stroke-linejoin="round" stroke-miterlimit="1" stroke-width="1" points="976.5,512 852.5,419 850.5,429" style="fill:#8e8e8e;stroke:#8e8e8e;"></polygon><polygon stroke-linejoin="round" stroke-miterlimit="1" stroke-width="1" points="1004.5,-15 955.5,-15 954.5,38" style="fill:#c3c3c3;stroke:#c3c3c3;"></polygon><polygon stroke-linejoin="round" stroke-miterlimit="1" stroke-width="1" points="959.5,708 767.5,557 787.5,712" style="fill:#7a7a7a;stroke:#7a7a7a;"></polygon><polygon stroke-linejoin="round" stroke-miterlimit="1" stroke-width="1" points="968.5,107 790.5,107 882.5,252" style="fill:#bcbcbc;stroke:#bcbcbc;"></polygon><polygon stroke-linejoin="round" stroke-miterlimit="1" stroke-width="1" points="976.5,512 813.5,482 767.5,557" style="fill:#888888;stroke:#888888;"></polygon><polygon stroke-linejoin="round" stroke-miterlimit="1" stroke-width="1" points="976.5,512 850.5,429 813.5,482" style="fill:#8c8c8c;stroke:#8c8c8c;"></polygon><polygon stroke-linejoin="round" stroke-miterlimit="1" stroke-width="1" points="955.5,-15 775.5,-15 946.5,-3" style="fill:#d5d5d5;stroke:#d5d5d5;"></polygon><polygon stroke-linejoin="round" stroke-miterlimit="1" stroke-width="1" points="968.5,107 954.5,38 790.5,107" style="fill:#c4c4c4;stroke:#c4c4c4;"></polygon><polygon stroke-linejoin="round" stroke-miterlimit="1" stroke-width="1" points="882.5,252 821.5,347 849.5,385" style="fill:#a2a2a2;stroke:#a2a2a2;"></polygon><polygon stroke-linejoin="round" stroke-miterlimit="1" stroke-width="1" points="954.5,38 946.5,-3 767.5,39" style="fill:#d0d0d0;stroke:#d0d0d0;"></polygon><polygon stroke-linejoin="round" stroke-miterlimit="1" stroke-width="1" points="954.5,38 767.5,39 790.5,107" style="fill:#d3d3d3;stroke:#d3d3d3;"></polygon><polygon stroke-linejoin="round" stroke-miterlimit="1" stroke-width="1" points="946.5,-3 775.5,-15 767.5,39" style="fill:#dedede;stroke:#dedede;"></polygon><polygon stroke-linejoin="round" stroke-miterlimit="1" stroke-width="1" points="882.5,252 677.5,154 821.5,347" style="fill:#b3b3b3;stroke:#b3b3b3;"></polygon><polygon stroke-linejoin="round" stroke-miterlimit="1" stroke-width="1" points="882.5,252 790.5,107 677.5,154" style="fill:#c4c4c4;stroke:#c4c4c4;"></polygon><polygon stroke-linejoin="round" stroke-miterlimit="1" stroke-width="1" points="787.5,712 767.5,557 781.5,712" style="fill:#7b7b7b;stroke:#7b7b7b;"></polygon><polygon stroke-linejoin="round" stroke-miterlimit="1" stroke-width="1" points="821.5,347 677.5,154 768.5,379" style="fill:#aeaeae;stroke:#aeaeae;"></polygon><polygon stroke-linejoin="round" stroke-miterlimit="1" stroke-width="1" points="852.5,419 768.5,379 850.5,429" style="fill:#989898;stroke:#989898;"></polygon><polygon stroke-linejoin="round" stroke-miterlimit="1" stroke-width="1" points="852.5,419 849.5,385 768.5,379" style="fill:#9a9a9a;stroke:#9a9a9a;"></polygon><polygon stroke-linejoin="round" stroke-miterlimit="1" stroke-width="1" points="850.5,429 768.5,379 813.5,482" style="fill:#959595;stroke:#959595;"></polygon><polygon stroke-linejoin="round" stroke-miterlimit="1" stroke-width="1" points="849.5,385 821.5,347 768.5,379" style="fill:#9e9e9e;stroke:#9e9e9e;"></polygon><polygon stroke-linejoin="round" stroke-miterlimit="1" stroke-width="1" points="768.5,379 677.5,154 602.5,307" style="fill:#b3b3b3;stroke:#b3b3b3;"></polygon><polygon stroke-linejoin="round" stroke-miterlimit="1" stroke-width="1" points="781.5,712 767.5,557 630.5,605" style="fill:#808080;stroke:#808080;"></polygon><polygon stroke-linejoin="round" stroke-miterlimit="1" stroke-width="1" points="813.5,482 768.5,379 724.5,523" style="fill:#929292;stroke:#929292;"></polygon><polygon stroke-linejoin="round" stroke-miterlimit="1" stroke-width="1" points="813.5,482 724.5,523 767.5,557" style="fill:#8b8b8b;stroke:#8b8b8b;"></polygon><polygon stroke-linejoin="round" stroke-miterlimit="1" stroke-width="1" points="781.5,712 630.5,605 641.5,712" style="fill:#7b7b7b;stroke:#7b7b7b;"></polygon><polygon stroke-linejoin="round" stroke-miterlimit="1" stroke-width="1" points="790.5,107 767.5,39 677.5,154" style="fill:#d7d7d7;stroke:#d7d7d7;"></polygon><polygon stroke-linejoin="round" stroke-miterlimit="1" stroke-width="1" points="767.5,39 639.5,78 677.5,154" style="fill:#dddddd;stroke:#dddddd;"></polygon><polygon stroke-linejoin="round" stroke-miterlimit="1" stroke-width="1" points="767.5,557 724.5,523 630.5,605" style="fill:#878787;stroke:#878787;"></polygon><polygon stroke-linejoin="round" stroke-miterlimit="1" stroke-width="1" points="768.5,379 558.5,431 724.5,523" style="fill:#979797;stroke:#979797;"></polygon><polygon stroke-linejoin="round" stroke-miterlimit="1" stroke-width="1" points="775.5,-15 641.5,-15 767.5,39" style="fill:#efefef;stroke:#efefef;"></polygon><polygon stroke-linejoin="round" stroke-miterlimit="1" stroke-width="1" points="641.5,712 630.5,605 614.5,656" style="fill:#7d7d7d;stroke:#7d7d7d;"></polygon><polygon stroke-linejoin="round" stroke-miterlimit="1" stroke-width="1" points="677.5,154 583.5,257 602.5,307" style="fill:#bdbdbd;stroke:#bdbdbd;"></polygon><polygon stroke-linejoin="round" stroke-miterlimit="1" stroke-width="1" points="768.5,379 602.5,307 558.5,431" style="fill:#a3a3a3;stroke:#a3a3a3;"></polygon><polygon stroke-linejoin="round" stroke-miterlimit="1" stroke-width="1" points="767.5,39 641.5,-15 639.5,78" style="fill:#ececec;stroke:#ececec;"></polygon><polygon stroke-linejoin="round" stroke-miterlimit="1" stroke-width="1" points="724.5,523 558.5,431 630.5,605" style="fill:#8d8d8d;stroke:#8d8d8d;"></polygon><polygon stroke-linejoin="round" stroke-miterlimit="1" stroke-width="1" points="641.5,-15 640.5,-15 639.5,78" style="fill:#f2f2f2;stroke:#f2f2f2;"></polygon><polygon stroke-linejoin="round" stroke-miterlimit="1" stroke-width="1" points="677.5,154 620.5,103 570.5,225" style="fill:#cfcfcf;stroke:#cfcfcf;"></polygon><polygon stroke-linejoin="round" stroke-miterlimit="1" stroke-width="1" points="677.5,154 570.5,225 583.5,257" style="fill:#c3c3c3;stroke:#c3c3c3;"></polygon><polygon stroke-linejoin="round" stroke-miterlimit="1" stroke-width="1" points="677.5,154 639.5,78 620.5,103" style="fill:#dadada;stroke:#dadada;"></polygon><polygon stroke-linejoin="round" stroke-miterlimit="1" stroke-width="1" points="630.5,605 558.5,431 499.5,577" style="fill:#8a8a8a;stroke:#8a8a8a;"></polygon><polygon stroke-linejoin="round" stroke-miterlimit="1" stroke-width="1" points="640.5,-15 471.5,-15 553.5,29" style="fill:#f5f5f5;stroke:#f5f5f5;"></polygon><polygon stroke-linejoin="round" stroke-miterlimit="1" stroke-width="1" points="640.5,-15 553.5,29 639.5,78" style="fill:#efefef;stroke:#efefef;"></polygon><polygon stroke-linejoin="round" stroke-miterlimit="1" stroke-width="1" points="641.5,712 614.5,656 557.5,712" style="fill:#7a7a7a;stroke:#7a7a7a;"></polygon><polygon stroke-linejoin="round" stroke-miterlimit="1" stroke-width="1" points="639.5,78 553.5,29 620.5,103" style="fill:#e5e5e5;stroke:#e5e5e5;"></polygon><polygon stroke-linejoin="round" stroke-miterlimit="1" stroke-width="1" points="558.5,431 473.5,495 499.5,577" style="fill:#8e8e8e;stroke:#8e8e8e;"></polygon><polygon stroke-linejoin="round" stroke-miterlimit="1" stroke-width="1" points="620.5,103 474.5,163 570.5,225" style="fill:#cdcdcd;stroke:#cdcdcd;"></polygon><polygon stroke-linejoin="round" stroke-miterlimit="1" stroke-width="1" points="630.5,605 524.5,627 614.5,656" style="fill:#808080;stroke:#808080;"></polygon><polygon stroke-linejoin="round" stroke-miterlimit="1" stroke-width="1" points="630.5,605 499.5,577 524.5,627" style="fill:#838383;stroke:#838383;"></polygon><polygon stroke-linejoin="round" stroke-miterlimit="1" stroke-width="1" points="620.5,103 553.5,29 474.5,163" style="fill:#dcdcdc;stroke:#dcdcdc;"></polygon><polygon stroke-linejoin="round" stroke-miterlimit="1" stroke-width="1" points="614.5,656 524.5,627 557.5,712" style="fill:#7c7c7c;stroke:#7c7c7c;"></polygon><polygon stroke-linejoin="round" stroke-miterlimit="1" stroke-width="1" points="564.5,267 544.5,256 558.5,431" style="fill:#acacac;stroke:#acacac;"></polygon><polygon stroke-linejoin="round" stroke-miterlimit="1" stroke-width="1" points="602.5,307 583.5,257 564.5,267" style="fill:#b4b4b4;stroke:#b4b4b4;"></polygon><polygon stroke-linejoin="round" stroke-miterlimit="1" stroke-width="1" points="602.5,307 564.5,267 558.5,431" style="fill:#a9a9a9;stroke:#a9a9a9;"></polygon><polygon stroke-linejoin="round" stroke-miterlimit="1" stroke-width="1" points="558.5,431 544.5,256 397.5,352" style="fill:#a5a5a5;stroke:#a5a5a5;"></polygon><polygon stroke-linejoin="round" stroke-miterlimit="1" stroke-width="1" points="570.5,225 544.5,256 564.5,267" style="fill:#bababa;stroke:#bababa;"></polygon><polygon stroke-linejoin="round" stroke-miterlimit="1" stroke-width="1" points="583.5,257 570.5,225 564.5,267" style="fill:#bababa;stroke:#bababa;"></polygon><polygon stroke-linejoin="round" stroke-miterlimit="1" stroke-width="1" points="557.5,712 524.5,627 493.5,712" style="fill:#7a7a7a;stroke:#7a7a7a;"></polygon><polygon stroke-linejoin="round" stroke-miterlimit="1" stroke-width="1" points="570.5,225 474.5,163 544.5,256" style="fill:#c0c0c0;stroke:#c0c0c0;"></polygon><polygon stroke-linejoin="round" stroke-miterlimit="1" stroke-width="1" points="553.5,29 471.5,-15 474.5,163" style="fill:#e2e2e2;stroke:#e2e2e2;"></polygon><polygon stroke-linejoin="round" stroke-miterlimit="1" stroke-width="1" points="544.5,256 403.5,258 397.5,352" style="fill:#adadad;stroke:#adadad;"></polygon><polygon stroke-linejoin="round" stroke-miterlimit="1" stroke-width="1" points="558.5,431 397.5,352 473.5,495" style="fill:#989898;stroke:#989898;"></polygon><polygon stroke-linejoin="round" stroke-miterlimit="1" stroke-width="1" points="544.5,256 474.5,163 403.5,258" style="fill:#bbbbbb;stroke:#bbbbbb;"></polygon><polygon stroke-linejoin="round" stroke-miterlimit="1" stroke-width="1" points="474.5,163 471.5,-15 333.5,70" style="fill:#d6d6d6;stroke:#d6d6d6;"></polygon><polygon stroke-linejoin="round" stroke-miterlimit="1" stroke-width="1" points="474.5,163 405.5,195 403.5,258" style="fill:#bbbbbb;stroke:#bbbbbb;"></polygon><polygon stroke-linejoin="round" stroke-miterlimit="1" stroke-width="1" points="524.5,627 499.5,577 447.5,712" style="fill:#7e7e7e;stroke:#7e7e7e;"></polygon><polygon stroke-linejoin="round" stroke-miterlimit="1" stroke-width="1" points="524.5,627 447.5,712 493.5,712" style="fill:#7a7a7a;stroke:#7a7a7a;"></polygon><polygon stroke-linejoin="round" stroke-miterlimit="1" stroke-width="1" points="447.5,712 385.5,526 305.5,656" style="fill:#7c7c7c;stroke:#7c7c7c;"></polygon><polygon stroke-linejoin="round" stroke-miterlimit="1" stroke-width="1" points="473.5,495 397.5,352 371.5,500" style="fill:#929292;stroke:#929292;"></polygon><polygon stroke-linejoin="round" stroke-miterlimit="1" stroke-width="1" points="499.5,577 473.5,495 385.5,526" style="fill:#898989;stroke:#898989;"></polygon><polygon stroke-linejoin="round" stroke-miterlimit="1" stroke-width="1" points="499.5,577 385.5,526 447.5,712" style="fill:#818181;stroke:#818181;"></polygon><polygon stroke-linejoin="round" stroke-miterlimit="1" stroke-width="1" points="474.5,163 333.5,70 405.5,195" style="fill:#c5c5c5;stroke:#c5c5c5;"></polygon><polygon stroke-linejoin="round" stroke-miterlimit="1" stroke-width="1" points="385.5,526 297.5,619 305.5,656" style="fill:#7e7e7e;stroke:#7e7e7e;"></polygon><polygon stroke-linejoin="round" stroke-miterlimit="1" stroke-width="1" points="405.5,195 333.5,70 320.5,134" style="fill:#c0c0c0;stroke:#c0c0c0;"></polygon><polygon stroke-linejoin="round" stroke-miterlimit="1" stroke-width="1" points="471.5,-15 325.5,-15 333.5,70" style="fill:#d9d9d9;stroke:#d9d9d9;"></polygon><polygon stroke-linejoin="round" stroke-miterlimit="1" stroke-width="1" points="473.5,495 371.5,500 385.5,526" style="fill:#8b8b8b;stroke:#8b8b8b;"></polygon><polygon stroke-linejoin="round" stroke-miterlimit="1" stroke-width="1" points="447.5,712 305.5,656 270.5,712" style="fill:#767676;stroke:#767676;"></polygon><polygon stroke-linejoin="round" stroke-miterlimit="1" stroke-width="1" points="325.5,-15 5.5,-13 103.5,39" style="fill:#aeaeae;stroke:#aeaeae;"></polygon><polygon stroke-linejoin="round" stroke-miterlimit="1" stroke-width="1" points="397.5,352 226.5,249 223.5,345" style="fill:#9c9c9c;stroke:#9c9c9c;"></polygon><polygon stroke-linejoin="round" stroke-miterlimit="1" stroke-width="1" points="397.5,352 318.5,489 371.5,500" style="fill:#909090;stroke:#909090;"></polygon><polygon stroke-linejoin="round" stroke-miterlimit="1" stroke-width="1" points="397.5,352 223.5,345 318.5,489" style="fill:#949494;stroke:#949494;"></polygon><polygon stroke-linejoin="round" stroke-miterlimit="1" stroke-width="1" points="403.5,258 226.5,249 397.5,352" style="fill:#a5a5a5;stroke:#a5a5a5;"></polygon><polygon stroke-linejoin="round" stroke-miterlimit="1" stroke-width="1" points="403.5,258 320.5,134 226.5,249" style="fill:#aeaeae;stroke:#aeaeae;"></polygon><polygon stroke-linejoin="round" stroke-miterlimit="1" stroke-width="1" points="405.5,195 320.5,134 403.5,258" style="fill:#b8b8b8;stroke:#b8b8b8;"></polygon><polygon stroke-linejoin="round" stroke-miterlimit="1" stroke-width="1" points="305.5,656 297.5,619 297.5,638" style="fill:#797979;stroke:#797979;"></polygon><polygon stroke-linejoin="round" stroke-miterlimit="1" stroke-width="1" points="385.5,526 371.5,500 318.5,489" style="fill:#898989;stroke:#898989;"></polygon><polygon stroke-linejoin="round" stroke-miterlimit="1" stroke-width="1" points="385.5,526 318.5,489 297.5,619" style="fill:#848484;stroke:#848484;"></polygon><polygon stroke-linejoin="round" stroke-miterlimit="1" stroke-width="1" points="318.5,489 282.5,617 297.5,619" style="fill:#7f7f7f;stroke:#7f7f7f;"></polygon><polygon stroke-linejoin="round" stroke-miterlimit="1" stroke-width="1" points="333.5,70 325.5,-15 264.5,65" style="fill:#c8c8c8;stroke:#c8c8c8;"></polygon><polygon stroke-linejoin="round" stroke-miterlimit="1" stroke-width="1" points="333.5,70 264.5,65 320.5,134" style="fill:#c0c0c0;stroke:#c0c0c0;"></polygon><polygon stroke-linejoin="round" stroke-miterlimit="1" stroke-width="1" points="318.5,489 143.5,504 282.5,617" style="fill:#818181;stroke:#818181;"></polygon><polygon stroke-linejoin="round" stroke-miterlimit="1" stroke-width="1" points="318.5,489 223.5,345 143.5,504" style="fill:#898989;stroke:#898989;"></polygon><polygon stroke-linejoin="round" stroke-miterlimit="1" stroke-width="1" points="325.5,-15 103.5,39 264.5,65" style="fill:#bbbbbb;stroke:#bbbbbb;"></polygon><polygon stroke-linejoin="round" stroke-miterlimit="1" stroke-width="1" points="320.5,134 264.5,65 226.5,249" style="fill:#b2b2b2;stroke:#b2b2b2;"></polygon><polygon stroke-linejoin="round" stroke-miterlimit="1" stroke-width="1" points="264.5,65 114.5,189 226.5,249" style="fill:#a6a6a6;stroke:#a6a6a6;"></polygon><polygon stroke-linejoin="round" stroke-miterlimit="1" stroke-width="1" points="305.5,656 297.5,638 270.5,712" style="fill:#767676;stroke:#767676;"></polygon><polygon stroke-linejoin="round" stroke-miterlimit="1" stroke-width="1" points="270.5,712 184.5,682 131.5,706" style="fill:#717171;stroke:#717171;"></polygon><polygon stroke-linejoin="round" stroke-miterlimit="1" stroke-width="1" points="282.5,617 184.5,682 270.5,712" style="fill:#757575;stroke:#757575;"></polygon><polygon stroke-linejoin="round" stroke-miterlimit="1" stroke-width="1" points="297.5,638 297.5,619 282.5,617" style="fill:#7a7a7a;stroke:#7a7a7a;"></polygon><polygon stroke-linejoin="round" stroke-miterlimit="1" stroke-width="1" points="297.5,638 282.5,617 270.5,712" style="fill:#777777;stroke:#777777;"></polygon><polygon stroke-linejoin="round" stroke-miterlimit="1" stroke-width="1" points="282.5,617 143.5,504 184.5,682" style="fill:#797979;stroke:#797979;"></polygon><polygon stroke-linejoin="round" stroke-miterlimit="1" stroke-width="1" points="264.5,65 103.5,39 114.5,189" style="fill:#a8a8a8;stroke:#a8a8a8;"></polygon><polygon stroke-linejoin="round" stroke-miterlimit="1" stroke-width="1" points="226.5,249 114.5,189 139.5,240" style="fill:#9b9b9b;stroke:#9b9b9b;"></polygon><polygon stroke-linejoin="round" stroke-miterlimit="1" stroke-width="1" points="223.5,345 139.5,240 111.5,274" style="fill:#949494;stroke:#949494;"></polygon><polygon stroke-linejoin="round" stroke-miterlimit="1" stroke-width="1" points="223.5,345 111.5,274 102.5,318" style="fill:#909090;stroke:#909090;"></polygon><polygon stroke-linejoin="round" stroke-miterlimit="1" stroke-width="1" points="223.5,345 102.5,318 143.5,504" style="fill:#898989;stroke:#898989;"></polygon><polygon stroke-linejoin="round" stroke-miterlimit="1" stroke-width="1" points="226.5,249 139.5,240 223.5,345" style="fill:#999999;stroke:#999999;"></polygon><polygon stroke-linejoin="round" stroke-miterlimit="1" stroke-width="1" points="143.5,504 102.5,318 52.5,342" style="fill:#858585;stroke:#858585;"></polygon><polygon stroke-linejoin="round" stroke-miterlimit="1" stroke-width="1" points="143.5,504 -9.5,517 131.5,706" style="fill:#757575;stroke:#757575;"></polygon><polygon stroke-linejoin="round" stroke-miterlimit="1" stroke-width="1" points="184.5,682 143.5,504 131.5,706" style="fill:#747474;stroke:#747474;"></polygon><polygon stroke-linejoin="round" stroke-miterlimit="1" stroke-width="1" points="114.5,189 103.5,39 -2.5,129" style="fill:#9a9a9a;stroke:#9a9a9a;"></polygon><polygon stroke-linejoin="round" stroke-miterlimit="1" stroke-width="1" points="131.5,706 -9.5,517 -9.5,703" style="fill:#6f6f6f;stroke:#6f6f6f;"></polygon><polygon stroke-linejoin="round" stroke-miterlimit="1" stroke-width="1" points="143.5,504 52.5,342 -9.5,396" style="fill:#808080;stroke:#808080;"></polygon><polygon stroke-linejoin="round" stroke-miterlimit="1" stroke-width="1" points="143.5,504 -9.5,396 -9.5,517" style="fill:#7a7a7a;stroke:#7a7a7a;"></polygon><polygon stroke-linejoin="round" stroke-miterlimit="1" stroke-width="1" points="139.5,240 114.5,189 105.5,271" style="fill:#959595;stroke:#959595;"></polygon><polygon stroke-linejoin="round" stroke-miterlimit="1" stroke-width="1" points="139.5,240 105.5,271 111.5,274" style="fill:#939393;stroke:#939393;"></polygon><polygon stroke-linejoin="round" stroke-miterlimit="1" stroke-width="1" points="131.5,706 -9.5,703 -9.5,712" style="fill:#6b6b6b;stroke:#6b6b6b;"></polygon><polygon stroke-linejoin="round" stroke-miterlimit="1" stroke-width="1" points="111.5,274 105.5,271 102.5,318" style="fill:#8f8f8f;stroke:#8f8f8f;"></polygon><polygon stroke-linejoin="round" stroke-miterlimit="1" stroke-width="1" points="114.5,189 -9.5,268 105.5,271" style="fill:#8f8f8f;stroke:#8f8f8f;"></polygon><polygon stroke-linejoin="round" stroke-miterlimit="1" stroke-width="1" points="114.5,189 -9.5,176 -9.5,268" style="fill:#8e8e8e;stroke:#8e8e8e;"></polygon><polygon stroke-linejoin="round" stroke-miterlimit="1" stroke-width="1" points="114.5,189 -2.5,129 -9.5,176" style="fill:#919191;stroke:#919191;"></polygon><polygon stroke-linejoin="round" stroke-miterlimit="1" stroke-width="1" points="103.5,39 5.5,-13 -2.5,129" style="fill:#999999;stroke:#999999;"></polygon><polygon stroke-linejoin="round" stroke-miterlimit="1" stroke-width="1" points="105.5,271 52.5,342 102.5,318" style="fill:#8b8b8b;stroke:#8b8b8b;"></polygon><polygon stroke-linejoin="round" stroke-miterlimit="1" stroke-width="1" points="105.5,271 -9.5,280 52.5,342" style="fill:#898989;stroke:#898989;"></polygon><polygon stroke-linejoin="round" stroke-miterlimit="1" stroke-width="1" points="105.5,271 -9.5,274 -9.5,280" style="fill:#898989;stroke:#898989;"></polygon><polygon stroke-linejoin="round" stroke-miterlimit="1" stroke-width="1" points="105.5,271 -9.5,268 -9.5,274" style="fill:#898989;stroke:#898989;"></polygon><polygon stroke-linejoin="round" stroke-miterlimit="1" stroke-width="1" points="5.5,-13 -9.5,-15 -2.5,129" style="fill:#959595;stroke:#959595;"></polygon><polygon stroke-linejoin="round" stroke-miterlimit="1" stroke-width="1" points="52.5,342 -9.5,349 -9.5,396" style="fill:#808080;stroke:#808080;"></polygon><polygon stroke-linejoin="round" stroke-miterlimit="1" stroke-width="1" points="52.5,342 -9.5,280 -9.5,349" style="fill:#838383;stroke:#838383;"></polygon><polygon stroke-linejoin="round" stroke-miterlimit="1" stroke-width="1" points="-2.5,129 -9.5,-15 -9.5,176" style="fill:#919191;stroke:#919191;"></polygon></svg>