<?xml version="1.0" encoding="utf-8"?>
<!-- Generator: Adobe Illustrator 16.0.0, SVG Export Plug-In . SVG Version: 6.00 Build 0)  -->
<!DOCTYPE svg PUBLIC "-//W3C//DTD SVG 1.1//EN" "http://www.w3.org/Graphics/SVG/1.1/DTD/svg11.dtd">
<svg version="1.1" id="Layer_2" xmlns="http://www.w3.org/2000/svg" xmlns:xlink="http://www.w3.org/1999/xlink" x="0px" y="0px"
	 width="554.075px" height="123.729px" viewBox="122.963 238.135 554.075 123.729"
	 enable-background="new 122.963 238.135 554.075 123.729" xml:space="preserve">
<g>
	<path fill="#EC1C24" d="M677.037,338.814c0,12.73-10.318,23.049-23.049,23.049H146.012c-12.73,0-23.049-10.317-23.049-23.049
		v-77.63c0-12.729,10.319-23.049,23.049-23.049h507.977c12.729,0,23.049,10.319,23.049,23.049L677.037,338.814L677.037,338.814z"/>
	<g>
		<path fill="#FFFFFF" d="M313.522,277.244c-0.713-1.319-1.986-2.08-3.496-2.08c-1.6,0-2.974,0.817-3.593,2.131L285.167,319.2
			l-0.029,0.058c-0.522,1.16-0.448,2.363,0.212,3.385c0.748,1.155,2.174,1.899,3.637,1.899c1.475,0,2.73-0.763,3.34-2.021
			l5.315-10.366h24.762l5.096,10.128c0.66,1.354,2.01,2.158,3.615,2.158c1.593,0,3.065-0.785,3.754-2.004
			c0.603-1.07,0.552-2.312-0.146-3.494L313.522,277.244z M318.812,304.896h-17.634l8.845-17.63L318.812,304.896z"/>
		<path fill="#FFFFFF" d="M405.555,275.596c-1.975,0-4.071,1.406-4.071,4.009v23.109c0,9.524-7.306,13.864-14.093,13.864
			c-6.785,0-14.088-4.34-14.088-13.864v-23.109c0-2.492-2.05-3.796-4.077-3.796c-2.334,0-4.026,1.566-4.026,3.725v23.181
			c0,14.294,11.165,21.77,22.191,21.77c11.031,0,22.196-7.476,22.196-21.77v-23.181
			C409.586,276.978,407.508,275.596,405.555,275.596z"/>
		<path fill="#FFFFFF" d="M481.24,276.292h-36.496c-2.529,0-3.894,1.979-3.894,3.84c0,1.862,1.363,3.841,3.894,3.841h14.231v36.852
			c0,2.606,2.031,4.014,3.949,4.014c2.006,0,4.086-1.502,4.086-4.014c0-6.345-0.018-12.741-0.039-19.136
			c-0.014-5.917-0.03-11.84-0.032-17.716h14.301c2.602,0,4.002-1.979,4.002-3.841C485.242,278.271,483.842,276.292,481.24,276.292z"
			/>
		<path fill="#FFFFFF" d="M551.527,275.518c-1.933,0-3.982,1.384-3.982,3.946v17.824h-23.111v-17.824c0-2.549-2.063-3.92-4.004-3.92
			c-1.932,0-3.885,1.343-3.885,3.92v41.076c0,1.178,0.467,2.235,1.316,2.981c0.745,0.656,1.721,1.019,2.739,1.019
			c1.906,0,3.832-1.374,3.832-4v-15.994h23.111v15.994c0,1.551,0.674,2.499,1.238,3.022c0.723,0.662,1.68,1.028,2.702,1.028l0,0
			c1.949,0,4.021-1.42,4.021-4.052v-41.076C555.506,276.901,553.457,275.518,551.527,275.518z"/>
		<path fill="#FFFFFF" d="M631.859,277.616c-0.672-1.229-2.058-2.024-3.527-2.024c-1.34,0-2.543,0.654-3.309,1.794l-14.976,20.271
			l-14.778-20.202c-0.785-1.152-2.019-1.812-3.384-1.812c-1.596,0-3.119,0.904-3.791,2.245c-0.612,1.229-0.444,2.626,0.461,3.834
			l17.541,23.226v15.31c0,2.368,1.65,4.02,4.015,4.02c1.946,0,4.02-1.408,4.02-4.02v-15.314l17.404-23.369l0.055-0.079
			C632.41,280.217,632.508,278.807,631.859,277.616z"/>
	</g>
	<g>
		<path fill="#FFFFFF" d="M199.993,286.443l16.56,16.561c2.394,2.393,6.273,2.391,8.667-0.002c2.395-2.396,2.397-6.275,0.003-8.668
			l-16.561-16.562c-11.85-11.851-31.001-12.044-43.104-0.6c-0.111,0.094-0.222,0.191-0.326,0.295
			c-0.051,0.052-0.099,0.105-0.148,0.158c-0.052,0.05-0.107,0.097-0.157,0.146c-0.106,0.106-0.2,0.215-0.294,0.325
			c-11.445,12.105-11.25,31.254,0.6,43.105l16.561,16.559c2.394,2.395,6.272,2.395,8.666,0c2.394-2.396,2.396-6.275,0.002-8.667
			l-16.56-16.562c-7.225-7.225-7.275-18.949-0.149-26.24C181.042,279.168,192.767,279.217,199.993,286.443z"/>
		<path fill="#FFFFFF" d="M221.366,264.389c-2.394,2.394-2.392,6.274,0.002,8.667l16.56,16.56c7.226,7.228,7.271,18.95,0.147,26.241
			c-7.29,7.123-19.013,7.076-26.239-0.149l-16.559-16.561c-2.394-2.393-6.277-2.393-8.671,0c-2.394,2.396-2.394,6.279,0,8.671
			l16.56,16.561c11.851,11.852,31.002,12.044,43.102,0.6c0.111-0.095,0.222-0.188,0.327-0.295c0.051-0.053,0.097-0.104,0.149-0.154
			c0.051-0.053,0.107-0.1,0.159-0.15c0.104-0.105,0.196-0.216,0.291-0.327c11.447-12.1,11.253-31.251-0.598-43.102l-16.558-16.56
			C227.644,261.995,223.759,261.995,221.366,264.389z"/>
	</g>
</g>
</svg>
