<?xml version="1.0" standalone="no"?>
<!DOCTYPE svg PUBLIC "-//W3C//DTD SVG 1.1//EN" "http://www.w3.org/Graphics/SVG/1.1/DTD/svg11.dtd" >
<svg xmlns="http://www.w3.org/2000/svg">
<metadata>
This is a custom SVG webfont generated by Font Squirrel.
Copyright   : Copyright c LeFly 2005 All rights reserved
Foundry     : LeFly
</metadata>
<defs>
<font id="webfont4P6345Om" horiz-adv-x="1466" >
<font-face units-per-em="2048" ascent="1638" descent="-410" />
<missing-glyph horiz-adv-x="1024" />
<glyph unicode=" "  horiz-adv-x="1024" />
<glyph unicode="&#x09;" horiz-adv-x="1024" />
<glyph unicode="&#xa0;" horiz-adv-x="1024" />
<glyph unicode="!" horiz-adv-x="632" d="M53 14q6 59 52.5 96t105.5 31l80 -10q59 -6 96 -52t31 -106q-6 -59 -52.5 -96t-105.5 -31l-82 11q-57 6 -95 52t-30 105zM141 371l154 1495q6 59 51 97t105 32q59 -6 97 -51.5t32 -104.5l-154 -1497q-6 -59 -51 -96t-105 -31q-59 4 -97 50.5t-32 105.5z" />
<glyph unicode="&#x22;" horiz-adv-x="985" d="M51 1386q0 35 15.5 65t44.5 50q16 12 32 29l33 33q-49 55 -31 129q16 57 66.5 86.5t110.5 13.5q53 -14 96 -47q41 -37 56 -82t11 -98q-10 -68 -49 -129q-29 -47 -73 -91.5t-84 -74.5q-39 -29 -84 -29q-72 0 -115 62q-29 38 -29 83zM524 1356q-4 35 6.5 66.5t38.5 54.5 q16 14 30 32l28 37q-27 23 -39.5 55.5t-7.5 69.5q4 29 19 52.5t36.5 40t49.5 24.5t58 4q57 -8 101 -37q47 -31 66.5 -74t23.5 -96q-2 -33 -10.5 -66.5t-24.5 -66.5q-23 -49 -60.5 -99t-74.5 -85q-37 -33 -80 -39q-35 -4 -66.5 8t-54.5 39q-35 35 -39 80z" />
<glyph unicode="#" horiz-adv-x="1628" d="M53 606q-2 59 39 101.5t101 46.5l169 4l35 338l-125 -4q-59 -2 -102 38.5t-45 100.5q-2 59 39 102t100 45l164 4l51 490q6 59 52.5 96t105.5 31t96 -51t31 -105l-47 -452l260 8l51 491q6 59 52 96t106 31q59 -6 96 -51t31 -104l-47 -455l164 6q59 4 102 -37t43 -100 q2 -31 -8.5 -57.5t-29.5 -46t-45 -32t-56 -14.5l-201 -6l-35 -338l158 6q59 2 102 -38.5t45 -100.5q2 -59 -39 -102t-100 -45l-197 -6l-53 -516q-6 -59 -52 -97.5t-106 -32.5q-59 6 -96 52.5t-31 105.5l50 479l-263 -8l-53 -510q-6 -59 -51 -96t-104 -31t-97.5 52.5 t-29.5 105.5l49 471l-131 -4q-59 -2 -102.5 39t-45.5 100zM649 766l262 8l35 338l-260 -8z" />
<glyph unicode="$" horiz-adv-x="1679" d="M53 330q0 41 21.5 75.5t60.5 53.5q31 12 60 12q41 0 76.5 -20.5t54.5 -59.5q39 -82 126 -144.5t191 -86.5l80 657q-104 33 -201.5 72t-171.5 92t-118 128t-44 181q0 53 13 115q29 141 88 243.5t145 170t194.5 103.5t235.5 48l10 76q8 59 54.5 96t105.5 29q59 -6 96 -53 t29 -107l-6 -43q125 -16 232.5 -66.5t173.5 -150.5q35 -53 51 -111.5t16 -117.5q0 -90 -33 -170q-23 -55 -77 -79t-109 -1t-77.5 77t-2.5 107q14 35 14 70q0 39 -19 66.5t-51 47t-72 30.5t-81 16l-80 -666q98 -33 185.5 -73t154 -94t105.5 -127t39 -175q0 -70 -23 -160 q-33 -127 -92 -219t-138 -154.5t-174.5 -98.5t-197.5 -48l-10 -84q-6 -59 -53.5 -96t-106.5 -29t-96 54t-29 106l6 53q-88 16 -171 54t-153.5 90.5t-127 116t-88.5 132.5q-15 29 -15 62zM479 1348q-8 -43 10.5 -79t57.5 -64.5t94 -52.5t119 -44l69 573q-70 -10 -126 -31.5 t-100 -60.5t-75 -97t-49 -144zM932 162q102 25 179 94.5t112 206.5q12 49 -0.5 88t-43 71.5t-76.5 58.5t-102 46z" />
<glyph unicode="%" horiz-adv-x="1660" d="M51 -16q0 41 21 73q35 35 102 131l157 233l192 299l210 329l208 323l186 283q85 125 146.5 204.5t88.5 92.5q43 45 104 45q57 0 99 -39q23 -20 34 -47t11 -56q0 -27 -9.5 -52t-29.5 -46l-1258 -1851q-20 -33 -52 -50.5t-66 -17.5q-39 0 -78 23q-33 23 -49.5 55.5 t-16.5 67.5zM51 1526q0 31 5 67.5t22 67.5q23 59 59 100q23 23 49 31q6 10 14.5 19.5t18.5 19.5q35 33 78 47t86 14q70 0 128 -32.5t99 -85.5q35 -47 55.5 -106.5t20.5 -123.5q0 -70 -25.5 -127t-68.5 -100q-43 -41 -100.5 -64.5t-118.5 -23.5q-49 0 -102.5 15.5 t-100.5 47.5q-53 37 -86 95.5t-33 138.5zM350 1520q12 -4 23 -4q8 0 20 8q6 6 6 20v10q-22 -22 -49 -34zM952 391q0 31 5.5 68t21.5 67q23 59 59 101q23 23 49 30q6 10 14.5 19.5t18.5 19.5q35 33 78 47.5t86 14.5q70 0 128 -33t99 -86q35 -47 55.5 -106.5t20.5 -122.5 q0 -70 -25.5 -127.5t-68.5 -100.5q-43 -41 -100.5 -64.5t-118.5 -23.5q-49 0 -102.5 15.5t-100.5 48.5q-53 37 -86 95t-33 138zM1251 385q12 -4 23 -4q8 0 20 8q6 6 6 21v10q-22 -23 -49 -35z" />
<glyph unicode="&#x26;" horiz-adv-x="1650" d="M53 350q0 55 6 113q10 80 43 150.5t83.5 133t113.5 119t133 107.5q-80 135 -128 254t-40 207q6 68 26.5 141.5t55.5 132.5q86 152 225.5 220.5t292.5 68.5q106 0 200.5 -39t160.5 -117q109 -127 108 -321q0 -106 -40 -193.5t-109.5 -161t-162.5 -141.5t-202 -135 l147 -190l152 -181q47 66 85 129l67 113q33 57 57 108q20 39 54 59.5t75 20.5q35 0 64 -14q39 -18 59 -52t20 -75q0 -33 -16 -66l-19 -38q-19 -38 -55 -99l-86.5 -140t-113.5 -163q76 -86 123 -135t47 -51q41 -45 41 -99q0 -29 -11.5 -55.5t-33.5 -46.5q-45 -41 -101 -41 q-61 0 -102 45l-43 45l-48 53l-63 70q-104 -104 -223 -172t-246 -68q-133 0 -242.5 28t-188.5 88.5t-122 156.5t-43 231zM338 346q0 -70 20.5 -113t59.5 -64.5t97 -28.5t134 -7q72 0 144.5 45t142.5 115l-173 213l-173 229q-98 -74 -167 -149.5t-79 -155.5q-6 -45 -6 -84z M551 1411q-4 -51 25.5 -124t82.5 -161l140 94q68 46 121 89t86.5 85t37.5 79q6 47 -4 101t-34 83q-23 29 -61 41t-81 12q-80 0 -153.5 -34t-114.5 -107q-23 -37 -32 -74t-13 -84z" />
<glyph unicode="'" horiz-adv-x="538" d="M51 1386q0 35 15.5 65t44.5 50q16 12 32 29l33 33q-49 55 -31 129q16 57 66.5 86.5t110.5 13.5q53 -14 96 -47q41 -37 56 -82t11 -98q-10 -68 -49 -129q-29 -47 -73 -91.5t-84 -74.5q-39 -29 -84 -29q-72 0 -115 62q-29 38 -29 83z" />
<glyph unicode="(" horiz-adv-x="921" d="M51 776q0 94 12 193q23 180 73 336.5t112.5 285.5t130 229.5t123 170t91.5 105.5l36 36q41 37 96 37q63 0 106 -45q37 -39 37 -96q0 -61 -45 -105l-29 -31q-30 -31 -77 -89t-103.5 -143t-108.5 -194.5t-95 -241.5t-62 -288q-4 -41 -7 -81t-3 -79q0 -127 21.5 -238.5 t54 -203.5t71.5 -164t72 -121t55 -76l23 -26q37 -43 37 -99q0 -61 -45 -104q-43 -37 -99 -37q-61 0 -104 45l-28 33q-28 33 -69.5 94.5t-90 150.5t-89.5 202.5t-68.5 250.5t-27.5 293z" />
<glyph unicode=")" horiz-adv-x="907" d="M51 -170q0 53 35 94q115 139 213 305q41 72 83 155t78 175t63.5 192.5t39.5 206.5q4 35 6 68t2 66q0 121 -22.5 229.5t-55 202.5t-71.5 169.5t-73 129t-56 83.5l-23 29q-33 43 -32 90q0 31 13 60t40 51q39 33 90 33q31 0 59.5 -13.5t51.5 -39.5l27 -35q28 -35 68 -99.5 t87 -156.5t88 -206t67.5 -247t26.5 -280q0 -41 -3 -82t-7 -84q-18 -164 -66.5 -315.5t-109 -283.5t-125 -241t-118.5 -185.5t-90 -119.5l-36 -43q-45 -51 -108 -51q-51 0 -93 34q-49 43 -49 109z" />
<glyph unicode="*" horiz-adv-x="972" d="M51 1370q0 37 18.5 70t53.5 53l123 74l-121 92q-29 23 -42 52.5t-13 62.5q0 45 28 86q23 29 52.5 42t62.5 13q47 0 86 -29l92 -71l12 92q8 59 54.5 95t105.5 28t95 -54.5t28 -105.5l-6 -47l16 10q33 20 72 20q37 0 69.5 -18t53.5 -53q20 -33 20 -74q0 -37 -17 -68.5 t-52 -52.5l-84 -51l106 -80q29 -23 42.5 -52.5t13.5 -62.5q0 -45 -29 -86q-43 -55 -113 -55q-51 0 -88 29l-82 61l-12 -92q-8 -59 -54 -95t-106 -28q-59 8 -95 54.5t-28 105.5l4 39l-49 -29q-33 -18 -73 -18q-37 0 -70 17.5t-53 51.5q-21 33 -21 74z" />
<glyph unicode="+" horiz-adv-x="1380" d="M53 612q-2 59 40 101.5t102 44.5h366l49 436q6 59 52.5 97t105.5 30q59 -6 96 -52t31 -106l-47 -405h334q59 2 101 -40t44 -102q0 -59 -41 -101t-100 -44h-369l-49 -436q-6 -59 -52 -96t-106 -31q-59 6 -96 52t-31 106l45 405h-331q-59 -2 -102.5 40t-41.5 101z" />
<glyph unicode="," horiz-adv-x="538" d="M51 -272q0 35 15.5 64.5t44.5 49.5q16 12 32 29l33 33q-49 55 -31 129q16 57 66.5 87t110.5 13q53 -14 96 -47q41 -37 56 -82t11 -98q-10 -68 -49 -129q-29 -47 -73 -91t-84 -75q-39 -29 -84 -29q-72 0 -115 62q-29 39 -29 84z" />
<glyph unicode="-" horiz-adv-x="1212" d="M53 612q-2 59 40 101.5t102 44.5l821 4q59 2 101 -40t44 -101q0 -59 -41 -101.5t-100 -44.5l-823 -4q-59 -2 -102.5 40t-41.5 101z" />
<glyph unicode="." horiz-adv-x="450" d="M53 33q8 59 54.5 94t105.5 27l63 -9q29 -4 53.5 -19t41 -36.5t23.5 -49.5t3 -58q-8 -59 -54 -94t-105 -27l-64 8q-29 4 -53.5 19.5t-41 37t-23.5 49t-3 58.5z" />
<glyph unicode="/" horiz-adv-x="1660" d="M55 -16q0 41 21 73q35 35 102 131l157 233l192 299l210 329l208 323l187 283q85 125 146 204.5t88 92.5q43 45 104 45q57 0 99 -39q23 -20 34 -47t11 -56q0 -27 -9.5 -52t-29.5 -46l-1258 -1851q-20 -33 -52 -50.5t-66 -17.5q-39 0 -78 23q-33 23 -49.5 55.5t-16.5 67.5z " />
<glyph unicode="0" horiz-adv-x="1644" d="M51 778q0 170 43 334t115 315q16 35 43 54.5t61 25.5q8 45 25.5 90t40.5 80q45 80 106.5 135.5t133 90t151.5 50t160 15.5q160 0 291 -83t219 -224q74 -123 112.5 -276.5t38.5 -315.5q0 -41 -3 -83t-7 -83q-25 -229 -113 -428q-57 -131 -139 -240.5t-178 -188.5 t-204.5 -123t-223.5 -44q-160 0 -292 82t-222 223q-74 119 -116 269.5t-42 324.5zM338 778q0 -131 29.5 -242.5t83.5 -197.5q53 -80 119.5 -126t152.5 -46q70 0 138.5 30.5t132 87t117.5 135.5t95 173q35 80 57.5 166t34.5 176q4 31 6.5 62.5t2.5 66.5q0 123 -28 241.5 t-81 202.5q-49 80 -116.5 127t-151.5 47q-92 0 -174 -33.5t-129 -113.5q-23 -41 -32 -80t-15 -90q-4 -57 -46 -95t-100 -36q-47 -106 -71.5 -222t-24.5 -233z" />
<glyph unicode="1" horiz-adv-x="999" d="M51 53q0 59 42 101.5t102 42.5h170l174 1300l-193 -129q-37 -25 -80 -25q-35 0 -65.5 16.5t-53.5 47.5q-25 37 -24 80q0 35 16.5 66.5t46.5 52.5l459 305q16 12 35.5 17t38.5 5q31 0 58.5 -12t49 -34.5t32.5 -51.5t7 -63l-215 -1575h154q59 0 101 -42t42 -102 q0 -59 -42 -101t-101 -42h-610q-59 0 -101.5 42t-42.5 101z" />
<glyph unicode="2" d="M55 26.5q-8 36.5 4 73.5q25 72 69 135.5t103.5 127t133.5 129.5l157 139l127 110l139 129q70 68 132.5 135.5t105.5 129.5q51 76 76.5 140t25.5 136q0 100 -57 168q-29 37 -79 57.5t-154 20.5q-205 -6 -310 -80q-41 -29 -62.5 -74t-21.5 -96q2 -59 -38.5 -105.5 t-100.5 -48.5q-59 -2 -102 39t-45 101q4 150 56 251t151 168q172 121 462 132q178 0 288 -48.5t177 -134.5q59 -72 91 -161t32 -189q0 -117 -40 -222.5t-113 -213.5q-51 -74 -117 -148.5t-138.5 -145.5t-149.5 -138l-148 -129l-112 -98l-97 -87q104 6 200 7 q113 0 209.5 -5.5t167.5 -11.5q84 -8 156 -16q59 -6 95 -53.5t30 -106.5q-8 -59 -54.5 -95t-105.5 -28l-39 4l-104.5 10.5t-155.5 10.5t-192 4q-117 0 -242 -7.5t-248 -29.5q-39 -6 -73.5 8t-57.5 42t-31 64.5z" />
<glyph unicode="3" horiz-adv-x="1411" d="M53 334q0 35 15.5 64.5t46.5 52.5q37 25 80 24q35 0 65.5 -15.5t52.5 -45.5q47 -66 109 -119q53 -45 123.5 -81t156.5 -34q125 4 210 54.5t126 136.5q16 41 25.5 78.5t9.5 85.5q0 43 -20.5 81.5t-53 71.5t-73.5 58.5t-80 44.5q-51 -14 -113 -15q-16 0 -30.5 1t-30.5 3 q-80 8 -164 56q-35 20 -51.5 53t-16.5 67q0 47 27 88t78 54q33 10 64.5 13t64.5 3q86 0 166 -20q35 18 70.5 49t66.5 66.5t53.5 75.5t26.5 79q8 55 -6.5 114.5t-49.5 104.5q-39 51 -104.5 74.5t-138.5 19.5q-104 -4 -171 -24.5t-108 -42.5q-47 -27 -71 -60q-20 -35 -53 -52 t-70 -17t-72 18q-35 20 -53.5 53t-18.5 70q0 41 21 74q47 72 127 129q68 49 179.5 92t274.5 47q147 6 277.5 -50t208.5 -157q57 -76 87 -165t30 -181q0 -41 -7 -84q-14 -104 -73.5 -200.5t-139.5 -172.5q102 -78 168 -187.5t66 -240.5q-4 -70 -18.5 -140.5t-43.5 -133.5 q-74 -162 -223 -257t-366 -101q-72 -2 -136.5 12t-123 39.5t-108.5 58.5t-91 66q-98 80 -172 182q-25 37 -25 82z" />
<glyph unicode="4" horiz-adv-x="1421" d="M53 778q4 31 41 97.5t93 153.5l127 188l143 201l141 195l124 165l87 115l33 44q23 29 52.5 42.5t61.5 13.5q47 0 86 -29q57 -45 58 -115q0 -49 -31 -86l-29 -36l-75 -95l-107 -136l-123 -159l-124 -162l-108 -149q-48 -68 -79 -116t-35 -64q-2 -8 24.5 -16.5t74 -15.5 t108.5 -11t131 -4q45 0 90 2t90 6l49 526q6 59 51.5 97t104.5 34q59 -6 97 -51t32 -104l-41 -439q4 2 10 2h2q59 6 105.5 -32.5t50.5 -98.5q4 -59 -34 -104t-97 -51q-4 0 -63 -6l-50 -553q-4 -59 -50 -96t-105 -33q-59 6 -96 51t-33 104l47 514h-99q-129 0 -264 8.5 t-243.5 31t-173 63t-54.5 108.5z" />
<glyph unicode="5" horiz-adv-x="1476" d="M51 293q0 39 20.5 72.5t55.5 52.5q35 18 70 18q37 0 70.5 -19.5t51.5 -54.5l19 -28q18 -29 53 -61.5t87 -60.5t120 -28q84 0 166 24.5t148.5 73t110.5 119t52 164.5q2 20 3 40t1 42q0 70 -12 138.5t-45 109.5q-37 45 -89 66.5t-112 21.5q-74 0 -150.5 -24.5t-138.5 -53.5 q-72 -35 -141 -78q-18 -12 -37.5 -17t-38.5 -5q-31 0 -60.5 13t-50 36t-30.5 53.5t-4 65.5l12 58l30 150l40 203l43 224q-41 12 -68.5 47t-31.5 82q-2 31 8 57.5t28.5 47t44 32.5t56.5 14h22q16 51 64.5 78t101.5 16q35 -8 60.5 -29.5t40.5 -51.5l651 30q59 4 104 -36 t47 -99t-37.5 -103t-99.5 -46l-698 -35l-41 -207l-39 -201q72 27 152.5 46.5t160.5 19.5q125 0 236.5 -49.5t189.5 -147.5q59 -76 90 -187.5t31 -230.5q0 -35 -3 -67.5t-7 -65.5q-23 -147 -96.5 -263t-178 -195.5t-231.5 -122.5t-254 -43q-133 0 -232.5 51t-164.5 112 q-78 72 -131 162q-19 35 -19 70z" />
<glyph unicode="6" horiz-adv-x="1419" d="M51 545q0 305 128 585.5t356 538.5q80 90 163.5 169t180.5 157q39 33 90 33q31 0 59.5 -13.5t50.5 -40.5q33 -43 33 -90q0 -31 -13.5 -59.5t-39.5 -50.5q-86 -68 -163 -143t-148 -152q-82 -94 -149 -189.5t-116 -193.5q72 57 159 96t192 39q139 0 248.5 -67.5 t177.5 -178.5q53 -86 80.5 -187.5t27.5 -201.5q0 -150 -44 -282t-130 -231t-212 -156.5t-292 -57.5q-152 0 -270.5 50t-200.5 140.5t-125 214.5t-43 271zM338 545q0 -180 84 -284.5t268 -104.5q104 0 178 33.5t121 93t69.5 139.5t22.5 174q0 63 -16 124.5t-47 113.5 q-33 51 -79 80.5t-105 29.5q-76 0 -140.5 -45t-113.5 -100q-57 -66 -105 -148q-23 -39 -59.5 -58.5t-77.5 -14.5v-33z" />
<glyph unicode="7" horiz-adv-x="1472" d="M53 1714q-2 59 38 102.5t99 47.5l69 8q69 8 176.5 17t239.5 16.5t261 7.5q102 0 194.5 -6t160 -23.5t102 -45.5t24.5 -71q-12 -51 -52 -141t-95 -198l-120 -223l-126 -220h37q59 -2 100 -45t39 -102t-45 -100.5t-102 -39.5l-203 7l-193 -299l-169 -253l-119 -177l-45 -66 q-23 -31 -53.5 -46.5t-65.5 -15.5q-43 0 -80 25q-31 23 -46.5 52.5t-15.5 64.5q0 45 25 82l36 52l95 140l137 205l162 246l-74 2q-59 2 -100 45t-39 102q0 29 12.5 54.5t33 45t46 30t56.5 10.5l245 -9l128 202l99 158q42 71 69.5 127t39.5 105q6 29 -45 40t-137 11 q-61 0 -133 -4t-143.5 -11t-139 -15.5l-119.5 -15.5l-83 -11l-31 -4q-59 -2 -102.5 38t-47.5 99z" />
<glyph unicode="8" horiz-adv-x="1445" d="M51 399q0 45 7.5 91.5t19.5 93.5q33 117 106.5 232.5t190.5 215.5q-18 16 -34 34l-32 36q-129 162 -110 371q10 96 43.5 191t111.5 173q76 76 196 123t302 47q90 0 171 -24.5t148.5 -70.5t118.5 -111.5t78 -149.5q25 -76 25 -162q0 -84 -25 -174q-31 -104 -101.5 -209 t-187.5 -207q49 -45 91 -97t71 -108.5t42 -119t7 -130.5q-8 -98 -44 -198.5t-116 -186.5q-80 -82 -205.5 -134t-314.5 -52q-94 0 -181 23.5t-157.5 70.5t-122 117t-75.5 160q-23 77 -23 155zM338 399q0 -39 10 -80q23 -86 96.5 -122.5t165.5 -36.5q123 0 198 27.5t116 70.5 q41 41 58 97.5t22 113.5q0 61 -29 114.5t-77 99.5t-111.5 87t-133.5 78q-14 6 -26.5 13t-24.5 13q-12 -33 -41 -61q-84 -72 -134 -149.5t-73 -155.5q-16 -62 -16 -109zM483 1448q-4 -49 9.5 -90t42.5 -78q72 -90 247 -176q16 -10 31.5 -17.5t32.5 -17.5q14 20 31 35 q92 76 143 149.5t74 143.5q14 43 14 90q0 43 -12 76q-25 78 -92.5 117.5t-151.5 39.5q-117 0 -186.5 -23.5t-108.5 -62.5q-35 -37 -52.5 -85t-21.5 -101z" />
<glyph unicode="9" horiz-adv-x="1427" d="M51 1151q0 123 31 238.5t87 214t134 174t172 120.5q78 39 167 58.5t175 19.5q59 0 120.5 -12t119 -33.5t109 -52.5t89.5 -68q53 -49 87 -108.5t34 -118.5q0 -16 -3 -30l-7 -29q-4 -23 -23 -47q25 -35 19 -74l-11 -77q-11 -77 -41 -206t-81 -298t-132 -353t-195 -370.5 t-267 -352.5q-43 -45 -105 -45q-55 0 -98 37q-45 43 -45 106q0 57 39 97q141 154 245.5 326.5t176.5 346.5q-47 -29 -100.5 -46t-110.5 -17q-131 0 -253 51t-206 156q-59 74 -93 172t-34 221zM338 1151q0 -72 17.5 -124t45.5 -89q41 -53 104.5 -76.5t131.5 -23.5 q59 0 115.5 46t105.5 115.5t91 151.5t72 151.5t47 116.5l17 47q8 23 17 31q0 49 -26.5 85t-68.5 59.5t-92.5 36t-97.5 12.5q-53 0 -111.5 -12.5t-105.5 -37.5q-61 -31 -109.5 -81t-82 -114.5t-52 -139t-18.5 -154.5z" />
<glyph unicode=":" horiz-adv-x="544" d="M53 33q8 59 54.5 94t105.5 27l63 -9q29 -4 53.5 -19t41 -36.5t23.5 -49.5t3 -58q-8 -59 -54 -94t-105 -27l-64 8q-29 4 -53.5 19.5t-41 37t-23.5 49t-3 58.5zM147 954q8 59 54.5 94t105.5 27l64 -8q29 -4 53.5 -19.5t40.5 -37t23.5 -49t3.5 -58.5q-8 -59 -54.5 -94 t-105.5 -27l-64 9q-57 10 -93 57t-28 106z" />
<glyph unicode=";" horiz-adv-x="643" d="M51 -272q0 35 15.5 64.5t44.5 49.5q16 12 32 29l33 33q-49 55 -31 129q16 57 66.5 87t110.5 13q53 -14 96 -47q41 -37 56 -82t11 -98q-10 -68 -49 -129q-29 -47 -73 -91t-84 -75q-39 -29 -84 -29q-72 0 -115 62q-29 39 -29 84zM246 954q8 59 54 94t106 27l63 -8 q29 -4 53.5 -19.5t41 -37t23.5 -49t3 -58.5q-8 -59 -54.5 -94t-105.5 -27l-63 9q-57 10 -93 57t-28 106z" />
<glyph unicode="&#x3c;" horiz-adv-x="1712" d="M53 627q-2 47 58.5 103t160 116.5t226.5 123t260 120.5l261 107l228 88l162 60l61 21q55 18 108.5 -7.5t74.5 -82.5q18 -55 -7.5 -108.5t-82.5 -73.5l-52 -19l-133 -48l-186 -69l-213 -80l-212 -83l-185 -75q-82 -34 -131.5 -57.5t-49.5 -31.5q0 -6 46.5 -23.5t122 -43 l171.5 -55.5l198 -60l199 -60l173 -50l123 -35l47 -13q57 -16 86.5 -67.5t13.5 -108.5t-66.5 -87t-107.5 -16l-58 17l-154 45l-217 67q-122 39 -248 85t-248 96.5t-217 102.5t-153.5 103.5t-58.5 98.5z" />
<glyph unicode="=" horiz-adv-x="1212" d="M53 465q-2 59 40 101t102 44l821 4q59 2 101 -40t44 -101q0 -59 -41 -101t-100 -44l-823 -4q-59 -2 -102.5 40t-41.5 101zM53 860q-2 59 40 101.5t102 44.5l821 4q59 2 101 -40t44 -102q0 -59 -41 -101t-100 -44l-823 -4q-59 -2 -102.5 40t-41.5 101z" />
<glyph unicode="&#x3e;" horiz-adv-x="1714" d="M61 119q-20 55 5.5 108.5t83.5 71.5l51 18l135 50l190 69l217 81l216 82l189 74q83 34 134 57.5t51 31.5q0 6 -47 24.5t-125 43.5l-176 56l-202 60l-201 60l-176 50l-126 35l-49 13q-57 16 -86.5 67.5t-13.5 108.5t66.5 87t107.5 13l59 -16l153 -44l217 -67t248 -85 t248 -96t217 -102t153.5 -103.5t60.5 -98.5q0 -47 -60.5 -103.5t-160 -117t-226.5 -121.5l-260 -119.5t-261 -108.5l-228 -88l-162 -60l-61 -21q-55 -18 -109 7.5t-72 82.5z" />
<glyph unicode="?" horiz-adv-x="1284" d="M51 1434q0 94 32 187t91 171q70 88 182.5 144.5t274.5 56.5q158 0 292 -62.5t212 -181.5q51 -80 74.5 -175t23.5 -200q0 -160 -50 -283.5t-133 -226t-190.5 -186.5t-222.5 -164q29 -29 36 -70t-9 -82q-23 -55 -77.5 -77.5t-109.5 0.5q-96 41 -139 90t-43 108q0 23 5 45.5 t15 46.5q29 66 94.5 121.5t151.5 116.5q86 59 156.5 116.5t121 122t79 143.5t28.5 179q0 66 -11 121t-40 98q-41 61 -111.5 87t-152.5 26q-86 0 -143.5 -26.5t-90.5 -67.5q-59 -78 -59 -178q0 -70 14 -80q27 -23 40.5 -52.5t13.5 -62.5q0 -47 -31 -88q-43 -53 -113 -53 q-49 0 -90 30q-57 47 -89 128.5t-32 177.5zM272 20q6 59 52.5 96.5t105.5 30.5l82 -10q59 -6 96 -52t29 -105q-2 -29 -16.5 -53.5t-36 -42t-48 -26t-57.5 -3.5l-80 8q-59 6 -96 52t-31 105z" />
<glyph unicode="@" horiz-adv-x="1810" d="M51 627q0 186 74 349t201 284.5t297 192.5t364 71q158 0 298 -54.5t244.5 -148.5t166 -222t61.5 -276q0 -43 -5 -87t-17 -91q-35 -139 -87.5 -248.5t-125.5 -185.5q41 -18 62.5 -53t21.5 -76q0 -53 -35 -94l-47 -43q-47 -43 -142.5 -94.5t-243 -94.5t-350.5 -43 q-119 0 -220 39t-183 105.5t-144.5 156.5t-104.5 191.5t-63.5 210.5t-21.5 211zM338 621q2 -96 28.5 -206t82 -202t140.5 -152.5t204 -60.5q139 0 239.5 21.5t167.5 50.5q-55 4 -91 26.5t-58 63.5q-49 -47 -105.5 -73t-120.5 -26q-106 0 -192 44.5t-146.5 118t-92.5 168.5 t-32 200q0 119 36 217t95.5 173t137.5 124t162 72t172 22q35 0 70.5 -5t66.5 -15q45 -16 78.5 -39t56.5 -49q35 4 70.5 -5.5t63.5 -29t43.5 -49t6.5 -64.5l-12 -52q-12 -52 -37.5 -133t-63.5 -180.5t-89 -193.5q-2 -6 -4.5 -11l-4.5 -9q-2 -6 -2 -9q53 0 92 31t70 82 t52.5 114.5t35.5 131.5q12 59 12 112q0 96 -38.5 172t-104 128.5t-154 80t-186.5 27.5q-133 0 -252 -46t-208 -128t-140 -194.5t-49 -247.5zM643 590q0 -45 10.5 -87t33 -76t57 -55.5t81.5 -21.5q35 0 68 30t62.5 77t55 109.5t44.5 125.5q6 20 10 40l8 38q-29 23 -41 58.5 t-8 72.5q-6 6 -19.5 9t-28.5 4t-29.5 0t-22.5 -1q-47 -6 -90 -21t-80 -44t-63.5 -73t-39.5 -107q-8 -33 -8 -78z" />
<glyph unicode="A" d="M59 -53l22 62l59 167l89 244l113 293q-51 12 -83 54q-28 37 -28 83v12q4 59 51 99q42 35 92 35q5 0 11 -1l70 -6l159.5 362.5t160.5 314.5t150.5 222t129.5 84q43 0 76.5 -43t60.5 -116.5t46 -175t33.5 -218t24 -244.5t13.5 -255q49 -14 79 -57q26 -37 26 -82 q0 -6 -1 -13q-4 -45 -29.5 -78t-66.5 -47q2 -68 2 -131v-123q0 -154 -2 -250t-2 -98q-2 -59 -45 -100q-41 -39 -97 -39h-6q-57 2 -99 45t-40 102l1 49q1 49 4 132t6 191.5t5 231.5l-419 35l-111 -310l-94 -265l-65 -186l-23 -70q-20 -57 -74 -83q-31 -15 -63 -15 q-23 0 -45 8q-57 18 -83 71q-15 31 -15 63q-1 23 7 46zM729 969l324 -27q0 25 1 49.5t1 46.5q0 125 -6.5 228.5t-13.5 178.5t-15 116t-12 41q-16 0 -42 -45.5t-61 -128t-79 -199.5z" />
<glyph unicode="B" horiz-adv-x="1536" d="M55 113q10 39 36 65.5t61 36.5l137 1364q-16 -4 -32 -4q-38 0 -73 21q-49 30 -65 87q-5 19 -5 37q0 37 20 71q30 50 87 67l140 33q75 17 155 30.5t162 22t162 8.5q41 0 78.5 -3t74.5 -7q102 -12 188.5 -44t150 -88.5t99 -138.5t35.5 -196q0 -29 -3 -61t-7 -66 q-18 -115 -58 -199t-98 -143q82 -57 132.5 -146.5t50.5 -226.5q0 -29 -2 -57.5t-6 -59.5q-33 -199 -147 -334t-298 -209q-104 -41 -222 -61.5t-245 -20.5q-57 0 -114.5 4.5t-116.5 12.5q-92 12 -170 33q-57 14 -89 63q-22 34 -22 73q0 18 4 36zM434 184q68 -6 133 -6 q201 0 355 62q100 41 169.5 109.5t92.5 168.5q12 43 12 82q0 96 -63.5 151.5t-157.5 71.5q-66 -16 -128.5 -22t-119.5 -6q-86 0 -146.5 8t-80.5 12l-28 -262l-18 -176l-12 -109l-6 -57q-2 -18 -2 -23v-4zM528 1104q41 6 113 14t162 8q35 0 72.5 -2t76.5 -6q80 31 141.5 94.5 t80.5 180.5q5 30 4 55q0 31 -7 57q-12 47 -42.5 79t-74.5 50.5t-98 24.5q-49 6 -104 6q-66 0 -134.5 -7t-135.5 -18z" />
<glyph unicode="C" horiz-adv-x="1673" d="M51 754q0 66 6 136.5t17 147.5q25 164 77 298t126.5 239.5t168 183.5t199.5 127q86 39 182 62q88 21 175 20h16q19 1 38 1q107 0 194 -20q103 -24 182 -71q86 -49 135 -131t53 -180v-12q0 -132 -90 -279q-20 -35 -53 -52.5t-70 -17.5q-41 0 -74 21q-35 20 -52 54t-17 71 q0 39 20 73q20 35 34.5 68t14.5 61q0 47 -51 78q-78 49 -232 50q-12 0 -24 -1q-72 0 -133.5 -12t-126.5 -43q-152 -70 -262.5 -225.5t-147.5 -403.5q-10 -68 -15 -129t-5 -118q0 -119 20.5 -212.5t59.5 -164.5q96 -176 299 -207q41 -6 86 -6q117 0 253 40t285 119 q31 16 68 17q39 0 72.5 -19.5t54.5 -54.5q16 -33 16 -67q0 -39 -19.5 -73t-55.5 -54q-182 -96 -352.5 -145.5t-323.5 -49.5q-33 0 -65 3t-62 7q-166 25 -297 114t-211 241q-53 102 -83 230t-30 286z" />
<glyph unicode="D" horiz-adv-x="1773" d="M53 94q10 59 58 94q36 27 80 27q13 0 26 -2q16 -4 23 -4l153 1362l-12 -6q-29 -14 -62 -15q-41 0 -75.5 21.5t-53.5 60.5q-6 16 -10 30.5t-4 31.5q0 41 21.5 75.5t60.5 53.5q147 70 289.5 103.5t277.5 33.5q55 0 111 -6q182 -14 327.5 -91t248 -200t156.5 -279.5 t54 -330.5q0 -53 -6 -109q-23 -211 -70 -371.5t-115.5 -278.5t-157.5 -199t-197 -130q-104 -47 -220 -67.5t-245 -20.5q-125 0 -260.5 15.5t-278.5 37.5q-59 10 -94 58q-27 36 -27 80q0 13 2 26zM524 172q47 -4 93.5 -6t91.5 -2q100 0 187 13t161 48t134 93.5t108.5 149.5 t81 216t51.5 291q4 23 4 43v45q0 119 -36 225.5t-103.5 187t-166 133t-223.5 62.5q-18 2 -36.5 3t-39.5 1q-37 0 -73.5 -3t-77.5 -11q10 -25 6 -55z" />
<glyph unicode="E" horiz-adv-x="1693" d="M53 987v11q0 53 37 93q41 44 100 48h17l53 246l51 221l-45 -2q-5 0 -10 -1q-53 0 -92 37q-43 41 -47 101q0 5 -1 10q0 53 38 92q41 43 100 47l129 6l8 29q14 59 65 89q34 20 72 20q18 0 37 -4q43 -12 71 -45t34 -74l819 43h11q53 0 93 -37q45 -41 47 -100q0 -5 1 -11 q0 -53 -37 -92q-41 -43 -101 -47l-895 -47l-51 -215l-57 -250l630 37h11q53 0 94 -36q45 -40 47 -99q2 -31 -8 -57.5t-28.5 -47t-44 -33t-54.5 -14.5l-711 -41q-35 -174 -58.5 -324.5t-23.5 -236.5q0 -41 6 -63q12 -29 67.5 -43.5t141.5 -18.5h30q61 0 129 6q85 8 173 25.5 t176 43.5t168 58q28 11 55.5 11.5t54.5 -11.5q54 -23 77 -78q11 -27 11 -53.5t-11 -54.5q-23 -55 -78 -78q-92 -39 -195.5 -69.5t-208 -51t-206.5 -29.5q-70 -6 -133 -7q-28 0 -54 1q-168 8 -291 66.5t-170 173.5l-4 12q-2 6 -4 11v4q-6 20 -8 47.5t-2 62.5q0 104 20.5 260 t53.5 332q-41 14 -68 47t-31 80z" />
<glyph unicode="F" horiz-adv-x="1646" d="M53 70l103 833q-41 16 -67 50q-28 37 -28 85q0 54 35 94q37 42 92 48l52 422h-13q-3 0 -5 -1q-56 0 -97 39q-45 43 -45 106q0 56 39 97q41 43 98 45l59 2l3 25q6 59 52 96q38 30 84 30q10 0 21 -1q55 -6 91 -46t36 -93l883 32q29 2 55.5 -8t47 -29.5t32.5 -45.5 q13 -26 13 -64q0 -25 -9 -47q-10 -27 -29.5 -46.5t-45 -31.5t-54.5 -14l-926 -35l-53 -422l539 18h5q56 0 97 -39q45 -43 45 -106q0 -56 -39 -96q-41 -43 -100 -45l-582 -21l-104 -866q-8 -59 -54 -95q-39 -31 -89 -31q-8 0 -17 1q-59 8 -95 54q-31 39 -31 89q0 8 1 17z" />
<glyph unicode="G" horiz-adv-x="2097" d="M53 635q0 96 10.5 200.5t30.5 225.5q27 150 68 265.5t97 208.5t127 168t155 140q74 53 150.5 88t148 55.5t137 28.5t119.5 8q109 0 219 -18t205 -76q94 -55 151.5 -148t57.5 -239q0 -43 -7 -92q-8 -59 -54 -96q-38 -30 -84 -30q-10 0 -21 1q-59 8 -97 54q-30 38 -30 85 q0 10 2 21q4 29 3 53q0 47 -13 78q-19 47 -56 70q-53 31 -127 41t-149 10q-76 0 -181.5 -25.5t-209.5 -101.5q-61 -49 -112.5 -104.5t-92.5 -126t-72 -161t-51 -206.5q-20 -111 -29.5 -206t-9.5 -177q0 -221 72 -340q105 -174 428 -175q11 0 22 1q70 0 127 15t113 50 q61 37 103 88t69.5 104.5t41 103.5t15.5 85q0 16 5 32.5t14 31.5l6 30q-123 0 -262 7q-59 2 -101 45q-39 41 -39 96q0 61 47 106q41 39 97 39h6q139 -6 262 -6q117 0 213 4t166 8l145 11h12q52 0 94 -33q46 -37 50 -96q1 -8 1 -17q0 -49 -32 -88q-37 -45 -96 -51 q-2 0 -75 -6t-195 -12l-26 -136l-34 -177l-39 -209l-43 -230q-10 -59 -58 -92q-37 -25 -80 -25q-14 0 -28 2q-47 8 -79.5 43t-36.5 82q-82 -45 -170 -68.5t-187 -23.5h-26q-239 0 -403 72q-173 76 -273 241q-111 191 -111 494z" />
<glyph unicode="H" horiz-adv-x="1591" d="M53 -8l84 790q-33 18 -53 51q-23 35 -23 79q0 45 27 81q29 39 76 54l86 819q6 59 52 96q39 32 89 32q8 0 17 -1q59 -6 96 -53q32 -39 31 -88v-17l-82 -774l716 22l84 799q6 59 53 97q40 33 89 33q8 0 16 -1q59 -6 96 -52q32 -39 32 -89q0 -8 -1 -17l-84 -794 q53 -41 57 -109q0 -45 -22.5 -80.5t-58.5 -54.5l-89 -844q-6 -59 -52 -96q-39 -32 -89 -32q-8 0 -16 1q-59 6 -97 52q-32 39 -31 87q0 8 1 17l82 795l-717 -23l-84 -809q-6 -59 -52 -96q-39 -32 -89 -32q-8 0 -17 1q-59 4 -96 50q-32 39 -32 89q0 9 1 17z" />
<glyph unicode="I" horiz-adv-x="1384" d="M53 41v11q0 53 37 91q41 43 100 45l259 9l174 1437l-246 -2h-6q-56 0 -97 40q-43 42 -43 102q0 59 42 101t102 42l350 4q35 15 71 15q5 0 9 -1q27 -4 43 -12l342 4q59 0 101 -41t42 -100t-41 -102.5t-100 -43.5l-279 -4l-176 -1429l215 8q31 2 57.5 -8t46 -29.5t32 -45.5 t12.5 -54v-11q0 -53 -37 -93q-41 -44 -100 -46l-299 -10q-39 -34 -92 -34q-8 0 -17 1q-41 6 -70 27l-284 -10h-6q-56 0 -97 39q-43 41 -45 100z" />
<glyph unicode="J" horiz-adv-x="1673" d="M53 209q0 41 21.5 75.5t58.5 53.5q29 14 64 14q41 0 75.5 -20.5t53.5 -59.5q39 -78 97 -122t126 -58q35 -8 80 -8q35 0 71 6q78 12 152 47q74 37 126 89.5t64 111.5q14 61 27.5 158.5t26.5 214.5l24 245l24 254l20.5 238t15.5 197h-365q-59 0 -101 42t-42 101t42 100 t101 41h434q20 14 44 23q19 7 41 6h12q41 -2 75 -29h58q59 0 101 -41t42 -100t-42 -101t-101 -42h-13l-15 -197l-20 -244l-24 -264q-12 -135 -26.5 -259t-29 -228.5t-28.5 -171.5q-29 -129 -122 -232.5t-224 -167.5q-106 -55 -234 -74q-29 -4 -55 -7t-55 -3q-66 0 -141 17 q-129 27 -241 106.5t-183 226.5q-15 29 -15 62z" />
<glyph unicode="K" horiz-adv-x="1634" d="M51 385q0 141 16.5 301t42 317.5t54.5 302t54.5 255l42.5 178.5l18 67q14 57 65 88q33 20 69 20q19 0 40 -5q57 -16 88 -67q20 -33 20 -68q0 -19 -6 -39l-11 -48l-30 -128l-42 -186q-24 -105 -47 -222l-47 -238q-24 -121 -41.5 -231.5t-28.5 -202.5t-11 -153q0 -43 6 -68 t21 -25q33 0 93 70t135 182.5t160 257.5l169 297l161 297l137 259l94 184q36 70 36 71q18 37 53 58.5t76 21.5q33 0 61 -14q39 -18 60.5 -53t21.5 -76q0 -33 -14 -62q0 -2 -38 -77l-103 -200l-150 -283l-184 -326q0 -4 2 -4l321 -717q12 -31 12 -60q0 -41 -21.5 -76.5 t-62.5 -54.5q-27 -12 -57 -12q-41 0 -76.5 21.5t-54.5 62.5l-246 545q-86 -131 -173 -249t-169 -207t-157.5 -140t-137.5 -51q-61 0 -104 36.5t-68.5 102t-37 155t-11.5 193.5z" />
<glyph unicode="L" horiz-adv-x="1388" d="M51 373q0 143 16.5 306t41 324.5t54.5 310.5l54 263l41 183l16 69q16 57 67 88q33 20 68 20q19 0 40 -6q59 -14 89 -64q20 -34 20 -71q0 -18 -5 -37l-9 -48l-23 -128l-32 -185l-37 -224l-38 -242q-18 -123 -31.5 -238.5t-23 -215t-9.5 -169.5q0 -57 6 -90t23 -37 q59 -10 121.5 -15t124.5 -5q104 0 201.5 10t172 23.5t119.5 24.5l45 11q16 3 32 4q40 0 76 -23q50 -32 62 -89q3 -17 4 -32q0 -41 -23 -77q-32 -49 -89 -63l-61 -12q-60 -12 -157.5 -26.5t-222.5 -27t-256 -12.5q-78 0 -153.5 5t-147.5 20h-2q-49 8 -81.5 48t-53 102.5 t-30 145.5t-9.5 179z" />
<glyph unicode="M" horiz-adv-x="1933" d="M55 100l289 1680q-4 20 -4 24v11q-1 9 -1 17q0 49 31 89q36 47 95 53l20 2q20 0 38 -6q28 -8 49.5 -25.5t36 -42t16.5 -53.5q6 -25 9 -43t-1 -37q8 -68 24.5 -177t39 -236t49 -255t57.5 -230.5t63 -167.5q32 -63 64 -62h2h2q23 0 64.5 54.5t93 142.5t109.5 199l116 229 l109 228l93 200l63 142l24 54q16 37 49 53.5t69 16.5q31 0 59.5 -9t51.5 -27.5t36 -44.5q10 -20 10 -43q0 -7 -1 -15l-151 -1819q-4 -59 -51 -98q-40 -34 -89 -34q-8 0 -16 1q-31 2 -55.5 15.5t-42 35t-26.5 48t-7 55.5l88 1060q-72 -133 -149.5 -263t-154.5 -232.5 t-147.5 -167t-130.5 -68.5h-11q-70 0 -130 48q-66 52 -121 143.5t-101 210t-83 248.5l-164 -953q-10 -59 -58 -93q-37 -26 -81 -26q-13 0 -27 2q-59 10 -93 59q-26 37 -26 80q0 13 2 27z" />
<glyph unicode="N" horiz-adv-x="1646" d="M53 57l187 1581q-4 10 -8 23l-7 29q-4 18 -4 35q0 23 7 44q13 39 44 64q20 41 60 62q30 17 65 17q10 0 21 -1q59 -6 96 -52q30 -38 30 -85q0 -10 -1 -21l-13 -94q25 -88 68 -224l95 -290l109 -308q56 -155 109.5 -279t98.5 -201.5t73 -77.5q23 0 45.5 66.5t42 174 t38 245.5t32.5 282.5l26.5 282.5t20.5 248l14 176l5 67q2 59 46 100q40 37 92 37h11q59 -4 99 -48t38 -104l-5 -83q-5 -83 -16 -217t-28.5 -305t-44 -350t-61.5 -350t-79 -305.5t-100.5 -216t-123.5 -81.5q-82 0 -170 91t-177.5 241.5t-175.5 346t-161 404.5l-113 -958 q-8 -59 -54 -96q-39 -31 -89 -30q-8 0 -17 1q-59 8 -96 54q-30 38 -30 84q0 10 1 21z" />
<glyph unicode="O" horiz-adv-x="1867" d="M53 762q4 184 60.5 373.5t165.5 363.5q37 55 102 66q49 109 112.5 186.5t147.5 128.5t191.5 75.5t246.5 24.5q16 0 30.5 -1t31.5 -1q190 -10 332.5 -100t226.5 -246q66 -121 93 -266q23 -119 23 -248q0 -29 -1 -57q-6 -123 -29 -251t-63 -250t-96 -231.5t-132 -195.5 q-125 -139 -305 -217q-163 -70 -387 -70h-47q-109 2 -204 36t-175 92.5t-141.5 139.5t-102.5 181q-45 104 -64 222q-16 97 -16 201q-1 22 0 44zM340 754q-1 -22 -1 -44q0 -75 11 -143q14 -88 47 -164q49 -123 140.5 -194.5t226.5 -75.5q20 -1 39 -1q159 0 270 46 q125 51 207 144q55 61 100 150t77 189.5t50.5 206t20.5 203.5q1 22 1 44q0 98 -16 188q-18 109 -65 194q-47 88 -129 141.5t-189 53.5q-117 0 -204.5 -13.5t-150 -51.5t-99.5 -102.5t-53 -166.5q-8 -59 -56 -95q-37 -28 -80 -28q-13 0 -26 2q-57 -119 -87 -241.5t-34 -241.5 z" />
<glyph unicode="P" horiz-adv-x="1622" d="M53 1776q-1 8 -1 16q0 49 32 89q37 46 96 52q129 16 258 25.5t254 9.5q117 0 223.5 -10t200.5 -35q102 -27 185 -69t142.5 -105t92.5 -147t33 -193q0 -76 -15 -154q-29 -154 -85 -265t-129.5 -188t-158.5 -123t-172 -71.5t-169 -34t-150 -8.5q-41 0 -75.5 2t-57.5 4 q-12 4 -25 4q-12 0 -22 5l-64 -570q-8 -59 -53 -96q-37 -30 -83 -30q-10 0 -21 1q-59 6 -98 53q-31 38 -31 84q0 10 2 21l178 1604q0 4 1 8t1 8q-33 -4 -64.5 -7t-64.5 -7q-8 -1 -17 -1q-49 0 -88 31q-47 38 -55 97zM541 860l37 -2q16 -2 41.5 -3t56.5 -1q72 0 163 14.5 t179 61.5t158.5 136t97.5 241q4 20 6 38.5t2 36.5q0 111 -65.5 173.5t-172.5 91.5q-78 20 -168 27t-188 7h-74q11 -25 12 -52q0 -8 -1 -15z" />
<glyph unicode="Q" horiz-adv-x="1933" d="M53 696q4 158 48 330t126 350q14 31 40 51.5t57 28.5q16 102 59 188.5t119 157.5q92 86 242.5 137.5t326.5 51.5h33q18 0 37 -2q92 0 176 -26t156.5 -72t130 -109.5t98.5 -136.5q59 -111 87 -241t28 -274q0 -16 -1 -29.5t-1 -29.5q-2 -102 -20.5 -210.5t-48.5 -213 t-70 -203t-89 -178.5l223 -133q35 -20 52.5 -53t17.5 -70q0 -41 -20 -73q-20 -35 -53 -52.5t-70 -17.5q-41 0 -74 20l-268 162q-119 -98 -276 -148q-140 -45 -319 -45q-22 0 -44 1q-205 8 -366 104t-249 277q-47 98 -69 214q-19 98 -19 205q-1 19 0 39zM340 688 q-1 -17 -1 -34q0 -172 58 -292q53 -111 148.5 -161.5t218.5 -55.5q20 -1 39 0q87 0 160 15q88 18 159 53l-202 123q-35 20 -52.5 53t-17.5 70q0 41 20 73q20 35 53 51.5t68 16.5q18 0 39 -5t37 -15l274 -166q41 63 74 144t57.5 169t39 179t16.5 177q1 22 1 45q0 98 -16 187 q-18 109 -63 192q-47 86 -130 141.5t-190 55.5q-164 0 -272 -31t-162 -80q-47 -47 -70.5 -111.5t-27.5 -144.5v-43q0 -33 -12.5 -61.5t-34 -48t-50 -29.5t-61.5 -6q-94 -248 -100 -461z" />
<glyph unicode="R" horiz-adv-x="1689" d="M53 1710q-2 14 -2 27q0 44 26 81q34 48 93 58q180 33 349 52.5t323 19.5q195 0 344 -37q104 -25 187 -69t141.5 -107.5t90 -148.5t31.5 -193q0 -33 -2 -67t-8 -69q-33 -193 -140.5 -333t-266.5 -211q-33 -14 -65 -25.5t-67 -19.5l207 -288q104 -146 238 -284 q41 -41 41 -100q0 -57 -43 -100q-41 -41 -100 -41q-57 0 -101 43q-88 90 -164 185l-145 190l-137 190q-68 94 -142 182q-53 2 -104 13.5t-98 41.5l-76 -665q-8 -59 -54 -96q-39 -32 -89 -32q-8 0 -17 1q-57 8 -95 54q-31 38 -31 85q0 10 1 21l178 1548v2q-35 -4 -68 -10 l-69 -13q-14 -2 -28 -2q-43 0 -79 25q-49 33 -59 92zM569 969q55 35 115 35q45 0 89 -20.5t91 -57.5q61 0 122 11t116 38q98 43 158.5 125t82.5 198q6 37 7 70q0 113 -62.5 175.5t-169.5 88.5q-123 31 -284 31q-47 0 -97.5 -3t-103.5 -7q9 -22 9 -49q0 -9 -1 -19z" />
<glyph unicode="S" horiz-adv-x="1679" d="M53 330q0 41 21.5 75.5t60.5 53.5q31 12 60 12q41 0 76.5 -20.5t54.5 -59.5q23 -49 64.5 -91t95 -73.5t113.5 -52t122 -24.5q16 -2 31 -3h30q76 0 145.5 14.5t127 51.5t100.5 97.5t68 152.5q7 26 7 49q0 39 -20 71q-31 50 -91 88t-143 66.5t-171 55.5l-227.5 75.5 t-197.5 94t-139.5 133.5t-52.5 194q0 53 13 115q35 168 110.5 279.5t186 177t251.5 92.5q122 23 259 23q21 0 43 -1q154 -2 291 -53t217 -172q35 -53 51 -111.5t16 -117.5q0 -90 -33 -170q-23 -55 -76 -79q-28 -12 -56 -12q-27 0 -54 11q-55 23 -78 77q-12 28 -12 56 q0 26 10 51q14 35 14 70q0 47 -28.5 78.5t-71.5 51t-95 28t-102 8.5h-35q-96 0 -174 -10q-93 -11 -164 -47t-119 -104.5t-73 -182.5q-3 -15 -3 -30q0 -37 23 -67q32 -41 91 -73.5t138 -59l161 -51.5q119 -37 232.5 -77t202.5 -97t143.5 -139t54.5 -203q0 -70 -23 -160 q-39 -156 -117.5 -259t-184 -164.5t-230.5 -86.5q-100 -20 -204 -19q-26 0 -52 1q-100 4 -199.5 37.5t-185.5 89t-154 127t-104 151.5q-15 29 -15 62z" />
<glyph unicode="T" horiz-adv-x="1753" d="M51 1716q0 59 42 101.5t102 44.5l1361 8q59 0 101.5 -42t42.5 -107q0 -56 -40 -96q-42 -42 -101 -42l-576 -4l-170 -1587q-6 -59 -52 -96q-39 -32 -89 -32q-8 0 -17 1q-59 6 -96 51q-32 39 -31 88v16l170 1557l-501 -4q-59 0 -101.5 42t-44.5 101z" />
<glyph unicode="U" horiz-adv-x="1759" d="M53 551q0 141 17.5 291.5t43 295t56.5 272.5t57.5 225.5t43.5 154.5l18 57q18 57 70 85q31 17 65 17q22 0 45 -7q57 -18 84 -71q16 -31 16 -64q0 -23 -8 -46l-16 -59l-42 -159q-26 -99 -55.5 -227t-55 -264.5t-42 -272.5t-16.5 -253q0 -74 8 -136t26.5 -107t49.5 -72 t76 -27h11q136 0 248 45q116 47 207 130t158.5 194t115.5 234.5t77.5 253.5t44.5 251l65 531q6 49 46 72.5t89 23.5q29 0 56.5 -7t49 -22.5t34 -38t10.5 -51.5l-215 -1759q-8 -59 -54 -96q-38 -30 -85 -30q-10 0 -21 1q-59 8 -96 54q-30 38 -30 85q0 10 1 21l25 200 q-68 -84 -150 -154.5t-178 -120.5t-209 -78q-105 -26 -225 -26q-9 0 -18 1q-115 2 -191 54t-122 140t-65.5 207t-19.5 252z" />
<glyph unicode="V" horiz-adv-x="1546" d="M51 1769q0 59 41 102.5t101 43.5h5q56 0 97 -40q43 -42 43 -101l3 -69q3 -69 10 -178.5t17.5 -250.5t22.5 -287.5t26.5 -288t32 -251t36 -177t38.5 -67.5q43 0 96.5 72.5t109.5 191.5t113.5 270.5t110.5 310.5l101 310l82 270l55 193l20 73q14 59 65 90q34 20 72 20 q18 0 37 -5q57 -14 89 -65q21 -34 21 -72q0 -18 -5 -37q0 -2 -22.5 -87t-63.5 -224.5t-98.5 -317.5t-128 -363.5t-153.5 -363.5t-172 -316.5t-185.5 -223.5t-194.5 -85q-74 0 -131 83t-100 217.5t-75 307.5t-52.5 353t-33.5 352t-19.5 308.5t-8.5 219.5z" />
<glyph unicode="W" horiz-adv-x="2248" d="M51 1253q0 147 2 281.5t2 239.5q0 59 42 101t102 42q59 0 101 -42t42 -101v-254q0 -150 2 -313t6 -323.5t11.5 -288.5t17.5 -208t24 -82q27 0 75 69.5t106.5 181.5t122 249t118.5 272l28 69l24 64q0 16 -1.5 31.5t-1.5 32.5q0 23 1.5 40t3.5 34q8 96 50 148t120 52 q131 0 155 -131q4 -18 3 -48t-6 -62.5t-14 -67.5t-20 -65q4 -55 10.5 -120t16.5 -126q16 -100 37.5 -211t45 -201t44 -149.5t33.5 -59.5q18 0 37 44l47 108q53 111 107 249l107 284q52 146 97 292l80 269.5t56.5 220t23.5 143.5q4 59 49 98q41 35 93 35h11q59 -4 99 -48 q35 -40 35 -92q0 -6 -1 -12q-4 -59 -31.5 -188t-72.5 -295t-105.5 -354.5t-130 -368.5t-144.5 -336.5t-150 -259.5q-47 -68 -101.5 -104.5t-113.5 -36.5q-63 0 -123 60.5t-110 159.5t-91 228t-70 265q-72 -139 -152.5 -273.5t-160.5 -239t-154 -167.5q-69 -60 -125 -60h-8 q-68 4 -116 62.5t-81.5 157t-54 227.5t-31 275.5t-14.5 301t-4 301.5z" />
<glyph unicode="X" horiz-adv-x="1662" d="M53 -16q0 41 21 73l47 75l126 197l181 280l213 329l-136 253l-125 233l-104 197l-73 142q-16 33 -17 66q0 39 20.5 72.5t57.5 54.5q29 14 64 14q41 0 75.5 -20.5t53.5 -57.5l63 -122l86 -161l103 -191l112 -210l162 238l151 212l129 173q58 76 101 121t104 45 q57 0 99 -39q23 -20 34 -47t11 -56q0 -27 -9.5 -52t-29.5 -46q-45 -47 -111 -132l-143 -195l-166 -241l-178 -265l174 -321l148 -273l105 -191l40 -71q16 -31 16 -68q0 -39 -19.5 -72.5t-54.5 -52.5q-33 -18 -69 -18q-39 0 -73 20.5t-52 54.5l-33 59l-86 157l-125 230 l-149 275l-186 -284l-152 -238l-105 -164l-39 -61q-20 -33 -52 -50.5t-66 -17.5q-39 0 -78 23q-33 23 -49.5 55.5t-16.5 67.5z" />
<glyph unicode="Y" horiz-adv-x="1589" d="M51 1311q0 92 14.5 185t41 178t63.5 159t80 127q23 27 51.5 40t58.5 13q51 0 91 -33q27 -23 40 -51t13 -59q0 -51 -33 -90q-29 -37 -53.5 -88.5t-42 -112.5t-27.5 -130t-10 -138q0 -76 14.5 -150t48 -131t91 -92t145.5 -35q170 12 286.5 86t188.5 189.5t104.5 260 t32.5 296.5v43q0 23 -2 45v11q0 52 34 93q38 45 97 49q6 0 12 1q52 0 94 -34q46 -38 50 -98q2 -23 2 -45v-43q0 -190 -42 -375.5t-133 -340t-232.5 -264t-340.5 -150.5l-108 -662q-10 -59 -57 -94q-36 -27 -81 -27q-13 0 -26 2q-59 10 -94 58q-27 36 -27 80q0 13 2 26 l103 621q-119 23 -205 91.5t-139.5 162.5t-79 204.5t-25.5 221.5z" />
<glyph unicode="Z" horiz-adv-x="1615" d="M53 152q8 72 64.5 178t142.5 233t194 266l220 275l221 260l197 223l-768 -12q-59 0 -102.5 41t-43.5 106q0 56 40 97q42 43 99 45l1104 16q31 0 57.5 -12.5t46 -32.5t30 -47t10.5 -55q0 -53 -37 -95l-51 -55l-135 -146l-188 -210l-216 -247l-216 -256l-188 -238 q-83 -110 -133.5 -191.5t-50.5 -118.5q0 -10 21.5 -17t56.5 -12.5t79 -7.5t89 -2h53q27 0 49 2q86 4 169 13.5t155 25t125 34.5t78 42q45 41 98 41q59 0 104 -45q41 -45 41 -98q0 -59 -45 -105q-43 -41 -120.5 -74.5t-174 -59.5t-204 -41t-213.5 -19q-23 -2 -52 -3h-57 q-88 0 -189.5 10.5t-185.5 43.5t-135 91q-41 47 -41 120q0 18 2 37z" />
<glyph unicode="[" horiz-adv-x="917" d="M53 -129q16 223 28.5 435t22.5 425q16 311 35 623.5t54 642.5q2 25 15 47t33.5 40.5t45 30t49.5 11.5h387q59 0 101 -42t42 -102q0 -59 -42 -101t-101 -42h-258q-29 -281 -44 -559l-30 -563l-19 -358q-9 -177 -22 -353l271 2q59 2 101 -40t42 -101t-41 -101t-100 -45 l-424 -4q-31 0 -57.5 13.5t-47 35t-32 49t-9.5 56.5z" />
<glyph unicode="\" horiz-adv-x="1660" d="M53 1855q0 29 11.5 55.5t33.5 47.5q41 39 99 39q61 0 104 -45q27 -12 88.5 -92t146.5 -205l186 -283l208 -323l210 -329l192 -299l158 -233q69 -96 101 -131q20 -33 21 -73q0 -35 -16.5 -68t-49.5 -55q-39 -23 -78 -23q-35 0 -66.5 17.5t-51.5 50.5l-1258 1851 q-20 20 -29.5 45.5t-9.5 52.5z" />
<glyph unicode="]" horiz-adv-x="917" d="M51 -139q0 59 42 101t102 42h258q29 281 44 559l29 561l20 358q9 177 19 353l-268 -2q-59 -2 -101 40t-42 101t41 102.5t100 43.5l426 4q29 0 56.5 -12.5t47 -34t30.5 -50t9 -57.5q-16 -223 -28.5 -435t-22.5 -423q-16 -313 -34.5 -625.5t-53.5 -642.5q-2 -25 -15.5 -47 t-34 -39.5t-44 -29t-47.5 -11.5h-389q-59 0 -101.5 42.5t-42.5 101.5z" />
<glyph unicode="^" horiz-adv-x="999" d="M53 1421q0 33 13.5 62.5t42.5 52.5l156 119l102 76l71 55q33 27 86 26q29 0 56.5 -9t46.5 -27l24 -25l64 -61l86 -81l96 -87q51 -45 51 -107q0 -53 -37 -96q-43 -49 -106 -49q-53 0 -94 35l-104 94l-91 86q-41 -29 -98 -73l-137 -103q-41 -29 -86 -29q-70 0 -115 57 q-14 18 -20.5 39.5t-6.5 44.5z" />
<glyph unicode="_" horiz-adv-x="1525" d="M51 -139q0 59 42 101t102 42l1134 -4q61 0 103.5 -42t40.5 -101q2 -59 -40 -101.5t-102 -42.5l-1136 4q-59 0 -101.5 42.5t-42.5 101.5z" />
<glyph unicode="`" horiz-adv-x="854" d="M51 1737q0 47 27 82q23 29 52.5 44t64.5 15q23 0 44 -6t40 -21l167 -116q33 -23 67 -43l62 -37q29 -16 51.5 -26.5t32.5 -10.5q59 0 101.5 -42t42.5 -101t-42 -101.5t-102 -42.5q-39 0 -94 21.5t-116.5 53.5t-122 68.5t-108.5 69.5l-78 54l-29 22q-29 20 -44.5 51 t-15.5 66z" />
<glyph unicode="a" horiz-adv-x="1429" d="M53 475q-1 24 -1 48.5t1 50.5q2 52 8 112h2q12 111 50.5 210t96.5 181t132 145.5t156 104.5q63 35 136 52.5t144 17.5q98 -6 172 -32t131 -67l20 -15q9 -7 19 -17q37 37 101 37q31 0 59.5 -9.5t52 -26t35.5 -39.5q9 -18 9 -40q0 -7 -1 -14v-7q0 -2 -2 -6l-141 -1100 q-8 -59 -54 -95q-38 -29 -84 -29q-11 0 -22 2q-57 6 -94 53q-30 39 -30 85q0 10 1 21l2 13q-78 -92 -173 -149.5t-210 -61.5q-111 0 -208 36.5t-175 133.5q-55 72 -91 171t-42 234zM340 487q8 -164 70 -237q29 -39 67.5 -51.5t79.5 -12.5q86 4 157.5 72t129 171t101.5 226 t75 236q-39 18 -62 55q-19 31 -19 70q0 7 1 14q0 18 -29 39q-25 18 -61.5 29.5t-71.5 11.5q-41 0 -77.5 -11.5t-75.5 -27.5q-104 -53 -183.5 -160.5t-95.5 -255.5q-7 -74 -6 -137v-31z" />
<glyph unicode="b" horiz-adv-x="1355" d="M53 90l1 36q1 36 5 96.5t13.5 141t25.5 173.5l135 1259q6 59 52 96q41 33 92 34q6 0 12 -1q59 -6 97 -52q33 -40 33 -89q0 -8 -1 -17l-53 -497q59 43 130 66.5t157 23.5q139 0 242.5 -50t172 -136.5t103.5 -199t35 -239.5q0 -156 -44 -289t-120 -236.5t-178.5 -173 t-219.5 -97.5q-86 -23 -165 -23q-63 0 -125 14.5t-117 44.5l-21 13q-10 6 -20 14q-39 -27 -96 -27q-55 0 -101.5 29t-44.5 86zM373 401q47 -18 72 -63q18 -32 19 -69q0 -15 -3 -29q0 -4 12 -15q20 -10 46 -15t54 -5q27 0 53.5 4t49.5 8q76 18 138.5 64.5t107.5 115 t70.5 154.5t25.5 184q0 68 -13.5 129.5t-44 107.5t-82 73.5t-126.5 27.5q-78 0 -137.5 -45t-103.5 -116.5t-73.5 -164t-48.5 -188.5z" />
<glyph unicode="c" horiz-adv-x="1343" d="M53 528q0 84 17 179q43 242 149.5 392t251.5 226q147 74 313 74q117 0 226.5 -43t177.5 -121q102 -125 102 -293q0 -23 -2 -47.5t-6 -48.5q-10 -59 -57 -93q-36 -26 -80 -26q-13 0 -27 2q-59 10 -93 57q-26 36 -26 80q0 13 2 27q2 19 2 38q0 24 -3 47q-5 42 -29 71 q-29 35 -81 49t-106 14q-49 0 -93 -10t-87 -33q-90 -45 -156.5 -145.5t-95.5 -266.5l-2 -2q-6 -29 -8 -58.5t-2 -59.5q0 -70 13.5 -135.5t39.5 -114.5q31 -55 78 -88t107 -37h2q23 -2 43 -3q15 0 29 2q32 3 69 13q84 23 145.5 67t87.5 91q20 35 54 53t71 18q39 0 72 -18 q35 -20 53.5 -54t18.5 -71q0 -35 -19 -70q-25 -45 -65.5 -89t-94 -82.5t-117 -70.5t-134.5 -50q-53 -12 -117 -21q-36 -5 -69 -5q-25 0 -48 3h-2q-137 10 -242.5 83t-171.5 189q-47 86 -68.5 182.5t-21.5 198.5z" />
<glyph unicode="d" horiz-adv-x="1464" d="M51 522q0 29 2 56.5t6 56.5q16 147 73.5 284.5t145 243t201 170t242.5 64.5q111 0 194.5 -31t147.5 -86l63 553q4 51 45 74.5t91 23.5q29 0 56.5 -8t49 -23.5t33.5 -37t10 -50.5l-3 -59q-3 -59 -12.5 -157.5t-25.5 -229.5t-41 -276l-117 -1053q-6 -59 -52 -96 q-38 -30 -84 -31q-10 0 -21 2q-53 4 -89 43t-38 92q-66 -66 -141 -102q-71 -35 -155 -35h-9h-2h-11q-121 0 -229 47q-113 49 -193 141q-66 78 -101.5 189.5t-35.5 234.5zM338 524q0 -72 17.5 -136t52.5 -105q37 -45 94 -65.5t121 -20.5q72 0 130 53t106 145t85 213t64 252 q-51 33 -68 92l-12 39t-19 35q-25 39 -70.5 61.5t-117.5 22.5q-74 0 -137.5 -46t-113.5 -120t-83 -165t-43 -179q-6 -37 -6 -76z" />
<glyph unicode="e" horiz-adv-x="1386" d="M51 543q0 98 19.5 206.5t65.5 212t120 194.5t184 155q72 43 157 64.5t173 21.5q143 0 267 -53.5t198 -149.5q53 -70 76.5 -151.5t23.5 -168.5q0 -29 -3 -55t-7 -55q-18 -84 -87 -137.5t-165 -84t-210.5 -42t-227.5 -11.5h-62q-29 0 -57 3l-178 12q4 -53 17.5 -112.5 t42 -109t71.5 -81t104 -31.5q94 0 163 22.5t113 49t65 49.5l22 22q43 53 113 54q51 0 90 -31q53 -43 53 -113q0 -47 -31 -88l-37 -40q-37 -40 -109.5 -87t-183 -86t-258.5 -39q-133 0 -231 59.5t-162.5 153.5t-96.5 212t-32 235zM381 788q41 -4 77 -6l68 -4q23 -2 54 -2h69 q61 0 131 2t128.5 7.5t96 12.5t37.5 19q4 27 4.5 54.5t-4.5 55.5q-8 56 -36 97q-35 45 -101.5 65.5t-134.5 20.5q-51 0 -98 -10t-88 -35q-78 -47 -126 -123t-77 -154z" />
<glyph unicode="f" horiz-adv-x="1155" d="M51 1124q0 59 42 101.5t102 42.5h79q27 147 64 272t89 217t121.5 145.5t162.5 55.5q125 0 238.5 -40t185.5 -128q39 -51 55 -105.5t16 -111.5q0 -53 -12 -109q-16 -57 -67 -88q-33 -20 -69 -20q-20 0 -40 6q-57 16 -87 66q-19 32 -19 69q0 20 6 41q4 18 3 39.5t-14 38.5 q-31 35 -83 45t-105 10q-55 -2 -94 -112.5t-68 -290.5h248q59 0 101 -42t42 -102q0 -59 -42 -101t-101 -42h-285q-14 -125 -24 -241l-20 -229l-18 -232q-9 -119 -22 -252q-6 -59 -51 -97q-41 -33 -93 -33q-6 0 -11 1q-59 6 -98 51q-33 39 -32 88q0 8 1 16q8 92 17 212 l19 246q10 126 21.5 248t23.5 222h-38q-59 0 -101.5 42t-42.5 101z" />
<glyph unicode="g" horiz-adv-x="1392" d="M53 -457q0 41 9.5 80t21.5 70q14 37 31 65q20 35 54 53.5t71 18.5q39 0 71 -20q35 -20 53.5 -54.5t18.5 -70.5q0 -39 -21 -72q-6 -14 5 -27q10 -10 39.5 -18t93.5 -8q109 0 184.5 35.5t128.5 101t87 158t54 202.5q-72 -78 -157.5 -126t-190.5 -48q-129 0 -225 54.5 t-160.5 142.5t-96.5 200.5t-32 229.5q0 158 44 313.5t124 279.5t192.5 200.5t252.5 76.5q86 0 178 -18.5t172 -69.5q16 -10 32.5 -22.5t30.5 -26.5q31 12 68 12q31 0 59.5 -8t51 -24.5t34.5 -38.5q9 -17 9 -39q0 -7 -1 -15q-16 -131 -25 -266l-18 -268q-12 -180 -26.5 -349 t-43 -315.5t-78.5 -268.5t-135 -208t-210 -134t-303 -48q-135 0 -222.5 24.5t-137.5 62.5t-68.5 86t-18.5 97zM379 510q0 -59 11 -119.5t37 -110t70 -80t109 -30.5q80 0 142.5 64.5t110.5 164t83 218t59 227.5q-37 20 -56 58q-16 31 -16 66q0 7 1 15q6 20 -3 38.5t-26 29.5 q-37 25 -93 34t-103 9q-74 0 -133.5 -57.5t-102.5 -143.5t-66.5 -188.5t-23.5 -194.5z" />
<glyph unicode="h" horiz-adv-x="1204" d="M53 78q0 2 4 69.5t21 176.5l147 1509q6 59 51 96q41 33 93 33h12q59 -6 97 -51q33 -39 33 -88q0 -8 -1 -17l-55 -569q70 61 154.5 97t189.5 36q109 0 176 -65.5t107 -172t54.5 -240.5t14.5 -269q0 -119 -8 -230.5t-17.5 -197.5t-17.5 -139l-8 -52q-10 -59 -58 -94 q-36 -27 -80 -27q-13 0 -26 2q-59 10 -94 59q-27 37 -27 81q0 13 2 26l6 34q6 34 14.5 89t17.5 129t17.5 155t13.5 165t5 159q0 63 -4 118.5t-15.5 95.5t-29 63.5t-43.5 23.5q-72 0 -128.5 -35.5t-102.5 -95t-79.5 -138.5t-58 -163t-41 -170t-24.5 -162l-25 -262 q-4 -49 -46 -72.5t-91 -23.5q-57 0 -104.5 30t-45.5 87z" />
<glyph unicode="i" horiz-adv-x="571" d="M53 66l127 1128q6 59 52 97q38 31 85 31q10 0 21 -1q59 -6 96 -52q32 -39 32 -89q0 -8 -1 -17l-127 -1128q-6 -59 -52 -96q-39 -32 -89 -32q-8 0 -17 1q-59 6 -96 52q-32 39 -32 89q0 9 1 17zM223 1671l10 72q8 59 55 96q38 30 84 30q10 0 21 -1q29 -4 53.5 -18.5t42 -36 t25.5 -48.5q5 -18 6 -37q0 -10 -2 -20l-10 -72q-6 -59 -53 -95q-40 -31 -90 -30h-17q-59 8 -95 55q-31 39 -31 88q0 8 1 17z" />
<glyph unicode="j" horiz-adv-x="1034" d="M-205 -184q0 31 13.5 57.5t35 46t49 30.5t58.5 9q59 -4 95 -49t36 -105q0 -68 12 -113.5t33 -74.5q27 -35 72 -39q70 0 115.5 21.5t76.5 64.5q78 111 109 369q6 68 18 178.5l25 235.5l25 254l24 232q10 103 17 169l7 65q4 59 52 98q41 33 88 32q8 0 16 -1q59 -6 96 -51 q33 -41 34 -93q0 -6 -1 -11l-7 -70l-18 -177l-25 -239l-27 -257l-24 -232l-18 -164v-2q-18 -164 -56 -289t-103 -213q-145 -207 -412 -207q-109 6 -184.5 45t-128.5 111q-47 63 -75 157.5t-28 211.5zM688 1665l8 72q8 59 55 95q39 31 88 31q8 0 17 -1q59 -8 96 -55 q30 -38 30 -84q0 -10 -1 -21l-8 -72q-8 -59 -55 -96q-39 -30 -86 -30q-10 0 -21 1q-57 6 -94 54q-30 39 -30 85q0 10 1 21z" />
<glyph unicode="k" horiz-adv-x="1202" d="M53 236q0 143 14.5 317t36 353t47.5 349l47 301l35 212l15 81q10 59 59 93q37 25 81 24q14 0 28 -2q59 -10 92 -59q24 -36 24 -77q0 -15 -4 -32v1q-2 0 -16 -68q-16 -78 -41 -210.5t-52.5 -297t-52 -326.5t-41 -300t-16.5 -218q0 -49 8.5 -69.5t24.5 -0.5q86 94 173 217 t160 244t125 224.5t70 158.5t71 83q31 17 65 17q22 0 45 -8q57 -18 84 -71q16 -31 15 -63q0 -23 -7 -46q-12 -37 -41 -94.5t-70 -126.5l-91 -149l-105 -158l266 -439q10 -16 15 -36.5t5 -39.5q0 -35 -16 -67.5t-51 -52.5q-33 -20 -74 -21q-37 0 -69.5 17.5t-53.5 52.5 l-205 334l-108 -132q-57 -73 -120 -136.5t-130 -105.5q-62 -38 -127 -38h-12q-57 4 -80 104.5t-23 260.5z" />
<glyph unicode="l" horiz-adv-x="606" d="M53 57l215 1729q8 59 55 96q38 30 84 30q10 0 21 -1q59 -6 96 -53q30 -39 30 -86q0 -10 -1 -21l-215 -1728q-6 -59 -53 -97q-39 -30 -86 -30q-10 0 -21 2q-59 8 -96 54q-30 38 -30 84q0 10 1 21z" />
<glyph unicode="m" horiz-adv-x="1937" d="M53 39l125 1173q6 59 52 97q39 32 89 31q8 0 17 -1q59 -6 96 -52q32 -39 32 -89q0 -8 -1 -16l-6 -43q66 84 143.5 134t167.5 50q74 0 131 -29.5t98 -81t69 -121t46 -149.5q41 80 88 149.5t100.5 121t113 81t124.5 29.5q104 0 172 -62.5t106.5 -162t54 -225t15.5 -255.5 q0 -115 -8 -223t-19.5 -192t-19.5 -135l-8 -52q-10 -59 -58 -93q-37 -26 -81 -26q-13 0 -27 3q-59 10 -92 58q-25 37 -25 80q0 14 2 28l5 32l14 86l18 124q10 71 18.5 149t13.5 157.5t5 151.5q0 57 -4 106.5t-14.5 86t-26.5 57t-41 20.5q-59 0 -114.5 -75.5t-103.5 -190.5 t-88 -248t-67.5 -247.5t-43.5 -191.5l-15 -77q-8 -45 -44 -64.5t-81 -19.5q-31 0 -60.5 9.5t-53 26.5t-36 42t-8.5 55q2 18 11.5 82t19.5 154t18.5 194.5t8.5 202.5q0 72 -5.5 134.5t-18.5 110.5t-34.5 75.5t-54.5 27.5q-47 0 -91 -44t-84 -116.5t-74 -166t-62.5 -190.5 t-51 -190t-38 -166t-23.5 -118l-8 -45q-8 -47 -45 -68.5t-84 -21.5q-31 0 -59.5 8t-51 25.5t-35.5 41.5q-9 18 -9 39q0 7 1 15z" />
<glyph unicode="n" horiz-adv-x="1380" d="M53 47l133 1174q8 59 55 96q39 32 88 31h17q59 -6 96 -53q30 -38 31 -84q0 -10 -2 -21l-25 -217q53 80 110.5 147.5t120 118.5t130 80t141.5 29q115 0 187.5 -57.5t115.5 -150.5t59.5 -213t16.5 -245q0 -127 -12 -249t-26.5 -218t-26.5 -156l-13 -59q-14 -59 -63 -90 q-35 -22 -76 -22q-16 0 -33 3q-57 14 -89 64q-23 35 -23 76q0 16 4 32l7 33l18 87q11 54 23.5 126t23 151t17.5 159.5t7 154.5q0 61 -6 113.5t-19.5 90.5t-36 60.5t-55.5 22.5q-59 0 -117.5 -46t-113.5 -121t-104.5 -170t-92.5 -195.5t-77 -196.5l-58 -171q-25 -75 -38 -121 l-13 -46q-12 -43 -48 -62.5t-77 -19.5q-31 0 -59.5 9t-52 26.5t-36.5 43.5q-9 19 -9 41q0 7 1 15z" />
<glyph unicode="o" horiz-adv-x="1355" d="M51 449q0 113 20.5 209t48 168.5t54.5 117.5t41 55q35 25 70 31q16 51 49 107.5t89 104.5t141 80t208 32q154 0 269.5 -74t177.5 -197q47 -88 66.5 -189t19.5 -202q0 -125 -27 -244.5t-79 -222t-129 -181.5t-179 -122q-66 -29 -141.5 -42t-149.5 -13q-143 0 -256 60.5 t-184 158.5q-55 80 -82 174.5t-27 188.5zM338 449q0 -53 13.5 -104.5t41.5 -92.5q33 -47 87.5 -72.5t119.5 -25.5q49 0 92 7t86 23q61 18 106.5 72.5t75 126.5t44 153.5t14.5 155.5q0 70 -12.5 138.5t-40.5 121.5q-55 115 -193 115q-86 0 -130 -27.5t-67 -62.5 q-25 -39 -28 -90q0 -59 -43 -102q-41 -40 -97 -40h-6h-20q-2 -6 -8 -36l-15 -73q-8 -42 -14 -91t-6 -96z" />
<glyph unicode="p" horiz-adv-x="1464" d="M53 -643l4 59q4 59 13.5 159.5t27 234t41.5 280.5l121 1051q4 29 18.5 53.5t36 41.5t48 25.5t57.5 4.5q74 -10 110 -76q66 78 143 122t169 44q160 0 276.5 -81t188.5 -210q55 -100 80.5 -212t25.5 -214q0 -90 -18.5 -177t-48.5 -171q-33 -82 -83.5 -157t-118 -132 t-154.5 -90t-193 -33q-137 0 -227.5 55.5t-145.5 126.5l-84 -716v-13q-6 -49 -46 -71.5t-89 -22.5q-57 0 -105.5 30t-46.5 89zM494 487q37 -12 62.5 -40.5t31.5 -69.5q12 -57 39 -105q23 -41 63.5 -73.5t106.5 -32.5q106 0 175.5 68.5t106.5 160.5q23 59 35 121t12 123 q0 72 -17 146.5t-52 140.5q-37 66 -90.5 104.5t-124.5 38.5q-59 0 -110.5 -46t-94.5 -125t-78.5 -184.5t-64.5 -226.5z" />
<glyph unicode="q" horiz-adv-x="1320" d="M53 520q-1 19 -1 39q0 99 27 193q32 113 88 212t134 179t166 131q59 33 120 55q51 19 106 19h20q117 -6 183.5 -37t117.5 -74q18 16 43.5 24.5t54.5 8.5q31 0 59.5 -8.5t51 -24.5t35.5 -39q10 -17 11 -39q0 -7 -1 -14l-176 -1696h8h6q56 0 97 -38q48 -44 48 -105 q0 -56 -38 -98q-40 -44 -99 -46l-358 -18h-10q-25 0 -48 8q-27 10 -47 28.5t-32.5 44.5t-12.5 60q0 56 38 98q40 44 97 48l60 4l59 569q-53 -53 -112.5 -84t-131.5 -33q-147 0 -262.5 60.5t-189.5 175.5q-53 86 -80 188.5t-31 208.5zM340 526q2 -70 17.5 -134t48.5 -113 q35 -53 87 -79t117 -26q57 2 105.5 63.5t87.5 156.5t69.5 210t51.5 221q-25 23 -39 55q-11 25 -11 52v16q-12 45 -53 77t-94 36q-35 0 -64.5 -10.5t-52.5 -24.5q-59 -37 -110 -90t-88 -117.5t-57 -139.5q-16 -62 -16 -126q0 -13 1 -27z" />
<glyph unicode="r" horiz-adv-x="1228" d="M53 41l90 1147q4 59 51 97q42 34 94 34h11q59 -4 97 -48q34 -40 34 -92v-12l-4 -51q70 88 153 141.5t183 53.5q133 0 215 -33t126 -84t59.5 -109.5t15.5 -111.5q0 -29 -2 -52.5t-7 -41.5q-4 -23 -10 -39q-16 -57 -68 -85q-33 -17 -68 -18q-21 0 -42 6q-57 16 -85 69 q-17 33 -17 68q0 21 6 42l3 16q3 16 -6.5 35.5t-35 35t-84.5 15.5q-68 0 -124 -66.5t-102.5 -168t-81 -224.5t-58 -235.5t-38 -199.5t-20.5 -120q-8 -47 -47 -69.5t-86 -22.5q-59 0 -107.5 32t-44.5 91z" />
<glyph unicode="s" horiz-adv-x="1259" d="M51 244q0 53 41 98q20 23 47 34t56 11q27 0 52 -9t46 -30l30 -26q30 -27 78 -59t106 -57.5t118 -25.5q92 0 165.5 40t106.5 106q12 25 -7.5 47t-53 40.5t-74.5 32t-74 21.5q-43 10 -89 19.5t-93 20.5t-94 26.5t-93 39.5q-96 53 -153 139q-45 66 -45 159q0 26 4 55 q14 109 75.5 186.5t148.5 127.5t190.5 73.5t201.5 23.5q92 0 193.5 -40t173.5 -105q47 -43 73.5 -97.5t26.5 -119.5q0 -51 -20 -101q-23 -57 -76 -80q-27 -12 -55 -12q-27 0 -53 11q-55 20 -79 74q-13 29 -13 58q0 25 10 50q-12 16 -35 29.5t-48.5 23.5t-51 16.5t-46.5 6.5 q-43 0 -98 -8.5t-105.5 -28t-87 -50t-42.5 -75.5q-2 -27 19.5 -46.5t55 -34.5t76.5 -26.5t83 -18.5t71.5 -11t46.5 -9q78 -18 158.5 -53t143 -89t99.5 -125q29 -55 29 -121q0 -18 -2 -38q-6 -53 -26.5 -101t-51.5 -91q-37 -49 -89 -91t-114.5 -73t-134.5 -48t-147 -17 q-102 0 -197.5 37.5t-168.5 83.5t-118 85l-45 39q-23 20 -34 47t-11 56z" />
<glyph unicode="t" horiz-adv-x="1224" d="M51 1155q0 59 41 101t101 44l116 3l26 138l34 189q10 59 57 93q36 26 80 26q13 0 26 -2q59 -10 94 -58q26 -37 26 -81q0 -13 -3 -27q-6 -43 -18.5 -115.5t-28.5 -156.5l424 10q31 0 56.5 -10.5t46 -29.5t31.5 -45t11 -54q0 -31 -10 -56.5t-29.5 -46t-45 -33t-54.5 -12.5 l-483 -12q-18 -45 -39 -141.5t-37 -210t-27.5 -226t-11.5 -188.5q0 -47 5 -73.5t16 -26.5q86 0 139 27.5t84 62.5q37 39 51 90q16 57 67 88q33 20 68 20q19 0 39 -6q59 -16 89 -66q19 -32 19 -68q0 -19 -5 -40l-10 -30q-9 -30 -32.5 -73.5t-63.5 -95t-101.5 -95.5 t-146.5 -72.5t-197 -28.5q-154 0 -218.5 113.5t-64.5 318.5q0 137 24.5 319.5t61.5 395.5h-59q-59 0 -102.5 41t-45.5 100z" />
<glyph unicode="u" horiz-adv-x="1253" d="M53 397q0 94 9.5 191.5t24.5 188.5t31.5 171t32 140.5t25.5 95.5l10 35q16 57 68 85q32 17 67 17q21 0 44 -6q55 -16 84 -69q18 -33 18 -68q0 -20 -6 -41l-12 -41q-12 -41 -30 -109l-38 -153q-20 -86 -38.5 -176.5t-30 -176.5t-11.5 -153q0 -70 15.5 -112t52.5 -42 q51 0 102 45t99 119t93.5 168t84 192.5t70.5 192.5t54.5 168t34.5 119l13 45q10 43 45.5 62.5t78.5 19.5q31 0 60 -9.5t52.5 -27t35.5 -41.5q9 -18 9 -41q0 -7 -1 -15l-125 -1155q-6 -59 -52 -96q-39 -32 -89 -31h-16q-59 6 -97 52q-32 39 -31 87q0 8 1 17l18 178 q-45 -72 -96 -133t-106.5 -106t-115 -71t-122.5 -26q-92 0 -152.5 41t-97.5 111t-51.5 163t-14.5 195z" />
<glyph unicode="v" horiz-adv-x="1165" d="M53 813q0 72 2 131.5t3 104.5t3 70l2 26q4 59 51 98q42 35 92 35h11q59 -4 98 -49q35 -41 36 -93q0 -6 -1 -12l-2 -54l-5 -137q-3 -83 -5 -182.5t-2 -193.5q0 -61 1 -115.5t4 -96.5t8 -65.5t13 -23.5q20 0 50 44t67 115.5t78 164.5l80 188l75 188l63 164l44 117l17 45 q20 55 73 81q30 14 60 14q24 0 49 -9q55 -23 81 -75q14 -29 14 -59q0 -24 -9 -50l-21 -56q-20 -55 -57 -146l-86 -207q-49 -116 -106.5 -235.5t-121 -235.5t-129 -206t-129 -145t-120.5 -55q-59 0 -103.5 42t-76 113.5t-51 163.5t-31 194.5t-15.5 206t-4 195.5z" />
<glyph unicode="w" horiz-adv-x="1744" d="M53 1104v55q0 59 43 102q41 40 97 40q3 0 6 -1q59 0 100 -41.5t41 -101.5l3 -67q3 -68 7 -168.5t10.5 -217t13.5 -216t13 -166t12 -66.5q16 0 40 34t51 91l61 131q33 74 65 156q-4 20 -4 41v41q0 29 1 53t3 47q12 102 57.5 160.5t131.5 58.5q92 0 128 -56.5t36 -131.5 q0 -29 -3 -56.5t-12 -56.5l-21 -68q-11 -35 -26 -73q2 -39 14.5 -106.5t27 -130t25.5 -104.5t11 -30q10 0 34.5 46t56.5 121t69 171l75 197l72 196l62 172l43 122l16 46q18 57 72 84q31 16 64 16q23 0 46 -8q55 -18 82 -71q16 -31 16 -64q0 -22 -7 -45l-21 -58l-54 -154 q-34 -95 -81 -215l-102 -246q-54 -126 -112.5 -246.5t-117.5 -215t-116.5 -151.5t-106.5 -57q-43 0 -82 25.5t-74 69.5t-64.5 103.5t-52.5 128.5q-45 -68 -91 -128t-92 -104t-89 -69.5t-82 -25.5q-59 0 -103 54t-76 142t-53.5 202t-33.5 232.5t-18.5 231t-8.5 202t-2 144.5z " />
<glyph unicode="x" horiz-adv-x="1198" d="M62 -23q-11 27 -10 54q0 28 11 55q16 37 51.5 92t83.5 122l105 142l119 154l-95 158l-86 149q-40 72 -71 134.5t-47 109.5q-9 25 -9 49q0 30 14 59q26 53 83 74q24 9 48 9q31 0 60 -15q53 -27 74 -82q25 -70 83.5 -176.5l131.5 -228.5l97 123l78 106l56 79q22 32 23 42 q10 59 60 92q36 24 77 24q15 0 31 -4q59 -10 92 -59q24 -36 24 -77q0 -15 -3 -32q-6 -35 -40 -92t-84 -128.5t-115 -155.5l-132 -174l119 -179l101 -148l72 -103l28 -39q27 -35 26 -82q0 -35 -15.5 -66t-43.5 -51q-37 -25 -82 -25q-35 0 -65.5 15.5t-53.5 44.5l-22 30 l-60 84l-85 126l-103 155l-90 -118l-78 -104q-35 -48 -58.5 -86t-33.5 -63q-25 -53 -80 -74q-27 -11 -54 -11q-28 0 -55 12q-55 24 -77 79z" />
<glyph unicode="y" horiz-adv-x="1318" d="M53 -725q0 37 19 72l103 182l101 189l97 187l88 175q-5 -1 -11 -1q-29 0 -58 29q-34 34 -64.5 93t-57 137t-45.5 158q-20 84 -38.5 177t-33 188t-21.5 188.5t-7 179.5q0 59 42 101t101 42t101.5 -42t42.5 -101q0 -76 4 -162t14 -173t27.5 -172t44.5 -159q23 -66 35 -114 t20 -37q31 45 66 103l71 122l73 130l69 130l45 108l37 89l49 116t48.5 82.5t58.5 44.5q17 7 39 7q18 0 38 -5q115 -25 115 -129q0 -25 -6 -55q-10 -47 -50.5 -137t-99.5 -205l-137 -319l-180 -392l-220 -437q-119 -228 -254 -462q-20 -35 -53 -53t-69 -18q-39 0 -72 20 q-35 20 -53.5 53t-18.5 70z" />
<glyph unicode="z" horiz-adv-x="1265" d="M53 104q0 37 13 82v2q8 31 43.5 86.5t90.5 124.5l122 151l139 165l144 165l136 150l-475 -4h-5q-56 0 -96 40q-42 42 -44 101q0 59 42 101.5t101 44.5l807 8h5q60 0 98 -44q39 -46 38 -103q0 -25 -8 -49.5t-28 -45.5l-56 -58l-137 -149l-179 -198l-182 -209 q-85 -100 -145.5 -179t-70.5 -110q0 -4 36.5 -2t95 7t125.5 13l124 13q58 6 98 11l39 5q18 4 36 5q39 0 72 -22q49 -32 62 -89q4 -18 4 -36q0 -39 -22 -73q-32 -49 -89 -63l-46 -10q-46 -9 -119.5 -21t-166 -21.5t-184.5 -9.5q-82 0 -156.5 10.5t-133 35t-93.5 67t-35 108.5 z" />
<glyph unicode="{" horiz-adv-x="800" d="M53 891q0 45 24.5 85t72.5 54q23 6 42 53t35.5 118t31.5 158l30 173q18 113 37.5 217t51.5 187t82 136.5t126 65.5q59 8 105 -26.5t57 -94.5q8 -59 -28 -106t-95 -58l-5 -30l-13 -81l-16 -117q-9 -67 -22 -138q-12 -84 -27.5 -169t-35 -165t-47 -149.5t-66.5 -124.5 q35 -70 46.5 -159t11.5 -188q0 -57 -2.5 -115.5t-6.5 -117.5t-16 -114.5t-23.5 -96.5t-16.5 -66.5t7 -25.5q59 -6 97 -52t32 -106q-6 -59 -51 -96t-104 -31q-68 6 -111 39t-67.5 83t-33 117.5t-8.5 143.5q0 53 2.5 107.5t6.5 111.5q4 72 7 142.5t3 130.5q0 72 -7 120t-24 56 q-41 16 -61.5 52t-20.5 77z" />
<glyph unicode="|" horiz-adv-x="497" d="M53 -346l105 2392q0 31 12 56.5t32.5 44t47 28.5t57.5 8q29 0 54.5 -12t44 -32.5t28.5 -47.5t10 -57l-104 -2392q0 -31 -12.5 -56.5t-33 -44t-47 -29t-57.5 -8.5q-29 2 -54 14.5t-43.5 32t-29 46t-10.5 57.5z" />
<glyph unicode="}" horiz-adv-x="800" d="M53 -172q-8 59 28 105.5t95 56.5l5 30l13 81l16 117l19 138l30 169q15 85 34.5 165t47.5 149.5t67 125.5q-35 70 -46.5 158.5t-11.5 187.5q0 57 2 115.5t6 117.5t16.5 114.5t24 96.5t16.5 66.5t-7 27.5q-59 6 -97.5 51.5t-31.5 104.5q6 59 51 96t104 31q68 -6 111 -38 t67.5 -82t32.5 -117.5t8 -145.5q0 -53 -2 -107.5t-6 -111.5q-4 -72 -7 -142.5t-3 -130.5q0 -72 7 -119.5t24 -56.5q41 -16 61.5 -52t20.5 -77q0 -45 -25 -85t-72 -54q-23 -6 -42 -53t-35.5 -118t-31.5 -158l-30 -173q-18 -113 -37.5 -217t-51.5 -186t-81 -136.5t-127 -64.5 q-59 -10 -106.5 26t-55.5 95z" />
<glyph unicode="~" horiz-adv-x="1079" d="M55 1499q23 82 66 148q37 55 102.5 100t169.5 45q61 0 104.5 -14.5t72 -37t46 -53t31.5 -61.5q23 12 46 31l45 36q22 17 35 30l13 14q41 37 97 37q63 0 106 -45q20 -20 29.5 -46t9.5 -53q0 -29 -11 -55.5t-34 -46.5q-59 -55 -125 -101q-55 -39 -121.5 -69.5t-128.5 -30.5 q-53 0 -88 13.5t-58.5 36t-37.5 51.5l-29 61q-4 6 -1 11t-1 5q-16 0 -27.5 -9t-17.5 -21q-8 -14 -12 -33q-12 -59 -61.5 -91t-108.5 -20q-59 10 -91 59.5t-20 108.5z" />
<glyph unicode="&#xa1;" horiz-adv-x="632" d="M51 4l154 1497q6 59 51 96t104 31q59 -4 97.5 -50t31.5 -105l-153 -1496q-6 -59 -51 -97t-105 -32q-59 6 -97 51.5t-32 104.5zM213 1870q6 59 52 96t106 31l82 -10q29 -2 53 -16.5t41.5 -36t26 -48t4.5 -57.5q-6 -59 -52.5 -96t-105.5 -31l-80 10q-59 6 -96 52.5 t-31 105.5z" />
<glyph unicode="&#xa2;" horiz-adv-x="1343" d="M53 528q0 125 32 252t88 236.5t133 191.5t165 117q86 41 172 59l14 105q8 59 54.5 96t105.5 29q59 -6 96 -53.5t29 -106.5l-10 -74q82 -16 148.5 -56t112.5 -97.5t71.5 -130t25.5 -154.5q0 -23 -2 -47.5t-6 -48.5q-10 -59 -57 -93t-107 -24q-59 10 -93 57.5t-24 106.5 q10 68 -12 125t-92 76l-113 -897q59 27 103.5 62.5t66.5 72.5q20 35 54 53t71 18q59 0 101.5 -42t42.5 -101q0 -35 -19 -70q-27 -47 -74 -96t-106 -90t-130 -71.5t-146 -43.5l-21 -163q-6 -59 -53 -96.5t-107 -28.5q-59 8 -96 54t-29 105l17 131q-104 27 -181 92.5 t-126.5 152.5t-74 189.5t-24.5 202.5zM340 537q0 -109 33 -205t121 -150l110 887q-55 -18 -103 -72.5t-84 -129t-56.5 -160.5t-20.5 -170z" />
<glyph unicode="&#xa3;" horiz-adv-x="1024" d="M-58.5 81q9.5 34 32 62.5t54 52t64.5 42.5q16 53 29.5 126.5t19.5 137.5h-10q-59 -4 -103 30.5t-51 90.5q-4 57 33 100t94 47l54 4v51l-49 -2q-59 -4 -102.5 33t-47.5 94q-2 29 8 53.5t27.5 44t43 31t54.5 13.5l60 2q-2 47 -7.5 97t-5.5 97q0 137 47 248t129 187.5 t194 117.5t241 41q117 0 224 -33.5t189 -93.5q63 -47 87 -119.5t16 -142.5q-4 -25 -12.5 -51.5t-18.5 -48.5q-16 -35 -50 -55.5t-75 -20.5q-57 0 -99 39t-42 94q0 2 3 17l6 32q3 16 7 31l4 14q-49 35 -123.5 54.5t-152.5 13.5q-154 -14 -227.5 -112.5t-59.5 -268.5l4 -61 l4 -60l275 16q59 4 102 -32.5t47 -94.5q4 -57 -35 -98t-98 -45l-283 -14v-43l263 24q57 4 102 -31.5t51 -91.5q4 -57 -33 -100t-94 -47l-303 -27q-4 -49 -10 -95t-12 -87q55 12 109 19.5t103 7.5q90 0 169 -32t151 -73q45 -23 81 -38t54 12q45 57 117 57q57 0 99 -40t42 -95 q0 -53 -31.5 -96t-75.5 -73t-88 -45.5t-69 -15.5q-53 0 -105.5 22.5t-104.5 51.5l-104 56q-52 28 -106 40q-29 6 -67.5 2t-83.5 -13t-91.5 -23.5t-89.5 -30.5q-76 -150 -209 -143q-55 0 -100 34.5t-61 81.5q-13 37 -3.5 71z" />
<glyph unicode="&#xa5;" horiz-adv-x="1689" d="M53 244q-2 59 40 101t102 44h364l10 62h-311q-59 -2 -102 39.5t-41 101.5q-2 59 40 101t101 44h121q-59 49 -101.5 116t-70 142.5t-40.5 155.5t-13 160q0 92 14 185t40.5 178t63.5 159t80 127q23 27 51.5 40t59.5 13q51 0 90 -33q27 -23 40 -51t13 -59q0 -51 -33 -90 q-29 -37 -53 -88.5t-41.5 -112.5t-28 -130t-10.5 -138q0 -76 14.5 -150t48.5 -131t91 -92t145 -35q170 12 287 86t188.5 189.5t104.5 260t33 296.5v43q0 23 -2 45q-4 59 33.5 104t97.5 49q59 4 105 -33.5t50 -97.5q2 -23 2 -45v-43q0 -154 -27.5 -303t-84 -283.5 t-144.5 -246t-211 -187.5h74q59 2 101 -40t45 -101q0 -59 -41 -101t-101 -44h-387l-10 -62h332q59 2 101 -40t44 -101q0 -59 -41 -101.5t-100 -44.5h-383l-23 -137q-10 -59 -57 -94t-107 -25q-59 10 -94 57.5t-24 106.5l14 92h-315q-59 -2 -102.5 40.5t-41.5 101.5z" />
<glyph unicode="&#xa7;" horiz-adv-x="1372" d="M51 244q0 53 41 98q20 23 47 34t56 11q27 0 52 -9t46 -30l30 -26q30 -27 78 -59t106 -57.5t118 -25.5q92 0 165.5 40t106.5 106q12 25 -7.5 47t-53 40.5t-74.5 32t-74 21.5q-43 10 -89 19.5t-93 20.5t-94 26.5t-93 39.5q-96 53 -153 138.5t-41 214.5q12 100 65.5 174 t131.5 123q-47 51 -72 116.5t-12 153.5q14 109 75.5 186.5t148.5 128t190.5 74t201.5 23.5q92 0 193.5 -40t173.5 -106q47 -43 73.5 -97t26.5 -120q0 -51 -21 -100q-23 -57 -76 -81t-108 -1q-55 20 -78.5 74.5t-3.5 107.5q-12 16 -34.5 29.5t-48 24t-51.5 16.5t-46 6 q-43 0 -98.5 -8t-105.5 -27.5t-87 -50.5t-43 -76q-2 -25 15.5 -43t48 -32.5t71.5 -26t86 -21.5q88 -18 191.5 -48t189.5 -80t138.5 -127t39.5 -193q-6 -53 -26.5 -101.5t-50.5 -91.5q-53 -70 -129 -121q49 -51 75.5 -113.5t18.5 -140.5q-6 -53 -26.5 -101t-51.5 -91 q-37 -49 -89 -91t-114.5 -73t-134.5 -48t-147 -17q-102 0 -197.5 37.5t-168.5 83.5t-118 85l-45 39q-23 20 -34 47t-11 56zM408 889q-2 -35 35.5 -59.5t92 -41t112 -25.5t89.5 -15q92 0 166 39.5t107 105.5q16 31 -15.5 58.5t-82 48t-103.5 34t-82 17.5q-43 -2 -96 -11.5 t-101.5 -29t-83 -49t-38.5 -72.5z" />
<glyph unicode="&#xa8;" horiz-adv-x="724" d="M53 1507l8 109q6 59 51.5 97t104.5 34t98 -50t33 -106l-8 -106q-4 -59 -50 -98t-106 -33q-59 4 -97 49t-34 104zM377 1507l8 109q4 59 50 97t106 34q59 -4 97 -50t34 -106l-8 -106q-6 -59 -51.5 -98t-104.5 -33q-59 4 -98 50t-33 103z" />
<glyph unicode="&#xa9;" horiz-adv-x="2111" d="M53 881q4 160 51.5 321.5t141.5 310.5q18 31 48 47.5t62 20.5q23 70 65 134.5t107 117.5q94 76 238.5 121t363.5 45q246 0 439.5 -95.5t312.5 -275.5q96 -141 139 -317t37 -367q0 -111 -18.5 -224.5t-54 -219t-87 -198.5t-118.5 -167q-131 -139 -332 -217t-496 -70 q-129 4 -242.5 39t-211.5 95q-111 70 -196 168t-142 217q-55 117 -83 248t-24 266zM340 874q-4 -211 78 -385q41 -84 98 -151.5t133 -114.5q66 -41 142.5 -63.5t169.5 -24.5q225 -6 371.5 46t236.5 149q51 55 87 126.5t60.5 152.5t36.5 169t19 176q4 147 -27 279.5 t-100 236.5q-84 125 -217.5 183.5t-303.5 58.5q-160 0 -259 -27.5t-156 -72.5q-51 -43 -73 -102.5t-26 -125.5q-2 -31 -14 -55t-32.5 -42.5t-47.5 -29t-57 -8.5q-8 2 -15 2q-6 0 -14 2q-43 -92 -64.5 -187.5t-25.5 -191.5zM463 807q0 125 29.5 238.5t85 209t134.5 168 t177 113.5q68 27 135.5 42t138.5 13q104 4 187.5 -16.5t142.5 -61.5q55 -37 89 -94t34 -125q4 -102 -72 -211q-16 -25 -39.5 -40t-51.5 -19t-55.5 1t-51.5 22q-31 23 -46.5 52t-15.5 64q0 31 14.5 60.5l28.5 56.5q-23 14 -63.5 20.5t-96.5 4.5q-86 0 -166 -31 q-59 -27 -106 -73t-79 -107.5t-49 -134t-17 -150.5t18 -144.5t78 -107.5q35 -25 81 -36t93 -11q74 0 161 22.5t185 69.5q29 14 61 14q57 0 99.5 -40.5t42.5 -100.5q0 -41 -20.5 -77t-61.5 -54q-127 -59 -245 -89t-226 -30q-92 0 -178 23.5t-158 75.5q-115 82 -166 209 t-51 274z" />
<glyph unicode="&#xaa;" horiz-adv-x="1015" d="M52 1500q1 34 5 71q16 152 99.5 264.5t193.5 167.5l46.5 19.5t47.5 15.5q49 12 101 12h24q51 -4 100.5 -22.5t90.5 -47.5q4 -4 6 -4q33 6 69.5 1t66.5 -21.5t47.5 -43t13.5 -61.5l-2 -6v-6l-87 -657q-6 -57 -53 -94t-106 -29q-57 6 -94 55q-90 -74 -199 -80h-27 q-12 0 -28 4q-61 6 -119 36t-103 85q-41 49 -64.5 116.5t-27.5 160.5q-2 30 -1 64zM338 1493q0 -23 2 -45q2 -78 29 -111q14 -12 28 -16h15q37 2 68.5 33.5t58 81t49 110t39.5 119.5q-16 16 -27.5 38.5t-13.5 49.5q-8 4 -16.5 6t-18.5 4h-6q-10 0 -31 -4q-10 -2 -17.5 -6 t-17.5 -8q-53 -25 -91 -78t-46 -125v-2q-4 -24 -4 -47z" />
<glyph unicode="&#xad;" horiz-adv-x="1212" d="M53 612q-2 59 40 101.5t102 44.5l821 4q59 2 101 -40t44 -101q0 -59 -41 -101.5t-100 -44.5l-823 -4q-59 -2 -102.5 40t-41.5 101z" />
<glyph unicode="&#xae;" horiz-adv-x="2109" d="M53 872q4 160 50.5 321t140.5 312q18 29 48 46.5t62 19.5q23 72 65 135t107 117q94 76 239.5 121t364.5 45q246 0 438.5 -94.5t311.5 -274.5q96 -143 139 -319.5t37 -364.5q0 -113 -18.5 -225.5t-54 -217t-87 -198.5t-118.5 -170q-131 -139 -332 -217t-496 -70 q-129 4 -242.5 39t-211.5 94q-111 70 -196 168.5t-142 218.5q-55 117 -82 247t-23 267zM338 864q-4 -211 78 -385q41 -82 98 -149.5t133 -114.5q131 -84 311 -90q225 -6 372 46t237 148q49 53 86 125t63.5 154t39.5 171t13 175q4 147 -26.5 279.5t-100.5 236.5 q-84 125 -217 184.5t-303 59.5q-160 0 -259 -27.5t-156 -74.5q-39 -33 -66 -84q8 4 15.5 6t17.5 4q100 18 196.5 28.5t182.5 10.5q55 0 105 -5.5t95 -15.5q137 -35 217 -114.5t80 -225.5q0 -41 -7 -88t-23 -88q-33 -96 -93.5 -158.5t-138.5 -97.5l86 -120q45 -60 99 -113 q41 -41 40 -101q0 -57 -40.5 -100t-100.5 -43q-59 0 -102 43q-70 72 -125 145l-103 140l-43 58l-36 50q-6 0 -11.5 1t-9.5 1l-33 -280q-8 -59 -54 -96t-105 -31q-57 6 -95.5 53t-29.5 106l86 758q-39 -4 -72 11.5t-55 43.5q-23 -29 -55.5 -46t-71.5 -13q-8 0 -14.5 1 t-14.5 3q-43 -92 -64.5 -188.5t-25.5 -192.5zM979 1059q49 -6 106 -47q45 4 80 20t61.5 50t33.5 77q8 47 -12.5 72.5t-61.5 36.5q-78 18 -182 12z" />
<glyph unicode="&#xb0;" horiz-adv-x="737" d="M51 1526q0 59 22.5 124.5t63.5 110.5q23 23 49 31q31 51 87.5 75.5t109.5 24.5q68 0 124 -29.5t96 -78.5t61.5 -111.5t21.5 -128.5t-24.5 -123t-66.5 -100t-99.5 -67.5t-122.5 -24.5q-61 0 -119.5 20.5t-103 58.5t-72 93t-27.5 125zM350 1520q23 -10 43 4q6 6 6 30 q-22 -22 -49 -34z" />
<glyph unicode="&#xb2;" d="M55 26.5q-8 36.5 4 73.5q25 72 69 135.5t103.5 127t133.5 129.5l157 139l127 110l139 129q70 68 132.5 135.5t105.5 129.5q51 76 76.5 140t25.5 136q0 100 -57 168q-29 37 -79 57.5t-154 20.5q-205 -6 -310 -80q-41 -29 -62.5 -74t-21.5 -96q2 -59 -38.5 -105.5 t-100.5 -48.5q-59 -2 -102 39t-45 101q4 150 56 251t151 168q172 121 462 132q178 0 288 -48.5t177 -134.5q59 -72 91 -161t32 -189q0 -117 -40 -222.5t-113 -213.5q-51 -74 -117 -148.5t-138.5 -145.5t-149.5 -138l-148 -129l-112 -98l-97 -87q104 6 200 7 q113 0 209.5 -5.5t167.5 -11.5q84 -8 156 -16q59 -6 95 -53.5t30 -106.5q-8 -59 -54.5 -95t-105.5 -28l-39 4l-104.5 10.5t-155.5 10.5t-192 4q-117 0 -242 -7.5t-248 -29.5q-39 -6 -73.5 8t-57.5 42t-31 64.5z" />
<glyph unicode="&#xb3;" horiz-adv-x="1411" d="M53 334q0 35 15.5 64.5t46.5 52.5q37 25 80 24q35 0 65.5 -15.5t52.5 -45.5q47 -66 109 -119q53 -45 123.5 -81t156.5 -34q125 4 210 54.5t126 136.5q16 41 25.5 78.5t9.5 85.5q0 43 -20.5 81.5t-53 71.5t-73.5 58.5t-80 44.5q-51 -14 -113 -15q-16 0 -30.5 1t-30.5 3 q-80 8 -164 56q-35 20 -51.5 53t-16.5 67q0 47 27 88t78 54q33 10 64.5 13t64.5 3q86 0 166 -20q35 18 70.5 49t66.5 66.5t53.5 75.5t26.5 79q8 55 -6.5 114.5t-49.5 104.5q-39 51 -104.5 74.5t-138.5 19.5q-104 -4 -171 -24.5t-108 -42.5q-47 -27 -71 -60q-20 -35 -53 -52 t-70 -17t-72 18q-35 20 -53.5 53t-18.5 70q0 41 21 74q47 72 127 129q68 49 179.5 92t274.5 47q147 6 277.5 -50t208.5 -157q57 -76 87 -165t30 -181q0 -41 -7 -84q-14 -104 -73.5 -200.5t-139.5 -172.5q102 -78 168 -187.5t66 -240.5q-4 -70 -18.5 -140.5t-43.5 -133.5 q-74 -162 -223 -257t-366 -101q-72 -2 -136.5 12t-123 39.5t-108.5 58.5t-91 66q-98 80 -172 182q-25 37 -25 82z" />
<glyph unicode="&#xb4;" horiz-adv-x="911" d="M57 1382q-16 57 13.5 107.5t87.5 66.5q102 27 186 69t145.5 81t95.5 68l33 28q43 37 97 37q63 0 106 -47q37 -43 37 -96q0 -63 -47 -107q-72 -63 -162 -121q-78 -49 -183.5 -101t-234.5 -87q-57 -16 -107.5 13.5t-66.5 88.5z" />
<glyph unicode="&#xb5;" horiz-adv-x="1628" d="M53 31q10 119 86 163t197 44h31q14 0 30 -2q82 53 173.5 123.5t175 147.5t154.5 154.5t114 147.5l84 136q43 69 77.5 138.5t59.5 137t29 133.5q8 68 -11.5 142.5t-60.5 121.5q-35 41 -87 65.5t-128 30.5q-123 -2 -209 -20.5t-144.5 -46t-91 -63.5t-49.5 -75 q-25 -57 -20 -114q2 -43 16 -66q49 4 91 -22.5t59 -75.5q18 -57 -8.5 -109.5t-83.5 -70.5q-20 -6 -41 -10.5t-39 -4.5q-63 0 -116.5 33t-92.5 92q-31 43 -49.5 98.5t-22.5 116.5q-4 57 6.5 120t38.5 126q31 74 93.5 142.5t151.5 121.5t204.5 85t253.5 32h34q18 0 37 -2 q139 -10 240.5 -62.5t173.5 -134.5q82 -98 117 -220t24 -247q-4 -92 -31.5 -180t-68.5 -172t-91 -164l-99 -159q-72 -115 -193 -242t-260 -238q72 -10 143.5 -16t141.5 -6q80 0 152.5 10t133.5 37q53 23 108.5 1t78.5 -77q23 -53 1 -108.5t-77 -79.5q-92 -39 -191.5 -53.5 t-203.5 -14.5q-125 0 -248 14.5t-238 30.5l-73.5 11.5t-71.5 9.5q-78 -43 -137 -66q-53 -20 -103 -20q-80 0 -129 57q-43 51 -41 119z" />
<glyph unicode="&#x3bc;" horiz-adv-x="1628" d="M53 31q10 119 86 163t197 44h31q14 0 30 -2q82 53 173.5 123.5t175 147.5t154.5 154.5t114 147.5l84 136q43 69 77.5 138.5t59.5 137t29 133.5q8 68 -11.5 142.5t-60.5 121.5q-35 41 -87 65.5t-128 30.5q-123 -2 -209 -20.5t-144.5 -46t-91 -63.5t-49.5 -75 q-25 -57 -20 -114q2 -43 16 -66q49 4 91 -22.5t59 -75.5q18 -57 -8.5 -109.5t-83.5 -70.5q-20 -6 -41 -10.5t-39 -4.5q-63 0 -116.5 33t-92.5 92q-31 43 -49.5 98.5t-22.5 116.5q-4 57 6.5 120t38.5 126q31 74 93.5 142.5t151.5 121.5t204.5 85t253.5 32h34q18 0 37 -2 q139 -10 240.5 -62.5t173.5 -134.5q82 -98 117 -220t24 -247q-4 -92 -31.5 -180t-68.5 -172t-91 -164l-99 -159q-72 -115 -193 -242t-260 -238q72 -10 143.5 -16t141.5 -6q80 0 152.5 10t133.5 37q53 23 108.5 1t78.5 -77q23 -53 1 -108.5t-77 -79.5q-92 -39 -191.5 -53.5 t-203.5 -14.5q-125 0 -248 14.5t-238 30.5l-73.5 11.5t-71.5 9.5q-78 -43 -137 -66q-53 -20 -103 -20q-80 0 -129 57q-43 51 -41 119z" />
<glyph unicode="&#xb6;" horiz-adv-x="1472" d="M51 1622q0 76 23.5 144.5t71 119.5t119 81t165.5 30q84 0 180 1l190 2l179 2q86 1 151.5 2t104.5 2l39 1q59 0 102 -41t43 -100q0 -31 -10 -56.5t-29.5 -46t-45 -32t-54.5 -11.5h-12h-15q-8 0 -18 -2l-68 -1753q-2 -59 -46 -99t-103 -38q-31 2 -56.5 14.5t-44 32 t-28.5 46t-8 56.5l67 1737q-47 -2 -96 -2q-47 0 -96 -2l-68 -1753q-2 -59 -46 -100t-103 -37q-29 0 -54.5 12t-45 32.5t-30 47.5t-8.5 55l52 1323q-59 -35 -134 -35q-63 0 -113 34t-84 87.5t-52.5 118t-18.5 127.5z" />
<glyph unicode="&#xb7;" horiz-adv-x="450" d="M53 643q8 59 54.5 94t105.5 27l63 -8q29 -4 53.5 -19.5t41 -37t23.5 -49t3 -58.5q-8 -59 -54 -94t-105 -27l-64 8q-57 10 -93 57.5t-28 106.5z" />
<glyph unicode="&#x2219;" horiz-adv-x="450" d="M53 643q8 59 54.5 94t105.5 27l63 -8q29 -4 53.5 -19.5t41 -37t23.5 -49t3 -58.5q-8 -59 -54 -94t-105 -27l-64 8q-57 10 -93 57.5t-28 106.5z" />
<glyph unicode="&#xb9;" horiz-adv-x="999" d="M51 53q0 59 42 101.5t102 42.5h170l174 1300l-193 -129q-37 -25 -80 -25q-35 0 -65.5 16.5t-53.5 47.5q-25 37 -24 80q0 35 16.5 66.5t46.5 52.5l459 305q16 12 35.5 17t38.5 5q31 0 58.5 -12t49 -34.5t32.5 -51.5t7 -63l-215 -1575h154q59 0 101 -42t42 -102 q0 -59 -42 -101t-101 -42h-610q-59 0 -101.5 42t-42.5 101z" />
<glyph unicode="&#xba;" horiz-adv-x="970" d="M51 1446v27q0 14 2 28q10 96 29.5 157.5t40.5 98.5q23 43 49 66q14 10 33 20q14 35 38.5 72t64.5 66.5t97.5 48t135.5 18.5q16 0 33.5 -1t33.5 -3q92 -16 154.5 -66.5t99.5 -122.5q31 -59 44.5 -127.5t13.5 -134.5q0 -31 -3.5 -61.5t-7.5 -58.5q-49 -297 -272 -396 q-23 -10 -46.5 -17t-49.5 -11q-25 -4 -50.5 -6.5t-52.5 -2.5h-26q-12 0 -25 2q-90 10 -154.5 52.5t-105.5 101.5q-39 55 -57.5 121t-18.5 129zM338 1446q0 -23 5 -45.5t17 -38.5q18 -29 60 -35h18h27q12 0 22 4q10 2 18.5 4t16.5 6q82 33 105 177v2q6 35 6 73q0 35 -6 70 t-19 61q-16 31 -47 37h-20q-29 0 -44.5 -7t-23.5 -17t-10 -27q0 -53 -33 -91t-82 -48q0 -14 -3 -38t-7 -65v-22z" />
<glyph unicode="&#xbf;" horiz-adv-x="1284" d="M53 465q0 160 50.5 283.5t133 226t190.5 186.5t222 164q-29 29 -36 70t10 82q23 55 77 77.5t109 -0.5q96 -41 139 -90t43 -108q0 -23 -5 -45.5t-15 -46.5q-29 -66 -94.5 -121.5t-151.5 -116.5q-86 -59 -156.5 -116.5t-121 -122t-79 -142.5t-28.5 -180q0 -66 11 -121 t40 -98q41 -61 111.5 -87t152.5 -26q86 0 143.5 26.5t90.5 67.5q59 78 59 179q0 70 -14 79q-27 23 -40 52.5t-13 62.5q0 49 30 88q43 53 113 53q51 0 90 -30q57 -47 89 -128t32 -177q0 -94 -32 -187.5t-91 -171.5q-70 -88 -182.5 -144.5t-274.5 -56.5q-158 0 -292 62.5 t-211 181.5q-51 80 -75 175.5t-24 199.5zM649 1860q4 29 17.5 53t35 41.5t48 26t57.5 4.5l80 -9q59 -6 96 -52t31 -105t-52.5 -96t-105.5 -31l-82 10q-59 6 -96 52.5t-29 105.5z" />
<glyph unicode="&#xc0;" d="M59 -53l22 62l59 167l89 244l113 293q-51 12 -83 54t-28 95q4 59 50.5 98t103.5 35l70 -6l159.5 362.5t160.5 314.5t150.5 222t129.5 84q43 0 76.5 -43t60.5 -116.5t46 -175t33.5 -218t24 -244.5t13.5 -255q49 -14 78.5 -56.5t25.5 -95.5q-4 -45 -29.5 -78t-66.5 -47 q2 -68 2 -131v-123q0 -154 -2 -250t-2 -98q-2 -59 -45 -100t-103 -39q-57 2 -99 45t-40 102l1 49q1 49 4 132t6 191.5t5 231.5l-419 35l-111 -310l-94 -265l-65 -186l-23 -70q-20 -57 -73.5 -83t-108.5 -7q-57 18 -83 71.5t-8 108.5zM621 2351q0 47 26 82q23 29 52.5 44 t64.5 15q23 0 44 -6t40 -20l168 -117q33 -23 66 -43l63 -37q29 -16 51.5 -26.5t32.5 -10.5q59 0 101 -42t42 -101t-42 -101t-101 -42q-39 0 -94.5 21.5t-117 53t-121.5 68.5l-109 70l-77 54l-30 21q-29 20 -44 51t-15 66zM729 969l324 -27q0 25 1 49.5t1 46.5 q0 125 -6.5 228.5t-13.5 178.5t-15 116t-12 41q-16 0 -42 -45.5t-61 -128t-79 -199.5z" />
<glyph unicode="&#xc1;" d="M59 -53l22 62l59 167l89 244l113 293q-51 12 -83 54t-28 95q4 59 50.5 98t103.5 35l70 -6l159.5 362.5t160.5 314.5t150.5 222t129.5 84q43 0 76.5 -43t60.5 -116.5t46 -175t33.5 -218t24 -244.5t13.5 -255q49 -14 78.5 -56.5t25.5 -95.5q-4 -45 -29.5 -78t-66.5 -47 q2 -68 2 -131v-123q0 -154 -2 -250t-2 -98q-2 -59 -45 -100t-103 -39q-57 2 -99 45t-40 102l1 49q1 49 4 132t6 191.5t5 231.5l-419 35l-111 -310l-94 -265l-65 -186l-23 -70q-20 -57 -73.5 -83t-108.5 -7q-57 18 -83 71.5t-8 108.5zM729 969l324 -27q0 25 1 49.5t1 46.5 q0 125 -6.5 228.5t-13.5 178.5t-15 116t-12 41q-16 0 -42 -45.5t-61 -128t-79 -199.5zM748 2081q-16 57 13.5 107t86.5 67q102 27 186 68.5t145.5 80.5t95.5 68l34 29q43 37 96 36q63 0 106 -47q37 -43 37 -96q0 -63 -47 -106q-72 -63 -162 -121q-78 -49 -183 -101.5 t-234 -87.5q-57 -16 -107.5 14t-66.5 89z" />
<glyph unicode="&#xc2;" d="M59 -53l22 62l59 167l89 244l113 293q-51 12 -83 54t-28 95q4 59 50.5 98t103.5 35l70 -6l159.5 362.5t160.5 314.5t150.5 222t129.5 84q43 0 76.5 -43t60.5 -116.5t46 -175t33.5 -218t24 -244.5t13.5 -255q49 -14 78.5 -56.5t25.5 -95.5q-4 -45 -29.5 -78t-66.5 -47 q2 -68 2 -131v-123q0 -154 -2 -250t-2 -98q-2 -59 -45 -100t-103 -39q-57 2 -99 45t-40 102l1 49q1 49 4 132t6 191.5t5 231.5l-419 35l-111 -310l-94 -265l-65 -186l-23 -70q-20 -57 -73.5 -83t-108.5 -7q-57 18 -83 71.5t-8 108.5zM604 1985q0 33 13.5 62.5t41.5 51.5 l157 119l102 76l71 55q33 27 86 27q29 0 56.5 -9.5t46.5 -27.5l24 -25l64 -61l86 -81l96 -87q51 -45 51 -107q0 -53 -37 -96q-43 -49 -106 -49q-53 0 -94 35l-104 94l-91 86q-41 -29 -98 -73l-138 -103q-41 -29 -86 -29q-70 0 -114 58q-14 18 -20.5 39.5t-6.5 44.5zM729 969 l324 -27q0 25 1 49.5t1 46.5q0 125 -6.5 228.5t-13.5 178.5t-15 116t-12 41q-16 0 -42 -45.5t-61 -128t-79 -199.5z" />
<glyph unicode="&#xc3;" d="M59 -53l22 62l59 167l89 244l113 293q-51 12 -83 54t-28 95q4 59 50.5 98t103.5 35l70 -6l159.5 362.5t160.5 314.5t150.5 222t129.5 84q43 0 76.5 -43t60.5 -116.5t46 -175t33.5 -218t24 -244.5t13.5 -255q49 -14 78.5 -56.5t25.5 -95.5q-4 -45 -29.5 -78t-66.5 -47 q2 -68 2 -131v-123q0 -154 -2 -250t-2 -98q-2 -59 -45 -100t-103 -39q-57 2 -99 45t-40 102l1 49q1 49 4 132t6 191.5t5 231.5l-419 35l-111 -310l-94 -265l-65 -186l-23 -70q-20 -57 -73.5 -83t-108.5 -7q-57 18 -83 71.5t-8 108.5zM625 2140q23 82 65 148q37 55 102.5 100 t170.5 45q61 0 104 -14.5t71.5 -37t46 -53t32.5 -61.5q23 12 46 31l45 36q22 17 34 30l14 14q41 37 96 37q63 0 107 -45q20 -20 29 -46t9 -53q0 -29 -11 -55.5t-34 -46.5q-59 -55 -125 -101q-55 -39 -121.5 -69.5t-127.5 -30.5q-53 0 -88 13.5t-58.5 36t-38.5 52.5l-28 60 q-4 6 -1 11t-1 5q-16 0 -27.5 -9t-17.5 -21q-8 -14 -13 -33q-12 -59 -61 -91t-109 -20q-59 10 -90.5 59.5t-19.5 108.5zM729 969l324 -27q0 25 1 49.5t1 46.5q0 125 -6.5 228.5t-13.5 178.5t-15 116t-12 41q-16 0 -42 -45.5t-61 -128t-79 -199.5z" />
<glyph unicode="&#xc4;" d="M59 -53l22 62l59 167l89 244l113 293q-51 12 -83 54t-28 95q4 59 50.5 98t103.5 35l70 -6l159.5 362.5t160.5 314.5t150.5 222t129.5 84q43 0 76.5 -43t60.5 -116.5t46 -175t33.5 -218t24 -244.5t13.5 -255q49 -14 78.5 -56.5t25.5 -95.5q-4 -45 -29.5 -78t-66.5 -47 q2 -68 2 -131v-123q0 -154 -2 -250t-2 -98q-2 -59 -45 -100t-103 -39q-57 2 -99 45t-40 102l1 49q1 49 4 132t6 191.5t5 231.5l-419 35l-111 -310l-94 -265l-65 -186l-23 -70q-20 -57 -73.5 -83t-108.5 -7q-57 18 -83 71.5t-8 108.5zM729 969l324 -27q0 25 1 49.5t1 46.5 q0 125 -6.5 228.5t-13.5 178.5t-15 116t-12 41q-16 0 -42 -45.5t-61 -128t-79 -199.5zM764 2118l8 108q6 59 51 97t105 34q59 -4 98 -50t33 -105l-8 -107q-4 -59 -50.5 -98t-105.5 -33q-59 4 -97 49.5t-34 104.5zM1087 2118l9 108q4 59 50 97t105 34t97 -50t34 -105l-8 -107 q-6 -59 -51 -98t-104 -33q-59 4 -98.5 50.5t-33.5 103.5z" />
<glyph unicode="&#xc5;" d="M59 -53l22 62l59 167l89 244l113 293q-51 12 -83 54t-28 95q4 59 50.5 98t103.5 35l70 -6l159.5 362.5t160.5 314.5t150.5 222t129.5 84q43 0 76.5 -43t60.5 -116.5t46 -175t33.5 -218t24 -244.5t13.5 -255q49 -14 78.5 -56.5t25.5 -95.5q-4 -45 -29.5 -78t-66.5 -47 q2 -68 2 -131v-123q0 -154 -2 -250t-2 -98q-2 -59 -45 -100t-103 -39q-57 2 -99 45t-40 102l1 49q1 49 4 132t6 191.5t5 231.5l-419 35l-111 -310l-94 -265l-65 -186l-23 -70q-20 -57 -73.5 -83t-108.5 -7q-57 18 -83 71.5t-8 108.5zM729 969l324 -27q0 25 1 49.5t1 46.5 q0 125 -6.5 228.5t-13.5 178.5t-15 116t-12 41q-16 0 -42 -45.5t-61 -128t-79 -199.5zM864 2169q0 20 2 42.5t13 43.5l17 32.5t22 26.5q10 12 28 21q4 8 10.5 13t10.5 9q23 23 49 31t53 8q43 0 79 -19.5t62 -52.5q23 -29 35 -66.5t12 -76.5q0 -86 -59 -141 q-27 -25 -61.5 -40t-73.5 -15q-31 0 -64.5 9t-62.5 31q-31 23 -51.5 59t-20.5 85zM1049 2165h14q8 0 12 4q4 2 4 12v6q-8 -8 -15 -13t-15 -9z" />
<glyph unicode="&#xc6;" horiz-adv-x="2492" d="M57 16v2l37 116l43 132l54 154l63 170l31 77l30 78q-43 10 -72.5 46t-33.5 83q-4 59 35 104.5t98 49.5l96 6q86 190 181.5 366.5t192.5 313.5t193.5 219t186.5 82q66 0 106.5 -33.5t63.5 -93.5l928 51q59 4 102 -35.5t47 -99.5q2 -31 -8 -57.5t-28.5 -47t-44 -32.5 t-54.5 -14l-911 -51q-4 -104 -16.5 -232.5t-28.5 -267.5l671 51q59 4 104.5 -35t49.5 -98t-36 -104.5t-99 -49.5l-727 -55q-4 -14 -5 -28.5t-3 -28.5l-27 -200l-22 -174l-15 -134q-6 -55 -6 -80q10 -4 21.5 -7l27.5 -7q68 -12 160 -13q150 0 342 32t393 95 q57 16 109.5 -10.5t70.5 -83.5q16 -57 -10.5 -109.5t-83.5 -70.5q-219 -68 -436 -102.5t-391 -34.5q-59 0 -111.5 3t-97.5 13q-41 10 -77 21.5t-65 27.5q-82 45 -116 125q-14 37 -15 121q0 109 19.5 270.5t46.5 354.5l-391 -31l-56 -138l-51 -135l-114 -313l-43 -133 l-31 -102q-16 -57 -68.5 -86t-109.5 -13t-86 68.5t-13 107.5zM758 1059l299 22l30 275q14 133 19 239q-29 10 -47 27q-68 -92 -145.5 -239.5t-155.5 -323.5z" />
<glyph unicode="&#xc7;" horiz-adv-x="1673" d="M51 754q0 66 6 136.5t17 147.5q25 164 77 298t126.5 239.5t168 183.5t199.5 127q86 39 182.5 61.5t190.5 20.5q129 4 232.5 -19.5t181.5 -70.5q86 -49 135 -131t53 -180q4 -137 -90 -291q-20 -35 -53 -52.5t-70 -17.5q-41 0 -74 21q-35 20 -52 54t-17 71q0 39 20 73 q20 35 34.5 68t14.5 61q0 47 -51 78q-84 53 -256 49q-72 0 -133.5 -12t-126.5 -43q-152 -70 -262.5 -225.5t-147.5 -403.5q-10 -68 -15 -129t-5 -118q0 -119 20.5 -212.5t59.5 -164.5q96 -176 299 -207q41 -6 86 -6q117 0 253 40t285 119q31 16 68 17q39 0 72.5 -19.5 t54.5 -54.5q16 -33 16 -67q0 -39 -19.5 -73t-55.5 -54q-279 -145 -525 -183q39 -59 33 -141q-10 -68 -49 -129q-29 -47 -73 -91t-85 -75q-39 -29 -84 -29q-72 0 -114 62q-29 39 -29 84q0 35 15.5 64.5t43.5 50.5q16 12 33 28l33 33q-49 55 -31 129q2 4 2 8t2 8 q-158 29 -281.5 116t-201.5 235q-53 102 -83 230t-30 286z" />
<glyph unicode="&#xc8;" horiz-adv-x="1693" d="M53 987q-4 59 37 103.5t100 48.5h17l53 246l51 221l-45 -2q-59 -4 -102 36.5t-47 100.5q-4 59 37 102t100 47l129 6l8 29q14 59 64.5 89t109.5 16q43 -12 71 -45t34 -74l819 43q59 4 104 -37t47 -100q4 -59 -36.5 -102.5t-100.5 -47.5l-895 -47l-51 -215l-57 -250l630 37 q59 4 104.5 -36t47.5 -99q2 -31 -8 -57.5t-28.5 -47t-44 -33t-54.5 -14.5l-711 -41q-35 -174 -58.5 -324.5t-23.5 -236.5q0 -41 6 -63q12 -29 67.5 -43.5t141.5 -18.5q74 -2 159 6.5t173 25.5t176 43t168 58q55 23 109.5 0.5t77.5 -78.5q23 -53 0 -108t-78 -78 q-92 -39 -195.5 -69.5t-208 -51t-206 -30t-187.5 -5.5q-168 8 -291 66.5t-170 173.5l-4 12q-2 6 -4 11v4q-6 20 -8 47.5t-2 62.5q0 104 20.5 260t53.5 332q-41 14 -68 47t-31 80zM518 2374q0 47 27 82q23 29 52.5 44t64.5 15q23 0 44 -6t39 -21l168 -116q33 -23 67 -43 l62 -37q29 -16 51.5 -26.5t32.5 -10.5q59 0 101.5 -42t42.5 -102q0 -59 -42 -101t-102 -42q-39 0 -94 21.5t-116.5 53.5t-122 68.5t-108.5 69.5l-78 54l-29 22q-29 20 -44.5 51t-15.5 66z" />
<glyph unicode="&#xc9;" horiz-adv-x="1693" d="M53 987q-4 59 37 103.5t100 48.5h17l53 246l51 221l-45 -2q-59 -4 -102 36.5t-47 100.5q-4 59 37 102t100 47l129 6l8 29q14 59 64.5 89t109.5 16q43 -12 71 -45t34 -74l819 43q59 4 104 -37t47 -100q4 -59 -36.5 -102.5t-100.5 -47.5l-895 -47l-51 -215l-57 -250l630 37 q59 4 104.5 -36t47.5 -99q2 -31 -8 -57.5t-28.5 -47t-44 -33t-54.5 -14.5l-711 -41q-35 -174 -58.5 -324.5t-23.5 -236.5q0 -41 6 -63q12 -29 67.5 -43.5t141.5 -18.5q74 -2 159 6.5t173 25.5t176 43t168 58q55 23 109.5 0.5t77.5 -78.5q23 -53 0 -108t-78 -78 q-92 -39 -195.5 -69.5t-208 -51t-206 -30t-187.5 -5.5q-168 8 -291 66.5t-170 173.5l-4 12q-2 6 -4 11v4q-6 20 -8 47.5t-2 62.5q0 104 20.5 260t53.5 332q-41 14 -68 47t-31 80zM653 2097q-16 57 13.5 107.5t87.5 66.5q102 27 186 69t145.5 81t95.5 67l33 29q43 37 97 37 q63 0 106 -47q37 -43 37 -97q0 -63 -47 -106q-72 -63 -162 -121q-78 -49 -183.5 -101t-234.5 -87q-57 -16 -107.5 13.5t-66.5 88.5z" />
<glyph unicode="&#xca;" horiz-adv-x="1693" d="M53 987q-4 59 37 103.5t100 48.5h17l53 246l51 221l-45 -2q-59 -4 -102 36.5t-47 100.5q-4 59 37 102t100 47l129 6l8 29q14 59 64.5 89t109.5 16q43 -12 71 -45t34 -74l819 43q59 4 104 -37t47 -100q4 -59 -36.5 -102.5t-100.5 -47.5l-895 -47l-51 -215l-57 -250l630 37 q59 4 104.5 -36t47.5 -99q2 -31 -8 -57.5t-28.5 -47t-44 -33t-54.5 -14.5l-711 -41q-35 -174 -58.5 -324.5t-23.5 -236.5q0 -41 6 -63q12 -29 67.5 -43.5t141.5 -18.5q74 -2 159 6.5t173 25.5t176 43t168 58q55 23 109.5 0.5t77.5 -78.5q23 -53 0 -108t-78 -78 q-92 -39 -195.5 -69.5t-208 -51t-206 -30t-187.5 -5.5q-168 8 -291 66.5t-170 173.5l-4 12q-2 6 -4 11v4q-6 20 -8 47.5t-2 62.5q0 104 20.5 260t53.5 332q-41 14 -68 47t-31 80zM510 2167q0 33 13.5 62.5t41.5 51.5l157 119l101 76l72 55q33 27 86 27q29 0 56.5 -9 t45.5 -28l25 -24l63 -62l86 -81l97 -87q51 -45 51 -106q0 -53 -37 -97q-43 -49 -106 -49q-53 0 -95 35l-103 94l-91 86l-99 -72l-137 -104q-41 -29 -86 -29q-70 0 -114 58q-14 18 -20.5 39.5t-6.5 44.5z" />
<glyph unicode="&#xcb;" horiz-adv-x="1693" d="M53 987q-4 59 37 103.5t100 48.5h17l53 246l51 221l-45 -2q-59 -4 -102 36.5t-47 100.5q-4 59 37 102t100 47l129 6l8 29q14 59 64.5 89t109.5 16q43 -12 71 -45t34 -74l819 43q59 4 104 -37t47 -100q4 -59 -36.5 -102.5t-100.5 -47.5l-895 -47l-51 -215l-57 -250l630 37 q59 4 104.5 -36t47.5 -99q2 -31 -8 -57.5t-28.5 -47t-44 -33t-54.5 -14.5l-711 -41q-35 -174 -58.5 -324.5t-23.5 -236.5q0 -41 6 -63q12 -29 67.5 -43.5t141.5 -18.5q74 -2 159 6.5t173 25.5t176 43t168 58q55 23 109.5 0.5t77.5 -78.5q23 -53 0 -108t-78 -78 q-92 -39 -195.5 -69.5t-208 -51t-206 -30t-187.5 -5.5q-168 8 -291 66.5t-170 173.5l-4 12q-2 6 -4 11v4q-6 20 -8 47.5t-2 62.5q0 104 20.5 260t53.5 332q-41 14 -68 47t-31 80zM662 2169l8 108q6 59 51 97.5t104 33.5q59 -4 98.5 -50t32.5 -105l-8 -107q-4 -59 -50 -98 t-105 -33q-59 4 -97 49.5t-34 104.5zM985 2169l8 108q4 59 50.5 97.5t105.5 33.5q59 -4 97 -50t34 -105l-8 -107q-6 -59 -51 -98t-105 -33q-59 4 -98 50.5t-33 103.5z" />
<glyph unicode="&#xcc;" horiz-adv-x="1384" d="M53 41q-4 59 37 102t100 45l259 9l174 1437l-246 -2q-59 -2 -102.5 40t-43.5 102q0 59 42 101t102 42l350 4q39 16 80 14q27 -4 43 -12l342 4q59 0 101 -41t42 -100t-41 -102.5t-100 -43.5l-279 -4l-176 -1429l215 8q31 2 57.5 -8t46 -29.5t32 -45.5t12.5 -54 q4 -59 -37 -103.5t-100 -46.5l-299 -10q-45 -39 -109 -33q-41 6 -70 27l-284 -10q-59 -2 -102.5 39t-45.5 100zM313 2351q0 47 27 82q23 29 52.5 44t64.5 15q23 0 44 -6t40 -20l168 -117q33 -23 66 -43l63 -37q29 -16 51 -26.5t33 -10.5q59 0 101 -42t42 -101t-42 -101 t-101 -42q-39 0 -94.5 21.5t-117 53t-122 68.5t-108.5 70l-78 54l-29 21q-29 20 -44.5 51t-15.5 66z" />
<glyph unicode="&#xcd;" horiz-adv-x="1384" d="M53 41q-4 59 37 102t100 45l259 9l174 1437l-246 -2q-59 -2 -102.5 40t-43.5 102q0 59 42 101t102 42l350 4q39 16 80 14q27 -4 43 -12l342 4q59 0 101 -41t42 -100t-41 -102.5t-100 -43.5l-279 -4l-176 -1429l215 8q31 2 57.5 -8t46 -29.5t32 -45.5t12.5 -54 q4 -59 -37 -103.5t-100 -46.5l-299 -10q-45 -39 -109 -33q-41 6 -70 27l-284 -10q-59 -2 -102.5 39t-45.5 100zM492 2048q-16 57 13.5 107.5t86.5 66.5q102 27 186 69t145.5 80.5t95.5 67.5l34 29q43 37 96 37q63 0 106 -47q37 -43 37 -97q0 -63 -47 -106q-72 -63 -162 -121 q-78 -49 -183 -101.5t-234 -86.5q-57 -16 -107.5 13.5t-66.5 88.5z" />
<glyph unicode="&#xce;" horiz-adv-x="1384" d="M53 41q-4 59 37 102t100 45l259 9l174 1437l-246 -2q-59 -2 -102.5 40t-43.5 102q0 59 42 101t102 42l350 4q39 16 80 14q27 -4 43 -12l342 4q59 0 101 -41t42 -100t-41 -102.5t-100 -43.5l-279 -4l-176 -1429l215 8q31 2 57.5 -8t46 -29.5t32 -45.5t12.5 -54 q4 -59 -37 -103.5t-100 -46.5l-299 -10q-45 -39 -109 -33q-41 6 -70 27l-284 -10q-59 -2 -102.5 39t-45.5 100zM350 2109q0 33 13.5 63t42.5 52l156 119l102 76l71 55q33 27 86 27q29 0 56.5 -9.5t46.5 -27.5l24 -25l64 -61l86 -81l96 -87q51 -45 51 -107q0 -53 -37 -96 q-43 -49 -106 -49q-53 0 -94 35l-104 94l-91 86q-41 -29 -98 -73l-137 -103q-41 -29 -86 -29q-70 0 -115 57q-14 18 -20.5 39.5t-6.5 44.5z" />
<glyph unicode="&#xcf;" horiz-adv-x="1384" d="M53 41q-4 59 37 102t100 45l259 9l174 1437l-246 -2q-59 -2 -102.5 40t-43.5 102q0 59 42 101t102 42l350 4q39 16 80 14q27 -4 43 -12l342 4q59 0 101 -41t42 -100t-41 -102.5t-100 -43.5l-279 -4l-176 -1429l215 8q31 2 57.5 -8t46 -29.5t32 -45.5t12.5 -54 q4 -59 -37 -103.5t-100 -46.5l-299 -10q-45 -39 -109 -33q-41 6 -70 27l-284 -10q-59 -2 -102.5 39t-45.5 100zM508 2118l8 108q6 59 51 97t105 34q59 -4 98 -50t33 -105l-8 -107q-4 -59 -50.5 -98t-105.5 -33q-59 4 -97 49.5t-34 104.5zM831 2118l9 108q4 59 50 97t105 34 t97 -50t34 -105l-8 -107q-6 -59 -51 -98t-104 -33q-59 4 -98.5 50.5t-33.5 103.5z" />
<glyph unicode="&#xd1;" horiz-adv-x="1646" d="M53 57l187 1581q-4 10 -8 23l-7 29q-10 41 3.5 79.5t43.5 63.5q20 41 59.5 62.5t86.5 15.5q59 -6 96 -52.5t29 -105.5l-13 -94q25 -88 68 -224l95 -290l109 -308q56 -155 109.5 -279t98.5 -201.5t73 -77.5q23 0 45.5 66.5t42 174t38 245.5t32.5 282.5l26.5 282.5 t20.5 248l14 176l5 67q2 59 46 100t103 37t99 -48t38 -104l-5 -83q-5 -83 -16 -217t-28.5 -305t-44 -350t-61.5 -350t-79 -305.5t-100.5 -216t-123.5 -81.5q-82 0 -170 91t-177.5 241.5t-175.5 346t-161 404.5l-113 -958q-8 -59 -54 -95.5t-106 -29.5q-59 8 -96 54t-29 105z M522 2036q23 82 66 147q37 55 102.5 100.5t169.5 45.5q61 0 104.5 -14.5t72 -37t46 -53.5t31.5 -61q23 12 46 30l45 36q22 17 35 31l13 13q41 37 97 37q63 0 106 -45q20 -20 29.5 -46t9.5 -52q0 -29 -11 -55.5t-34 -47.5q-59 -55 -125 -100q-55 -39 -121.5 -69.5 t-128.5 -30.5q-53 0 -88 13t-58.5 35.5t-37.5 52.5l-29 60q-4 6 -1 11.5t-1 5.5q-16 0 -27.5 -9.5t-17.5 -21.5q-8 -14 -12 -33q-12 -59 -61.5 -91t-108.5 -19q-59 10 -91 59.5t-20 108.5z" />
<glyph unicode="&#xd2;" horiz-adv-x="1867" d="M53 762q4 184 60.5 373.5t165.5 363.5q37 55 102 66q49 109 112.5 186.5t147.5 128.5t191.5 75.5t246.5 24.5q16 0 30.5 -1t31.5 -1q190 -10 332.5 -100t226.5 -246q66 -121 93.5 -266t21.5 -305q-6 -123 -29 -251t-63 -250t-96 -231.5t-132 -195.5q-125 -139 -305 -217 t-434 -70q-109 2 -204 36t-175 92.5t-141.5 139.5t-102.5 181q-45 104 -64.5 222t-15.5 245zM340 754q-4 -98 10.5 -186.5t46.5 -164.5q49 -123 140.5 -194.5t226.5 -75.5q184 -6 309 45t207 144q55 61 100 150t77 189.5t50.5 206t20.5 203.5q4 123 -14.5 231.5t-65.5 194.5 q-47 88 -129 141.5t-189 53.5q-117 0 -204.5 -13.5t-150 -51.5t-99.5 -102.5t-53 -166.5q-8 -59 -55.5 -95t-106.5 -26q-57 -119 -87 -241.5t-34 -241.5zM621 2402q0 47 26 82q23 29 52.5 44.5t64.5 15.5q23 0 44 -6.5t40 -20.5l168 -117q33 -23 66 -43l63 -37 q29 -16 51.5 -26t32.5 -10q59 0 101 -42t42 -102q0 -59 -42 -101t-101 -42q-39 0 -94.5 21.5t-117 53t-121.5 68.5l-109 70l-77 54l-30 22q-29 20 -44 50.5t-15 65.5z" />
<glyph unicode="&#xd3;" horiz-adv-x="1867" d="M53 762q4 184 60.5 373.5t165.5 363.5q37 55 102 66q49 109 112.5 186.5t147.5 128.5t191.5 75.5t246.5 24.5q16 0 30.5 -1t31.5 -1q190 -10 332.5 -100t226.5 -246q66 -121 93.5 -266t21.5 -305q-6 -123 -29 -251t-63 -250t-96 -231.5t-132 -195.5q-125 -139 -305 -217 t-434 -70q-109 2 -204 36t-175 92.5t-141.5 139.5t-102.5 181q-45 104 -64.5 222t-15.5 245zM340 754q-4 -98 10.5 -186.5t46.5 -164.5q49 -123 140.5 -194.5t226.5 -75.5q184 -6 309 45t207 144q55 61 100 150t77 189.5t50.5 206t20.5 203.5q4 123 -14.5 231.5t-65.5 194.5 q-47 88 -129 141.5t-189 53.5q-117 0 -204.5 -13.5t-150 -51.5t-99.5 -102.5t-53 -166.5q-8 -59 -55.5 -95t-106.5 -26q-57 -119 -87 -241.5t-34 -241.5zM799 2099q-16 57 13.5 107.5t86.5 66.5q102 27 186 69t145.5 81t95.5 67l34 29q43 37 96 37q63 0 107 -47 q37 -43 36 -96q0 -63 -47 -107q-72 -63 -161 -121q-78 -49 -183.5 -101t-234.5 -87q-57 -16 -107.5 13.5t-66.5 88.5z" />
<glyph unicode="&#xd4;" horiz-adv-x="1867" d="M53 762q4 184 60.5 373.5t165.5 363.5q37 55 102 66q49 109 112.5 186.5t147.5 128.5t191.5 75.5t246.5 24.5q16 0 30.5 -1t31.5 -1q190 -10 332.5 -100t226.5 -246q66 -121 93.5 -266t21.5 -305q-6 -123 -29 -251t-63 -250t-96 -231.5t-132 -195.5q-125 -139 -305 -217 t-434 -70q-109 2 -204 36t-175 92.5t-141.5 139.5t-102.5 181q-45 104 -64.5 222t-15.5 245zM340 754q-4 -98 10.5 -186.5t46.5 -164.5q49 -123 140.5 -194.5t226.5 -75.5q184 -6 309 45t207 144q55 61 100 150t77 189.5t50.5 206t20.5 203.5q4 123 -14.5 231.5t-65.5 194.5 q-47 88 -129 141.5t-189 53.5q-117 0 -204.5 -13.5t-150 -51.5t-99.5 -102.5t-53 -166.5q-8 -59 -55.5 -95t-106.5 -26q-57 -119 -87 -241.5t-34 -241.5zM678 2138q0 33 13.5 62.5t41.5 52.5l157 119l101 75l72 56q33 27 86 26q29 0 56.5 -9t45.5 -28l25 -24l63 -62l86 -80 l97 -88q51 -45 51 -106q0 -53 -37 -96q-43 -49 -106 -49q-53 0 -95 34l-103 95l-91 86l-99 -73l-137 -104q-41 -29 -86 -28q-70 0 -114 57q-14 18 -20.5 39.5t-6.5 44.5z" />
<glyph unicode="&#xd5;" horiz-adv-x="1867" d="M53 762q4 184 60.5 373.5t165.5 363.5q37 55 102 66q49 109 112.5 186.5t147.5 128.5t191.5 75.5t246.5 24.5q16 0 30.5 -1t31.5 -1q190 -10 332.5 -100t226.5 -246q66 -121 93.5 -266t21.5 -305q-6 -123 -29 -251t-63 -250t-96 -231.5t-132 -195.5q-125 -139 -305 -217 t-434 -70q-109 2 -204 36t-175 92.5t-141.5 139.5t-102.5 181q-45 104 -64.5 222t-15.5 245zM340 754q-4 -98 10.5 -186.5t46.5 -164.5q49 -123 140.5 -194.5t226.5 -75.5q184 -6 309 45t207 144q55 61 100 150t77 189.5t50.5 206t20.5 203.5q4 123 -14.5 231.5t-65.5 194.5 q-47 88 -129 141.5t-189 53.5q-117 0 -204.5 -13.5t-150 -51.5t-99.5 -102.5t-53 -166.5q-8 -59 -55.5 -95t-106.5 -26q-57 -119 -87 -241.5t-34 -241.5zM676 2169q23 82 65 147q37 55 102.5 100.5t170.5 45.5q61 0 104 -14.5t72 -37t46 -53t32 -61.5q23 12 46 31l45 35 q22 17 35 31l13 13q41 37 96 37q63 0 107 -45q20 -20 29.5 -45.5t9.5 -52.5q0 -29 -11.5 -55.5t-33.5 -46.5q-59 -55 -125 -101q-55 -39 -122 -69.5t-128 -30.5q-53 0 -88 13t-58.5 35.5t-38.5 52.5l-28 61q-4 6 -1 11t-1 5q-16 0 -27.5 -9t-17.5 -22q-8 -14 -13 -33 q-12 -59 -61 -90.5t-109 -19.5q-59 10 -90.5 59.5t-19.5 108.5z" />
<glyph unicode="&#xd6;" horiz-adv-x="1867" d="M53 762q4 184 60.5 373.5t165.5 363.5q37 55 102 66q49 109 112.5 186.5t147.5 128.5t191.5 75.5t246.5 24.5q16 0 30.5 -1t31.5 -1q190 -10 332.5 -100t226.5 -246q66 -121 93.5 -266t21.5 -305q-6 -123 -29 -251t-63 -250t-96 -231.5t-132 -195.5q-125 -139 -305 -217 t-434 -70q-109 2 -204 36t-175 92.5t-141.5 139.5t-102.5 181q-45 104 -64.5 222t-15.5 245zM340 754q-4 -98 10.5 -186.5t46.5 -164.5q49 -123 140.5 -194.5t226.5 -75.5q184 -6 309 45t207 144q55 61 100 150t77 189.5t50.5 206t20.5 203.5q4 123 -14.5 231.5t-65.5 194.5 q-47 88 -129 141.5t-189 53.5q-117 0 -204.5 -13.5t-150 -51.5t-99.5 -102.5t-53 -166.5q-8 -59 -55.5 -95t-106.5 -26q-57 -119 -87 -241.5t-34 -241.5zM815 2169l8 108q6 59 51.5 97.5t104.5 33.5q59 -4 98 -50t33 -105l-8 -107q-4 -59 -50 -98t-106 -33q-59 4 -97 49.5 t-34 104.5zM1139 2169l8 108q4 59 50 97.5t106 33.5q59 -4 97 -50t34 -105l-9 -107q-6 -59 -51 -98t-104 -33q-59 4 -98 50.5t-33 103.5z" />
<glyph unicode="&#xd8;" horiz-adv-x="1867" d="M53 762q4 184 60.5 373.5t165.5 363.5q37 55 102 66q49 109 112.5 186.5t147.5 128.5t191.5 75.5t246.5 24.5q16 0 30.5 -1t31.5 -1q78 -4 149.5 -23.5t134.5 -51.5q92 123 123 139q43 45 105 45q57 0 98 -39q23 -20 34 -47t11 -55q0 -27 -9 -52.5t-30 -46.5l-100 -145 q12 -16 22 -34l21 -36q66 -121 93.5 -266t21.5 -305q-6 -123 -29 -251t-63 -250t-96 -231.5t-132 -195.5q-125 -139 -305 -217t-434 -70q-166 6 -305 82l-60 -88q-20 -33 -52 -50t-67 -17q-39 0 -77 22q-33 23 -49.5 55.5t-16.5 67.5q0 41 21 74q14 14 37.5 44l52.5 70 q-33 41 -59.5 88.5t-47.5 100.5q-45 104 -64.5 222t-15.5 245zM340 754q-4 -98 10.5 -186.5t46.5 -164.5q4 -10 8.5 -19t8.5 -19l200 308l222 344l222 343l204 307q-61 25 -132 25q-117 0 -204.5 -13.5t-150 -51.5t-99.5 -102.5t-53 -166.5q-8 -59 -55.5 -95t-106.5 -26 q-57 -119 -87 -241.5t-34 -241.5zM612 164q35 -14 72 -22.5t80 -8.5q184 -6 309 45t207 144q55 61 100 150t77 189.5t50.5 206t20.5 203.5q4 102 -8.5 194.5t-42.5 170.5z" />
<glyph unicode="&#xd9;" horiz-adv-x="1759" d="M53 551q0 141 17.5 291.5t43 295t56.5 272.5t57.5 225.5t43.5 154.5l18 57q18 57 70.5 85t109.5 10t84 -70.5t8 -110.5l-16 -59l-42 -159q-26 -99 -55.5 -227t-55 -264.5t-42 -272.5t-16.5 -253q0 -74 8 -136t26.5 -107t49.5 -72t76 -27q143 -2 258.5 45t207 130t159 194 t115.5 234.5t77.5 253.5t44.5 251l65 531q6 49 46 72.5t89 23.5q29 0 56.5 -7t49 -22.5t34 -38t10.5 -51.5l-215 -1759q-8 -59 -54 -96t-106 -29q-59 8 -96 54t-29 106l25 200q-68 -84 -150 -154.5t-178 -120.5t-208.5 -77.5t-243.5 -25.5q-115 2 -191 54t-122 140 t-65.5 207t-19.5 252zM569 2300q0 47 27 82q23 29 52.5 44t64.5 15q23 0 44 -6t40 -20l168 -117q33 -23 66 -43l63 -37q29 -16 51 -26.5t33 -10.5q59 0 101 -42t42 -101t-42 -101.5t-101 -42.5q-39 0 -94.5 21.5t-117 53.5t-122 69l-108.5 69l-78 55l-29 21q-29 20 -44.5 51 t-15.5 66z" />
<glyph unicode="&#xda;" horiz-adv-x="1759" d="M53 551q0 141 17.5 291.5t43 295t56.5 272.5t57.5 225.5t43.5 154.5l18 57q18 57 70.5 85t109.5 10t84 -70.5t8 -110.5l-16 -59l-42 -159q-26 -99 -55.5 -227t-55 -264.5t-42 -272.5t-16.5 -253q0 -74 8 -136t26.5 -107t49.5 -72t76 -27q143 -2 258.5 45t207 130t159 194 t115.5 234.5t77.5 253.5t44.5 251l65 531q6 49 46 72.5t89 23.5q29 0 56.5 -7t49 -22.5t34 -38t10.5 -51.5l-215 -1759q-8 -59 -54 -96t-106 -29q-59 8 -96 54t-29 106l25 200q-68 -84 -150 -154.5t-178 -120.5t-208.5 -77.5t-243.5 -25.5q-115 2 -191 54t-122 140 t-65.5 207t-19.5 252zM696 1997q-16 57 13.5 107t87.5 67q102 27 186 68.5t145.5 80.5t95.5 68l33 29q43 37 97 37q63 0 106 -48q37 -43 37 -96q0 -63 -47 -106q-72 -63 -162 -121q-78 -49 -183.5 -101.5t-234.5 -87.5q-57 -16 -107.5 14t-66.5 89z" />
<glyph unicode="&#xdb;" horiz-adv-x="1759" d="M53 551q0 141 17.5 291.5t43 295t56.5 272.5t57.5 225.5t43.5 154.5l18 57q18 57 70.5 85t109.5 10t84 -70.5t8 -110.5l-16 -59l-42 -159q-26 -99 -55.5 -227t-55 -264.5t-42 -272.5t-16.5 -253q0 -74 8 -136t26.5 -107t49.5 -72t76 -27q143 -2 258.5 45t207 130t159 194 t115.5 234.5t77.5 253.5t44.5 251l65 531q6 49 46 72.5t89 23.5q29 0 56.5 -7t49 -22.5t34 -38t10.5 -51.5l-215 -1759q-8 -59 -54 -96t-106 -29q-59 8 -96 54t-29 106l25 200q-68 -84 -150 -154.5t-178 -120.5t-208.5 -77.5t-243.5 -25.5q-115 2 -191 54t-122 140 t-65.5 207t-19.5 252zM559 2046q0 33 13.5 62.5t41.5 52.5l157 118l101 76l72 55q33 27 86 27q29 0 56.5 -9t46.5 -28l24 -24l64 -62l86 -81l96 -87q51 -45 51 -106q0 -53 -37 -96q-43 -49 -106 -50q-53 0 -94 35l-104 94l-91 86l-98 -72l-138 -104q-41 -29 -86 -28 q-70 0 -114 57q-14 18 -20.5 39.5t-6.5 44.5z" />
<glyph unicode="&#xdc;" horiz-adv-x="1759" d="M53 551q0 141 17.5 291.5t43 295t56.5 272.5t57.5 225.5t43.5 154.5l18 57q18 57 70.5 85t109.5 10t84 -70.5t8 -110.5l-16 -59l-42 -159q-26 -99 -55.5 -227t-55 -264.5t-42 -272.5t-16.5 -253q0 -74 8 -136t26.5 -107t49.5 -72t76 -27q143 -2 258.5 45t207 130t159 194 t115.5 234.5t77.5 253.5t44.5 251l65 531q6 49 46 72.5t89 23.5q29 0 56.5 -7t49 -22.5t34 -38t10.5 -51.5l-215 -1759q-8 -59 -54 -96t-106 -29q-59 8 -96 54t-29 106l25 200q-68 -84 -150 -154.5t-178 -120.5t-208.5 -77.5t-243.5 -25.5q-115 2 -191 54t-122 140 t-65.5 207t-19.5 252zM662 1987l8 108q6 59 51 97t104 34t98.5 -50t32.5 -105l-8 -107q-4 -59 -50 -98t-105 -33q-59 4 -97 49.5t-34 104.5zM985 1987l8 108q4 59 50.5 97t105.5 34t97 -50t34 -105l-8 -107q-6 -59 -51 -98t-105 -33q-59 4 -98 50.5t-33 103.5z" />
<glyph unicode="&#xdd;" horiz-adv-x="1589" d="M256 2244q-16 57 13.5 107.5t87.5 66.5q102 27 186 69t145.5 81t95.5 68l33 28q43 37 97 37q63 0 106 -47q37 -43 37 -96q0 -63 -47 -107q-72 -63 -162 -121q-78 -49 -183.5 -101t-234.5 -87q-57 -16 -107.5 13.5t-66.5 88.5zM51 1311q0 92 14.5 185t41 178t63.5 159 t80 127q23 27 51.5 40t58.5 13q51 0 91 -33q27 -23 40 -51t13 -59q0 -51 -33 -90q-29 -37 -53.5 -88.5t-42 -112.5t-27.5 -130t-10 -138q0 -76 14.5 -150t48 -131t91 -92t145.5 -35q170 12 286.5 86t188.5 189.5t104.5 260t32.5 296.5v43q0 23 -2 45v11q0 52 34 93 q38 45 97 49q6 0 12 1q52 0 94 -34q46 -38 50 -98q2 -23 2 -45v-43q0 -190 -42 -375.5t-133 -340t-232.5 -264t-340.5 -150.5l-108 -662q-10 -59 -57 -94q-36 -27 -81 -27q-13 0 -26 2q-59 10 -94 58q-27 36 -27 80q0 13 2 26l103 621q-119 23 -205 91.5t-139.5 162.5 t-79 204.5t-25.5 221.5z" />
<glyph unicode="&#xdf;" horiz-adv-x="1411" d="M53 -498l205 1981l8 39q8 39 29.5 95t62.5 122.5t106.5 124t161 95.5t224.5 38q139 0 236.5 -43t158 -117t87 -173t26.5 -210q0 -35 -2 -69.5t-6 -69.5q-18 -147 -90 -256t-168 -185q96 -74 161.5 -186.5t65.5 -265.5v-37q0 -18 -4 -39q-16 -141 -73.5 -244.5 t-140.5 -171t-186.5 -100.5t-214.5 -33q-90 0 -174 25.5t-143 87.5l-47 -436q-2 -31 -15.5 -55.5t-35 -42t-49 -26.5t-56.5 -5q-59 6 -96 52t-31 105zM414 205q31 12 63.5 8t60 -20.5t48 -42t24.5 -54.5q35 -12 88 -12q125 0 218.5 72.5t113.5 226.5q8 63 -8 115.5t-49 94.5 t-76 71.5t-88 50.5q-8 4 -12 4q-27 -8 -52 -12l-47 -9q-16 -4 -32 -4h-33q-47 0 -87 12.5t-75 47.5zM496 1001q51 35 125 41q35 2 79.5 -3t87.5 -17q47 23 93.5 53.5t84.5 70.5t65.5 91t33.5 113q4 35 6 67.5t2 63.5q0 49 -9 91t-33.5 72.5t-68.5 48t-112 17.5 q-102 0 -161.5 -41t-92.5 -90q-37 -57 -53 -133z" />
<glyph unicode="&#xe0;" horiz-adv-x="1429" d="M53 475q-2 47 0 99.5t8 111.5h2q12 111 50.5 210t96.5 181t132 145.5t156 104.5q63 35 136 52.5t144 17.5q98 -6 172 -32t131 -67l20 -15q9 -7 19 -17q37 37 101 37q31 0 59.5 -9.5t52 -26t35.5 -40t8 -53.5v-7q0 -2 -2 -6l-141 -1100q-8 -59 -54 -95t-106 -27 q-57 6 -94 53t-29 106l2 13q-78 -92 -173 -149.5t-210 -61.5q-111 0 -208 36.5t-175 133.5q-55 72 -91 171t-42 234zM340 487q8 -164 70 -237q29 -39 67.5 -51.5t79.5 -12.5q86 4 157.5 72t129 171t101.5 226t75 236q-39 18 -61.5 55t-18.5 84q0 18 -29 39 q-25 18 -61.5 29.5t-71.5 11.5q-41 0 -77.5 -11.5t-75.5 -27.5q-104 -53 -183.5 -160.5t-95.5 -255.5q-8 -92 -6 -168zM416 1812q0 47 26 82q23 29 52.5 44.5t64.5 15.5q23 0 44.5 -6t39.5 -21l168 -117q33 -23 67 -43l62 -36q29 -16 51.5 -26.5t32.5 -10.5q59 0 101 -42 t42 -102q0 -59 -42 -101t-101 -42q-39 0 -94.5 21.5t-116.5 53t-121.5 68.5t-108.5 70l-78 54l-30 22q-29 20 -44 50.5t-15 65.5z" />
<glyph unicode="&#xe1;" horiz-adv-x="1429" d="M53 475q-2 47 0 99.5t8 111.5h2q12 111 50.5 210t96.5 181t132 145.5t156 104.5q63 35 136 52.5t144 17.5q98 -6 172 -32t131 -67l20 -15q9 -7 19 -17q37 37 101 37q31 0 59.5 -9.5t52 -26t35.5 -40t8 -53.5v-7q0 -2 -2 -6l-141 -1100q-8 -59 -54 -95t-106 -27 q-57 6 -94 53t-29 106l2 13q-78 -92 -173 -149.5t-210 -61.5q-111 0 -208 36.5t-175 133.5q-55 72 -91 171t-42 234zM340 487q8 -164 70 -237q29 -39 67.5 -51.5t79.5 -12.5q86 4 157.5 72t129 171t101.5 226t75 236q-39 18 -61.5 55t-18.5 84q0 18 -29 39 q-25 18 -61.5 29.5t-71.5 11.5q-41 0 -77.5 -11.5t-75.5 -27.5q-104 -53 -183.5 -160.5t-95.5 -255.5q-8 -92 -6 -168zM512 1587q-16 57 13.5 107.5t86.5 66.5q102 27 186.5 69t146 81t94.5 67l34 29q43 37 96 37q63 0 107 -47q37 -43 37 -96q0 -63 -47 -107 q-72 -63 -162 -121q-78 -49 -183.5 -101t-234.5 -87q-57 -16 -107.5 13.5t-66.5 88.5z" />
<glyph unicode="&#xe2;" horiz-adv-x="1429" d="M53 475q-2 47 0 99.5t8 111.5h2q12 111 50.5 210t96.5 181t132 145.5t156 104.5q63 35 136 52.5t144 17.5q98 -6 172 -32t131 -67l20 -15q9 -7 19 -17q37 37 101 37q31 0 59.5 -9.5t52 -26t35.5 -40t8 -53.5v-7q0 -2 -2 -6l-141 -1100q-8 -59 -54 -95t-106 -27 q-57 6 -94 53t-29 106l2 13q-78 -92 -173 -149.5t-210 -61.5q-111 0 -208 36.5t-175 133.5q-55 72 -91 171t-42 234zM340 487q8 -164 70 -237q29 -39 67.5 -51.5t79.5 -12.5q86 4 157.5 72t129 171t101.5 226t75 236q-39 18 -61.5 55t-18.5 84q0 18 -29 39 q-25 18 -61.5 29.5t-71.5 11.5q-41 0 -77.5 -11.5t-75.5 -27.5q-104 -53 -183.5 -160.5t-95.5 -255.5q-8 -92 -6 -168zM365 1534q0 33 13 62.5t42 52.5l157 118l101 76l72 55q33 27 86 27q29 0 56.5 -9t45.5 -28l25 -24l63 -62l86 -81l96 -87q51 -45 52 -106q0 -53 -37 -96 q-43 -49 -107 -50q-53 0 -94 35l-103 94l-92 86l-98 -72l-137 -104q-41 -29 -86 -28q-70 0 -115 57q-14 18 -20 39.5t-6 44.5z" />
<glyph unicode="&#xe3;" horiz-adv-x="1429" d="M53 475q-2 47 0 99.5t8 111.5h2q12 111 50.5 210t96.5 181t132 145.5t156 104.5q63 35 136 52.5t144 17.5q98 -6 172 -32t131 -67l20 -15q9 -7 19 -17q37 37 101 37q31 0 59.5 -9.5t52 -26t35.5 -40t8 -53.5v-7q0 -2 -2 -6l-141 -1100q-8 -59 -54 -95t-106 -27 q-57 6 -94 53t-29 106l2 13q-78 -92 -173 -149.5t-210 -61.5q-111 0 -208 36.5t-175 133.5q-55 72 -91 171t-42 234zM340 487q8 -164 70 -237q29 -39 67.5 -51.5t79.5 -12.5q86 4 157.5 72t129 171t101.5 226t75 236q-39 18 -61.5 55t-18.5 84q0 18 -29 39 q-25 18 -61.5 29.5t-71.5 11.5q-41 0 -77.5 -11.5t-75.5 -27.5q-104 -53 -183.5 -160.5t-95.5 -255.5q-8 -92 -6 -168zM369 1606q23 82 65 147q37 55 102.5 100t170.5 45q61 0 104 -14t71.5 -36.5t46 -53.5t32.5 -61q23 12 46 30l45 36q22 17 34 31l14 13q41 37 96 37 q63 0 107 -45q20 -20 29 -46t9 -52q0 -29 -11 -55.5t-34 -47.5q-59 -55 -125 -100q-55 -39 -121.5 -69.5t-127.5 -30.5q-53 0 -88 13t-58.5 35.5t-38.5 52.5l-28 60q-4 6 -1 11.5t-1 5.5q-16 0 -27.5 -9.5t-17.5 -21.5q-8 -14 -13 -33q-12 -59 -61 -91t-109 -19 q-59 10 -90.5 59.5t-19.5 108.5z" />
<glyph unicode="&#xe4;" horiz-adv-x="1429" d="M53 475q-2 47 0 99.5t8 111.5h2q12 111 50.5 210t96.5 181t132 145.5t156 104.5q63 35 136 52.5t144 17.5q98 -6 172 -32t131 -67l20 -15q9 -7 19 -17q37 37 101 37q31 0 59.5 -9.5t52 -26t35.5 -40t8 -53.5v-7q0 -2 -2 -6l-141 -1100q-8 -59 -54 -95t-106 -27 q-57 6 -94 53t-29 106l2 13q-78 -92 -173 -149.5t-210 -61.5q-111 0 -208 36.5t-175 133.5q-55 72 -91 171t-42 234zM340 487q8 -164 70 -237q29 -39 67.5 -51.5t79.5 -12.5q86 4 157.5 72t129 171t101.5 226t75 236q-39 18 -61.5 55t-18.5 84q0 18 -29 39 q-25 18 -61.5 29.5t-71.5 11.5q-41 0 -77.5 -11.5t-75.5 -27.5q-104 -53 -183.5 -160.5t-95.5 -255.5q-8 -92 -6 -168zM508 1606l8 108q6 59 51 97t105 34q59 -4 98 -50t33 -105l-8 -107q-4 -59 -50.5 -98t-105.5 -33q-59 4 -97 49.5t-34 104.5zM831 1606l9 108q4 59 50 97 t105 34t97 -50t34 -105l-8 -107q-6 -59 -51 -98t-104 -33q-59 4 -98.5 50.5t-33.5 103.5z" />
<glyph unicode="&#xe5;" horiz-adv-x="1429" d="M53 475q-2 47 0 99.5t8 111.5h2q12 111 50.5 210t96.5 181t132 145.5t156 104.5q63 35 136 52.5t144 17.5q98 -6 172 -32t131 -67l20 -15q9 -7 19 -17q37 37 101 37q31 0 59.5 -9.5t52 -26t35.5 -40t8 -53.5v-7q0 -2 -2 -6l-141 -1100q-8 -59 -54 -95t-106 -27 q-57 6 -94 53t-29 106l2 13q-78 -92 -173 -149.5t-210 -61.5q-111 0 -208 36.5t-175 133.5q-55 72 -91 171t-42 234zM340 487q8 -164 70 -237q29 -39 67.5 -51.5t79.5 -12.5q86 4 157.5 72t129 171t101.5 226t75 236q-39 18 -61.5 55t-18.5 84q0 18 -29 39 q-25 18 -61.5 29.5t-71.5 11.5q-41 0 -77.5 -11.5t-75.5 -27.5q-104 -53 -183.5 -160.5t-95.5 -255.5q-8 -92 -6 -168zM631 1653q0 20 2 42.5t12 43.5q8 16 17.5 32.5t21.5 26.5q10 12 29 21q4 8 10 13t10 9q23 23 49.5 31t53.5 8q43 0 78.5 -19.5t62.5 -52.5 q23 -29 35 -66.5t12 -76.5q0 -86 -59 -141q-27 -25 -62 -40.5t-74 -15.5q-31 0 -64.5 9.5t-62.5 31.5q-31 23 -51 59t-20 85zM815 1649h14q8 0 13 4q4 2 4 12v6q-8 -8 -15.5 -13t-15.5 -9z" />
<glyph unicode="&#xe6;" horiz-adv-x="2344" d="M53 475q-2 47 0 99.5t8 111.5h2q12 111 50.5 210t96.5 181t132 145.5t156 104.5q63 35 136 52.5t144 17.5q98 -6 172 -32t131 -67l20 -15q9 -7 19 -17q37 37 101 37q29 0 59.5 -9.5t52.5 -25.5q16 10 31.5 21t34.5 22q72 43 156.5 64.5t173.5 21.5q143 0 267 -53.5 t197 -149.5q53 -70 77 -151.5t24 -168.5q0 -29 -3 -55t-7 -55q-18 -84 -87 -137.5t-165.5 -84t-211 -42t-227.5 -11.5h-61q-29 0 -57 3l-179 12q4 -53 17.5 -112.5t42 -109t71.5 -81t105 -31.5q94 0 162.5 22.5t112.5 49t66 49.5l21 22q43 53 113 54q51 0 90 -31 q53 -43 53 -113q0 -47 -30 -88l-37 -40q-37 -40 -109.5 -87t-183.5 -86t-258 -39q-100 0 -179 33t-141 90q-23 -35 -59.5 -53.5t-79.5 -13.5q-57 6 -94 53t-29 106l2 13q-78 -92 -173 -149.5t-210 -61.5q-111 0 -208 36.5t-175 133.5q-55 72 -91 171t-42 234zM340 487 q8 -164 70 -237q29 -39 67.5 -51.5t79.5 -12.5q86 4 157.5 72t129 171t101.5 226t75 236q-39 18 -61.5 55t-18.5 84q0 18 -29 39q-25 18 -61.5 29.5t-71.5 11.5q-41 0 -77.5 -11.5t-75.5 -27.5q-104 -53 -183.5 -160.5t-95.5 -255.5q-8 -92 -6 -168zM1339 788q41 -4 77 -6 l69 -4q23 -2 53 -2h70q61 0 130.5 2t128 7.5t96.5 12.5t38 19q8 53 0 109.5t-37 97.5q-35 45 -101.5 65.5t-133.5 20.5q-51 0 -98.5 -10t-88.5 -35q-78 -47 -126 -123t-77 -154z" />
<glyph unicode="&#xe7;" horiz-adv-x="1343" d="M53 528q0 84 17 179q43 242 149.5 392t251.5 226q147 74 313 74q117 0 226.5 -43t177.5 -121q102 -125 102 -293q0 -23 -2 -47.5t-6 -48.5q-10 -59 -57 -93t-107 -24q-59 10 -93 57.5t-24 106.5q4 43 -1 85t-29 71q-29 35 -81 49t-106 14q-49 0 -93 -10t-87 -33 q-90 -45 -156.5 -145.5t-95.5 -266.5l-2 -2q-6 -29 -8 -58.5t-2 -59.5q0 -70 13.5 -135.5t39.5 -114.5q31 -55 78 -88t107 -37h2q41 -4 72.5 -1t68.5 13q84 23 145.5 67t87.5 91q20 35 54 53t71 18q39 0 72 -18q35 -20 53.5 -54t18.5 -71q0 -35 -19 -70q-25 -45 -65.5 -89 t-94 -82.5t-117 -70.5t-134.5 -50q-10 -2 -17.5 -3t-17.5 -4q27 -53 20 -118q-10 -68 -49 -129q-29 -47 -73 -91.5t-85 -74.5q-39 -29 -84 -29q-72 0 -114 62q-29 39 -29 83q0 35 15.5 65t43.5 50q16 12 33 29l33 33q-49 55 -31 129q-96 31 -170.5 94t-124.5 153 q-47 86 -68.5 182.5t-21.5 198.5z" />
<glyph unicode="&#xe8;" horiz-adv-x="1386" d="M51 543q0 98 19.5 206.5t65.5 212t120 194.5t184 155q72 43 157 64.5t173 21.5q143 0 267 -53.5t198 -149.5q53 -70 76.5 -151.5t23.5 -168.5q0 -29 -3 -55t-7 -55q-18 -84 -87 -137.5t-165 -84t-210.5 -42t-227.5 -11.5h-62q-29 0 -57 3l-178 12q4 -53 17.5 -112.5 t42 -109t71.5 -81t104 -31.5q94 0 163 22.5t113 49t65 49.5l22 22q43 53 113 54q51 0 90 -31q53 -43 53 -113q0 -47 -31 -88l-37 -40q-37 -40 -109.5 -87t-183 -86t-258.5 -39q-133 0 -231 59.5t-162.5 153.5t-96.5 212t-32 235zM336 1839q0 47 26 82q23 29 52.5 44t64.5 15 q23 0 44.5 -6t39.5 -20l168 -117q33 -23 67 -43l62 -37q29 -16 51.5 -26.5t32.5 -10.5q59 0 101 -42t42 -101t-41.5 -101t-101.5 -42q-39 0 -94 21.5t-116.5 53t-122 68.5t-108.5 70l-78 54l-30 21q-29 20 -44 51t-15 66zM381 788q41 -4 77 -6l68 -4q23 -2 54 -2h69 q61 0 131 2t128.5 7.5t96 12.5t37.5 19q8 53 0 109.5t-36 97.5q-35 45 -101.5 65.5t-134.5 20.5q-51 0 -98 -10t-88 -35q-78 -47 -126 -123t-77 -154z" />
<glyph unicode="&#xe9;" horiz-adv-x="1386" d="M51 543q0 98 19.5 206.5t65.5 212t120 194.5t184 155q72 43 157 64.5t173 21.5q143 0 267 -53.5t198 -149.5q53 -70 76.5 -151.5t23.5 -168.5q0 -29 -3 -55t-7 -55q-18 -84 -87 -137.5t-165 -84t-210.5 -42t-227.5 -11.5h-62q-29 0 -57 3l-178 12q4 -53 17.5 -112.5 t42 -109t71.5 -81t104 -31.5q94 0 163 22.5t113 49t65 49.5l22 22q43 53 113 54q51 0 90 -31q53 -43 53 -113q0 -47 -31 -88l-37 -40q-37 -40 -109.5 -87t-183 -86t-258.5 -39q-133 0 -231 59.5t-162.5 153.5t-96.5 212t-32 235zM381 788q41 -4 77 -6l68 -4q23 -2 54 -2h69 q61 0 131 2t128.5 7.5t96 12.5t37.5 19q8 53 0 109.5t-36 97.5q-35 45 -101.5 65.5t-134.5 20.5q-51 0 -98 -10t-88 -35q-78 -47 -126 -123t-77 -154zM440 1536q-16 57 13.5 107.5t87.5 66.5q102 27 186 69t145.5 80.5t95.5 67.5l33 29q43 37 97 37q63 0 106 -47 q37 -43 37 -97q0 -63 -47 -106q-72 -63 -162 -121q-78 -49 -183.5 -101.5t-234.5 -86.5q-57 -16 -107.5 13.5t-66.5 88.5z" />
<glyph unicode="&#xea;" horiz-adv-x="1386" d="M51 543q0 98 19.5 206.5t65.5 212t120 194.5t184 155q72 43 157 64.5t173 21.5q143 0 267 -53.5t198 -149.5q53 -70 76.5 -151.5t23.5 -168.5q0 -29 -3 -55t-7 -55q-18 -84 -87 -137.5t-165 -84t-210.5 -42t-227.5 -11.5h-62q-29 0 -57 3l-178 12q4 -53 17.5 -112.5 t42 -109t71.5 -81t104 -31.5q94 0 163 22.5t113 49t65 49.5l22 22q43 53 113 54q51 0 90 -31q53 -43 53 -113q0 -47 -31 -88l-37 -40q-37 -40 -109.5 -87t-183 -86t-258.5 -39q-133 0 -231 59.5t-162.5 153.5t-96.5 212t-32 235zM324 1534q0 33 13 62.5t42 52.5l157 118 l101 76l72 55q33 27 86 27q29 0 56.5 -9t45.5 -28l25 -24l63 -62l86 -81l96 -87q51 -45 52 -106q0 -53 -37 -96q-43 -49 -107 -50q-53 0 -94 35l-103 94l-92 86l-98 -72l-137 -104q-41 -29 -86 -28q-70 0 -115 57q-14 18 -20 39.5t-6 44.5zM381 788q41 -4 77 -6l68 -4 q23 -2 54 -2h69q61 0 131 2t128.5 7.5t96 12.5t37.5 19q8 53 0 109.5t-36 97.5q-35 45 -101.5 65.5t-134.5 20.5q-51 0 -98 -10t-88 -35q-78 -47 -126 -123t-77 -154z" />
<glyph unicode="&#xeb;" horiz-adv-x="1386" d="M51 543q0 98 19.5 206.5t65.5 212t120 194.5t184 155q72 43 157 64.5t173 21.5q143 0 267 -53.5t198 -149.5q53 -70 76.5 -151.5t23.5 -168.5q0 -29 -3 -55t-7 -55q-18 -84 -87 -137.5t-165 -84t-210.5 -42t-227.5 -11.5h-62q-29 0 -57 3l-178 12q4 -53 17.5 -112.5 t42 -109t71.5 -81t104 -31.5q94 0 163 22.5t113 49t65 49.5l22 22q43 53 113 54q51 0 90 -31q53 -43 53 -113q0 -47 -31 -88l-37 -40q-37 -40 -109.5 -87t-183 -86t-258.5 -39q-133 0 -231 59.5t-162.5 153.5t-96.5 212t-32 235zM381 788q41 -4 77 -6l68 -4q23 -2 54 -2h69 q61 0 131 2t128.5 7.5t96 12.5t37.5 19q8 53 0 109.5t-36 97.5q-35 45 -101.5 65.5t-134.5 20.5q-51 0 -98 -10t-88 -35q-78 -47 -126 -123t-77 -154zM508 1581l8 109q6 59 51 97t105 34q59 -4 98 -50.5t33 -105.5l-8 -106q-4 -59 -50.5 -98.5t-105.5 -33.5q-59 4 -97 49.5 t-34 104.5zM831 1581l9 109q4 59 50 97t105 34t97 -50.5t34 -105.5l-8 -106q-6 -59 -51 -98.5t-104 -33.5q-59 4 -98.5 50.5t-33.5 103.5z" />
<glyph unicode="&#xec;" horiz-adv-x="571" d="M-96 1737q0 47 26 82q23 29 52.5 44t64.5 15q23 0 44.5 -6t39.5 -21l168 -116q33 -23 67 -43l62 -37q29 -16 51.5 -26.5t32.5 -10.5q59 0 101 -42t42 -101t-42 -101.5t-101 -42.5q-39 0 -94.5 21.5t-116.5 53.5t-121.5 68.5t-108.5 69.5l-78 54l-30 22q-29 20 -44 51 t-15 66zM53 66l127 1128q6 59 52.5 97t105.5 30q59 -6 96 -52t31 -106l-127 -1128q-6 -59 -52 -96t-106 -31q-59 6 -96 52.5t-31 105.5z" />
<glyph unicode="&#xed;" horiz-adv-x="571" d="M53 66l127 1128q6 59 52.5 97t105.5 30q59 -6 96 -52t31 -106l-127 -1128q-6 -59 -52 -96t-106 -31q-59 6 -96 52.5t-31 105.5zM82 1464q-16 57 13.5 107.5t86.5 66.5q102 27 186.5 69t145.5 81t95 67l34 29q43 37 96 37q63 0 107 -47q37 -43 37 -96q0 -63 -47 -107 q-72 -63 -162 -121q-78 -49 -183.5 -101t-234.5 -87q-57 -16 -107.5 13.5t-66.5 88.5z" />
<glyph unicode="&#xee;" horiz-adv-x="571" d="M-104 1421q0 33 13 62.5t42 52.5l157 119l101 76l72 55q33 27 86 26q29 0 56.5 -9t45.5 -27l25 -25l63 -61l86 -81l96 -87q51 -45 52 -107q0 -53 -37 -96q-43 -49 -107 -49q-53 0 -94 35l-103 94l-92 86q-41 -29 -98 -73l-137 -103q-41 -29 -86 -29q-70 0 -115 57 q-14 18 -20 39.5t-6 44.5zM53 66l127 1128q6 59 52.5 97t105.5 30q59 -6 96 -52t31 -106l-127 -1128q-6 -59 -52 -96t-106 -31q-59 6 -96 52.5t-31 105.5z" />
<glyph unicode="&#xef;" horiz-adv-x="571" d="M53 66l127 1128q6 59 52.5 97t105.5 30q59 -6 96 -52t31 -106l-127 -1128q-6 -59 -52 -96t-106 -31q-59 6 -96 52.5t-31 105.5zM53 1507l8 109q6 59 51.5 97t104.5 34t98 -50t33 -106l-8 -106q-4 -59 -50 -98t-106 -33q-59 4 -97 49t-34 104zM377 1507l8 109q4 59 50 97 t106 34q59 -4 97 -50t34 -106l-8 -106q-6 -59 -51.5 -98t-104.5 -33q-59 4 -98 50t-33 103z" />
<glyph unicode="&#xf1;" horiz-adv-x="1380" d="M53 47l133 1174q8 59 54.5 96t105.5 31t96 -52.5t29 -105.5l-25 -217q53 80 110.5 147.5t120 118.5t130 80t141.5 29q115 0 187.5 -57.5t115.5 -150.5t59.5 -213t16.5 -245q0 -127 -12 -249t-26.5 -218t-26.5 -156l-13 -59q-14 -59 -63 -90t-109 -19q-57 14 -89 63.5 t-19 108.5l7 33l18 87q11 54 23.5 126t23 151t17.5 159.5t7 154.5q0 61 -6 113.5t-19.5 90.5t-36 60.5t-55.5 22.5q-59 0 -117.5 -46t-113.5 -121t-104.5 -170t-92.5 -195.5t-77 -196.5l-58 -171q-25 -75 -38 -121l-13 -46q-12 -43 -48 -62.5t-77 -19.5q-31 0 -59.5 9 t-52 26.5t-36 43t-8.5 56.5zM358 1585q23 82 66 148q37 55 102.5 100t169.5 45q61 0 104.5 -14.5t72 -37t46 -53t31.5 -61.5q23 12 46 31l45 36q22 17 35 30l14 14q41 37 96 37q63 0 106 -45q20 -20 29.5 -46t9.5 -53q0 -29 -11 -55.5t-34 -46.5q-59 -55 -125 -101 q-55 -39 -121.5 -69.5t-128.5 -30.5q-53 0 -88 13.5t-58.5 36t-37.5 51.5l-29 61q-4 6 -1 11t-1 5q-16 0 -27.5 -9t-17.5 -21q-8 -14 -12 -33q-12 -59 -61.5 -91t-108.5 -20q-59 10 -91 59.5t-20 108.5z" />
<glyph unicode="&#xf2;" horiz-adv-x="1355" d="M51 449q0 113 20.5 209t48 168.5t54.5 117.5t41 55q35 25 70 31q16 51 49 107.5t89 104.5t141 80t208 32q154 0 269.5 -74t177.5 -197q47 -88 66.5 -189t19.5 -202q0 -125 -27 -244.5t-79 -222t-129 -181.5t-179 -122q-66 -29 -141.5 -42t-149.5 -13q-143 0 -256 60.5 t-184 158.5q-55 80 -82 174.5t-27 188.5zM338 449q0 -53 13.5 -104.5t41.5 -92.5q33 -47 87.5 -72.5t119.5 -25.5q49 0 92 7t86 23q61 18 106.5 72.5t75 126.5t44 153.5t14.5 155.5q0 70 -12.5 138.5t-40.5 121.5q-55 115 -193 115q-86 0 -130 -27.5t-67 -62.5 q-25 -39 -28 -90q0 -59 -43 -101.5t-103 -40.5h-20q-2 -6 -8 -36l-15 -73q-8 -42 -14 -91t-6 -96zM416 1761q0 47 26 82q23 29 52.5 44.5t64.5 15.5q23 0 44.5 -6.5t39.5 -20.5l168 -117q33 -23 67 -43l62 -37q29 -16 51.5 -26.5t32.5 -10.5q59 0 101 -41.5t42 -101.5 q0 -59 -42 -101t-101 -42q-39 0 -94.5 21.5t-116.5 53t-121.5 68.5t-108.5 70l-78 54l-30 22q-29 20 -44 50.5t-15 65.5z" />
<glyph unicode="&#xf3;" horiz-adv-x="1355" d="M51 449q0 113 20.5 209t48 168.5t54.5 117.5t41 55q35 25 70 31q16 51 49 107.5t89 104.5t141 80t208 32q154 0 269.5 -74t177.5 -197q47 -88 66.5 -189t19.5 -202q0 -125 -27 -244.5t-79 -222t-129 -181.5t-179 -122q-66 -29 -141.5 -42t-149.5 -13q-143 0 -256 60.5 t-184 158.5q-55 80 -82 174.5t-27 188.5zM338 449q0 -53 13.5 -104.5t41.5 -92.5q33 -47 87.5 -72.5t119.5 -25.5q49 0 92 7t86 23q61 18 106.5 72.5t75 126.5t44 153.5t14.5 155.5q0 70 -12.5 138.5t-40.5 121.5q-55 115 -193 115q-86 0 -130 -27.5t-67 -62.5 q-25 -39 -28 -90q0 -59 -43 -101.5t-103 -40.5h-20q-2 -6 -8 -36l-15 -73q-8 -42 -14 -91t-6 -96zM440 1536q-16 57 13.5 107.5t87.5 66.5q102 27 186 69t145.5 80.5t95.5 67.5l33 29q43 37 97 37q63 0 106 -47q37 -43 37 -97q0 -63 -47 -106q-72 -63 -162 -121 q-78 -49 -183.5 -101.5t-234.5 -86.5q-57 -16 -107.5 13.5t-66.5 88.5z" />
<glyph unicode="&#xf4;" horiz-adv-x="1355" d="M51 449q0 113 20.5 209t48 168.5t54.5 117.5t41 55q35 25 70 31q16 51 49 107.5t89 104.5t141 80t208 32q154 0 269.5 -74t177.5 -197q47 -88 66.5 -189t19.5 -202q0 -125 -27 -244.5t-79 -222t-129 -181.5t-179 -122q-66 -29 -141.5 -42t-149.5 -13q-143 0 -256 60.5 t-184 158.5q-55 80 -82 174.5t-27 188.5zM326 1473q0 33 13 62.5t42 51.5l157 119l101 76l72 55q33 27 86 27q29 0 56.5 -9.5t45.5 -27.5l25 -25l63 -61l86 -81l96 -87q51 -45 52 -107q0 -53 -37 -96q-43 -49 -107 -49q-53 0 -94 35l-103 94l-92 86q-41 -29 -98 -73 l-137 -103q-41 -29 -86 -29q-70 0 -115 58q-14 18 -20 39.5t-6 44.5zM338 449q0 -53 13.5 -104.5t41.5 -92.5q33 -47 87.5 -72.5t119.5 -25.5q49 0 92 7t86 23q61 18 106.5 72.5t75 126.5t44 153.5t14.5 155.5q0 70 -12.5 138.5t-40.5 121.5q-55 115 -193 115 q-86 0 -130 -27.5t-67 -62.5q-25 -39 -28 -90q0 -59 -43 -101.5t-103 -40.5h-20q-2 -6 -8 -36l-15 -73q-8 -42 -14 -91t-6 -96z" />
<glyph unicode="&#xf5;" horiz-adv-x="1355" d="M51 449q0 113 20.5 209t48 168.5t54.5 117.5t41 55q35 25 70 31q16 51 49 107.5t89 104.5t141 80t208 32q154 0 269.5 -74t177.5 -197q47 -88 66.5 -189t19.5 -202q0 -125 -27 -244.5t-79 -222t-129 -181.5t-179 -122q-66 -29 -141.5 -42t-149.5 -13q-143 0 -256 60.5 t-184 158.5q-55 80 -82 174.5t-27 188.5zM317 1579q23 82 66 147q37 55 102.5 100.5t169.5 45.5q61 0 104.5 -14.5t72 -37t46 -53t31.5 -61.5q23 12 46 31l45 36q22 17 35 30l14 14q41 37 96 36q63 0 106 -45q20 -20 29.5 -45.5t9.5 -52.5q0 -29 -11 -55.5t-34 -46.5 q-59 -55 -125 -101q-55 -39 -121.5 -69.5t-128.5 -30.5q-53 0 -87.5 13.5t-58.5 36t-38 51.5l-29 61q-4 6 -1 11t-1 5q-16 0 -27.5 -9t-17.5 -22q-8 -14 -12 -32q-12 -59 -61.5 -91t-108.5 -20q-59 10 -91 59.5t-20 108.5zM338 449q0 -53 13.5 -104.5t41.5 -92.5 q33 -47 87.5 -72.5t119.5 -25.5q49 0 92 7t86 23q61 18 106.5 72.5t75 126.5t44 153.5t14.5 155.5q0 70 -12.5 138.5t-40.5 121.5q-55 115 -193 115q-86 0 -130 -27.5t-67 -62.5q-25 -39 -28 -90q0 -59 -43 -101.5t-103 -40.5h-20q-2 -6 -8 -36l-15 -73q-8 -42 -14 -91 t-6 -96z" />
<glyph unicode="&#xf6;" horiz-adv-x="1355" d="M51 449q0 113 20.5 209t48 168.5t54.5 117.5t41 55q35 25 70 31q16 51 49 107.5t89 104.5t141 80t208 32q154 0 269.5 -74t177.5 -197q47 -88 66.5 -189t19.5 -202q0 -125 -27 -244.5t-79 -222t-129 -181.5t-179 -122q-66 -29 -141.5 -42t-149.5 -13q-143 0 -256 60.5 t-184 158.5q-55 80 -82 174.5t-27 188.5zM338 449q0 -53 13.5 -104.5t41.5 -92.5q33 -47 87.5 -72.5t119.5 -25.5q49 0 92 7t86 23q61 18 106.5 72.5t75 126.5t44 153.5t14.5 155.5q0 70 -12.5 138.5t-40.5 121.5q-55 115 -193 115q-86 0 -130 -27.5t-67 -62.5 q-25 -39 -28 -90q0 -59 -43 -101.5t-103 -40.5h-20q-2 -6 -8 -36l-15 -73q-8 -42 -14 -91t-6 -96zM485 1554l9 109q6 59 51 97t104 34t98 -50t33 -106l-8 -106q-4 -59 -50 -98t-106 -33q-59 4 -97 49t-34 104zM809 1554l8 109q4 59 50 97t106 34q59 -4 97 -50t34 -106 l-8 -106q-6 -59 -51.5 -98t-104.5 -33q-59 4 -98 50t-33 103z" />
<glyph unicode="&#xf8;" horiz-adv-x="1355" d="M51 449q0 113 20.5 209t48 168.5t54.5 117.5t41 55q35 25 70 31q16 51 49 107.5t89 104.5t141 80t208 32q113 0 213 -45q35 47 62.5 76.5t44.5 37.5q43 45 104 45q57 0 98 -38q23 -20 34 -47t11 -56q0 -27 -9 -52.5t-30 -45.5l-90 -131q2 -4 4.5 -7.5t4.5 -7.5 q47 -88 66.5 -189t19.5 -202q0 -125 -27 -244.5t-79 -222t-129 -181.5t-179 -122q-66 -29 -141.5 -42t-149.5 -13q-55 0 -106.5 10t-98.5 27l-53 -80q-20 -33 -52 -50.5t-67 -17.5q-39 0 -78 23q-33 23 -49 55.5t-16 67.5q0 41 20 73l33 39l41 52q-4 4 -7 10t-7 10 q-55 80 -82 174.5t-27 188.5zM338 449q0 -29 3 -58t13 -57l112 177l119 188l118 189l112 175q-10 2 -21.5 3t-21.5 1q-86 0 -130 -27.5t-67 -62.5q-25 -39 -28 -90q0 -59 -43 -101.5t-103 -40.5h-20q-2 -6 -8 -36l-15 -73q-8 -42 -14 -91t-6 -96zM567 154h33q49 0 92 7 t86 23q61 18 106.5 72.5t75 126.5t44 153.5t14.5 155.5q0 29 -2 55.5t-6 55.5z" />
<glyph unicode="&#xf9;" horiz-adv-x="1253" d="M53 397q0 94 9.5 191.5t24.5 188.5t31.5 171t32 140.5t25.5 95.5l10 35q16 57 67.5 84.5t111.5 11.5q55 -16 83.5 -68.5t12.5 -109.5l-12 -41q-12 -41 -30 -109l-38 -153q-20 -86 -38.5 -176.5t-30 -176.5t-11.5 -153q0 -70 15.5 -112t52.5 -42q51 0 102 45t99 119 t93.5 168t84 192.5t70.5 192.5t54.5 168t34.5 119l13 45q10 43 45.5 62.5t78.5 19.5q31 0 60 -9.5t52.5 -27t35.5 -42t8 -55.5l-125 -1155q-6 -59 -52 -96t-105 -31t-96.5 51.5t-30.5 104.5l18 178q-45 -72 -96 -133t-106.5 -106t-115 -71t-122.5 -26q-92 0 -152.5 41 t-97.5 111t-51.5 163t-14.5 195zM211 1737q0 47 27 82q23 29 52 44t64 15q23 0 44.5 -6t39.5 -21l168 -116q33 -23 67 -43l62 -37q29 -16 51.5 -26.5t32.5 -10.5q59 0 101.5 -42t42.5 -101t-42 -101.5t-102 -42.5q-39 0 -94 21.5t-116.5 53.5t-122 68.5t-108.5 69.5l-78 54 l-30 22q-29 20 -44 51t-15 66z" />
<glyph unicode="&#xfa;" horiz-adv-x="1253" d="M53 397q0 94 9.5 191.5t24.5 188.5t31.5 171t32 140.5t25.5 95.5l10 35q16 57 67.5 84.5t111.5 11.5q55 -16 83.5 -68.5t12.5 -109.5l-12 -41q-12 -41 -30 -109l-38 -153q-20 -86 -38.5 -176.5t-30 -176.5t-11.5 -153q0 -70 15.5 -112t52.5 -42q51 0 102 45t99 119 t93.5 168t84 192.5t70.5 192.5t54.5 168t34.5 119l13 45q10 43 45.5 62.5t78.5 19.5q31 0 60 -9.5t52.5 -27t35.5 -42t8 -55.5l-125 -1155q-6 -59 -52 -96t-105 -31t-96.5 51.5t-30.5 104.5l18 178q-45 -72 -96 -133t-106.5 -106t-115 -71t-122.5 -26q-92 0 -152.5 41 t-97.5 111t-51.5 163t-14.5 195zM389 1485q-16 57 13.5 107t86.5 67q102 27 186.5 68.5t146 80.5t94.5 68l34 29q43 37 97 37q63 0 106 -48q37 -43 37 -96q0 -63 -47 -106q-72 -63 -162 -121q-78 -49 -183.5 -101.5t-234.5 -87.5q-57 -16 -107.5 14t-66.5 89z" />
<glyph unicode="&#xfb;" horiz-adv-x="1253" d="M53 397q0 94 9.5 191.5t24.5 188.5t31.5 171t32 140.5t25.5 95.5l10 35q16 57 67.5 84.5t111.5 11.5q55 -16 83.5 -68.5t12.5 -109.5l-12 -41q-12 -41 -30 -109l-38 -153q-20 -86 -38.5 -176.5t-30 -176.5t-11.5 -153q0 -70 15.5 -112t52.5 -42q51 0 102 45t99 119 t93.5 168t84 192.5t70.5 192.5t54.5 168t34.5 119l13 45q10 43 45.5 62.5t78.5 19.5q31 0 60 -9.5t52.5 -27t35.5 -42t8 -55.5l-125 -1155q-6 -59 -52 -96t-105 -31t-96.5 51.5t-30.5 104.5l18 178q-45 -72 -96 -133t-106.5 -106t-115 -71t-122.5 -26q-92 0 -152.5 41 t-97.5 111t-51.5 163t-14.5 195zM268 1497q0 33 13.5 62.5t42.5 52.5l156 119l102 75l71 56q33 27 86 26q29 0 56.5 -9t46.5 -28l24 -24l64 -62l86 -81l96 -87q51 -45 51 -106q0 -53 -37 -96q-43 -49 -106 -49q-53 0 -94 34l-104 95l-91 86q-41 -29 -98 -73l-137 -104 q-41 -29 -86 -28q-70 0 -115 57q-14 18 -20.5 39.5t-6.5 44.5z" />
<glyph unicode="&#xfc;" horiz-adv-x="1253" d="M53 397q0 94 9.5 191.5t24.5 188.5t31.5 171t32 140.5t25.5 95.5l10 35q16 57 67.5 84.5t111.5 11.5q55 -16 83.5 -68.5t12.5 -109.5l-12 -41q-12 -41 -30 -109l-38 -153q-20 -86 -38.5 -176.5t-30 -176.5t-11.5 -153q0 -70 15.5 -112t52.5 -42q51 0 102 45t99 119 t93.5 168t84 192.5t70.5 192.5t54.5 168t34.5 119l13 45q10 43 45.5 62.5t78.5 19.5q31 0 60 -9.5t52.5 -27t35.5 -42t8 -55.5l-125 -1155q-6 -59 -52 -96t-105 -31t-96.5 51.5t-30.5 104.5l18 178q-45 -72 -96 -133t-106.5 -106t-115 -71t-122.5 -26q-92 0 -152.5 41 t-97.5 111t-51.5 163t-14.5 195zM406 1477l8 108q6 59 51 97t104 34t98.5 -50t32.5 -105l-8 -107q-4 -59 -50 -98t-105 -33q-59 4 -97 49.5t-34 104.5zM729 1477l8 108q4 59 50.5 97t105.5 34t97 -50t34 -105l-8 -107q-6 -59 -51 -98t-105 -33q-59 4 -98 50.5t-33 103.5z " />
<glyph unicode="&#xfd;" horiz-adv-x="1318" d="M163 1603q-16 57 13.5 107.5t87.5 66.5q102 27 186 69t145.5 81t95.5 68l33 28q43 37 97 37q63 0 106 -47q37 -43 37 -96q0 -63 -47 -107q-72 -63 -162 -121q-78 -49 -183.5 -101t-234.5 -87q-57 -16 -107.5 13.5t-66.5 88.5zM53 -725q0 37 19 72l103 182l101 189l97 187 l88 175q-5 -1 -11 -1q-29 0 -58 29q-34 34 -64.5 93t-57 137t-45.5 158q-20 84 -38.5 177t-33 188t-21.5 188.5t-7 179.5q0 59 42 101t101 42t101.5 -42t42.5 -101q0 -76 4 -162t14 -173t27.5 -172t44.5 -159q23 -66 35 -114t20 -37q31 45 66 103l71 122l73 130l69 130 l45 108l37 89l49 116t48.5 82.5t58.5 44.5q17 7 39 7q18 0 38 -5q115 -25 115 -129q0 -25 -6 -55q-10 -47 -50.5 -137t-99.5 -205l-137 -319l-180 -392l-220 -437q-119 -228 -254 -462q-20 -35 -53 -53t-69 -18q-39 0 -72 20q-35 20 -53.5 53t-18.5 70z" />
<glyph unicode="&#xff;" horiz-adv-x="1318" d="M53 -725q0 37 19 72l103 182l101 189l97 187l88 175q-35 -6 -69 27.5t-64.5 93t-57 137.5t-45.5 158q-20 84 -38.5 177t-33 188t-21.5 188.5t-7 179.5q0 59 42 101t101 42t101.5 -42t42.5 -101q0 -76 4 -162t14 -173t27.5 -172t44.5 -159q23 -66 35 -114t20 -37 q31 45 66 103l71 122l73 130l69 130l45 108l37 89l49 116t48.5 82.5t58.5 45t77 1.5q143 -31 109 -184q-10 -47 -50.5 -137t-99.5 -205l-137 -319l-180 -392l-220 -437q-119 -228 -254 -462q-20 -35 -53 -53t-69 -18q-39 0 -72 20q-35 20 -53.5 53t-18.5 70zM406 1528l8 108 q6 59 51 97.5t104 33.5q59 -4 98.5 -50t32.5 -105l-8 -107q-4 -59 -50 -98t-105 -33q-59 4 -97 49.5t-34 104.5zM729 1528l8 108q4 59 50.5 97.5t105.5 33.5q59 -4 97 -50t34 -105l-8 -107q-6 -59 -51 -98t-105 -33q-59 4 -98 50.5t-33 103.5z" />
<glyph unicode="&#x152;" horiz-adv-x="2465" d="M51 780q0 37 2 76t6 80v2q8 68 22.5 132.5t35.5 127.5q37 117 90 232q16 33 42.5 53t61.5 26q2 10 4 18.5t4 18.5q12 37 26.5 71t31.5 62q45 78 106.5 133.5t133 90t151.5 51t160 16.5q104 0 185 -24.5t142 -71.5q4 0 8.5 1t8.5 1l78 4l6 25q12 59 61 91t107 21 q45 -10 74.5 -42.5t37.5 -76.5l625 41q59 4 103 -35.5t49 -99.5q4 -59 -35 -103t-99 -48l-692 -45l-42 -215q-24 -119 -46 -248l473 33q59 4 104.5 -35t49.5 -99q4 -57 -35 -103t-98 -50l-543 -39q-8 -66 -17.5 -130.5t-21.5 -125.5q-12 -94 -19.5 -173t-7.5 -134 q0 -47 7 -72q2 -2 2 -4q18 -33 102 -45q16 -4 35 -4h37q102 0 219 31q66 16 131 40.5t129 57.5q33 16 65 16q41 0 75 -20.5t52 -57.5q16 -33 17 -65q0 -39 -20.5 -74t-57.5 -53q-78 -41 -160 -71.5t-159 -51.5q-76 -18 -149 -28.5t-140 -10.5q-31 0 -58.5 2t-56.5 6 q-96 14 -171 53t-122 105q-78 -78 -185.5 -120t-254.5 -42q-14 0 -28.5 1t-30.5 3q-141 16 -257 94t-196 207q-76 119 -117 269.5t-41 324.5zM338 780q0 -131 28.5 -242.5t82.5 -197.5q47 -72 108 -117t133 -53q6 0 13.5 -1t17.5 -1q123 0 197.5 51t121.5 137 q47 94 76 222.5t45 275.5q-31 16 -50 47t-24 70q-4 53 26 93t77 54q4 35 4 70v67q0 76 -7 141.5t-26 119.5q-25 78 -80 122.5t-153 44.5q-92 0 -174 -33.5t-129 -113.5q-10 -16 -17.5 -33.5t-11.5 -38.5q-12 -39 -18 -98q-4 -57 -46.5 -95t-99.5 -36l-21 -59l-22 -64 q-16 -49 -27.5 -101.5t-17.5 -105.5q-6 -62 -6 -125z" />
<glyph unicode="&#x153;" horiz-adv-x="2357" d="M51 449q0 113 20.5 209t48 168.5t54.5 117.5t41 55q35 25 70 31q16 51 49 107.5t89 104.5t141 80t208 32q141 0 251 -63.5t175 -170.5q41 55 94.5 103.5t118.5 87.5q72 43 157 64.5t173 21.5q143 0 267 -53.5t198 -149.5q53 -70 76.5 -151.5t23.5 -168.5q0 -29 -3 -55 t-7 -55q-18 -84 -87 -137.5t-165 -84t-211 -42t-227 -11.5h-62q-29 0 -57 3l-178 12q4 -53 17 -112.5t42 -109t72 -81t104 -31.5q94 0 163 22.5t113 49t65 49.5l22 22q43 53 112 54q51 0 90 -31q53 -43 54 -113q0 -47 -31 -88l-37 -40q-37 -40 -109.5 -87t-183 -86 t-258.5 -39q-143 0 -244.5 65.5t-166.5 170.5q-47 -66 -107.5 -115t-134.5 -82q-66 -29 -141.5 -42t-149.5 -13q-143 0 -256 60.5t-184 158.5q-55 80 -82 174.5t-27 188.5zM338 449q0 -53 13.5 -104.5t41.5 -92.5q33 -47 87.5 -72.5t119.5 -25.5q49 0 92 7t86 23 q61 18 106.5 72.5t75 126.5t44 153.5t14.5 155.5q0 70 -12.5 138.5t-40.5 121.5q-55 115 -193 115q-86 0 -130 -27.5t-67 -62.5q-25 -39 -28 -90q0 -59 -43 -101.5t-103 -40.5h-20q-2 -6 -8 -36l-15 -73q-8 -42 -14 -91t-6 -96zM1352 788q41 -4 76 -6l69 -4q23 -2 53 -2h70 q61 0 131 2t128 7.5t96 12.5t38 19q8 53 0 109.5t-37 97.5q-35 45 -101.5 65.5t-133.5 20.5q-51 0 -98.5 -10t-88.5 -35q-78 -47 -125.5 -123t-76.5 -154z" />
<glyph unicode="&#x178;" horiz-adv-x="1589" d="M51 1311q0 92 14.5 185t41 178t63.5 159t80 127q23 27 51.5 40t58.5 13q51 0 91 -33q27 -23 40 -51t13 -59q0 -51 -33 -90q-29 -37 -53.5 -88.5t-42 -112.5t-27.5 -130t-10 -138q0 -76 14.5 -150t48 -131t91 -92t145.5 -35q170 12 286.5 86t188.5 189.5t104.5 260 t32.5 296.5v43q0 23 -2 45q-4 59 34 104t97 49t105.5 -33.5t50.5 -97.5q2 -23 2 -45v-43q0 -190 -42 -375.5t-133 -340t-232.5 -264t-340.5 -150.5l-108 -662q-10 -59 -57.5 -94t-106.5 -25t-94 57.5t-25 106.5l103 621q-119 23 -205 91.5t-139.5 162.5t-79 204.5 t-25.5 221.5zM582 2015l8 109q6 59 51 97t104 34t98.5 -50t33.5 -106l-9 -106q-4 -59 -50 -98.5t-105 -32.5q-59 4 -97 49t-34 104zM905 2015l8 109q4 59 50.5 97t105.5 34t97 -50t34 -106l-8 -106q-6 -59 -51 -98.5t-105 -32.5q-59 4 -98 50t-33 103z" />
<glyph unicode="&#x2c6;" horiz-adv-x="999" d="M53 1421q0 33 13.5 62.5t42.5 52.5l156 119l102 76l71 55q33 27 86 26q29 0 56.5 -9t46.5 -27l24 -25l64 -61l86 -81l96 -87q51 -45 51 -107q0 -53 -37 -96q-43 -49 -106 -49q-53 0 -94 35l-104 94l-91 86q-41 -29 -98 -73l-137 -103q-41 -29 -86 -29q-70 0 -115 57 q-14 18 -20.5 39.5t-6.5 44.5z" />
<glyph unicode="&#x2000;" horiz-adv-x="1349" />
<glyph unicode="&#x2001;" horiz-adv-x="2701" />
<glyph unicode="&#x2002;" horiz-adv-x="1349" />
<glyph unicode="&#x2003;" horiz-adv-x="2701" />
<glyph unicode="&#x2004;" horiz-adv-x="899" />
<glyph unicode="&#x2005;" horiz-adv-x="673" />
<glyph unicode="&#x2006;" horiz-adv-x="448" />
<glyph unicode="&#x2007;" horiz-adv-x="448" />
<glyph unicode="&#x2008;" horiz-adv-x="335" />
<glyph unicode="&#x2009;" horiz-adv-x="538" />
<glyph unicode="&#x200a;" horiz-adv-x="149" />
<glyph unicode="&#x2010;" horiz-adv-x="1212" d="M53 612q-2 59 40 101.5t102 44.5l821 4q59 2 101 -40t44 -101q0 -59 -41 -101.5t-100 -44.5l-823 -4q-59 -2 -102.5 40t-41.5 101z" />
<glyph unicode="&#x2011;" horiz-adv-x="1212" d="M53 612q-2 59 40 101.5t102 44.5l821 4q59 2 101 -40t44 -101q0 -59 -41 -101.5t-100 -44.5l-823 -4q-59 -2 -102.5 40t-41.5 101z" />
<glyph unicode="&#x2012;" horiz-adv-x="1212" d="M53 612q-2 59 40 101.5t102 44.5l821 4q59 2 101 -40t44 -101q0 -59 -41 -101.5t-100 -44.5l-823 -4q-59 -2 -102.5 40t-41.5 101z" />
<glyph unicode="&#x2013;" horiz-adv-x="1380" d="M53 612q-2 59 40 101.5t102 44.5h987q59 2 101 -40t44 -102q0 -59 -41 -101t-100 -44h-989q-59 -2 -102.5 40t-41.5 101z" />
<glyph unicode="&#x2014;" horiz-adv-x="1937" d="M53 612q-2 59 40 101.5t102 44.5l1546 6q59 2 101 -40t44 -101q0 -59 -41 -101.5t-100 -44.5l-1548 -6q-59 -2 -102.5 40t-41.5 101z" />
<glyph unicode="&#x2018;" horiz-adv-x="514" d="M51 1450q2 33 10.5 66.5t24.5 66.5q23 49 60.5 99.5t74.5 84.5q37 33 80 39q35 4 66.5 -8t54.5 -39q35 -35 39 -80q4 -35 -6.5 -66.5t-38.5 -53.5q-16 -14 -30 -33l-28 -37q27 -23 39.5 -55.5t8.5 -69.5q-8 -57 -56.5 -93t-107.5 -28q-57 8 -101 37q-47 31 -66.5 74 t-23.5 96z" />
<glyph unicode="&#x2019;" horiz-adv-x="514" d="M53 1356q-4 35 6.5 66.5t38.5 54.5q16 14 30 32l28 37q-27 23 -39.5 55.5t-7.5 69.5q4 29 19 52.5t36.5 40t49.5 24.5t58 4q57 -8 101 -37q47 -31 66.5 -74t23.5 -96q-2 -33 -10.5 -66.5t-24.5 -66.5q-23 -49 -60.5 -99t-74.5 -85q-37 -33 -80 -39q-35 -4 -66.5 8 t-54.5 39q-35 35 -39 80z" />
<glyph unicode="&#x201a;" horiz-adv-x="538" d="M51 -272q0 35 15.5 64.5t44.5 49.5q16 12 32 29l33 33q-49 55 -31 129q16 57 66.5 87t110.5 13q53 -14 96 -47q41 -37 56 -82t11 -98q-10 -68 -49 -129q-29 -47 -73 -91t-84 -75q-39 -29 -84 -29q-72 0 -115 62q-29 39 -29 84z" />
<glyph unicode="&#x201c;" horiz-adv-x="985" d="M51 1450q2 33 10.5 66.5t24.5 66.5q23 49 60.5 99.5t74.5 84.5q37 33 80 39q35 4 66.5 -8t54.5 -39q35 -35 39 -80q4 -35 -6.5 -66.5t-38.5 -53.5q-16 -14 -30 -33l-28 -37q27 -23 39.5 -55.5t8.5 -69.5q-8 -57 -56.5 -93t-107.5 -28q-57 8 -101 37q-47 31 -66.5 74 t-23.5 96zM500 1470q10 68 49 129q29 47 73 91.5t85 74.5q39 29 84 29q72 0 114 -61q29 -39 29 -84q0 -35 -15.5 -65t-44.5 -50q-16 -12 -32 -29l-33 -32q49 -55 31 -130q-16 -57 -66.5 -86.5t-109.5 -13.5q-53 14 -97 47q-41 37 -56 82t-11 98z" />
<glyph unicode="&#x201d;" horiz-adv-x="985" d="M51 1386q0 35 15.5 65t44.5 50q16 12 32 29l33 33q-49 55 -31 129q16 57 66.5 86.5t110.5 13.5q53 -14 96 -47q41 -37 56 -82t11 -98q-10 -68 -49 -129q-29 -47 -73 -91.5t-84 -74.5q-39 -29 -84 -29q-72 0 -115 62q-29 38 -29 83zM524 1356q-4 35 6.5 66.5t38.5 54.5 q16 14 30 32l28 37q-27 23 -39.5 55.5t-7.5 69.5q4 29 19 52.5t36.5 40t49.5 24.5t58 4q57 -8 101 -37q47 -31 66.5 -74t23.5 -96q-2 -33 -10.5 -66.5t-24.5 -66.5q-23 -49 -60.5 -99t-74.5 -85q-37 -33 -80 -39q-35 -4 -66.5 8t-54.5 39q-35 35 -39 80z" />
<glyph unicode="&#x201e;" horiz-adv-x="985" d="M51 -254q0 35 15.5 64.5t44.5 50.5q16 12 32 28l33 33q-49 55 -31 129q16 57 66.5 87t110.5 14q53 -14 96 -48q41 -37 56 -82t11 -98q-10 -68 -49 -129q-29 -47 -73 -91t-84 -75q-39 -29 -84 -28q-72 0 -115 61q-29 39 -29 84zM524 -285q-4 35 6.5 67t38.5 54 q16 14 30 33l28 37q-27 23 -39.5 55.5t-7.5 69.5q4 29 19 52t36.5 39.5t49.5 25t58 4.5q57 -8 101 -37q47 -31 66.5 -74t23.5 -96q-2 -33 -10.5 -67t-24.5 -66q-23 -49 -60.5 -99.5t-74.5 -85.5q-37 -33 -80 -39q-35 -4 -66.5 8.5t-54.5 38.5q-35 35 -39 80z" />
<glyph unicode="&#x2022;" horiz-adv-x="757" d="M51 639q0 66 30 124t78 103t107.5 71t120.5 26q53 0 97 -31t55 -84q76 -33 119.5 -97.5t48.5 -152.5v-2q0 -63 -25 -117.5t-68 -95.5t-102 -64.5t-127 -23.5q-66 0 -126 28.5t-106.5 77t-74 110.5t-27.5 128z" />
<glyph unicode="&#x2026;" horiz-adv-x="1335" d="M53 14q0 29 12.5 54.5t33 44t46 29t56.5 10.5l63 -2q59 -4 99 -48.5t36 -103.5q-2 -59 -44 -99t-101 -36h-64q-59 4 -100 48t-37 103zM498 25q6 59 51 96t104 33l64 -7q29 -2 54.5 -16t42.5 -35.5t25.5 -48.5t4.5 -57q-4 -59 -49 -96t-105 -33l-63 6q-59 6 -97 52.5 t-32 105.5zM938 20q8 59 54 94.5t106 26.5l63 -8q29 -4 53.5 -19.5t41 -37t23.5 -49t3 -58.5q-8 -59 -54 -94t-106 -27l-63 9q-29 4 -53.5 19t-41 36.5t-23.5 49t-3 58.5z" />
<glyph unicode="&#x202f;" horiz-adv-x="538" />
<glyph unicode="&#x2039;" horiz-adv-x="1712" d="M53 627q-2 47 58.5 103t160 116.5t226.5 123t260 120.5l261 107l228 88l162 60l61 21q55 18 108.5 -7.5t74.5 -82.5q18 -55 -7.5 -108.5t-82.5 -73.5l-52 -19l-133 -48l-186 -69l-213 -80l-212 -83l-185 -75q-82 -34 -131.5 -57.5t-49.5 -31.5q0 -6 46.5 -23.5t122 -43 l171.5 -55.5l198 -60l199 -60l173 -50l123 -35l47 -13q57 -16 86.5 -67.5t13.5 -108.5t-66.5 -87t-107.5 -16l-58 17l-154 45l-217 67q-122 39 -248 85t-248 96.5t-217 102.5t-153.5 103.5t-58.5 98.5z" />
<glyph unicode="&#x203a;" horiz-adv-x="1714" d="M61 119q-20 55 5.5 108.5t83.5 71.5l51 18l135 50l190 69l217 81l216 82l189 74q83 34 134 57.5t51 31.5q0 6 -47 24.5t-125 43.5l-176 56l-202 60l-201 60l-176 50l-126 35l-49 13q-57 16 -86.5 67.5t-13.5 108.5t66.5 87t107.5 13l59 -16l153 -44l217 -67t248 -85 t248 -96t217 -102t153.5 -103.5t60.5 -98.5q0 -47 -60.5 -103.5t-160 -117t-226.5 -121.5l-260 -119.5t-261 -108.5l-228 -88l-162 -60l-61 -21q-55 -18 -109 7.5t-72 82.5z" />
<glyph unicode="&#x205f;" horiz-adv-x="673" />
<glyph unicode="&#x20ac;" horiz-adv-x="1757" d="M51 717q0 59 42 101t102 42h73q4 29 6 57.5t7 57.5h-33q-59 0 -101.5 42t-42.5 101t42 101.5t102 42.5h98q57 180 150.5 339.5t224.5 264.5q170 139 387 139q74 0 147.5 -7t141 -26.5t126 -54.5t101.5 -88q41 -51 60.5 -108.5t19.5 -118.5q0 -70 -21 -129 q-16 -57 -68 -85t-110 -12q-57 16 -84.5 68.5t-11.5 109.5q8 20 8 48q0 29 -14 45q-45 51 -126 67.5t-163 16.5q-59 0 -113.5 -26t-101.5 -65q-80 -66 -143.5 -164t-108.5 -214h559q59 0 101.5 -42t42.5 -102q0 -59 -42 -101t-102 -42h-635q-6 -29 -9 -57.5t-7 -57.5h598 q59 0 101 -42t42 -101t-42 -101.5t-101 -42.5h-594q18 -150 80 -260q45 -86 114.5 -133t166.5 -47q131 0 226 37t159 82q74 53 125 117q23 29 52 44t64 15q45 0 84 -27q29 -20 44.5 -51t15.5 -65q0 -47 -27 -82q-76 -98 -186 -178q-94 -68 -232.5 -123.5t-324.5 -55.5 q-184 0 -317.5 90.5t-215.5 241.5q-47 86 -75.5 186.5t-41.5 208.5h-75q-59 0 -101.5 42.5t-42.5 101.5z" />
<glyph unicode="&#x2122;" horiz-adv-x="1828" d="M51 1829q0 59 41 101t101 44l624 4q35 0 64.5 -15t50.5 -42q33 63 108 74q59 8 105.5 -29t54.5 -96v-2q2 -10 3 -18.5t1 -18.5q2 -29 8.5 -73t11.5 -93t11 -98l11 -89q5 -40 9 -66l5 -26h2q2 0 20 39l45 98l57 126l57 126l43 97l17 39q16 37 48 54t69 17q29 0 58.5 -10 t52 -28.5t36 -44t11.5 -58.5l-70 -831q-4 -59 -50 -98.5t-106 -32.5q-59 4 -98 50t-33 103l15 187q-41 -51 -82 -83t-76 -36q-53 -4 -97 28.5t-79 85.5l-33 -188q-10 -59 -58 -93t-108 -24q-59 10 -92 57.5t-23 106.5l111 641q-35 -23 -80 -22l-192 -2l-72 -658 q-6 -59 -52 -96t-106 -31q-59 6 -96 52.5t-31 105.5l70 625h-143q-59 -2 -101.5 41t-42.5 100z" />
<glyph unicode="&#xe000;" horiz-adv-x="1340" d="M0 1340h1340v-1340h-1340v1340z" />
<glyph unicode="&#xfb01;" horiz-adv-x="1333" d="M51 1124q0 59 42 101.5t102 42.5h79q27 147 64 272t89 217t121.5 145.5t162.5 55.5q125 0 238.5 -40t185.5 -128q39 -51 55 -105.5t16 -111.5q0 -53 -12 -109q-16 -57 -66.5 -87.5t-109.5 -14.5q-57 16 -87 66.5t-13 109.5q4 18 3 39.5t-14 38.5q-31 35 -83 45t-105 10 q-55 -2 -94 -112.5t-68 -290.5h248q59 0 101 -42t42 -102q0 -59 -42 -101t-101 -42h-285q-14 -125 -24 -241l-20 -229l-18 -232q-9 -119 -22 -252q-6 -59 -51 -96t-104 -33q-59 6 -97.5 51t-31.5 104q8 92 17 212l19 246q10 126 21.5 248t23.5 222h-38q-59 0 -101.5 42 t-42.5 101zM868 66l127 1128q6 59 52.5 97t105.5 30q59 -6 96 -52t31 -106l-127 -1128q-6 -59 -52 -96t-106 -31q-59 6 -96 52.5t-31 105.5z" />
<glyph unicode="&#xfb02;" horiz-adv-x="1599" d="M51 1124q0 59 42 101.5t102 42.5h79q27 147 64 272t89 217t121.5 145.5t162.5 55.5q125 0 238.5 -40t185.5 -128q39 -51 55 -105.5t16 -111.5q0 -53 -12 -109q-16 -57 -66.5 -87.5t-109.5 -14.5q-57 16 -87 66.5t-13 109.5q4 18 3 39.5t-14 38.5q-31 35 -83 45t-105 10 q-55 -2 -94 -112.5t-68 -290.5h248q59 0 101 -42t42 -102q0 -59 -42 -101t-101 -42h-285q-14 -125 -24 -241l-20 -229l-18 -232q-9 -119 -22 -252q-6 -59 -51 -96t-104 -33q-59 6 -97.5 51t-31.5 104q8 92 17 212l19 246q10 126 21.5 248t23.5 222h-38q-59 0 -101.5 42 t-42.5 101zM1047 57l215 1729q8 59 54 96t105 29q59 -6 96 -53.5t29 -106.5l-215 -1728q-6 -59 -53 -96.5t-107 -28.5q-59 8 -95.5 54t-28.5 105z" />
<glyph unicode="&#xfb03;" horiz-adv-x="2881" d="M2363 66l127 1128q6 59 52 97q38 31 85 31q10 0 21 -1q59 -6 96 -52q32 -39 32 -89q0 -8 -1 -17l-127 -1128q-6 -59 -52 -96q-39 -32 -89 -32q-8 0 -17 1q-59 6 -96 52q-32 39 -32 89q0 9 1 17zM2533 1671l10 72q8 59 55 96q38 30 84 30q10 0 21 -1q29 -4 53.5 -18.5 t42 -36t25.5 -48.5q5 -18 6 -37q0 -10 -2 -20l-10 -72q-6 -59 -53 -95q-40 -31 -90 -30h-17q-59 8 -95 55q-31 39 -31 88q0 8 1 17zM1206 1124q0 59 42 101.5t102 42.5h79q27 147 64 272t89 217t121.5 145.5t162.5 55.5q125 0 238.5 -40t185.5 -128q39 -51 55 -105.5 t16 -111.5q0 -53 -12 -109q-16 -57 -67 -88q-33 -20 -69 -20q-20 0 -40 6q-57 16 -87 66q-19 32 -19 69q0 20 6 41q4 18 3 39.5t-14 38.5q-31 35 -83 45t-105 10q-55 -2 -94 -112.5t-68 -290.5h248q59 0 101 -42t42 -102q0 -59 -42 -101t-101 -42h-285q-14 -125 -24 -241 l-20 -229l-18 -232q-9 -119 -22 -252q-6 -59 -51 -97q-41 -33 -93 -33q-6 0 -11 1q-59 6 -98 51q-33 39 -32 88q0 8 1 16q8 92 17 212l19 246q10 126 21.5 248t23.5 222h-38q-59 0 -101.5 42t-42.5 101zM51 1124q0 59 42 101.5t102 42.5h79q27 147 64 272t89 217 t121.5 145.5t162.5 55.5q125 0 238.5 -40t185.5 -128q39 -51 55 -105.5t16 -111.5q0 -53 -12 -109q-16 -57 -67 -88q-33 -20 -69 -20q-20 0 -40 6q-57 16 -87 66q-19 32 -19 69q0 20 6 41q4 18 3 39.5t-14 38.5q-31 35 -83 45t-105 10q-55 -2 -94 -112.5t-68 -290.5h248 q59 0 101 -42t42 -102q0 -59 -42 -101t-101 -42h-285q-14 -125 -24 -241l-20 -229l-18 -232q-9 -119 -22 -252q-6 -59 -51 -97q-41 -33 -93 -33q-6 0 -11 1q-59 6 -98 51q-33 39 -32 88q0 8 1 16q8 92 17 212l19 246q10 126 21.5 248t23.5 222h-38q-59 0 -101.5 42 t-42.5 101z" />
<glyph unicode="&#xfb04;" horiz-adv-x="2916" d="M2363 57l215 1729q8 59 55 96q38 30 84 30q10 0 21 -1q59 -6 96 -53q30 -39 30 -86q0 -10 -1 -21l-215 -1728q-6 -59 -53 -97q-39 -30 -86 -30q-10 0 -21 2q-59 8 -96 54q-30 38 -30 84q0 10 1 21zM1206 1124q0 59 42 101.5t102 42.5h79q27 147 64 272t89 217 t121.5 145.5t162.5 55.5q125 0 238.5 -40t185.5 -128q39 -51 55 -105.5t16 -111.5q0 -53 -12 -109q-16 -57 -67 -88q-33 -20 -69 -20q-20 0 -40 6q-57 16 -87 66q-19 32 -19 69q0 20 6 41q4 18 3 39.5t-14 38.5q-31 35 -83 45t-105 10q-55 -2 -94 -112.5t-68 -290.5h248 q59 0 101 -42t42 -102q0 -59 -42 -101t-101 -42h-285q-14 -125 -24 -241l-20 -229l-18 -232q-9 -119 -22 -252q-6 -59 -51 -97q-41 -33 -93 -33q-6 0 -11 1q-59 6 -98 51q-33 39 -32 88q0 8 1 16q8 92 17 212l19 246q10 126 21.5 248t23.5 222h-38q-59 0 -101.5 42 t-42.5 101zM51 1124q0 59 42 101.5t102 42.5h79q27 147 64 272t89 217t121.5 145.5t162.5 55.5q125 0 238.5 -40t185.5 -128q39 -51 55 -105.5t16 -111.5q0 -53 -12 -109q-16 -57 -67 -88q-33 -20 -69 -20q-20 0 -40 6q-57 16 -87 66q-19 32 -19 69q0 20 6 41q4 18 3 39.5 t-14 38.5q-31 35 -83 45t-105 10q-55 -2 -94 -112.5t-68 -290.5h248q59 0 101 -42t42 -102q0 -59 -42 -101t-101 -42h-285q-14 -125 -24 -241l-20 -229l-18 -232q-9 -119 -22 -252q-6 -59 -51 -97q-41 -33 -93 -33q-6 0 -11 1q-59 6 -98 51q-33 39 -32 88q0 8 1 16 q8 92 17 212l19 246q10 126 21.5 248t23.5 222h-38q-59 0 -101.5 42t-42.5 101z" />
</font>
</defs>
</svg>
